<?xml version="1.0" encoding="utf-8"?>
<!-- Generator: Adobe Illustrator 20.0.0, SVG Export Plug-In . SVG Version: 6.00 Build 0)  -->
<svg version="1.1" id="Layer_1" xmlns="http://www.w3.org/2000/svg" xmlns:xlink="http://www.w3.org/1999/xlink" x="0px" y="0px"
	 viewBox="0 0 64 42" style="enable-background:new 0 0 64 42;" xml:space="preserve">
<style type="text/css">
	.st0{fill:#009947;}
	.st1{fill:#FFFFFF;}
	.st2{fill:#FCD116;}
	.st3{fill:#222222;}
	.st4{fill:#C51024;}
</style>
<path class="st0" d="M58.1,0H5.8C4.7,0,3.6,0.3,2.7,0.9L64,21V5.7C64,2.6,61.4,0,58.1,0z"/>
<path class="st1" d="M2.1,1.4l3.5,2.3L58.4,21L5.6,38.3l-3.5,2.3c0.2,0.2,0.4,0.3,0.6,0.5L64,21L2.7,0.9C2.5,1,2.3,1.2,2.1,1.4z"/>
<path class="st0" d="M5.8,42h52.4c3.2,0,5.8-2.5,5.8-5.7V21L2.7,41.1C3.6,41.7,4.7,42,5.8,42z"/>
<polygon class="st2" points="5.6,38.3 58.4,21 5.6,3.7 32,21 "/>
<path class="st3" d="M32,21L5.6,3.7C4.4,2.9,3.3,2.2,2.1,1.4C1.8,1.6,1.5,1.9,1.2,2.2C1,2.5,0.9,2.7,0.7,2.9L28.3,21L0.7,39.1
	c0.1,0.2,0.3,0.5,0.5,0.7l0,0c0.3,0.4,0.6,0.7,0.9,0.9l3.5-2.3l0,0L32,21z"/>
<path class="st4" d="M28.3,21L0.7,2.9C0.3,3.8,0,4.7,0,5.7v30.6c0,1,0.3,1.9,0.7,2.8L28.3,21z"/>
</svg>
