<?xml version="1.0" encoding="utf-8"?>
<!-- Generator: Adobe Illustrator 20.0.0, SVG Export Plug-In . SVG Version: 6.00 Build 0)  -->
<svg version="1.1" id="Layer_1" xmlns="http://www.w3.org/2000/svg" xmlns:xlink="http://www.w3.org/1999/xlink" x="0px" y="0px"
	 viewBox="0 0 64 42" style="enable-background:new 0 0 64 42;" xml:space="preserve">
<style type="text/css">
	.st0{fill:#FACF16;}
	.st1{fill:#F5F7FA;}
	.st2{fill:#FFFFFF;}
	.st3{fill:#0038A8;}
</style>
<ellipse class="st0" cx="12.4" cy="11.1" rx="10.6" ry="9.6"/>
<rect y="28" class="st1" width="64" height="4.7"/>
<path class="st2" d="M63.9,37.3H0.1C0.6,40,3,42,5.8,42h52.4C61,42,63.4,40,63.9,37.3z"/>
<path class="st1" d="M23.7,4.7h40.2C63.4,2,61,0,58.1,0H5.8C2.6,0,0,2.6,0,5.7v17.6h64v-4.7H23.7V14H64V9.3H23.7V4.7z M19.8,14.9
	c-1.4-1.4-1.5,0.2-4.4-1l-0.8-1.2c0,0-0.1,0-0.1-0.1c0,0,0.1,0,0.1,0.1l-0.1-0.1l0,0l0,0l3.4,4.9l-3.5-2.4c0,2.5,1.7,2.4,0.8,4.3
	c0-2-1.2-0.9-2.4-3.7l0.3-1.4v-0.1v0.1v-0.1l0,0l0,0L12,20.1L11.1,16c-1.8,1.8-0.5,2.9-2.5,3.5c1.4-1.4-0.2-1.5,1-4.3l1.2-0.8
	c0,0,0-0.1,0.1-0.1c0,0,0,0.1-0.1,0.1l0.1-0.1l0,0l0,0l-5,3.4l2.5-3.5c-2.5,0-2.5,1.7-4.3,0.7c2,0,0.9-1.2,3.8-2.4l1.4,0.2h0.1H9.3
	h0.1l0,0l0,0l-6-1.1l4.2-0.8C5.8,9.1,4.7,10.3,4,8.3c1.4,1.4,1.5-0.2,4.4,1l0.8,1.2c0,0,0.1,0,0.1,0.1c0,0-0.1,0-0.1-0.1l0.1,0.1
	l0,0l0,0L5.8,5.7l3.5,2.4c0-2.5-1.7-2.4-0.8-4.3c0,2,1.2,0.9,2.4,3.7L10.7,9v0.1V9v0.1l0,0l0,0l1.1-5.9l0.8,4.2
	c1.8-1.8,0.5-2.9,2.5-3.5c-1.4,1.4,0.2,1.5-1,4.3L13,9c0,0,0,0.1-0.1,0.1C13,9,13,9,13,9h-0.1l0,0l0,0l5-3.4l-2.5,3.5
	c2.5,0,2.5-1.7,4.3-0.7c-2,0-0.9,1.2-3.8,2.4l-1.4-0.2h-0.1h0.1h-0.1l0,0l0,0l6,1.1l-4.2,0.8C18,14.2,19.2,13,19.8,14.9z"/>
<path class="st3" d="M64,5.7v-1h-0.1C64,5,64,5.3,64,5.7z"/>
<path class="st3" d="M23.7,4.7v4.7H64V5.7c0-0.4,0-0.7-0.1-1H23.7z"/>
<rect x="23.7" y="14" class="st3" width="40.3" height="4.7"/>
<rect y="23.3" class="st3" width="64" height="4.7"/>
<path class="st3" d="M0,36.3v1h0.1C0,37,0,36.7,0,36.3z"/>
<path class="st3" d="M64,37.3v-1C64,36.7,64,37,64,37.3L64,37.3z"/>
<path class="st3" d="M0,36.3c0,0.4,0,0.7,0.1,1h63.8c0.1-0.3,0.1-0.7,0.1-1v-3.6H0V36.3z"/>
</svg>
