<?xml version="1.0" encoding="utf-8"?>
<!-- Generator: Adobe Illustrator 20.0.0, SVG Export Plug-In . SVG Version: 6.00 Build 0)  -->
<svg version="1.1" id="Layer_1" xmlns="http://www.w3.org/2000/svg" xmlns:xlink="http://www.w3.org/1999/xlink" x="0px" y="0px"
	 viewBox="0 0 64 42" style="enable-background:new 0 0 64 42;" xml:space="preserve">
<style type="text/css">
	.st0{fill:#F7D117;}
	.st1{fill:#CF142B;}
	.st2{fill:#0033AA;}
	.st3{fill:#FFFFFF;}
</style>
<path id="Rounded_Rectangle_7_copy_1_" class="st0" d="M5.8,0h52.3C61.4,0,64,2.6,64,5.7v30.6c0,3.2-2.6,5.7-5.8,5.7H5.8
	C2.6,42,0,39.4,0,36.3V5.7C0,2.6,2.6,0,5.8,0z"/>
<path class="st1" d="M0,36.3C0,39.4,2.6,42,5.8,42h52.4c3.2,0,5.8-2.5,5.8-5.7V14H0V36.3z"/>
<rect y="14" class="st2" width="64" height="14"/>
<g>
	<polygon class="st3" points="19.4,24.2 19.9,25.5 21.3,25.5 20.2,26.3 20.6,27.6 19.4,26.8 18.2,27.6 18.7,26.3 17.5,25.5 19,25.5 
			"/>
	<polygon class="st3" points="20.7,19.6 21.2,21 22.6,21 21.4,21.8 21.9,23.1 20.7,22.3 19.5,23.1 20,21.8 18.8,21 20.2,21 	"/>
	<polygon class="st3" points="24.1,16.2 24.6,17.5 26.1,17.5 24.9,18.3 25.3,19.6 24.1,18.8 22.9,19.6 23.4,18.3 22.2,17.5 
		23.7,17.5 	"/>
	<polygon class="st3" points="29.1,14.2 29.6,15.5 31,15.5 29.8,16.3 30.3,17.6 29.1,16.8 27.9,17.6 28.4,16.3 27.2,15.5 28.7,15.5 
			"/>
	<polygon class="st3" points="34.9,14.2 35.3,15.5 36.8,15.5 35.6,16.3 36.1,17.6 34.9,16.8 33.7,17.6 34.2,16.3 33,15.5 34.4,15.5 
			"/>
	<polygon class="st3" points="39.9,16.2 40.3,17.5 41.8,17.5 40.6,18.3 41.1,19.6 39.9,18.8 38.7,19.6 39.1,18.3 37.9,17.5 
		39.4,17.5 	"/>
	<polygon class="st3" points="43.3,19.6 43.8,21 45.2,21 44,21.8 44.5,23.1 43.3,22.3 42.1,23.1 42.6,21.8 41.4,21 42.8,21 	"/>
	<polygon class="st3" points="44.6,24.2 45,25.5 46.5,25.5 45.3,26.3 45.8,27.6 44.6,26.8 43.4,27.6 43.8,26.3 42.7,25.5 44.1,25.5 
			"/>
</g>
</svg>
