<svg  xmlns="http://www.w3.org/2000/svg"
      xmlns:xlink="http://www.w3.org/1999/xlink">


    <rect x="0" y="0" height="300" width="100"
        fill="rgba(0,0,0,0.2)"/>
	<defs>	
		<clipPath id="bottleClip">	
			 <path d="M50.188,96.687c8.372,0,11.717-0.938,11.717-0.938c2.479-0.67,2.479-3.551,2.479-3.551V61.659  c0-11.853-3.817-18.684-3.817-18.684c-4.956-9.31-5.76-19.689-5.76-19.689l-0.47-13.328c0-0.87,0.604-1.139,0.604-1.139V5.806  l-0.604-0.402V4.466c-0.869-1.139-4.148-1.009-4.148-1.009s-3.278-0.13-4.148,1.009v0.938l-0.602,0.402v3.013  c0,0,0.602,0.269,0.602,1.139l-0.469,13.328c0,0-0.804,10.38-5.76,19.689c0,0-3.816,6.831-3.816,18.684v30.539  c0,0,0,2.881,2.478,3.551C38.473,95.749,41.818,96.687,50.188,96.687z" transform="scale(3.2) translate(-35,-3)"/>
		</clipPath>
	</defs>
   

	<g id="UK">
		<polygon fill="#00237a" points="64,36 64,6 38,21 "/>
		<path fill="#00237a" d="M61,0.8C60.2,0.3,59.2,0,58.1,0H5.8c-1,0-2,0.3-2.9,0.8L32,17.5L61,0.8z"/>
		<path fill="#00237a" d="M2.9,41.2C3.8,41.7,4.8,42,5.8,42h52.4c1,0,2-0.3,2.9-0.7L32,24.5L2.9,41.2z"/>
		<polygon fill="#00237a" points="0,6 0,36 26,21 "/>
		<path fill="#FFFFFF" d="M27,20.4L0.1,4.9C0,5.1,0,5.4,0,5.7V6l26,15L27,20.4z"/>
		<path fill="#FFFFFF" d="M37,21.6l26.9,15.6c0-0.3,0.1-0.5,0.1-0.8V36L38,21L37,21.6z"/>
		<path fill="#FFFFFF" d="M63.3,39.1L35,22.7l-3,1.7l29.1,16.8C62,40.7,62.8,40,63.3,39.1z"/>
		<path fill="#FFFFFF" d="M0.7,2.9L29,19.3l3-1.7L2.9,0.8C2,1.3,1.3,2,0.7,2.9z"/>
		<path fill="#CF142B" d="M0.7,2.9c-0.3,0.6-0.5,1.3-0.6,2L27,20.4l2-1.2L0.7,2.9z"/>
		<path fill="#CF142B" d="M35,22.7L63.3,39c0.3-0.6,0.5-1.2,0.6-1.9L37,21.6L35,22.7z"/>
		<path fill="#FFFFFF" d="M31,23.9L2,40.6c0.3,0.2,0.6,0.4,0.9,0.6L32,24.5L31,23.9z"/>
		<path fill="#FFFFFF" d="M0.7,39.1L29,22.7L26,21L0,36v0.3C0,37.3,0.3,38.2,0.7,39.1z"/>
		<path fill="#FFFFFF" d="M33,18.1L62,1.4c-0.3-0.2-0.6-0.4-0.9-0.6L32,17.5L33,18.1z"/>
		<path fill="#FFFFFF" d="M63.3,3L35,19.3l3,1.7L64,6V5.7C64,4.7,63.7,3.8,63.3,3z"/>
		<path fill="#CF142B" d="M0.7,39.1C1,39.7,1.5,40.2,2,40.7L31,24l-2-1.2L0.7,39.1z"/>
		<polygon fill="#CF142B" points="32,21 31,22.7 30,22.2 29,22.7 31,23.9 33,22.7 "/>
		<polygon fill="#CF142B" points="31,22.7 32,21 30,22.2 "/>
		<path fill="#CF142B" d="M63.3,3C63,2.4,62.5,1.9,62,1.4L33,18.1l2,1.2L63.3,3z"/>
		<polygon fill="#CF142B" points="32,21 33,19.3 34,19.8 35,19.3 33,18.1 31,19.3 "/>
		<polygon fill="#CF142B" points="32,21 34,19.8 33,19.3 "/>
		<polygon fill="#FFFFFF" points="64,16 37,16 37,0 27,0 27,16 0,16 0,26 27,26 27,42 37,42 37,26 64,26 "/>
		<polygon fill="#CF142B" points="64,18 35,18 35,0 29,0 29,18 0,18 0,24 29,24 29,42 35,42 35,24 64,24 "/>
	</g>


	<g id="France">
		<path id="Rounded_Rectangle_7_copy" fill="#FFFFFF" d="M5.8,0h52.3C61.4,0,64,2.6,64,5.7v30.6c0,3.2-2.6,5.7-5.8,5.7H5.8
			C2.6,42,0,39.4,0,36.3V5.7C0,2.6,2.6,0,5.8,0z"/>
		<path fill="#57A863" d="M64,5.3v31.4c0-0.1,0-0.3,0-0.4V5.7C64,5.6,64,5.5,64,5.3z"/>
		<path fill="#00209F" d="M5.8,42h15.5V0H5.8C2.6,0,0,2.6,0,5.7v30.7C0,39.5,2.6,42.1,5.8,42z"/>
		<path fill="#F32840" d="M58.2,42H42.7V0h15.5C61.4,0,64,2.6,64,5.7v30.7C64,39.5,61.4,42.1,58.2,42z"/>
	</g>
	<g id="Russia">	
		<path id="Rounded_Rectangle_7_copy_1_" fill="#FFFFFF" d="M5.8,0h52.3C61.4,0,64,2.6,64,5.7v30.6c0,3.2-2.6,5.7-5.8,5.7H5.8
		C2.6,42,0,39.4,0,36.3V5.7C0,2.6,2.6,0,5.8,0z"/>
		<path fill="#F10000" d="M0,36.3C0,39.4,2.6,42,5.8,42h52.4c3.2,0,5.8-2.5,5.8-5.7V14H0V36.3z"/>
		<rect y="14" fill="#0000FF" width="64" height="14"/>
	</g>
	<g id="NZ">
		<path id="SVGID_1_" fill="#00247C" d="M5.8,0h52.3C61.4,0,64,2.6,64,5.7v30.6c0,3.2-2.6,5.7-5.8,5.7H5.8C2.6,42,0,39.4,0,36.3V5.7
			C0,2.6,2.6,0,5.8,0z"/>
		<polygon fill="#CC142B" stroke="#FFFFFF" stroke-width="0.4" stroke-miterlimit="10" points="48,10.8 50,9.4 47.5,9.4 46.8,7.1 46,9.4 43.6,9.4 45.5,10.8 44.8,13.1 46.8,11.7 48.7,13.1 "/>
		<polygon fill="#CC142B" stroke="#FFFFFF" stroke-width="0.4" stroke-miterlimit="10" points="48.1,35.8 50.3,34.2 47.6,34.2 46.8,31.6 45.9,34.2 43.2,34.2 45.4,35.8 44.6,38.3 46.8,36.8 
			48.9,38.3 "/>
		<polygon fill="#CC142B" stroke="#FFFFFF" stroke-width="0.4" stroke-miterlimit="10" points="56.1,17.9 57.8,16.6 55.7,16.6 55,14.6 54.3,16.6 52.1,16.6 53.9,17.9 53.2,20 55,18.7 56.7,20 "/>
		<polygon fill="#CC142B" stroke="#FFFFFF" stroke-width="0.4" stroke-miterlimit="10" points="38.4,20.5 40.4,19 37.9,19 37.2,16.7 36.4,19 34,19 35.9,20.5 35.2,22.8 37.2,21.4 39.1,22.8 "/>
		<path fill="#FFFFFF" d="M7.8,7.3H9L0.9,2.6l0,0C0.8,2.8,0.7,3,0.6,3.1L7.8,7.3z"/>
		<path fill="#FFFFFF" d="M32.1,18.2C32.1,18.2,32.1,18.3,32.1,18.2L32.1,18.2c0-0.1,0.1-0.2,0.1-0.3v-0.2l-9-5.2h-1L32.1,18.2z"/>
		<path fill="#FFFFFF" d="M18.2,13.3l12.4,7.1c0.5-0.3,0.9-0.7,1.2-1.1L20,12.5h-1.8V13.3z"/>
		<path fill="#FFFFFF" d="M1.6,1.8l9.6,5.5H13V6.6L2.9,0.8l0,0C2.4,1,2,1.4,1.6,1.8z"/>
		<path fill="#CF142B" d="M9.2,7.3h2L1.6,1.8C1.4,2,1.1,2.3,0.9,2.6l0,0L9.2,7.3z"/>
		<path fill="#CF142B" d="M22.2,12.5h-2.1l11.7,6.7c0.2-0.3,0.3-0.6,0.3-0.9v-0.1L22.2,12.5z"/>
		<path fill="#FFFFFF" d="M0.1,20.1c0.1,0.1,0.2,0.1,0.4,0.2L13,13.2v-0.5L0.1,20.1z"/>
		<polygon fill="#FFFFFF" points="11.1,12.5 7.9,12.5 0,17 0,19 "/>
		<polygon fill="#FFFFFF" points="18.2,7.2 30.8,0 29.7,0 18.2,6.6 "/>
		<path fill="#FFFFFF" d="M23.2,7.3l9-5.2V2c-0.1-0.6-0.2-1-0.4-1.4L20.1,7.3H23.2z"/>
		<path fill="#CF142B" d="M0.1,20.1L13,12.7v-0.2h-1.7L0,19v1L0.1,20.1L0.1,20.1z"/>
		<path fill="#CF142B" d="M18.2,7.2L18.2,7.2l1.9,0.1l11.7-6.7c-0.1-0.2-0.3-0.4-0.5-0.6h-0.6L18.2,7.2z"/>
		<polygon fill="#FFFFFF" points="17.1,8.3 32.1,8.3 32.1,7.3 23.2,7.3 20.1,7.3 18.2,7.3 18.2,7.2 18.2,6.6 18.2,0 17.1,0 "/>
		<polygon fill="#FFFFFF" points="14,8.3 14,0 13,0 13,6.6 13,7.3 11.2,7.3 9.2,7.3 9,7.3 7.8,7.3 0,7.3 0,8.3 "/>
		<polygon fill="#FFFFFF" points="17.1,20.8 18.2,20.8 18.2,13.3 18.2,12.5 20,12.5 20.1,12.5 22.2,12.5 23.2,12.5 32.1,12.5 32.1,11.4 
			17.1,11.4 "/>
		<polygon fill="#FFFFFF" points="11.1,12.5 11.3,12.5 13,12.5 13,12.7 13,13.2 13,20.8 14,20.8 14,11.4 0,11.4 0,12.5 7.9,12.5 "/>
		<polygon fill="#CF142B" points="17.1,0 14,0 14,8.3 0,8.3 0,11.4 14,11.4 14,20.8 17.1,20.8 17.1,11.4 32.1,11.4 32.1,8.3 17.1,8.3 "/>
	</g>
	

</svg>