<svg xmlns="http://www.w3.org/2000/svg" xmlns:xlink="http://www.w3.org/1999/xlink" version="1.1" x="0px" y="0px" viewBox="0 0 100 125" enable-background="new 0 0 100 100" xml:space="preserve"><path d="M50.188,96.687c8.372,0,11.717-0.938,11.717-0.938c2.479-0.67,2.479-3.551,2.479-3.551V61.659  c0-11.853-3.817-18.684-3.817-18.684c-4.956-9.31-5.76-19.689-5.76-19.689l-0.47-13.328c0-0.87,0.604-1.139,0.604-1.139V5.806  l-0.604-0.402V4.466c-0.869-1.139-4.148-1.009-4.148-1.009s-3.278-0.13-4.148,1.009v0.938l-0.602,0.402v3.013  c0,0,0.602,0.269,0.602,1.139l-0.469,13.328c0,0-0.804,10.38-5.76,19.689c0,0-3.816,6.831-3.816,18.684v30.539  c0,0,0,2.881,2.478,3.551C38.473,95.749,41.818,96.687,50.188,96.687z"/><text x="0" y="115" fill="#000000" font-size="5px" font-weight="bold" font-family="'Helvetica Neue', Helvetica, Arial-Unicode, Arial, Sans-serif">Created by Fabio Meroni</text><text x="0" y="120" fill="#000000" font-size="5px" font-weight="bold" font-family="'Helvetica Neue', Helvetica, Arial-Unicode, Arial, Sans-serif">from the Noun Project</text></svg>