<?xml version="1.0" encoding="utf-8"?>
<!-- Generator: Adobe Illustrator 20.0.0, SVG Export Plug-In . SVG Version: 6.00 Build 0)  -->
<svg version="1.1" id="Layer_1" xmlns="http://www.w3.org/2000/svg" xmlns:xlink="http://www.w3.org/1999/xlink" x="0px" y="0px"
	 viewBox="0 0 64 42" style="enable-background:new 0 0 64 42;" xml:space="preserve">
<style type="text/css">
	.st0{fill:#C81125;}
</style>
<path id="Rounded_Rectangle_7_copy" class="st0" d="M5.8,0h52.3C61.4,0,64,2.6,64,5.7v30.6c0,3.2-2.6,5.7-5.8,5.7H5.8
	C2.6,42,0,39.4,0,36.3V5.7C0,2.6,2.6,0,5.8,0z"/>
<path d="M44.3,27.3C44,27,43.6,27,43.1,27.4c-0.5,0-1.1,0.1-2,0.1c0.3-0.2,0.7-0.5,1.1-0.7c0.4,0.1,0.8,0,1-0.3
	c0.3-0.3,0.6-0.2,1.1-0.1c0-0.7-0.6-0.7-1.3-0.5c-0.4-0.2-1.1,0-1.1,0.5c-0.3,0.4-0.8,0.6-1.4,1c-0.8-0.3-1.8-0.6-2.7-1.1
	c0.2-0.2,0.4-0.5,0.6-0.7c-1.5-0.8-2.7-1.6-3.2-3.2c-0.2-0.5,0.1-0.4,0.3-0.1c0.3,0.6,0.7,1.1,1.3,1.4c0.5,0.2,0.7-0.3,0.4-0.6
	c-0.3-0.3-0.6-0.8-0.7-1.5c0-0.4,0.5-0.4,0.6-0.2c0.7,2,1.6,3.3,2.4,3c0.8-0.3,0.4-0.8,0-1c-0.8-0.4-1.2-1.5-1.3-2.1
	c0-0.6,0.3-0.6,0.6-0.1c0.2,0.5,0.9,1.3,2,2.6c1.1,1.2,2.6,1.5,3.5,0.8c0.7-0.6,0-1.1-0.7-0.9c-1.4,0.4-2.9-1.1-3.7-3.3
	c-0.1-0.3,0.1-0.4,0.3-0.2c2,2.4,3.6,2.6,4.5,1.8c0.3-0.3,0.7-1.2-0.8-0.9c-1.6,0.3-2.6-0.9-3.8-2.6c-0.5-0.7,0-0.8,0.4-0.3
	c0.5,0.4,1.1,1,1.9,1.4c0.8,0.5,2.3,0.4,2.5-0.5s-0.5-0.9-1.2-0.6c-1.3,0.4-2.3-0.5-3.2-1.5c-0.4-0.5-0.2-0.8,0.1-0.6
	c0.4,0.2,1.2,0.6,1.8,0.9s1.8,0.5,2.4-0.3c0.6-0.8-0.3-1.3-1.1-0.8c-0.8,0.5-2.6,0-3.3-0.9c-0.7-0.9,0.1-0.8,0.5-0.5
	c1.1,0.6,2.5,0.6,3.7-0.2c0.5-0.4,0.5-0.7,0.3-1c-0.1-0.2-0.5-0.2-0.9,0.1c-1.6,1-2.9,0.8-3.9-0.6c-0.4-0.5,0.1-0.6,0.5-0.4
	c1.9,0.9,3.8,0.3,4.4-1c0.3-0.6-0.3-1.3-0.9-0.6c-0.8,1-2.1,1.1-3.4,0.9c-0.6-0.1-0.6-0.9,0-1c1.4-0.2,3.7-1.1,4.3-2.3
	c0.6-1-0.6-2.1-1.2-0.9c-0.6,1.1-1.9,1.9-3.2,2.3c-0.5,0.2-0.7,0.1-0.7,0c0-0.2-0.2-0.6-0.3-0.5c-0.4,0.2-1.8,0.7-2.4,0.9
	c-0.7,0.2-1,0.9-0.9,1.4c0,0.6,0.2,1.6-0.8,1.6c-1.6,0-0.9-2.6,0-3.3c0.7-0.8,1.5-1.1,2.1-1.1s1.3-0.2,1.4-0.8
	c0.1,0,0.4-0.1,0.7-0.1c0.2,0,0.6-0.2,0.8-0.4c0.2-0.2,0.4-0.5,0.2-0.6c-0.1-0.1-0.5,0.2-0.6,0.4S39.7,8,39.6,8
	c-0.2,0-0.5,0.1-0.7,0.1s-0.5,0-0.6-0.1c-0.1-0.2,0-0.3,0.2-0.4s0.5-0.1,0.6,0.1c0.1,0.1,0.1,0.2,0.3,0.2c0.2-1-0.8-1-1.6-0.9
	c-0.5-0.8-1.8-0.2-2.6,0.2c-0.4,0.1-1.1,0-1.5-0.1c-0.4-0.2-0.3,0-0.2,0.2s0.6,0.5,0.8,0.5s0.1,0.1,0.1,0.2
	c-0.2,0.2-0.6,0.5-0.8,0.5s-0.3,0.1-0.2,0.2c0.1,0.1,0.3,0.2,0.4,0.2c0.2,0,0.1,0.1,0,0.2c-0.2,0.3-0.7,0.5-0.9,0.5
	s-0.2,0.1-0.1,0.1c0.1,0.1,0.3,0.2,0.4,0.2c0.1,0,0.1,0,0,0.2c-0.1,0.1-0.4,0.4-0.6,0.4c-0.3-0.1-0.4,0-0.3,0.1
	c0.2,0.3,0.2,0.4-0.2,0.5l0,0c-0.4-0.1-0.4-0.2-0.2-0.5c0.1-0.1,0-0.2-0.3-0.1c-0.2,0.1-0.5-0.2-0.6-0.4c-0.1-0.1-0.1-0.2,0-0.2
	s0.4-0.1,0.4-0.2c0.1-0.1,0-0.2-0.1-0.1c-0.2,0-0.7-0.2-0.9-0.5c-0.1-0.1-0.1-0.2,0-0.2c0.2,0,0.3-0.1,0.4-0.2s0-0.2-0.2-0.2
	S30,8.2,29.8,8c-0.1-0.1-0.1-0.2,0.1-0.2s0.6-0.4,0.8-0.5c0.1-0.2,0.1-0.4-0.2-0.2c-0.4,0.2-1.1,0.2-1.5,0.1
	c-0.9-0.4-2.1-0.9-2.6-0.2c-0.8,0-1.8-0.1-1.6,0.9c0.2,0,0.3-0.1,0.3-0.2c0.1-0.1,0.3-0.2,0.6-0.1c0.2,0.1,0.4,0.2,0.2,0.4
	c-0.1,0.1-0.4,0.2-0.6,0.1c-0.2,0-0.5-0.1-0.7-0.1c-0.1,0-0.4-0.2-0.5-0.4c-0.1-0.2-0.4-0.5-0.6-0.4c-0.2,0.2,0,0.5,0.2,0.6
	c0.2,0.2,0.6,0.4,0.8,0.4c0.3,0,0.6,0.1,0.7,0.1c0.1,0.5,0.8,0.8,1.4,0.8S28,9.4,28.7,10c0.9,0.8,1.6,3.3,0,3.3c-1,0-0.8-1-0.8-1.6
	s-0.3-1.2-0.9-1.4c-0.7-0.2-2.1-0.7-2.4-0.9c-0.2-0.1-0.3,0.3-0.3,0.5s-0.2,0.2-0.7,0c-1.4-0.4-2.6-1.2-3.2-2.3s-1.7,0-1.2,0.9
	c0.7,1.1,2.9,2.1,4.3,2.3c0.7,0.1,0.7,0.9,0,1c-1.3,0.2-2.6,0.2-3.4-0.9c-0.6-0.8-1.2-0.1-0.9,0.6c0.6,1.3,2.5,1.9,4.4,1
	c0.4-0.2,0.9-0.2,0.5,0.4c-1,1.3-2.2,1.5-3.9,0.6c-0.5-0.3-0.8-0.2-0.9-0.1c-0.2,0.3-0.3,0.6,0.3,1c1.2,0.9,2.6,0.8,3.7,0.2
	c0.4-0.2,1.3-0.4,0.5,0.5c-0.7,0.9-2.6,1.4-3.3,0.9c-0.8-0.5-1.7,0-1.1,0.8c0.6,0.8,1.8,0.6,2.4,0.3c0.6-0.3,1.4-0.7,1.8-0.9
	c0.4-0.2,0.5,0.1,0.1,0.6c-0.9,1.1-1.9,2-3.2,1.5c-0.7-0.2-1.4-0.2-1.2,0.7s1.7,1,2.5,0.5s1.5-1,1.9-1.4c0.5-0.4,0.9-0.4,0.4,0.3
	C23,20.1,22,21.3,20.3,21c-1.5-0.3-1.1,0.6-0.8,0.9c0.9,0.8,2.6,0.6,4.5-1.8c0.2-0.2,0.4-0.1,0.3,0.2c-0.9,2.2-2.3,3.7-3.7,3.3
	c-0.7-0.2-1.4,0.2-0.7,0.9c0.8,0.7,2.4,0.5,3.5-0.8c1.1-1.2,1.8-2.1,2-2.6s0.6-0.5,0.6,0.1s-0.5,1.8-1.3,2.1c-0.4,0.2-0.8,0.6,0,1
	c0.8,0.3,1.7-1,2.4-3c0.1-0.2,0.6-0.3,0.6,0.2c0,0.6-0.3,1.1-0.7,1.5c-0.3,0.3-0.1,0.8,0.4,0.6c0.6-0.3,1-0.7,1.3-1.4
	c0.1-0.4,0.4-0.5,0.3,0.1c-0.5,1.7-1.7,2.4-3.2,3.2c0.2,0.2,0.4,0.5,0.6,0.7c-0.9,0.5-1.9,0.8-2.7,1.1c-0.6-0.4-1.2-0.6-1.4-1
	c-0.1-0.5-0.7-0.8-1.1-0.5c-0.7-0.3-1.2-0.2-1.3,0.5c0.4-0.1,0.8-0.1,1.1,0.1c0.1,0.3,0.6,0.5,1,0.3c0.5,0.3,0.8,0.6,1.1,0.7
	c-0.9,0-1.5-0.1-2-0.1c-0.4-0.4-0.8-0.4-1.2-0.1c-0.5-0.1-0.9,0.1-1.1,0.6c0.4,0,0.8-0.2,1,0c0.2,0.4,0.8,0.4,1.2,0.1
	c0.6,0,1.7,0,2,0c-0.4,0.2-0.8,0.5-1.1,0.6c-0.9-0.2-1.4,0.2-1.3,0.8c-0.2,0.3-0.2,0.8,0.1,1c0.1-0.3,0.2-0.6,0.4-0.8
	c0.6,0.1,0.9-0.1,1.1-0.7c0.4-0.2,0.8-0.5,1-0.6s0.3-0.3,0.8-0.1c0.4,0.2,0.8,0.3,1,0.5c0.1,0.5,0.7,0.6,1,0.3
	c0.2,0.1,0.4,0.3,0.5,0.6c0.2-0.4,0.1-0.8-0.3-0.9c-0.1-0.4-0.6-0.6-1-0.4c-0.3-0.1-0.7-0.3-0.9-0.4c0.6-0.2,2.1-0.8,2.6-1
	c0.5,0.4,1.1,0.7,1.5,0.6c0.1-0.4,0.3-0.7,0.5-1.2c0.4-0.8,0.9-1.6,1.3-2.1s0.8-0.2,0.8,0.5c-0.1,1.6-1.3,4-3,4.1
	c-0.6,0-0.8,0.2-0.5,0.6s1.3,0.5,1.8,0.1s0.7-0.4,0.6,0.2c-0.1,0.5-0.7,0.7-1.1,0.7c-0.6,0-1.4,0.3-0.8,0.8c0.6,0.6,1.6,0.2,2.3-0.6
	c0.2-0.3,0.4-0.4,0.4,0.1c0,0.8-0.5,1.3-1,1.4c-0.5,0.1-1,0.2-0.8,0.5c0.2,0.5,1,0.6,1.4,0.3c0.4-0.2,0.9-0.7,1-0.9
	c0.1-0.3,0.3-0.1,0.2,0.2c-0.1,0.8-0.6,0.7-0.6,1.4c0,0.6,0.5,1.2,1.1,1.9c0.6-0.7,1.1-1.3,1.1-1.9c0-0.6-0.5-0.6-0.6-1.4
	c-0.1-0.4,0.1-0.5,0.2-0.2c0.1,0.3,0.6,0.7,1,0.9s1.2,0.2,1.4-0.3c0.1-0.3-0.4-0.4-0.8-0.5c-0.5-0.1-1-0.6-1-1.4
	c0-0.5,0.2-0.4,0.4-0.1c0.7,0.8,1.7,1.1,2.3,0.6c0.6-0.6-0.1-0.8-0.8-0.8c-0.4,0-1-0.2-1.1-0.7s0.1-0.5,0.6-0.2
	c0.5,0.4,1.5,0.3,1.8-0.1s0.1-0.6-0.5-0.6c-1.7-0.1-2.9-2.5-3-4.1c0-0.7,0.4-0.9,0.8-0.5c0.4,0.5,0.9,1.3,1.3,2.1
	c0.3,0.5,0.4,0.8,0.5,1.2c0.4,0.1,1-0.3,1.5-0.6c0.5,0.2,2.1,0.8,2.6,1c-0.2,0.1-0.6,0.3-0.9,0.4c-0.4-0.2-0.8-0.1-1,0.4
	c-0.4,0.1-0.5,0.6-0.3,0.9c0.1-0.2,0.3-0.4,0.5-0.6c0.3,0.2,0.9,0.2,1-0.3c0.2-0.1,0.6-0.3,1-0.5s0.6,0,0.8,0.1s0.6,0.4,1,0.6
	c0.2,0.6,0.6,0.8,1.1,0.7c0.2,0.2,0.4,0.6,0.4,0.8c0.3-0.2,0.3-0.7,0.1-1c0.1-0.7-0.4-1-1.3-0.8c-0.2-0.1-0.7-0.4-1.1-0.6
	c0.3,0,1.4,0,2,0c0.4,0.3,1,0.3,1.2-0.1c0.3-0.1,0.6,0,1,0C45.2,27.4,44.8,27.2,44.3,27.3z M36.2,7.7L36.2,7.7
	c0.3-0.1,0.5-0.2,0.8-0.1c0.2,0.1,0.3,0.3,0,0.4c-0.3,0.1-0.6,0.1-0.8,0.1C36,8,35.9,7.8,36.2,7.7z M28,8.1c-0.2,0-0.5,0-0.7,0
	c-0.2-0.1-0.2-0.3,0-0.4s0.5,0,0.8,0.1C28.3,7.8,28.2,8,28,8.1z"/>
</svg>
