<?xml version="1.0" encoding="utf-8"?>
<!-- Generator: Adobe Illustrator 20.0.0, SVG Export Plug-In . SVG Version: 6.00 Build 0)  -->
<svg version="1.1" id="Layer_1" xmlns="http://www.w3.org/2000/svg" xmlns:xlink="http://www.w3.org/1999/xlink" x="0px" y="0px"
	 viewBox="0 0 64 42" style="enable-background:new 0 0 64 42;" xml:space="preserve">
<style type="text/css">
	.st0{fill:#EFD515;}
	.st1{fill:#57A863;}
	.st2{fill:#380096;}
	.st3{fill:#D81C3F;}
</style>
<path id="Rounded_Rectangle_7_copy" class="st0" d="M5.8,0h52.3C61.4,0,64,2.6,64,5.7v30.6c0,3.2-2.6,5.7-5.8,5.7H5.8
	C2.6,42,0,39.4,0,36.3V5.7C0,2.6,2.6,0,5.8,0z"/>
<path class="st1" d="M64,5.3v31.4c0-0.1,0-0.3,0-0.4V5.7C64,5.6,64,5.5,64,5.3z"/>
<path class="st2" d="M5.8,42h15.5V0H5.8C2.6,0,0,2.6,0,5.7v30.7C0,39.5,2.6,42.1,5.8,42z"/>
<path class="st3" d="M58.2,42H42.7V0h15.5C61.4,0,64,2.6,64,5.7v30.7C64,39.5,61.4,42.1,58.2,42z"/>
<path class="st3" d="M38.6,23.1c0-0.1,0-0.1,0-0.2l-0.1-0.1c0-0.1,0-0.1,0-0.2l-0.1-0.1v-0.1c0-0.1-0.1-0.1-0.2-0.1L38,21.1
	c0,0,0.1,0,0.1-0.1l0,0l0.1-0.1l0,0l0,0c0-0.1,0-0.1,0-0.2s0-0.2-0.1-0.2L38,20.4l0,0l0,0l0,0c0,0,0,0-0.1,0l0,0l0,0l0,0
	c0.3-0.1,1-0.3,1-1.4c0-0.4-0.1-0.6-0.2-0.8c-0.2-0.4-0.6-0.6-0.9-0.6l0,0l0,0h-0.1l0,0l0,0l0,0c-0.1,0-0.2,0-0.3,0.1v-0.1l0,0
	c0-0.1-0.1-0.2-0.2-0.2l0,0l0.1-0.6c0.1-0.1,0.3-0.3,0.4-0.4c0.2-0.3,0.3-0.4,0.3-0.7c0-0.2-0.2-0.4-0.3-0.4l0,0c0,0,0,0,0-0.1l0,0
	l0,0c0,0,0-0.1-0.1-0.1l0,0l0,0c0,0-0.1,0-0.1-0.1h-0.1l0,0l0,0l0,0c0,0,0-0.1-0.1-0.1c-0.1-0.1-0.2-0.2-0.3-0.2l0,0c0,0,0,0-0.1,0
	l0,0h-0.1c-0.1,0-0.1,0-0.1,0l0,0l0,0c0,0,0-0.1-0.1-0.1s-0.1,0-0.2,0c-0.1,0-0.1,0.1-0.2,0.1c0,0-0.1,0-0.1-0.1
	c-0.1,0-0.1-0.1-0.2-0.1c-0.1,0-0.2,0-0.3,0.1c0,0,0,0,0,0.1l0,0l0,0l0,0h-0.1c-0.2,0.1-0.3,0.2-0.3,0.4c0,0,0,0,0,0.1l-0.5,0.1
	h-0.5v-0.2c0,0,0,0.1-0.1,0.1V15l0,0c0.1-0.2,0.2-0.4,0.2-0.6c0-0.3-0.1-0.5-0.3-0.7c0,0-0.1-0.1-0.2-0.1l0,0l0,0h-0.1h-0.1l0,0
	c-0.2,0-0.4,0.1-0.6,0.2c-0.3,0.2-0.5,0.3-0.8,0.3c-0.6,0-0.8-0.5-1.3-0.5l0,0c-0.2,0-0.4,0-0.5,0.2C30,13.9,30,14,30,14.2
	c0,0.3,0.1,0.4,0.2,0.6c0.1,0.1,0.1,0.2,0.1,0.3l0,0h-0.7L29.1,15c0,0,0,0,0-0.1c0-0.2-0.1-0.3-0.3-0.4h-0.1c-0.1,0-0.1-0.1-0.1-0.1
	c-0.1,0-0.1-0.1-0.2-0.1s-0.1,0-0.2,0.1c0,0,0,0-0.1,0s-0.1,0-0.2,0s-0.1,0-0.2,0l-0.1,0.1c0,0,0,0-0.1,0s-0.1,0-0.2,0
	s-0.2,0.1-0.3,0.2c0,0,0,0.1-0.1,0.1c-0.1,0.1-0.2,0-0.2,0.1L26.6,15c0,0,0,0.1-0.1,0.1h-0.1c-0.1,0.1-0.2,0.2-0.2,0.4
	c0,0.5,0.3,0.7,0.6,1l0.1,0.7c-0.1,0-0.2,0.1-0.2,0.3v0.1h-0.1c-0.1,0-0.1,0-0.2-0.1c-0.1,0-0.1,0-0.1,0c-0.2,0-0.3,0.1-0.4,0.1
	c-0.2,0.1-0.3,0.2-0.4,0.4c-0.2,0.3-0.3,0.5-0.3,0.9V19c0,0.2,0,0.3,0.1,0.4c0,0.1,0.1,0.2,0.1,0.3c0.1,0.2,0.2,0.3,0.4,0.4
	c0.1,0.1,0.2,0.1,0.3,0.2c-0.1,0.1-0.2,0.2-0.2,0.3c0,0.2,0.1,0.3,0.2,0.4l-0.2,1.3c-0.1,0-0.1,0.1-0.2,0.2c0,0-0.1,0-0.1,0.1
	s0,0.1,0,0.2s-0.1,0.1-0.1,0.1c0,0.1,0,0.1,0,0.2c0,0.2,0.1,0.3,0.3,0.4c0.1,0,0.1,0,0.2,0c-0.3,0.3-0.5,0.6-0.5,1
	c0,0.1,0,0.1,0,0.2c0.1,0.8,0.6,1.3,1.3,1.6c0.2,0.1,0.4,0.1,0.6,0.2c0.3,0.1,0.5,0.1,0.8,0.1c0.2,0,0.4,0,0.6,0l1.2,0.3l0.3,0.2
	c-0.1,0.1-0.2,0.2-0.2,0.3c0,0.2,0.1,0.4,0.4,0.5c0.1,0,0.1,0,0.2,0s0.1,0.1,0.1,0.1c0.1,0.1,0.2,0.1,0.3,0.1c0.1,0,0.2,0,0.3-0.1
	l0,0l0.1-0.1c0.1,0.1,0.2,0.2,0.3,0.3c0.1,0.1,0.1,0.1,0.2,0.1s0.1,0,0.2-0.1s0.2-0.1,0.2-0.2l0.1-0.1c0,0,0,0,0.1-0.1
	c0.1,0.1,0.3,0.2,0.5,0.2c0.1,0,0.2,0,0.3-0.1c0.1,0,0-0.1,0.1-0.1h0.1c0.2-0.1,0.3-0.2,0.3-0.4c0-0.2-0.1-0.3-0.2-0.4l0.4-0.3
	l0.5-0.2c0.1,0,0.2,0,0.3,0c0.4,0,0.6,0,1-0.1c0.3,0,0.5,0,0.8-0.1c0.5-0.1,0.8-0.2,1.2-0.5c0.3-0.2,0.4-0.3,0.5-0.6
	c0.1-0.3,0.2-0.5,0.2-0.8v-0.1c0-0.3-0.1-0.4-0.2-0.6c-0.1-0.1-0.2-0.2-0.3-0.3c0.1,0,0.1,0,0.2,0C38.4,23.5,38.6,23.4,38.6,23.1z"
	/>
</svg>
