<?xml version="1.0" encoding="utf-8"?>
<!-- Generator: Adobe Illustrator 20.0.0, SVG Export Plug-In . SVG Version: 6.00 Build 0)  -->
<svg version="1.1" id="Layer_1" xmlns="http://www.w3.org/2000/svg" xmlns:xlink="http://www.w3.org/1999/xlink" x="0px" y="0px"
	 viewBox="0 0 64 42" style="enable-background:new 0 0 64 42;" xml:space="preserve">
<style type="text/css">
	.st0{fill:#171796;}
	.st1{fill:#57A863;}
	.st2{fill:#F2CD17;}
	.st3{fill:#FFFFFF;}
</style>
<path id="Rounded_Rectangle_7_copy" class="st0" d="M5.8,0h52.3C61.4,0,64,2.6,64,5.7v30.6c0,3.2-2.6,5.7-5.8,5.7H5.8
	C2.6,42,0,39.4,0,36.3V5.7C0,2.6,2.6,0,5.8,0z"/>
<path class="st1" d="M64,5.3v31.4c0-0.1,0-0.3,0-0.4V5.7C64,5.6,64,5.5,64,5.3z"/>
<g>
	<path class="st2" d="M16,0h42v42L16,0z"/>
	<g>
		<polygon class="st3" points="46.6,36.7 48.9,35 46,35 45.1,32.3 44.2,35 41.3,35 43.7,36.7 42.8,39.5 45.1,37.8 47.5,39.5 		"/>
		<polygon class="st3" points="9.8,0 8.4,0 6.9,0 6,2.8 8.4,1 10.7,2.8 		"/>
		<polygon class="st3" points="51.3,40.3 50.4,37.5 49.5,40.3 46.6,40.3 48.9,42 50.4,42 51.8,42 54.2,40.3 		"/>
		<polygon class="st3" points="15.1,5.2 17.4,3.5 14.5,3.5 13.6,0.8 12.7,3.5 9.8,3.5 12.2,5.2 11.3,8 13.6,6.3 16,8 		"/>
		<polygon class="st3" points="20.3,10.5 22.7,8.8 19.8,8.8 18.9,6 18,8.8 15.1,8.8 17.4,10.5 16.5,13.3 18.9,11.6 21.2,13.3 		"/>
		<polygon class="st3" points="25.6,15.7 27.9,14 25,14 24.1,11.3 23.2,14 20.3,14 22.7,15.7 21.8,18.5 24.1,16.8 26.5,18.5 		"/>
		<polygon class="st3" points="30.8,21 33.2,19.3 30.3,19.3 29.4,16.5 28.5,19.3 25.6,19.3 27.9,21 27,23.8 29.4,22.1 31.7,23.8 		
			"/>
		<polygon class="st3" points="36.1,26.2 38.4,24.5 35.5,24.5 34.6,21.8 33.7,24.5 30.8,24.5 33.2,26.2 32.3,29 34.6,27.3 37,29 		
			"/>
		<polygon class="st3" points="41.3,31.5 43.7,29.8 40.8,29.8 39.9,27 39,29.8 36.1,29.8 38.4,31.5 37.5,34.3 39.9,32.6 42.2,34.3 
					"/>
	</g>
</g>
</svg>
