<?xml version="1.0" encoding="utf-8"?>
<!-- Generator: Adobe Illustrator 20.0.0, SVG Export Plug-In . SVG Version: 6.00 Build 0)  -->
<svg version="1.1" id="Layer_1" xmlns="http://www.w3.org/2000/svg" xmlns:xlink="http://www.w3.org/1999/xlink" x="0px" y="0px"
	 viewBox="0 0 64 42" style="enable-background:new 0 0 64 42;" xml:space="preserve">
<style type="text/css">
	.st0{fill:#D21517;}
	.st1{fill:#021270;}
	.st2{fill:#FFFFFF;}
	.st3{fill:#021272;}
	.st4{fill:#253DA5;}
	.st5{fill:#4758A9;}
</style>
<path id="Rounded_Rectangle_7_copy_1_" class="st0" d="M5.8,0h52.3C61.4,0,64,2.6,64,5.7v30.6c0,3.2-2.6,5.7-5.8,5.7H5.8
	C2.6,42,0,39.4,0,36.3V5.7C0,2.6,2.6,0,5.8,0z"/>
<path class="st1" d="M0,36.3C0,39.4,2.6,42,5.8,42h52.4c3.2,0,5.8-2.5,5.8-5.7V14H0V36.3z"/>
<rect x="0" y="14" class="st2" width="64" height="14"/>
<g>
	<path class="st0" d="M32,35.6L32,35.6c5,0,9.1-4.1,9.1-9.1V15.6H22.9v10.9C22.9,31.5,27,35.6,32,35.6L32,35.6z"/>
	<path class="st2" d="M32,35.5L32,35.5c4.9,0,9-4,9-9V15.8H23v10.7C23,31.5,27.1,35.5,32,35.5z"/>
	<path class="st2" d="M32,35.1L32,35.1c4.7,0,8.6-3.9,8.6-8.6V16.1H23.4v10.4C23.4,31.2,27.2,35.1,32,35.1z"/>
	<polygon class="st0" points="26.8,16.1 23.4,16.1 23.4,19.9 26.8,19.9 	"/>
	<polygon class="st0" points="26.8,23.7 30.3,23.7 30.3,19.9 26.8,19.9 	"/>
	<path class="st0" d="M23.4,26.5c0,0.3,0,0.7,0.1,1h3.4v-3.8h-3.5V26.5z"/>
	<polygon class="st0" points="33.7,23.7 30.3,23.7 30.3,27.5 33.7,27.5 	"/>
	<polygon class="st0" points="33.7,31.3 37.2,31.3 37.2,27.5 33.7,27.5 	"/>
	<path class="st0" d="M37.2,33.4c0.8-0.6,1.4-1.3,2-2.1h-2V33.4z"/>
	<polygon class="st0" points="26.8,31.3 30.3,31.3 30.3,27.5 26.8,27.5 	"/>
	<path class="st0" d="M24.8,31.3c0.5,0.8,1.2,1.5,2,2.1v-2.1C26.8,31.3,24.8,31.3,24.8,31.3z"/>
	<path class="st0" d="M32.6,35.1c0.4,0,0.8-0.1,1.1-0.2v-3.6h-3.5v3.6c0.4,0.1,0.7,0.1,1.1,0.2C31.8,35.1,32.2,35.1,32.6,35.1
		L32.6,35.1z"/>
	<path class="st0" d="M40.6,27.5c0-0.3,0.1-0.7,0.1-1v-2.8h-3.4v3.8H40.6L40.6,27.5z"/>
	<polygon class="st0" points="33.7,23.7 37.2,23.7 37.2,19.9 33.7,19.9 	"/>
	<polygon class="st0" points="33.7,16.1 30.3,16.1 30.3,19.9 33.7,19.9 	"/>
	<polygon class="st0" points="40.6,19.9 40.6,16.1 37.2,16.1 37.2,19.9 	"/>
</g>
<g>
	<path class="st3" d="M38.6,8.8c-0.6-0.7-1.3-1.5-1.9-2.2c-0.8,0.5-1.7,1-2.5,1.4c-0.2,1.9-0.3,3.8-0.5,5.7c0.5,0,1.1,0.1,1.7,0.2
		c0.6,0.1,1.2,0.2,1.8,0.4C37.7,12.5,38.1,10.6,38.6,8.8z"/>
	<path class="st4" d="M34.2,8c-0.8-0.6-1.5-1.1-2.3-1.7c-0.7,0.6-1.5,1.2-2.2,1.8c0.2,1.9,0.3,3.8,0.5,5.6c0.6,0,1.1,0,1.7,0
		c0.6,0,1.2,0,1.8,0C33.9,11.9,34,10,34.2,8z"/>
	<path class="st3" d="M29.7,8.1c-0.8-0.5-1.7-1-2.5-1.4c-0.6,0.7-1.3,1.5-1.9,2.2c0.5,1.8,0.9,3.6,1.4,5.5c0.5-0.1,1.1-0.3,1.7-0.4
		c0.6-0.1,1.2-0.2,1.8-0.2C30,11.9,29.9,10,29.7,8.1z"/>
	<path class="st4" d="M25.3,8.9c-0.9-0.3-1.8-0.6-2.7-1c-0.6,0.9-1.1,1.8-1.7,2.7c0.7,1.7,1.5,3.3,2.2,5c0.5-0.2,1-0.4,1.6-0.6
		c0.7-0.3,1.4-0.4,2-0.6C26.3,12.5,25.8,10.7,25.3,8.9z"/>
	<path class="st4" d="M43.1,10.6c-0.6-0.9-1.2-1.9-1.8-2.8c-0.9,0.3-1.8,0.7-2.7,1c-0.5,1.8-0.9,3.7-1.4,5.5
		c0.5,0.1,1.1,0.3,1.7,0.5c0.7,0.2,1.4,0.5,2,0.8C41.6,13.9,42.4,12.3,43.1,10.6z"/>
	<path class="st5" d="M33.8,8.1"/>
</g>
</svg>
