<?xml version="1.0" encoding="utf-8"?>
<!-- Generator: Adobe Illustrator 20.0.0, SVG Export Plug-In . SVG Version: 6.00 Build 0)  -->
<svg version="1.1" id="Layer_1" xmlns="http://www.w3.org/2000/svg" xmlns:xlink="http://www.w3.org/1999/xlink" x="0px" y="0px"
	 viewBox="0 0 64 42" style="enable-background:new 0 0 64 42;" xml:space="preserve">
<style type="text/css">
	.st0{fill:#FFFFFF;}
	.st1{fill:#ED8000;}
	.st2{fill:#026752;}
</style>
<path id="Rounded_Rectangle_7_copy" class="st0" d="M5.8,0h52.3C61.4,0,64,2.6,64,5.7v30.6c0,3.2-2.6,5.7-5.8,5.7H5.8
	C2.6,42,0,39.4,0,36.3V5.7C0,2.6,2.6,0,5.8,0z"/>
<path id="Cyprus" class="st1" d="M24.1,11.3c0,0.7,0.1,0.7,0.1,0.9c0,0.1,0.1,2.4-0.2,3c-0.3,0.6-1,1-1.3,1
	c-0.3,0.1-1.1-0.5-1.9-0.8c-0.8-0.2-0.7-0.2-1.1-0.2c-0.3,0-1.1,0.3-1.3,0.5c-0.1,0-0.2-0.1-0.2,0c-0.1,0.1-0.4,0.4-0.5,0.6
	s-0.3,1-0.5,1.1s-0.9,0.7-1.4,0.8c-0.4,0-0.3,0-0.6,0s-0.3-0.3-0.6-0.5s-0.4-0.3-0.4-0.3S14.1,17,14,17s-0.2,0.6-0.2,0.7
	s0.3,0.8,0.5,0.9s0.2,0.9,0.1,1.1c-0.1,0.2,0.2,0.4,0.2,0.6s-0.2,0.4-0.1,0.4c0.1,0,0.3,0.3,0.3,0.5s0.6,0.3,0.7,0.6
	s0.2,0.7,0.2,0.9c0,0.2,0.2,0.1,0.2,0.7c0.2,0.1,0.5,0.3,0.7,0.4s0.2,0.4,0.5,0.5s0.3,0,0.5,0s-0.1,0.1,0.2,0.2
	c0.3,0.1,0.4,0,0.7,0.1c0.2,0.1,0.4,0.4,0.5,0.5s0.9,0.3,0.9,0.3s0.5,0.2,0.6,0.2s0.3-0.2,0.3-0.2s0.3,0.1,0.5,0s0.4-0.3,0.6-0.3
	s0.2,0.1,0.4,0.1s0.4-0.1,0.4-0.1s0.4-0.1,0.7,0.1c0.3,0.2,0.9,0.9,0.9,1.3c0,0.3,0,0.5,0,0.5s0.3,0,0.5,0c0.1,0.1,0.1-0.1,1,0.1
	c-0.1-0.2-0.9-0.9-0.1-1.8s0.9-0.5,1.1-0.7s0.9-0.6,2.2-0.2c1.2-0.2,0.3-0.4,1-0.4c0.1-0.1,0.4,0,0.6,0.1c0.1-0.2,0.3-0.3,0.5-0.2
	c0.1-0.1,0.4-0.3,0.7-0.4c0.1-0.3,0.9-0.6,1.4-0.7c0.2-0.2,0.4-1,1.6-0.6c0-0.3,0.2-0.7,0.5-0.8c0.1-0.6-0.1-1.7,0.4-2.1
	c0.6-0.5,1.1-0.4,2-0.4c0.6,0.1,0.9,0.6,1.1,0.7c0.2,0,0.3,0,0.5-0.1c0.2-0.2,0-0.5,0.2-0.5s0.1,0,0.5,0c0.3,0,0.3-0.2,0.5-0.2
	c0.3,0.2,0.7,0,0.9,0.2c0.2,0.1,0.2,0.1,0.5,0.2c0.1,0.2,0.5,0.2,0.5,0.2s-0.2-0.1-0.2-0.2c0.1-0.1,0-0.5-0.2-0.7s-0.2-0.2-0.4-0.4
	c-0.1-0.2,0-0.2-0.2-0.4c-0.2-0.2-0.7-0.4-0.8-0.7c-0.1-0.2-0.1-0.4-0.3-0.6s-1-0.9-1.1-1.6c0-0.7,0-1.4,0.5-1.7
	c0-0.4,0.1-0.5,0.5-0.7c0.5-0.2,0.5-0.1,0.8-0.1s0.5,0,0.7-0.2c0.3-0.2,0-0.7,0.8-1.3c0.7-0.7,1-1,1.3-1c0.2,0,1.1-0.7,1.5-0.6
	c0.3-0.3,0.5-0.7,0.9-0.9c0.3-0.2,0.7-0.2,0.9-0.5c0.2-0.2,0.1-0.6,0.6-0.9s0.9-0.5,1.1-0.7C49,6,49.5,6.2,49.6,6s0.2-0.8,0.3-0.9
	C50.1,5,49.4,5.4,49,5.6S48.1,6.1,47.6,6s-0.2,0.2-0.5,0.3c-0.2,0.1-0.7,0-0.8,0.2c-0.2,0.2-0.5,0.6-0.7,0.7
	c-0.2,0.2-0.4,0.1-0.6,0.2c-0.2,0.1-0.5,0.2-0.7,0.3c-0.2,0.1-0.8,0-0.8,0S43,8.4,42.7,8.6c-0.2,0.2-0.5,0.2-0.8,0.3
	c-0.2,0.1-2.3,1.5-3.8,1.7c-1.4,0.2-0.8-0.1-1.2,0c-0.5,0.1-1.1,1-1.6,1s-0.7,0-0.8,0s-0.8,0.4-1.2,0.3c-0.6,0.2-1.1,0.1-1.2,0.1
	c-0.2,0-0.5,0.2-0.9,0c-0.3-0.1-0.3,0.1-1-0.1c-0.7-0.2-1.1,0.1-1.5-0.1c-0.3-0.2-0.3-0.3-0.5-0.3s-0.2,0.2-0.5,0.2
	s-0.3-0.2-0.6-0.2s-0.5,0.2-0.9,0.1s-0.5-0.2-0.7-0.2C25.4,11.9,24.1,11.3,24.1,11.3z"/>
<path class="st2" d="M30,36.4c0.7-0.5,1.3-0.7,2.3-0.9s2-0.5,2.5-0.6s-1.8,0.7-2.4,0.9C31.8,35.9,30,36.4,30,36.4z"/>
<path class="st2" d="M33.9,34.9c-0.2-1.2,0.3-2.5,1.4-3C35.6,32.7,34.8,34.2,33.9,34.9z"/>
<path class="st2" d="M35.8,34.2c-0.6-1,0.4-2.3,1.1-3C37.3,31.9,36.7,33.7,35.8,34.2z"/>
<path class="st2" d="M37.5,33.4c-0.6-0.9,0.1-2.4,0.9-3C38.8,31.3,38.5,32.8,37.5,33.4z"/>
<path class="st2" d="M39.3,32.3c-0.6-0.8-0.2-2.1,0.7-2.9C40.5,30.1,40,31.6,39.3,32.3z"/>
<path class="st2" d="M40.7,31.2c-0.5-0.8,0.1-2.6,0.9-3.1C41.9,28.8,41.6,30.7,40.7,31.2z"/>
<path class="st2" d="M41.8,31c-0.1-1.1,1.8-2.3,2.6-2.3C44.3,29.6,43.5,30.6,41.8,31z"/>
<path class="st2" d="M40.7,32.2c0.9-0.9,2.7-0.9,3.3-0.7C43.8,32,41.8,33.2,40.7,32.2z"/>
<path class="st2" d="M39.4,33.1c1.3-0.3,2.1-0.6,2.9,0.2C41.8,34,39.7,33.8,39.4,33.1z"/>
<path class="st2" d="M37.6,34c1.2-0.7,2.7,0.3,2.9,0.9C39.2,35.4,37.6,34.1,37.6,34z"/>
<path class="st2" d="M35.9,34.9c1.1-0.4,2.4,0.1,2.9,0.8C38.3,36,36.7,36.3,35.9,34.9z"/>
<path class="st2" d="M34.4,35.4c1.3-0.1,2.5,0.8,2.8,1.4C35.5,36.9,34.9,36.5,34.4,35.4z"/>
<path class="st2" d="M34,36.4c-0.7-0.5-1.3-0.7-2.3-0.9s-2-0.5-2.5-0.6s1.8,0.7,2.4,0.9C32.2,35.9,34,36.4,34,36.4z"/>
<path class="st2" d="M30.1,34.9c0.2-1.2-0.3-2.5-1.4-3C28.4,32.7,29.2,34.2,30.1,34.9z"/>
<path class="st2" d="M28.2,34.2c0.6-1-0.4-2.3-1.1-3C26.7,31.9,27.3,33.7,28.2,34.2z"/>
<path class="st2" d="M26.5,33.4c0.6-0.9-0.1-2.4-0.9-3C25.2,31.3,25.5,32.8,26.5,33.4z"/>
<path class="st2" d="M24.7,32.3c0.6-0.8,0.2-2.1-0.7-2.9C23.5,30.1,24,31.6,24.7,32.3z"/>
<path class="st2" d="M23.3,31.2c0.5-0.8-0.1-2.6-0.9-3.1C22.1,28.8,22.4,30.7,23.3,31.2z"/>
<path class="st2" d="M22.2,31c0.1-1.1-1.8-2.3-2.6-2.3C19.7,29.6,20.5,30.6,22.2,31z"/>
<path class="st2" d="M23.3,32.2c-0.9-0.9-2.7-0.9-3.3-0.7C20.2,32,22.2,33.2,23.3,32.2z"/>
<path class="st2" d="M24.6,33.1c-1.3-0.3-2.1-0.6-2.9,0.2C22.2,34,24.3,33.8,24.6,33.1z"/>
<path class="st2" d="M26.4,34c-1.2-0.7-2.7,0.3-2.9,0.9C24.8,35.4,26.4,34.1,26.4,34z"/>
<path class="st2" d="M28.1,34.9c-1.1-0.4-2.4,0.1-2.9,0.8C25.7,36,27.3,36.3,28.1,34.9z"/>
<path class="st2" d="M29.6,35.4c-1.3-0.1-2.5,0.8-2.8,1.4C28.5,36.9,29.1,36.5,29.6,35.4z"/>
</svg>
