<?xml version="1.0" encoding="utf-8"?>
<!-- Generator: Adobe Illustrator 20.0.0, SVG Export Plug-In . SVG Version: 6.00 Build 0)  -->
<svg version="1.1" id="Layer_1" xmlns="http://www.w3.org/2000/svg" xmlns:xlink="http://www.w3.org/1999/xlink" x="0px" y="0px"
	 viewBox="0 0 64 42" style="enable-background:new 0 0 64 42;" xml:space="preserve">
<style type="text/css">
	.st0{fill:#FFFFFF;}
	.st1{fill:#DA000C;}
	.st2{fill:#F8D80E;}
	.st3{fill:#F6D660;}
</style>
<path class="st0" d="M58.1,0H5.8C2.6,0,0,2.6,0,5.7v30.6C0,39.4,2.6,42,5.8,42h52.4c3.2,0,5.8-2.5,5.8-5.7V5.7C64,2.6,61.4,0,58.1,0
	z"/>
<path class="st1" d="M0,36.3C0,39.4,2.6,42,5.8,42h52.4c3.2,0,5.8-2.5,5.8-5.7V14H0V36.3z"/>
<rect y="11.3" class="st0" width="64" height="17"/>
<rect x="23.1" y="19.7" width="9.6" height="6.6"/>
<path class="st1" d="M28.1,25.4h-5.9l-1.3,0.9v0.9h7.2"/>
<path class="st1" d="M25.6,21.6c0.8,0,1.5,0.7,1.5,1.6v2.2h1.1V17h-6.1v8.4H24v-2.2C24.1,22.3,24.8,21.6,25.6,21.6z"/>
<rect x="24.3" y="11.3" width="2.8" height="5.1"/>
<path class="st1" d="M27,15.6h-2.4v-0.9h-1.8v0.9h-1.2v-0.9h-0.7v1.6H27 M21.6,16.3h5.3V17h-5.3C21.6,17,21.6,16.3,21.6,16.3z"/>
<path class="st1" d="M23.7,9.6v5.3h0.9v-1.5c0-0.5,0.4-1,0.9-1c0,0,0,0,0.1,0c0.6,0,1,0.5,1,1v1.5h0.9V9.6H23.7z"/>
<path class="st1" d="M23.4,8.9v0.7h4.4V8.9H23.4z"/>
<path class="st1" d="M22.8,7.5v1.4h5.3V7.5h-0.8v0.7h-1V7.5h-1.5v0.7h-1V7.5H22.8z"/>
<path class="st1" d="M32.8,25.8h-4.9l-1.5,0.7v1.1h6.3"/>
<rect x="31.3" y="19.7" width="9.6" height="6.6"/>
<path class="st1" d="M35.9,25.4h5.9l1.3,0.9v0.9h-7.2"/>
<path class="st1" d="M38.4,21.6c-0.8,0-1.5,0.7-1.5,1.6v2.2h-1.1V17h6.1v8.4H40v-2.2C39.9,22.3,39.2,21.6,38.4,21.6z"/>
<rect x="36.9" y="11.3" width="2.8" height="5.1"/>
<path class="st1" d="M37,15.6h2.4v-0.9h1.8v0.9h1.2v-0.9h0.7v1.6H37 M42.4,16.3h-5.3V17h5.3V16.3z"/>
<path class="st1" d="M40.3,9.6v5.3h-0.9v-1.5c0-0.5-0.4-1-0.9-1c0,0,0,0-0.1,0c-0.6,0-1,0.5-1,1v1.5h-0.9V9.6H40.3z"/>
<path class="st1" d="M40.6,8.9v0.7h-4.4V8.9H40.6z"/>
<path class="st1" d="M41.2,7.5v1.4h-5.3V7.5h0.8v0.7h1V7.5h1.5v0.7h1V7.5H41.2z"/>
<path class="st1" d="M31.2,25.8h4.9l1.5,0.7v1.1h-6.3"/>
<path class="st2" d="M34.6,24.8c-0.4,0.1-0.8,0.4-1.1,0.6c-0.5,0.3-0.9,0.6-1.3,0.9c-0.1,0.1-0.3,0.2-0.4,0.3
	c-0.2,0.1-0.3,0.3-0.3,0.5c0,0.1,0.1-0.1,0.2-0.1c0.1-0.1,0.3-0.1,0.5-0.1c0.2-0.2,0.4-0.3,0.6-0.5c0.5-0.3,0.9-0.6,1.4-0.9
	c0.2-0.1,0.3-0.2,0.5-0.2C34.7,25.1,34.6,25,34.6,24.8L34.6,24.8z"/>
<path class="st2" d="M29.4,24.8c-0.1,0.2-0.1,0.3-0.2,0.5c0.8,0.3,1.6,0.7,2.4,1.2c0.3,0.2,0.5,0.3,0.7,0.6c0,0.1-0.1,0.2-0.2,0.2
	c-0.1,0-0.2-0.1-0.3,0c-0.2,0.1-0.3,0.3-0.1,0.4c0.3,0.2,0.9,0.1,1.1-0.3c0.1-0.2,0.1-0.5-0.1-0.7c-0.3-0.4-0.7-0.6-1.1-0.9
	C30.9,25.5,30.2,25.1,29.4,24.8L29.4,24.8z"/>
<path class="st3" d="M31.7,26v0.5"/>
<path class="st2" d="M29,36.5v1.2h0.8v-0.6h1v0.6h0.8v-1.2H29z M29,38.1v1.2h2.6v-1.2h-0.8v0.6h-1v-0.6H29z"/>
<rect x="31.6" y="31.4" class="st2" width="0.7" height="8.7"/>
<rect x="31.6" y="32.1" class="st2" width="0.7" height="7.5"/>
<path class="st2" d="M31.9,29.2l1.6,0.9L31.9,31l-1.6-0.9L31.9,29.2z M29.8,29.8h-0.4v0.7h0.4l2.1,1.2l2.1-1.2h0.4v-0.7H34l-2.1-1.2
	L29.8,29.8z"/>
<path class="st2" d="M31.9,26.9c-0.4,0.1-0.6,0.4-0.6,0.8c0,0.6,0,1.1,0,1.7c0,0.4,0.3,0.7,0.7,0.7c0.3,0,0.6-0.1,0.7-0.4
	c-0.1-0.1-0.2-0.1-0.3-0.2c-0.1,0.2-0.3,0.3-0.4,0.3c-0.2,0-0.4-0.2-0.4-0.5c0-0.6,0-1.1,0-1.7c0-0.2,0.2-0.4,0.5-0.4
	c0.1,0,0.2,0.1,0.3,0s-0.1-0.2-0.1-0.3C32.1,26.9,32,26.9,31.9,26.9L31.9,26.9z M32.8,27.5c-0.1,0.1-0.2,0.2-0.3,0.2v1.1
	c0.1,0.1,0.2,0.1,0.3,0.2C32.8,28.6,32.8,28.1,32.8,27.5C32.8,27.6,32.8,27.6,32.8,27.5L32.8,27.5z"/>
<rect x="29.7" y="8.2" width="4.4" height="8"/>
<path class="st1" d="M29.4,8.2v6.7h1.4v-2c0-0.5,0.3-1.1,1.2-1.1s1.2,0.6,1.2,1.1v2h1.4V8.2H29.4z M31.8,9h0.4v2.3h-0.4
	C31.8,11.3,31.8,9,31.8,9z M30.5,9.4H31v1.7h-0.4V9.4H30.5z M33,9.4h0.4v1.7H33V9.4z"/>
<path class="st1" d="M28.9,7.2v1H35v-1H28.9z"/>
<path class="st1" d="M28.4,6.1v1.1h7.3V6.1h-0.9v0.6h-1V6.1h-1.2v0.6h-1V6.1h-1.2v0.6h-1V6.1H28.4z"/>
<path class="st1" d="M27,17v0.7h10V17H27z"/>
<path class="st1" d="M26.6,14.7V17h10.8v-2.2h-1v0.9H35v-0.9h-1.8v0.9h-2.4v-0.9H29v0.9h-1.4v-0.9h-1V14.7z"/>
<path class="st1" d="M27.9,17.7v8.2h1.9v-3.1c0-1.4,1-2.1,2.2-2.1s2.2,0.7,2.2,2.1v3.1h1.9v-8.2H27.9z"/>
</svg>
