<?xml version="1.0" encoding="utf-8"?>
<!-- Generator: Adobe Illustrator 20.0.0, SVG Export Plug-In . SVG Version: 6.00 Build 0)  -->
<svg version="1.1" id="Layer_1" xmlns="http://www.w3.org/2000/svg" xmlns:xlink="http://www.w3.org/1999/xlink" x="0px" y="0px"
	 viewBox="0 0 64 42" style="enable-background:new 0 0 64 42;" xml:space="preserve">
<style type="text/css">
	.st0{fill:#CF142B;}
	.st1{fill:#FFFFFF;fill-opacity:0.9874;}
</style>
<path id="SVGID_1_" class="st0" d="M5.8,0h52.3C61.4,0,64,2.6,64,5.7v30.6c0,3.2-2.6,5.7-5.8,5.7H5.8C2.6,42,0,39.4,0,36.3V5.7
	C0,2.6,2.6,0,5.8,0z"/>
<path class="st1" d="M49.4,7.8c-0.6-0.1-0.6-0.8-3.5-0.1c-0.6-0.1-1.2-0.2-1.9-0.2l-0.4-0.3c-0.6-0.1-0.9,0.1-1,0.3l-0.3-0.4
	c0,0,0.3-1,0.2-0.9l-0.9,0.7l-0.9-0.3l0.1,1.1l-0.8,1l1.1-0.1l0.3,1l0.4-1.2c0,0,0.5-0.2,0.5-0.3l0,0c0,0.3,0.1,0.6,0.1,0.9
	c0,0-0.4,1.3-0.3,1.3c-0.9,1-2.3,4.4-2.4,5c0,0.1,0,0.2,0,0.2c-0.1,0.3-0.2,0.4-0.2,0.8c0,0.5-0.1,0.2,0.1,1.1
	c0,0.3-0.3,0.3-0.5,0.2c-1.7-1.1-3.3-1.8-5.1-2.7c0,0-0.1,0-0.1-0.1c0.1,0,0.1-0.1,0.2-0.1c-0.2-0.1-0.3-0.6-0.3-0.7
	c0,0,0,0-0.1,0.1c-0.1-1-1.4-4.3-1.7-4.8c-0.5-0.6-0.9-1.5-1.1-2.3C31,6.3,30.6,5.7,30,5.5c-0.7-0.4-1.4-0.2-2-0.2
	c-0.3,0.1-0.6,0.2-0.7,0.5C27.2,5.9,27.1,6,27.1,6c-0.2,0.2-0.4,0.3-0.6,0.4c-2,0.3-3.9,1.3-5.3,2c-0.8,0.5-1.4,0.8-1.7,0.9
	c-0.4,0-0.7-0.1-1-0.2c-0.3-0.1-0.6-0.3-0.7-0.4C16.9,8,16,7.1,15.1,6.3c-0.8-0.6-1,0.3-0.8,0.4c0.3,0.6-0.3,0.9,1.9,3
	c0.3,0.6,0.5,1.1,0.8,1.7v0.5c0.2,0.5,0.5,0.7,0.8,0.7L17.5,13l-0.9,0.3l1.1,0.4l0.2,0.9l0.9-0.7l1.3,0.1l-0.7-0.8
	c0,0,0.6-0.8,0.7-0.8s-1.2,0.3-1.2,0.3l-0.5-0.3l0,0c0.2-0.2,0.4-0.4,0.6-0.6l1.3-0.4c1.4,0.2,4.9-0.5,5.5-0.7
	c0.1,0,0.2-0.1,0.2-0.1c0.3-0.1,0.4,0,0.8-0.3s0.2-0.1,0.9-0.7C27.8,9.2,28,9.5,28,9.7c0,1.8,0.3,3.5,0.5,5.3l0,0
	c0.1,0.2,0,0.5-0.2,0.6l0,0c0,0,0,0-0.1,0l0,0c-0.7,0.3-3.3,3.3-3.6,3.8c-0.3,0.7-0.9,1.5-1.5,2.1L23,21.6c-0.6,0.5-0.9,1.1-0.8,1.7
	c0,0.8,0.4,1.3,0.8,1.9c0.2,0.2,0.5,0.4,0.8,0.4c0.1,0,0.2,0,0.3,0.1c0.3,0.1,0.4,0.2,0.7,0.3c1.2,1.6,3,2.8,4.2,3.8
	c0.8,0.4,1.4,0.9,1.6,1.1c0.2,0.3,0.2,0.7,0.3,0.9c0,0.3,0,0.6,0,0.8c-0.3,1.2-0.6,2.4-0.9,3.6c-0.2,1,0.7,0.8,0.7,0.6
	c0.4-0.5,1-0.1,1.8-3c0.4-0.5,0.7-1,1.1-1.5l0.4-0.2c0.4-0.4,0.4-0.8,0.2-1l0.5-0.1l0.7,0.7l-0.2-1.2l0.7-0.6l-1-0.4l-0.5-1.2
	l-0.4,1l-1-0.2l0.8,1c0,0,0,0.5,0,0.6l0,0c-0.3-0.1-0.5-0.2-0.8-0.3c0,0-0.9-0.9-1-0.9c-0.2-0.5-0.5-1.1-1-1.8l0,0l0,0
	c-0.8-1.2-1.9-2.5-2.2-2.7c-0.1-0.1-0.1-0.1-0.2-0.2c-0.2-0.2-0.4-0.4-0.7-0.5c-0.5-0.2-0.7-0.3-1-0.5c-0.3-0.1-0.1-0.4,0.1-0.5
	c1.7-0.9,3.1-2,4.7-3c0,0,0,0,0.1,0.1c0,0,0.2,0,0.4,0c0,0,0.1,0,0.2,0.1c0.6,0.4,4.5,1.2,5,1.3c0.7-0.1,1.7,0,2.5,0.3
	c0.7,0.3,1.5,0.3,2-0.1c0.7-0.4,0.9-1,1.2-1.6c0.1-0.3,0.1-0.6,0-0.9c0-0.1-0.1-0.2-0.1-0.3c-0.1-0.3,0-0.5,0-0.7
	c0.8-1.8,1-4,1.2-5.5c0-0.9,0.1-1.6,0.2-1.9c0.2-0.3,0.5-0.5,0.7-0.7c0.3-0.2,0.5-0.3,0.7-0.4c1.2-0.3,2.4-0.6,3.6-0.9
	C50.2,8.4,49.6,7.7,49.4,7.8z"/>
</svg>
