<?xml version="1.0" encoding="utf-8"?>
<!-- Generator: Adobe Illustrator 20.0.0, SVG Export Plug-In . SVG Version: 6.00 Build 0)  -->
<svg version="1.1" id="Layer_1" xmlns="http://www.w3.org/2000/svg" xmlns:xlink="http://www.w3.org/1999/xlink" x="0px" y="0px"
	 viewBox="0 0 64 42" style="enable-background:new 0 0 64 42;" xml:space="preserve">
<style type="text/css">
	.st0{fill:#FFFFFF;}
	.st1{fill:#DF112D;}
	.st2{fill:#F1D619;}
</style>
<path id="Rounded_Rectangle_7_copy" class="st0" d="M5.8,0h52.3C61.4,0,64,2.6,64,5.7v30.6c0,3.2-2.6,5.7-5.8,5.7H5.8
	C2.6,42,0,39.4,0,36.3V5.7C0,2.6,2.6,0,5.8,0z"/>
<path class="st1" d="M35,7.4c0.8,3.2,0.4,7.1-3.2,9.4c-3.6-2.2-4-6.1-3.2-9.3C29.4,6.7,33.2,6.2,35,7.4L35,7.4z"/>
<path class="st2" d="M35.4,5.2c-0.2-0.4-0.8-0.4-0.9-0.2c0.7,0.5,0.2,1.3-0.5,1.1c-0.3-0.1-0.4-0.3-0.5-0.6c0.2,0,0.3-0.2,0.3-0.4
	c0-0.2-0.2-0.3-0.4-0.3S33.1,5,33.1,5.2c0,0.1,0.1,0.2,0.2,0.3c-0.2,0.3-0.5,0.4-0.8,0.3S32,5.4,32,5.2c0-0.7,0.6-0.8,0.8-0.7
	c0-0.4-0.7-0.8-0.9-0.4c0.2-0.4,0.2-1.1-0.2-1.5c-0.4,0.4-0.4,1-0.2,1.5c-0.2-0.4-0.9,0-0.9,0.4c0.2-0.1,0.8,0,0.8,0.7
	c0,0.3-0.1,0.5-0.5,0.6c-0.2,0.1-0.6,0-0.8-0.3c0.2-0.1,0.3-0.3,0.2-0.4c-0.1-0.2-0.3-0.3-0.4-0.2c-0.2,0.1-0.3,0.3-0.2,0.4
	c0,0.1,0.2,0.2,0.3,0.2c-0.1,0.3-0.2,0.5-0.5,0.6c-0.5,0.2-1-0.6-0.3-1.1c-0.2-0.2-0.8-0.3-0.9,0.2c0-0.3-0.3-0.7-0.9-0.7
	c0.6,0.8,1.1,1.9,1.2,3c0.7-0.4,1.9-0.8,3.2-0.8l0,0c1.3,0,2.5,0.3,3.2,0.8c0.1-1.1,0.6-2.2,1.2-3C35.7,4.5,35.4,4.9,35.4,5.2z"/>
<path class="st2" d="M34.9,9.5c0.1,0,0.2,0.1,0.2,0.1c0-0.2-0.1-0.3-0.2-0.4H35C34.9,9.1,34.9,9,34.9,9c0-0.1,0-0.1-0.2-0.1
	c-0.1,0-0.3,0-0.4,0c-0.3,0-0.5,0-0.7-0.2c0.3,0.1,0.7-0.2,0.7-0.4c0-0.3-0.3-0.5-1-0.3c-0.7,0.1-1.5,0.1-1.5-0.1s0.6-0.2,0.9-0.2
	c0.3,0,0.5,0.1,1.1-0.1c-0.1,0.1-0.6,0.1-0.9,0c-0.3-0.1-1.2-0.1-1.2,0.4c0,0.5,0.9,0.4,1.7,0.3c0.5-0.1,0.7,0,0.7,0.1
	s-0.4,0.2-0.7,0.2s-0.7,0-1,0.1s-0.5,0-0.9,0.1c-0.2,0-0.6,0-0.8-0.3V8.4l0,0c0,0,0.1-0.1,0.1-0.2c0-0.2,0-0.2-0.2-0.1
	C30.5,8,30.4,8,30.2,8c-0.2,0-0.3,0-0.4,0.1C29.6,8,29.5,8,29.6,8.2c0,0.1,0.1,0.2,0.1,0.2l0,0c0,0.3,0.1,0.2,0.2,0.5
	C29.9,9,29.9,9,30,9l0,0l0,0c-0.4,0-0.4-0.2-0.6-0.4c-0.2-0.1-0.2-0.3-0.3-0.6c0-0.1-0.2-0.2-0.2-0.2c-0.1-0.1-0.3,0-0.3,0.1
	c0.1-0.1,0.1,0,0.2,0l0,0c0.1,0,0.2,0,0.2,0.1c-0.1-0.1-0.1-0.1-0.2-0.1c-0.1-0.1-0.3,0-0.3,0.1c0.1-0.1,0.2,0,0.2,0l0,0l0,0
	c0.1,0,0,0.1,0.2,0.2c-0.1-0.1-0.2-0.1-0.2-0.1c-0.1-0.1-0.2,0-0.2,0.1c0.1-0.1,0.2,0,0.2,0l0,0l0,0c0.1,0,0.3,0.3,0.4,0.4
	c-0.1-0.1-0.2,0-0.2,0c0.1,0,0.1,0.2,0.4,0.3c-0.1,0-0.1,0-0.2,0c0.1,0.1,0.3,0.2,0.6,0.2c0.2,0,0.1,0.1-0.1,0
	c0.1,0.1,0.3,0,0.4,0.2c0,0.1-0.2,0.1-0.3,0.1c-0.2,0-0.5,0-0.7-0.2c-0.1-0.1-0.3-0.3-0.4-0.2c-0.1,0-0.2,0.1-0.2,0.2
	c0-0.1,0.2,0,0.2,0l0,0l0,0c0.1,0,0.1,0,0.2,0c-0.1,0-0.2,0-0.3,0l0,0c-0.1,0-0.2,0.1-0.1,0.2c0-0.1,0.2-0.1,0.2-0.1l0,0l0,0
	c0.1,0,0.2,0,0.2,0c-0.1,0-0.1,0-0.2,0s-0.2,0.1-0.1,0.2c0-0.1,0.1-0.1,0.2-0.1s0.2,0.1,0.3,0.1c-0.1,0-0.1,0.1-0.2,0.1
	c0.1-0.1,0.3,0.1,0.4,0.1c-0.1,0-0.2,0.1-0.2,0.1c0.1-0.1,0.8,0.1,0.8-0.2c0,0.1,0,0.1,0,0.2c0.1-0.1,0.4-0.1,0.5-0.3
	c0,0.1,0,0.1-0.1,0.2c0.1,0,0.2,0,0.3-0.2c0-0.1,0.1-0.1,0.1-0.2l0,0c0.1,0,0.2,0,0.3-0.1c0.1-0.1,0.2,0.1,0.4,0
	c0.2-0.1,0.3,0,0.4-0.1c0.1,0,0.1,0,0.2,0c0.2,0.3,0.3,0.2,0.4,0.3c0.2,0,0.3,0,0.2,0.1c0,0-0.2,0-0.4,0c-0.3,0-0.4-0.2-0.5-0.1
	c-0.1-0.1-0.2,0.1-0.2,0.2c0-0.1,0.1-0.1,0.2-0.1c0,0,0.1,0,0.2,0c-0.1,0-0.2,0-0.2,0c-0.1,0-0.2,0.1-0.1,0.2c0-0.1,0.1-0.1,0.2-0.1
	s0.2-0.1,0.2,0h-0.1c-0.1,0-0.1,0.2-0.1,0.2c0-0.1,0.2-0.1,0.2-0.1l0,0c0,0,0.1,0,0.1-0.1c0.1-0.1,0.2-0.1,0.2-0.1l0,0
	c-0.1,0,0,0.1-0.1,0.1c0.2,0,0.3,0,0.4-0.1l-0.1,0.1c0.1-0.1,0.4-0.1,0.5-0.1s0.2,0,0.2-0.1s0-0.1-0.1-0.2c-0.1-0.1-0.1-0.2-0.1-0.3
	c0.2,0,0.4,0,0.8,0c0.4-0.1,0.5,0.1,0.5,0.3c0,0.1-0.1,0.1-0.1,0.1c-0.2,0-0.3-0.1-0.4-0.1l0,0c-0.1,0-0.2,0.1-0.2,0.2
	c0-0.1,0.1-0.1,0.2-0.1l0,0l0,0c-0.1,0-0.1,0.2-0.1,0.2c0-0.1,0.2-0.1,0.2-0.1l0,0h0.1c-0.1,0-0.1,0.1-0.1,0.1
	c-0.1,0-0.1,0.2-0.1,0.2c0-0.1,0.1-0.1,0.1-0.1l0,0l0,0l0,0c0,0,0,0,0.1,0c0.1-0.1,0.2-0.2,0.3-0.2l0,0c-0.1,0-0.1,0.1-0.1,0.1
	c0.2,0,0.3-0.1,0.4-0.2v0.1c0.2-0.1,0.2-0.2,0.2-0.3c0,0,0.1,0.1,0.2,0.1C35,9.8,35,9.6,34.9,9.5z"/>
<path class="st2" d="M34.5,12.1c0.1,0,0.1,0.1,0.2,0.1c0-0.2,0-0.3-0.2-0.3h0.1c-0.1-0.1-0.1-0.1-0.1-0.2c0-0.1,0-0.1-0.1-0.1
	s-0.3,0-0.4,0c-0.2,0-0.4,0-0.6-0.1c0.3,0.1,0.7-0.1,0.7-0.3s-0.3-0.4-0.9-0.3c-0.6,0.1-1.3,0.1-1.3-0.1c0-0.2,0.5-0.2,0.8-0.2
	s0.5,0.1,0.9-0.1c-0.1,0-0.5,0.1-0.8,0s-1.1-0.1-1.1,0.3s0.8,0.4,1.5,0.3c0.4-0.1,0.6,0,0.6,0.1s-0.4,0.2-0.7,0.1
	c-0.3,0-0.6,0-0.9,0.1c-0.3,0.1-0.5,0-0.8,0.1c-0.2,0-0.5,0-0.7-0.3v-0.1l0,0c0,0,0.1-0.1,0.1-0.2c0-0.1,0-0.2-0.2-0.1
	c-0.1-0.1-0.2-0.1-0.3-0.1c-0.2,0-0.3,0-0.3,0.1c-0.2-0.1-0.2-0.1-0.2,0.1c0,0.1,0.1,0.2,0.1,0.2l0,0c0,0.2,0.1,0.1,0.2,0.4
	c0,0.1,0,0.1,0.1,0.1l0,0l0,0c-0.3,0-0.4-0.2-0.6-0.4c-0.2-0.1-0.2-0.3-0.3-0.5c0-0.1-0.1-0.2-0.2-0.2c-0.1-0.1-0.2,0-0.2,0.1
	c0.1-0.1,0.1,0,0.2,0l0,0c0.1,0,0.1,0,0.1,0.2c-0.1-0.1-0.1-0.1-0.2-0.1c-0.1-0.1-0.2,0-0.2,0.1c0.1-0.1,0.1,0,0.2,0l0,0l0,0
	c0.1,0,0,0.1,0.2,0.2c-0.1,0-0.2,0-0.3,0c-0.1-0.1-0.2,0-0.2,0.1c0-0.1,0.2,0,0.2,0l0,0l0,0c0.1,0,0.2,0.3,0.4,0.3
	c-0.1-0.1-0.2,0-0.2,0c0.1,0,0.1,0.2,0.4,0.3c-0.1,0-0.1,0-0.2,0c0.1,0.1,0.2,0.2,0.5,0.2c0.1,0,0,0.1-0.1,0c0.1,0.1,0.3,0,0.4,0.2
	c0,0.1-0.1,0.1-0.3,0.1c-0.2,0-0.5,0-0.6-0.2c-0.1-0.1-0.3-0.2-0.4-0.2s-0.2,0.1-0.2,0.2c0-0.1,0.2,0,0.2,0l0,0l0,0
	c0.1,0,0.1,0,0.2,0c-0.1,0-0.2,0-0.2,0l0,0c-0.1,0-0.2,0.1-0.1,0.2c0-0.1,0.1-0.1,0.2-0.1l0,0l0,0c0.1,0,0.2,0,0.2,0
	c-0.1,0-0.1,0-0.2,0s-0.2,0.1-0.1,0.2c0-0.1,0.1-0.1,0.2-0.1s0.2,0.1,0.3,0.1c-0.1,0-0.1,0.1-0.1,0.1c0.1-0.1,0.2,0.1,0.4,0.1
	c-0.1,0-0.2,0.1-0.2,0.1c0.1-0.1,0.7,0.1,0.7-0.1c0,0,0,0.1,0,0.2c0.1,0,0.3-0.1,0.4-0.2c0,0.1,0,0.1-0.1,0.1c0.1,0,0.2,0,0.3-0.2
	c0-0.1,0.1-0.1,0-0.2l0,0l0,0l0,0c0.1,0,0.2,0,0.3-0.1c0.1-0.1,0.2,0.1,0.3,0c0.1-0.1,0.3,0,0.4-0.1c0.1,0,0.1,0,0.2,0
	c0.2,0.2,0.2,0.2,0.4,0.2s0.3,0,0.2,0.1c0,0-0.2,0-0.3,0c-0.3,0-0.4-0.1-0.5-0.1s-0.2,0.1-0.2,0.2c0-0.1,0.1-0.1,0.1-0.1
	s0.1,0,0.2,0c-0.1,0-0.2,0-0.2,0c-0.1,0-0.2,0.1-0.1,0.2c0-0.1,0.1-0.1,0.1-0.1c0.1,0,0.2-0.1,0.2,0h-0.1c-0.1,0-0.1,0.1-0.1,0.2
	c0-0.1,0.1-0.1,0.2-0.1l0,0h0.1c0.1-0.1,0.2-0.1,0.2-0.1c-0.1,0,0,0.1-0.1,0.1c0.2,0,0.3,0,0.4-0.1l-0.1,0.1
	c0.1-0.1,0.3-0.1,0.5-0.1c0.1,0,0.1,0,0.2-0.1c0-0.1,0-0.1-0.1-0.2c0.1,0.1,0.1,0,0.1-0.1c0.2,0,0.4,0,0.7,0
	c0.4-0.1,0.5,0.1,0.5,0.2c0,0.1-0.1,0.1-0.1,0.1c-0.2,0-0.3-0.1-0.4,0l0,0c-0.1,0-0.2,0.1-0.2,0.2c0-0.1,0.1-0.1,0.1-0.1l0,0l0,0
	c-0.1,0-0.1,0.1-0.1,0.2c0-0.1,0.1-0.1,0.2-0.1l0,0h0.1l-0.1,0.1c-0.1,0-0.1,0.1-0.1,0.2c0-0.1,0.1-0.1,0.1-0.1l0,0l0,0l0,0
	c0,0,0,0,0.1,0c0.1-0.1,0.2-0.2,0.3-0.1l0,0c-0.1,0-0.1,0.1-0.1,0.1c0.2,0,0.3-0.1,0.3-0.1v0.1c0.1,0,0.2-0.2,0.2-0.2l0.1,0.1
	C34.6,12.4,34.6,12.2,34.5,12.1z"/>
<path class="st2" d="M33.8,14.5c0,0,0.1,0,0.1,0.1c0-0.1,0-0.2-0.1-0.3h0.1c-0.1,0-0.1-0.1-0.1-0.2c0-0.1,0-0.1-0.1-0.1
	s-0.2,0-0.3,0c-0.2,0-0.3,0-0.5-0.1c0.2,0.1,0.5-0.1,0.5-0.3s-0.2-0.4-0.7-0.3c-0.4,0.1-1,0.1-1-0.1s0.4-0.2,0.6-0.2
	c0.2,0,0.3,0.1,0.7-0.1c-0.1,0-0.4,0.1-0.6,0c-0.2-0.1-0.8-0.1-0.8,0.3c0,0.3,0.6,0.3,1.1,0.2c0.3-0.1,0.5,0,0.5,0.1
	s-0.3,0.2-0.5,0.1c-0.2,0-0.4,0-0.7,0.1c-0.2,0.1-0.4,0-0.6,0c-0.1,0-0.4,0-0.5-0.2v-0.1l0,0c0,0,0.1-0.1,0.1-0.2
	c0-0.1,0-0.1-0.1-0.1c0,0-0.1-0.1-0.2-0.1s-0.2,0-0.2,0.1c-0.1-0.1-0.2-0.1-0.1,0.1c0,0.1,0,0.1,0.1,0.2l0,0c0,0.2,0.1,0.1,0.1,0.4
	c0,0,0,0.1,0.1,0.1l0,0l0,0c-0.2,0-0.3-0.2-0.4-0.3s-0.1-0.2-0.2-0.4c0-0.1-0.1-0.2-0.2-0.1l0,0c-0.1,0-0.2,0-0.2,0.1h0.1l0,0
	c0,0,0.1,0,0.1,0.1c0-0.1-0.1-0.1-0.1-0.1c-0.1-0.1-0.2,0-0.2,0.1c0-0.1,0.1,0,0.1,0l0,0l0,0c0.1,0,0,0.1,0.1,0.2
	c-0.1-0.1-0.1-0.1-0.2-0.1s-0.1,0-0.1,0.1c0-0.1,0.1,0,0.1,0l0,0l0,0c0.1,0,0.2,0.2,0.3,0.3c-0.1,0-0.1,0-0.1,0
	c0.1,0,0.1,0.2,0.3,0.2H30c0.1,0.1,0.2,0.2,0.4,0.2c0.1,0,0,0.1,0,0c0.1,0.1,0.2,0,0.3,0.2c0,0.1-0.1,0-0.2,0s-0.3,0-0.5-0.1
	c-0.1-0.1-0.2-0.2-0.3-0.1l0,0c-0.1,0-0.1,0-0.1,0.1c0-0.1,0.1,0,0.1,0l0,0l0,0h0.1c-0.1,0-0.1,0-0.2,0l0,0c-0.1,0-0.1,0.1-0.1,0.2
	c0-0.1,0.1,0,0.1-0.1l0,0l0,0c0,0,0.1,0,0.2,0h-0.1l0,0c-0.1,0-0.2,0.1-0.1,0.2c0-0.1,0.1,0,0.1-0.1c0.1,0,0.1,0.1,0.2,0.1
	c-0.1,0-0.1,0-0.1,0.1c0.1,0,0.2,0.1,0.3,0L30,14.8c0.1-0.1,0.5,0.1,0.5-0.1v0.1c0.1,0,0.2-0.1,0.3-0.2v0.1c0.1,0,0.1,0,0.2-0.2
	c0-0.1,0-0.1,0-0.1l0,0l0,0l0,0c0.1,0,0.1,0,0.2-0.1s0.1,0.1,0.2,0s0.2,0,0.3-0.1h0.1c0.1,0.2,0.2,0.2,0.3,0.2c0.1,0,0.2,0,0.1,0.1
	c0,0-0.2,0-0.3,0c-0.2,0-0.3-0.1-0.4-0.1s-0.2,0.1-0.1,0.1c0-0.1,0.1,0,0.1,0h0.1h-0.1c-0.1,0-0.1,0.1-0.1,0.2
	c0-0.1,0.1-0.1,0.1-0.1s0.1-0.1,0.2,0h-0.1c-0.1,0-0.1,0.1-0.1,0.2c0-0.1,0.1-0.1,0.1-0.1l0,0h0.1c0.1,0,0.1-0.1,0.2-0.1l0,0
	c0,0,0,0.1-0.1,0.1c0.1,0,0.2,0,0.3-0.1v0.1c0.1-0.1,0.2-0.1,0.3-0.1s0.1,0,0.1-0.1s0-0.1-0.1-0.2c0,0-0.1-0.1,0-0.2
	c0.1,0,0.3,0,0.5,0c0.3-0.1,0.4,0,0.4,0.2c0,0.1-0.1,0.1-0.1,0.1c-0.2,0-0.2-0.1-0.3,0l0,0c-0.1,0-0.1,0.1-0.1,0.2
	c0-0.1,0.1,0,0.1-0.1l0,0l0,0c-0.1,0-0.1,0.1-0.1,0.2c0-0.1,0.1-0.1,0.1-0.1l0,0c0,0,0,0,0.1,0c0,0-0.1,0-0.1,0.1
	c-0.1,0-0.1,0.1-0.1,0.2c0-0.1,0.1-0.1,0.1-0.1l0,0l0,0l0,0l0,0c0-0.1,0.1-0.1,0.2-0.1l0,0c-0.1,0-0.1,0.1-0.1,0.1
	c0.1,0,0.2,0,0.2-0.1v0.1c0.1,0,0.1-0.1,0.1-0.2l0.1,0.1C33.8,14.7,33.9,14.5,33.8,14.5z"/>
<path class="st1" d="M63.4,38.7L35.7,21L63.4,3.3c-0.6-1.3-1.7-2.3-3-2.8L32,18.6L3.6,0.4C2.3,1,1.2,2,0.6,3.3L28.3,21L0.6,38.7
	c0.6,1.3,1.7,2.3,3,2.8L32,23.4l28.4,18.2C61.8,41,62.8,40,63.4,38.7z"/>
</svg>
