<?xml version="1.0" encoding="utf-8"?>
<!-- Generator: Adobe Illustrator 20.0.0, SVG Export Plug-In . SVG Version: 6.00 Build 0)  -->
<svg version="1.1" id="Layer_1" xmlns="http://www.w3.org/2000/svg" xmlns:xlink="http://www.w3.org/1999/xlink" x="0px" y="0px"
	 viewBox="0 0 64 42" style="enable-background:new 0 0 64 42;" xml:space="preserve">
<style type="text/css">
	.st0{fill:#0042A6;}
	.st1{fill:#57A863;}
	.st2{fill:#F4C907;}
	.st3{fill:#FFFFFF;}
</style>
<path id="Rounded_Rectangle_7_copy" class="st0" d="M5.8,0h52.3C61.4,0,64,2.6,64,5.7v30.6c0,3.2-2.6,5.7-5.8,5.7H5.8
	C2.6,42,0,39.4,0,36.3V5.7C0,2.6,2.6,0,5.8,0z"/>
<path class="st1" d="M64,5.3v31.4c0-0.1,0-0.3,0-0.4V5.7C64,5.6,64,5.5,64,5.3z"/>
<g>
	<path class="st2" d="M25.8,19.8c0,0,0.1-0.1,0.2-0.1l0.2-0.1h0.1c0.1,0,0.2,0.1,0.2,0.1l0.2,0.1h0.1l0.1-0.1c0.1,0,0.1,0,0.1-0.1
		c0,0,0-0.1,0.1-0.1l0.1-0.1c0,0,0.1,0,0.1-0.1s0.1-0.1,0.2-0.1s0,0,0.2,0s0.2,0,0.2-0.1c0,0,0-0.1,0.1-0.1s0.2,0,0.2,0
		c0-0.1,0.1-0.1-0.1-0.1s-0.2,0-0.2-0.1s0-0.1-0.1-0.1s-0.1-0.1-0.1-0.1c0-0.1,0-0.1-0.1-0.1c0,0-0.1,0-0.1-0.1s0-0.1-0.1-0.1
		s-0.1,0-0.1-0.1s0-0.1,0.1-0.1s0.1,0,0.1-0.1s0-0.2,0-0.2l0.1-0.1c0,0,0.2-0.2,0.3-0.2c0,0,0.1-0.1,0.1,0s0.1,0.1,0.1,0.1h0.1
		c0,0,0-0.2,0.1-0.2c0.1-0.1,0.1-0.1,0.1-0.2s0-0.1,0.1-0.1s0.1-0.1,0.1-0.1s0-0.1,0.1-0.1s0.1-0.1,0.1,0s0.1,0.1,0.1,0.1
		c0.1,0,0.1,0.1,0.2,0l0.1-0.1c0.1,0,0.1,0,0.1-0.1s0-0.2,0-0.2s0,0,0.1,0s0-0.1,0.1-0.1s0.1-0.1,0.1,0c0.1,0,0.2,0,0.1-0.1
		s-0.2-0.2-0.1-0.2c0.1-0.1,0.1-0.2,0-0.2s-0.2,0-0.2-0.1s0-0.1,0-0.1c0.1,0,0.2,0,0.2,0s0.2-0.1,0.2-0.2c0-0.1,0-0.1,0.1-0.2
		c0-0.1,0-0.2,0-0.2c-0.1-0.1-0.1-0.1-0.1-0.2l-0.1-0.1c-0.1,0-0.1,0-0.1-0.1s0.1,0,0.1-0.1c0-0.2-0.1-0.2-0.1-0.2l-0.2-0.1
		c0,0-0.3-0.1-0.4-0.1s-0.2-0.1-0.1-0.1S29,14.1,29,14c0-0.1-0.1-0.1-0.2-0.1s-0.2-0.1-0.1-0.1s0.1-0.1,0.1-0.1c0.1,0,0.2,0.1,0.3,0
		s0.1-0.1,0.2,0c0,0,0.1,0.1,0.2,0s0.2-0.1,0.2,0c0.1,0,0.2,0,0.2,0l0.1-0.1l0.1-0.1c0.1,0,0.1-0.1,0.2-0.1s0.1-0.1,0.1-0.1
		s0-0.1,0.1-0.1c0,0,0.1-0.1,0.2,0s0.2,0.1,0.2,0.1s0.1,0,0.2,0s0.1,0,0.2,0s0.2,0,0.2,0v-0.1v-0.1c0,0-0.1-0.1,0-0.1
		c0.1-0.1,0.1,0,0.2,0s0.1,0,0.2,0c0.1,0,0.2,0.1,0.2,0.1c0,0.1,0,0.1,0.1,0.1s0.1,0.1,0.1,0.1v0.1c0.1,0,0.1,0,0.1,0.1
		s0,0.1,0.1,0.1s0.1,0.1,0.1,0.1v0.1l0.1,0.1c0,0,0.1,0.1,0,0.1c-0.2-0.1-0.2-0.1-0.2-0.1c-0.1,0-0.1,0-0.1,0h-0.1
		c-0.1,0-0.1,0.1,0,0.1s0.1,0,0.1,0.1s0,0-0.1,0.1c0,0-0.1,0-0.2,0c-0.1,0-0.1,0.1-0.1,0.1c0,0.1,0,0,0.1,0.1c0,0,0.1,0.1,0.1,0
		c0.1,0,0.1-0.1,0.1,0s0.1,0.1,0.1,0.1h0.1c0.1,0,0.1,0,0.1,0.1s0.1,0.1,0.1,0.1c0.1,0,0.1,0,0.1,0.1c0,0,0,0.1,0.1,0
		c0.1,0,0.1,0,0.2,0l0.1,0.1V15l0.2,0.1c0,0,0,0,0,0.1s0,0.1,0.1,0c0.1,0,0.2,0,0.2,0s0.1,0,0.1-0.1s0-0.1,0.1-0.1s0.2,0,0.2,0
		s0.1-0.1,0.2,0c0.1,0,0.3,0.1,0.3,0.1s0,0,0,0.1c0.1,0.1,0.2,0.1,0.2,0.1v0.1c0,0,0.1,0.1,0.2,0c0.1,0,0.1-0.1,0.2-0.1s0.1,0,0.1,0
		l-0.1-0.1c0-0.1,0.1-0.1,0.1-0.1c0-0.1,0.1,0,0.1,0l0.1,0.1l0.1,0.2h0.2c0,0,0.2-0.1,0.1,0c0,0.1,0,0.1,0,0.2c0.1,0,0.1,0.2,0,0.2
		s-0.1,0-0.1,0.1s0,0.1,0,0.2c0.1,0,0.1,0.1,0.1,0.1l0.1,0.2v0.2c0,0,0,0.1,0.1,0.1s0.1,0,0.1,0.1s0,0.1,0,0.1c-0.1,0-0.1,0.1,0,0.1
		s0.1,0,0.1,0.1s0.1,0.1,0.2,0.1c0.1,0,0.1-0.1,0.1-0.1s0.1,0,0-0.1c0,0-0.1-0.1,0-0.1l0.1-0.1c0,0,0.1-0.1,0.1,0
		c0.1,0.1,0.1,0.1,0.1,0.1s0.1,0,0.1,0.1c0,0,0.1,0,0.1,0.1s0,0.3,0,0.3s0,0.1,0.1,0.1s0.1,0,0,0.1s0,0.1,0,0.2s0,0.1,0,0.1
		s-0.1,0.1,0,0.1s0,0.1,0.1,0.2s0.1,0.1,0.1,0.1s0.1,0.1,0.1,0.2l0.1,0.1c0.1,0,0.1,0.1,0.1,0.1v0.2c0,0,0,0,0.1,0s0.1,0.1,0.1,0
		s0.1-0.1,0.1-0.1s0.1-0.1,0.2,0h0.1h0.2c0,0,0.1,0,0.1,0.1s0.1,0.2,0.1,0.2c-0.1,0-0.1,0.1,0,0.1s0.1,0,0.1,0s0,0.1,0.1,0.1
		s0.1,0,0.1,0s0.1,0,0.1,0.1c0.1,0,0.1,0,0.1,0l0.2-0.1h0.2c0.1,0,0.2,0.1,0.2,0.1s0,0.1,0,0.2s0,0,0,0.1s0,0.1-0.1,0.1
		c0,0-0.1,0-0.1,0.1s0,0.1,0,0.2s0,0.1,0,0.1s-0.1,0.1,0,0.1s0,0.1,0,0.1v0.1c0,0,0,0-0.1,0s-0.1,0-0.2,0s-0.1,0.1,0,0.2
		c0.1,0,0.1,0.1,0,0.1c0,0-0.1,0.1,0,0.1s0.1,0.1,0,0.1s-0.2,0.1-0.2,0.1c0,0.1,0,0.1-0.1,0.1s-0.1,0.1,0,0.2s0.1,0.1,0.2,0.1
		c0.1,0,0.1-0.1,0.1-0.1h0.2c0,0,0.1,0,0.2,0c0,0,0.2-0.1,0.2,0s0,0.1,0.1,0.1s0.1,0,0.1,0.1s0.1,0,0.1-0.1s0.1-0.1,0.2-0.1
		c0.1,0.1,0.1,0.1,0.1,0.1s0.1,0,0.1,0.1h0.1c0.1,0,0.1,0,0.1,0.1c0,0,0,0,0.1,0s0.1,0,0.1,0s0.1-0.1,0.1,0s0.1,0,0.2,0
		c0-0.1,0.1-0.1,0.2,0s0.1,0.1,0.2,0.1c0.1,0,0.1,0,0.2,0.1S42,22,42,22.1c-0.1,0.1-0.2,0.1-0.1,0.2c0.1,0,0.1,0,0.2,0.1
		s0.2,0.1,0.2,0.1s0.1,0,0.2,0c0.1-0.1,0.2-0.1,0.1,0c0,0.1,0,0.2,0,0.2s0.1,0.1,0.1,0.2s0,0.1,0.1,0.1c0.1,0.1,0.1,0.1,0.2,0
		c0.1-0.1,0.1-0.1,0.1-0.1v-0.2c0,0,0.1,0,0.2,0c0,0,0.2-0.1,0.3-0.1h0.1c0,0,0.1,0,0.2,0c0,0,0.1,0,0.2-0.1c0.1-0.1,0.1,0,0.1,0
		s0.1,0.1,0,0.1s0,0.1,0.1,0.1s0.1,0,0.1,0.1s0,0.1,0,0.2c0,0,0,0.1,0.1,0.1s0.1,0.1,0.1,0.1v0.1c-0.1,0-0.1,0-0.1,0.1
		s-0.1,0.1-0.1,0.1h-0.1h-0.1c0,0-0.1,0.1-0.1,0.2s0,0.1,0,0.1S44,24,44,23.9h-0.1c0,0,0,0.2,0.1,0.2s0.1,0.1,0.1,0.1l0.1,0.1
		c0,0,0,0-0.1,0.1s-0.1,0.1,0,0.2c0.1,0,0,0.1,0,0.1c-0.1,0-0.1,0-0.2,0s0,0.1-0.1,0c-0.1,0-0.2,0-0.3,0c0,0.1-0.1,0.1-0.1,0.1
		c-0.1,0,0,0.1,0,0.2l0.1,0.1c0,0,0.1,0,0.1,0.1s0,0.1-0.1,0c0-0.1-0.1-0.1-0.1,0s0,0.2-0.1,0.2s-0.1,0-0.1,0.1l-0.1,0.1
		c0,0,0,0.1-0.1,0.1s-0.1,0.1-0.1,0.1s-0.1,0-0.1,0.1c0,0,0,0.1-0.1,0.1s-0.2,0.1-0.2,0.1v0.1l0.1,0.2c0.1,0,0.1,0,0.1,0.1
		s-0.1,0.1,0,0.1s0.1,0,0.1,0.1s0,0.1-0.1,0.1s-0.1,0-0.1,0.1s0,0.1,0,0.1c-0.1,0-0.1,0.1-0.1,0.1s0,0-0.1,0.1s-0.2,0.1-0.2,0
		c-0.1,0-0.1,0-0.1-0.1s-0.1-0.1-0.2,0c-0.1,0-0.1,0.1-0.1,0.1l-0.1,0.1c0,0,0,0.1-0.1,0.1s-0.2,0.1-0.3,0s-0.2-0.1-0.2,0
		s0.1,0.1,0.1,0.2s0,0.1-0.1,0.2c0,0,0,0.1-0.1,0.1c0,0,0,0.2,0.1,0.2s0.1,0.1,0.1,0.2s0,0.1,0.1,0.1s0.1,0,0.2-0.1
		c0-0.1,0.2-0.1,0.2,0s0,0.2,0.1,0.3c0.1,0.1,0.1,0.1,0.1,0.2l0.1,0.3c-0.1,0-0.1,0.2-0.2,0.2h-0.1c0,0,0,0.1-0.1,0.1
		s-0.1-0.1-0.2,0c-0.1,0-0.1,0.1-0.2,0.1c-0.1,0-0.1-0.3-0.1-0.3S41,29.1,41,29c-0.1-0.1-0.2,0-0.3,0s0-0.1-0.2-0.1
		s-0.1,0.1-0.2,0.2c-0.2,0.1-0.2-0.2-0.3-0.1c-0.1,0,0.1,0.1,0,0.1c0,0.1-0.2,0.1-0.2,0.2s0.1,0.1,0.1,0.2c0.1,0.2-0.1,0.3-0.3,0.2
		c-0.1-0.1-0.1-0.3-0.3-0.2h-0.1h-0.1c-0.1,0,0,0.1,0,0.1L39,29.7c0,0.1,0,0.1-0.1,0.2c-0.1,0-0.1,0-0.2,0.1
		c-0.1,0.1-0.1,0.2-0.2,0.2c0,0-0.1-0.1-0.1,0l0,0c0,0,0,0,0,0.1c0.1,0.2-0.1,0.3-0.2,0.5c0,0.1,0.1,0.1,0,0.2c0,0-0.1,0.1-0.1,0.2
		s0,0.1,0,0.1H38l0.1,0.1v0.1c0.1,0.1,0,0.1,0.1,0.2c0,0,0,0,0.1,0c0,0,0,0,0,0.1l0.1,0.1L38.2,32c-0.1,0,0.1-0.2-0.1-0.2
		C38,31.8,38,32,38,32h-0.1c-0.1,0-0.2,0.1-0.2,0.1h-0.1h-0.1c0,0,0,0-0.1,0c0,0-0.1,0-0.2-0.1h-0.1c0,0,0-0.1-0.1-0.1
		c0,0-0.1-0.1-0.1-0.2s0.1-0.2,0-0.3c0-0.1-0.2-0.2-0.2-0.3c0-0.1-0.1-0.2-0.1-0.3c-0.1,0-0.1-0.1-0.2-0.2v-0.1l-0.1-0.1v-0.2
		c-0.1,0-0.4-0.1-0.5-0.1h-0.1V30h-0.1h-0.1c-0.1,0.1-0.1,0.2-0.2,0.2c-0.1,0.1-0.2,0.1-0.3,0.2s-0.1,0.2-0.2,0.3h-0.1
		c-0.1,0.1-0.1,0.1-0.2,0.2l0,0h-0.1h-0.1c-0.1,0-0.1,0.1-0.2,0.1l0,0c0,0,0,0-0.1,0.1h-0.1c0,0-0.1,0-0.1,0.1c-0.1,0-0.3,0-0.3,0
		l-0.2,0.2h-0.1l-0.1,0.2l-0.2,0.2c0,0,0,0.1-0.1,0.1h-0.1h-0.1c-0.1,0-0.3,0-0.4,0c-0.1,0-0.1,0.2-0.2,0.2c-0.1,0-0.2,0-0.3,0h-0.1
		l-0.1,0.1l0,0l0,0c0,0-0.1,0.1-0.2,0.2l0,0c0,0-0.1,0.1-0.2,0.1c0,0.1,0.1,0.1,0.1,0.2c0,0.1-0.2,0.2-0.2,0.3v0.2
		c0,0.1-0.1,0.3,0,0.4c0,0,0,0.1,0,0.2c0,0,0,0,0.1,0.1s0.2,0.3,0.2,0.3c0,0.2-0.3,0.1-0.1,0.3c0,0,0,0.1,0.1,0.1l0.3,0.2l-0.2,0.1
		c-0.1,0.1-0.2,0.2-0.2,0.3c-0.1,0.1-0.1,0-0.2,0.1v0.2h-0.1v0.1c0,0-0.5,0.3-0.5,0.2v-0.1c0,0,0-0.1-0.1-0.1
		c-0.1-0.1-0.3-0.1-0.4,0c0,0,0,0.1-0.1,0.1s-0.1,0.1-0.2,0.1c0,0,0,0-0.1,0c0,0-0.1-0.1-0.2-0.2c0-0.1-0.2-0.2-0.2-0.3
		c0-0.2-0.2-0.4-0.2-0.7H29c0.1-0.1,0.1-0.3,0.3-0.2c0,0,0-0.1,0.1-0.1h0.1c0.1-0.1,0.2-0.5,0.1-0.6s-0.1-0.1-0.2-0.3v-0.1L29.3,33
		c0,0-0.1,0-0.1-0.1v-0.3c-0.1-0.2-0.3-0.3-0.3-0.3s-0.1-0.1-0.1-0.2c0-0.1,0-0.1-0.1-0.2c0,0,0,0-0.1-0.1c0-0.1,0.1-0.2,0.1-0.3
		c0,0-0.1-0.1-0.1-0.2s0.1-0.2,0.1-0.2c0-0.1-0.1-0.2-0.2-0.3c0,0,0.1-0.1,0-0.1l-0.2-0.2c0,0,0.1-0.1,0-0.1c0,0,0,0,0-0.1l-0.1-0.1
		l-0.1-0.5L28,29.6v-0.1c0,0-0.1,0-0.2-0.1c0,0,0-0.1-0.1-0.2c0,0,0,0-0.1,0c0,0,0,0,0-0.1s-0.1,0-0.2-0.2c-0.1-0.1-0.2-0.1-0.2-0.2
		l0,0c-0.1,0-0.1,0-0.2-0.1h-0.2v-0.1c-0.1,0-0.2,0-0.3-0.1c-0.1,0-0.1-0.3-0.2-0.2l0,0c-0.1-0.1-0.3-0.1-0.3-0.1h-0.1V28l-0.1-0.1
		c-0.1,0,0,0-0.1-0.1c-0.1,0-0.1,0-0.2,0.1h-0.1L25.3,28c0,0,0,0-0.1,0c0,0-0.1,0-0.1-0.1c-0.1-0.1-0.4,0.1-0.5,0
		c-0.1,0-0.1,0-0.1,0s0.1-0.3-0.2-0.4c0.1,0,0.1-0.1,0.2-0.1v-0.1c0,0,0-0.1,0-0.2s0-0.1-0.1-0.1v-0.1h-0.1c-0.1,0-0.1-0.1-0.2-0.1
		l0,0l-0.2-0.1l0,0v-0.1c0.1-0.1,0.2,0,0.2-0.2c0-0.1-0.1-0.1-0.1-0.2c0,0,0,0,0-0.1c-0.1,0-0.1-0.2-0.2-0.2c-0.1-0.1-0.3,0-0.1-0.2
		c0-0.1-0.1-0.2-0.2-0.2c-0.1-0.1,0-0.2-0.1-0.2l-0.1-0.1v-0.1l0,0V25h-0.1c-0.1-0.1-0.3-0.2-0.5-0.2c0,0,0-0.1-0.1-0.1l-0.3-0.1
		c0,0,0-0.1-0.1-0.1l-0.1-0.1c0-0.1-0.1-0.1-0.1-0.2c0,0,0,0,0-0.1c0,0,0-0.2,0.1-0.2l0.1-0.1c0-0.1,0-0.2,0-0.2
		c-0.1-0.2-0.2-0.2-0.1-0.4c0-0.1,0-0.1,0-0.1l0,0l0.1-0.1c0-0.1,0.1-0.2,0.1-0.2s0.1-0.1,0.2-0.1v-0.1h-0.1h-0.1l0,0l0,0h-0.1
		c0,0-0.1,0-0.2,0s-0.2-0.2-0.3-0.2c-0.1,0-0.2,0-0.3,0c-0.1,0-0.1,0-0.1-0.1c-0.1,0,0,0-0.2,0v-0.1H21c0,0,0-0.1,0-0.2h-0.1l0,0
		l0,0l-0.1-0.1l0.2-0.1c0,0,0,0,0-0.1c0,0,0-0.1,0-0.2l0,0l-0.1-0.1c0,0,0,0,0-0.1c0.1-0.2,0.2,0,0.3-0.3c0,0,0-0.1,0.1-0.1l0,0h0.1
		h0.1l0,0c0.2,0,0.2-0.1,0.3-0.2c0,0,0.1,0,0.2,0c0,0,0.1,0.1,0.2,0.1s0.3,0.1,0.3,0.1l0.1,0.1c0.1,0.1,0.1,0,0.2,0s0.2,0.1,0.3,0.2
		h0.1h0.2h0.1c0,0,0-0.1,0.1,0c0.1,0,0.1,0,0.2,0l0.1-0.3L24,21v-0.1l-0.1-0.2H24c0.1,0,0.1,0,0.2-0.1l0.1-0.1v-0.1
		c0,0,0.1,0,0.1-0.1c0,0,0-0.1,0.1-0.1c0.2,0,0.3-0.2,0.4-0.2c0,0,0,0,0.1,0v0.1l0.1,0.1l0,0l0.1-0.1c0,0,0,0,0-0.1l0.1-0.1h0.1
		c0,0,0,0,0.1,0.1C25.7,19.9,25.7,19.8,25.8,19.8C25.8,19.9,25.8,19.8,25.8,19.8L25.8,19.8z"/>
	<g>
		<polygon class="st3" points="35.5,7.5 35,5.8 34.4,7.5 32.5,7.5 34,8.6 33.5,10.4 35,9.3 36.4,10.4 35.9,8.6 37.4,7.5 		"/>
		<polygon class="st3" points="41.3,8.6 40.8,6.8 40.2,8.6 38.3,8.6 39.8,9.7 39.3,11.4 40.8,10.3 42.3,11.4 41.7,9.7 43.2,8.6 		
			"/>
		<polygon class="st3" points="48.7,10.6 46.9,10.6 46.3,8.8 45.7,10.6 43.9,10.6 45.4,11.7 44.8,13.4 46.3,12.3 47.8,13.4 
			47.2,11.7 		"/>
		<polygon class="st3" points="29.6,7.5 29,5.8 28.5,7.5 26.6,7.5 28.1,8.6 27.6,10.4 29,9.3 30.5,10.4 30,8.6 31.5,7.5 		"/>
		<polygon class="st3" points="23.8,8.6 23.2,6.8 22.7,8.6 20.8,8.6 22.3,9.7 21.7,11.4 23.2,10.3 24.7,11.4 24.2,9.7 25.7,8.6 		
			"/>
		<polygon class="st3" points="18.3,10.6 17.7,8.8 17.1,10.6 15.3,10.6 16.8,11.7 16.2,13.4 17.7,12.3 19.2,13.4 18.6,11.7 
			20.1,10.6 		"/>
	</g>
</g>
</svg>
