<?xml version="1.0" encoding="utf-8"?>
<!-- Generator: Adobe Illustrator 20.0.0, SVG Export Plug-In . SVG Version: 6.00 Build 0)  -->
<svg version="1.1" id="Layer_1" xmlns="http://www.w3.org/2000/svg" xmlns:xlink="http://www.w3.org/1999/xlink" x="0px" y="0px"
	 viewBox="0 0 64 42" style="enable-background:new 0 0 64 42;" xml:space="preserve">
<style type="text/css">
	.st0{fill:#002B7F;}
	.st1{fill:#CE1126;}
	.st2{fill:#FFD83D;}
</style>
<path id="Rounded_Rectangle_7_copy" class="st0" d="M5.8,0h52.3C61.4,0,64,2.6,64,5.7v30.6c0,3.2-2.6,5.7-5.8,5.7H5.8
	C2.6,42,0,39.4,0,36.3V5.7C0,2.6,2.6,0,5.8,0z"/>
<path class="st1" d="M0,36.3C0,39.4,2.6,42,5.8,42h52.4c3.2,0,5.8-2.5,5.8-5.7V21H0V36.3z"/>
<g>
	<circle class="st2" cx="12.8" cy="8.1" r="0.4"/>
	<circle class="st2" cx="12" cy="7.9" r="0.4"/>
	<circle class="st2" cx="11.1" cy="7.7" r="0.4"/>
	<circle class="st2" cx="10.3" cy="7.6" r="0.4"/>
	<circle class="st2" cx="9.5" cy="7.7" r="0.4"/>
	<circle class="st2" cx="8.7" cy="7.9" r="0.4"/>
	<circle class="st2" cx="8" cy="8.4" r="0.4"/>
	<circle class="st2" cx="7.6" cy="9.1" r="0.4"/>
	<circle class="st2" cx="7.3" cy="9.9" r="0.4"/>
	<circle class="st2" cx="7.3" cy="10.7" r="0.4"/>
	<circle class="st2" cx="7.5" cy="11.6" r="0.4"/>
	<circle class="st2" cx="15.8" cy="8.1" r="0.4"/>
	<circle class="st2" cx="16.7" cy="7.9" r="0.4"/>
	<circle class="st2" cx="17.5" cy="7.7" r="0.4"/>
	<circle class="st2" cx="18.3" cy="7.6" r="0.4"/>
	<circle class="st2" cx="19.2" cy="7.7" r="0.4"/>
	<circle class="st2" cx="20" cy="7.9" r="0.4"/>
	<circle class="st2" cx="20.6" cy="8.4" r="0.4"/>
	<circle class="st2" cx="21.1" cy="9.1" r="0.4"/>
	<circle class="st2" cx="21.3" cy="9.9" r="0.4"/>
	<circle class="st2" cx="21.3" cy="10.7" r="0.4"/>
	<circle class="st2" cx="21.1" cy="11.6" r="0.4"/>
	<path class="st2" d="M14.1,5.5c0,0.1,0.1,0.2,0.2,0.2L14,6.3l0.1,0.2c-0.2,0.1-0.4,0.3-0.5,0.5l0,0l0,0c0,0.1,0,0.1,0,0.2
		s0,0.1,0,0.2l0,0l0,0C13.7,7.7,14,8,14.3,8S15,7.7,15,7.4l0,0l0,0c0-0.1,0-0.1,0-0.2s0-0.1,0-0.2l0,0l0,0c-0.1-0.2-0.2-0.4-0.5-0.5
		l0.1-0.2l-0.3-0.6c0.1,0,0.2-0.1,0.2-0.2L15,5.8l0.6-0.4L15,5l-0.5,0.3c0-0.1-0.1-0.2-0.2-0.2l0.3-0.6l-0.4-0.7l-0.4,0.7l0.3,0.6
		c-0.1,0-0.2,0.1-0.2,0.2L13.4,5L13,5.4l0.6,0.4L14.1,5.5z"/>
	<path class="st2" d="M21.9,12.4C21.5,12.1,21,12,20.6,12c0.2-0.5,0.3-1.1,0.3-1.8C20.9,9.1,20,8,18.6,8c-1.2,0-2.4,0.4-3.5,0.6V8.5
		c0.2,0,0.3-0.2,0.3-0.4c0-0.2-0.2-0.4-0.4-0.4s-0.4,0.2-0.4,0.4s0.2,0.4,0.4,0.4l-0.4,0.1c0,0.1,0,0.1,0,0.2l0,0
		c0-0.1-0.1-0.3-0.3-0.3c-0.1,0-0.3,0.1-0.3,0.3l0,0c0-0.1,0-0.2,0-0.2l-0.4-0.1c0.2,0,0.4-0.2,0.4-0.4c0-0.2-0.2-0.4-0.4-0.4
		s-0.4,0.2-0.4,0.4s0.1,0.3,0.3,0.4c0,0,0,0,0,0.1C12.5,8.4,11.2,8,10,8c-1.5,0-2.3,1.1-2.3,2.2c0,0.7,0.1,1.2,0.3,1.8
		c-0.4,0-0.9,0.1-1.3,0.4c0.9,0.7,1.2,2.8,2,3.7l0,0c0,0.4,2.5,0.9,5.6,0.9s5.6-0.5,5.6-0.9l0,0C20.7,15.2,21,13.1,21.9,12.4z
		 M14.3,10.6L14.3,10.6L14.3,10.6L14.3,10.6L14.3,10.6L14.3,10.6L14.3,10.6z M14.3,11.3L14.3,11.3L14.3,11.3L14.3,11.3
		C14.3,11.4,14.3,11.4,14.3,11.3C14.3,11.4,14.3,11.4,14.3,11.3L14.3,11.3z M14.3,9.9L14.3,9.9L14.3,9.9L14.3,9.9
		C14.3,9.8,14.3,9.8,14.3,9.9C14.3,9.8,14.3,9.8,14.3,9.9L14.3,9.9z M14.3,9.2L14.3,9.2L14.3,9.2L14.3,9.2L14.3,9.2L14.3,9.2
		L14.3,9.2z"/>
	<circle class="st2" cx="14.3" cy="8.4" r="0.3"/>
</g>
</svg>
