<?xml version="1.0" encoding="utf-8"?>
<!-- Generator: Adobe Illustrator 20.0.0, SVG Export Plug-In . SVG Version: 6.00 Build 0)  -->
<svg version="1.1" id="Layer_1" xmlns="http://www.w3.org/2000/svg" xmlns:xlink="http://www.w3.org/1999/xlink" x="0px" y="0px"
	 viewBox="0 0 64 42" style="enable-background:new 0 0 64 42;" xml:space="preserve">
<style type="text/css">
	.st0{fill:#C81F27;}
	.st1{fill:#F7D416;}
	.st2{fill:#F7D416;stroke:#C81F27;stroke-width:0.5;stroke-miterlimit:10;}
</style>
<path id="Rounded_Rectangle_7_copy_2_" class="st0" d="M5.8,0h52.3C61.4,0,64,2.6,64,5.7v30.6c0,3.2-2.6,5.7-5.8,5.7H5.8
	C2.6,42,0,39.4,0,36.3V5.7C0,2.6,2.6,0,5.8,0z"/>
<path class="st1" d="M37.2,25.3l23.5,16.2c1.8-0.8,3.1-2.5,3.3-4.5L38,24c0.4-0.7,0.6-1.5,0.7-2.3L64,24.2v-6.4l-25.3,2.5
	c-0.1-0.8-0.3-1.6-0.7-2.3L64,5c-0.2-2-1.5-3.7-3.3-4.5L37.2,16.7c-1.1-1.3-2.6-2.2-4.3-2.4L36.2,0h-8.4l3.3,14.3
	c-1.7,0.2-3.3,1.1-4.3,2.4L3.4,0.5C1.6,1.4,0.3,3,0,5l26,13c-0.4,0.7-0.6,1.5-0.7,2.3L0,17.8v6.4l25.3-2.5c0.1,0.8,0.3,1.6,0.7,2.3
	L0,37c0.2,2,1.5,3.7,3.3,4.5l23.4-16.1c1.1,1.3,2.6,2.2,4.3,2.4L27.8,42h8.4l-3.3-14.3C34.6,27.5,36.1,26.6,37.2,25.3z"/>
<circle class="st2" cx="32" cy="21" r="6.9"/>
</svg>
