<?xml version="1.0" encoding="utf-8"?>
<!-- Generator: Adobe Illustrator 20.0.0, SVG Export Plug-In . SVG Version: 6.00 Build 0)  -->
<svg version="1.1" id="Layer_1" xmlns="http://www.w3.org/2000/svg" xmlns:xlink="http://www.w3.org/1999/xlink" x="0px" y="0px"
	 viewBox="0 0 64 42" style="enable-background:new 0 0 64 42;" xml:space="preserve">
<style type="text/css">
	.st0{fill:#CF142B;}
	.st1{fill:#FFFFFF;}
	.st2{fill:#C2C2C2;stroke:#ED5565;stroke-width:0.4;stroke-miterlimit:10;}
</style>
<path id="Rounded_Rectangle_7_copy" class="st0" d="M5.8,0h52.3C61.4,0,64,2.6,64,5.7v30.6c0,3.2-2.6,5.7-5.8,5.7H5.8
	C2.6,42,0,39.4,0,36.3V5.7C0,2.6,2.6,0,5.8,0z"/>
<path class="st1" d="M32,0H5.8C2.6,0,0,2.6,0,5.7v30.7c0,3.1,2.6,5.7,5.8,5.6H32V0z"/>
<path class="st2" d="M9.9,6.3c0-0.4-0.4-0.8-0.8-0.8V3.2H6.9v2.3c-0.4,0-0.8,0.4-0.8,0.8H3.8v2.3h2.3c0,0.4,0.4,0.8,0.8,0.8v2.3h2.3
	V9.4C9.6,9.4,10,9,10,8.6h2.3V6.3H9.9z"/>
</svg>
