<?xml version="1.0" encoding="utf-8"?>
<!-- Generator: Adobe Illustrator 20.0.0, SVG Export Plug-In . SVG Version: 6.00 Build 0)  -->
<svg version="1.1" id="Layer_1" xmlns="http://www.w3.org/2000/svg" xmlns:xlink="http://www.w3.org/1999/xlink" x="0px" y="0px"
	 viewBox="0 0 64 42" style="enable-background:new 0 0 64 42;" xml:space="preserve">
<style type="text/css">
	.st0{fill:#F7D900;}
	.st1{fill:#57A863;}
	.st2{fill:#0000A9;}
	.st3{fill:#DE1F10;}
</style>
<path id="Rounded_Rectangle_7_copy" class="st0" d="M5.8,0h52.3C61.4,0,64,2.6,64,5.7v30.6c0,3.2-2.6,5.7-5.8,5.7H5.8
	C2.6,42,0,39.4,0,36.3V5.7C0,2.6,2.6,0,5.8,0z"/>
<path class="st1" d="M64,5.3v31.4c0-0.1,0-0.3,0-0.4V5.7C64,5.6,64,5.5,64,5.3z"/>
<path class="st2" d="M5.8,42h15.5V0H5.8C2.6,0,0,2.6,0,5.7v30.7C0,39.5,2.6,42.1,5.8,42z"/>
<path class="st3" d="M58.2,42H42.7V0h15.5C61.4,0,64,2.6,64,5.7v30.7C64,39.5,61.4,42.1,58.2,42z"/>
<g>
	<path class="st3" d="M39.6,19.8c0,0-0.1,0-0.1,0.1s0,0.2,0,0.2s-0.4,0-0.5,0s0,0.3,0,0.6c0,0.3-0.2,0.3-0.2,0.3
		c0,0.1,0.1,0.2,0.1,0.2s-0.1,0-0.1,0.1s0,0.2,0,0.2c0,0.1-0.1,0.2-0.1,0.3c0-3.4,0-6.8,0-6.8c0-0.4-0.7-1.4-1.6-2
		c-0.6,0.4-1.3,1.2-1.5,1.2c0,0.2,0.1,0.4,0.1,0.7v0.4c-0.6,0-0.8,0.3-1.3,0.6c-0.3,0.2-0.7,0.3-0.7,0.3c-0.2-0.1-0.3-0.3-0.4-0.4
		c-0.3-0.4-0.4-0.9-0.4-1.4c0-0.2,0.2-0.5,0.2-0.6c0-0.3,0-0.4,0-0.4c0.1,0,0.2,0.2,0.2,0.2s0-0.4-0.1-0.5c0,0,0.1-0.1,0.3-0.1
		c-0.1-0.1-0.3-0.3-0.3-0.3s0,0,0.1-0.1c0.1,0,0.2-0.1,0.2-0.1c-0.1,0-0.2,0-0.3-0.1c-0.2-0.1-0.5-0.2-0.8-0.3
		c-0.5-0.2-0.8-0.2-1-0.2l0,0l0,0l0,0c-0.1,0-0.4,0-0.5,0.1s-0.1,0.2-0.1,0.2C30.6,12,30.4,12,30.3,12s-0.2,0-0.3,0.1v-0.3v-0.1h0.1
		h0.2c0.1,0,0.2,0.1,0.2,0.2c0.1-0.1,0.1-0.2,0.1-0.3s0-0.2-0.1-0.3c0,0.1-0.1,0.2-0.2,0.2h-0.2H30v-0.3c0-0.1,0.1-0.2,0.2-0.2
		c-0.1-0.1-0.2-0.1-0.3-0.1l0,0c-0.1,0-0.2,0-0.3,0.1c0.1,0,0.2,0.1,0.2,0.2v0.3h-0.1h-0.2c-0.1,0-0.2-0.1-0.2-0.2
		c-0.1,0.1-0.1,0.2-0.1,0.3s0,0.2,0.1,0.3c0-0.1,0.1-0.2,0.2-0.2h0.2h0.1v0.1v0.9v0.4c0,0.1-0.1,0.2-0.2,0.2c0.1,0,0.3,0.2,0.3,0.3
		c0-0.1,0.2-0.3,0.3-0.3c-0.1,0-0.2-0.1-0.2-0.2v-0.5c0.4,0.2,0.9,0.4,0.9,1.3c0,0.6-0.1,1.2-0.4,1.7c-0.1,0.2-0.3,0.3-0.4,0.4
		c-0.1,0-0.5-0.1-0.7-0.3c-0.5-0.3-0.7-0.5-1.3-0.6v-0.4c0-0.2,0.1-0.4,0.1-0.7c-0.2-0.1-0.9-0.9-1.5-1.2c-0.9,0.6-1.6,1.5-1.6,2
		c0,0,0,2.1,0,4.6c-0.1-0.2-0.2-0.3-0.2-0.3s-0.1,0.2-0.1,0.4c-0.1-0.2-0.5-0.4-0.5-0.4s-0.1,0.4,0,0.6s0.2,0.2,0.2,0.2
		c-0.2-0.1-0.5-0.1-0.5-0.1s0.1,0.4,0.4,0.6c0.1,0.1,0.3,0.1,0.5,0.2c0,0-0.1,0-0.1,0.1c0,0-0.1,0-0.1,0.1c-0.1,0.1-0.1,0.1-0.1,0.2
		s0.2,0.1,0.3,0.1c0.1,0,0.1-0.1,0.1-0.2s0-0.1,0.1-0.2l0.2,0.3c0,0.1,0,0.2,0,0.3c-0.3-0.1-0.7-0.1-0.7-0.1l0,0l0,0l0,0
		c0,0,0.1,0.2,0.3,0.3c-0.1,0-0.3,0.1-0.3,0.1s0.2,0.4,0.6,0.5c0.1,0,0.1,0,0.2,0c0,2.1,0,4.1,0,5.4c0,0.2-0.1,0.5-0.1,0.5
		c0.3-0.1,0.9-1,1-1.3v0.1c0.4-0.2,0.7-0.6,0.9-0.9c0.1,0,0.2,0,0.3-0.1l0,0c0,0-0.1,0-0.1,0.1c-0.1,0.1-0.1,0.2,0,0.2
		c0,0.1,0.1,0.1,0.1,0.1c-0.1,0.1-0.2,0.1-0.2,0.2c-0.1,0.1-0.1,0.3-0.1,0.4s0.1,0.3,0.1,0.3c0-0.1,0-0.1,0-0.1l0.4,0.5
		c0,0,0.2,0.1,0.3,0c0.1-0.1,0.2-0.2,0.3-0.2v0.1L27.9,28l0.7,0.4l0.2-0.7l-0.5-0.3l-0.1-0.2l0,0c0.1-0.1,0.1-0.2,0.2-0.4
		c0.3-0.4,0.9-1.2,1-1.3v0.1c0.1-0.2,0.6-0.7,0.8-0.8c0.2,0.1,0.4,0.2,0.6,0.3c0.1,0,0.1,0.1,0.2,0.1c-0.2,0.5-1.5,3.2-2.6,3.6
		c0,0,0.5,0.2,1.2,0.6c0.1,0.1,0.2,0.1,0.3,0.2c0.1-0.1,0.2-0.2,0.3-0.3c0.4-0.5,0.8-1.1,0.8-1.1c0,0.2-0.2,0.7-0.5,1.3
		c-0.1,0.1-0.1,0.2-0.2,0.4c0.1,0.1,0.2,0.1,0.3,0.2c0.7,0.4,1.3,0.8,1.5,1.3c0.2-0.4,0.8-0.9,1.5-1.3c0.1-0.1,0.2-0.1,0.3-0.2
		c-0.1-0.1-0.2-0.3-0.2-0.4c-0.4-0.6-0.6-1.1-0.5-1.3c0,0,0.4,0.6,0.8,1.1c0.1,0.1,0.2,0.2,0.3,0.3c0.1-0.1,0.2-0.1,0.3-0.2
		c0.7-0.3,1.2-0.6,1.2-0.6c-1.1-0.4-2.4-3.1-2.6-3.6c0.1,0,0.1-0.1,0.2-0.1c0.2-0.1,0.4-0.2,0.6-0.3c0.2,0.2,0.7,0.6,0.8,0.8v-0.1
		c0.1,0.2,0.7,0.9,1,1.3c0.1,0.1,0.1,0.2,0.2,0.4c0.1,0.1,0.2,0.2,0.3,0.3c0,0,0,0-0.1,0l0,0c-0.1,0-0.1,0-0.1,0.1v0.1
		c0,0-0.1,0-0.2,0v0.7c0,0,0.1-0.4,0.1-0.5s-0.1-0.1-0.1-0.1s0.1,0,0.1-0.1c0,0,0,0,0-0.1l0,0c0.1,0.1,0.3,0,0.3,0
		c0.1-0.1,0.4-0.5,0.4-0.5s0,0,0,0.1c0,0,0.1-0.2,0.1-0.3c0-0.1-0.1-0.3-0.1-0.4c0,0-0.1-0.1-0.2-0.2c0.1,0,0.2,0,0.2-0.1
		c0.1-0.1-0.1-0.3-0.1-0.3l0,0c0.2,0.3,0.5,0.7,0.9,0.9v-0.1c0.1,0.3,0.7,1.1,1,1.3c0,0-0.1-0.3-0.1-0.5c0-1.2,0-3.1,0-5.1
		c0.1-0.3,0.3-0.6,0.4-0.8c0-0.1,0.1-0.1,0.2-0.1v-0.1c0,0,0.1,0,0.2-0.1c0.1,0-0.1-0.1,0.2-0.4c0.2-0.2,0.5-0.3,0.5-0.4
		s-0.3-0.4-0.3-0.4s0.1,0,0.2-0.1c0-0.1,0-0.2,0-0.2h0.1v-0.6l-0.5,0.3L39.6,19.8z M28,25.8c0-0.1-0.1-0.1-0.2-0.1s-0.1,0.1-0.1,0.1
		h-0.1v-0.1c0.1-0.1,0.3-0.2,0.5-0.4c0.2-0.3,0.1-0.7,0.1-0.7s-0.3,0.1-0.3,0.2c0-0.1,0-0.2,0-0.3c0.1-0.4,0.2-0.8,0.3-1
		c0,0.1,0.1,0.1,0.1,0.2c0.1,0.1,0.3,0.3,0.4,0.4s0.3,0.2,0.4,0.2c-0.1,0.2-0.3,0.6-0.4,0.7c0,0,0.1,0,0.2,0c-0.1,0.1-0.5,0.8-0.7,1
		c-0.1,0.2-0.2,0.2-0.3,0.1L27.6,26c0,0,0.1,0,0.1,0.1c0,0,0.1,0.1,0.2,0C28,26,28,25.9,28,25.8z M30,12.5L30,12.5
		c0-0.1,0.1-0.1,0.2-0.1c0.4,0,0.7,0.2,0.7,0.3l0,0C30.6,12.7,30.2,12.6,30,12.5L30,12.5z M27.3,26.1V26V26.1c0.1,0.1,0,0.1,0,0.1
		S27.3,26.2,27.3,26.1z M36.2,26.2c-0.2,0-0.3,0.1-0.4-0.1c-0.1-0.3-0.6-0.9-0.7-1c0.1,0,0.2,0,0.2,0c-0.1-0.1-0.3-0.5-0.4-0.7
		c0.1-0.1,0.3-0.2,0.4-0.2c0.2-0.1,0.4-0.3,0.4-0.4s0.1-0.1,0.1-0.2c0.1,0.5,0.5,1.7,0.8,2.2c0,0.1,0.1,0.2,0.1,0.2s-0.2,0-0.2,0.1
		s0,0.2,0,0.2C36.3,26.2,36.2,26.2,36.2,26.2z"/>
	<path class="st3" d="M40.1,19.3L40.1,19.3L40.1,19.3z"/>
	<polygon class="st3" points="24.2,19.2 24.2,19.2 24.2,19.2 	"/>
</g>
</svg>
