<?xml version="1.0" encoding="utf-8"?>
<!-- Generator: Adobe Illustrator 20.0.0, SVG Export Plug-In . SVG Version: 6.00 Build 0)  -->
<svg version="1.1" id="Layer_1" xmlns="http://www.w3.org/2000/svg" xmlns:xlink="http://www.w3.org/1999/xlink" x="0px" y="0px"
	 viewBox="0 0 64 42" style="enable-background:new 0 0 64 42;" xml:space="preserve">
<style type="text/css">
	.st0{fill:#C40308;}
	.st1{fill:#C19F36;}
</style>
<path class="st0" d="M5.8,41.6c-3,0-5.4-2.4-5.4-5.3V5.7c0-2.9,2.4-5.3,5.4-5.3h52.3c3,0,5.5,2.4,5.5,5.3v30.6c0,3-2.4,5.3-5.4,5.3
	H5.8z"/>
<path class="st1" d="M58.1,0.7c0.4,0,2.2,0.1,3.6,1.5c1.4,1.4,1.5,3.2,1.6,3.6v30.6c0,2.8-2.2,5-5,5H5.8c-2.8,0-5.1-2.2-5.1-5V5.7
	c0-0.4,0.1-2.1,1.5-3.5c1.5-1.5,3.3-1.5,3.6-1.5C23.2,0.7,40.7,0.7,58.1,0.7z M58.1,0H5.8C2.6,0,0,2.6,0,5.7v30.6
	C0,39.4,2.6,42,5.8,42h52.4c3.2,0,5.8-2.5,5.8-5.7V5.7C64,2.6,61.4,0,58.1,0L58.1,0z"/>
<path class="st1" d="M42.7,20.5c0.3-0.1,1.3-0.4,2-0.9c0.7-0.6,0.8-1,0.9-1.3c0.1-0.2,0.1-0.4-0.1-0.3c-0.2,0.1-0.7,0.6-1.1,0.8
	c-0.4,0.2-0.7,0.3-0.9,0.4s-0.4,0.1-0.2,0s0.8-0.3,1.3-0.8s0.9-1.2,0.9-1.7c0-0.4,0-0.4-0.2-0.3c-0.1,0.1-0.7,0.7-0.9,1
	c-0.3,0.2-0.7,0.6-1,0.7c-0.2,0.1-0.6,0.3-0.1,0s1.3-1,1.7-2c0.3-0.9,0.3-1.5,0.3-1.6s-0.1-0.3-0.2-0.1c-0.1,0.2-0.7,1.3-1.1,1.8
	c-0.5,0.5-0.4,0.4-0.5,0.5s-0.3,0.2-0.1-0.1c0.2-0.3,0.7-0.9,0.9-1.6c0.2-0.6,0.3-1.3,0.3-1.6c0-0.4-0.2-0.9-0.2-1
	c-0.1-0.2-0.1-0.3-0.2-0.1c0,0.2-0.4,1.3-0.6,1.9c-0.2,0.5-0.6,1.2-0.7,1.3c-0.1,0.1-0.3,0.4-0.1,0s0.7-1.6,0.7-2.8
	c0.1-1.2-0.1-1.8-0.3-2.1s-0.3-0.4-0.3-0.4s0,0.8-0.2,1.9s-0.6,1.7-0.6,1.7s-0.1,0.2,0-0.1c0.1-0.2,0.2-0.6,0.3-1.3s0.1-1.5-0.1-2.2
	C42.1,9.4,41.7,9,41.7,9c-0.1,1.1-0.1,2.5-0.5,3.6c-0.1-0.1-0.2-0.2-0.2,0.1c-0.1,0.4-0.2,1.1-0.7,2s-0.7,1-0.7,1s-0.1-0.2-0.2-0.3
	c-0.1-0.1-0.1-0.2-0.2,0c-0.1,0.2-0.4,0.8-0.9,1.5c-0.6,0.7-0.9,1-0.9,1.5s0.3,0.8,0.7,1s0.4,0.4,0.4,0.6c-0.1,0.3-0.4,0.4-0.7,0.4
	s-0.6,0-0.8,0.1c-0.1,0.1-0.1,0.3-0.3,0.4c-0.1,0.1-0.2,0.2-0.3,0.2h-0.1c0-1.4,0.5-2,0.5-2l-1.5-1.7c-0.1,0-0.2,0.1-0.2,0.1
	s0,0,0-0.1c-0.2-0.3-0.3-0.5-0.3-0.8c0.1,0,0.2,0.1,0.4,0c0.1,0,0-0.2,0-0.3c0-0.1-0.1-0.6-0.1-0.7c0-0.2,0-0.2,0-0.2
	s0.2,0.2,0.3,0.2s0.1-0.1,0.1-0.3s0.1-0.5,0.3-0.7c0,0,0.2,0.2,0.5,0.2s0.6-0.1,0.9-0.3c0.3-0.3,0.3-0.3,0.3-0.3s0.5,0.2,0.9,0.2
	s0.8,0,1-0.5c0.2-0.4-0.1-0.8-0.1-0.9c0-0.1-0.2-0.1-0.2,0s0,0.4-0.2,0.6c-0.2,0.2-0.4,0.2-0.7,0.1c-0.2-0.1-0.6-0.2-0.9-0.1
	c-0.3,0-0.4,0.1-0.4,0.1s0.3-0.3,0.6-0.4c0.3-0.1,0.5,0,0.6,0.2c0.1,0.1,0.2,0.3,0.3,0s0-0.6-0.1-0.8s-0.4-0.3-0.7-0.3
	s-0.4,0.1-0.4,0.1S37,12.1,36.7,12c-0.5-0.1-1,0.1-1.4,0.3c0,0-0.3,0.1-0.6,0c-0.2-0.1-0.4-0.2-0.6-0.3c0-0.1,0.1-0.4,0.1-0.4
	s0.1,0,0.2-0.1c0.1,0,0.1-0.1,0.1-0.2c0-0.1-0.2-0.2-0.2-0.2s0-0.2,0.3-0.4s0.3-0.1,0.3-0.1s0.2,0,0.3,0c0.1-0.1,0.1-0.1,0.1-0.1
	s0.1,0,0.2-0.1c0.1-0.1,0.1-0.2,0-0.3c0-0.1-0.1-0.1,0-0.2c0.1,0,0.1-0.2,0.1-0.2c0-0.1,0-0.1,0-0.1s0.1,0,0.1-0.2s-0.1-0.2-0.1-0.2
	c-0.1,0-0.1,0-0.1,0s0-0.1-0.1-0.2c-0.1-0.1-0.1-0.2-0.1-0.2s0.1,0,0-0.2c0-0.1-0.1-0.2-0.2-0.2c-0.1,0-0.2,0-0.2,0S34.8,8,34.7,7.9
	c-0.1-0.1-0.1-0.1-0.1-0.1s0-0.1,0-0.2s-0.1-0.1-0.2-0.1s-0.1,0-0.1,0s-0.4-0.1-0.6-0.1c-0.2,0-0.2,0-0.2,0S33,7.3,32.8,7.2
	c-0.1,0-0.2,0-0.2,0s0.2-0.2,0.2-0.4c0-0.2-0.1-0.4-0.3-0.5c-0.1-0.1-0.1-0.1-0.2-0.1V6.1h0.3V5.6h-0.3V5.3h-0.6v0.3h-0.3v0.5h0.3
	v0.2c0,0-0.1,0-0.2,0.1c-0.2,0.1-0.3,0.3-0.3,0.5s0.1,0.4,0.1,0.4s0,0-0.2,0c-0.1,0-0.5,0.2-0.5,0.2s0,0-0.2,0s-0.6,0.1-0.6,0.1
	h-0.1c-0.1,0-0.2,0-0.2,0.1s0,0.2,0,0.2s0,0-0.1,0.1C29.3,8.1,29,8.2,29,8.2s-0.1,0-0.2,0s-0.2,0.1-0.2,0.2c0,0.1,0,0.2,0,0.2
	s-0.1,0.1-0.1,0.2C28.4,8.9,28.4,9,28.4,9s0,0-0.1,0s-0.1,0.1-0.1,0.2c0,0.2,0.1,0.2,0.1,0.2s0,0,0,0.1s0.1,0.2,0.1,0.2
	c0.1,0,0,0.1,0,0.2c0,0.1,0,0.2,0,0.3c0.1,0.1,0.2,0.1,0.2,0.1s0,0,0.1,0.1s0.3,0,0.3,0s0,0,0.3,0.1c0.3,0.2,0.3,0.4,0.3,0.4
	s-0.2,0.1-0.2,0.2c0,0.1,0,0.1,0.1,0.2c0.1,0,0.2,0.1,0.2,0.1s0.1,0.2,0.1,0.4c-0.1,0.1-0.3,0.2-0.6,0.3c-0.3,0.1-0.6,0-0.6,0
	c-0.4-0.2-0.9-0.4-1.4-0.3c-0.4,0.1-0.5,0.5-0.5,0.5s-0.1,0-0.4-0.1c-0.3,0-0.6,0.1-0.7,0.3s-0.2,0.5-0.1,0.8s0.2,0.1,0.3,0
	c0.1-0.1,0.3-0.2,0.6-0.2c0.3,0.1,0.6,0.4,0.6,0.4s-0.1,0-0.4-0.1c-0.4-0.1-0.7,0-0.9,0.1c-0.2,0.1-0.4,0.1-0.7-0.1
	c-0.2-0.2-0.2-0.5-0.2-0.6s-0.1-0.1-0.2,0c0,0.1-0.3,0.5-0.1,0.9c0.2,0.4,0.6,0.5,1,0.5s0.9-0.2,0.9-0.2s0,0.1,0.3,0.3
	c0.3,0.3,0.6,0.3,0.9,0.3s0.5-0.2,0.5-0.2c0.2,0.2,0.3,0.4,0.3,0.7c0,0.1,0,0.3,0.1,0.3s0.3-0.2,0.3-0.2s0,0.1,0,0.2
	c0,0.2,0,0.6-0.1,0.7c0,0.1-0.1,0.3,0,0.3s0.3,0,0.4,0c0,0.3-0.1,0.5-0.3,0.8c0,0,0,0,0,0.1c-0.1,0-0.1-0.1-0.2-0.1L27.3,19
	c0,0,0.5,0.6,0.5,2h-0.1c-0.1,0-0.2-0.1-0.3-0.2c-0.1-0.1-0.1-0.3-0.3-0.4s-0.5,0-0.8-0.1c-0.3,0-0.6-0.1-0.7-0.4s0-0.4,0.4-0.6
	s0.6-0.5,0.7-1c0-0.5-0.3-0.9-0.9-1.5c-0.6-0.7-0.9-1.3-0.9-1.5s-0.1-0.1-0.2,0s-0.2,0.3-0.2,0.3s-0.2-0.1-0.7-1s-0.6-1.6-0.7-2
	c0-0.2-0.1-0.1-0.2-0.1c-0.4-1.1-0.4-2.5-0.5-3.6c0,0-0.4,0.4-0.6,1.1c-0.2,0.7-0.2,1.5-0.1,2.2s0.2,1.1,0.3,1.3
	c0.1,0.3,0,0.1,0,0.1s-0.3-0.6-0.6-1.7c-0.2-1.1-0.2-1.9-0.2-1.9s-0.1,0.1-0.3,0.4c-0.2,0.3-0.3,1-0.3,2.1c0.1,1.2,0.5,2.4,0.7,2.8
	c0.2,0.4,0,0.2-0.1,0c-0.1-0.1-0.5-0.7-0.7-1.3c-0.2-0.5-0.6-1.7-0.6-1.9s-0.1-0.1-0.2,0.1c-0.1,0.2-0.2,0.7-0.2,1
	c0,0.4,0.1,1,0.3,1.6c0.2,0.6,0.7,1.3,0.9,1.6c0.2,0.3,0,0.1-0.1,0.1c-0.1-0.1,0,0-0.5-0.5s-1-1.6-1.1-1.8s-0.2,0-0.2,0.1
	s-0.1,0.7,0.3,1.6c0.3,0.9,1.2,1.7,1.7,2s0.1,0.2-0.1,0c-0.2-0.1-0.7-0.5-1-0.7s-0.8-0.9-0.9-1s-0.2-0.1-0.2,0.3s0.4,1.2,0.9,1.7
	s1.1,0.7,1.3,0.8c0.2,0.1,0,0-0.2,0c-0.2-0.1-0.5-0.2-0.9-0.4c-0.4-0.2-0.9-0.6-1.1-0.8c-0.2-0.1-0.2,0.1-0.1,0.3
	c0.1,0.2,0.2,0.7,0.9,1.3c0.7,0.6,1.7,0.9,2,0.9c0.3,0.1,0.1,0.1,0.1,0.1s-0.1,0-0.7-0.1s-1.4-0.6-1.7-0.7c-0.1,0-0.1-0.1-0.1,0.2
	s0.4,1,0.9,1.3s1.5,0.5,1.7,0.5s0.2,0,0.1,0.1c-0.1,0-0.4,0-0.8,0s-0.9-0.2-1.1-0.3c0-0.1,0-0.2,0-0.2c0-0.1-0.1-0.1-0.1-0.1
	s-0.1,0-0.2,0.1s-0.1,0-0.1-0.1c0,0,0-0.2,0-0.3c0-0.1-0.1-0.1-0.1-0.1c-0.1,0-0.4,0.1-0.5,0.2c-0.1,0,0,0.1,0,0.2
	c0.1,0.1,0.1,0.3,0.1,0.3s-0.3,0.1-0.4,0.1s-0.1,0.1,0,0.1c0,0.1,0.2,0.4,0.2,0.5s0.1,0,0.1,0l0.3-0.2l0.1,0.4c0,0-0.1,0-0.3,0.1
	c-0.1,0.1-0.1,0.2,0.1,0.3c0.2,0,0.4,0.1,0.6,0.5s0.3,1.1,0.4,2.2s0.8,1.7,0.9,1.8c0.1,0.1,0,0.1,0,0.1s-0.1,0.1-0.1,0.4
	c0,0.2,0.2,0.3,0.3,0.4c0.1,0,0.1,0.1,0.1,0.1s0,0.2,0,0.7c0,0.4,0.4,0.9,0.5,1s0.1,0.1,0.1,0.2c0,0-0.1,0-0.2,0.1s-0.3,0.2-0.3,0.4
	c-0.1,0.2-0.1,0.2,0,0.5c0,0.2,0.3,0.4,0.3,0.4s-0.1,0-0.1,0.2s0.1,0.3,0.2,0.4c0.1,0.1,0.4,0.2,0.4,0.2s0,0.1,0,0.2
	c0,0.1,0.2,0.2,0.3,0.2c0.1,0.1,0.3,0,0.4,0s0.2,0,0.2,0.1c0.1,0.1,0,0.4,0,0.6c0,0.1-0.1,0.3,0,0.4c0,0.1,0.2,0,0.3-0.1
	c0.1-0.1,0.2,0,0.3,0.1c0.1,0.1,0.3,0.1,0.4,0.1c0,0,0-0.1,0-0.2s0-0.3,0.1-0.4c0,0,0.2,0,0.4-0.1c0.1,0,0.2-0.1,0.2-0.1
	c0-0.1-0.1-0.1-0.3-0.2c-0.2-0.1-0.3-0.2-0.4-0.3s-0.1-0.1-0.1-0.2l0.1-0.1c0-0.1,0-0.2,0-0.2s0.1-0.1,0.2-0.2
	c0.1-0.1,0.1-0.2,0.2-0.2c0.1-0.1,0.2-0.4,0.3-0.5c0.1-0.1,0.3-0.2,0.4-0.3c0.1-0.1,0.4-0.4,0.5-0.5c0.2-0.1,0.6-0.3,0.6-0.3
	s0,0.3,0.1,0.4s0.3-0.1,0.8-0.4c0.5-0.4,0.9-0.5,0.9-0.5s0.1,0.2,0.2,0.3c0.1,0.2,0.3,0,0.9-0.8c0.5-0.7,1.1-1.3,1.4-1.5
	c0,0,0.1,0,0.1,0.1v0.1c-0.1,0.2-0.1,0.3-0.3,0.5c-0.1,0.2-0.3,0.3-0.5,0.6c-0.2,0.3-0.2,0.6-0.3,0.9c0,0.3,0.2,0.4,0.2,0.4
	s-0.3,0.3-0.4,0.5s-0.1,0.7-0.1,0.7s0,0-0.2,0.3c-0.1,0.2-0.3,0.3-0.6,0.6c-0.3,0.3-0.6,0.4-0.8,0.5c-0.2,0.1-0.1,0.2-0.1,0.3
	s0.3,0.2,0.5,0.3s0.3,0.1,0.5,0c0.2,0,0,0.1,0,0.2c-0.1,0.1-0.2,0.3-0.1,0.6c0,0.3,0.2,0.2,0.5,0.2s0.5-0.2,0.5-0.2s0,0,0,0.1
	s0,0.1,0,0.3s0,0.3,0.1,0.4c0.1,0.1,0.2-0.1,0.3-0.1c0.1,0,0.2-0.1,0.5-0.2c0.2,0,0.3-0.1,0.3-0.1s-0.1,0.1-0.1,0.2
	c0,0.2,0,0.4,0,0.5s0.1,0.3,0.3,0.4c0.2,0.1,0.2,0.1,0.3-0.1c0.1-0.2,0.3-0.4,0.3-0.4s0,0.1,0.2,0.6s0.7,0.9,0.7,0.9
	s0.5-0.4,0.7-0.9s0.2-0.6,0.2-0.6s0.2,0.2,0.3,0.4s0.1,0.2,0.3,0.1c0.2-0.1,0.3-0.3,0.3-0.4c0-0.1,0-0.4,0-0.5
	c0-0.2-0.1-0.2-0.1-0.2s0.1,0.1,0.3,0.1s0.4,0.1,0.5,0.2c0.1,0,0.2,0.1,0.3,0.1c0.1-0.1,0.1-0.2,0.1-0.4s0-0.3,0-0.3
	c0-0.1,0-0.1,0-0.1s0.3,0.1,0.5,0.2c0.3,0,0.5,0.1,0.5-0.2s-0.1-0.5-0.1-0.6c-0.1-0.1-0.2-0.2,0-0.2s0.3,0,0.5,0
	c0.2-0.1,0.5-0.2,0.5-0.3s0.1-0.2-0.1-0.3c-0.2-0.1-0.5-0.2-0.8-0.5s-0.5-0.3-0.6-0.6c-0.1-0.2-0.2-0.3-0.2-0.3s0-0.5-0.1-0.7
	s-0.4-0.5-0.4-0.5s0.2-0.1,0.2-0.4s0-0.6-0.3-0.9c-0.2-0.3-0.4-0.4-0.5-0.6s-0.2-0.4-0.3-0.5v-0.1c0.1,0,0.1-0.1,0.2-0.1
	c0.2,0.2,0.9,0.8,1.4,1.5c0.6,0.8,0.7,1,0.9,0.8c0.1-0.2,0.2-0.3,0.2-0.3s0.4,0.1,0.9,0.5s0.6,0.6,0.8,0.4c0.1-0.1,0.1-0.2,0.1-0.3
	c0,0,0.3,0.1,0.6,0.2c0.2,0.1,0.4,0.2,0.6,0.2c0.4,0.2,0.5,0.3,0.8,0.5c0.3,0.3,0.8,0.2,1.3,0.1s1.7-0.5,2.2-0.8
	c0.5-0.2,0.8-0.4,0.9-0.5c0.1-0.1,0.1-0.4,0.1-0.5s-0.1-0.2-0.1-0.3c0,0,0-0.1,0-0.2s0-0.2-0.1-0.3c-0.1-0.1-0.1-0.1-0.1-0.4
	c0-0.5-0.3-1.1-0.9-1.4c0,0,0-0.1-0.1-0.1l-0.1-0.1c0,0,0-0.3,0-0.4s0-0.1,0.1,0c0,0,0.1,0.1,0.2,0.1c0.1,0,0.1,0,0.2-0.1
	c0-0.1,0.1-0.3,0.1-0.4s0-0.1,0-0.1H44c-0.1,0-0.1,0,0,0c0,0,0-0.1,0.1-0.2s0-0.1-0.1-0.1s-0.4-0.1-0.5-0.1s-0.1,0.1-0.1,0.1
	s0,0.2,0,0.3c0,0.1-0.1,0-0.1,0s-0.1-0.1-0.2-0.1c-0.1,0-0.1,0-0.1,0.1s-0.1,0.4-0.1,0.4c0,0.1,0,0.1,0,0.2c0,0,0.2,0,0.3,0
	s0,0.1,0,0.1l-0.1,0.2c0,0.1-0.1,0.1-0.2,0.1s-0.2,0-0.2,0s-0.5,0-0.9,0.3s-0.5,0.5-0.6,0.7c-0.1,0.1-0.1,0.1-0.2,0.2
	c-0.1,0.1-0.2,0.2-0.2,0.3c0,0.1,0,0.2-0.1,0.3c-0.2,0.1-0.3,0.6-0.1,0.8c0.2,0.3,0.3,0.5,0.4,0.6c0.1,0.1,0,0.2-0.1,0.2
	s-0.2-0.1-0.3-0.2s-0.6-0.5-0.9-0.7C39.5,29,39.6,29,39.6,29s0.1,0,0.2-0.1c0.1-0.1,0.2-0.1,0-0.2c-0.1,0-0.4-0.2-0.5-0.3
	c-0.1-0.1-0.1-0.1,0-0.2s0.4-0.3,0.2-0.3c-0.2-0.1-0.5-0.1-0.7-0.2s-0.2-0.1-0.2-0.1l0.1-0.2c0,0,0.1-0.2,0-0.2s-0.5-0.1-0.8-0.2
	c-0.6-0.3-1-0.7-1.1-1.3l0,0c0.1,0.2,0.4,0.7,0.8,0.7c0.6,0,0.6-0.2,0.5-0.3c-0.1-0.2-0.3-0.3-0.3-0.4s0-0.1,0.1,0s0.4,0.6,1.3,0.5
	C40,26.1,40,26,40,25.9c0-0.2-0.2-0.2-0.3-0.3c-0.1-0.1-0.1-0.1,0.1-0.1c0.2,0.1,0.6,0.1,1.1,0c0.2,0,0.8-0.3,0.9-0.6
	c0,0-0.4,0-0.6-0.1c-0.3-0.1-0.4-0.2-0.1-0.1c0.3,0.1,0.8,0.2,1.3,0c0.3-0.1,0.6-0.3,0.6-0.7c0,0-0.5-0.1-0.7-0.2s-0.2-0.1-0.2-0.1
	s0.7,0.2,1.4-0.1c0.7-0.3,0.7-0.8,0.7-0.9s0-0.1,0-0.1s-0.6,0.1-1.1,0.1s-0.6,0-0.6,0s1.3,0,1.9-0.4c0.6-0.4,0.7-1.2,0.7-1.2
	s-0.7,0.3-1.2,0.3c-0.5,0.1-0.7,0.1-0.8,0c-0.1,0-0.2,0,0.1-0.1c0.2,0,1.2-0.2,1.7-0.5s0.9-1,0.9-1.3s0-0.3-0.2-0.1
	c-0.2,0.1-1.1,0.6-1.7,0.7C42.7,20.6,42.6,20.6,42.7,20.5C42.6,20.6,42.4,20.6,42.7,20.5z M27.7,26.5c-0.2,0.3-0.6,0.6-0.9,0.7
	s-0.6,0.2-0.8,0.2c-0.1,0,0,0.2,0,0.2l0.1,0.2c0,0,0,0.1-0.2,0.1c-0.2,0.1-0.5,0.1-0.7,0.2s0.1,0.3,0.2,0.3c0.1,0.1,0.1,0.1,0,0.2
	s-0.3,0.2-0.5,0.3c-0.1,0-0.1,0.1,0,0.2s0.5,0.1,0.5,0.1s0,0-0.2,0.2s-0.6,0.3-0.9,0.3s-0.7,0-1.2,0s-0.6,0-0.6,0s0-0.2-0.1-0.4
	c0-0.3-0.2-0.6-0.3-0.8C22,28.3,21.7,28,21.7,28s0-0.1,0-0.2s0-0.2-0.1-0.3c-0.1-0.2-0.4-0.4-0.4-0.4s0-0.2,0-0.3
	c0-0.2-0.1-0.8-0.2-1.1c-0.1-0.3-0.6-1.1-0.8-1.4c-0.2-0.4-0.3-0.9-0.4-1.3s0-0.6,0-0.7v-0.1c0.1,0.1,0.2,0.2,0.4,0.3
	c0.6,0.4,1.9,0.4,1.9,0.4s-0.1,0-0.6,0s-1.1-0.1-1.1-0.1s0,0,0,0.1s0,0.6,0.7,0.9s1.4,0.1,1.4,0.1s0.2,0.1,0,0.1
	c-0.2,0.1-0.7,0.2-0.7,0.2c0,0.4,0.4,0.6,0.6,0.7c0.5,0.2,1,0,1.3,0c0.3-0.1,0.1,0-0.1,0.1c-0.3,0.1-0.6,0.1-0.6,0.1
	c0.1,0.3,0.6,0.6,0.9,0.6c0.6,0.1,1,0,1.1,0c0.2-0.1,0.1,0,0.1,0.1c-0.1,0.1-0.3,0.1-0.3,0.3c0,0,0,0.2,0.8,0.3
	c0.8,0.1,1.1-0.4,1.3-0.5c0.1-0.1,0.1-0.1,0.1,0s-0.2,0.2-0.3,0.4c-0.1,0.2-0.1,0.4,0.5,0.3c0.4,0,0.7-0.4,0.8-0.7l0,0l0,0
	C27.9,26.1,27.8,26.3,27.7,26.5z M29.3,9.6c0-0.2-0.1-0.4,0-0.5c0-0.1,0-0.2,0.2-0.4S30,8.3,30,8.3s0,0.1-0.1,0.2
	c-0.1,0.1-0.3,0.5-0.2,0.9c0,0.4,0.2,0.4,0.3,0.5c0.1,0.1,0,0.1-0.1,0.2c-0.1,0.1-0.3,0-0.4,0C29.3,10,29.2,10,29.2,10s0,0,0.1-0.1
	C29.3,9.8,29.3,9.7,29.3,9.6z M31.5,9.6c0.1,0.2,0.3,0.3,0.3,0.3s-0.1,0-0.2,0.1c0,0-0.1,0-0.3,0s-0.2,0-0.4-0.1
	c-0.1-0.1-0.2-0.1-0.2-0.1s0.1-0.1,0-0.3c0-0.1-0.1-0.3-0.1-0.5s0.1-0.5,0.4-0.8c0.3-0.3,0.6-0.4,0.6-0.4c0,0.3-0.1,0.6-0.1,0.9
	C31.4,9.2,31.5,9.4,31.5,9.6z M32.7,8.8c0-0.3-0.1-0.6-0.1-0.9c0,0,0.2,0.1,0.6,0.4c0.3,0.3,0.4,0.6,0.4,0.8s-0.1,0.3-0.1,0.5
	c0,0.1,0,0.3,0,0.3S33.4,10,33.3,10c-0.1,0-0.2,0-0.4,0s-0.3-0.1-0.4-0.1c-0.1-0.1-0.2-0.1-0.2-0.1s0.2-0.1,0.3-0.3
	C32.7,9.4,32.8,9.2,32.7,8.8z M35,9.9C35,10,35,10,35,9.9c0.1,0.1-0.1,0.1-0.2,0.2c-0.1,0.1-0.3,0.1-0.4,0c-0.1-0.1-0.1-0.1-0.1-0.2
	c0.1-0.1,0.3-0.1,0.3-0.5s-0.2-0.8-0.2-0.9c-0.1-0.1-0.1-0.2-0.1-0.2s0.3,0.1,0.5,0.4C35,8.9,35,9,35,9.1s0,0.3,0,0.5
	C34.9,9.7,34.9,9.8,35,9.9z M30.1,12.4c0.1-0.1,0.1-0.3,0.1-0.4l0,0c0.6,0.2,1.3,0.3,2,0.3c0.6,0,1.3-0.1,2-0.3l0,0
	c0,0.1,0,0.2,0.1,0.4c0.2,0.4,0.6,0.5,0.6,0.5s-0.1,0.2-0.4,0.4c-0.3,0.2-0.5,0.1-0.5,0.3c0,0.1,0.3,0.2,0.3,0.2s-0.3,0.3-0.5,0.5
	c-0.2,0.1-0.5,0.2-0.5,0.2s-0.1,0,0,0.2c0.1,0.1,0.1,0.2,0.2,0.3c0.1,0,0.1,0.1,0.1,0.1s-0.4,0.4-0.6,0.6c-0.2,0.1-0.3,0.2-0.4,0.2
	c-0.1,0.1-0.1,0.3,0,0.4c0,0.1,0.2,0.3,0.2,0.3c0.1,0,0.1,0.1,0,0.2s-0.3,0.4-0.4,0.6l0,0c-0.1-0.2-0.3-0.5-0.4-0.6s-0.1-0.2,0-0.2
	s0.2-0.2,0.2-0.3c0-0.1,0.1-0.3,0-0.4c-0.1-0.1-0.2-0.1-0.4-0.2c-0.2-0.1-0.6-0.6-0.6-0.6s0,0,0.1-0.1c0.1,0,0.2-0.1,0.2-0.3
	c0.1-0.1,0-0.2,0-0.2s-0.3-0.1-0.5-0.2c-0.2-0.1-0.5-0.5-0.5-0.5s0.3-0.1,0.3-0.2c0-0.1-0.2-0.1-0.5-0.3s-0.4-0.4-0.4-0.4
	S29.9,12.8,30.1,12.4z M19.8,21.7c0,0.1,0.1,0.2,0.1,0.3l0,0c-0.1,0-0.3,0.1-0.3,0.1s-0.1-0.2-0.1-0.3c0-0.1,0-0.1,0-0.1
	C19.6,21.8,19.7,21.7,19.8,21.7L19.8,21.7z"/>
</svg>
