<?xml version="1.0" encoding="utf-8"?>
<!-- Generator: Adobe Illustrator 20.0.0, SVG Export Plug-In . SVG Version: 6.00 Build 0)  -->
<svg version="1.1" id="Layer_1" xmlns="http://www.w3.org/2000/svg" xmlns:xlink="http://www.w3.org/1999/xlink" x="0px" y="0px"
	 viewBox="0 0 64 42" style="enable-background:new 0 0 64 42;" xml:space="preserve">
<style type="text/css">
	.st0{fill:#DA1F26;}
	.st1{fill:#FFFFFF;}
	.st2{fill:#243E84;}
	.st3{fill:#EDB92E;}
</style>
<path id="Rounded_Rectangle_7_copy_1_" class="st0" d="M5.8,0h52.3C61.4,0,64,2.6,64,5.7v30.6c0,3.2-2.6,5.7-5.8,5.7H5.8
	C2.6,42,0,39.4,0,36.3V5.7C0,2.6,2.6,0,5.8,0z"/>
<path class="st1" d="M0,36.3C0,39.4,2.6,42,5.8,42h52.4c3.2,0,5.8-2.5,5.8-5.7V14H0V36.3z"/>
<rect y="14" class="st2" width="64" height="14"/>
<g>
	<path class="st0" d="M25.2,24.6V14c-1.1,0-2.1,0-3.2,0h-8.3c-1.1,0-2.1,0-3.2,0c0,4.1,0,8.2,0,12.3c0.1,1.8,0.9,3.7,2.1,5
		c0,0,0,0,0-0.1l0,0c1.3,1.4,3.1,2.2,5.1,2.2l0,0l0,0c0.1,0.2,0.5,0,0.7,0c2.8-0.3,5.2-2.3,6.1-4.9C25.2,27.2,25.3,25.9,25.2,24.6z"
		/>
	<g>
		<path class="st3" d="M14.2,10L14.2,10L14.2,10z"/>
		<path class="st3" d="M16.9,10.9L16.9,10.9L16.9,10.9z"/>
		<path class="st3" d="M14.3,11.4L14.3,11.4L14.3,11.4z"/>
		<path class="st3" d="M15.5,11.3L15.5,11.3L15.5,11.3z"/>
		<path class="st3" d="M15.2,10.5L15.2,10.5L15.2,10.5z"/>
		<path class="st3" d="M15.8,10.9L15.8,10.9L15.8,10.9z"/>
		<path class="st3" d="M21.6,10L21.6,10L21.6,10z"/>
		<path class="st3" d="M19,10.9L19,10.9L19,10.9z"/>
		<path class="st3" d="M21.5,11.4L21.5,11.4L21.5,11.4z"/>
		<path class="st3" d="M20.3,11.3L20.3,11.3L20.3,11.3z"/>
		<path class="st3" d="M20.5,10.2L20.5,10.2L20.5,10.2z"/>
		<path class="st3" d="M22.2,14c0,0,0-0.1-0.1-0.1c0,0,0,0,0-0.1c0.1,0,0.1-0.1,0.2-0.2c0,0,0.1,0,0.1-0.1c0.1-0.1,0.1-0.1,0.1-0.2
			l0,0c0-0.1,0-0.2-0.1-0.3l0,0c0-0.1,0-0.1-0.1-0.2l0,0c0,0,0,0,0-0.1c0.1,0,0.2,0,0.2-0.1s0-0.1-0.1-0.2c0,0,0,0-0.1,0
			c0.1-0.1,0.1-0.3,0.2-0.4c0.1-0.1,0.2-0.1,0.1-0.2l0,0l0,0l0,0c0.1,0,0.1-0.2,0.2-0.3v-0.1c0,0,0,0,0.1-0.1l0,0c0,0,0,0,0-0.1l0,0
			l0.1-0.1l0,0l0,0l0,0V11l0,0l0,0l0,0l0,0l0,0l0,0l0,0c0,0,0,0,0-0.1c0.1,0,0.1-0.1,0.1-0.2c0-0.1,0.1-0.1,0.1-0.2l0,0l0,0l0,0l0,0
			c0.1,0,0.1,0,0.2,0l0,0l0,0l0,0l0,0l0,0l0.1-0.1l0,0l0,0l0,0c0,0,0-0.1,0-0.2l0,0l0,0v-0.1l0,0l0,0c0-0.1,0-0.1-0.1-0.2l0,0
			C24,10,24,10,24.1,9.9c0,0,0-0.1,0-0.2l0,0c0-0.1,0-0.1-0.1-0.2l0,0l0,0l0,0l0,0c0.1,0,0.2-0.1,0.2-0.1V9.3l0,0
			c0-0.1,0-0.2-0.1-0.2l0,0c0.1,0,0.1-0.1,0.1-0.1s0-0.1,0-0.2l0,0l0,0l0,0l0,0c0-0.1-0.1-0.2-0.1-0.2s-0.1,0-0.2,0l0,0l0,0l0,0l0,0
			h-0.1l0,0l0,0c0,0,0-0.1,0-0.2l0,0l0,0l0,0C24.1,8.2,24,8.1,24,8c0,0-0.1,0-0.2,0l0,0l0,0c-0.1,0-0.1,0-0.2,0.1c0,0,0,0,0-0.1l0,0
			l0,0l0,0c0-0.1-0.1-0.2-0.1-0.2s-0.1,0-0.2,0l0,0c-0.1,0-0.2,0.1-0.2,0.1l0,0V7.8l0,0l0,0l0,0l0,0c0-0.1-0.1-0.2-0.1-0.2
			s-0.1,0-0.2,0l0,0l0,0l0,0l0,0c-0.1,0-0.2,0-0.2,0.1l0,0l0,0l0,0l0,0l0,0c0-0.1-0.1-0.2-0.1-0.2s-0.1,0-0.2,0l0,0l0,0l0,0l0,0
			c-0.1,0-0.2,0-0.2,0.1l0,0l0,0l0,0l0,0l0,0c0-0.1-0.1-0.2-0.1-0.2s-0.1,0-0.2,0l0,0l0,0l0,0l0,0h-0.1l-0.1-0.1c0,0-0.1,0-0.2,0
			l0,0l0,0l0,0l0,0c-0.1,0-0.1,0-0.2,0c0-0.1-0.1-0.2-0.1-0.2s-0.1,0-0.2,0l0,0l0,0l0,0l0,0c-0.1,0-0.2,0-0.2,0.1
			c0-0.1-0.1-0.2-0.1-0.2h-0.1l0,0l0,0l0,0l0,0c-0.1,0-0.2,0-0.2,0.1c0-0.1-0.1-0.1-0.1-0.2h-0.1l0,0l0,0l0,0l0,0
			C20,6.9,19.9,7,19.9,7l0,0c0-0.1-0.1-0.1-0.1-0.2c0,0-0.1,0-0.2,0l0,0l0,0c-0.1,0-0.2,0.1-0.2,0.1s0,0,0,0.1
			c0-0.1-0.1-0.1-0.1-0.2c0,0-0.1,0-0.2,0l0,0l0,0l0,0l0,0c-0.1,0-0.2,0.1-0.2,0.1s0,0.1,0,0.2l0,0l0,0l0,0l0,0h-0.1
			c0.1-0.1,0.1-0.2,0.1-0.3l0,0l0,0l0,0l0,0l0,0l0,0l0,0l0,0l0,0l0,0l0,0c0,0,0,0,0-0.1l0,0c0,0,0,0,0-0.1l0,0l0,0l0,0l0,0l0,0l0,0
			l0,0l0,0c0-0.1,0-0.1-0.1-0.2C18.7,6.2,18.5,6,18.3,6V5.3h0.2c0,0.1,0.1,0.1,0.1,0.1l0,0l0,0c0.1,0,0.1-0.1,0.2-0.1
			s0.1-0.1,0.1-0.1l0,0l0,0c0-0.1-0.1-0.1-0.1-0.2s-0.1-0.1-0.1-0.1l0,0l0,0c-0.1,0-0.1,0.1-0.2,0.1h-0.2V4.8c0.1,0,0.1-0.1,0.1-0.1
			l0,0l0,0c0-0.1-0.1-0.1-0.1-0.2s-0.1-0.1-0.1-0.1l0,0l0,0c-0.1,0-0.1,0.1-0.2,0.1s-0.1,0.1-0.1,0.1l0,0l0,0c0,0.1,0.1,0.1,0.1,0.2
			V5h-0.2c0-0.1-0.1-0.1-0.1-0.1l0,0l0,0c-0.1,0-0.1,0.1-0.2,0.1s-0.1,0.1-0.1,0.1l0,0l0,0c0,0.1,0.1,0.1,0.1,0.2s0.1,0.1,0.1,0.1
			l0,0l0,0c0.1,0,0.1-0.1,0.2-0.1H18v0.3c-0.1,0-0.1,0-0.2,0.1c-0.2,0.1-0.4,0.3-0.4,0.5l0,0l0,0l0,0l0,0l0,0v0.1l0,0l0,0l0,0l0,0
			l0,0l0,0l0,0l0,0l0,0l0,0l0,0l0,0l0,0l0,0l0,0l0,0l0,0l0,0c0,0.1,0,0.2,0.1,0.2c0,0,0,0,0,0.1h-0.1l0,0l0,0l0,0l0,0
			c0-0.1,0-0.1,0-0.2c-0.1-0.1-0.1-0.1-0.2-0.1l0,0l0,0l0,0l0,0c-0.1,0-0.1,0-0.2,0s-0.1,0.1-0.1,0.2c0,0,0,0,0-0.1
			c-0.1-0.1-0.1-0.1-0.2-0.1l0,0l0,0c-0.1,0-0.1,0-0.2,0s-0.1,0.1-0.1,0.2l0,0c-0.1-0.1-0.1-0.1-0.2-0.1l0,0l0,0l0,0
			c-0.1,0-0.1,0-0.1,0C16,6.4,16,6.5,16,6.6c-0.1-0.1-0.1-0.1-0.2-0.1l0,0l0,0l0,0l0,0c-0.1,0-0.1,0-0.1,0c-0.1,0-0.1,0.1-0.1,0.2
			c-0.1-0.1-0.1-0.1-0.2-0.1l0,0l0,0l0,0l0,0c-0.1,0-0.1,0-0.2,0c-0.1,0-0.1,0.1-0.1,0.2c0,0-0.1,0-0.2,0l0,0l0,0l0,0l0,0
			c-0.1,0-0.1,0-0.2,0c0,0-0.1,0-0.1,0.1h-0.1l0,0l0,0l0,0l0,0c-0.1,0-0.1,0-0.2,0C14.2,7,14.2,7,14.2,7.1l0,0l0,0l0,0l0,0l0,0
			C14.1,7,14.1,7,14,7l0,0l0,0l0,0l0,0c-0.1,0-0.1,0-0.2,0c-0.1,0.1-0.1,0.1-0.1,0.2l0,0l0,0l0,0l0,0l0,0c-0.1-0.1-0.1-0.1-0.2-0.1
			l0,0l0,0l0,0l0,0c-0.1,0-0.1,0-0.2,0c-0.1,0.1-0.1,0.1-0.1,0.2l0,0l0,0l0,0l0,0v0.1l0,0c-0.1-0.1-0.1-0.1-0.2-0.1l0,0
			c-0.1,0-0.1,0-0.2,0c-0.1,0.1-0.1,0.1-0.1,0.2l0,0l0,0l0,0c0,0,0,0,0,0.1C12.2,8,12.1,8,12,8l0,0l0,0c-0.1,0-0.1,0-0.2,0
			c-0.1,0.1-0.1,0.1-0.1,0.2l0,0l0,0l0,0c0,0.1,0,0.1,0,0.2l0,0l0,0h-0.1l0,0l0,0l0,0l0,0c-0.1,0-0.1,0-0.2,0
			c-0.1,0.1-0.1,0.1-0.1,0.2l0,0l0,0l0,0l0,0c0,0.1,0,0.1,0,0.2c0,0.1,0.1,0.1,0.1,0.1l0,0C11.3,9,11.3,9,11.3,9.1l0,0
			c0,0.1,0,0.1,0,0.1c0,0.1,0.1,0.1,0.2,0.1l0,0l0,0l0,0l0,0c-0.1,0.1-0.1,0.1-0.1,0.2l0,0c0,0.1,0,0.1,0,0.2c0,0.1,0.1,0.1,0.2,0.1
			l0,0l0,0c0,0.1-0.1,0.1-0.1,0.2l0,0l0,0c0,0.1,0,0.1,0,0.1l0,0l0,0c0,0,0,0.1,0,0.2l0,0l0,0l0,0l0,0c0,0,0,0.1,0.1,0.1l0,0l0,0
			l0,0l0,0l0,0c0.1,0,0.1,0,0.2,0l0,0l0,0l0,0l0,0l0,0c0,0.1,0,0.1,0.1,0.2c0,0.1,0.1,0.1,0.1,0.2v0.1l0,0l0,0l0,0l0,0l0,0l0,0V11
			l0,0l0,0l0,0l0,0l0.1,0.1l0,0c0,0,0,0,0,0.1l0,0c0,0,0,0,0.1,0.1v0.1c0,0.1,0.1,0.2,0.1,0.2l0,0l0,0l0,0c0.1,0.1,0.1,0.1,0.2,0.2
			c0.1,0.1,0.1,0.2,0.2,0.3c0,0,0,0,0,0.1h-0.1l-0.1,0.1c0,0,0,0.1,0.2,0.1l0,0c0,0,0,0,0,0.1l0,0c0,0.1-0.1,0.1-0.1,0.2l0,0
			c-0.1,0.1-0.1,0.2-0.1,0.3l0,0c0,0.1,0,0.2,0.1,0.2l0.1,0.1c0,0.1,0.1,0.1,0.2,0.2c0,0,0,0,0,0.1c-0.1,0-0.1,0.1-0.1,0.1
			C13.7,14,22.2,14,22.2,14z M16.1,6.9L16.1,6.9L16.1,6.9L16.1,6.9z M12.8,7.9L12.8,7.9L12.8,7.9L12.8,7.9L12.8,7.9z M14.5,11.8
			c-0.2,0-0.3-0.2-0.4-0.3c-0.1-0.1-0.1-0.1-0.2-0.2l0,0c0-0.1,0-0.1,0-0.1l0,0l0,0l0,0c0.1,0,0-0.2,0-0.1l0,0l0,0h-0.1l0,0l0,0V11
			c0-0.1,0-0.3-0.1-0.4c0-0.1-0.1-0.2-0.2-0.2l0,0l0,0c0,0,0-0.1-0.1-0.1h-0.1l0,0l0,0v0.1v0.1c0,0-0.1,0.1-0.1,0.2
			c0,0.1,0,0.2,0.1,0.3c0,0.1,0.1,0.2,0.1,0.2l0,0l0,0l0,0l0,0c0,0-0.1,0-0.1,0.1l0,0c0,0.1,0.1,0.1,0.1,0.1l0,0
			c0,0.1,0,0.1,0.1,0.1l0,0c0,0.2,0,0.4-0.2,0.5c-0.2,0-0.2-0.2-0.3-0.3c0,0,0-0.1-0.1-0.1l0.1,0.1l0.1,0.1l0,0h0.1l0,0l0,0l0,0l0,0
			l0,0l0,0l0,0v-0.1l0,0l-0.1-0.1l0,0l0,0v-0.1l0,0l0,0v-0.1l0,0l0,0c0-0.1,0-0.1-0.1-0.2c0-0.1-0.1-0.1-0.1-0.1l0,0l0,0h-0.1
			c-0.1,0-0.1-0.1-0.1-0.1l0,0c0,0,0-0.1-0.1-0.1l0,0l0,0l0,0l0,0l0,0c-0.1,0-0.1,0.1-0.1,0.1l0,0l0,0c0,0.1,0,0.1,0,0.2
			c0,0,0,0,0-0.1l0,0c0-0.1-0.1-0.2,0-0.3l0,0l0,0v-0.1v-0.1l0,0c0-0.1,0-0.3,0-0.4c0,0,0,0,0-0.1l0,0l0,0l0,0l0,0l0,0V10l0,0l0,0
			l0,0l0,0l0,0l0,0l0,0c0,0,0,0,0-0.1l-0.1-0.1c0,0,0,0,0-0.1c0,0,0-0.1-0.1-0.1c0-0.1-0.1-0.1-0.1-0.2c0-0.1-0.1-0.1-0.1-0.2
			c0,0,0,0,0-0.1V9V8.9l0,0l0,0l0.1-0.1l0,0l0,0l0,0l0,0l0,0l0,0l0,0l0,0l0,0l0,0h0.1h0.1l0,0c0,0,0.1,0,0.1-0.1l0,0h0.1h0.1l0,0
			h0.1c0,0,0,0,0,0.1l0,0l0,0l0,0l0,0l0,0l0,0l0,0l0,0l0,0l0,0l0,0c0.1,0.3,0.2,0.7,0.3,1l0,0c0,0.1,0.1,0.2,0.1,0.3c0,0,0,0,0,0.1
			l0,0l0,0l0,0l0,0l0,0l0,0l0,0l0,0l0,0l0,0l0,0l0,0l0,0l0,0l0,0l0,0l0,0c0.1,0.1,0.2,0.1,0.2,0.2l0,0l0,0l0,0l0,0l0,0l0,0l0,0l0,0
			l0,0l0,0l0,0v0.1c0,0.1,0.1,0.1,0.1,0.2l0,0l0,0c0.1,0.1,0.2,0.1,0.2,0.2l0,0l0,0l0,0l0,0c0,0,0,0,0,0.1l0,0c0,0-0.1,0-0.1-0.1
			l0,0l0,0l-0.1-0.1l0,0l0,0l-0.1-0.1l0,0l0,0c0,0-0.1,0-0.1-0.1h-0.1l0,0c0,0.1,0,0.1,0,0.1l0,0l0,0l0,0l0,0l0,0l0,0
			c0,0.1,0,0.1-0.1,0.1l0,0l0,0l0,0v0.1c0,0.1,0,0.2,0.1,0.2l0,0h0.1l0,0l0,0l0,0c0,0,0.1,0,0.1,0.1l0,0l0,0c0,0,0,0.1,0.1,0.1l0,0
			l0,0l0,0c0,0,0,0,0,0.1l0,0l0,0l0,0l0,0l0,0l0,0l0,0l0,0l0,0l0,0l0,0l0,0l0,0c0.1,0,0.1-0.1,0.1-0.1l0,0l0,0
			c0-0.1,0.1-0.1,0.1-0.2l0,0l0,0l0,0l0,0c0,0.1,0,0.2,0,0.2C14.7,11.5,14.7,11.7,14.5,11.8z M13.5,11.2L13.5,11.2L13.5,11.2
			L13.5,11.2z M13.5,11.6L13.5,11.6L13.5,11.6L13.5,11.6L13.5,11.6z M12.8,10.5L12.8,10.5L12.8,10.5L12.8,10.5L12.8,10.5z
			 M14.5,10.7L14.5,10.7L14.5,10.7L14.5,10.7z M14.2,11.2L14.2,11.2L14.2,11.2L14.2,11.2L14.2,11.2z M14.1,11.1L14.1,11.1L14.1,11.1
			L14.1,11.1z M14,11L14,11L14,11L14,11z M16.5,10.8L16.5,10.8L16.5,10.8L16.5,10.8L16.5,10.8z M17.6,10.4L17.6,10.4
			c-0.1,0-0.1-0.1-0.1-0.1l0,0c0,0-0.1-0.1-0.1-0.2L17.3,10l0,0l0,0c-0.1,0-0.2,0-0.3,0c0,0,0,0-0.1,0.1l0,0l0,0v0.1l0,0l0,0l0,0
			l0,0l0,0l0,0v0.1l0,0l0,0l0,0l0,0l0,0l0,0l0,0l0,0l0,0l0,0l0,0l0,0l0,0l0,0l0,0l0,0l0,0l0,0l0,0l0,0l0,0l0,0l0,0l0,0l0,0l0,0l0,0
			l0,0l0,0l0,0l0,0l0,0l0,0l0,0l0,0l0,0l0,0l0,0l0,0l0,0l0,0l0,0l0,0l0,0l0,0l0,0l0,0c0,0,0,0,0,0.1l0,0l0,0l0,0l0,0l0,0l0,0l0,0
			l0,0l0,0l0,0l0,0l0,0l0,0l0,0l0,0l0,0l0,0l0,0l0,0l0,0l0,0l0,0l0,0l0,0l0,0l0,0l0,0l0,0l0,0l0,0l0,0l0,0l0,0l0,0l0,0l0,0l0,0l0,0
			l0,0l0,0l0,0c0,0,0,0,0,0.1l0,0l0,0l0,0l0,0l0,0l0,0l0,0c0,0,0,0,0,0.1l0,0l0,0l0,0l0,0l0,0l0,0l0,0c0.1,0,0.1,0,0.2,0
			c0,0,0.1,0,0.1-0.1l0,0l0,0c0.1,0,0.1-0.1,0.1-0.1l0.1-0.1l0,0l0.1-0.1c0,0.3,0,0.6-0.2,0.7c-0.3,0.2-0.7,0-0.8-0.3
			c-0.1-0.1-0.1-0.2-0.1-0.2l0.1-0.1c0,0,0,0,0.1-0.1l0,0c0.1,0,0.1-0.2,0-0.1l0,0l0,0l0,0L16.5,10V9.9c0-0.1,0-0.3,0-0.4
			c0-0.1,0-0.2-0.1-0.2l0,0l0,0V9.2h-0.1l0,0l0,0c0,0,0,0-0.1,0.1v0.1c-0.1,0-0.1,0.1-0.1,0.2c0,0.1,0,0.2,0,0.4
			c0,0.1,0,0.2,0.1,0.2c-0.1,0-0.1,0-0.1,0.1l0,0c0,0-0.1,0,0,0c0,0.1,0.1,0.1,0.1,0.1h0.1c0,0.1,0,0.1,0.1,0.1c0,0-0.1,0.1-0.1,0.2
			c-0.1,0.2-0.2,0.4-0.4,0.4c-0.3-0.1-0.4-0.3-0.5-0.6c0,0,0-0.1-0.1-0.1l0,0h0.1l0,0l0,0l0,0c0.1,0.1,0.1,0.1,0.2,0.2l0,0l0,0h0.1
			h0.1l0,0l0,0l0,0l0,0l0,0l0,0l0,0l0,0l0,0l0,0l0,0l0,0l0,0l0,0l0,0l0,0l0,0l0,0l0,0l0,0l0,0l0,0l0,0l0,0l0,0l0,0l0,0l0,0l0,0l0,0
			l0,0l0,0l0,0l0,0l0,0l0,0l0,0l0,0l0,0l0,0l0,0l0,0l0,0l0,0l0,0l0,0l0,0l0,0l0,0l0,0l0,0l0,0l0,0l0,0l0,0l0,0l0,0l0,0l0,0l0,0l0,0
			c0,0,0,0,0-0.1l0,0l0,0l0,0l0,0l0,0l0,0l0,0l0,0l0,0l0,0l0,0l0,0l0,0l0,0l0,0l0,0l0,0l0,0l0,0l0,0l0,0l0,0l0,0l0,0l0,0l0,0l0,0
			l0,0l0,0l0,0l0,0l0,0l0,0l0,0l0,0l0,0l0,0l0,0l0,0l0,0l0,0l0,0l0,0l0,0l0,0l0,0l0,0l0,0l0,0l0,0l0,0l0,0l0,0l0,0l0,0l0,0l0,0l0,0
			c0,0,0,0,0-0.1c0,0,0,0,0-0.1l0,0l0,0l0,0l0,0l-0.1-0.1c-0.1,0-0.1,0.1-0.2,0.1l0,0l0,0c-0.1,0.1-0.1,0.2-0.2,0.3l0,0l0,0l0,0
			c0,0-0.1,0-0.1,0.1c0,0,0,0-0.1,0v-0.1l0,0l0,0c0-0.1,0.1-0.2,0.2-0.3l0,0l0,0v-0.1c0-0.1,0-0.1,0-0.2l0,0c0-0.1,0-0.2,0-0.2V9.7
			l0,0l0,0l0,0c0,0,0,0,0-0.1l0,0l0,0l0,0l0,0c0,0,0,0,0-0.1l0,0l0,0l0,0l-0.1-0.1l0,0c0,0-0.1-0.1-0.1-0.2l0,0
			C15,9.1,15,9,14.9,8.9l0,0c0-0.1-0.1-0.1-0.1-0.2c0-0.1-0.1-0.2-0.1-0.2c0-0.1,0-0.2,0-0.3l0,0l0,0c0,0,0,0,0-0.1l0,0l0,0l0,0l0,0
			l0,0C14.8,8,14.8,8,14.9,7.9c0.1-0.1,0.2-0.1,0.3-0.1l0,0c0.1,0,0.2-0.1,0.3-0.1l0,0c0,0,0,0,0.1,0c0.2,0,0.4-0.1,0.5-0.1
			c0.2,0,0.5,0,0.7,0c0.1,0,0.1,0,0.2,0l0,0l0,0l0,0l0,0c0,0.1,0,0.1,0,0.2l0,0l0,0c0,0.2,0,0.4,0,0.6s0,0.4,0,0.6
			c0,0.1-0.1,0.3-0.1,0.4c0,0.1,0,0.1,0,0.2l0,0l0,0l0,0l0,0l0,0c0,0,0.1,0,0.1,0.1l0,0c0.1,0,0.1,0.1,0.2,0.1l0,0l0,0
			c0,0-0.1,0-0.1,0.1s0,0.1,0.1,0.2l0,0l0,0c0.1,0.1,0.2,0.1,0.2,0.2l0,0l0,0l0,0l0,0C17.7,10.3,17.7,10.3,17.6,10.4
			C17.7,10.4,17.7,10.4,17.6,10.4z M15.8,10.5L15.8,10.5L15.8,10.5L15.8,10.5L15.8,10.5z M23.1,7.9L23.1,7.9L23.1,7.9L23.1,7.9
			L23.1,7.9z M19.7,6.9L19.7,6.9L19.7,6.9L19.7,6.9z M19.4,10.8L19.4,10.8L19.4,10.8L19.4,10.8L19.4,10.8z M21,8.7L21,8.7
			c-0.1,0.1-0.1,0.2-0.2,0.3l0,0c0,0.1-0.1,0.1-0.1,0.2l0,0l-0.1,0.1l0,0l0,0l0,0c0,0,0,0,0,0.1l0,0l0,0l0,0l0,0c0,0,0,0,0,0.1l0,0
			l0,0c0,0,0,0,0,0.1s0.1,0.2,0,0.2l0,0c0,0.1,0,0.1,0,0.2v0.1l0,0l0,0c0,0.1,0.1,0.2,0.2,0.3l0,0l0,0v0.1c0,0,0,0-0.1,0
			c0,0-0.1,0-0.1-0.1l0,0l0,0l0,0c-0.1-0.1-0.1-0.2-0.2-0.3l0,0l0,0c0,0-0.1-0.1-0.2-0.1c0,0-0.1,0-0.1,0.1l0,0l0,0l0,0l0,0
			c0,0,0,0,0,0.1c0,0,0,0,0,0.1l0,0l0,0l0,0l0,0l0,0l0,0l0,0l0,0l0,0l0,0l0,0l0,0l0,0l0,0l0,0l0,0l0,0l0,0l0,0l0,0l0,0l0,0l0,0l0,0
			l0,0l0,0l0,0l0,0l0,0l0,0l0,0l0,0l0,0l0,0l0,0l0,0l0,0l0,0l0,0l0,0l0,0l0,0l0,0l0,0l0,0l0,0l0,0l0,0l0,0l0,0l0,0l0,0l0,0l0,0l0,0
			l0,0c0,0,0,0,0,0.1l0,0l0,0l0,0l0,0l0,0l0,0l0,0l0,0l0,0l0,0l0,0l0,0l0,0l0,0l0,0l0,0l0,0l0,0l0,0l0,0l0,0l0,0l0,0l0,0l0,0l0,0
			l0,0l0,0l0,0l0,0l0,0l0,0l0,0l0,0l0,0l0,0l0,0l0,0l0,0l0,0l0,0l0,0l0,0l0,0l0,0l0,0l0,0l0,0l0,0l0,0l0,0l0,0l0,0l0,0l0,0l0,0l0,0
			l0,0l0,0l0,0l0,0h0.1h0.1l0,0l0,0c0.1-0.1,0.1-0.1,0.2-0.2l0,0l0,0l0,0h0.1l0,0c-0.1,0.3-0.3,0.6-0.5,0.7c-0.2,0-0.3-0.2-0.4-0.4
			c0-0.1-0.1-0.2-0.1-0.2l0,0c0-0.1,0.1-0.1,0.1-0.1l0,0l0,0l0,0c0.1,0,0.1-0.2,0-0.1l0,0l0,0l0,0L19.6,10c0-0.1,0.1-0.1,0.1-0.2
			c0-0.1,0-0.2,0-0.4c0-0.1,0-0.1-0.1-0.2V9.1c0,0,0-0.1-0.1-0.1l0,0l0,0h-0.1v0.1l0,0l0,0c-0.1,0.1-0.1,0.1-0.1,0.2
			c0,0.1,0,0.3,0,0.4v0.1c-0.1,0-0.2,0-0.1,0.1l0,0c0,0.1,0.1,0.1,0.1,0.1s0.1,0,0.1,0.1c0,0,0,0.1,0.1,0.1
			c-0.1,0.3-0.3,0.6-0.7,0.6c-0.3,0-0.5-0.4-0.4-0.7V10c0,0,0.1,0,0.1,0.1l0,0l0.1,0.1c0,0.1,0.1,0.1,0.1,0.1l0,0l0,0
			c0,0,0.1,0,0.1,0.1c0.1,0,0.1,0.1,0.2,0l0,0l0,0l0,0l0,0l0,0l0,0l0,0c0,0,0,0,0-0.1l0,0l0,0l0,0l0,0l0,0l0,0c0,0,0,0,0-0.1l0,0
			l0,0l0,0l0,0l0,0l0,0l0,0l0,0l0,0l0,0l0,0l0,0l0,0l0,0l0,0l0,0l0,0l0,0l0,0l0,0l0,0l0,0l0,0l0,0l0,0l0,0l0,0l0,0l0,0l0,0l0,0l0,0
			l0,0l0,0l0,0l0,0l0,0l0,0l0,0l0,0l0,0l0,0c0,0,0,0,0-0.1l0,0l0,0l0,0l0,0l0,0l0,0l0,0l0,0l0,0l0,0l0,0l0,0l0,0l0,0l0,0l0,0l0,0
			l0,0l0,0l0,0l0,0l0,0l0,0l0,0l0,0l0,0l0,0l0,0l0,0l0,0l0,0l0,0l0,0l0,0l0,0l0,0l0,0l0,0l0,0l0,0l0,0l0,0l0,0l0,0l0,0l0,0V10l0,0
			l0,0l0,0l0,0l0,0l0,0V9.9l0,0l0,0c0,0,0-0.1-0.1-0.1s-0.1,0-0.2,0.1l0,0l0,0c0,0-0.1,0-0.1,0.1s-0.1,0.1-0.1,0.2l0,0l0,0h-0.1
			c0,0,0,0-0.1,0c0,0,0,0-0.1-0.1l0,0c0,0,0-0.1,0.1-0.1l0,0l0,0c0.1-0.1,0.2-0.1,0.2-0.2l0,0l0,0c0,0,0-0.1,0.1-0.1
			c0-0.1,0-0.1,0-0.2l0,0l0,0l0,0c0-0.1,0.1-0.1,0.2-0.2l0,0c0,0,0.1,0,0.1-0.1l0,0c0,0,0,0,0-0.1l0,0l0,0l0,0c0-0.1,0-0.1,0-0.2
			c0-0.1-0.1-0.2-0.1-0.3V8.5c0-0.2,0-0.3,0-0.5V7.9l0,0V7.8l0,0V7.7c0-0.1,0-0.2,0-0.3c0-0.1,0-0.2,0-0.3l0,0l0,0l0,0l0,0
			c0.1,0,0.1,0,0.2,0c0.2,0,0.5,0,0.7,0s0.4,0,0.5,0.1c0,0,0,0,0.1,0l0,0c0.1,0,0.2,0,0.3,0.1l0,0c0.1,0,0.2,0.1,0.3,0.1
			c0.1,0,0.1,0.1,0.2,0.2l0,0l0,0l0,0l0,0l0,0l0,0c0,0,0,0,0,0.1l0,0l0,0c0,0.1,0,0.2,0,0.3c0,0.1-0.1,0.2-0.1,0.2
			C21,8.6,21,8.6,21,8.7z M20.1,10.5L20.1,10.5L20.1,10.5L20.1,10.5L20.1,10.5z M21.9,11.1L21.9,11.1L21.9,11.1L21.9,11.1
			c0,0-0.1,0-0.1,0.1l0,0l0,0l0,0c-0.1,0,0,0.2,0.1,0.1l0,0c0,0.1,0,0.1,0,0.1l-0.1,0.1c-0.1,0.1-0.3,0.3-0.4,0.3
			c-0.2-0.1-0.1-0.3-0.1-0.5c0,0,0-0.1,0-0.2l0,0l0,0l0,0l0,0c0,0.1,0,0.1,0.1,0.2l0,0l0,0l0,0l0.1,0.1l0,0l0,0l0,0l0,0l0,0l0,0l0,0
			l0,0l0,0l0,0l0,0l0,0l0,0c0,0,0,0,0-0.1l0,0l0,0l0,0c0,0,0-0.1,0.1-0.1l0,0l0,0l0,0c0,0,0-0.1,0.1-0.1l0,0l0,0l0,0L21.9,11.1
			L21.9,11.1c0-0.1,0-0.1,0-0.2v-0.1l0,0l0,0l0,0l-0.1-0.1l0,0l0,0l0,0l0,0l0,0v-0.1l0,0h-0.1c0,0-0.1,0-0.1,0.1l0,0l0,0l-0.1,0.1
			l0,0l0,0l-0.1,0.1l0,0l0,0c0,0-0.1,0-0.1,0.1l0,0c0,0,0,0,0-0.1l0,0l0,0l0,0l0,0c0.1-0.1,0.2-0.1,0.2-0.2l0,0l0,0
			c0.1-0.1,0.1-0.1,0.1-0.2v-0.1l0,0l0,0l0,0l0,0l0,0l0,0l0,0l0,0l0,0l0,0l0,0c0.1-0.1,0.1-0.2,0.2-0.2l0,0l0,0l0,0l0,0l0,0l0,0l0,0
			l0,0l0,0l0,0l0,0l0,0l0,0l0,0l0,0l0,0l0,0l0,0c0,0,0,0,0-0.1C22,9.5,22,9.4,22,9.3l0,0c0.1-0.3,0.2-0.7,0.3-1l0,0l0,0l0,0l0,0l0,0
			l0,0l0,0l0,0l0,0l0,0l0,0c0,0,0,0,0-0.1h0.1l0,0h0.1h0.1l0,0c0,0,0.1,0,0.1,0.1l0,0h0.1h0.1l0,0l0,0l0,0l0,0l0,0l0,0l0,0l0,0l0,0
			l0,0L23,8.4l0,0l0,0v0.1v0.1c0,0,0,0,0,0.1s0,0.1-0.1,0.2c0,0.1-0.1,0.1-0.1,0.2c0,0,0,0.1-0.1,0.1c0,0,0,0,0,0.1l-0.1,0.1
			c0,0,0,0,0,0.1l0,0l0,0l0,0l0,0l0,0v0.1l0,0l0,0l0,0l0,0l0,0c0,0,0,0,0,0.1s0,0.3,0,0.4l0,0v0.1c0,0.1,0,0.1,0,0.1l0,0l0,0
			c0,0.1,0,0.2,0,0.3l0,0c0,0,0,0,0,0.1c0-0.1,0-0.1,0-0.2l0,0l0,0c0-0.1,0-0.1-0.1-0.1l0,0l0,0l0,0l0,0l0,0c0,0,0,0.1-0.1,0.1l0,0
			c0,0,0,0.1-0.1,0.1h-0.1l0,0l0,0c-0.1,0-0.1,0.1-0.1,0.1c0,0.1,0,0.1-0.1,0.2l0,0l0,0L21.9,11.1L21.9,11.1L21.9,11.1L21.9,11.1
			L21.9,11.1L21.9,11.1c0.1,0.1,0.1,0.1,0,0.1l0,0v0.1l0,0l0,0l0,0l0,0l0,0l0,0l0,0H22l0,0l0.1-0.1l0.1-0.1
			c-0.1,0.2-0.2,0.3-0.3,0.5c-0.1,0.1-0.2-0.1-0.2-0.2c0-0.1,0-0.2,0-0.2s0.1,0,0.1-0.1C21.8,11.1,21.8,11.1,21.9,11.1L21.9,11.1
			C22,11.1,22,10.9,21.9,11.1L21.9,11.1L21.9,11.1c0-0.1,0-0.1-0.1-0.2l0,0l0,0l0,0l0,0c0.1-0.1,0.1-0.1,0.1-0.2
			c0.1-0.1,0.1-0.2,0.1-0.3s0-0.1-0.1-0.2v-0.1V10l0,0l0,0h-0.1l-0.1,0.1l0,0l0,0c-0.1,0-0.1,0.1-0.2,0.2c0,0.1-0.1,0.3-0.1,0.4
			C21.9,11,21.9,11,21.9,11.1z M21.3,10.7L21.3,10.7L21.3,10.7L21.3,10.7z M21.6,11.2L21.6,11.2L21.6,11.2L21.6,11.2L21.6,11.2z
			 M21.7,11.1L21.7,11.1L21.7,11.1L21.7,11.1z M21.8,11L21.8,11L21.8,11L21.8,11z M23,10.5L23,10.5L23,10.5L23,10.5L23,10.5z
			 M22.3,11.6L22.3,11.6L22.3,11.6L22.3,11.6L22.3,11.6z"/>
	</g>
</g>
</svg>
