<?xml version="1.0" encoding="utf-8"?>
<!-- Generator: Adobe Illustrator 20.0.0, SVG Export Plug-In . SVG Version: 6.00 Build 0)  -->
<svg version="1.1" id="Layer_1" xmlns="http://www.w3.org/2000/svg" xmlns:xlink="http://www.w3.org/1999/xlink" x="0px" y="0px"
	 viewBox="0 0 64 42" style="enable-background:new 0 0 64 42;" xml:space="preserve">
<style type="text/css">
	.st0{fill:#FFFFFF;}
	.st1{fill:#FC0C00;}
	.st2{fill:#002EE6;}
	.st3{fill:#F2C330;}
</style>
<path id="Rounded_Rectangle_7_copy_1_" class="st0" d="M5.8,0h52.3C61.4,0,64,2.6,64,5.7v30.6c0,3.2-2.6,5.7-5.8,5.7H5.8
	C2.6,42,0,39.4,0,36.3V5.7C0,2.6,2.6,0,5.8,0z"/>
<path class="st1" d="M0,36.3C0,39.4,2.6,42,5.8,42h52.4c3.2,0,5.8-2.5,5.8-5.7V14H0V36.3z"/>
<rect y="14" class="st2" width="64" height="14"/>
<g transform="translate(2.2238 1) scale(.12937)">
	<path class="st2" d="M171,108.8l3.5-52c-27.5-13-59.4-13-86.9,0l3.5,52c1.6,23.4,17.5,43.3,39.9,50.1
		C153.5,152.2,169.4,132.2,171,108.8"/>
	<g>
		<path class="st0" d="M114.8,125.3L114.8,125.3c3.4-1.9,7.5-1.9,10.9,0s7.5,1.9,10.9,0s7.5-1.9,10.9,0c5.1,2.9,11.5,1.3,14.6-3.7
			c0.7-1.9,1.2-3.8,1.7-5.7l-16.3-21.7l-6.5,8.7l-9.8-19.5l-9.8,19.5l-6.5-8.7l-16.3,21.7c0.4,2,1,3.9,1.7,5.7
			C103.2,126.5,109.7,128.2,114.8,125.3z"/>
		<path class="st0" d="M147.4,134.7L147.4,134.7c-3.4-1.9-7.5-1.9-10.9,0s-7.5,1.9-10.9,0s-7.5-1.9-10.9,0c-2.1,1.2-4.4,1.6-6.6,1.4
			c5.8,7.4,13.7,13.1,22.9,16.3c9.2-3.2,17-8.9,22.9-16.3C151.7,136.3,149.4,135.9,147.4,134.7z"/>
		<path class="st0" d="M147.4,128.4L147.4,128.4c-3.4-1.9-7.5-1.9-10.9,0s-7.5,1.9-10.9,0s-7.5-1.9-10.9,0
			c-3.9,2.3-8.7,1.8-12.1-0.8c0.8,1.6,1.7,3.1,2.7,4.6c3,1.2,6.4,1.1,9.4-0.7l0,0c3.4-1.9,7.5-1.9,10.9,0s7.5,1.9,10.9,0
			s7.5-1.9,10.9,0c3,1.7,6.4,1.8,9.4,0.7c1-1.5,1.9-3,2.7-4.6C156.1,130.2,151.3,130.7,147.4,128.4z"/>
	</g>
	<g>
		<polygon class="st3" points="131.9,71 131.1,68.4 130.3,71 127.5,70.4 129.4,72.4 127.5,74.5 130.3,73.8 131.1,76.5 131.9,73.8 
			134.6,74.5 132.7,72.4 134.6,70.4 		"/>
		<polygon class="st3" points="119.7,54.7 118.8,52.1 118,54.7 115.3,54.1 117.2,56.1 115.3,58.2 118,57.6 118.8,60.2 119.7,57.6 
			122.4,58.2 120.5,56.1 122.4,54.1 		"/>
		<polygon class="st3" points="146.8,54.1 144.1,54.7 143.3,52.1 142.5,54.7 139.8,54.1 141.7,56.1 139.8,58.2 142.5,57.6 
			143.3,60.2 144.1,57.6 146.8,58.2 144.9,56.1 		"/>
	</g>
	<path class="st1" d="M90.7,55.4l3.6,53.2c1.5,21.7,16,40.4,36.8,47c20.7-6.7,35.3-25.3,36.8-47l3.6-53.2c1,0.5,2,0.9,3,1.4l-3.5,52
		c-1.6,23.4-17.5,43.3-39.9,50.1c-22.4-6.8-38.3-26.7-39.9-50.1l-3.5-52C88.7,56.3,89.7,55.9,90.7,55.4"/>
</g>
</svg>
