<?xml version="1.0" encoding="utf-8"?>
<!-- Generator: Adobe Illustrator 20.0.0, SVG Export Plug-In . SVG Version: 6.00 Build 0)  -->
<svg version="1.1" id="Layer_1" xmlns="http://www.w3.org/2000/svg" xmlns:xlink="http://www.w3.org/1999/xlink" x="0px" y="0px"
	 viewBox="0 0 64 42" style="enable-background:new 0 0 64 42;" xml:space="preserve">
<style type="text/css">
	.st0{fill:#FFFFFF;}
	.st1{fill:#CC1126;}
	.st2{fill:#0038A8;}
	.st3{clip-path:url(#SVGID_2_);}
</style>
<path id="Rounded_Rectangle_7_copy_1_" class="st0" d="M5.8,0h52.3C61.4,0,64,2.6,64,5.7v30.6c0,3.2-2.6,5.7-5.8,5.7H5.8
	C2.6,42,0,39.4,0,36.3V5.7C0,2.6,2.6,0,5.8,0z"/>
<path class="st1" d="M0,36.3C0,39.4,2.6,42,5.8,42h52.4c3.2,0,5.8-2.5,5.8-5.7V14H0V36.3z"/>
<rect y="14" class="st2" width="64" height="14"/>
<g>
	<g>
		<path class="st1" d="M19.9,33.5c-6.6-3.2-9.9-7.8-9.9-13.7c0-6.4,0.2-10.1,0.3-11.3h19.1c0.1,1.2,0.3,4.9,0.3,11.3
			C29.8,25.6,26.4,30.2,19.9,33.5z"/>
		<path class="st0" d="M29,9c0.1,1.5,0.3,5.1,0.3,10.8c0,5.6-3.2,10-9.4,13.1c-6.2-3.1-9.4-7.6-9.4-13.1c0-5.7,0.2-9.3,0.3-10.8h9.1
			L29,9 M29.9,8h-10h-10c0,0-0.4,3.7-0.4,11.8S15.6,32,19.9,34.1c4.3-2.1,10.4-6.2,10.4-14.3S29.9,8,29.9,8L29.9,8z"/>
	</g>
	<path class="st0" d="M25.7,17.3c-1.8,0.6-3.9,0.6-5,0.6v-2.6c1,0,2.4,0,3.9,0.6c0,0,0-0.7,0-1.4c0-0.8,0-1.4,0-1.4
		c-1.6,0.5-3,0.6-3.9,0.6c0-1.6,0.5-3.7,0.5-3.7s-1,0.1-1.4,0.1S18.4,10,18.4,10s0.6,2,0.6,3.6c-1,0-2.4,0-3.9-0.6c0,0,0,0.7,0,1.4
		c0,0.8,0,1.4,0,1.4c1.6-0.5,3-0.6,3.9-0.6v2.6c-1.1,0-3.1,0.1-5-0.6c0,0,0,0.7,0,1.4c0,0.8,0,1.4,0,1.4c1.7-0.6,3.8-0.6,5-0.6v4.1
		l0,0l0,0h1.7l0,0l0,0v-4.1c1.2,0,3.3,0,5,0.6c0,0,0-0.7,0-1.4C25.6,18,25.7,17.3,25.7,17.3z"/>
	<g>
		<g>
			<defs>
				<path id="SVGID_1_" d="M19.9,33.2c-3.8-1.9-9.2-5.7-9.2-13.2S11,9.1,11,9.1h8.8h8.8c0,0,0.3,3.4,0.3,10.9
					C29,27.5,23.6,31.3,19.9,33.2z"/>
			</defs>
			<clipPath id="SVGID_2_">
				<use xlink:href="#SVGID_1_"  style="overflow:visible;"/>
			</clipPath>
			<g class="st3">
				<path class="st2" d="M19.7,35.6l-7.8-7.3c0,0,1-3.4,3-3.4c1.6,0,2.1,1.3,2.1,1.3s1-2.8,2.9-2.8s2.9,2.8,2.9,2.8s0.6-1.3,2.1-1.3
					c2,0,3,3.4,3,3.4L19.7,35.6L19.7,35.6z"/>
			</g>
		</g>
	</g>
</g>
</svg>
