<?xml version="1.0" encoding="utf-8"?>
<!-- Generator: Adobe Illustrator 20.0.0, SVG Export Plug-In . SVG Version: 6.00 Build 0)  -->
<svg version="1.1" id="Layer_1" xmlns="http://www.w3.org/2000/svg" xmlns:xlink="http://www.w3.org/1999/xlink" x="0px" y="0px"
	 viewBox="0 0 64 42" style="enable-background:new 0 0 64 42;" xml:space="preserve">
<style type="text/css">
	.st0{fill:#FFFFFF;}
	.st1{fill:#FFE000;}
	.st2{fill:#C0C0C0;}
	.st3{fill:#C80035;stroke:#000000;stroke-width:0.1;}
	.st4{fill:#FFFFFF;stroke:#000000;stroke-width:0.1;stroke-linecap:round;stroke-linejoin:round;}
	.st5{fill:#FFBD03;stroke:#000000;stroke-width:0.1;stroke-linecap:round;stroke-linejoin:round;}
	.st6{fill:#FFBD03;stroke:#000000;stroke-width:0.1;}
	.st7{fill:#BB0D0D;stroke:#000000;stroke-width:0.1;}
	.st8{fill:none;stroke:#000000;stroke-width:0.1;stroke-linecap:round;stroke-linejoin:round;}
	.st9{fill:#BB0D0D;stroke:#000000;stroke-width:0.1;stroke-linecap:round;stroke-linejoin:round;}
	.st10{fill:#FFBD03;stroke:#000000;stroke-width:0.1;stroke-miterlimit:2;}
	.st11{fill:#C0C0C0;stroke:#000000;stroke-width:0.1;}
	.st12{fill:#BFBFBF;stroke:#000000;stroke-width:0.1;stroke-miterlimit:2;}
	.st13{fill:#BFBFBF;stroke:#000000;stroke-width:0.1;}
	.st14{fill:#D72B2B;stroke:#000000;stroke-width:0.1;stroke-miterlimit:2;}
	.st15{fill:#A5A5A5;stroke:#000000;stroke-width:0.1;stroke-miterlimit:2;}
	.st16{opacity:0.8;fill:#BFBFBF;stroke:#000000;stroke-width:0.1;stroke-miterlimit:2;enable-background:new    ;}
	.st17{fill:none;stroke:#000000;stroke-width:0.1;}
	.st18{fill:#C0C0C0;stroke:#000000;stroke-width:0.1;stroke-miterlimit:2;}
	.st19{opacity:0.8;fill:url(#path3561_1_);enable-background:new    ;}
	.st20{fill:#D8A002;stroke:#000000;stroke-width:0.1;stroke-miterlimit:2;}
	.st21{opacity:0.8;fill:#FFBD03;stroke:#000000;stroke-width:0.1;stroke-miterlimit:2;enable-background:new    ;}
	.st22{fill:#FFFFFF;stroke:#000000;stroke-width:0.1;}
	.st23{fill:#FFBD03;stroke:#000000;stroke-width:0.1;stroke-linejoin:round;}
	.st24{fill:none;stroke:#000000;stroke-width:0.1;stroke-linejoin:round;}
	.st25{fill:#CE1126;stroke:#000000;stroke-width:0.1;stroke-linejoin:round;}
	.st26{fill:#CE1126;stroke:#000000;stroke-width:0.1;stroke-linecap:round;}
	.st27{fill:#058E6E;stroke:#000000;stroke-width:0.1;stroke-linecap:round;}
	.st28{fill:url(#path30567_1_);stroke:#000000;stroke-width:0.1;stroke-linecap:round;}
	.st29{fill:url(#path30569_1_);stroke:#000000;stroke-width:0.1;stroke-linecap:round;}
	.st30{fill:url(#path30571_1_);stroke:#000000;stroke-width:0.1;stroke-linecap:round;}
	.st31{fill:url(#path30573_1_);stroke:#000000;stroke-width:0.1;stroke-linecap:round;}
	.st32{fill:#058E6E;stroke:#000000;stroke-width:0.1;stroke-linejoin:round;}
	.st33{fill:url(#path3261_1_);stroke:#000000;stroke-width:0.1;stroke-linecap:round;}
	.st34{fill:url(#path3263_1_);stroke:#000000;stroke-width:0.1;stroke-linecap:round;}
	.st35{fill:url(#path30393_1_);stroke:#000000;stroke-width:0.1;stroke-linecap:round;}
	.st36{fill:url(#path30395_1_);stroke:#000000;stroke-width:0.1;stroke-linecap:round;}
	.st37{fill:url(#path30397_1_);stroke:#000000;stroke-width:0.1;stroke-linecap:round;}
	.st38{fill:url(#path30399_1_);stroke:#000000;stroke-width:0.1;stroke-linecap:round;}
	.st39{fill:url(#path3265_1_);stroke:#000000;stroke-width:0.1;stroke-linecap:round;}
	.st40{fill:url(#path3259_1_);stroke:#000000;stroke-width:0.1;stroke-linecap:round;}
</style>
<path id="Rounded_Rectangle_7_copy" class="st0" d="M5.8,0h52.3C61.4,0,64,2.6,64,5.7v30.6c0,3.2-2.6,5.7-5.8,5.7H5.8
	C2.6,42,0,39.4,0,36.3V5.7C0,2.6,2.6,0,5.8,0z"/>
<path class="st1" d="M32,0H5.8C2.6,0,0,2.6,0,5.7v30.7c0,3.1,2.6,5.7,5.8,5.6H32V0z"/>
<path class="st1" d="M64,5.3v31.4c0-0.1,0-0.3,0-0.4V5.7C64,5.6,64,5.5,64,5.3z"/>
<path id="rect1788" class="st2" d="M47.8,20.7L47.8,20.7L47.8,20.7z"/>
<path id="rect4458" class="st2" d="M47.7,23.5L47.7,23.5L47.7,23.5z"/>
<path id="path7630" class="st3" d="M50,18c0,0.2-1,0.4-2.3,0.4s-2.3-0.2-2.3-0.4s1-0.4,2.3-0.4S50,17.8,50,18z"/>
<path id="path4734" class="st4" d="M47.5,17.7l-0.9-0.9c-0.5,2-2,3.4-2.6,2.9l0.9,0.9C45.5,21.2,46.9,19.7,47.5,17.7z"/>
<path id="path4898" class="st5" d="M47.3,17.6c-0.5,2-2,3.4-2.6,2.9l0.1,0.1C45.5,21.2,46.9,19.7,47.3,17.6
	C47.5,17.7,47.4,17.7,47.3,17.6z"/>
<path id="path4911" class="st5" d="M46.5,16.8c-0.5,2-2,3.4-2.6,2.9l0.1,0.1C44.7,20.3,46.1,18.9,46.5,16.8L46.5,16.8L46.5,16.8z"/>
<path id="path5897" class="st6" d="M46.7,17.9c-0.1,0.1-0.1,0.3-0.2,0.4l-0.2-0.2c-0.1,0.1-0.1,0.3-0.2,0.4l0.3,0.1
	c-0.1,0.2-0.3,0.4-0.5,0.6l0.3,0.2c0.1-0.2,0.3-0.5,0.4-0.7l0.2,0.2c0.1-0.1,0.1-0.3,0.2-0.4l-0.3-0.1c0.1-0.1,0.2-0.3,0.3-0.4
	L46.7,17.9z"/>
<path id="path5230" class="st4" d="M47.9,17.7l0.9-0.9c0.5,2,2,3.4,2.6,2.9l-0.9,0.9C49.8,21.2,48.4,19.7,47.9,17.7z"/>
<path id="path5232" class="st5" d="M48.8,16.8c0.5,2,2,3.4,2.6,2.9l-0.1,0.1C50.6,20.3,49.2,18.9,48.8,16.8L48.8,16.8L48.8,16.8z"/>
<path id="path10983" class="st7" d="M47.9,32.5c-0.1,0-0.4,0-0.5,0.4s0.1,1.1,0.1,1.1s0.1,0.2,0.4,0.2s0.4-0.2,0.4-0.2
	s0.2-0.7,0.1-1.1S48,32.5,47.9,32.5z"/>
<path id="path10985" class="st8" d="M47.9,34.1v-1"/>
<path id="path10987" class="st8" d="M47.8,34.1c0-0.3,0-0.6,0-1"/>
<path id="path10989" class="st8" d="M47.7,34.1c0-0.3-0.1-0.7,0-1"/>
<path id="path10991" class="st8" d="M47.6,34.1c0-0.3-0.1-0.7,0-1"/>
<path id="path10993" class="st8" d="M47.6,34c0-0.3-0.1-0.7,0-1"/>
<path id="path10995" class="st8" d="M48,34.1c0-0.3,0-0.6,0-1"/>
<path id="path10997" class="st8" d="M48.1,34.1c0-0.3,0.1-0.7,0-1"/>
<path id="path10999" class="st8" d="M48.2,34.1c0-0.3,0.1-0.7,0-1"/>
<path id="path11001" class="st8" d="M48.3,34c0-0.3,0.1-0.7,0-1"/>
<path id="path11003" class="st9" d="M48.3,32.5c0,0.2-0.2,0.4-0.4,0.4c-0.2,0-0.4-0.2-0.4-0.4s0.2-0.4,0.4-0.4
	C48.1,32.1,48.3,32.3,48.3,32.5z"/>
<path id="path11005" class="st9" d="M47.7,22.7c0,0.9,0,9.6,0,9.6c0,0.1,0,0.2,0.1,0.2s0.2,0,0.2,0c0.1,0,0.1-0.1,0.1-0.2
	c0,0,0-9.2,0-9.9C48.2,22.3,47.7,22.7,47.7,22.7z"/>
<path id="path4314" class="st7" d="M47.6,32.7c-0.1,0-0.4,0-0.5,0.4s0.1,1.1,0.1,1.1s0.1,0.2,0.4,0.2s0.4-0.2,0.4-0.2
	s0.2-0.7,0.1-1.1S47.7,32.7,47.6,32.7z"/>
<path id="path4316" class="st8" d="M47.6,34.3v-1"/>
<path id="path4318" class="st8" d="M47.5,34.3c0-0.3,0-0.6,0-1"/>
<path id="path4320" class="st8" d="M47.4,34.3c0-0.3-0.1-0.7,0-1"/>
<path id="path4322" class="st8" d="M47.3,34.3c0-0.3-0.1-0.7,0-1"/>
<path id="path4324" class="st8" d="M47.2,34.2c0-0.3-0.1-0.7,0-1"/>
<path id="path4326" class="st8" d="M47.7,34.3c0-0.3,0-0.6,0-1"/>
<path id="path4328" class="st8" d="M47.8,34.3c0-0.3,0.1-0.7,0-1"/>
<path id="path4330" class="st8" d="M47.9,34.3c0-0.3,0.1-0.7,0-1"/>
<path id="path4332" class="st8" d="M48,34.2c0-0.3,0.1-0.7,0-1"/>
<path id="path11257" class="st9" d="M48,32.7c0,0.2-0.2,0.4-0.4,0.4c-0.2,0-0.4-0.2-0.4-0.4s0.2-0.4,0.4-0.4S48,32.5,48,32.7z"/>
<path id="path7626" class="st9" d="M47.4,22.5v10c0,0.1,0,0.2,0.1,0.2s0.2,0,0.2,0c0.1,0,0.1-0.1,0.1-0.2V22.1
	C47.8,22.1,47.4,22.5,47.4,22.5z"/>
<path id="path10973" class="st7" d="M47.9,22.3c0,1.4,0.4,3.3,1.1,4.7c0.3,0.7,0.7,1.3,1.1,1.6c0.4,0.3,0.8,0.4,1.2,0.2
	c0.3-0.1,0.5-0.2,0.7-0.1c0,0-0.3,0.2,0,0.5l0,0l0,0c-0.1,0-0.2,0-0.5,0.1c-0.6,0.2-1.2,0.1-1.7-0.3s-0.9-1-1.3-1.8
	c-0.7-1.5-1.1-3.4-1.1-4.9L47.9,22.3L47.9,22.3z"/>
<path id="path10971" class="st7" d="M47.5,22.3c0,1.4-0.4,3.3-1.1,4.7c-0.3,0.7-0.7,1.3-1.1,1.6c-0.4,0.3-0.8,0.4-1.2,0.2
	c-0.3-0.1-0.5-0.2-0.7-0.1c0,0,0.3,0.2,0,0.5l0,0l0,0c0.1,0,0.2,0,0.5,0.1c0.6,0.2,1.2,0.1,1.7-0.3s0.9-1,1.3-1.8
	c0.7-1.5,1.1-3.4,1.1-4.9L47.5,22.3L47.5,22.3z"/>
<path id="path16019" class="st10" d="M39.3,13.7c0,0.2,0.2,0.4,0.4,0.4c0.2,0,0.4-0.2,0.4-0.4s-0.2-0.4-0.4-0.4S39.3,13.5,39.3,13.7
	L39.3,13.7z"/>
<path id="path4402" class="st11" d="M40.1,13.8l0.4,0.4l-0.3,0.3l-0.4-0.4C39.6,13.9,39.9,13.6,40.1,13.8z"/>
<path id="path4406" class="st11" d="M40.7,14.1l0.4,0.4l3.9,4l-0.6,0.6l-3.9-4l-0.4-0.4C40.1,14.4,40.4,14.1,40.7,14.1z M45.2,18.7
	l2.6,2.6l-0.6,0.6l-2.6-2.6C44.7,19.1,45,18.8,45.2,18.7z"/>
<path id="path4430" class="st6" d="M41.1,14.5l0.4,0.4c0.3,0.3,1.3,1.6,1.3,1.6s1.3,1.1,1.6,1.4l0.4,0.4c-0.3-0.3-2.1-1.5-2.1-1.5
	s1.1,1.7,1.5,2.1l-0.4-0.4c-0.3-0.3-1.3-1.7-1.3-1.7s-1.1-0.9-1.4-1.2L40.5,15c0.3,0.3,2,1.5,2,1.5S41.4,14.8,41.1,14.5z"/>
<path id="path4524" class="st12" d="M41.8,19.2L41.8,19.2v-0.5l-0.3,0.2L41.8,19.2z"/>
<path id="path4251" class="st13" d="M52.6,24.3c1.7,0,3.1,1.4,3.1,3.1s-1.4,3.1-3.1,3.1s-3.1-1.4-3.1-3.1S50.9,24.3,52.6,24.3z
	 M53,25.1c-0.1,0-0.2,0.1-0.2,0.2s-0.1,0.2-0.2,0.2s-0.2-0.1-0.2-0.2s-0.1-0.2-0.2-0.2l0,0c-0.9,0.2-1.7,0.9-1.9,1.9l0,0l0,0h0.4
	v0.4c0,0.1-0.1,0.2-0.2,0.2s-0.2,0.1-0.2,0.2l0,0l0,0c0.2,1,0.9,1.7,1.9,1.9l0,0c0.1,0,0.2-0.1,0.2-0.2s0.1-0.2,0.2-0.2
	s0.2,0.1,0.2,0.2s0.1,0.2,0.2,0.2l0,0c0.9-0.2,1.7-0.9,1.9-1.9l0,0l0,0c0-0.1-0.1-0.2-0.2-0.2s-0.2-0.1-0.2-0.2s0-0.4,0-0.4l0.4,0.1
	l0,0l0,0C54.7,26.1,54,25.3,53,25.1L53,25.1z"/>
<path id="path4889" class="st14" d="M54.9,24.5c0,0.2,0.2,0.4,0.4,0.4s0.4-0.2,0.4-0.4s-0.2-0.4-0.4-0.4S54.9,24.3,54.9,24.5
	L54.9,24.5z"/>
<path id="path4418" class="st13" d="M46.8,20l-0.9,0.9c-0.2,0-0.3-0.1-0.3-0.3c0,0,0-0.3,0.3-0.6c0.3-0.3,0.6-0.3,0.6-0.3
	C46.7,19.8,46.8,19.9,46.8,20z"/>
<path id="path4420" class="st13" d="M46.8,20l0.6,0.9l-0.6,0.6l-0.9-0.6c0,0,0-0.3,0.3-0.6S46.8,20,46.8,20z"/>
<path id="path4422" class="st12" d="M47.3,21c-0.2-0.2-0.6-0.6-1-0.7c0.1,0.4,0.5,0.8,0.7,1L47.3,21z"/>
<path id="path4424" class="st13" d="M46.8,21.5L46.8,21.5c0.1-0.1-0.1-0.3-0.2-0.4c-0.3-0.3-0.7-0.1-0.7-0.1L46.8,21.5z"/>
<path id="path4426" class="st13" d="M47.4,20.9L47.4,20.9c-0.1,0.1-0.3-0.1-0.4-0.2c-0.3-0.3-0.1-0.7-0.1-0.7L47.4,20.9z"/>
<path id="path4428" class="st13" d="M47.4,20.9c1,1,2.2,1.6,2.9,2.3c0.6,0.6,0.2,1,0,1.2c-0.2,0.1-0.6,0.6-1.2,0
	c-0.7-0.7-1.3-1.9-2.3-2.9C46.8,21.2,47.1,20.9,47.4,20.9z"/>
<polygon id="rect4432" class="st13" points="50.9,24 50.6,23.6 49.5,24.7 49.8,25.1 "/>
<polygon id="rect4442" class="st6" points="51.3,24.3 50.9,23.9 49.7,25.1 50,25.5 "/>
<path id="path4456" class="st6" d="M54.4,24.5c0.2,0.1,0.3,0.3,0.5,0.4c0.1,0.2,0.3,0.3,0.4,0.5l0.2-0.1c-0.1-0.2-0.2-0.4-0.4-0.5
	s-0.3-0.3-0.5-0.4C54.5,24.3,54.4,24.5,54.4,24.5z"/>
<path id="path4478" class="st12" d="M40.9,15.1l-0.5,0.5l0.5,0.5l-0.2,0.2l-0.5-0.5l-0.9,0.9l0.5,0.5l-0.2,0.2l-0.5-0.5l-0.5,0.5
	l1.4,1.4l0.9-0.9l-0.5-0.5l-0.2,0.2L40,17.4l0.9-0.9l0.2,0.2l-0.2,0.2l0.5,0.5l0.5-0.5l-0.2-0.2l0.2-0.2l0.9,0.9l-0.2,0.2l-0.2-0.2
	l-0.5,0.5l0.5,0.5l0.2-0.2l0.2,0.2l-0.9,0.9l-0.2-0.2l0.2-0.2l-0.5-0.5l-0.9,0.9l1.4,1.4l0.5-0.5l-0.5-0.5l0.2-0.2l0.5,0.5l0.9-0.9
	L43,18.6l0.2-0.2l0.5,0.5l0.5-0.5C44.2,18.3,40.9,15.1,40.9,15.1z"/>
<path id="path4480" class="st13" d="M42.3,20.2v0.5l-1.2,1.2V21l0.2-0.2h0.5C41.8,20.6,42.3,20.2,42.3,20.2z"/>
<path id="path4482" class="st12" d="M43.5,19l-0.9,0.9v0.5l0.9-0.9V19z"/>
<path id="path4484" class="st12" d="M42.5,20.4L42,19.9v-0.5l0.5,0.5V20.4z"/>
<path id="path4486" class="st12" d="M43.7,19.2l-0.5-0.5v-0.5l0.5,0.5C43.7,18.8,43.7,19.2,43.7,19.2z"/>
<path id="path4488" class="st12" d="M43.2,18.3v0.5L43,18.6C43,18.5,43.2,18.3,43.2,18.3z"/>
<path id="path4490" class="st12" d="M42.1,19.5V20l-0.2-0.2L42.1,19.5z"/>
<path id="path4492" class="st15" d="M44.2,18.3l-0.5,0.5v0.5l0.5-0.5V18.3z"/>
<path id="path4494" class="st12" d="M41.4,17.9l-0.5-0.5v-0.5l0.5,0.5V17.9z"/>
<path id="path4496" class="st12" d="M42.3,18.8l-0.5-0.5v-0.5l0.5,0.5V18.8z"/>
<path id="path4498" class="st12" d="M42.5,17.6l-0.7-0.7v-0.5l0.9,0.9C42.8,17.4,42.5,17.6,42.5,17.6z"/>
<path id="path4500" class="st12" d="M41.8,16.5V17l-0.2-0.2L41.8,16.5z"/>
<path id="path4502" class="st12" d="M41.4,17.9l0.5-0.5v-0.5l-0.5,0.5V17.9z"/>
<path id="path4504" class="st12" d="M40.2,17.6l0.7-0.7v-0.5L40,17.3C40,17.4,40.2,17.6,40.2,17.6z"/>
<path id="path4506" class="st12" d="M40.9,17.9L40,18.8h-0.5L39.3,19v0.9l1.6-1.6V17.9z"/>
<path id="path4508" class="st12" d="M41.8,20.6l-1.4-1.4h-0.5l1.4,1.4H41.8z"/>
<path id="path4510" class="st12" d="M41.1,20.9l-1.4-1.4l0.2-0.2l1.4,1.4L41.1,20.9z"/>
<path id="path4512" class="st12" d="M41.1,20.9v0.9l-1.4-1.4v-0.9C39.7,19.5,41.1,20.9,41.1,20.9z"/>
<path id="path4514" class="st12" d="M40,18.8l-1.4-1.4h-0.5l1.4,1.4H40z"/>
<path id="path4516" class="st12" d="M39.3,19l-1.4-1.4l0.2-0.2l1.4,1.4C39.5,18.8,39.3,19,39.3,19z"/>
<path id="path4518" class="st12" d="M39.3,19v0.9l-1.4-1.4v-0.9L39.3,19z"/>
<path id="path4520" class="st12" d="M39.5,17.4l-0.2-0.2v-0.5l0.5,0.5L39.5,17.4z"/>
<path id="path4522" class="st12" d="M40.7,16.2L40.5,16v-0.5L41,16L40.7,16.2z"/>
<path id="path4526" class="st12" d="M42.3,18.8l0.5-0.5l-0.2-0.2l-0.2,0.2v0.5H42.3z"/>
<path id="path4528" class="st12" d="M40.9,16.9l0.2-0.2l-0.2-0.2V16.9z"/>
<path id="path5138" class="st6" d="M55.1,28.8l0.2,0.1v0.4c-0.1,0.2-0.3,0.3-0.4,0.5c-0.2,0.2-0.3,0.3-0.5,0.4l-0.1-0.1v-0.4
	C54.6,29.4,54.9,29.1,55.1,28.8z"/>
<path id="path4468" class="st6" d="M54.4,29.7c0.2-0.1,0.3-0.2,0.5-0.4c0.2-0.1,0.4-0.4,0.5-0.5"/>
<path id="path5145" class="st6" d="M54.3,29.6L54.3,29.6l0.1,0.5"/>
<path id="path2399" class="st14" d="M54.7,29.8c0,0.2,0.2,0.4,0.4,0.4c0.2,0,0.4-0.2,0.4-0.4s-0.2-0.4-0.4-0.4S54.7,29.6,54.7,29.8
	L54.7,29.8z"/>
<path id="rect17303" class="st16" d="M42.5,18.1v0.5l-0.2,0.2v-0.5L42.5,18.1z"/>
<path id="path5234" class="st5" d="M48,17.6c0.5,2,2,3.4,2.6,2.9l-0.1,0.1C49.8,21.2,48.4,19.7,48,17.6C47.9,17.7,48,17.7,48,17.6z"
	/>
<path id="path5906" class="st6" d="M48.7,17.9c0.1,0.1,0.1,0.3,0.2,0.4l0.2-0.2c0.1,0.1,0.1,0.3,0.2,0.4L49,18.6
	c0.1,0.2,0.3,0.4,0.5,0.6l-0.3,0.2c-0.1-0.2-0.3-0.5-0.4-0.7l-0.2,0.2c-0.1-0.1-0.1-0.3-0.2-0.4l0.3-0.1c-0.1-0.1-0.2-0.3-0.3-0.4
	L48.7,17.9z"/>
<path id="path2425" class="st13" d="M52.6,23.9c1.7,0,3.1,1.4,3.1,3.1s-1.4,3.1-3.1,3.1s-3.1-1.4-3.1-3.1S50.9,23.9,52.6,23.9z
	 M53,24.7c-0.1,0-0.2,0.1-0.2,0.2s-0.1,0.2-0.2,0.2s-0.2-0.1-0.2-0.2s-0.1-0.2-0.2-0.2l0,0c-0.9,0.2-1.7,0.9-1.9,1.9l0,0l0,0
	c0,0.1,0.1,0.2,0.2,0.2s0.2,0.1,0.2,0.2s-0.1,0.2-0.2,0.2s-0.2,0.1-0.2,0.2l0,0l0,0c0.2,1,0.9,1.7,1.9,1.9l0,0
	c0.1,0,0.2-0.1,0.2-0.2s0.1-0.2,0.2-0.2s0.2,0.1,0.2,0.2s0.1,0.2,0.2,0.2l0,0c0.9-0.2,1.7-0.9,1.9-1.9l0,0l0,0
	c0-0.1-0.1-0.2-0.2-0.2s-0.2-0.1-0.2-0.2s0.1-0.2,0.2-0.2s0.2-0.1,0.2-0.2l0,0l0,0C54.7,25.6,54,24.9,53,24.7L53,24.7z"/>
<path id="path21835" class="st13" d="M52.7,24.2c1.4,0,2.7,1.3,2.7,2.7c0,1.2-0.8,2.3-1.9,2.6c-1,0.3-2.2,0-2.9-0.8
	c-0.7-0.8-0.9-2-0.4-3C50.6,24.8,51.6,24.2,52.7,24.2L52.7,24.2z M52.3,24.4c-1.2,0.1-2.2,1.2-2.2,2.4c0,0.1,0.1,0.2,0.2,0.3
	c-0.2,0.2-0.2,0.6-0.1,0.9c0.3,1,1.2,1.7,2.3,1.8c0.1,0,0.2-0.1,0.3-0.1c0.2,0.2,0.6,0.2,0.9,0c1-0.3,1.7-1.2,1.7-2.3
	c0-0.1-0.1-0.2-0.1-0.2c0.2-0.2,0.2-0.6,0.1-0.9c-0.3-0.9-1.2-1.7-2.2-1.8c-0.1,0-0.2,0.1-0.3,0.2C52.5,24.4,52.4,24.4,52.3,24.4z"
	/>
<path id="path20881" class="st17" d="M48.1,22.2c0.6,0.9,1.1,1.5,1.3,1.6c0.3,0.3,0.6,0.3,0.6,0.3s0-0.3-0.3-0.6
	C49.6,23.4,49,22.8,48.1,22.2z"/>
<path id="path21880" class="st6" d="M50.1,28.8l-0.2,0.1v0.4c0.1,0.2,0.3,0.3,0.4,0.5s0.3,0.3,0.5,0.4l0.1-0.1v-0.4
	C50.7,29.4,50.3,29.1,50.1,28.8z"/>
<path id="path21882" class="st6" d="M50.9,29.7c-0.2-0.1-0.3-0.2-0.5-0.4c-0.2-0.1-0.4-0.4-0.5-0.5"/>
<path id="path21884" class="st6" d="M51,29.6L51,29.6l-0.1,0.5"/>
<path id="path21888" class="st14" d="M49.7,29.8c0,0.2,0.2,0.4,0.4,0.4s0.4-0.2,0.4-0.4s-0.2-0.4-0.4-0.4S49.7,29.6,49.7,29.8
	L49.7,29.8z"/>
<path id="path4414" class="st6" d="M45,18.4c0.1,0,0.3,0.1,0.3,0.3c-0.2,0.1-0.5,0.3-0.6,0.6c-0.2,0-0.3-0.1-0.3-0.3
	C44.5,18.7,44.7,18.6,45,18.4z"/>
<path id="path4408" class="st6" d="M40.9,14.3c0.1,0,0.3,0.1,0.3,0.3l0,0l-0.1-0.1c-0.2,0.1-0.5,0.3-0.6,0.6l0.1,0.1
	c-0.2,0-0.3-0.1-0.3-0.3C40.4,14.5,40.6,14.4,40.9,14.3L40.9,14.3z"/>
<path id="path3471" class="st18" d="M56,13.7c0,0.2-0.2,0.4-0.4,0.4s-0.4-0.2-0.4-0.4s0.2-0.4,0.4-0.4S56,13.5,56,13.7L56,13.7z"/>
<path id="path3485" class="st6" d="M55.3,13.8l-0.4,0.4l0.3,0.3l0.4-0.4C55.7,13.9,55.4,13.6,55.3,13.8z"/>
<path id="path3439" class="st6" d="M54.7,14.1l-0.4,0.4l-3.9,4l0.6,0.6l3.9-4l0.4-0.4C55.2,14.4,55,14.1,54.7,14.1z M50.1,18.7
	l-2.6,2.6l0.6,0.6l2.6-2.6C50.6,19.1,50.4,18.8,50.1,18.7z"/>
<path id="path3577" class="st11" d="M54.3,14.5l-0.4,0.4c-0.3,0.3-1.3,1.6-1.3,1.6s-1.3,1.1-1.6,1.4l-0.4,0.4
	c0.3-0.3,2.1-1.5,2.1-1.5s-1.1,1.7-1.5,2.1l0.4-0.4c0.3-0.3,1.3-1.7,1.3-1.7s1.1-0.9,1.4-1.2l0.6-0.6c-0.3,0.3-2,1.5-2,1.5
	S54,14.8,54.3,14.5z"/>
<path id="path3443" class="st6" d="M48.5,20l0.9,0.9c0.2,0,0.3-0.1,0.3-0.3c0,0,0-0.3-0.3-0.6s-0.6-0.3-0.6-0.3
	C48.7,19.8,48.6,19.9,48.5,20z"/>
<path id="path3445" class="st6" d="M48.5,20l-0.6,0.9l0.6,0.6l0.9-0.6c0,0,0-0.3-0.3-0.6S48.6,20.1,48.5,20z"/>
<path id="path3447" class="st10" d="M48.1,21.1c0.2-0.2,0.6-0.6,1-0.7c-0.1,0.4-0.5,0.8-0.7,1L48.1,21.1z"/>
<path id="path3449" class="st6" d="M48.5,21.5L48.5,21.5c-0.1-0.1,0.1-0.3,0.2-0.4c0.3-0.3,0.7-0.1,0.7-0.1L48.5,21.5z"/>
<path id="path3451" class="st6" d="M48,20.9L48,20.9c0.1,0.1,0.3-0.1,0.4-0.2c0.3-0.3,0.1-0.7,0.1-0.7L48,20.9z"/>
<path id="path3453" class="st6" d="M48,20.9c-1,1-2.2,1.6-2.9,2.3c-0.6,0.6-0.2,1,0,1.2s0.6,0.6,1.2,0c0.7-0.7,1.3-1.9,2.3-2.9
	C48.5,21.2,48.3,20.9,48,20.9z"/>
<polygon id="rect3455" class="st6" points="44.4,24 44.8,23.6 45.9,24.8 45.6,25.1 "/>
<polygon id="rect3457" class="st11" points="44.1,24.3 44.5,23.9 45.7,25.1 45.3,25.5 "/>
<path id="path3459" class="st17" d="M47.3,22.2c-0.6,0.9-1.1,1.5-1.3,1.6c-0.3,0.3-0.6,0.3-0.6,0.3s0-0.3,0.3-0.6
	C45.8,23.4,46.4,22.8,47.3,22.2z"/>
<path id="path3469" class="st10" d="M53.5,19.3L53.5,19.3v-0.5l0.3,0.2L53.5,19.3z"/>
<path id="path3475" class="st6" d="M42.7,24.3c-1.7,0-3.1,1.4-3.1,3.1s1.4,3.1,3.1,3.1s3.1-1.4,3.1-3.1S44.5,24.3,42.7,24.3z
	 M42.4,25.2c0.1,0,0.2,0.1,0.2,0.2s0.1,0.2,0.2,0.2s0.2-0.1,0.2-0.2s0.1-0.2,0.2-0.2l0,0c0.9,0.2,1.7,0.9,1.9,1.9l0,0l0,0h-0.4v0.4
	c0,0.1,0.1,0.2,0.2,0.2s0.2,0.1,0.2,0.2l0,0l0,0c-0.2,1-0.9,1.7-1.9,1.9l0,0c-0.1,0-0.2-0.1-0.2-0.2s-0.1-0.2-0.2-0.2
	s-0.2,0.1-0.2,0.2s-0.1,0.2-0.2,0.2l0,0c-0.9-0.2-1.7-0.9-1.9-1.9l0,0l0,0c0-0.1,0.1-0.2,0.2-0.2s0.2-0.1,0.2-0.2s0-0.4,0-0.4
	l-0.4,0.1l0,0l0,0C40.6,26.1,41.4,25.3,42.4,25.2C42.3,25.2,42.4,25.2,42.4,25.2z"/>
<path id="path3477" class="st14" d="M40.5,24.5c0,0.2-0.2,0.4-0.4,0.4s-0.4-0.2-0.4-0.4s0.2-0.4,0.4-0.4S40.5,24.3,40.5,24.5
	L40.5,24.5z"/>
<path id="path3489" class="st11" d="M55,13.8c-0.1,0-0.3,0.1-0.3,0.3l0.1-0.1c0.2,0.1,0.5,0.4,0.6,0.6l-0.1,0.1
	c0.2,0,0.3-0.1,0.3-0.3C55.4,14.1,55.2,14,55,13.8z"/>
<path id="path3491" class="st11" d="M54.5,14.3c-0.1,0-0.3,0.1-0.3,0.3l0,0l0.1-0.1c0.2,0.1,0.5,0.3,0.6,0.6l-0.1,0.1
	c0.2,0,0.3-0.1,0.3-0.3C55,14.6,54.8,14.4,54.5,14.3L54.5,14.3z"/>
<path id="path3493" class="st11" d="M41,24.5c-0.2,0.1-0.3,0.3-0.5,0.4c-0.1,0.2-0.3,0.3-0.4,0.5l-0.2-0.1c0.1-0.2,0.2-0.4,0.4-0.5
	c0.2-0.2,0.3-0.3,0.5-0.4C40.8,24.3,41,24.5,41,24.5z"/>
<path id="path3495" class="st10" d="M54.5,17.9l0.9,0.9h0.5l0.2,0.2v0.9l-1.6-1.6V17.9z"/>
<path id="path3497" class="st10" d="M54.2,20.9l1.4-1.4l-0.2-0.2L54,20.7L54.2,20.9z"/>
<path id="path3499" class="st10" d="M54.2,20.9v0.9l1.4-1.4v-0.9C55.6,19.5,54.2,20.9,54.2,20.9z"/>
<path id="path3501" class="st10" d="M55.4,18.8l1.4-1.4h0.5l-1.4,1.4H55.4z"/>
<path id="path3503" class="st10" d="M55.9,17.4l0.2-0.2v-0.5l-0.5,0.5L55.9,17.4z"/>
<path id="path3505" class="st10" d="M54.7,16.3l0.2-0.2v-0.5l-0.5,0.5L54.7,16.3z"/>
<path id="path3507" class="st11" d="M40.2,28.8L40,28.9v0.4c0.1,0.2,0.3,0.3,0.4,0.5s0.3,0.3,0.5,0.4l0.1-0.1v-0.4
	C40.8,29.4,40.5,29.1,40.2,28.8z"/>
<path id="path3509" class="st17" d="M41,29.8c-0.2-0.1-0.3-0.2-0.5-0.4S40.1,29,40,28.9"/>
<path id="path3511" class="st17" d="M41.1,29.6L41.1,29.6L41,30.1"/>
<path id="path3515" class="st14" d="M40.6,29.8c0,0.2-0.2,0.4-0.4,0.4s-0.4-0.2-0.4-0.4s0.2-0.4,0.4-0.4S40.6,29.6,40.6,29.8
	L40.6,29.8z"/>
<path id="path3527" class="st6" d="M42.7,23.9c-1.7,0-3.1,1.4-3.1,3.1s1.4,3.1,3.1,3.1s3.1-1.4,3.1-3.1S44.5,23.9,42.7,23.9z
	 M42.4,24.7c0.1,0,0.2,0.1,0.2,0.2s0.1,0.2,0.2,0.2S43,25,43,24.9s0.1-0.2,0.2-0.2l0,0c0.9,0.2,1.7,0.9,1.9,1.9l0,0l0,0
	c0,0.1-0.1,0.2-0.2,0.2s-0.2,0.1-0.2,0.2s0.1,0.2,0.2,0.2s0.2,0.1,0.2,0.2l0,0l0,0c-0.2,1-0.9,1.7-1.9,1.9l0,0
	c-0.1,0-0.2-0.1-0.2-0.2s-0.1-0.2-0.2-0.2s-0.2,0.1-0.2,0.2s-0.1,0.2-0.2,0.2l0,0c-0.9-0.2-1.7-0.9-1.9-1.9l0,0l0,0
	c0-0.1,0.1-0.2,0.2-0.2s0.2-0.1,0.2-0.2s-0.1-0.2-0.2-0.2s-0.2-0.1-0.2-0.2l0,0l0,0C40.6,25.6,41.4,24.9,42.4,24.7
	C42.3,24.7,42.4,24.7,42.4,24.7z"/>
<path id="path3529" class="st6" d="M42.7,24.2c-1.4,0-2.7,1.3-2.7,2.7c0,1.2,0.8,2.3,1.9,2.6c1,0.3,2.2,0,2.9-0.8
	c0.7-0.8,0.9-2,0.4-3C44.8,24.9,43.8,24.2,42.7,24.2L42.7,24.2z M43.1,24.4c1.2,0.1,2.2,1.2,2.2,2.4c0,0.1-0.1,0.2-0.2,0.3
	c0.2,0.2,0.2,0.6,0.1,0.9c-0.3,1-1.2,1.7-2.3,1.8c-0.1,0-0.2-0.1-0.3-0.1c-0.2,0.2-0.6,0.2-0.9,0c-1-0.3-1.7-1.2-1.7-2.3
	c0-0.1,0.1-0.2,0.1-0.2c-0.2-0.2-0.2-0.6-0.1-0.9c0.3-0.9,1.2-1.7,2.2-1.8c0.1,0,0.2,0.1,0.3,0.2C42.8,24.4,43,24.4,43.1,24.4z"/>
<path id="path3531" class="st11" d="M45.3,28.8l0.2,0.1v0.4c-0.1,0.2-0.3,0.3-0.4,0.5s-0.3,0.3-0.5,0.4l-0.1-0.1v-0.4
	C44.7,29.4,45,29.1,45.3,28.8z"/>
<path id="path3533" class="st17" d="M44.5,29.8c0.2-0.1,0.3-0.2,0.5-0.4s0.4-0.4,0.5-0.5"/>
<path id="path3535" class="st17" d="M44.4,29.6L44.4,29.6l0.1,0.5"/>
<path id="path3539" class="st14" d="M45.7,29.8c0,0.2-0.2,0.4-0.4,0.4c-0.2,0-0.4-0.2-0.4-0.4s0.2-0.4,0.4-0.4
	C45.5,29.4,45.7,29.6,45.7,29.8L45.7,29.8z"/>
<path id="path3547" class="st10" d="M54,17.9l0.5-0.5v-0.5L54,17.4V17.9z"/>
<path id="path3549" class="st10" d="M53.5,16.5V17l0.2-0.2L53.5,16.5z"/>
<path id="path3551" class="st10" d="M54,17.9l-0.5-0.5v-0.5l0.5,0.5V17.9z"/>
<path id="path3553" class="st10" d="M55.2,17.6l-0.7-0.7v-0.5l0.9,0.9C55.4,17.4,55.2,17.6,55.2,17.6z"/>
<path id="path3555" class="st10" d="M53.5,20.7l1.4-1.4h0.5L54,20.7H53.5z"/>
<path id="path3557" class="st10" d="M54.5,17l-0.2-0.2l0.2-0.2V17z"/>
<path id="path3559" class="st10" d="M54.5,15.1l0.5,0.5l-0.5,0.5l0.2,0.2l0.5-0.5l0.9,0.9l-0.5,0.5l0.2,0.2l0.5-0.5l0.5,0.5
	l-1.4,1.4l-0.9-0.9l0.5-0.5l0.2,0.2l0.2-0.2l-0.9-0.9l-0.2,0.2l0.2,0.2L54,17.4l-0.5-0.5l0.2-0.2l-0.2-0.2l-0.9,0.9l0.2,0.2l0.2-0.2
	l0.5,0.5L53,18.4l-0.2-0.2l-0.2,0.2l0.9,0.9l0.2-0.2l-0.2-0.2l0.5-0.5l0.9,0.9l-1.4,1.4L53,20.2l0.5-0.5l-0.2-0.2L52.8,20l-0.9-0.9
	l0.5-0.5l-0.2-0.2l-0.5,0.5l-0.5-0.5L54.5,15.1z"/>
<linearGradient id="path3561_1_" gradientUnits="userSpaceOnUse" x1="-4317.502" y1="-1044.2952" x2="-4313.8306" y2="-1039.9281" gradientTransform="matrix(-0.2 0 0 -0.2 -812.4666 -189.5416)">
	<stop  offset="0" style="stop-color:#000000;stop-opacity:0.7843"/>
	<stop  offset="1" style="stop-color:#000000;stop-opacity:0"/>
</linearGradient>
<path id="path3561" class="st19" d="M50.4,18.4c-0.1,0-0.3,0.1-0.3,0.3c0.2,0.1,0.5,0.3,0.6,0.6c0.2,0,0.3-0.1,0.3-0.3
	C50.9,18.7,50.7,18.6,50.4,18.4z"/>
<path id="path3579" class="st10" d="M56.1,19l1.4-1.4l-0.2-0.2l-1.4,1.4C55.9,18.8,56.1,19,56.1,19z"/>
<path id="path3581" class="st10" d="M56.1,19v0.9l1.4-1.4v-0.9L56.1,19z"/>
<path id="path3583" class="st11" d="M50.4,18.4c-0.1,0-0.3,0.1-0.3,0.3c0.2,0.1,0.5,0.3,0.6,0.6c0.2,0,0.3-0.1,0.3-0.3
	C50.9,18.7,50.7,18.6,50.4,18.4z"/>
<path id="path3585" class="st6" d="M53.1,20.2v0.5l1.2,1.2V21l-0.2-0.2h-0.5C53.5,20.7,53.1,20.2,53.1,20.2z"/>
<path id="path3587" class="st10" d="M51.9,19l0.9,0.9v0.5l-0.9-0.9V19z"/>
<path id="path3589" class="st10" d="M52.8,20.4l0.5-0.5v-0.5l-0.5,0.5C52.8,20,52.8,20.4,52.8,20.4z"/>
<path id="path3591" class="st10" d="M51.7,19.3l0.5-0.5v-0.5l-0.5,0.5V19.3z"/>
<path id="path3593" class="st10" d="M52.1,18.3v0.5l0.2-0.2L52.1,18.3z"/>
<path id="path3595" class="st10" d="M53.3,19.5V20l0.2-0.2L53.3,19.5z"/>
<path id="path3597" class="st20" d="M51.2,18.3l0.5,0.5v0.5l-0.5-0.5V18.3z"/>
<path id="path3599" class="st10" d="M53.1,18.8l0.5-0.5v-0.5l-0.5,0.5V18.8z"/>
<path id="path3601" class="st10" d="M52.8,17.6l0.7-0.7v-0.5l-0.9,0.9L52.8,17.6z"/>
<path id="path3603" class="st10" d="M53.1,18.8l-0.5-0.5l0.2-0.2l0.2,0.2v0.5H53.1z"/>
<path id="path3605" class="st21" d="M52.8,18.1v0.5l0.2,0.2v-0.5C53.1,18.3,52.8,18.1,52.8,18.1z"/>
<path id="path7644" class="st9" d="M47.4,21.3c-0.3,0-0.6,0-0.8,0.1c-0.1,0.1-0.2,0.2-0.1,0.3s0.2,0.2,0.3,0.1
	c0.2-0.1,0.5-0.1,0.9-0.1c0.3,0,0.7,0.1,0.8,0.1c0.1,0,0.2,0,0.2,0l0.1-0.2c0,0-0.1-0.2-0.2-0.2c-0.2-0.1-0.6-0.1-1-0.1
	C47.6,21.3,47.5,21.3,47.4,21.3z"/>
<path id="path8535" class="st9" d="M47.7,20.6c-0.1,0-0.1,0-0.2,0.1c0,0.1-0.1,0.1,0,0.2c0,0.1,0.1,0.5,0.1,0.9s0,0.8-0.1,1
	c0,0.1,0,0.3,0.2,0.3c0.1,0,0.3,0,0.3-0.2c0.1-0.3,0.1-0.7,0.1-1.1s0-0.8-0.1-1.1C47.9,20.6,47.8,20.6,47.7,20.6L47.7,20.6z"/>
<path id="path8047" class="st7" d="M43.5,28.7L43.5,28.7c-0.3,0-0.5,0.2-0.5,0.4c0,0.2,0,0.4,0.1,0.6s0.3,0.4,0.4,0.7
	c0.8,0.9,2.3,1.9,4.2,1.9s3.4-1,4.2-1.9c0.2-0.2,0.3-0.5,0.4-0.7s0.2-0.4,0.1-0.6c0-0.2-0.2-0.4-0.4-0.4h-0.1
	c-0.2,0-0.4,0.1-0.6,0.2l0,0c0.2,0.1,0.4,0.2,0.6,0.3H52l0,0c0,0,0,0.2-0.1,0.3s-0.2,0.4-0.4,0.6c-0.7,0.8-2.1,1.7-3.8,1.7
	s-3.1-0.9-3.8-1.7c-0.2-0.2-0.3-0.4-0.4-0.6s-0.1-0.3-0.1-0.3l0,0c0,0,0,0,0.1,0c0.2-0.1,0.4-0.2,0.6-0.3l0,0
	C43.9,28.7,43.7,28.7,43.5,28.7z"/>
<path id="path3408" class="st22" d="M47.7,9.2c-1.8,1.3-2.7,2.5-2.7,5.9c0,1,0.3,1.9,0.5,2.6c0.7-0.2,1.3-0.3,2.3-0.3
	s1.6,0.2,2.3,0.3c0.1-0.7,0.5-1.6,0.5-2.6C50.4,11.7,49.5,10.5,47.7,9.2z"/>
<path id="path3410" class="st6" d="M47.5,7.7v0.5h-0.4v0.5h0.4v0.8h0.4V8.7h0.4V8.2h-0.4V7.7H47.5z"/>
<path id="path30507" class="st23" d="M45,12.3c0.7-0.2,1.6-0.4,2.6-0.4c1.1,0,2.2,0.1,2.9,0.4l-0.1,0.5c-0.6-0.2-1.6-0.4-2.6-0.4
	s-2.2,0.2-2.7,0.4C45,12.8,45,12.3,45,12.3z"/>
<path id="path30509" class="st24" d="M50.3,12.8L50,12.5l0.4-0.1"/>
<path id="path30511" class="st6" d="M50.1,12l-0.2-0.3c0,0-0.2,0.2-0.4,0.2c-0.2,0-0.3-0.4-0.3-0.4s-0.3,0.3-0.5,0.3
	s-0.3-0.2-0.3-0.2s-0.2,0.2-0.4,0.1c-0.2,0-0.5-0.4-0.5-0.4s-0.2,0.4-0.4,0.4c-0.2,0-0.4-0.3-0.4-0.3s-0.1,0.3-0.3,0.3
	c-0.2,0-0.4-0.3-0.4-0.3s-0.1,0.4-0.3,0.4c-0.2,0.1-0.4-0.2-0.4-0.2l-0.2,0.3l0.1,0.1c0.6-0.2,1.4-0.3,2.3-0.3s1.8,0.1,2.4,0.3H50.1
	L50.1,12z"/>
<path id="path30513" class="st6" d="M44.6,11.6c0.1,0.3,0.3,0.5,0.6,0.4c0.3-0.1,0.3-0.3,0.3-0.3s0.2,0.2,0.4,0.2
	c0.2,0,0.3-0.4,0.3-0.4s0.2,0.3,0.4,0.3c0.2,0,0.3-0.3,0.3-0.3s0.1,0.2,0.4,0.2s0.4-0.4,0.4-0.4s0.2,0.4,0.4,0.4
	c0.2,0,0.3-0.2,0.3-0.2s0.1,0.2,0.3,0.2c0.2,0,0.5-0.3,0.5-0.3s0.1,0.4,0.3,0.4c0.2,0,0.4-0.2,0.4-0.2s0.1,0.3,0.3,0.3
	c0.2,0,0.4-0.2,0.6-0.5c-0.2,0.1-0.4,0.4-0.5,0.3c-0.1,0-0.3-0.4-0.3-0.4s-0.2,0.2-0.4,0.2c-0.2-0.1-0.3-0.7-0.3-0.7
	s-0.3,0.6-0.5,0.6c-0.2-0.1-0.4-0.4-0.4-0.4s-0.1,0.3-0.3,0.3c-0.3,0-0.4-0.7-0.4-0.7s-0.2,0.7-0.4,0.7c-0.2,0-0.4-0.3-0.4-0.3
	s-0.1,0.4-0.3,0.3c-0.2,0-0.6-0.5-0.6-0.5s0,0.6-0.2,0.7s-0.5-0.3-0.5-0.3s0.1,0.4-0.1,0.4C45,12,44.9,11.8,44.6,11.6z"/>
<path id="path30515" class="st23" d="M47.7,12c-1,0-2,0.1-2.7,0.3c0,0-0.1,0-0.1-0.1c0,0,0-0.1,0.1-0.1c0.7-0.2,1.6-0.4,2.7-0.4
	s2,0.1,2.7,0.4l0.1,0.1l-0.1,0.1C49.7,12.1,48.7,12,47.7,12z"/>
<path id="path30517" class="st25" d="M45,12.6L45,12.6v-0.2h0.2C45.2,12.5,45,12.6,45,12.6z"/>
<path id="path30519" class="st25" d="M50.4,12.6L50.4,12.6v-0.2h-0.2L50.4,12.6z"/>
<path id="path30523" class="st6" d="M48.3,10.9c0,0-0.4,0-0.4-0.1c-0.1-0.1,0-0.2,0-0.2l0.2-0.1c0.1,0,0.2,0,0.2,0.1
	s-0.2,0.1-0.2,0.1s0.3-0.1,0.3,0S48.5,10.9,48.3,10.9c0.1,0.1-0.3,0-0.3,0s0.3,0,0.2,0.2c0,0.1-0.2,0.1-0.3,0.1
	c-0.1,0-0.2-0.1-0.2-0.2s0-0.2,0.1-0.2C48,10.9,48.3,10.9,48.3,10.9L48.3,10.9z"/>
<path id="path30525" class="st6" d="M47,10.9h0.4c0.1-0.1,0.1-0.2,0-0.2l-0.2-0.1c0,0-0.2,0-0.2,0.1s0.2,0.1,0.2,0.1
	S46.9,10.7,47,10.9C46.8,10.9,46.8,11,47,10.9c-0.1,0.2,0.3,0.1,0.3,0.1s-0.3,0-0.2,0.2c0,0.1,0.2,0.1,0.3,0.1
	c0.1,0,0.2-0.1,0.2-0.2s0-0.2-0.1-0.2C47.3,10.9,47,10.9,47,10.9z"/>
<path id="path30527" class="st6" d="M47.7,10.2v0.4c0.1,0.1,0.2,0.1,0.2,0l0.1-0.2c0-0.1,0-0.2-0.1-0.2s-0.1,0.2-0.1,0.2
	S47.9,10.1,47.7,10.2C47.7,10,47.7,10,47.7,10.2c-0.2-0.1-0.1,0.3-0.1,0.3s0-0.3-0.2-0.2c-0.1,0-0.1,0.2-0.1,0.3s0.1,0.2,0.2,0.2
	s0.2,0,0.2-0.1C47.7,10.5,47.7,10.2,47.7,10.2z"/>
<path id="path30529" class="st26" d="M47.8,10.9c0,0.2-0.1,0.3-0.2,0.3s-0.2-0.1-0.2-0.3c0-0.2,0.1-0.3,0.2-0.3
	C47.8,10.6,47.8,10.8,47.8,10.9z"/>
<path id="path30533" class="st6" d="M49.9,11.2l-0.4-0.1c0-0.1,0-0.2,0.1-0.2s0.2-0.1,0.2,0S50,11,49.9,11c0,0.1-0.2,0.1-0.2,0.1
	S50,11.1,49.9,11.2c0.1,0.1,0.1,0.2,0.1,0.2c-0.1,0-0.3-0.1-0.3-0.1s0.3,0.1,0.2,0.2c0,0.1-0.2,0.1-0.3,0c-0.1,0-0.2-0.1-0.2-0.2
	s0.1-0.2,0.1-0.2C49.6,11.1,49.9,11.2,49.9,11.2z"/>
<path id="path30535" class="st6" d="M48.7,10.9c0,0,0.4,0.1,0.4,0c0.1,0,0.1-0.1,0-0.2c0-0.1-0.1-0.1-0.2-0.1s-0.2,0-0.2,0.1
	s0.2,0.2,0.2,0.2H48.7c-0.2-0.1-0.2,0-0.2,0.1s0.4,0.1,0.4,0.1s-0.3,0-0.3,0.1s0.1,0.1,0.2,0.1s0.2,0,0.2-0.1s0-0.2-0.1-0.2
	C48.9,11,48.7,10.9,48.7,10.9z"/>
<path id="path30537" class="st6" d="M49.4,10.3c0,0-0.1,0.4,0,0.4c0,0.1,0.1,0.1,0.2,0c0.1,0,0.1-0.1,0.1-0.2s0-0.2-0.1-0.2
	s-0.2,0.2-0.2,0.2V10.3c0.1-0.2,0-0.2-0.1-0.2s-0.1,0.4-0.1,0.4s0-0.3-0.1-0.3S49,10.3,49,10.4s0,0.2,0.1,0.2s0.2,0,0.2-0.1
	C49.4,10.6,49.4,10.3,49.4,10.3L49.4,10.3z"/>
<path id="path30539" class="st27" d="M49.5,11.1c0,0.2-0.1,0.3-0.2,0.3s-0.1-0.2-0.1-0.3s0.1-0.3,0.2-0.3S49.5,10.9,49.5,11.1z"/>
<path id="path30543" class="st6" d="M45.4,11.2l0.4-0.1c0-0.1,0-0.2,0-0.2c-0.1,0-0.2-0.1-0.2,0c-0.1,0-0.2,0.1-0.1,0.1
	c0,0.1,0.2,0.1,0.2,0.1S45.4,11.1,45.4,11.2s-0.1,0.2,0,0.2c0.1,0.1,0.3-0.1,0.3-0.1s-0.3,0.1-0.2,0.2c0,0.1,0.2,0.1,0.3,0
	c0.1,0,0.2-0.1,0.2-0.2s-0.1-0.2-0.1-0.2C45.7,11.1,45.4,11.2,45.4,11.2z"/>
<path id="path30545" class="st6" d="M46.7,11c0,0-0.4,0.1-0.4,0c-0.1-0.1-0.1-0.1,0-0.2c0-0.1,0.1-0.1,0.2-0.1s0.2,0,0.2,0.1
	S46.5,11,46.5,11H46.7c0.2-0.1,0.2,0,0.2,0.1s-0.4,0.1-0.4,0.1s0.3,0,0.3,0.1s-0.1,0.1-0.2,0.1s-0.2,0-0.2-0.1s0-0.2,0.1-0.2
	C46.4,11,46.7,11,46.7,11z"/>
<path id="path30547" class="st6" d="M45.9,10.3c0,0,0.1,0.4,0,0.4c0,0.1-0.1,0.1-0.2,0c-0.1,0-0.1-0.1-0.1-0.2s0-0.2,0.1-0.2
	s0.2,0.2,0.2,0.2V10.3c-0.1-0.2,0-0.2,0.1-0.2s0.1,0.4,0.1,0.4s0-0.3,0.1-0.3s0.1,0.1,0.1,0.2s0,0.2-0.1,0.2s-0.2,0-0.2-0.1
	C46,10.6,45.9,10.3,45.9,10.3z"/>
<path id="path30549" class="st27" d="M45.9,11.1c0,0.2,0.1,0.3,0.2,0.3s0.1-0.2,0.1-0.3c0-0.2-0.1-0.3-0.2-0.3S45.8,10.9,45.9,11.1z
	"/>
<path id="path30553" class="st6" d="M50.2,11.3c0,0,0.3,0.2,0.4,0.2s0.1-0.1,0.1-0.2s-0.1-0.2-0.2-0.2s-0.2-0.1-0.2,0
	s0.1,0.2,0.1,0.2s-0.2-0.2-0.3-0.2c-0.1,0-0.1,0.1-0.1,0.2s0.3,0.2,0.3,0.2s-0.3-0.1-0.3,0s0.1,0.2,0.2,0.2s0.2,0,0.3,0
	c0.1-0.1,0.1-0.2,0-0.2C50.5,11.5,50.2,11.3,50.2,11.3z"/>
<path id="path30555" class="st6" d="M51.2,10.9C51.2,10.8,51.2,10.7,51.2,10.9c-0.2,0-0.3,0.2-0.3,0.2s0.1-0.3,0-0.3
	s-0.2,0.1-0.2,0.2s0,0.2,0,0.3c0.1,0.1,0.2,0,0.2,0C51.2,11.2,51.2,11,51.2,10.9z"/>
<path id="path30557" class="st26" d="M50.9,11.7c-0.1,0.1-0.2,0.2-0.3,0.2s-0.1-0.2,0-0.3c0.1-0.1,0.2-0.2,0.3-0.2
	C51,11.4,51,11.6,50.9,11.7z"/>
<path id="path30561" class="st6" d="M45.1,11.3c0,0-0.3,0.2-0.4,0.2s-0.1-0.1-0.1-0.2s0.1-0.2,0.2-0.2s0.2-0.1,0.2,0
	s-0.1,0.2-0.1,0.2s0.2-0.2,0.3-0.2c0.1,0,0.1,0.1,0.1,0.2S45,11.5,45,11.5s0.3-0.1,0.3,0s-0.1,0.2-0.2,0.2s-0.2,0-0.3,0
	c-0.1-0.1-0.1-0.2,0-0.2C44.8,11.5,45.1,11.3,45.1,11.3z"/>
<path id="path30563" class="st6" d="M44.1,10.9C44.1,10.8,44.1,10.7,44.1,10.9c0.2,0,0.3,0.2,0.3,0.2s-0.1-0.3,0-0.3
	s0.2,0.1,0.2,0.2s0,0.2,0,0.3c-0.1,0.1-0.2,0-0.2,0C44.1,11.2,44.1,11,44.1,10.9z"/>
<path id="path30565" class="st26" d="M44.4,11.7c0.1,0.1,0.2,0.2,0.3,0.2s0.1-0.2,0-0.3c-0.1-0.1-0.2-0.2-0.3-0.2
	C44.3,11.4,44.3,11.6,44.4,11.7z"/>
<radialGradient id="path30567_1_" cx="-2876.8066" cy="-1763.8293" r="1.0436" gradientTransform="matrix(0.1196 0 0 -0.1214 393.9897 -202.573)" gradientUnits="userSpaceOnUse">
	<stop  offset="0" style="stop-color:#FFFFFF"/>
	<stop  offset="1" style="stop-color:#C9C9C9"/>
</radialGradient>
<path id="path30567" class="st28" d="M50.1,11.6C50.1,11.7,50.1,11.7,50.1,11.6c-0.2,0.1-0.2,0.1-0.2,0S49.9,11.5,50.1,11.6
	C50.1,11.5,50.1,11.5,50.1,11.6z"/>
<radialGradient id="path30569_1_" cx="-2902.2151" cy="-1552.5825" r="1.027" gradientTransform="matrix(0.1368 0 0 -0.1389 445.5292 -204.4106)" gradientUnits="userSpaceOnUse">
	<stop  offset="0" style="stop-color:#FFFFFF"/>
	<stop  offset="1" style="stop-color:#C9C9C9"/>
</radialGradient>
<path id="path30569" class="st29" d="M48.6,11.3C48.6,11.4,48.5,11.4,48.6,11.3h-0.2C48.4,11.2,48.5,11.2,48.6,11.3
	C48.5,11.2,48.6,11.2,48.6,11.3z"/>
<radialGradient id="path30571_1_" cx="-2818.4722" cy="-1551.7644" r="1.027" gradientTransform="matrix(0.1368 0 0 -0.1389 432.4882 -204.2812)" gradientUnits="userSpaceOnUse">
	<stop  offset="0" style="stop-color:#FFFFFF"/>
	<stop  offset="1" style="stop-color:#C9C9C9"/>
</radialGradient>
<path id="path30571" class="st30" d="M47,11.3C47,11.4,46.9,11.4,47,11.3h-0.2H47C46.9,11.2,47,11.2,47,11.3z"/>
<radialGradient id="path30573_1_" cx="-2626.5344" cy="-1720.0233" r="1.0404" gradientTransform="matrix(0.1226 0 0 -0.1245 367.4122 -202.5734)" gradientUnits="userSpaceOnUse">
	<stop  offset="0" style="stop-color:#FFFFFF"/>
	<stop  offset="1" style="stop-color:#C9C9C9"/>
</radialGradient>
<path id="path30573" class="st31" d="M45.5,11.5C45.5,11.6,45.4,11.6,45.5,11.5c-0.2,0.1-0.2,0-0.2,0H45.5
	C45.4,11.4,45.5,11.5,45.5,11.5z"/>
<path id="path30575" class="st23" d="M47.7,12.6c-1,0-1.9,0.1-2.6,0.3c0,0-0.1,0-0.1-0.1c0,0,0-0.1,0.1-0.1c0.7-0.2,1.6-0.4,2.6-0.4
	s2,0.1,2.6,0.4l0.1,0.1l-0.1,0.1C49.6,12.7,48.7,12.6,47.7,12.6z"/>
<path id="path30577" class="st25" d="M47.7,12.3l0.2-0.1l-0.2-0.1l-0.2,0.1C47.5,12.2,47.7,12.3,47.7,12.3z"/>
<path id="rect30579" class="st32" d="M46,12.2h0.4c0,0,0.1,0,0.1,0.1l0,0c0,0,0,0.1-0.1,0.1H46C46,12.4,46,12.3,46,12.2L46,12.2
	C46,12.3,46,12.2,46,12.2z"/>
<path id="rect30581" class="st8" d="M46,12.2l0.4-0.1c0.1,0,0.1,0,0.1,0.1v0.1c0,0.1,0,0.1-0.1,0.1L46,12.5c-0.1,0-0.1,0-0.1-0.1
	L46,12.2C45.9,12.2,45.9,12.2,46,12.2z"/>
<path id="rect30583" class="st32" d="M49.3,12.2h-0.4c0,0-0.1,0-0.1,0.1l0,0c0,0,0,0.1,0.1,0.1h0.4C49.3,12.4,49.3,12.3,49.3,12.2
	L49.3,12.2C49.3,12.3,49.3,12.2,49.3,12.2z"/>
<path id="rect30585" class="st24" d="M49.3,12.2l-0.5-0.1c-0.1,0-0.1,0-0.1,0.1v0.1c0,0.1,0,0.1,0.1,0.1l0.5,0.1
	c0.1,0,0.1,0,0.1-0.1L49.3,12.2C49.4,12.2,49.4,12.2,49.3,12.2z"/>
<path id="path30587" class="st8" d="M47.7,12.4l0.4-0.2L47.7,12l-0.4,0.2L47.7,12.4z"/>
<path id="path30589" class="st8" d="M45,12.7l0.3-0.3l-0.4-0.1"/>
<path id="path30593" class="st24" d="M48.4,12.2C48.3,12.2,48.3,12.1,48.4,12.2C48.3,12.1,48.4,12.1,48.4,12.2L48.4,12.2
	C48.4,12.1,48.4,12.1,48.4,12.2C48.4,12.1,48.4,12.2,48.4,12.2L48.4,12.2z"/>
<path id="path30595" class="st24" d="M48.4,12.3C48.3,12.3,48.3,12.3,48.4,12.3C48.3,12.2,48.4,12.2,48.4,12.3L48.4,12.3
	C48.4,12.2,48.4,12.2,48.4,12.3L48.4,12.3L48.4,12.3z"/>
<path id="path30599" class="st24" d="M46.9,12.2L46.9,12.2C46.8,12.1,46.9,12.1,46.9,12.2L46.9,12.2C47,12.1,47,12.1,46.9,12.2
	C47,12.2,47,12.2,46.9,12.2L46.9,12.2z"/>
<path id="path30601" class="st24" d="M46.9,12.3L46.9,12.3C46.8,12.2,46.9,12.2,46.9,12.3L46.9,12.3C47,12.2,47,12.3,46.9,12.3
	C47,12.3,47,12.3,46.9,12.3L46.9,12.3z"/>
<path id="path30605" class="st24" d="M49.8,12.4C49.7,12.4,49.7,12.3,49.8,12.4C49.8,12.3,49.8,12.3,49.8,12.4L49.8,12.4
	C49.8,12.3,49.8,12.3,49.8,12.4C49.8,12.3,49.8,12.4,49.8,12.4L49.8,12.4z"/>
<path id="path30607" class="st24" d="M49.7,12.5L49.7,12.5C49.7,12.4,49.7,12.4,49.7,12.5L49.7,12.5C49.8,12.4,49.8,12.4,49.7,12.5
	C49.8,12.5,49.8,12.5,49.7,12.5L49.7,12.5z"/>
<path id="path30611" class="st24" d="M45.6,12.4C45.7,12.4,45.7,12.3,45.6,12.4C45.6,12.3,45.6,12.3,45.6,12.4L45.6,12.4
	C45.6,12.3,45.6,12.3,45.6,12.4C45.6,12.3,45.6,12.4,45.6,12.4L45.6,12.4z"/>
<path id="path30613" class="st24" d="M45.6,12.5C45.7,12.5,45.7,12.5,45.6,12.5C45.6,12.4,45.6,12.4,45.6,12.5L45.6,12.5
	C45.6,12.4,45.6,12.4,45.6,12.5L45.6,12.5L45.6,12.5z"/>
<path id="path3105" class="st23" d="M45.3,17.5c0.6-0.2,1.4-0.3,2.3-0.3s1.9,0.1,2.5,0.3L50,18c-0.6-0.2-1.4-0.3-2.3-0.3
	s-1.9,0.1-2.4,0.3C45.4,18,45.3,17.5,45.3,17.5z"/>
<path id="path3109" class="st6" d="M49.8,17.2l-0.2-0.3c0,0-0.2,0.2-0.3,0.1c-0.2,0-0.2-0.4-0.2-0.4s-0.3,0.3-0.4,0.3
	c-0.2,0-0.3-0.1-0.3-0.1s-0.1,0.1-0.3,0.1c-0.2,0-0.4-0.4-0.4-0.4s-0.1,0.3-0.3,0.4c-0.2,0-0.4-0.2-0.4-0.2s-0.1,0.2-0.3,0.3
	c-0.2,0-0.4-0.3-0.4-0.3s-0.1,0.3-0.2,0.4S45.8,17,45.8,17l-0.2,0.2l0.1,0.1c0.5-0.2,1.2-0.2,2-0.2s1.5,0.1,2.1,0.3L49.8,17.2
	L49.8,17.2z"/>
<path id="path3111" class="st6" d="M45,16.9c0.1,0.2,0.3,0.4,0.5,0.4s0.3-0.3,0.3-0.3s0.2,0.2,0.3,0.2c0.2,0,0.2-0.3,0.2-0.3
	s0.2,0.3,0.4,0.2c0.2,0,0.3-0.2,0.3-0.2s0.1,0.2,0.3,0.2c0.2,0,0.4-0.3,0.4-0.3s0.2,0.3,0.4,0.3c0.2,0,0.3-0.2,0.3-0.2
	s0.1,0.2,0.3,0.2c0.2,0,0.4-0.3,0.4-0.3s0.1,0.3,0.3,0.3c0.2,0,0.3-0.1,0.3-0.1s0.1,0.2,0.3,0.3c0.2,0,0.4-0.2,0.5-0.4
	c-0.2,0.1-0.3,0.3-0.5,0.3c-0.1,0-0.3-0.3-0.3-0.3s-0.2,0.2-0.3,0.2c-0.1-0.1-0.2-0.6-0.2-0.6S49,17.1,48.8,17
	c-0.2-0.1-0.3-0.3-0.3-0.3S48.4,17,48.2,17c-0.2,0-0.4-0.6-0.4-0.6S47.6,17,47.4,17c-0.2,0-0.3-0.3-0.3-0.3S47,17,46.8,17
	c-0.2,0-0.5-0.5-0.5-0.5s0,0.6-0.1,0.6c-0.2,0-0.4-0.2-0.4-0.2s0.1,0.3-0.1,0.4C45.3,17.2,45.2,17,45,16.9z"/>
<path id="path3131" class="st23" d="M47.7,17.2c-0.9,0-1.7,0.1-2.3,0.3c0,0-0.1,0-0.1-0.1c0,0,0-0.1,0.1-0.1
	c0.6-0.2,1.4-0.3,2.4-0.3c0.9,0,1.8,0.1,2.4,0.3l0.1,0.1l-0.1,0.1C49.5,17.3,48.6,17.2,47.7,17.2z"/>
<path id="path3215" class="st6" d="M48.2,16.3c0,0-0.3,0-0.4-0.1c0-0.1,0-0.1,0-0.2c0,0,0.1-0.1,0.2-0.1s0.1,0,0.2,0.1
	c0,0.1-0.2,0.1-0.2,0.1h0.3C48.3,16.2,48.4,16.2,48.2,16.3c0.1,0.1-0.2,0-0.2,0s0.2,0,0.2,0.2c0,0.1-0.1,0.1-0.2,0.1
	s-0.2-0.1-0.2-0.2s0-0.2,0.1-0.2C48,16.3,48.2,16.3,48.2,16.3z"/>
<path id="path3217" class="st6" d="M47.1,16.3c0,0,0.3,0,0.4,0c0.1-0.1,0-0.1,0-0.2c0,0-0.1-0.1-0.2-0.1s-0.1,0-0.2,0.1
	c0,0.1,0.2,0.1,0.2,0.1S47.1,16.1,47.1,16.3C47,16.3,46.9,16.3,47.1,16.3c-0.1,0.2,0.2,0.1,0.2,0.1s-0.2,0-0.2,0.1s0.1,0.1,0.2,0.1
	s0.2-0.1,0.2-0.1c0-0.1,0-0.2-0.1-0.2H47.1z"/>
<path id="path3219" class="st6" d="M47.7,15.6c0,0,0,0.3,0,0.4c0.1,0.1,0.1,0,0.2,0c0,0,0.1-0.1,0.1-0.2s0-0.1-0.1-0.2
	c-0.1,0-0.1,0.2-0.1,0.2S47.9,15.5,47.7,15.6C47.7,15.5,47.7,15.4,47.7,15.6c-0.2-0.1-0.1,0.2-0.1,0.2s0-0.2-0.1-0.2
	s-0.1,0.1-0.1,0.2s0.1,0.2,0.1,0.2c0.1,0,0.2,0,0.2-0.1V15.6z"/>
<path id="path3221" class="st26" d="M47.8,16.3c0,0.1-0.1,0.3-0.1,0.3c-0.1,0-0.1-0.1-0.1-0.3c0-0.1,0.1-0.3,0.1-0.3
	C47.8,16,47.8,16.1,47.8,16.3z"/>
<path id="path3225" class="st6" d="M49.7,16.5c0,0-0.3-0.1-0.4-0.1c0-0.1,0-0.1,0-0.2h0.2c0.1,0,0.1,0.1,0.1,0.1
	c0,0.1-0.2,0.1-0.2,0.1S49.7,16.4,49.7,16.5C49.8,16.5,49.8,16.6,49.7,16.5c0,0.1-0.2,0-0.2,0s0.2,0.1,0.2,0.2s-0.2,0.1-0.2,0
	c-0.1,0-0.2-0.1-0.2-0.2s0.1-0.1,0.1-0.1C49.4,16.4,49.7,16.5,49.7,16.5z"/>
<path id="path3227" class="st6" d="M48.6,16.3c0,0,0.3,0.1,0.4,0c0.1,0,0.1-0.1,0-0.2c0,0-0.1-0.1-0.2-0.1s-0.1,0-0.2,0.1
	c0,0.1,0.2,0.1,0.2,0.1s-0.2-0.1-0.3-0.1c-0.1,0-0.1,0.1-0.1,0.2s0.3,0.1,0.3,0.1s-0.2,0-0.2,0.1s0.1,0.1,0.2,0.1s0.2,0,0.2-0.1
	s0-0.2-0.1-0.2H48.6z"/>
<path id="path3229" class="st6" d="M49.2,15.8c0,0-0.1,0.3,0,0.4c0,0.1,0.1,0.1,0.2,0c0,0,0.1-0.1,0.1-0.2s0-0.1-0.1-0.2
	c-0.1,0-0.1,0.2-0.1,0.2s0.1-0.2,0.1-0.3c0-0.1-0.1-0.1-0.2-0.1s-0.1,0.3-0.1,0.3s0-0.2-0.1-0.2s-0.1,0.1-0.1,0.2s0,0.2,0.1,0.2
	s0.2,0,0.2-0.1V15.8z"/>
<path id="path3231" class="st27" d="M49.3,16.4c0,0.1-0.1,0.2-0.2,0.2S49,16.5,49,16.3c0-0.1,0.1-0.2,0.2-0.2S49.3,16.3,49.3,16.4z"
	/>
<path id="path29316" class="st6" d="M45.7,16.5c0,0,0.3-0.1,0.4-0.1c0-0.1,0-0.1,0-0.2c0,0-0.2-0.1-0.2,0c-0.1,0-0.1,0.1-0.1,0.1
	c0,0.1,0.2,0.1,0.2,0.1S45.6,16.4,45.7,16.5C45.6,16.5,45.6,16.6,45.7,16.5c0,0.1,0.2,0,0.2,0s-0.2,0.1-0.2,0.2s0.2,0.1,0.2,0
	s0.2-0.1,0.2-0.2S46,16.4,46,16.4C45.9,16.4,45.7,16.5,45.7,16.5z"/>
<path id="path29318" class="st6" d="M46.8,16.3c0,0-0.3,0.1-0.4,0c-0.1,0-0.1-0.1,0-0.2c0,0,0.1-0.1,0.2-0.1s0.1,0,0.2,0.1
	c0,0.1-0.2,0.1-0.2,0.1s0.2-0.1,0.3-0.1c0.1,0,0.1,0.1,0.1,0.2s-0.3,0.1-0.3,0.1s0.2,0,0.2,0.1s-0.1,0.1-0.2,0.1s-0.2,0-0.2-0.1
	s0-0.2,0.1-0.2H46.8z"/>
<path id="path3239" class="st6" d="M46.1,15.8c0,0,0.1,0.3,0,0.4c0,0.1-0.1,0.1-0.2,0c0,0-0.1-0.1-0.1-0.2s0-0.1,0.1-0.2
	C46,15.8,46,16,46,16s-0.1-0.2-0.1-0.3c0-0.1,0.1-0.1,0.2-0.1s0.1,0.3,0.1,0.3s0-0.2,0.1-0.2s0.1,0.1,0.1,0.2s0,0.2-0.1,0.2
	s-0.2,0-0.2-0.1C46.2,16,46.1,15.8,46.1,15.8z"/>
<path id="path3241" class="st27" d="M46.1,16.4c0,0.1,0.1,0.2,0.2,0.2s0.1-0.1,0.1-0.3c0-0.1-0.1-0.2-0.2-0.2
	C46.1,16.1,46.1,16.3,46.1,16.4z"/>
<radialGradient id="path3261_1_" cx="-2786.1572" cy="-1456.4193" r="1.0262" gradientTransform="matrix(0.1202 0 0 -0.122 383.2724 -161.1386)" gradientUnits="userSpaceOnUse">
	<stop  offset="0" style="stop-color:#FFFFFF"/>
	<stop  offset="1" style="stop-color:#C9C9C9"/>
</radialGradient>
<path id="path3261" class="st33" d="M48.5,16.6C48.5,16.7,48.5,16.7,48.5,16.6c-0.2,0.1-0.2,0.1-0.2,0S48.3,16.5,48.5,16.6
	C48.4,16.5,48.5,16.5,48.5,16.6z"/>
<radialGradient id="path3263_1_" cx="-2702.4146" cy="-1455.6013" r="1.027" gradientTransform="matrix(0.1202 0 0 -0.122 371.8172 -161.0251)" gradientUnits="userSpaceOnUse">
	<stop  offset="0" style="stop-color:#FFFFFF"/>
	<stop  offset="1" style="stop-color:#C9C9C9"/>
</radialGradient>
<path id="path3263" class="st34" d="M47.1,16.6C47.1,16.7,47.1,16.7,47.1,16.6c-0.2,0.1-0.2,0.1-0.2,0S46.9,16.5,47.1,16.6
	C47,16.5,47.1,16.5,47.1,16.6z"/>
<path id="path3267" class="st23" d="M47.7,17.7c-0.9,0-1.7,0.1-2.3,0.3c0,0-0.1,0-0.1-0.1c0,0,0-0.1,0.1-0.1
	c0.6-0.2,1.4-0.3,2.3-0.3s1.7,0.1,2.3,0.3l0.1,0.1L50,18C49.4,17.8,48.6,17.7,47.7,17.7z"/>
<path id="path3269" class="st25" d="M47.7,17.5l0.2-0.1l-0.2-0.1l-0.2,0.1C47.5,17.4,47.7,17.5,47.7,17.5z"/>
<path id="rect3271" class="st32" d="M46.2,17.4h0.3c0,0,0.1,0,0.1,0.1l0,0v0.1h-0.3C46.2,17.6,46.2,17.5,46.2,17.4L46.2,17.4
	C46.2,17.5,46.2,17.4,46.2,17.4z"/>
<path id="rect3273" class="st8" d="M46.2,17.4l0.4-0.1c0.1,0,0.1,0,0.1,0.1v0.1c0,0,0,0.1-0.1,0.1l-0.4,0.1c-0.1,0-0.1,0-0.1-0.1
	L46.2,17.4C46.1,17.4,46.1,17.4,46.2,17.4z"/>
<path id="rect3275" class="st32" d="M49.1,17.4h-0.3h-0.1l0,0v0.1L49.1,17.4C49.1,17.6,49.1,17.5,49.1,17.4L49.1,17.4L49.1,17.4z"/>
<path id="rect3277" class="st24" d="M49.1,17.4l-0.4-0.1c-0.1,0-0.1,0-0.1,0.1v0.1c0,0,0,0.1,0.1,0.1l0.4,0.1c0.1,0,0.1,0,0.1-0.1
	L49.1,17.4C49.2,17.4,49.2,17.4,49.1,17.4z"/>
<path id="path3279" class="st8" d="M47.7,17.5l0.3-0.2l-0.3-0.2l-0.4,0.2C47.4,17.4,47.7,17.5,47.7,17.5z"/>
<path id="path3289" class="st24" d="M48.3,17.4C48.3,17.4,48.2,17.4,48.3,17.4C48.2,17.3,48.3,17.3,48.3,17.4
	C48.3,17.3,48.3,17.3,48.3,17.4C48.3,17.3,48.3,17.3,48.3,17.4L48.3,17.4L48.3,17.4z"/>
<path id="path3291" class="st24" d="M48.3,17.5C48.3,17.5,48.2,17.5,48.3,17.5C48.2,17.4,48.3,17.4,48.3,17.5
	C48.3,17.4,48.3,17.4,48.3,17.5C48.3,17.4,48.3,17.4,48.3,17.5L48.3,17.5L48.3,17.5z"/>
<path id="path3299" class="st24" d="M47,17.4L47,17.4C47,17.3,47,17.3,47,17.4C47,17.3,47,17.3,47,17.4C47.1,17.3,47.1,17.3,47,17.4
	C47.1,17.4,47.1,17.4,47,17.4L47,17.4z"/>
<path id="path3301" class="st24" d="M47,17.5L47,17.5C47,17.4,47,17.4,47,17.5C47,17.4,47,17.4,47,17.5C47.1,17.4,47.1,17.4,47,17.5
	C47.1,17.5,47.1,17.5,47,17.5L47,17.5z"/>
<path id="path3319" class="st24" d="M45.9,17.5L45.9,17.5C45.9,17.5,45.9,17.4,45.9,17.5C45.9,17.4,45.9,17.4,45.9,17.5
	C45.8,17.4,45.8,17.5,45.9,17.5C45.8,17.5,45.9,17.5,45.9,17.5L45.9,17.5z"/>
<path id="path29353" class="st24" d="M45.9,17.7C45.9,17.7,46,17.6,45.9,17.7C45.9,17.6,45.9,17.6,45.9,17.7
	C45.9,17.6,45.9,17.6,45.9,17.7C45.9,17.6,45.9,17.6,45.9,17.7L45.9,17.7L45.9,17.7z"/>
<path id="path30333" class="st23" d="M44.8,15.1c0.7-0.2,1.6-0.4,2.8-0.4c1.1,0,2.3,0.1,3,0.4l-0.1,0.5c-0.7-0.2-1.7-0.4-2.8-0.4
	c-1,0-2.3,0.2-2.8,0.4C44.9,15.7,44.8,15.1,44.8,15.1z"/>
<path id="path30337" class="st6" d="M50.2,14.8L50,14.5c0,0-0.2,0.2-0.4,0.2c-0.2,0-0.3-0.4-0.3-0.4s-0.3,0.4-0.5,0.3
	c-0.2,0-0.3-0.2-0.3-0.2s-0.2,0.2-0.4,0.1c-0.2,0-0.5-0.4-0.5-0.4s-0.2,0.4-0.4,0.4c-0.2,0-0.4-0.3-0.4-0.3s-0.1,0.3-0.3,0.3
	c-0.3,0-0.4-0.3-0.4-0.3s-0.1,0.4-0.3,0.5c-0.2,0.1-0.4-0.2-0.4-0.2l-0.2,0.3l0.1,0.2c0.6-0.2,1.5-0.3,2.4-0.3c1,0,1.8,0.1,2.5,0.3
	L50.2,14.8L50.2,14.8z"/>
<path id="path30339" class="st6" d="M44.5,14.4c0.1,0.3,0.3,0.5,0.6,0.5c0.3-0.1,0.3-0.3,0.3-0.3s0.2,0.2,0.4,0.2
	c0.2-0.1,0.3-0.4,0.3-0.4s0.2,0.3,0.5,0.3c0.2,0,0.3-0.3,0.3-0.3s0.1,0.3,0.4,0.2c0.3,0,0.4-0.4,0.4-0.4s0.2,0.4,0.5,0.4
	s0.4-0.2,0.4-0.2s0.1,0.2,0.3,0.3c0.3,0,0.5-0.3,0.5-0.3s0.1,0.4,0.3,0.4c0.2,0,0.4-0.2,0.4-0.2s0.1,0.3,0.3,0.3
	c0.2,0,0.4-0.2,0.6-0.5c-0.2,0.1-0.4,0.4-0.6,0.3c-0.2,0-0.3-0.4-0.3-0.4s-0.2,0.3-0.4,0.2c-0.2-0.1-0.3-0.7-0.3-0.7
	s-0.3,0.7-0.5,0.6S48.5,14,48.5,14s-0.1,0.4-0.4,0.4s-0.5-0.8-0.5-0.8s-0.2,0.8-0.4,0.8c-0.2,0-0.4-0.4-0.4-0.4s-0.1,0.4-0.3,0.4
	c-0.2,0-0.6-0.6-0.6-0.6s0,0.7-0.2,0.7c-0.2,0.1-0.5-0.3-0.5-0.3s0.1,0.4-0.1,0.4C44.9,14.8,44.7,14.5,44.5,14.4z"/>
<path id="path30341" class="st23" d="M47.7,14.8c-1.1,0-2.1,0.1-2.8,0.4c0,0-0.1,0-0.1-0.1c0,0,0-0.1,0.1-0.1
	c0.7-0.2,1.7-0.4,2.8-0.4c1.1,0,2.1,0.1,2.9,0.4l0.1,0.1l-0.1,0.1C49.8,14.9,48.8,14.8,47.7,14.8z"/>
<path id="path30349" class="st6" d="M48.4,13.7c0,0-0.4,0-0.5-0.1s-0.1-0.2,0-0.2l0.2-0.1c0.1,0,0.2,0,0.2,0.1s-0.2,0.1-0.2,0.1
	s0.3-0.1,0.3,0C48.5,13.6,48.5,13.7,48.4,13.7c-0.1,0.1-0.4,0-0.4,0s0.3,0.1,0.2,0.2c0,0.1-0.2,0.1-0.3,0.1c-0.1,0-0.2-0.1-0.2-0.2
	s0-0.2,0.1-0.2C48.1,13.6,48.4,13.7,48.4,13.7L48.4,13.7z"/>
<path id="path30351" class="st6" d="M47,13.7c0,0,0.4,0,0.5,0c0.1-0.1,0.1-0.2,0-0.2l-0.2-0.1c0,0-0.2,0-0.2,0.1s0.2,0.1,0.2,0.1
	S47,13.5,47,13.7C46.9,13.7,46.9,13.8,47,13.7c0,0.2,0.4,0.1,0.4,0.1s-0.3,0-0.2,0.2c0,0.1,0.2,0.1,0.3,0.1c0.1,0,0.2-0.1,0.2-0.2
	s0-0.2-0.1-0.2C47.3,13.7,47,13.7,47,13.7z"/>
<path id="path30353" class="st6" d="M47.7,12.9c0,0,0,0.4,0,0.5c0.1,0.1,0.2,0.1,0.2,0l0.1-0.2c0-0.1,0-0.2-0.1-0.2
	s-0.1,0.2-0.1,0.2S47.9,12.9,47.7,12.9C47.7,12.7,47.6,12.7,47.7,12.9c-0.2-0.1-0.1,0.3-0.1,0.3s0-0.3-0.2-0.3
	c-0.1,0-0.1,0.2-0.1,0.3c0,0.1,0.1,0.2,0.2,0.2s0.2,0,0.2-0.1S47.7,12.9,47.7,12.9z"/>
<path id="path30355" class="st26" d="M47.9,13.7c0,0.2-0.1,0.3-0.2,0.3s-0.2-0.1-0.2-0.3s0.1-0.3,0.2-0.3
	C47.8,13.3,47.9,13.5,47.9,13.7z"/>
<path id="path30359" class="st6" d="M50,13.9c0,0-0.4-0.1-0.4-0.2s0-0.2,0.1-0.2s0.2-0.1,0.3,0s0.2,0.1,0.2,0.1
	c0,0.1-0.2,0.1-0.2,0.1s0.3,0,0.3,0.1s0.1,0.2,0,0.2C50.2,14.1,49.9,13.9,50,13.9c-0.1,0,0.2,0.1,0.1,0.2c0,0.1-0.2,0.1-0.3,0
	c-0.1,0-0.2-0.1-0.2-0.2s0.1-0.2,0.1-0.2C49.8,13.8,50,13.9,50,13.9z"/>
<path id="path30361" class="st6" d="M48.7,13.7c0,0,0.4,0.1,0.5,0.1c0.1-0.1,0.1-0.1,0-0.2c0-0.1-0.1-0.1-0.2-0.1s-0.2,0-0.2,0.1
	s0.2,0.2,0.2,0.2L48.7,13.7c-0.1,0.1-0.1,0.1-0.1,0.2S49,14,49,14s-0.3,0-0.3,0.1s0.1,0.1,0.2,0.1s0.2,0,0.3-0.1
	c0-0.1,0-0.2-0.1-0.2C49,13.7,48.7,13.7,48.7,13.7z"/>
<path id="path30363" class="st6" d="M49.5,13c0,0-0.1,0.4,0,0.5s0.1,0.1,0.2,0c0.1,0,0.1-0.1,0.1-0.2s0-0.2-0.1-0.2
	s-0.2,0.2-0.2,0.2V13C49.6,12.9,49.5,12.9,49.5,13c-0.2-0.1-0.2,0.3-0.2,0.3s0-0.3-0.1-0.3s-0.1,0.1-0.1,0.2s0,0.2,0.1,0.3
	c0.1,0,0.2,0,0.2-0.1C49.5,13.3,49.5,13,49.5,13z"/>
<path id="path30365" class="st27" d="M49.6,13.8c0,0.2-0.1,0.3-0.2,0.3s-0.1-0.2-0.1-0.3c0-0.2,0.1-0.3,0.2-0.3
	C49.6,13.5,49.6,13.6,49.6,13.8z"/>
<path id="path30369" class="st6" d="M45.3,13.9l0.4-0.1c0-0.1,0-0.2-0.1-0.2s-0.2-0.1-0.3,0c-0.1,0-0.2,0.1-0.2,0.1
	C45.1,13.8,45.3,13.8,45.3,13.9c0-0.1-0.3-0.1-0.3,0s-0.1,0.2,0,0.2C45.1,14.2,45.4,14,45.3,13.9c0.1,0.1-0.2,0.2-0.1,0.3
	c0,0.1,0.2,0.1,0.3,0c0.1,0,0.2-0.1,0.2-0.2s-0.1-0.2-0.1-0.2C45.6,13.8,45.3,13.9,45.3,13.9z"/>
<path id="path30371" class="st6" d="M46.6,13.7c0,0-0.4,0.1-0.5,0s-0.1-0.1,0-0.2c0-0.1,0.1-0.1,0.2-0.1s0.2,0,0.2,0.1
	s-0.2,0.2-0.2,0.2H46.6C46.7,13.7,46.7,13.7,46.6,13.7c0.1,0.2-0.3,0.2-0.3,0.2s0.3,0,0.3,0.1s-0.1,0.1-0.2,0.1s-0.2,0-0.3-0.1
	c0-0.1,0-0.2,0.1-0.2C46.3,13.7,46.6,13.7,46.6,13.7z"/>
<path id="path30373" class="st6" d="M45.8,13c0,0,0.1,0.4,0,0.5s-0.1,0.1-0.2,0c-0.1,0-0.1-0.1-0.1-0.2s0-0.2,0.1-0.2
	s0.2,0.2,0.2,0.2V13C45.8,12.9,45.8,12.9,45.8,13c0.2-0.1,0.2,0.3,0.2,0.3s0-0.3,0.1-0.3s0.1,0.1,0.1,0.3s0,0.2-0.1,0.3
	c-0.1,0-0.2,0-0.2-0.1C45.9,13.3,45.8,13,45.8,13z"/>
<path id="path30375" class="st27" d="M45.8,13.8c0,0.2,0.1,0.3,0.2,0.3s0.1-0.2,0.1-0.3c0-0.2-0.1-0.3-0.2-0.3S45.8,13.6,45.8,13.8z
	"/>
<path id="path30379" class="st6" d="M50.4,14.1c0,0,0.3,0.2,0.4,0.2s0.1-0.1,0.1-0.2s-0.1-0.2-0.2-0.2s-0.2-0.1-0.2,0
	s0.1,0.2,0.1,0.2s-0.2-0.2-0.3-0.2c-0.1,0-0.2,0.1-0.1,0.2c0,0.1,0.3,0.2,0.3,0.2s-0.3-0.1-0.3,0s0.1,0.2,0.2,0.2s0.2,0,0.3,0
	c0.1-0.1,0.1-0.2,0-0.2C50.6,14.2,50.4,14.1,50.4,14.1z"/>
<path id="path30381" class="st6" d="M51.4,13.7C51.4,13.6,51.4,13.5,51.4,13.7c-0.2,0-0.3,0.3-0.3,0.3s0.1-0.3,0-0.3
	s-0.2,0.1-0.2,0.2s0,0.2,0,0.3c0.1,0.1,0.2,0.1,0.3,0C51.4,13.9,51.4,13.8,51.4,13.7z"/>
<path id="path30383" class="st26" d="M51.1,14.5c-0.1,0.1-0.2,0.2-0.3,0.2c-0.1-0.1-0.1-0.2,0-0.4c0.1-0.1,0.2-0.2,0.3-0.2
	S51.2,14.3,51.1,14.5z"/>
<path id="path30387" class="st6" d="M45,14c0,0-0.3,0.2-0.4,0.2s-0.1-0.1-0.1-0.2s0.1-0.2,0.2-0.2s0.2-0.1,0.2,0S44.8,14,44.8,14
	s0.2-0.2,0.3-0.2c0.1,0,0.2,0.1,0.1,0.2c0,0.1-0.3,0.2-0.3,0.2s0.3-0.1,0.3,0s-0.1,0.2-0.2,0.2s-0.2,0-0.3,0c-0.1-0.1-0.1-0.2,0-0.2
	C44.7,14.2,45,14,45,14z"/>
<path id="path30389" class="st6" d="M43.9,13.7C43.9,13.6,43.9,13.5,43.9,13.7c0.2,0,0.3,0.3,0.3,0.3s-0.1-0.3,0-0.3
	s0.2,0.1,0.2,0.2s0,0.2,0,0.3c-0.1,0.1-0.2,0.1-0.3,0C44,13.9,43.9,13.8,43.9,13.7z"/>
<path id="path30391" class="st26" d="M44.2,14.5c0.1,0.1,0.2,0.2,0.3,0.2s0.1-0.2,0-0.4c-0.1-0.1-0.2-0.2-0.3-0.2
	S44.1,14.3,44.2,14.5z"/>
<radialGradient id="path30393_1_" cx="-2924.1917" cy="-1521.9882" r="1.0436" gradientTransform="matrix(0.1256 0 0 -0.1275 417.3381 -179.7335)" gradientUnits="userSpaceOnUse">
	<stop  offset="0" style="stop-color:#FFFFFF"/>
	<stop  offset="1" style="stop-color:#C9C9C9"/>
</radialGradient>
<path id="path30393" class="st35" d="M50.2,14.3C50.2,14.4,50.1,14.4,50.2,14.3H50C50,14.2,50.1,14.2,50.2,14.3
	C50.1,14.2,50.2,14.2,50.2,14.3z"/>
<radialGradient id="path30395_1_" cx="-2943.7732" cy="-1341.1365" r="1.027" gradientTransform="matrix(0.1437 0 0 -0.1459 471.5364 -181.6392)" gradientUnits="userSpaceOnUse">
	<stop  offset="0" style="stop-color:#FFFFFF"/>
	<stop  offset="1" style="stop-color:#C9C9C9"/>
</radialGradient>
<path id="path30395" class="st36" d="M48.6,14C48.6,14.1,48.5,14.1,48.6,14c-0.2,0.1-0.2,0-0.2,0C48.4,13.9,48.5,13.9,48.6,14
	C48.6,13.9,48.6,13.9,48.6,14z"/>
<radialGradient id="path30397_1_" cx="-2860.0303" cy="-1340.3182" r="1.027" gradientTransform="matrix(0.1437 0 0 -0.1459 457.8406 -181.5033)" gradientUnits="userSpaceOnUse">
	<stop  offset="0" style="stop-color:#FFFFFF"/>
	<stop  offset="1" style="stop-color:#C9C9C9"/>
</radialGradient>
<path id="path30397" class="st37" d="M47,14C47,14.1,46.9,14.1,47,14c-0.2,0.1-0.2,0-0.2,0C46.8,13.9,46.9,13.9,47,14
	C46.9,13.9,47,14,47,14z"/>
<radialGradient id="path30399_1_" cx="-2672.5237" cy="-1484.5107" r="1.0404" gradientTransform="matrix(0.1287 0 0 -0.1307 389.3279 -179.7973)" gradientUnits="userSpaceOnUse">
	<stop  offset="0" style="stop-color:#FFFFFF"/>
	<stop  offset="1" style="stop-color:#C9C9C9"/>
</radialGradient>
<path id="path30399" class="st38" d="M45.4,14.3C45.4,14.4,45.3,14.4,45.4,14.3h-0.2H45.4C45.3,14.2,45.4,14.2,45.4,14.3z"/>
<path id="path30401" class="st23" d="M47.7,15.4c-1.1,0-2,0.1-2.7,0.4c0,0-0.1,0-0.1-0.1c0,0,0-0.1,0.1-0.1c0.7-0.2,1.7-0.4,2.7-0.4
	c1.1,0,2.1,0.1,2.7,0.4l0.1,0.1l-0.1,0.1C49.7,15.5,48.8,15.4,47.7,15.4z"/>
<path id="path30403" class="st25" d="M47.7,15.1l0.2-0.1l-0.2-0.1L47.5,15C47.5,15,47.7,15.1,47.7,15.1z"/>
<path id="rect30405" class="st32" d="M46,15h0.4c0,0,0.1,0,0.1,0.1l0,0c0,0,0,0.1-0.1,0.1H46C45.9,15.2,45.9,15.1,46,15L46,15
	C45.9,15.1,45.9,15,46,15z"/>
<path id="rect30407" class="st8" d="M45.9,15l0.5-0.1c0.1,0,0.1,0,0.1,0.1v0.1c0,0.1,0,0.1-0.1,0.1l-0.5,0.1c-0.1,0-0.1,0-0.1-0.1
	L45.9,15C45.8,15,45.8,15,45.9,15z"/>
<path id="rect30409" class="st32" d="M49.4,15H49c0,0-0.1,0-0.1,0.1l0,0c0,0,0,0.1,0.1,0.1h0.4C49.4,15.2,49.4,15.1,49.4,15L49.4,15
	L49.4,15z"/>
<path id="rect30411" class="st24" d="M49.4,14.9l-0.5-0.1c-0.1,0-0.1,0-0.1,0.1V15c0,0.1,0,0.1,0.1,0.1l0.5,0.1c0.1,0,0.1,0,0.1-0.1
	L49.4,14.9C49.5,15,49.5,15,49.4,14.9z"/>
<path id="path30413" class="st8" d="M47.7,15.2l0.4-0.2l-0.4-0.2L47.3,15C47.3,14.9,47.7,15.2,47.7,15.2z"/>
<path id="path30419" class="st24" d="M48.4,15C48.4,15,48.4,14.9,48.4,15C48.3,14.9,48.4,14.9,48.4,15L48.4,15
	C48.4,14.8,48.5,14.9,48.4,15C48.5,14.9,48.4,15,48.4,15L48.4,15z"/>
<path id="path30421" class="st24" d="M48.4,15.1L48.4,15.1C48.3,15,48.4,15,48.4,15.1L48.4,15.1C48.4,15,48.5,15,48.4,15.1
	C48.5,15.1,48.4,15.1,48.4,15.1L48.4,15.1z"/>
<path id="path30425" class="st24" d="M46.9,15C46.9,15,46.9,14.9,46.9,15C46.8,14.9,46.9,14.9,46.9,15L46.9,15
	C46.9,14.9,47,14.9,46.9,15C47,14.9,46.9,15,46.9,15L46.9,15z"/>
<path id="path30427" class="st24" d="M46.9,15.1L46.9,15.1C46.8,15,46.9,15,46.9,15.1L46.9,15.1C46.9,15,47,15,46.9,15.1
	C47,15.1,46.9,15.1,46.9,15.1L46.9,15.1z"/>
<path id="path3309" class="st24" d="M49.5,17.5L49.5,17.5C49.5,17.5,49.5,17.4,49.5,17.5C49.5,17.4,49.5,17.4,49.5,17.5
	C49.6,17.4,49.6,17.5,49.5,17.5C49.6,17.5,49.5,17.5,49.5,17.5L49.5,17.5z"/>
<path id="path3311" class="st24" d="M49.5,17.7C49.5,17.7,49.5,17.6,49.5,17.7C49.5,17.6,49.5,17.6,49.5,17.7
	C49.5,17.6,49.5,17.6,49.5,17.7C49.5,17.6,49.6,17.6,49.5,17.7L49.5,17.7L49.5,17.7z"/>
<path id="path3133" class="st25" d="M45.3,17.8L45.3,17.8v-0.2h0.2L45.3,17.8z"/>
<path id="path3253" class="st6" d="M45.4,16.6l-0.3,0.2c-0.1,0-0.1-0.1-0.1-0.2s0.1-0.1,0.1-0.2c0.1,0,0.1-0.1,0.2,0l-0.1,0.2
	l0.2-0.2C45.5,16.4,45.5,16.5,45.4,16.6c0.1,0.1-0.2,0.2-0.2,0.2s0.2-0.1,0.3,0c0,0.1-0.1,0.2-0.2,0.2s-0.2,0-0.2,0
	c-0.1-0.1-0.1-0.1,0-0.2C45.2,16.7,45.4,16.6,45.4,16.6z"/>
<path id="path3255" class="st6" d="M44.5,16.3C44.5,16.2,44.5,16.1,44.5,16.3c0.2-0.1,0.3,0.2,0.3,0.2s-0.1-0.2,0-0.3
	c0.1,0,0.1,0.1,0.2,0.2c0,0.1,0,0.2,0,0.2c-0.1,0.1-0.2,0-0.2,0C44.6,16.5,44.5,16.4,44.5,16.3z"/>
<path id="path3257" class="st26" d="M44.8,17c0.1,0.1,0.2,0.2,0.3,0.1s0.1-0.2,0-0.3c-0.1-0.1-0.2-0.2-0.3-0.1
	C44.7,16.7,44.7,16.9,44.8,17z"/>
<radialGradient id="path3265_1_" cx="-2496.8806" cy="-1613.1234" r="1.0404" gradientTransform="matrix(0.1077 0 0 -0.1093 314.6026 -159.5829)" gradientUnits="userSpaceOnUse">
	<stop  offset="0" style="stop-color:#FFFFFF"/>
	<stop  offset="1" style="stop-color:#C9C9C9"/>
</radialGradient>
<path id="path3265" class="st39" d="M45.8,16.8C45.8,16.9,45.7,16.9,45.8,16.8c-0.2,0.1-0.2,0.1-0.2,0
	C45.6,16.8,45.6,16.7,45.8,16.8C45.7,16.7,45.8,16.8,45.8,16.8z"/>
<path id="path3281" class="st8" d="M45.4,17.9l0.3-0.3l-0.3-0.1"/>
<path id="path30343" class="st25" d="M44.9,15.4L44.9,15.4v-0.2h0.2L44.9,15.4z"/>
<path id="path30415" class="st8" d="M44.9,15.6l0.4-0.3l-0.4-0.1"/>
<path id="path30437" class="st24" d="M45.5,15.2C45.6,15.1,45.6,15.1,45.5,15.2C45.5,15.1,45.5,15.1,45.5,15.2L45.5,15.2
	C45.5,15,45.5,15.1,45.5,15.2C45.5,15.1,45.5,15.2,45.5,15.2L45.5,15.2z"/>
<path id="path30439" class="st24" d="M45.6,15.3L45.6,15.3C45.6,15.2,45.6,15.2,45.6,15.3L45.6,15.3C45.5,15.2,45.5,15.2,45.6,15.3
	C45.5,15.3,45.5,15.3,45.6,15.3L45.6,15.3z"/>
<path id="path3245" class="st6" d="M49.9,16.6l0.3,0.2c0.1,0,0.1-0.1,0.1-0.2s-0.1-0.1-0.1-0.2c-0.1,0-0.1-0.1-0.2,0l0.1,0.2
	l-0.2-0.2C49.8,16.4,49.8,16.5,49.9,16.6c-0.1,0.1,0.2,0.2,0.2,0.2s-0.2-0.1-0.3,0c0,0.1,0.1,0.2,0.2,0.2s0.2,0,0.2,0
	c0.1-0.1,0.1-0.1,0-0.2L49.9,16.6z"/>
<path id="path3247" class="st6" d="M50.8,16.3C50.8,16.2,50.8,16.1,50.8,16.3c-0.2-0.1-0.3,0.2-0.3,0.2s0.1-0.2,0-0.3
	c-0.1,0-0.1,0.1-0.2,0.2c0,0.1,0,0.2,0,0.2c0.1,0.1,0.2,0,0.2,0C50.8,16.5,50.8,16.4,50.8,16.3z"/>
<path id="path30335" class="st24" d="M50.5,15.6l-0.3-0.3l0.4-0.1"/>
<path id="path30345" class="st25" d="M50.5,15.4L50.5,15.4v-0.2h-0.2C50.3,15.3,50.5,15.4,50.5,15.4z"/>
<path id="path30431" class="st24" d="M49.9,15.2C49.8,15.1,49.8,15.1,49.9,15.2C49.9,15.1,49.9,15.1,49.9,15.2L49.9,15.2
	C49.9,15,49.9,15.1,49.9,15.2C49.9,15.1,49.9,15.2,49.9,15.2L49.9,15.2z"/>
<path id="path30433" class="st24" d="M49.9,15.3C49.8,15.3,49.8,15.3,49.9,15.3C49.9,15.2,49.9,15.2,49.9,15.3L49.9,15.3
	C49.9,15.2,49.9,15.2,49.9,15.3L49.9,15.3L49.9,15.3z"/>
<path id="path3107" class="st24" d="M50,17.9l-0.3-0.3l0.3-0.1"/>
<path id="path3135" class="st25" d="M50,17.8L50,17.8v-0.2h-0.2L50,17.8z"/>
<path id="path3249" class="st26" d="M50.5,17c-0.1,0.1-0.2,0.2-0.3,0.1s-0.1-0.2,0-0.3c0.1-0.1,0.2-0.2,0.3-0.1
	C50.6,16.7,50.6,16.9,50.5,17z"/>
<radialGradient id="path3259_1_" cx="-2743.4395" cy="-1654.0308" r="1.0436" gradientTransform="matrix(0.105 0 0 -0.1066 337.8219 -159.5564)" gradientUnits="userSpaceOnUse">
	<stop  offset="0" style="stop-color:#FFFFFF"/>
	<stop  offset="1" style="stop-color:#C9C9C9"/>
</radialGradient>
<path id="path3259" class="st40" d="M49.8,16.8C49.8,16.9,49.7,16.9,49.8,16.8c-0.1,0.1-0.2,0.1-0.2,0S49.6,16.7,49.8,16.8
	C49.7,16.7,49.8,16.8,49.8,16.8z"/>
<path id="rect3671" class="st5" d="M47.7,9.1c-0.1,0-0.2,0-0.3,0.1c0,0.1,0,0.2,0,0.3c0.1,0,0.3-0.1,0.3-0.1s0.3,0,0.3,0.1
	c0-0.1,0-0.2,0-0.3C47.9,9.1,47.8,9.1,47.7,9.1z"/>
<path id="path4404" class="st6" d="M40.4,13.8c0.1,0,0.3,0.1,0.3,0.3L40.6,14c-0.2,0.1-0.5,0.4-0.6,0.6l0.1,0.1
	c-0.2,0-0.3-0.1-0.3-0.3C40,14.1,40.1,14,40.4,13.8z"/>
<path id="path7762" class="st5" d="M41.4,13.7L41.4,13.7L41.4,13.7c0,0.2-0.2,0.4-0.3,0.3l0,0l0,0l0,0C41.3,14,41.3,13.8,41.4,13.7
	L41.4,13.7L41.4,13.7z"/>
<path id="path7764" class="st5" d="M41.5,13.7L41.5,13.7L41.5,13.7c0,0.2-0.2,0.4-0.3,0.4l0,0l0,0l0,0C41.3,14,41.4,13.9,41.5,13.7
	C41.4,13.7,41.4,13.7,41.5,13.7z"/>
<path id="path7766" class="st5" d="M41.5,13.7L41.5,13.7C41.5,13.8,41.5,13.8,41.5,13.7c0,0.2-0.1,0.4-0.2,0.5l0,0l0,0l0,0
	C41.3,14.1,41.4,13.9,41.5,13.7L41.5,13.7L41.5,13.7z"/>
<path id="path7768" class="st5" d="M41.6,13.8C41.6,13.8,41.7,13.9,41.6,13.8C41.7,13.9,41.7,13.9,41.6,13.8c0,0.2-0.2,0.4-0.2,0.5
	c0,0,0,0-0.1,0c0,0,0,0,0-0.1C41.4,14.2,41.6,14,41.6,13.8L41.6,13.8z"/>
<path id="path7770" class="st5" d="M41.6,13.8L41.6,13.8L41.6,13.8c0,0.1,0,0.2-0.1,0.3c0,0.1-0.1,0.1-0.2,0.1l0,0l0,0l0,0
	c0.1,0,0.1,0,0.1-0.1C41.5,14,41.5,13.9,41.6,13.8C41.5,13.8,41.6,13.8,41.6,13.8L41.6,13.8z"/>
<path id="path7772" class="st5" d="M41.7,13.9L41.7,13.9L41.7,13.9c0,0.2-0.2,0.4-0.3,0.4c0,0,0,0-0.1,0c0,0,0,0,0-0.1
	C41.5,14.2,41.6,14,41.7,13.9L41.7,13.9L41.7,13.9z"/>
<path id="path7774" class="st5" d="M41.8,14L41.8,14L41.8,14c0,0.2-0.2,0.4-0.3,0.4c0,0,0,0-0.1,0c-0.1,0,0,0,0-0.1
	C41.5,14.2,41.6,14.1,41.8,14C41.7,13.9,41.7,13.9,41.8,14L41.8,14z"/>
<path id="path7776" class="st5" d="M41.8,14L41.8,14C41.8,14.1,41.9,14.1,41.8,14c0,0.2-0.2,0.3-0.3,0.4c0,0,0,0-0.1,0
	c-0.1,0,0,0,0-0.1C41.6,14.2,41.6,14.1,41.8,14C41.8,14.1,41.8,14,41.8,14L41.8,14z"/>
<path id="path7778" class="st5" d="M41.9,14.1L41.9,14.1L41.9,14.1c0,0.2-0.2,0.3-0.3,0.3c0,0,0,0-0.1,0c0,0,0,0,0-0.1
	C41.7,14.4,41.7,14.3,41.9,14.1L41.9,14.1L41.9,14.1z"/>
<path id="path7780" class="st5" d="M41.9,14.1C42,14.1,42,14.1,41.9,14.1C42,14.1,42,14.1,41.9,14.1c0,0.2-0.1,0.4-0.3,0.3l0,0l0,0
	C41.7,14.4,41.8,14.3,41.9,14.1L41.9,14.1z"/>
<path id="path7782" class="st5" d="M41.9,14.2L41.9,14.2L41.9,14.2c0,0.2-0.1,0.4-0.3,0.4c0,0,0,0-0.1,0c0,0,0,0,0-0.1
	C41.8,14.5,41.8,14.3,41.9,14.2L41.9,14.2L41.9,14.2z"/>
<path id="path7784" class="st5" d="M42,14.2L42,14.2L42,14.2c0,0.2-0.2,0.4-0.3,0.4l0,0l0,0l0,0C41.9,14.5,41.9,14.4,42,14.2
	C41.9,14.2,42,14.2,42,14.2z"/>
<path id="path7786" class="st5" d="M42,14.2C42,14.2,42.1,14.3,42,14.2C42.1,14.4,42.1,14.4,42,14.2c0,0.2-0.2,0.4-0.3,0.4
	c0,0,0,0-0.1,0c0,0,0,0,0-0.1C41.9,14.5,42,14.4,42,14.2L42,14.2L42,14.2z"/>
<path id="path7788" class="st5" d="M42.1,14.4L42.1,14.4L42.1,14.4c0,0.2-0.2,0.4-0.3,0.3l0,0l0,0l0,0C41.9,14.6,42,14.5,42.1,14.4
	L42.1,14.4z"/>
<path id="path7790" class="st5" d="M42.2,14.4L42.2,14.4L42.2,14.4c0,0.2-0.2,0.4-0.3,0.4l0,0l0,0l0,0
	C41.9,14.6,42.1,14.5,42.2,14.4C42.1,14.4,42.1,14.4,42.2,14.4z"/>
<path id="path7792" class="st5" d="M42.2,14.4L42.2,14.4C42.3,14.5,42.3,14.5,42.2,14.4c0,0.2-0.1,0.4-0.2,0.5l0,0l0,0l0,0
	C42,14.7,42.2,14.6,42.2,14.4C42.2,14.5,42.2,14.4,42.2,14.4L42.2,14.4z"/>
<path id="path7794" class="st5" d="M42.3,14.5C42.4,14.5,42.4,14.5,42.3,14.5C42.4,14.6,42.4,14.6,42.3,14.5c0,0.2-0.2,0.4-0.2,0.5
	c0,0,0,0-0.1,0c0,0,0,0,0-0.1C42.1,14.9,42.2,14.7,42.3,14.5L42.3,14.5z"/>
<path id="path7796" class="st5" d="M42.3,14.5L42.3,14.5L42.3,14.5c0,0.1,0,0.2-0.1,0.3c0,0.1-0.1,0.1-0.2,0.1l0,0l0,0l0,0
	c0.1,0,0.1,0,0.1-0.1C42.1,14.7,42.2,14.6,42.3,14.5L42.3,14.5L42.3,14.5z"/>
<path id="path4730" class="st4" d="M43.8,13.8l-1-0.9c0.1,0.1,0.1,0.1,0.2,0.2c0.7,1.4-0.4,5.6,0.9,6.6l0.9,0.9
	c-1.3-1-0.1-5.2-0.9-6.6C43.9,13.9,43.9,13.9,43.8,13.8z"/>
<path id="path4906" class="st5" d="M42.9,13c0,0,0.1,0.1,0.1,0.2c0.7,1.4-0.4,5.5,0.8,6.6c-1.1-1.2,0-5.1-0.7-6.5
	C43.1,13.1,43,13.1,42.9,13C43,13,42.9,13,42.9,13z"/>
<path id="path5895" class="st6" d="M43.6,15.9c0,0.2,0,0.3,0,0.5l-0.2-0.2v0.4l0.2,0.1c0,0.3,0,0.5,0,0.8l0.2,0.2c0-0.3,0-0.6,0-0.8
	l0.2,0.2c0-0.2,0-0.3,0-0.5l-0.2-0.1c0-0.2,0-0.3,0.1-0.4C43.9,16,43.6,15.9,43.6,15.9z"/>
<path id="path4890" class="st5" d="M43.9,13.9c0.7,1.4-0.3,5.3,0.7,6.5l0.1,0.1C43.7,19.3,44.7,15.4,43.9,13.9
	C44,13.9,43.9,13.8,43.9,13.9C43.6,13.6,43.8,13.8,43.9,13.9z M44.7,20.5L44.7,20.5L44.7,20.5L44.7,20.5z"/>
<path id="path4728" class="st4" d="M43.8,13.8l-1-0.9c-0.4-0.4-1.2,0-1.5,0.8l0.9,0.9C42.6,13.8,43.4,13.4,43.8,13.8z"/>
<path id="path4881" class="st5" d="M43.3,13.5c-0.4,0-0.8,0.4-1.1,1l0.1,0.1c0.3-0.8,1-1.2,1.5-0.8l0,0l0,0l0,0l0,0
	C43.6,13.6,43.4,13.5,43.3,13.5z"/>
<path id="path4901" class="st5" d="M42.4,12.7c-0.4,0-0.8,0.4-1.1,1l0.1,0.1c0.3-0.8,1.1-1.2,1.5-0.8l-0.1-0.1
	C42.7,12.8,42.6,12.7,42.4,12.7z"/>
<path id="path5242" class="st5" d="M54,13.7L54,13.7L54,13.7c0,0.2,0.2,0.4,0.3,0.3l0,0l0,0l0,0C54.2,14,54.1,13.8,54,13.7
	C54.1,13.7,54,13.7,54,13.7L54,13.7z"/>
<path id="path5244" class="st5" d="M54,13.7C53.9,13.7,53.9,13.7,54,13.7C53.9,13.7,53.9,13.7,54,13.7c0,0.2,0.2,0.4,0.3,0.4l0,0
	l0,0l0,0C54.2,14,54,13.9,54,13.7L54,13.7z"/>
<path id="path5246" class="st5" d="M53.9,13.7L53.9,13.7C53.9,13.8,53.9,13.8,53.9,13.7c0,0.2,0.1,0.4,0.2,0.5l0,0l0,0l0,0
	C54.1,14.1,54,13.9,53.9,13.7L53.9,13.7L53.9,13.7z"/>
<path id="path5248" class="st5" d="M53.8,13.8L53.8,13.8C53.7,13.9,53.7,13.9,53.8,13.8c0,0.2,0.2,0.4,0.2,0.5c0,0,0,0,0.1,0
	c0,0,0,0,0-0.1C54,14.2,53.9,14,53.8,13.8L53.8,13.8z"/>
<path id="path5250" class="st5" d="M53.8,13.8L53.8,13.8L53.8,13.8c0,0.1,0,0.2,0.1,0.3c0,0.1,0.1,0.1,0.2,0.1l0,0l0,0l0,0
	c-0.1,0-0.1,0-0.1-0.1C54,14,53.9,13.9,53.8,13.8C53.9,13.8,53.9,13.8,53.8,13.8L53.8,13.8z"/>
<path id="path5252" class="st5" d="M53.8,14L53.8,14L53.8,14c0,0.2,0.2,0.4,0.3,0.4c0,0,0,0,0.1,0c0.1,0,0,0,0-0.1
	C53.9,14.2,53.9,14,53.8,14C53.9,13.9,53.8,14,53.8,14L53.8,14z"/>
<path id="path5254" class="st5" d="M53.8,14C53.7,14,53.7,14,53.8,14C53.7,14,53.7,14,53.8,14c0,0.2,0.2,0.4,0.3,0.4c0,0,0,0,0.1,0
	c0,0,0,0,0-0.1C53.9,14.2,53.8,14.1,53.8,14L53.8,14L53.8,14z"/>
<path id="path5256" class="st5" d="M53.7,14L53.7,14C53.7,14.1,53.7,14.1,53.7,14c0,0.2,0.2,0.3,0.3,0.4c0,0,0,0,0.1,0
	c0,0,0,0,0-0.1C53.8,14.2,53.8,14.1,53.7,14L53.7,14L53.7,14z"/>
<path id="path5258" class="st5" d="M53.6,14.1L53.6,14.1L53.6,14.1c0,0.2,0.2,0.3,0.3,0.3c0,0,0,0,0.1,0c0,0,0,0,0-0.1
	C53.8,14.3,53.7,14.3,53.6,14.1C53.7,14.1,53.6,14.1,53.6,14.1L53.6,14.1z"/>
<path id="path5260" class="st5" d="M53.6,14.1C53.6,14.1,53.5,14.1,53.6,14.1C53.5,14.1,53.5,14.1,53.6,14.1c0,0.2,0.1,0.4,0.3,0.3
	l0,0l0,0C53.7,14.4,53.6,14.3,53.6,14.1L53.6,14.1z"/>
<path id="path5262" class="st5" d="M53.5,14.1C53.5,14.2,53.5,14.2,53.5,14.1C53.5,14.2,53.5,14.2,53.5,14.1c0,0.2,0.1,0.4,0.3,0.4
	c0,0,0,0,0.1,0c0,0,0,0,0-0.1C53.7,14.5,53.6,14.3,53.5,14.1C53.5,14.2,53.5,14.1,53.5,14.1L53.5,14.1z"/>
<path id="path5264" class="st5" d="M53.4,14.2L53.4,14.2L53.4,14.2c0,0.2,0.2,0.4,0.3,0.4l0,0l0,0l0,0
	C53.7,14.5,53.5,14.4,53.4,14.2C53.5,14.2,53.5,14.2,53.4,14.2z"/>
<path id="path5266" class="st5" d="M53.4,14.2L53.4,14.2C53.3,14.4,53.3,14.4,53.4,14.2c0,0.2,0.2,0.4,0.3,0.4c0,0,0,0,0.1,0
	s0,0,0-0.1C53.6,14.5,53.5,14.4,53.4,14.2L53.4,14.2L53.4,14.2z"/>
<path id="path5268" class="st5" d="M53.3,14.4L53.3,14.4L53.3,14.4c0,0.2,0.2,0.4,0.3,0.3l0,0l0,0l0,0
	C53.5,14.6,53.5,14.5,53.3,14.4L53.3,14.4z"/>
<path id="path5270" class="st5" d="M53.3,14.4C53.2,14.4,53.2,14.4,53.3,14.4C53.2,14.4,53.2,14.4,53.3,14.4c0,0.2,0.2,0.4,0.3,0.4
	l0,0l0,0l0,0C53.5,14.6,53.4,14.6,53.3,14.4L53.3,14.4z"/>
<path id="path5272" class="st5" d="M53.2,14.4L53.2,14.4C53.3,14.5,53.3,14.5,53.2,14.4c0,0.2,0.1,0.4,0.2,0.5l0,0l0,0l0,0
	C53.4,14.7,53.4,14.6,53.2,14.4C53.3,14.5,53.2,14.4,53.2,14.4L53.2,14.4z"/>
<path id="path5274" class="st5" d="M53.2,14.5C53.2,14.5,53.1,14.5,53.2,14.5C53.1,14.6,53.1,14.6,53.2,14.5c0,0.2,0.2,0.4,0.2,0.5
	c0,0,0,0,0.1,0c0,0,0,0,0-0.1C53.3,14.9,53.2,14.7,53.2,14.5L53.2,14.5z"/>
<path id="path5276" class="st5" d="M53.2,14.5L53.2,14.5L53.2,14.5c0,0.1,0,0.2,0.1,0.3c0,0.1,0.1,0.1,0.2,0.1l0,0l0,0l0,0
	c-0.1,0-0.1,0-0.1-0.1C53.3,14.7,53.3,14.6,53.2,14.5C53.3,14.5,53.2,14.5,53.2,14.5L53.2,14.5z"/>
<path id="path5278" class="st4" d="M51.6,13.8l1-0.9c-0.1,0.1-0.1,0.1-0.2,0.2c-0.7,1.4,0.4,5.6-0.9,6.6l-0.9,0.9
	c1.3-1,0.1-5.2,0.9-6.6C51.4,13.9,51.5,13.9,51.6,13.8z"/>
<path id="path5910" class="st6" d="M51.7,15.9c0,0.2,0,0.3,0,0.5l0.2-0.2v0.4l-0.2,0.1c0,0.3,0,0.5,0,0.8l-0.2,0.2
	c0-0.3,0-0.6,0-0.8l-0.2,0.2c0-0.2,0-0.3,0-0.5l0.2-0.1c0-0.2,0-0.3-0.1-0.4C51.5,16,51.7,15.9,51.7,15.9z"/>
<path id="path5280" class="st5" d="M52.4,13c0,0-0.1,0.1-0.1,0.2c-0.7,1.4,0.4,5.5-0.8,6.6c1.1-1.2,0-5.1,0.7-6.5
	C52.3,13.1,52.3,13.1,52.4,13L52.4,13z"/>
<path id="path5284" class="st5" d="M51.5,13.9c-0.7,1.4,0.3,5.3-0.7,6.5l-0.1,0.1C51.7,19.3,50.7,15.4,51.5,13.9
	C51.4,13.9,51.5,13.8,51.5,13.9C51.7,13.6,51.5,13.8,51.5,13.9z M50.7,20.5L50.7,20.5C50.7,20.5,50.6,20.5,50.7,20.5
	C50.6,20.5,50.7,20.5,50.7,20.5z"/>
<path id="path5282" class="st4" d="M51.6,13.8l1-0.9c0.4-0.4,1.2,0,1.5,0.8l-0.9,0.9C52.7,13.8,52,13.4,51.6,13.8z"/>
<path id="path5286" class="st5" d="M52.1,13.5c0.4,0,0.8,0.4,1.1,1l-0.1,0.1c-0.3-0.8-1-1.2-1.5-0.8l0,0l0,0l0,0l0,0
	C51.8,13.6,51.9,13.5,52.1,13.5z"/>
<path id="path5288" class="st5" d="M52.9,12.7c0.4,0,0.8,0.4,1.1,1l-0.1,0.1c-0.3-0.8-1.1-1.2-1.5-0.8l0.1-0.1
	C52.6,12.8,52.8,12.7,52.9,12.7z"/>
<path id="path5893" class="st6" d="M42.9,13c-0.1,0-0.2,0-0.3,0.1l-0.1-0.2c-0.1,0-0.3,0.1-0.4,0.2c0.1,0,0.2,0.1,0.3,0.1
	c-0.2,0.2-0.5,0.4-0.6,0.5l0.3,0.3c0.1-0.3,0.3-0.5,0.5-0.7c0.1,0.1,0.1,0.1,0.2,0.2c0.1-0.1,0.3-0.2,0.4-0.2
	c-0.1-0.1-0.2-0.1-0.3-0.2c0.1,0,0.2-0.1,0.4,0C43.2,13.3,42.9,13,42.9,13z"/>
<path id="path5908" class="st6" d="M52.4,13c0.1,0,0.2,0,0.3,0.1l0.1-0.2c0.1,0,0.3,0.1,0.4,0.2c-0.1,0-0.2,0.1-0.3,0.1
	c0.2,0.2,0.5,0.4,0.6,0.5L53.2,14c-0.1-0.3-0.3-0.5-0.5-0.7c-0.1,0.1-0.1,0.1-0.2,0.2c-0.1-0.1-0.3-0.2-0.4-0.2
	c0.1-0.1,0.2-0.1,0.3-0.2c-0.1,0-0.2-0.1-0.4,0C52.1,13.3,52.4,13,52.4,13z"/>
</svg>
