<?xml version="1.0" encoding="utf-8"?>
<!-- Generator: Adobe Illustrator 20.0.0, SVG Export Plug-In . SVG Version: 6.00 Build 0)  -->
<svg version="1.1" id="Layer_1" xmlns="http://www.w3.org/2000/svg" xmlns:xlink="http://www.w3.org/1999/xlink" x="0px" y="0px"
	 viewBox="0 0 64 42" style="enable-background:new 0 0 64 42;" xml:space="preserve">
<style type="text/css">
	.st0{fill:#00237A;}
	.st1{fill:#CCCC33;}
	.st2{fill:#FFFFFF;}
	.st3{fill:#99CCFF;}
	.st4{fill:#FF9900;}
	.st5{fill:#CF142B;}
</style>
<path id="Rounded_Rectangle_7_copy_2" class="st0" d="M5.8,0h52.4C61.4,0,64,2.5,64,5.7v30.6c0,3.1-2.6,5.7-5.8,5.7H5.8
	C2.6,42,0,39.5,0,36.3V5.7C0,2.5,2.6,0,5.8,0z"/>
<path class="st1" d="M39.6,12.2c0,9.6,0.8,13,3.4,15.7c2.6,2.6,3.6,3.1,4.4,3.5c0.8-0.5,1.8-1,4.2-3.4c2.3-2.4,3.4-5.8,3.4-16
	c-1.7,0.7-2.6,1-4.1,1c-1.1,0.1-2.8-0.6-3.9-1.1c-0.7,0.4-1.6,0.9-3.4,1C41.7,13,41.1,12.6,39.6,12.2L39.6,12.2z"/>
<path class="st2" d="M40,12.8c0,3-0.2,7,0.5,9.4c0.6,2.4,0.8,2.7,1.3,3.5l11.1-0.1c0.7-1.2,0.7-1.9,1.2-3.8s0.6-6.1,0.6-9.2
	c-1.1,0.6-2.6,1-4,0.8c-1.1-0.1-2.2-0.3-3.4-1c-1.1,0.6-1.4,0.9-3.2,1C42.7,13.4,41.6,13.5,40,12.8L40,12.8z"/>
<path class="st3" d="M41.8,25.6c0.8,1.6,4.5,4.6,5.6,5.2c1.2-0.7,4.5-3.7,5.4-5.2L41.8,25.6L41.8,25.6z"/>
<path class="st4" d="M47.6,17.2c0.4,0.8,1.5,1.7,1.8,2.1c-0.4,0.4-0.5,0.4-0.4,1.2c0.7-0.7,0.7-0.8,1.1-0.6c1,0.9,0.2,2.9-0.6,3.3
	c-0.8,0.5-0.7,0-1.8,0.6c0.5,0.4,1.2-0.1,1.7,0.1c0.3,0.3-0.1,0.9,0.1,1.4c0.5,0,0.4-0.9,0.5-1.2c0.3-1.2,2.3-2,2.4-3.1
	c0.4-0.2,0.8-0.1,1.4,0.2c-0.3-1-1.1-1-1.3-1.3c-0.5-0.8-1-1.7-2.2-1.9c-0.9-0.2-0.8,0.1-1.4-0.3C48.4,17.3,47.4,16.8,47.6,17.2
	L47.6,17.2z"/>
<path class="st4" d="M44.7,20.5c0.6-0.7,0.8-2,1.1-2.5c0.6,0.1,0.6,0.2,1.3-0.2c-1-0.3-1-0.2-1.1-0.7c0.4-1.2,2.6-1.5,3.4-1
	c0.8,0.5,0.3,0.6,1.4,1.3c0.2-0.7-0.6-1-0.7-1.5c0.2-0.4,0.9-0.3,1.3-0.7c-0.3-0.4-1,0.1-1.4,0.2c-1.2,0.3-2.9-1-4-0.6
	c-0.4-0.3-0.5-0.7-0.4-1.2c-0.8,0.7-0.4,1.4-0.6,1.7c-0.5,0.8-1.1,1.6-0.8,2.7c0.2,0.8,0.4,0.7,0.4,1.3
	C44.4,19.7,44.5,20.8,44.7,20.5L44.7,20.5z"/>
<path class="st4" d="M49.3,21c-0.9-0.1-2.2,0.4-2.8,0.4c-0.2-0.5-0.1-0.6-0.8-0.9c0.3,0.9,0.3,1,0,1.3c-1.3,0.3-2.7-1.3-2.7-2.2
	c0-0.9,0.3-0.5,0.4-1.8c-0.7,0.2-0.5,1-0.9,1.3c-0.4,0.1-0.7-0.6-1.3-0.7c-0.2,0.4,0.6,0.8,0.9,1.1c0.9,0.9,0.6,2.9,1.5,3.6
	c0,0.4-0.4,0.7-0.9,1c1,0.3,1.5-0.4,1.9-0.4c1,0,2,0,2.8-0.8c0.6-0.6,0.4-0.7,1-1C48.8,21.6,49.8,21,49.3,21L49.3,21z"/>
<ellipse class="st2" cx="49.9" cy="18.1" rx="0.2" ry="0.2"/>
<path class="st2" d="M44.3,18.2c0-0.1,0-0.2,0.1-0.2s0.2,0,0.2,0.1s0,0.2-0.1,0.2C44.5,18.3,44.4,18.3,44.3,18.2z"/>
<path class="st2" d="M47.5,22.5c-0.1,0.1-0.2,0.1-0.3,0.1s-0.1-0.2-0.1-0.2c0.1-0.1,0.2-0.1,0.3-0.1S47.5,22.4,47.5,22.5z"/>
<path class="st2" d="M7.8,7.3H9L0.9,2.6l0,0C0.8,2.8,0.7,3,0.6,3.1L7.8,7.3z"/>
<path class="st2" d="M32.1,18.2C32.1,18.2,32.1,18.3,32.1,18.2L32.1,18.2c0-0.1,0.1-0.2,0.1-0.3v-0.2l-9-5.2h-1L32.1,18.2z"/>
<path class="st2" d="M18.2,13.3l12.4,7.1c0.5-0.3,0.9-0.7,1.2-1.1L20,12.5h-1.8V13.3z"/>
<path class="st2" d="M1.6,1.8l9.6,5.5H13V6.6L2.9,0.8l0,0C2.4,1,2,1.4,1.6,1.8z"/>
<path class="st5" d="M9.2,7.3h2L1.6,1.8C1.4,2,1.1,2.3,0.9,2.6l0,0L9.2,7.3z"/>
<path class="st5" d="M22.2,12.5h-2.1l11.7,6.7c0.2-0.3,0.3-0.6,0.3-0.9v-0.1L22.2,12.5z"/>
<path class="st2" d="M0.1,20.1c0.1,0.1,0.2,0.1,0.4,0.2L13,13.2v-0.5L0.1,20.1z"/>
<polygon class="st2" points="11.1,12.5 7.9,12.5 0,17 0,19 "/>
<polygon class="st2" points="18.2,7.2 30.8,0 29.7,0 18.2,6.6 "/>
<path class="st2" d="M23.2,7.3l9-5.2V2c-0.1-0.6-0.2-1-0.4-1.4L20.1,7.3H23.2z"/>
<path class="st5" d="M0.1,20.1L13,12.7v-0.2h-1.7L0,19v1L0.1,20.1L0.1,20.1z"/>
<path class="st5" d="M18.2,7.2L18.2,7.2l1.9,0.1l11.7-6.7c-0.1-0.2-0.3-0.4-0.5-0.6h-0.6L18.2,7.2z"/>
<polygon class="st2" points="17.1,8.3 32.1,8.3 32.1,7.3 23.2,7.3 20.1,7.3 18.2,7.3 18.2,7.2 18.2,6.6 18.2,0 17.1,0 "/>
<polygon class="st2" points="14,8.3 14,0 13,0 13,6.6 13,7.3 11.2,7.3 9.2,7.3 9,7.3 7.8,7.3 0,7.3 0,8.3 "/>
<polygon class="st2" points="17.1,20.8 18.2,20.8 18.2,13.3 18.2,12.5 20,12.5 20.1,12.5 22.2,12.5 23.2,12.5 32.1,12.5 32.1,11.4 
	17.1,11.4 "/>
<polygon class="st2" points="11.1,12.5 11.3,12.5 13,12.5 13,12.7 13,13.2 13,20.8 14,20.8 14,11.4 0,11.4 0,12.5 7.9,12.5 "/>
<polygon class="st5" points="17.1,0 14,0 14,8.3 0,8.3 0,11.4 14,11.4 14,20.8 17.1,20.8 17.1,11.4 32.1,11.4 32.1,8.3 17.1,8.3 "/>
</svg>
