<?xml version="1.0" encoding="utf-8"?>
<!-- Generator: Adobe Illustrator 20.0.0, SVG Export Plug-In . SVG Version: 6.00 Build 0)  -->
<svg version="1.1" id="Layer_1" xmlns="http://www.w3.org/2000/svg" xmlns:xlink="http://www.w3.org/1999/xlink" x="0px" y="0px"
	 viewBox="0 0 64 42" style="enable-background:new 0 0 64 42;" xml:space="preserve">
<style type="text/css">
	.st0{fill:#F6C025;}
	.st1{fill:#57A863;}
	.st2{fill:#00267F;}
</style>
<path id="Rounded_Rectangle_7_copy" class="st0" d="M5.8,0h52.3C61.4,0,64,2.6,64,5.7v30.6c0,3.2-2.6,5.7-5.8,5.7H5.8
	C2.6,42,0,39.4,0,36.3V5.7C0,2.6,2.6,0,5.8,0z"/>
<path class="st1" d="M64,5.3v31.4c0-0.1,0-0.3,0-0.4V5.7C64,5.6,64,5.5,64,5.3z"/>
<path class="st2" d="M5.8,42h15.5V0H5.8C2.6,0,0,2.6,0,5.7v30.7C0,39.5,2.6,42.1,5.8,42z"/>
<path class="st2" d="M58.2,42H42.7V0h15.5C61.4,0,64,2.6,64,5.7v30.7C64,39.5,61.4,42.1,58.2,42z"/>
<path d="M41.6,13.1c-1.8,0.3-3.7,1.2-5,2.6c-0.1,0.2,0.8-0.2,0.9-0.2c0.7-0.2-0.2,1-0.3,1.3c-0.7,2.3-1.3,4.5-1.6,7.1
	c0,0.2,0,0.3-0.1,0.3l-2.4-0.4v-8.5c0.6,0,1.4,0.1,1.9,0.3c-1.5-1.5-2.3-3.6-3-5.6c-0.7,2-1.5,4.1-3.1,5.7c0.5-0.2,1.4-0.3,1.9-0.3
	v8.5l-2.4,0.4c-0.1,0-0.1-0.1-0.1-0.3c-0.2-2.6-0.9-4.9-1.6-7.1c-0.1-0.3-1-1.5-0.3-1.3c0.1,0,1,0.4,0.9,0.2c-1.3-1.3-3.1-2.3-5-2.6
	c-0.2,0-0.3,0-0.1,0.2c2.4,3.7,4.4,8.1,4.4,13.3c0.9,0,3.2-0.6,4.1-0.6v6H32l0,0h1.2v-6c0.9,0,3.2,0.6,4.1,0.6c0-5.2,2-9.6,4.4-13.3
	C41.8,13.2,41.8,13.1,41.6,13.1z"/>
</svg>
