<?xml version="1.0" encoding="utf-8"?>
<!-- Generator: Adobe Illustrator 20.0.0, SVG Export Plug-In . SVG Version: 6.00 Build 0)  -->
<svg version="1.1" id="Layer_1" xmlns="http://www.w3.org/2000/svg" xmlns:xlink="http://www.w3.org/1999/xlink" x="0px" y="0px"
	 viewBox="0 0 64 42" style="enable-background:new 0 0 64 42;" xml:space="preserve">
<style type="text/css">
	.st0{fill:#CF142B;}
	.st1{fill:#002B7F;}
	.st2{fill:#FFFFFF;}
	.st3{fill:#2F8F22;}
	.st4{fill:#D40000;}
	.st5{fill:#64B4D1;}
	.st6{fill:none;}
	.st7{fill:#784421;}
	.st8{fill:#F5CE00;}
	.st9{fill:#E4CB5E;}
</style>
<path id="Rounded_Rectangle_7_copy_2" class="st0" d="M5.8,0h52.4C61.4,0,64,2.5,64,5.7v30.6c0,3.1-2.6,5.7-5.8,5.7H5.8
	C2.6,42,0,39.5,0,36.3V5.7C0,2.5,2.6,0,5.8,0z"/>
<path class="st1" d="M32.1,17.8V2.1c0-0.8-0.3-1.5-0.8-2.1H5.8C2.6,0,0,2.5,0,5.7v15.1h29.1C30.8,20.8,32.1,19.5,32.1,17.8z"/>
<path class="st2" d="M7.8,7.3H9L0.9,2.6l0,0C0.8,2.8,0.7,3,0.6,3.1L7.8,7.3z"/>
<path class="st2" d="M32.1,18.2C32.1,18.2,32.1,18.3,32.1,18.2L32.1,18.2c0-0.1,0.1-0.2,0.1-0.3v-0.2l-9-5.2h-1L32.1,18.2z"/>
<path class="st2" d="M18.2,13.3l12.4,7.1c0.5-0.3,0.9-0.7,1.2-1.1L20,12.5h-1.8V13.3z"/>
<path class="st2" d="M1.6,1.8l9.6,5.5H13V6.6L2.9,0.8l0,0C2.4,1,2,1.4,1.6,1.8z"/>
<path class="st0" d="M9.2,7.3h2L1.6,1.8C1.4,2,1.1,2.3,0.9,2.6l0,0L9.2,7.3z"/>
<path class="st0" d="M22.2,12.5h-2.1l11.7,6.7c0.2-0.3,0.3-0.6,0.3-0.9v-0.1L22.2,12.5z"/>
<path class="st2" d="M0.1,20.1c0.1,0.1,0.2,0.1,0.4,0.2L13,13.2v-0.5L0.1,20.1z"/>
<polygon class="st2" points="11.1,12.5 7.9,12.5 0,17 0,19 "/>
<polygon class="st2" points="18.2,7.2 30.8,0 29.7,0 18.2,6.6 "/>
<path class="st2" d="M23.2,7.3l9-5.2V2c-0.1-0.6-0.2-1-0.4-1.4L20.1,7.3H23.2z"/>
<path class="st0" d="M0.1,20.1L13,12.7v-0.2h-1.7L0,19v1L0.1,20.1L0.1,20.1z"/>
<path class="st0" d="M18.2,7.2L18.2,7.2l1.9,0.1l11.7-6.7c-0.1-0.2-0.3-0.4-0.5-0.6h-0.6L18.2,7.2z"/>
<polygon class="st2" points="17.1,8.3 32.1,8.3 32.1,7.3 23.2,7.3 20.1,7.3 18.2,7.3 18.2,7.2 18.2,6.6 18.2,0 17.1,0 "/>
<polygon class="st2" points="14,8.3 14,0 13,0 13,6.6 13,7.3 11.2,7.3 9.2,7.3 9,7.3 7.8,7.3 0,7.3 0,8.3 "/>
<polygon class="st2" points="17.1,20.8 18.2,20.8 18.2,13.3 18.2,12.5 20,12.5 20.1,12.5 22.2,12.5 23.2,12.5 32.1,12.5 32.1,11.4 
	17.1,11.4 "/>
<polygon class="st2" points="11.1,12.5 11.3,12.5 13,12.5 13,12.7 13,13.2 13,20.8 14,20.8 14,11.4 0,11.4 0,12.5 7.9,12.5 "/>
<polygon class="st0" points="17.1,0 14,0 14,8.3 0,8.3 0,11.4 14,11.4 14,20.8 17.1,20.8 17.1,11.4 32.1,11.4 32.1,8.3 17.1,8.3 "/>
<path class="st2" d="M56.1,8.1v19c0,5.1-10.2,6.7-10.2,6.7s-10.2-1.7-10.2-6.7v-19C35.7,8.1,56.1,8.1,56.1,8.1z"/>
<path class="st3" d="M56.1,27.1c0,5.1-10.2,6.7-10.2,6.7s-10.2-1.7-10.2-6.7c0,0,0-0.4,0.2-0.6c0,0-0.1,0.8,0.5,1.5
	c0,0-0.5-0.9,0-1.8c0,0-0.2,1.1,0.5,1.8c0,0-0.4-0.9,0.1-2c0,0-0.2,1.7,0.6,2c0,0,0.2-1-0.1-1.6c0,0,0.5,0.2,0.5,1.6
	c0,0,0.2-0.2,0.2-1.2c0,0,0,1.2,0.4,1.4c0,0,0.1-0.1,0-0.6c-0.2-0.5,0.1-0.7,0.1-0.7s-0.1,0.6,0.4,1c0,0-0.2-0.9,0.1-1
	c0,0-0.1,0.8,0.6,1c0,0,0-0.2-0.1-0.5c0,0-0.1-0.3,0-0.5c0,0,0.2,0.7,0.5,0.8c0,0-0.2-0.4,0-0.8c0,0,0,0.6,0.6,0.8
	c0,0-0.3-0.5-0.2-1l3.4,0.2l1.8,0.1l5.3-0.4l0.9-0.8c0,0,0.4,0.5-0.2,1.3c0,0,0.6-0.1,0.7-1c0,0,0.2,0.5-0.1,1c0,0,0.6-0.6,0.7-1.3
	c0,0,0.2,0.7-0.3,1.4c0,0,0.5-0.2,0.7-1c0,0,0.2,0.5-0.3,1.1c0,0,1-0.5,0.9-1.5c0,0,0.4,0.6-0.1,1.4c0,0,0.5-0.4,0.5-1.1
	c0,0,0.3,0.3,0,1.1c0,0,0.6-0.6,0.7-1.2c0,0,0.1,0.6-0.4,1.3c0,0,0.3-0.1,0.7-0.8c0,0,0.1,0.3-0.2,0.8c0,0,0.3-0.1,0.5-0.7
	c0,0,0,0.4-0.1,0.7c0,0,0.3-0.2,0.3-0.9C56,26.5,56.1,26.8,56.1,27.1C56.1,27.3,56.1,27.1,56.1,27.1z"/>
<path class="st4" d="M50.9,16.1c0,0-0.4,0.1-0.8-0.1c-0.5-0.1-0.6-0.1-0.8,0c0,0,0.2-0.4-0.3-0.7c0,0,0.1,0.4-0.1,0.5
	c0,0-0.1,0.1-0.2,0c0,0-0.2-0.2-0.3-0.3c0,0,0.4-0.1,0.3-0.5c-0.1-0.4-0.3-0.4-0.4-0.5c0,0,0,0.2,0,0.3c0,0-0.4-0.2,0.1-0.6
	s0.5-0.5,0.4-0.7s-0.3-0.3-0.4-0.4c0,0,0.1,0.2,0.1,0.3s-0.3,0.2-0.2,0c0.1-0.3,0-0.2,0-0.5c0,0,0.5,0.2,0.7-0.3
	c0,0,0.2-0.5-0.4-0.8c0,0,0.2,0.2,0.1,0.4c0,0-0.1,0.3-0.3,0s-0.3-0.2-0.2-0.5c0,0,0.6,0.1,0.4-0.5c0,0-0.1,0.4-0.8-0.1
	c0,0,0.5-0.5,0.3-0.9c0,0-0.1-0.2-0.6-0.1c0,0,0.5-0.3,0.3-0.5c0,0-0.1-0.2-0.5,0.1c0,0,0.2-0.3-0.3-0.6c0,0-0.3,0.1-0.4,0.3
	c0,0-0.3-0.4-0.5-0.5c0,0-0.3,0.1-0.4,0.5c0,0-0.2-0.2-0.5-0.3c0,0-0.2,0.3,0.1,0.6c0,0-0.2,0-0.5-0.1c0,0-0.3-0.2-0.3,0.1
	s0.1,0.4,0.1,0.5c0,0-0.8-0.2-0.7,0.2c0,0.3,0.1,0.5,0.4,0.7c0,0-0.4,0.6-0.8,0.1c0,0-0.1,0.1,0.1,0.5c0,0,0.3,0.3,0,0.5
	c0,0-0.3,0.2-0.4-0.2c0,0-0.5,0.5,0.1,0.9c0,0,0.4,0.2,0.7-0.1c0,0-0.1,0.9-0.5,0.7c0,0-0.2-0.2,0.2-0.3c0,0-0.6-0.1-0.6,0.5
	c0,0-0.1,0.4,0.4,0.6c0,0,0.4,0.1,0,0.4c0,0-0.3,0.2-0.1,0.5c0,0,0.2,0.3-0.3,0.4c0,0-0.3,0-0.4,0c0,0-0.1,0.2,0,0.5
	c0,0-0.3-0.2-0.9,0c-0.6,0.2-0.6,0.1-0.6,0.1c-0.1,0.1-0.2,0.3-0.2,0.3l0.3,0.4l-0.1,0.5l0.2,0.1l1.3-0.6l1.3-0.7l1,0.1l0.7,0.2
	l0.9,0.1l0.6-0.3H48l1,0.5l1.1,0.7l0.6,0.1h0.5v-0.9L50.9,16.1z"/>
<path class="st4" d="M40.6,17.2c0,0,0.5,0.3,0.7-0.1c0,0,0.3-0.5-0.3-0.7c0,0,0.3-0.4,0-0.7c0,0-0.2-0.2-0.5-0.1
	c0,0-0.1-0.3-0.4-0.3c0,0-0.3,0-0.4,0.3c0,0-0.4-0.2-0.6,0.1c0,0-0.3,0.4,0.1,0.7h0.3l0.3-0.2l0.4,0.1
	C40.3,16.4,40.2,16.8,40.6,17.2z"/>
<path class="st5" d="M51.6,16.3c0.6-0.1,0.8,0.4,0.8,0.4c0.3,0.7-0.3,1.1-0.3,1.1c0.1,0.2,0.1,0.4,0.1,0.4c0.9,0.1,0.8,1.2,0.8,1.2
	l-0.3-0.3c-0.5-0.2-1.1,0.2-1.5,1s-0.2,1.1-0.1,2c0.1,0.9,1.5,1.5,1.5,1.5s-0.7,1.8-1.2,3S50,27.3,49.7,27c-0.3-0.2-0.3-0.1-0.5,0
	s0.6,0.7-0.8,1.3c-1.4,0.6-1.6,1-1.9,1.1c-0.2,0.1-1.2,0-1.3-0.1s0-0.1-0.4-0.3c-0.4-0.2-1-0.4-1.6-0.7c-0.7-0.3-0.6-0.7-0.6-0.8
	c0-0.1,0.2-0.8-0.5-0.2c-0.8,0.5-1.4-0.3-1.4-0.3c-0.2-0.2-0.8-1.9-0.8-1.9c-0.2-0.6-0.5-1.4-0.5-1.4s0,0.1,0.5-0.2s0.8-0.9,1-1.4
	s0-1.5-0.1-1.6c-0.1-0.2-0.5-1-1-1.2C39.3,19,39,19.4,39,19.4s-0.2-1,0.8-1.2c0,0,0-0.2,0.1-0.4c0,0-0.7-0.4-0.3-1.1
	c0,0,0.2-0.5,0.8-0.4l-0.1,0.3c0,0-0.1,1.5,2,0.5c2.2-1,2.1-1.2,3.4-0.6h0.9c0,0,1.3-0.6,1.7-0.3c0.4,0.3,1.9,1.1,1.9,1.1
	s1.5,0.5,1.7-0.5L51.6,16.3z"/>
<path class="st2" d="M45.1,22.8c0,0-0.1-0.5-0.2-0.8c0,0-0.2-0.5,0.1-0.8l0.3-0.4c0,0,0.2-0.3,0.5-0.3c0,0,0.3,0,0.3-0.1
	s0.3-0.5,1,0c0,0,0.2-0.3,0.6-0.4c0,0,0.4-0.1,0.5,0.2c0,0,0.4-0.3,0.8,0.2c0,0,0.5-0.3,0.8,0.3c0,0,0.5-0.2,0.8,0.3
	s0.2,0.7,0.2,0.7l0.2,0.8l0.8,1L50,24h-0.8l-1.6,0.4l-2.9,0.2L44,23.8L45.1,22.8z"/>
<path class="st4" d="M42.7,27.5c0,0-0.4,0-0.6,0.1c-0.2,0.1-0.4,0.2-0.6,0.4c0,0-0.1,0.2-0.6,0.1c0,0-0.9-0.2-0.9,0.5
	c0,0-1,0.1-0.6,1c0,0,0.3,0.7,0.9,0.2c0,0-0.4,0.5,0.4,0.8c0,0,0.5,0.1,0.7-0.4c0,0,0.1-0.2-0.1-0.5c0,0,0.3-0.1,0.4-0.3
	c0,0-0.5,0.7,0.1,0.9c0,0,0.7,0.2,0.8-0.6c0,0-0.1-0.4,0.2-0.5c0,0,0.6-0.1,0.9-0.8C43.4,28.4,42.6,27.9,42.7,27.5z"/>
<path class="st4" d="M40.9,20.8c0,0-0.7-0.3-1,0c0,0-0.4-0.3-0.9,0c0,0-0.4,0.3-0.7,0.6c0,0-0.2,0.2-0.1,0.8c0,0,0.1,0.4,0,0.6
	c0,0-0.1,0-0.4,0.3c0,0-0.4,0.4-0.7,0.1c0,0,0.1,0.5,0.7,0.4c0,0-0.3,0.2,0,0.8c0,0,0.2,0.4-0.1,1c0,0,0.5-0.2,0.5-0.8
	c0,0,0-0.4,0.1-0.7c0,0-0.2,0.3,0.2,0.9c0,0,0.3,0.4,0.1,0.9c0,0,0.5-0.2,0.5-0.8s-0.4-0.4-0.2-1c0,0,0.1,0.3,0.2,0.5
	c0.2,0.2,0.4,0.4,0.3,0.8c0,0,0.3-0.4,0.2-0.8s-0.2-0.5-0.2-0.5l1-0.6l0.5-0.9L40.9,20.8z"/>
<path class="st6" d="M39.4,23.3c0,0-0.4,0-0.5-0.3"/>
<path class="st6" d="M38.2,22.7c0,0,0.1,0,0.3,0.1c0,0,0.1,0.1,0.2,0.1"/>
<path d="M40,22.1c0,0-0.2,0-0.3-0.1c0,0-0.1-0.1-0.2,0.1c0,0-0.1,0.2,0.1,0.3c0,0,0.3,0.1-0.2,0.4c0,0,0.5-0.2,0.3-0.4
	c0,0-0.2-0.2-0.1-0.2c0,0,0,0,0.1,0C39.8,22.2,40,22.1,40,22.1z"/>
<polygon class="st7" points="46.7,23.2 45.1,17.5 45,17.5 46.5,23.3 "/>
<path d="M41,29.5c0,0-0.4-0.2-0.7,0c0,0,0-0.1,0.3-0.2c0,0,0.1-0.4,0.5-0.3c0,0-0.2,0.2-0.4,0.3C40.7,29.3,40.9,29.4,41,29.5z"/>
<path class="st5" d="M39.6,30.4c0,0-0.6-0.4-0.3-1c0,0,0.1-0.2,0.3-0.1c0,0,0.4,0.1,0.1,0.6C39.7,29.9,39.6,30.2,39.6,30.4z"/>
<path class="st5" d="M40.9,31c0,0-0.9-0.4-0.6-1.1c0,0,0.1-0.2,0.3-0.2c0,0,0.3,0,0.3,0.5C40.8,30.2,40.7,30.6,40.9,31z"/>
<path d="M40.7,28.5c0,0-0.3,0.2-0.4,0.3c0,0-0.1-0.1-0.2-0.2c0,0,0.2,0,0.2,0.1C40.3,28.7,40.5,28.5,40.7,28.5z"/>
<path class="st5" d="M41.5,30.9c0,0,0.7-0.2,0.6-0.9c0,0-0.1-0.3-0.4-0.3c0,0-0.3,0.1-0.1,0.5C41.6,30.2,41.7,30.6,41.5,30.9z"/>
<path class="st8" d="M44.6,15.9c0,0,0.4,0.1,0.7,0.2c0,0,0.6,0.3,1.4,0c0,0,0.5-0.2,0.6-0.2l-0.4,0.6v0.3l0.3,0.4
	c0,0-0.2,0.1-0.6-0.2c0,0-0.5-0.4-1.1,0c0,0-0.3,0.2-0.6,0.2l0.4-0.4L45,16.4L44.6,15.9z"/>
<path class="st2" d="M41.7,30C41.7,30,41.8,30,41.7,30C41.7,30,41.7,29.9,41.7,30c-0.1,0-0.1,0.1-0.1,0.2c0,0,0.1,0.1,0,0.2l0,0l0,0
	c0,0,0-0.1,0-0.2C41.7,30.3,41.7,30.1,41.7,30z"/>
<path class="st4" d="M51.2,17.2c0,0-0.5,0.3-0.7-0.1c0,0-0.3-0.5,0.3-0.7c0,0-0.3-0.4,0-0.7c0,0,0.2-0.2,0.5-0.1
	c0,0,0.1-0.3,0.4-0.3c0,0,0.3,0,0.4,0.3c0,0,0.4-0.2,0.6,0.1c0,0,0.3,0.4-0.1,0.7h-0.3L52,16.2l-0.4,0.1
	C51.5,16.4,51.6,16.8,51.2,17.2z"/>
<path class="st8" d="M47.3,16.8c0,0,0,0.1-0.1,0.1c0,0-0.1,0-0.2-0.1l0,0c0-0.1,0-0.2,0.2-0.4c0,0,0.3-0.3,0.9,0.1
	c0,0,0.5,0.2,0.8,0.4c0,0,0.8,0.5,0.9,0.5c0,0,0.4,0.2,0.9,0.2c0,0,0.8,0.1,1.1-0.5c0,0,0.2-0.4,0-0.7c0,0-0.1-0.1-0.3-0.1
	c-0.1,0-0.1,0-0.2,0.1c0,0-0.1,0.2,0,0.3c0,0,0.2,0.1,0.2-0.1l0,0c0,0,0,0.2-0.1,0.3c0,0-0.5,0.7-1.7,0L48.2,16c0,0-0.8-0.4-1.4,0.2
	c0,0-0.4,0.6,0.1,0.9c0,0,0.4,0.2,0.6-0.1c0,0,0.2-0.4-0.1-0.5c0,0-0.3-0.1-0.4,0.1C46.9,16.9,47.3,17,47.3,16.8L47.3,16.8z"/>
<path class="st9" d="M40.6,19.7c0,0,0-0.9,0-1.1c0-0.1,0-0.2,0.1-0.3c0.1-0.1,0.3-0.3,0.5,0.2c0,0,0.4-0.4,0.5-0.5
	c0,0,0.2-0.2,0.4,0.1c0,0,0.2-0.3,0.4-0.4c0,0,0.4-0.2,0.4,0.5l0.3-0.3c0,0,0.2-0.2,0.5,0.1c0,0,0.4,0.4,0.5,0.5
	c0,0,0.1,0.1,0.1,0.3c0,0,0,0.2,0.1,0.4c0,0,0.1,0.1,0.3,0.1c0,0,0.3,0,0.4,0.3c0,0,0.1,0,0.2,1.3v2.5l-1.7,2l-2.7-0.8l-1.1-0.4
	l-0.2-0.8l1-0.7l0.6-1.5L41,20.1L40.6,19.7z"/>
<path class="st7" d="M48.1,21.1l0.1-0.2l0.3-0.2c0,0,0.5,1.2,0.5,1.5v0.4c0,0,0.7,0.2,0.8,1.3L49.2,25l-0.9-0.5L48,24.3L48.1,21.1
	L48.1,21.1z"/>
<path class="st2" d="M39.5,29.5L39.5,29.5C39.5,29.5,39.5,29.4,39.5,29.5c0,0-0.2,0.2-0.1,0.5l0,0c0,0,0,0,0-0.1
	C39.4,30,39.3,29.7,39.5,29.5z"/>
<path class="st6" d="M42.2,29.3c0,0,0-0.1,0-0.2c0,0,0-0.1,0-0.2"/>
<path class="st6" d="M42.8,18.3c0,0,0,0.3,0.1,0.5s0.3,0.5,0.3,0.7"/>
<path class="st4" d="M49.2,27.5c0,0,0.4,0,0.6,0.1c0.2,0.1,0.4,0.2,0.6,0.4c0,0,0.1,0.2,0.6,0.1c0,0,0.9-0.2,0.9,0.5
	c0,0,1,0.1,0.6,1c0,0-0.3,0.7-0.9,0.2c0,0,0.4,0.5-0.4,0.8c0,0-0.5,0.1-0.7-0.4c0,0-0.1-0.2,0.1-0.5c0,0-0.3-0.1-0.4-0.3
	c0,0,0.5,0.7-0.1,0.9c0,0-0.7,0.2-0.8-0.6c0,0,0.1-0.4-0.2-0.5c0,0-0.6-0.1-0.9-0.8C48.5,28.4,49.3,27.9,49.2,27.5z"/>
<line class="st6" x1="42.5" y1="19.5" x2="43.2" y2="25.2"/>
<line class="st6" x1="42.6" y1="19.5" x2="43.4" y2="24.8"/>
<line class="st6" x1="42.8" y1="19.5" x2="43.7" y2="24.7"/>
<polygon class="st7" points="44.5,24.2 42.8,18.5 42.8,18.5 44.2,24.2 "/>
<line class="st6" x1="43.3" y1="19.3" x2="44.9" y2="23.5"/>
<line class="st6" x1="43.2" y1="19.3" x2="44.8" y2="23.7"/>
<path class="st2" d="M40.6,30.6c0,0-0.2-0.2-0.2-0.5V30c0,0,0,0,0,0.1C40.3,30.1,40.3,30.4,40.6,30.6C40.5,30.6,40.5,30.7,40.6,30.6
	L40.6,30.6z"/>
<line class="st6" x1="43.4" y1="19.2" x2="45.1" y2="23"/>
<line class="st6" x1="42.9" y1="19.5" x2="44" y2="24.6"/>
<path class="st8" d="M51.5,23.3c-0.7-0.4-0.9-1.4-0.9-1.4c-0.2-0.9,0.2-1.7,0.2-1.7c0.5-1,1.3-1.2,1.3-1.2s-0.8,0.6-1,1.3
	c0,0-0.2,0.6-0.1,1.3c0.1,0.6,0.1,0.5,0.2,1L51.5,23.3z"/>
<path class="st7" d="M48.2,20.9l-3.1,1l-0.2,1.4c-0.7,1.1-2.3,1.3-2.3,1.3l1.2,1.3l2.3,0.5l1.2-0.9l1.1-1c-0.1-0.5-0.1-1.3-0.1-1.3
	c0-0.1,0.1-0.4,0.1-0.4S48.2,21.3,48.2,20.9z"/>
<path class="st6" d="M45,22.9c0,0,2.1-0.6,3.3-1.2"/>
<path class="st6" d="M44,24.1c0,0,2.6-0.5,4.4-1.5l0.7-0.4"/>
<path class="st6" d="M47,16.8"/>
<path class="st6" d="M49,22.5L48.3,23c0,0-2.9,1.3-5.1,1.4"/>
<path class="st6" d="M48.3,24c0,0-2.2,1.1-3.5,1.2"/>
<path class="st4" d="M51,20.8c0,0,0.7-0.3,1,0c0,0,0.4-0.3,0.9,0c0,0,0.4,0.3,0.7,0.6c0,0,0.2,0.2,0.1,0.8c0,0-0.1,0.4,0,0.6
	c0,0,0.1,0,0.4,0.3c0,0,0.4,0.4,0.7,0.1c0,0-0.1,0.5-0.7,0.4c0,0,0.3,0.2,0,0.8c0,0-0.2,0.4,0.1,1c0,0-0.5-0.2-0.5-0.8
	c0,0,0-0.4-0.1-0.7c0,0,0.2,0.3-0.2,0.9c0,0-0.3,0.4-0.1,0.9c0,0-0.5-0.2-0.5-0.8c0.1-0.6,0.4-0.4,0.2-1c0,0-0.1,0.3-0.2,0.5
	c-0.2,0.2-0.4,0.4-0.3,0.8c0,0-0.3-0.4-0.2-0.8s0.2-0.5,0.2-0.5l-1-0.6L51,22.2V20.8z"/>
<path class="st2" d="M39.7,24.4c0,0,0.1-0.4,0.5-0.3c0,0,0.1-0.7,0.9-0.7c0.8,0,0.8,0.7,0.8,0.8c0,0,0.2-0.3,0.6-0.3
	c0,0,0.6,0,0.4,1L43,25c0,0,0.5-1.2,1.5-0.9c0,0,1,0.3,0.3,1.3c0,0,0.5,0.6,0.9,0.6c0.4-0.1,0.8-0.2,1.2-0.9s1.4-0.8,1.6-0.8
	c0.2,0,0.4,0.2,0.5,0.4c0,0,0.5-1.7,2.3-1.4l0.7,0.4l0.3,0.1L51.9,25l-1,2.3l-0.8,0.2L49.3,27L49,27.1v0.7l-1.1,0.8l-0.7,0.3
	l-0.8,0.6L46.2,30c0,0-0.4-0.2-0.9,0l-0.2-0.4L44.8,29L43,28.1L42.7,27l-0.3-0.1L42,27.3l-0.5,0.1l-0.8-0.6L39.7,24.4z"/>
<path class="st6" d="M47.7,16.1c0,0-0.7,0-0.7,0.7"/>
<path class="st8" d="M52.3,23.7c-1.2-0.4-1.5-1.7-1.5-1.7c-0.2-1,0.2-1.8,0.2-1.8c0.6-1.3,1.5-1.3,1.5-1.3c0.5,0,0.5,0.4,0.5,0.4
	c0,0.3-0.2,0.4-0.2,0.4c-0.3,0.2-0.5-0.1-0.5-0.1c-0.1-0.2,0-0.3,0-0.3c0.1-0.1,0.2-0.1,0.2-0.1c0.1,0,0.1,0.2,0.1,0.2l0,0l0,0
	c0,0,0-0.2-0.2-0.2c0,0-0.4-0.1-0.8,0.5c0,0-0.6,0.7-0.6,1.7c0,0-0.1,1.7,1.8,2.2c0,0-0.2,0.3-0.5,1.3c0,0-0.4,1.3-0.8,2
	c0,0-0.5,1-1.6,0.6c0,0-0.7-0.3-0.7-0.8c0,0,0-0.4,0.4-0.5c0,0,0.4,0,0.4,0.3c0,0,0,0.4-0.4,0.3c0,0-0.1,0-0.1-0.2
	c0,0,0-0.1,0.2-0.1l0,0l0,0h-0.1c0,0-0.1,0-0.1,0.1c0,0,0,0.1,0.1,0.1c0,0,0.1,0,0.2,0c0,0,0.1,0.2,0.4,0.3c0.4,0.1,0.6,0,0.8-0.1
	c0.2-0.2,0.3-0.4,0.4-0.5c0-0.1,0.4-0.8,0.6-1.6c0,0,0.2-0.7,0.4-1L52.3,23.7z"/>
<path class="st8" d="M48.9,27.1c0,0,0.2,0,0.2,0.2c0,0,0,0.3-0.4,0.2c0,0-0.4-0.1-0.2-0.5c0,0,0.1-0.3,0.4-0.2c0,0,0.3,0,0.5,0.5
	c0,0,0.1,0.4-0.1,0.7c-0.2,0.4-0.7,0.6-1,0.7c0,0-1,0.4-1.3,0.6c0,0-0.5,0.3-0.3,0.7c0,0,0.1,0.1,0.2,0.1c0,0,0.1,0,0.2-0.1l0,0l0,0
	c0,0,0,0.1-0.1,0.1c0,0-0.1,0.1-0.2,0c0,0-0.1-0.1,0-0.3c0,0,0.1-0.2,0.4-0.1c0,0,0.2,0.1,0.1,0.4c0,0-0.1,0.2-0.4,0.2
	c0,0-0.2,0-0.4-0.2s-0.2-0.7,0-0.9c0,0,0.2-0.3,0.6-0.4c0.2-0.1,0.6-0.3,1.1-0.4c0.3-0.1,0.6-0.3,0.8-0.5c0,0,0.2-0.2,0.2-0.5
	c0,0,0-0.2-0.1-0.3C49,27.1,48.9,27,48.9,27.1L48.9,27.1L48.9,27.1z"/>
<path class="st6" d="M48.9,27.1c0,0,0.3,0,0.4,0.3c0,0,0.1,0.2,0.1,0.3"/>
<path class="st6" d="M49.5,26.5c0,0-0.3,0-0.1,0.4c0.1,0.3,0.3,0.4,0.4,0.5"/>
<path class="st8" d="M44.6,16.8c0,0,0,0.1,0.1,0.1c0,0,0.1,0,0.2-0.1l0,0c0-0.1,0-0.2-0.2-0.4c0,0-0.3-0.3-0.9,0.1
	c0,0-0.5,0.2-0.8,0.4c0,0-0.8,0.5-0.9,0.5c0,0-0.4,0.2-0.9,0.2c0,0-0.8,0.1-1.1-0.5c0,0-0.2-0.4,0-0.7c0,0,0.1-0.1,0.3-0.1
	c0.1,0,0.1,0,0.2,0.1c0,0,0.1,0.2,0,0.3c0,0-0.2,0.1-0.2-0.1l0,0c0,0,0,0.2,0.1,0.3c0,0,0.5,0.7,1.7,0l1.7-0.9c0,0,0.8-0.4,1.4,0.2
	c0,0,0.4,0.6-0.1,0.9c0,0-0.4,0.2-0.6-0.1c0,0-0.2-0.4,0.1-0.5c0,0,0.3-0.1,0.4,0.1S44.6,17,44.6,16.8L44.6,16.8z"/>
<path class="st8" d="M40.4,23.3c0.7-0.4,0.9-1.4,0.9-1.4c0.2-0.9-0.2-1.7-0.2-1.7c-0.5-1-1.3-1.2-1.3-1.2s0.8,0.6,1,1.3
	c0,0,0.2,0.6,0.1,1.3c-0.1,0.6-0.1,0.5-0.2,1L40.4,23.3z"/>
<path class="st6" d="M44.7,16.8"/>
<path class="st6" d="M44.2,16.1c0,0,0.7,0,0.7,0.7"/>
<path class="st8" d="M39.6,23.7c1.2-0.4,1.5-1.7,1.5-1.7c0.2-1-0.2-1.8-0.2-1.8c-0.6-1.3-1.5-1.3-1.5-1.3c-0.5,0-0.5,0.4-0.5,0.4
	c0,0.3,0.2,0.4,0.2,0.4c0.3,0.2,0.5-0.1,0.5-0.1c0.1-0.2,0-0.3,0-0.3c-0.1-0.1-0.2-0.1-0.2-0.1c-0.1,0-0.1,0.2-0.1,0.2l0,0l0,0
	c0,0,0-0.2,0.2-0.2c0,0,0.4-0.1,0.8,0.5c0,0,0.6,0.7,0.6,1.7c0,0,0.1,1.7-1.8,2.2c0,0,0.2,0.3,0.5,1.3c0,0,0.4,1.3,0.8,2
	c0,0,0.5,1,1.6,0.6c0,0,0.7-0.3,0.7-0.8c0,0,0-0.4-0.4-0.5c0,0-0.4,0-0.4,0.3c0,0,0,0.4,0.4,0.3c0,0,0.1,0,0.1-0.2
	c0,0,0-0.1-0.2-0.1l0,0l0,0h0.1c0,0,0.1,0,0.1,0.1c0,0,0,0.1-0.1,0.1c0,0-0.1,0-0.2,0c0,0-0.1,0.2-0.4,0.3c-0.4,0.1-0.6,0-0.8-0.1
	c-0.2-0.2-0.3-0.4-0.4-0.5c0-0.1-0.4-0.8-0.6-1.6c0,0-0.2-0.7-0.4-1L39.6,23.7z"/>
<path class="st8" d="M43,27.1c0,0-0.2,0-0.2,0.2c0,0,0,0.3,0.4,0.2c0,0,0.4-0.1,0.2-0.5c0,0-0.1-0.3-0.4-0.2c0,0-0.3,0-0.5,0.5
	c0,0-0.1,0.4,0.1,0.7c0.2,0.4,0.7,0.6,1,0.7c0,0,1,0.4,1.3,0.6c0,0,0.5,0.3,0.3,0.7c0,0-0.1,0.1-0.2,0.1c0,0-0.1,0-0.2-0.1l0,0l0,0
	c0,0,0,0.1,0.1,0.1c0,0,0.1,0.1,0.2,0c0,0,0.1-0.1,0-0.3c0,0-0.1-0.2-0.4-0.1c0,0-0.2,0.1-0.1,0.4c0,0,0.1,0.2,0.4,0.2
	c0,0,0.2,0,0.4-0.2s0.2-0.7,0-0.9c0,0-0.2-0.3-0.6-0.4c-0.2-0.1-0.6-0.3-1.1-0.4c-0.3-0.1-0.6-0.3-0.8-0.5c0,0-0.2-0.2-0.2-0.5
	c0,0,0-0.2,0.1-0.3C42.9,27.1,42.9,27,43,27.1L43,27.1L43,27.1z"/>
<path class="st6" d="M43,27.1c0,0-0.3,0-0.4,0.3c0,0-0.1,0.2-0.1,0.3"/>
<path class="st6" d="M42.4,26.5c0,0,0.3,0,0.1,0.4c-0.1,0.3-0.3,0.4-0.4,0.5"/>
<path class="st6" d="M45.3,16.7c0,0,0.6-0.4,1.2,0"/>
<path class="st6" d="M41.9,20.4c0,0,0.1-0.3-0.3-0.9c0,0-0.3-0.5-0.4-0.9"/>
<path class="st6" d="M42.1,18.2c0,0,0.2,0.5,0.3,0.8c0,0,0.3,0.7,0.3,0.8"/>
<path class="st6" d="M42.2,20.8c0,0,0.2,0.2,0.2,0.7"/>
<path class="st6" d="M41.4,20.5c0,0,0.3,0.1,0.2,0.8c0,0,0,0.5,0.4,0.7"/>
<path class="st6" d="M41.4,22.2c0,0,0.8-0.1,0.8,0.4c0,0,0,0.5,0.3,0.5c0,0,0.4,0,0.5,0.4"/>
<path class="st6" d="M41.6,22.8c0,0,0.1,0.2,0.3,0.3"/>
<path class="st6" d="M42.6,22.3c0,0,0.2,0.3,0.2,0.5"/>
<path class="st6" d="M43.5,18.6c0,0,0.2,0.3,0.4,0.4"/>
<path class="st6" d="M44.3,20.1c0,0,0.4,0.2,0.3,1.2c0,0-0.1,0.6,0.1,0.9"/>
<path class="st7" d="M42.4,19.4L42.4,19.4c0,0.1,0.7,0.1,1.1-0.4v-0.1C43.5,19,42.9,18.9,42.4,19.4z"/>
<path class="st6" d="M44.9,23.2c0,0,2.4-0.7,3.4-1.1"/>
<polygon class="st7" points="44.7,18.6 45.9,18.2 45.9,18.3 44.7,18.7 "/>
<line class="st6" x1="44.8" y1="18.7" x2="45.6" y2="22.6"/>
<line class="st6" x1="44.9" y1="18.6" x2="45.8" y2="22.5"/>
<line class="st6" x1="45.1" y1="18.6" x2="46.1" y2="22.4"/>
<line class="st6" x1="45.5" y1="18.4" x2="46.8" y2="21.3"/>
<line class="st6" x1="45.6" y1="18.3" x2="47.1" y2="21.2"/>
<line class="st6" x1="45.8" y1="18.3" x2="47.4" y2="21.2"/>
<line class="st6" x1="45.5" y1="22.6" x2="46.1" y2="22.4"/>
<path class="st6" d="M45.1,22.2c0,0,1.8-0.5,3.2-1.1"/>
<path class="st6" d="M45,22.4c0,0,2.3-0.6,3.2-1"/>
<polyline class="st6" points="45.7,24.3 45.9,24.7 46.2,24.6 46.1,24.2 "/>
<polyline class="st6" points="46.7,24 46.8,24.4 47.1,24.3 47,23.9 "/>
<polyline class="st6" points="45.1,21.9 45.1,21.4 48.1,20.5 48.2,20.9 "/>
<line class="st6" x1="46.3" y1="21" x2="46.5" y2="21.4"/>
<line class="st6" x1="47.4" y1="20.7" x2="47.6" y2="21.1"/>
<line class="st6" x1="47.6" y1="20.6" x2="47.8" y2="21"/>
<line class="st6" x1="47.9" y1="20.5" x2="48.1" y2="20.9"/>
<polyline class="st6" points="48.1,20.5 48.4,20.3 48.5,20.6 "/>
<line class="st6" x1="48.2" y1="20.4" x2="48.4" y2="20.7"/>
<path class="st6" d="M40.8,26.1c0,0-0.6-0.6,0-1.2c0,0-0.6-0.3-0.5-0.8"/>
<path class="st6" d="M41.8,26.5c0,0-0.6,0.1-0.4-1.1c0,0-0.3,0.5-0.3,0.7c-0.1,0.2,0,0.5,0.2,0.6c0.1,0.1,0.6,0.2,0.8-0.2"/>
<path class="st6" d="M41.2,24.7c0,0-0.2,0.2-0.1,0.6"/>
<path class="st6" d="M41.4,24.8c0,0,0,0.4,0.2,0.6"/>
<path class="st6" d="M41.6,24.6c0,0,0,0.5,0.3,0.8"/>
<path class="st6" d="M41.8,24.5c0,0,0,0.5,0.4,0.9"/>
<path class="st6" d="M43.7,25.3c0,0,0.2-0.4,0.6-0.4c0,0-0.2,0.1-0.2,0.3c0,0,0,0.3,0.3,0.4c0,0,0.3,0,0.4-0.1"/>
<path class="st6" d="M44.7,27.3c0,0-1-0.5-0.9-1.2c0,0,0-0.4,0.5-0.6"/>
<path class="st6" d="M44.1,25.9c0,0-0.1,0.3,0.1,0.5"/>
<path class="st6" d="M44.3,25.7c0,0-0.1,0.3,0.1,0.6"/>
<path class="st6" d="M44.5,25.5c0,0-0.2,0.3,0,0.5"/>
<path class="st6" d="M43.6,27.3c0,0,0.6,0.5,1,0.5"/>
<path class="st6" d="M43.4,27.5c0,0,0.5,0.4,0.9,0.5"/>
<path class="st6" d="M43.2,27.6c0,0,0.7,0.6,1.1,0.6"/>
<path class="st6" d="M45.9,28.8c0,0-0.6,0.3-0.1,0.7"/>
<path class="st6" d="M45.5,28.4c0,0,0.7-0.4,1.1-0.5"/>
<path class="st6" d="M45.7,28.6c0,0,1.1-0.6,1.4-0.8"/>
<path class="st6" d="M46.3,28.6c0,0,0.9-0.6,1.4-0.9"/>
<path class="st6" d="M46.9,28.6c0,0,0.6-0.5,1.2-0.8"/>
<path class="st6" d="M48.3,27.1c0,0-0.3-0.4-1.3,0c0,0,0.4-0.3,1.1-0.6"/>
<path class="st6" d="M49.1,24.6c0,0,0.1,0.4,0,0.6"/>
<path class="st6" d="M47.5,26.4c0,0,0.2-0.3,0.7-0.5c0,0,0.1,0.4,0.6,0.3c0,0,0.6-0.1,0.4-0.8c0,0-0.1-0.5-0.8-0.6"/>
<path class="st6" d="M50.5,24c0,0,0.7,0.1,0.7,0.7c0,0,0.1,0.9-0.9,1.1"/>
<path class="st6" d="M51.1,24.3c0,0,0.2-0.4,0.6-0.6"/>
<path class="st6" d="M51.2,23.5c0,0,0.2,0.3,0.3,0.4"/>
<path class="st6" d="M51.1,23.7c0,0,0.2,0.2,0.2,0.3"/>
<path class="st6" d="M51.1,23.9c0,0,0.1,0.1,0.2,0.2"/>
<path class="st6" d="M47.3,20.5c0,0,0.1-0.2,0.5-0.1"/>
<path class="st6" d="M49.3,22.2c0,0,0.2-0.9,1-0.6"/>
<path class="st6" d="M49.9,21.6c0,0,0.1-0.4-0.1-0.6"/>
<path class="st6" d="M49.4,21.5c0,0,0.1,0.2,0,0.3"/>
<path class="st5" d="M51,31c0,0,0.9-0.4,0.6-1.1c0,0-0.1-0.2-0.3-0.2c0,0-0.3,0-0.3,0.5C51.1,30.2,51.2,30.6,51,31z"/>
<path class="st2" d="M51.3,30.6c0,0,0.2-0.2,0.2-0.5V30c0,0,0,0,0,0.1C51.5,30.1,51.6,30.4,51.3,30.6C51.4,30.6,51.3,30.7,51.3,30.6
	L51.3,30.6z"/>
<path class="st5" d="M52.2,30.4c0,0,0.6-0.4,0.3-1c0,0-0.1-0.2-0.3-0.1c0,0-0.4,0.1-0.1,0.6C52.2,29.9,52.3,30.2,52.2,30.4z"/>
<path class="st2" d="M52.4,29.5L52.4,29.5C52.4,29.5,52.4,29.4,52.4,29.5c0,0,0.2,0.2,0.1,0.5l0,0c0,0,0,0,0-0.1
	C52.4,30,52.6,29.7,52.4,29.5z"/>
<path class="st5" d="M50.4,30.9c0,0-0.7-0.2-0.6-0.9c0,0,0.1-0.3,0.4-0.3c0,0,0.3,0.1,0.1,0.5C50.3,30.2,50.2,30.6,50.4,30.9z"/>
<path class="st2" d="M50.1,30L50.1,30C50.1,30,50.2,29.9,50.1,30c0.1,0,0.1,0.1,0.1,0.2c0,0-0.1,0.1,0,0.2l0,0l0,0c0,0,0-0.1,0-0.2
	C50.1,30.3,50.2,30.1,50.1,30z"/>
<path d="M50.9,29.5c0,0,0.4-0.2,0.7,0c0,0,0-0.1-0.3-0.2c0,0-0.1-0.4-0.5-0.3c0,0,0.2,0.2,0.4,0.3C51.2,29.3,51,29.4,50.9,29.5z"/>
<path d="M51.2,28.5c0,0,0.3,0.2,0.4,0.3c0,0,0.1-0.1,0.2-0.2c0,0-0.2,0-0.2,0.1C51.5,28.7,51.4,28.5,51.2,28.5z"/>
<path class="st6" d="M49.7,29.3c0,0,0-0.1,0-0.2c0,0,0-0.1,0-0.2"/>
<path class="st6" d="M52.5,23.3c0,0,0.4,0,0.5-0.3"/>
<path class="st6" d="M53.7,22.7c0,0-0.1,0-0.3,0.1c0,0-0.1,0.1-0.2,0.1"/>
<path d="M51.9,22.1c0,0,0.2,0,0.3-0.1c0,0,0.1-0.1,0.2,0.1c0,0,0.1,0.2-0.1,0.3c0,0-0.3,0.1,0.2,0.4c0,0-0.5-0.2-0.3-0.4
	c0,0,0.2-0.2,0.1-0.2c0,0,0,0-0.1,0C52.1,22.2,51.9,22.1,51.9,22.1z"/>
<path class="st5" d="M52.2,17c0,0,0.1-0.1,0.1-0.5s0.3-0.4,0.4-0.3c0,0,0.1,0.1,0,0.4C52.6,16.6,52.5,16.8,52.2,17z"/>
<path class="st2" d="M52.3,16.7c0,0,0.1-0.1,0.1-0.4l0,0l0,0C52.4,16.2,52.5,16.5,52.3,16.7L52.3,16.7L52.3,16.7z"/>
<path class="st5" d="M52,16.8c0,0,0-0.2-0.3-0.4c-0.3-0.3,0-0.5,0.1-0.5c0,0,0.2,0,0.2,0.3C52.2,16.3,52.2,16.5,52,16.8z"/>
<path class="st2" d="M52,16.5c0,0,0-0.2-0.2-0.4l0,0l0,0C51.8,16,52.1,16.2,52,16.5C52.1,16.5,52.1,16.5,52,16.5L52,16.5z"/>
<path class="st5" d="M51.7,16.7c0,0-0.1-0.1-0.4-0.2S51,16,51.2,16c0,0,0.1-0.1,0.3,0.1C51.6,16.2,51.7,16.4,51.7,16.7z"/>
<path class="st2" d="M51.5,16.5c0,0-0.1-0.2-0.4-0.3l0,0l0,0C51.2,16.2,51.5,16.2,51.5,16.5C51.6,16.4,51.6,16.5,51.5,16.5
	C51.6,16.5,51.5,16.5,51.5,16.5z"/>
<path class="st5" d="M51.9,16.8c0,0-0.2,0-0.5-0.1s-0.5,0.1-0.5,0.3c0,0,0.1,0.2,0.3,0.1C51.4,17.1,51.6,17.1,51.9,16.8z"/>
<path class="st2" d="M51,16.9c0,0,0.2,0.1,0.5,0l0,0l0,0C51.5,17,51.2,17.1,51,16.9C51,17,51,17,51,16.9L51,16.9z"/>
<path class="st6" d="M51.4,15.7c0,0,0.2,0.1,0.1,0.3"/>
<path class="st6" d="M52.2,15.7c0,0,0.1,0.2,0,0.3"/>
<path class="st5" d="M39.7,17c0,0-0.1-0.1-0.1-0.5s-0.3-0.4-0.4-0.3c0,0-0.1,0.1,0,0.4C39.3,16.6,39.4,16.8,39.7,17z"/>
<path class="st2" d="M39.6,16.7c0,0-0.1-0.1-0.1-0.4l0,0l0,0C39.5,16.2,39.4,16.5,39.6,16.7C39.5,16.7,39.6,16.7,39.6,16.7
	L39.6,16.7z"/>
<path class="st5" d="M39.8,16.8c0,0,0-0.2,0.3-0.4c0.3-0.3,0-0.5-0.1-0.5c0,0-0.2,0-0.2,0.3C39.7,16.3,39.7,16.5,39.8,16.8z"/>
<path class="st2" d="M39.9,16.5c0,0,0-0.2,0.2-0.4l0,0l0,0C40.1,16,39.8,16.2,39.9,16.5C39.8,16.5,39.8,16.5,39.9,16.5
	C39.8,16.5,39.9,16.5,39.9,16.5z"/>
<path class="st5" d="M40.2,16.7c0,0,0.1-0.1,0.4-0.2s0.2-0.4,0.1-0.5c0,0-0.1-0.1-0.3,0.1C40.3,16.2,40.2,16.4,40.2,16.7z"/>
<path class="st2" d="M40.3,16.5c0,0,0.1-0.2,0.4-0.3l0,0l0,0C40.7,16.2,40.4,16.2,40.3,16.5C40.3,16.4,40.3,16.5,40.3,16.5
	L40.3,16.5z"/>
<path class="st5" d="M40,16.8c0,0,0.2,0,0.5-0.1S41,16.8,41,17c0,0-0.1,0.2-0.3,0.1C40.4,17.1,40.2,17.1,40,16.8z"/>
<path class="st2" d="M40.8,16.9c0,0-0.2,0.1-0.5,0l0,0l0,0C40.3,17,40.7,17.1,40.8,16.9C40.9,17,40.9,17,40.8,16.9
	C40.9,16.9,40.8,16.9,40.8,16.9z"/>
<path class="st6" d="M40.5,15.7c0,0-0.2,0.1-0.1,0.3"/>
<path class="st6" d="M39.7,15.7c0,0-0.1,0.2,0,0.3"/>
<path d="M47.5,13.7c0,0,0.1,0.3,0.1,0.6s0,0.3,0.1,0.4c0.1,0,0.3,0,0.3-0.2c0,0,0.2,0.4-0.2,0.7c0,0-0.3,0.2-0.6-0.1
	c-0.1-0.1-0.1-0.3-0.1-0.6c0,0,0.1-0.3,0-0.6c0,0,0.2,0.2,0.1,0.6c0,0-0.1,0.7,0.4,0.7c0,0,0.4,0,0.4-0.4c0,0-0.1,0.2-0.3,0.1
	c-0.1,0-0.2-0.1-0.2-0.3C47.5,14.3,47.6,13.9,47.5,13.7z"/>
<path d="M47,14.8c0,0,0,0.5-0.5,0.7c0,0,0.1-0.1,0-0.4c0,0-0.1-0.2-0.1-0.4c0,0-0.2,0.1,0,0.5c0.1,0.2,0,0.4,0,0.4
	C46.3,15.6,47.1,15.5,47,14.8z"/>
<path d="M46.3,14.2c0,0-0.1-0.1-0.1-0.4c0-0.3-0.1-0.4-0.1-0.4s0.1,0.3,0,0.4c0,0.2,0,0.3,0,0.3s-0.3,0-0.4-0.4
	c-0.2-0.4-0.3-0.3-0.4-0.3c0,0,0.1,0,0.3,0.4S45.8,14.2,46.3,14.2z"/>
<path d="M45,13.4c0,0,0.2,0.4,0.2,0.6c0,0-0.4-0.1-0.5-0.4c0,0-0.4,0.1-0.2,0.6c0,0-0.3-0.1-0.5-0.4c0,0,0.2,0.1,0.4,0.2
	c0,0,0-0.4,0.4-0.5c0,0,0.1,0.3,0.3,0.4C45.1,13.9,45.1,13.7,45,13.4z"/>
<path d="M45.6,12.8c0,0,0.1,0.2,0.4,0.2c0.1,0,0.3,0,0.4-0.2c0,0,0,0.3-0.4,0.3C46,13.1,45.6,13.1,45.6,12.8z"/>
<path d="M44.1,15l0.2,0.2c0,0,0.1,0.1,0.2,0c0,0,0.1-0.3,0.3-0.3c0,0-0.1,0.1-0.3,0.3c0,0,0,0.1-0.1,0.1s-0.1,0-0.2-0.1
	C44.2,15.3,44.2,15.2,44.1,15z"/>
<path d="M46,11.5c-0.4,0-0.1,0.3-0.1,0.3c0,0.5-0.4,0.6-0.6,0.5c-0.3-0.1-0.1-0.5-0.1-0.5s-0.2,0.2,0,0.5s0.7,0.2,0.8-0.1
	c0.2,0.3,0.7,0.4,0.8,0.1c0.2-0.3-0.1-0.5-0.1-0.5s0.2,0.3-0.1,0.5c-0.3,0.1-0.6,0-0.6-0.5C46.1,11.8,46.4,11.5,46,11.5z"/>
<path d="M46.3,11c0,0,0.1,0.2,0.1,0.6C46.4,11.6,46.5,11.2,46.3,11z"/>
<path d="M45.1,11.5c0,0,0-0.2-0.3-0.3C44.8,11.3,45,11.4,45.1,11.5z"/>
<path d="M47,11.5c0,0,0-0.2,0.3-0.3C47.2,11.3,47,11.4,47,11.5z"/>
<path d="M44.7,11.9c0,0,0.2,0.1,0.3-0.1C45,11.8,44.8,11.9,44.7,11.9z"/>
<path d="M44.1,10.4c0,0,0.2,0,0.4,0.3c0,0-0.2,0.1-0.3,0.2c0,0,0-0.1,0.1-0.2C44.4,10.7,44.3,10.5,44.1,10.4z"/>
<path d="M47.8,10.4c0,0-0.2,0-0.4,0.3c0,0,0.2,0.1,0.3,0.2c0,0,0-0.1-0.1-0.2C47.6,10.7,47.6,10.5,47.8,10.4z"/>
<path d="M46.1,10.6c0,0,0.2,0.1,0.5-0.1c0,0,0.3-0.2,0.5,0c0,0-0.2-0.1-0.5,0.1C46.6,10.6,46.2,10.8,46.1,10.6z"/>
<path class="st2" d="M46.3,10.8c0,0,0.2-0.3,0.7-0.2C47,10.6,46.9,11,46.3,10.8z"/>
<ellipse class="st7" cx="46.7" cy="10.7" rx="0.1" ry="0.1"/>
<ellipse cx="46.7" cy="10.7" rx="0.1" ry="0.1"/>
<path d="M45.2,10.2c0,0,0.3,0,0.5,0.1c0,0,0.2,0.1,0.5-0.1c0,0,0.3-0.2,0.4-0.4c0,0-0.4,0.3-0.6,0.3c0,0-0.1-0.1-0.2-0.3
	c0,0,0-0.1,0.2-0.3c0,0-0.3,0.1-0.4,0.3c0,0,0.1,0.2,0.2,0.3c0,0-0.1,0-0.2-0.1C45.7,10.2,45.4,10.1,45.2,10.2z"/>
<path d="M46,12.2c-0.3,0.2,0,0.2,0,0.2S46.3,12.4,46,12.2z"/>
<path d="M45.9,10.6c0,0-0.2,0.1-0.5-0.1c0,0-0.3-0.2-0.5,0c0,0,0.2-0.1,0.5,0.1C45.4,10.6,45.7,10.8,45.9,10.6z"/>
<path class="st2" d="M45.7,10.8c0,0-0.2-0.3-0.7-0.2C45,10.6,45.1,11,45.7,10.8z"/>
<ellipse class="st7" cx="45.3" cy="10.7" rx="0.1" ry="0.1"/>
<ellipse cx="45.3" cy="10.7" rx="0.1" ry="0.1"/>
<path class="st6" d="M56.2,8.1v19c0,5.1-10.2,6.7-10.2,6.7s-10.2-1.7-10.2-6.7v-19C35.8,8.1,56.2,8.1,56.2,8.1z"/>
</svg>
