<?xml version="1.0" encoding="utf-8"?>
<!-- Generator: Adobe Illustrator 20.0.0, SVG Export Plug-In . SVG Version: 6.00 Build 0)  -->
<svg version="1.1" id="Layer_1" xmlns="http://www.w3.org/2000/svg" xmlns:xlink="http://www.w3.org/1999/xlink" x="0px" y="0px"
	 viewBox="0 0 64 42" style="enable-background:new 0 0 64 42;" xml:space="preserve">
<style type="text/css">
	.st0{fill:#00247D;}
	.st1{fill:#FFFFFF;}
	.st2{fill:#006129;}
	.st3{fill:none;}
	.st4{fill:#F7C600;}
	.st5{fill:url(#SVGID_1_);}
	.st6{fill:url(#SVGID_2_);}
	.st7{fill:url(#SVGID_3_);}
	.st8{fill:url(#SVGID_4_);}
	.st9{fill:url(#SVGID_5_);}
	.st10{fill:url(#SVGID_6_);}
	.st11{fill:url(#SVGID_7_);}
	.st12{fill:url(#SVGID_8_);}
	.st13{fill:url(#SVGID_9_);}
	.st14{fill:url(#SVGID_10_);}
	.st15{fill:url(#SVGID_11_);}
	.st16{fill:url(#SVGID_12_);}
	.st17{fill:#FFC6B5;}
	.st18{fill:#9C5100;}
	.st19{fill:#CF142B;}
</style>
<path id="Rounded_Rectangle_7_copy_2" class="st0" d="M5.8,0h52.4C61.4,0,64,2.5,64,5.7v30.6c0,3.1-2.6,5.7-5.8,5.7H5.8
	C2.6,42,0,39.5,0,36.3V5.7C0,2.5,2.6,0,5.8,0z"/>
<path class="st1" d="M37.1,9.2l16.7-0.1V24c0,0,0.6,2.3-7,5.7c2.7-0.3,5.7-3.2,5.7-3.2s1.2-1.5,1.8-0.7c0.6,0.9,1.1,1.3,1.6,1.6
	c0.4,0.3,0.8,1.3,0.1,2s-1.7,0.8-2-0.1c-0.4,0.2-3.1,3.4-8.5,3.6c-5.5-0.1-8.6-3.6-8.6-3.6s-0.7,1.2-1.8,0.2c-1-1.2-0.2-2-0.2-2
	s0.9-0.5,1.1-0.8c0.4-0.5,0.5-1.1,1.2-1.1c0.8,0.1,1.1,0.7,1.1,0.7s2.8,2.9,5.8,3.3c-6.8-3.3-7-5.3-7-5.8L37.1,9.2L37.1,9.2z"/>
<path class="st2" d="M37.5,9.6l15.9-0.1v14.3c0,1.9-3.1,3.7-8,6.2c-5-2.6-8-4.2-8-6.2L37.5,9.6L37.5,9.6z"/>
<path class="st3" d="M39.6,11.7l0.9-1.4l0.9,1.4"/>
<path class="st4" d="M40.7,11.2c0,0.1-0.1,0.2-0.2,0.2s-0.2-0.1-0.2-0.2c0-0.1,0.1-0.2,0.2-0.2S40.7,11.1,40.7,11.2z"/>
<path class="st4" d="M39.8,12.7h1.5c0,0,0-0.2-0.2-0.3c0.8-0.1,0.6-0.8,1.2-0.8c0.1,0-0.3,0.3-0.3,0.3s-0.4,0.3-0.2,0.4
	c0.1,0.1,0.2-0.1,0.2-0.2c0-0.1,0.6-0.2,0.5-0.6c-0.1-0.3-1,0.2-1,0.2h-0.6c0-0.1-0.2-0.3-0.4-0.3s-0.3,0.3-0.3,0.3h-0.9h-0.5
	c0,0,0,0.3,0.6,0.4c0.2,0.2,0.3,0.3,0.4,0.3C39.8,12.5,39.8,12.6,39.8,12.7L39.8,12.7z"/>
<path class="st4" d="M39.9,12.4h1.2"/>
<path class="st4" d="M39.3,11.7c0,0,0.1,0.6,0.5,0.7"/>
<linearGradient id="SVGID_1_" gradientUnits="userSpaceOnUse" x1="-666.8764" y1="-13.0988" x2="-667.5784" y2="-12.8648" gradientTransform="matrix(0.9961 0 0 -2.2526 703.3987 -18.4205)">
	<stop  offset="0" style="stop-color:#FF0000"/>
	<stop  offset="1" style="stop-color:#FFFF00"/>
</linearGradient>
<path class="st5" d="M39.3,11.7c0-0.2,0.1-0.3,0.2-0.5c0-0.3-0.2-0.2-0.1-0.4c0.1-0.2,0.1-0.4-0.2-0.5c0,0.2-0.3,0.5-0.3,0.7
	s0.2,0.2,0.1,0.5c0,0.2,0,0.1-0.1,0.3L39.3,11.7L39.3,11.7z"/>
<path class="st4" d="M40.7,10.3c0,0.1-0.1,0.2-0.2,0.2s-0.2-0.1-0.2-0.2c0-0.1,0.1-0.2,0.2-0.2C40.7,10.2,40.7,10.2,40.7,10.3z"/>
<path class="st3" d="M39.6,14.4l0.9-1.4l0.9,1.4"/>
<path class="st4" d="M40.7,13.9c0,0.1-0.1,0.2-0.2,0.2c-0.1,0-0.2-0.1-0.2-0.2c0-0.1,0.1-0.2,0.2-0.2C40.6,13.7,40.7,13.8,40.7,13.9
	z"/>
<path class="st4" d="M39.7,15.4h1.5c0,0,0-0.2-0.2-0.3c0.8-0.1,0.6-0.8,1.2-0.8c0.1,0-0.3,0.3-0.3,0.3s-0.4,0.3-0.2,0.4
	c0.1,0.1,0.2-0.1,0.2-0.2c0-0.1,0.6-0.2,0.5-0.6c-0.1-0.3-1,0.2-1,0.2h-0.6c0-0.1-0.2-0.3-0.4-0.3s-0.3,0.3-0.3,0.3h-0.9h-0.5
	c0,0,0,0.3,0.6,0.4c0.2,0.2,0.3,0.3,0.4,0.3C39.8,15.2,39.7,15.3,39.7,15.4L39.7,15.4z"/>
<path class="st4" d="M39.9,15.1h1.2"/>
<path class="st4" d="M39.3,14.4c0,0,0.1,0.6,0.5,0.7"/>
<linearGradient id="SVGID_2_" gradientUnits="userSpaceOnUse" x1="-666.1508" y1="4.0218" x2="-666.8527" y2="4.2559" gradientTransform="matrix(0.9961 0 0 -2.2526 702.6265 22.8835)">
	<stop  offset="0" style="stop-color:#FF0000"/>
	<stop  offset="1" style="stop-color:#FFFF00"/>
</linearGradient>
<path class="st6" d="M39.2,14.4c0-0.2,0.1-0.3,0.2-0.5c0-0.3-0.2-0.2-0.1-0.4c0.1-0.2,0.1-0.4-0.2-0.5c0,0.2-0.3,0.5-0.3,0.7
	s0.2,0.2,0.1,0.5c0,0.2,0,0.1-0.1,0.3L39.2,14.4L39.2,14.4z"/>
<path class="st4" d="M40.7,13.1c0,0.1-0.1,0.2-0.2,0.2s-0.2-0.1-0.2-0.2c0-0.1,0.1-0.2,0.2-0.2C40.6,12.9,40.7,13,40.7,13.1z"/>
<path class="st3" d="M39.5,17.1l0.9-1.4l0.9,1.4"/>
<path class="st4" d="M40.7,16.6c0,0.1-0.1,0.2-0.2,0.2s-0.2-0.1-0.2-0.2s0.1-0.2,0.2-0.2S40.7,16.5,40.7,16.6z"/>
<path class="st4" d="M39.7,18.2h1.5c0,0,0-0.2-0.2-0.3c0.8-0.1,0.6-0.8,1.2-0.8c0.1,0-0.3,0.3-0.3,0.3s-0.4,0.3-0.2,0.4
	c0.1,0.1,0.2-0.1,0.2-0.2s0.6-0.2,0.5-0.6c-0.1-0.3-1,0.2-1,0.2h-0.6c0-0.1-0.2-0.3-0.4-0.3s-0.3,0.3-0.3,0.3h-0.9h-0.5
	c0,0,0,0.3,0.6,0.4c0.2,0.2,0.3,0.3,0.4,0.3C39.7,17.9,39.7,18,39.7,18.2L39.7,18.2z"/>
<path class="st4" d="M39.8,17.9H41"/>
<path class="st4" d="M39.3,17.1c0,0,0.1,0.6,0.5,0.7"/>
<linearGradient id="SVGID_3_" gradientUnits="userSpaceOnUse" x1="-665.85" y1="20.901" x2="-666.5519" y2="21.135" gradientTransform="matrix(0.9961 0 0 -2.2526 702.3095 63.5925)">
	<stop  offset="0" style="stop-color:#FF0000"/>
	<stop  offset="1" style="stop-color:#FFFF00"/>
</linearGradient>
<path class="st7" d="M39.2,17.1c0-0.2,0.1-0.3,0.2-0.5c0-0.3-0.2-0.2-0.1-0.4c0.1-0.2,0.1-0.4-0.2-0.5c0,0.2-0.3,0.5-0.3,0.7
	s0.2,0.2,0.1,0.5c0,0.2,0,0.1-0.1,0.3h0.4C39.2,17.2,39.2,17.1,39.2,17.1z"/>
<path class="st4" d="M40.7,15.8c0,0.1-0.1,0.2-0.2,0.2c-0.1,0-0.2-0.1-0.2-0.2c0-0.1,0.1-0.2,0.2-0.2C40.6,15.6,40.7,15.7,40.7,15.8
	z"/>
<path class="st3" d="M41.3,20.1l0.9-1.4l0.9,1.4"/>
<path class="st4" d="M42.5,19.6c0,0.1-0.1,0.2-0.2,0.2s-0.2-0.1-0.2-0.2s0.1-0.2,0.2-0.2S42.5,19.5,42.5,19.6z"/>
<path class="st4" d="M41.5,21.1H43c0,0,0-0.2-0.2-0.3c0.8-0.1,0.6-0.8,1.2-0.8c0.1,0-0.3,0.3-0.3,0.3s-0.4,0.3-0.2,0.4
	c0.1,0.1,0.2-0.1,0.2-0.2s0.6-0.2,0.5-0.6c-0.1-0.3-1,0.2-1,0.2h-0.6c0-0.1-0.2-0.3-0.4-0.3s-0.3,0.3-0.3,0.3H41h-0.5
	c0,0,0,0.3,0.6,0.4c0.2,0.2,0.3,0.3,0.4,0.3C41.5,20.9,41.5,21,41.5,21.1L41.5,21.1z"/>
<path class="st4" d="M41.6,20.8h1.2"/>
<path class="st4" d="M41.1,20.1c0,0,0.1,0.6,0.5,0.7"/>
<linearGradient id="SVGID_4_" gradientUnits="userSpaceOnUse" x1="-690.8886" y1="39.1488" x2="-691.5905" y2="39.3829" gradientTransform="matrix(0.9961 0 0 -2.2526 729.0255 107.6785)">
	<stop  offset="0" style="stop-color:#FF0000"/>
	<stop  offset="1" style="stop-color:#FFFF00"/>
</linearGradient>
<path class="st8" d="M41,20.1c0-0.2,0.1-0.3,0.2-0.5c0-0.3-0.2-0.2-0.1-0.4c0.1-0.2,0.1-0.4-0.2-0.5c0,0.2-0.3,0.5-0.3,0.7
	s0.2,0.2,0.1,0.5c0,0.2,0,0.1-0.1,0.3L41,20.1L41,20.1z"/>
<path class="st4" d="M42.4,18.7c0,0.1-0.1,0.2-0.2,0.2c-0.1,0-0.2-0.1-0.2-0.2s0.1-0.2,0.2-0.2C42.4,18.6,42.4,18.6,42.4,18.7z"/>
<path class="st3" d="M39.3,22.5l0.9-1.4l0.9,1.4"/>
<path class="st4" d="M40.4,22c0,0.1-0.1,0.2-0.2,0.2S40,22.1,40,22s0.1-0.2,0.2-0.2S40.4,21.9,40.4,22z"/>
<path class="st4" d="M39.5,23.5H41c0,0,0-0.2-0.2-0.3c0.8-0.1,0.6-0.8,1.2-0.8c0.1,0-0.3,0.3-0.3,0.3s-0.4,0.3-0.2,0.4
	c0.1,0.1,0.2-0.1,0.2-0.2s0.6-0.2,0.5-0.6c-0.1-0.3-1,0.2-1,0.2h-0.6c0-0.1-0.2-0.3-0.4-0.3s-0.3,0.3-0.3,0.3H39h-0.5
	c0,0,0,0.3,0.6,0.4c0.2,0.2,0.3,0.3,0.4,0.3C39.5,23.3,39.5,23.4,39.5,23.5L39.5,23.5z"/>
<path class="st4" d="M39.6,23.2h1.2"/>
<path class="st4" d="M39,22.5c0,0,0.1,0.6,0.5,0.7"/>
<linearGradient id="SVGID_5_" gradientUnits="userSpaceOnUse" x1="-662.5895" y1="54.0974" x2="-663.2914" y2="54.3315" gradientTransform="matrix(0.9961 0 0 -2.2526 698.8245 143.7425)">
	<stop  offset="0" style="stop-color:#FF0000"/>
	<stop  offset="1" style="stop-color:#FFFF00"/>
</linearGradient>
<path class="st9" d="M39,22.5c0-0.2,0.1-0.3,0.2-0.5c0-0.3-0.2-0.2-0.1-0.4c0.1-0.2,0.1-0.4-0.2-0.5c0,0.2-0.3,0.5-0.3,0.7
	s0.2,0.2,0.1,0.5c0,0.2,0,0.1-0.1,0.3L39,22.5L39,22.5z"/>
<path class="st4" d="M40.4,21.1c0,0.1-0.1,0.2-0.2,0.2c-0.1,0-0.2-0.1-0.2-0.2s0.1-0.2,0.2-0.2C40.4,21,40.4,21,40.4,21.1z"/>
<path class="st3" d="M39.4,25.3l0.9-1.4l0.9,1.4"/>
<path class="st4" d="M40.5,24.8c0,0.1-0.1,0.2-0.2,0.2c-0.1,0-0.2-0.1-0.2-0.2s0.1-0.2,0.2-0.2C40.4,24.6,40.5,24.7,40.5,24.8z"/>
<path class="st4" d="M39.5,26.3H41c0,0,0-0.2-0.2-0.3c0.8-0.1,0.6-0.8,1.2-0.8c0.1,0-0.3,0.3-0.3,0.3s-0.4,0.3-0.2,0.4
	c0.1,0.1,0.2-0.1,0.2-0.2s0.6-0.2,0.5-0.6c-0.1-0.3-1,0.2-1,0.2h-0.6c0-0.1-0.2-0.3-0.4-0.3s-0.3,0.3-0.3,0.3H39h-0.5
	c0,0,0,0.3,0.6,0.4c0.2,0.2,0.3,0.3,0.4,0.3C39.6,26.1,39.5,26.2,39.5,26.3L39.5,26.3z"/>
<path class="st4" d="M39.7,26h1.2"/>
<path class="st4" d="M39.1,25.3c0,0,0.1,0.6,0.5,0.7"/>
<linearGradient id="SVGID_6_" gradientUnits="userSpaceOnUse" x1="-663.3315" y1="71.7525" x2="-664.0336" y2="71.9865" gradientTransform="matrix(0.9961 0 0 -2.2526 699.6165 186.3524)">
	<stop  offset="0" style="stop-color:#FF0000"/>
	<stop  offset="1" style="stop-color:#FFFF00"/>
</linearGradient>
<path class="st10" d="M39,25.3c0-0.2,0.1-0.3,0.2-0.5c0-0.3-0.2-0.2-0.1-0.4c0.1-0.2,0.1-0.4-0.2-0.5c0,0.2-0.3,0.5-0.3,0.7
	s0.2,0.2,0.1,0.5c0,0.2,0,0.1-0.1,0.3H39V25.3z"/>
<path class="st4" d="M40.5,24c0,0.1-0.1,0.2-0.2,0.2c-0.1,0-0.2-0.1-0.2-0.2s0.1-0.2,0.2-0.2S40.5,23.9,40.5,24z"/>
<path class="st3" d="M49.4,11.7l0.9-1.4l0.9,1.4"/>
<path class="st4" d="M50.5,11.2c0,0.1-0.1,0.2-0.2,0.2s-0.2-0.1-0.2-0.2c0-0.1,0.1-0.2,0.2-0.2S50.5,11.1,50.5,11.2z"/>
<path class="st4" d="M49.5,12.7H51c0,0,0-0.2-0.2-0.3c0.8-0.1,0.6-0.8,1.2-0.8c0.1,0-0.3,0.3-0.3,0.3s-0.4,0.3-0.2,0.4
	c0.1,0.1,0.2-0.1,0.2-0.2c0-0.1,0.6-0.2,0.5-0.6c-0.1-0.3-1,0.2-1,0.2h-0.6c0-0.1-0.2-0.3-0.4-0.3s-0.3,0.3-0.3,0.3H49h-0.5
	c0,0,0,0.3,0.6,0.4c0.2,0.2,0.3,0.3,0.4,0.3C49.6,12.5,49.5,12.6,49.5,12.7L49.5,12.7z"/>
<path class="st4" d="M49.7,12.4h1.2"/>
<path class="st4" d="M49.1,11.7c0,0,0.1,0.6,0.5,0.7"/>
<linearGradient id="SVGID_7_" gradientUnits="userSpaceOnUse" x1="-803.9352" y1="-12.819" x2="-804.6372" y2="-12.5849" gradientTransform="matrix(0.9961 0 0 -2.2526 849.6785 -17.7485)">
	<stop  offset="0" style="stop-color:#FF0000"/>
	<stop  offset="1" style="stop-color:#FFFF00"/>
</linearGradient>
<path class="st11" d="M49,11.7c0-0.2,0.1-0.3,0.2-0.5c0-0.3-0.2-0.2-0.1-0.4c0.1-0.2,0.1-0.4-0.2-0.5c0,0.2-0.3,0.5-0.3,0.7
	s0.2,0.2,0.1,0.5c0,0.2,0,0.1-0.1,0.3L49,11.7L49,11.7z"/>
<path class="st4" d="M50.5,10.4c0,0.1-0.1,0.2-0.2,0.2c-0.1,0-0.2-0.1-0.2-0.2c0-0.1,0.1-0.2,0.2-0.2S50.5,10.3,50.5,10.4z"/>
<path class="st3" d="M49.3,14.4l0.9-1.4l0.9,1.4"/>
<path class="st4" d="M50.4,13.9c0,0.1-0.1,0.2-0.2,0.2S50,14,50,13.9s0.1-0.2,0.2-0.2S50.4,13.8,50.4,13.9z"/>
<path class="st4" d="M49.5,15.4H51c0,0,0-0.2-0.2-0.3c0.8-0.1,0.6-0.8,1.2-0.8c0.1,0-0.3,0.3-0.3,0.3s-0.4,0.3-0.2,0.4
	c0.1,0.1,0.2-0.1,0.2-0.2c0-0.1,0.6-0.2,0.5-0.6c-0.1-0.3-1,0.2-1,0.2h-0.6c0-0.1-0.2-0.3-0.4-0.3s-0.3,0.3-0.3,0.3H49h-0.5
	c0,0,0,0.3,0.6,0.4c0.2,0.2,0.3,0.3,0.4,0.3C49.5,15.2,49.5,15.3,49.5,15.4L49.5,15.4z"/>
<path class="st4" d="M49.6,15.1h1.2"/>
<path class="st4" d="M49,14.4c0,0,0.1,0.6,0.5,0.7"/>
<linearGradient id="SVGID_8_" gradientUnits="userSpaceOnUse" x1="-802.6768" y1="3.9788" x2="-803.3787" y2="4.2128" gradientTransform="matrix(0.9961 0 0 -2.2526 848.3345 22.7975)">
	<stop  offset="0" style="stop-color:#FF0000"/>
	<stop  offset="1" style="stop-color:#FFFF00"/>
</linearGradient>
<path class="st12" d="M48.9,14.4c0-0.2,0.1-0.3,0.2-0.5c0-0.3-0.2-0.2-0.1-0.4c0.1-0.2,0.1-0.4-0.2-0.5c0,0.2-0.3,0.5-0.3,0.7
	s0.2,0.2,0.1,0.5c0,0.2,0,0.1-0.1,0.3L48.9,14.4L48.9,14.4z"/>
<path class="st4" d="M50.4,13.1c0,0.1-0.1,0.2-0.2,0.2c-0.1,0-0.2-0.1-0.2-0.2c0-0.1,0.1-0.2,0.2-0.2C50.3,12.9,50.4,13,50.4,13.1z"
	/>
<path class="st3" d="M49.2,17.2l0.9-1.4l0.9,1.4"/>
<path class="st4" d="M50.3,16.7c0,0.1-0.1,0.2-0.2,0.2s-0.2-0.1-0.2-0.2s0.1-0.2,0.2-0.2S50.3,16.6,50.3,16.7z"/>
<path class="st4" d="M49.3,18.2h1.5c0,0,0-0.2-0.2-0.3c0.8-0.1,0.6-0.8,1.2-0.8c0.1,0-0.3,0.3-0.3,0.3s-0.4,0.3-0.2,0.4
	c0.1,0.1,0.2-0.1,0.2-0.2s0.6-0.2,0.5-0.6c-0.1-0.3-1,0.2-1,0.2h-0.6c0-0.1-0.2-0.3-0.4-0.3s-0.3,0.3-0.3,0.3h-0.9h-0.5
	c0,0,0,0.3,0.6,0.4c0.2,0.2,0.3,0.3,0.4,0.3C49.4,18,49.3,18.1,49.3,18.2L49.3,18.2z"/>
<path class="st4" d="M49.4,17.9h1.2"/>
<path class="st4" d="M48.9,17.2c0,0,0.1,0.6,0.5,0.7"/>
<linearGradient id="SVGID_9_" gradientUnits="userSpaceOnUse" x1="-801.0009" y1="21.1413" x2="-801.7028" y2="21.3753" gradientTransform="matrix(0.9961 0 0 -2.2526 846.5425 64.2405)">
	<stop  offset="0" style="stop-color:#FF0000"/>
	<stop  offset="1" style="stop-color:#FFFF00"/>
</linearGradient>
<path class="st13" d="M48.8,17.2c0-0.2,0.1-0.3,0.2-0.5c0-0.3-0.2-0.2-0.1-0.4c0.1-0.2,0.1-0.4-0.2-0.5c0,0.2-0.3,0.5-0.3,0.7
	s0.2,0.2,0.1,0.5c0,0.2,0,0.1-0.1,0.3L48.8,17.2L48.8,17.2z"/>
<path class="st4" d="M50.3,15.8c0,0.1-0.1,0.2-0.2,0.2s-0.2-0.1-0.2-0.2c0-0.1,0.1-0.2,0.2-0.2C50.2,15.7,50.3,15.7,50.3,15.8z"/>
<path class="st3" d="M49.3,19.9l0.9-1.4l0.9,1.4"/>
<path class="st4" d="M50.4,19.4c0,0.1-0.1,0.2-0.2,0.2c-0.1,0-0.2-0.1-0.2-0.2s0.1-0.2,0.2-0.2C50.3,19.2,50.4,19.3,50.4,19.4z"/>
<path class="st4" d="M49.5,20.9H51c0,0,0-0.2-0.2-0.3c0.8-0.1,0.6-0.8,1.2-0.8c0.1,0-0.3,0.3-0.3,0.3s-0.4,0.3-0.2,0.4
	c0.1,0.1,0.2-0.1,0.2-0.2s0.6-0.2,0.5-0.6c-0.1-0.3-1,0.2-1,0.2h-0.6c0-0.1-0.2-0.3-0.4-0.3s-0.3,0.3-0.3,0.3H49h-0.5
	c0,0,0,0.3,0.6,0.4c0.2,0.2,0.3,0.3,0.4,0.3C49.5,20.7,49.5,20.8,49.5,20.9L49.5,20.9z"/>
<path class="st4" d="M49.6,20.6h1.2"/>
<path class="st4" d="M49,19.9c0,0,0.1,0.6,0.5,0.7"/>
<linearGradient id="SVGID_10_" gradientUnits="userSpaceOnUse" x1="-802.8912" y1="38.0306" x2="-803.5931" y2="38.2647" gradientTransform="matrix(0.9961 0 0 -2.2526 848.5585 105.0105)">
	<stop  offset="0" style="stop-color:#FF0000"/>
	<stop  offset="1" style="stop-color:#FFFF00"/>
</linearGradient>
<path class="st14" d="M48.9,19.9c0-0.2,0.1-0.3,0.2-0.5c0-0.3-0.2-0.2-0.1-0.4c0.1-0.2,0.1-0.4-0.2-0.5c0,0.2-0.3,0.5-0.3,0.7
	s0.2,0.2,0.1,0.5c0,0.2,0,0.1-0.1,0.3L48.9,19.9L48.9,19.9z"/>
<path class="st4" d="M50.4,18.6c0,0.1-0.1,0.2-0.2,0.2c-0.1,0-0.2-0.1-0.2-0.2s0.1-0.2,0.2-0.2S50.4,18.5,50.4,18.6z"/>
<path class="st3" d="M49.3,22.6l0.9-1.4l0.9,1.4"/>
<path class="st4" d="M50.4,22.1c0,0.1-0.1,0.2-0.2,0.2S50,22.2,50,22.1s0.1-0.2,0.2-0.2S50.4,22,50.4,22.1z"/>
<path class="st4" d="M49.4,23.6h1.5c0,0,0-0.2-0.2-0.3c0.8-0.1,0.6-0.8,1.2-0.8c0.1,0-0.3,0.3-0.3,0.3s-0.4,0.3-0.2,0.4
	c0.1,0.1,0.2-0.1,0.2-0.2s0.6-0.2,0.5-0.6c-0.1-0.3-1,0.2-1,0.2h-0.6c0-0.1-0.2-0.3-0.4-0.3s-0.3,0.3-0.3,0.3H49h-0.5
	c0,0,0,0.3,0.6,0.4c0.2,0.2,0.3,0.3,0.4,0.3C49.5,23.4,49.4,23.5,49.4,23.6L49.4,23.6z"/>
<path class="st4" d="M49.5,23.3h1.2"/>
<path class="st4" d="M49,22.6c0,0,0.1,0.6,0.5,0.7"/>
<linearGradient id="SVGID_11_" gradientUnits="userSpaceOnUse" x1="-802.4661" y1="54.9393" x2="-803.1681" y2="55.1733" gradientTransform="matrix(0.9961 0 0 -2.2526 848.1105 145.7805)">
	<stop  offset="0" style="stop-color:#FF0000"/>
	<stop  offset="1" style="stop-color:#FFFF00"/>
</linearGradient>
<path class="st15" d="M48.9,22.6c0-0.2,0.1-0.3,0.2-0.5c0-0.3-0.2-0.2-0.1-0.4c0.1-0.2,0.1-0.4-0.2-0.5c0,0.2-0.3,0.5-0.3,0.7
	s0.2,0.2,0.1,0.5c0,0.2,0,0.1-0.1,0.3L48.9,22.6L48.9,22.6z"/>
<path class="st4" d="M50.4,21.3c0,0.1-0.1,0.2-0.2,0.2S50,21.4,50,21.3s0.1-0.2,0.2-0.2C50.3,21.1,50.4,21.2,50.4,21.3z"/>
<path class="st3" d="M49.3,25.3l0.9-1.4l0.9,1.4"/>
<path class="st4" d="M50.4,24.8c0,0.1-0.1,0.2-0.2,0.2S50,24.9,50,24.8s0.1-0.2,0.2-0.2S50.4,24.7,50.4,24.8z"/>
<path class="st4" d="M49.5,26.4H51c0,0,0-0.2-0.2-0.3c0.8-0.1,0.6-0.8,1.2-0.8c0.1,0-0.3,0.3-0.3,0.3s-0.4,0.3-0.2,0.4
	c0.1,0.1,0.2-0.1,0.2-0.2s0.6-0.2,0.5-0.6c-0.1-0.3-1,0.2-1,0.2h-0.6c0-0.1-0.2-0.3-0.4-0.3s-0.3,0.3-0.3,0.3H49h-0.5
	c0,0,0,0.3,0.6,0.4c0.2,0.2,0.3,0.3,0.4,0.3C49.5,26.2,49.5,26.2,49.5,26.4L49.5,26.4z"/>
<path class="st4" d="M49.6,26.1h1.2"/>
<path class="st4" d="M49,25.4c0,0,0.1,0.6,0.5,0.7"/>
<linearGradient id="SVGID_12_" gradientUnits="userSpaceOnUse" x1="-802.6866" y1="71.8933" x2="-803.3886" y2="72.1274" gradientTransform="matrix(0.9961 0 0 -2.2526 848.3345 186.7744)">
	<stop  offset="0" style="stop-color:#FF0000"/>
	<stop  offset="1" style="stop-color:#FFFF00"/>
</linearGradient>
<path class="st16" d="M48.9,25.4c0-0.2,0.1-0.3,0.2-0.5c0-0.3-0.2-0.2-0.1-0.4c0.1-0.2,0.1-0.4-0.2-0.5c0,0.2-0.3,0.5-0.3,0.7
	s0.2,0.2,0.1,0.5c0,0.2,0,0.1-0.1,0.3h0.4C48.9,25.5,48.9,25.4,48.9,25.4z"/>
<path class="st4" d="M50.4,24c0,0.1-0.1,0.2-0.2,0.2c-0.1,0-0.2-0.1-0.2-0.2s0.1-0.2,0.2-0.2C50.3,23.8,50.4,23.9,50.4,24z"/>
<path class="st4" d="M46.4,26.6c0,0,0.4,0.9,0.8,0.3c0.4-0.5,0.3-0.8,0.3-0.8l-1-0.5l-0.3,0.6L46.4,26.6L46.4,26.6z"/>
<path class="st17" d="M47.2,26.5c0,0,0.1,0,0.1-0.1c0.1-0.1-0.1-0.1-0.2-0.2L47,26.4L47.2,26.5z"/>
<path class="st17" d="M45,26.3l-0.9,0.5c0,0-0.4,0.1-0.5,0c0-0.1,0-0.2,0.2-0.2s0.8-0.6,0.8-0.6L45,26.3L45,26.3z"/>
<path class="st17" d="M45,11.1c0,0,0,0.2,0,0.3s-0.2,0.3-0.2,0.3s-0.1,0-0.1,0.1s0.1,0.1,0.1,0.1s-0.1,0.2,0,0.2s-0.1,0.3,0,0.4
	c0.1,0.1,0.4,0.2,0.5,0.1s0,0.4,0,0.4L45,13.6l1.6-0.2L46.4,13c0,0-0.2-0.1-0.1-0.4c0-0.3,0-1.7,0-1.7l-1.2-0.2L45,11.1L45,11.1z"/>
<path class="st17" d="M44.7,13.5c0,0-0.5,0.2-0.5,0.9C44.1,15,44,15.7,44,15.7s-0.6,0.7-0.8,1c-0.2,0.3-0.5,0.8-0.6,0.9
	s-0.5,0.6-0.5,0.8c0,0.2-0.1,0.9,0.3,1c0.1,0,0.4-0.9,0.4-0.9s0-0.4-0.1-0.5s0.3-0.3,0.3-0.3s0.7-0.5,0.9-0.6s0.6-0.6,0.6-0.6
	L44.7,13.5L44.7,13.5z"/>
<path class="st1" d="M45.3,13c0,0,0.1,0.4,0.4,0.3c0.3-0.1,0.7-0.3,0.7-0.3h0.3c0,0,0.8,0.7,0.7,1c0,0.2-0.3,0.2-0.5,0.3
	s-0.3,0.5-0.3,0.8c0.1,0.3,0.2,0.6,0.2,0.8s-0.1,0.2-0.1,0.3s0.1,0.2,0.1,0.3c0,0.1-0.1,0.3-0.1,0.5c0,0.1,0,0.5,0,0.5v1.9
	c0,0,0.1,0.1,0.1,0.2s0.7,3.2,0.7,3.2s0,0.1-0.1,0.1s0.3,0.5,0.3,0.6s0.4,1.2,0.4,1.4c0,0.1-0.1,0.5-0.1,0.5s0.2,0.7,0.2,0.8
	c0,0.1-0.5,0.1-0.5,0.1h-0.1c0,0,0,0.1-0.1,0.1s-0.7,0-0.7,0s-0.2,0.3-0.3,0.3s-0.2-0.2-0.3-0.2c0,0,0.1,0.2,0.1,0.3
	c0,0.1-0.6,0.2-0.7-0.1c-0.1-0.3,0.1-0.2,0-0.2c0-0.1-0.3-0.2-0.3-0.1c-0.1,0,0.2,0.1,0.2,0.2s-0.2,0.3-0.3,0.3s-0.3-0.4-0.6-0.3
	c-0.3,0-0.5,0.1-0.5,0.1s-0.3,0.1-0.5,0.1c-0.1,0-0.2-0.1-0.2-0.2s0.1-0.3,0.1-0.4s-0.1-0.2-0.1-0.3c0-0.1,0.2-0.6,0.2-0.6v-1.9
	c0,0-0.2,0-0.2-0.1s0.3-3.1,0.4-3.3c0.1-0.2,0.2-0.9,0.2-0.9s-0.2,0.1-0.2,0s0.5-1.8,0.5-1.8s0.1-0.8,0.1-1.1c0-0.2,0-0.5,0-0.5
	S44,15.2,44,14.9c0-0.4,0.4-0.7,0.5-0.8s0.2-0.6,0.2-0.6S44.9,13.1,45.3,13z"/>
<path class="st4" d="M45.2,26.4c0,0-1,0.5-1.2,0.6c-0.1,0-0.2-0.2-0.1-0.2c0.1,0,0.4-0.1,0.4-0.1L44,26.4l0.5-0.2
	c0,0,0.1,0.3,0.2,0.3c0.1,0,0.4-0.2,0.4-0.2L45.2,26.4z"/>
<path class="st17" d="M46.6,26.7c0.1,0.1,0.1,0.3,0.4,0.2c0.2-0.1-0.1-0.4-0.1-0.4L46.6,26.7L46.6,26.7z"/>
<path class="st17" d="M47,26.7c0,0,0.1,0.1,0.2,0c0.1-0.1-0.2-0.3-0.2-0.3V26.7L47,26.7z"/>
<path class="st17" d="M47.5,14c0,0,0.3,1,0.4,1.3c0,0.3,0.2,1.3,0.1,1.5c-0.1,0.1-0.6,0.9-0.7,1c-0.1,0.2-0.4,0.9-0.4,0.9l-0.1,0.7
	c0,0,0.1,0.2,0.1,0.3c0,0.1-0.3,0.4-0.4,0.3c-0.1,0-0.3-0.2-0.3-0.3c0-0.1,0-0.6,0.1-0.7s0.6-1.3,0.6-1.4s0.5-1,0.5-1.2
	s-0.1-0.5-0.3-0.7C46.6,14.8,46.8,14.2,47.5,14L47.5,14z"/>
<path class="st18" d="M45,11c0,0,0.2,0,0.4,0c0.1-0.1,0.3-0.1,0.4,0c0.1,0.1,0.2,0.1,0.2,0.1s-0.2,0.4,0,0.4s0.2,0,0.2,0.1
	s-0.1,0.2-0.1,0.2c0,0.1,0.1,0.1,0.1,0.2c0,0-0.1,0.2-0.1,0.3c0,0,0.1,0.2,0.2,0.2c0.1,0,0,0.3,0.2,0.2s0.2-0.2,0.2-0.2
	s0.2,0,0.3-0.2s0.2-0.2,0.2-0.2s0.3-0.1-0.1-0.3c0-1.5-1-1.3-1-1.3s-0.1-0.3-0.3-0.2s-0.2,0.3-0.3,0.2c-0.1,0-0.2-0.1-0.2-0.1
	s-0.1,0.2-0.1,0.3s-0.4-0.1-0.3,0.2C44.8,11.1,45,11.1,45,11L45,11z"/>
<path class="st3" d="M46.7,13.4c0,0-0.9,0.6-0.9,0.8"/>
<path class="st3" d="M46.9,13.5l-0.2,0.2"/>
<path class="st3" d="M47.2,13.8c0,0-0.5,0.4-0.4,0.6"/>
<path class="st3" d="M45,13.4c0,0-0.1,0.3-0.1,0.4c0,0.1,0.3,0.5,0.3,0.7s0,0.4,0,0.4"/>
<path class="st3" d="M44.7,13.9c0,0,0,0.3,0.1,0.4s0.2,0.3,0.3,0.5"/>
<path class="st3" d="M44.7,15.3c0,0,0.3,0.1,0.5-0.4"/>
<path class="st3" d="M45.6,14.5c0,0-0.2,0.5,0.1,0.7s0.6,0.2,0.7,0.1c0.1-0.1,0.3-0.1,0.3-0.1"/>
<path class="st3" d="M45.4,15.2c0,0,0,0.7,1,1.4"/>
<path class="st3" d="M45.5,15.8c0,0,0,0.6,0.4,0.9"/>
<path class="st3" d="M45.3,15.1c0,0-0.3,0.9-0.5,1"/>
<path class="st3" d="M45.2,15.8c0,0,0,0.7-0.1,0.9"/>
<path class="st3" d="M45,16.8c0,0,0.2,0.3,0.4,0.2c0.2,0,0.3-0.3,0.5-0.3s0.3,0.2,0.7,0.1"/>
<path class="st3" d="M46.1,17.2c0,0,0,0.5,0.1,0.6s0.1,0.5,0.1,0.5"/>
<path class="st3" d="M44.8,17c0,0,0,0.5-0.1,0.7s-0.2,0.5-0.2,0.7"/>
<path class="st3" d="M44.1,18.7c0.1,0,0.2-0.2,0.2-0.2"/>
<path class="st3" d="M44.5,18.6c0,0-0.5,1.9-0.3,3.1"/>
<path class="st3" d="M44.6,18.7c0,0-0.2,1.5-0.1,1.7"/>
<path class="st3" d="M44.5,18.7l0.9,0.1"/>
<path class="st3" d="M45.5,18.6c0,0,0.2,0.1,0.6,0.1"/>
<path class="st3" d="M45.4,19.3c0,0,0,2.5-0.1,3"/>
<path class="st3" d="M46.7,19.9c0,0,0.3,2.2,0.4,2.4"/>
<path class="st3" d="M46.1,20.2c0,0,0.2,1.9,0.3,2.1"/>
<path class="st3" d="M43.7,23c0,0,0.3-0.1,0.6-0.4c0.3,0.5,0.9,0,0.9,0s0.8,0.5,1.2-0.1c0.5,0.4,0.8-0.1,0.8-0.1s0.2,0.3,0.3,0.3"/>
<path class="st3" d="M46.7,22.9c0,0,0.4,1.9,1,2.5"/>
<path class="st3" d="M44.6,22.7c0,0,0.1,1.6,0.1,2.8"/>
<path class="st3" d="M44.5,24.6l-0.1,1.1"/>
<path class="st3" d="M43.9,25.8c0,0,0.1,0.5,0.7,0c0.6-0.4,0.6,0.2,0.6,0.2c0,0.1,0.1,0.5,0.3,0.1"/>
<path class="st3" d="M46,25.6c0,0-0.1,0.9,0.7,0.3c0.8-0.7,1,0,1,0.2"/>
<path class="st3" d="M46,10.7c0,0-0.1,0.5,0.4,0.4c-0.1,0.3,0.1,0.3,0.1,0.3"/>
<path class="st3" d="M46.9,11.7c0,0,0.2,0.1,0,0.3"/>
<path class="st3" d="M46.2,12.1c0,0,0.1,0.1,0.2,0.1c0.1,0,0.3,0.1,0.3,0.1s0.2,0.1,0.2,0"/>
<path class="st3" d="M45.5,12.5c0,0,0.4,0.1,0.6-0.4"/>
<path class="st3" d="M44.9,11.9h0.2"/>
<path class="st3" d="M42.5,18.5V19"/>
<path class="st3" d="M42.1,18.5c0,0,0.3,0.5,0.3,0.8"/>
<path class="st3" d="M44.9,12.1h0.2H44.9"/>
<path class="st3" d="M46.1,19.5c0,0,0.2,0,0.2,0.3c0.1-0.5,0.4-0.5,0.4-0.5"/>
<path class="st3" d="M45.2,11.5c0,0,0.1,0,0.2,0H45.2z"/>
<path class="st4" d="M45.3,30.1c4.5-0.1,7.3-3.3,7.3-3.4c0,0,0.6-0.9,1.1-0.8s1.2,1.6,2.1,1.9c0.4,0.7-0.1,1.3-0.3,1.4s-1,0.5-1.1,0
	S54,28.8,54,28.8s-4,3.9-8.5,3.7c-4.7,0-8.6-3.7-8.6-3.7l-0.3,0.4c0,0-0.4,0.4-0.6,0.4c-0.2,0-1-0.6-1.1-1.1s0.5-0.9,0.5-0.9
	s1.4-1.1,1.5-1.6c0.3-0.3,0.9,0.2,0.9,0.2S41.3,30.4,45.3,30.1L45.3,30.1z"/>
<path class="st3" d="M35.2,27.7c0,0,0.4-0.1,0.5,0.1s1.1,1.1,1.1,1.1"/>
<path class="st3" d="M36.1,28.2l-0.4,0.3c0,0,0.9,0.2,0.7,0.8"/>
<path class="st3" d="M55.5,27.7c0,0-0.2-0.1-0.5,0.1s-1,1-1,1"/>
<path class="st3" d="M54.6,28.1l0.4,0.3c0,0-0.8,0.1-0.7,0.8"/>
<path d="M39.9,28.7C39.9,28.8,39.8,28.7,39.9,28.7c-0.2,0-0.4,0.1-0.5,0.2c-0.4,0.2-0.8,0.5-1.2,0.7c0,0,0,0,0-0.1
	c0.1-0.5,0.2-1,0.3-1.5c0-0.1,0-0.2,0-0.3c0,0,0-0.1,0,0c0.2,0.1,0.4,0.3,0.6,0.4c0,0.1-0.1,0-0.1,0c-0.1-0.1-0.2,0-0.2,0.1
	c-0.1,0.3-0.1,0.7-0.2,1c0.3-0.2,0.6-0.3,0.8-0.5c0.1,0,0.2-0.2,0.1-0.3c0,0-0.1-0.1,0-0.1C39.6,28.5,39.8,28.6,39.9,28.7z"/>
<path d="M40.4,30.8C40.4,30.9,40.4,30.9,40.4,30.8c-0.3-0.1-0.6-0.3-0.8-0.4c0,0,0,0,0.1,0s0.2,0.1,0.2,0c0.1-0.2,0.2-0.3,0.3-0.5
	s0.3-0.5,0.4-0.7c0.1-0.1,0-0.2-0.1-0.2c0,0-0.1,0,0-0.1h0.1c0.2,0.1,0.5,0.3,0.7,0.4c0,0,0,0-0.1,0s-0.2-0.1-0.2,0
	c-0.1,0.2-0.2,0.3-0.3,0.5s-0.3,0.5-0.4,0.7C40.2,30.7,40.3,30.8,40.4,30.8L40.4,30.8z"/>
<path d="M43.2,30.2c-0.1,0.2-0.1,0.4-0.2,0.6c-0.1,0,0-0.1-0.1-0.2c0-0.3-0.2-0.5-0.5-0.5c-0.2-0.1-0.4,0-0.5,0.2
	c-0.2,0.2-0.3,0.5-0.3,0.8c0,0.2,0.1,0.3,0.2,0.4c0.1,0.1,0.3,0.1,0.4,0.1c0-0.1,0.1-0.3,0.1-0.4S42.2,31,42.1,31c0,0,0-0.1,0,0
	c0.2,0.1,0.5,0.2,0.7,0.3c0,0.1-0.1,0-0.2,0c-0.1,0-0.1,0.1-0.1,0.2s-0.1,0.2-0.1,0.3c-0.3,0-0.7,0-1-0.2s-0.5-0.5-0.4-0.8
	c0-0.3,0.2-0.6,0.5-0.7c0.2-0.1,0.5-0.1,0.8,0c0.1,0,0.3,0.1,0.4,0.2C43,30.3,43.1,30.3,43.2,30.2L43.2,30.2"/>
<path d="M44.4,32.1C44.4,32.1,44.4,32.2,44.4,32.1c-0.3,0-0.6,0-0.9-0.1c0,0,0-0.1,0,0c0.1,0,0.2,0,0.2-0.1c0-0.1,0-0.2,0.1-0.3
	c0-0.3,0.1-0.6,0.1-1c0-0.1,0-0.1-0.1-0.2h-0.1c0,0,0-0.1,0,0c0.3,0,0.6,0.1,0.8,0.1c0,0,0,0.1,0,0c-0.1,0-0.2,0-0.2,0.1
	s0,0.2-0.1,0.3c0,0.3-0.1,0.6-0.1,1c0,0.1,0,0.2,0.1,0.2S44.4,32.1,44.4,32.1L44.4,32.1z"/>
<path d="M46.7,31.5c0,0.2,0,0.4,0,0.6c-0.5,0-1,0.1-1.5,0.1c0,0,0-0.1,0,0c0.1,0,0.2,0,0.2-0.1s0-0.3,0-0.4c0-0.3,0-0.6,0-0.9
	c0-0.1-0.1-0.2-0.2-0.2h-0.1c0,0,0,0,0.1,0c0.3,0,0.6,0,0.8,0c0,0,0,0.1,0,0c-0.1,0-0.2,0-0.2,0.1s0,0.3,0,0.4c0,0.3,0,0.6,0,0.9
	c0,0.1,0.1,0.2,0.1,0.1c0.1,0,0.2,0,0.4,0s0.3-0.2,0.3-0.4C46.6,31.6,46.6,31.5,46.7,31.5L46.7,31.5"/>
<path d="M47.9,30.1C47.8,30.1,47.8,30.1,47.9,30.1c-0.1,0.6-0.2,1.1-0.2,1.6c0,0.1,0,0.2-0.2,0.3c0,0,0,0.1,0,0
	c0.2-0.1,0.3-0.1,0.5-0.2c0-0.1-0.1,0-0.2,0c-0.1,0-0.1-0.1-0.1-0.2s0-0.1,0-0.2c0.2-0.1,0.4-0.1,0.6-0.2c0.1,0.1,0.2,0.2,0.2,0.3
	c0,0.1-0.1,0.1-0.1,0.2c0,0,0,0.1,0,0c0.3-0.1,0.5-0.2,0.8-0.2c0-0.1-0.1,0-0.2-0.1c-0.1-0.1-0.2-0.3-0.4-0.4
	C48.4,30.7,48.1,30.4,47.9,30.1L47.9,30.1z M47.9,30.7c0.1,0.2,0.3,0.3,0.4,0.5c-0.2,0-0.3,0.1-0.5,0.1
	C47.8,31.1,47.8,30.9,47.9,30.7z"/>
<path d="M50.4,29c0.1,0.1,0.1,0.3,0.2,0.4c-0.1,0.1-0.1-0.1-0.2-0.1c-0.1-0.1-0.3-0.1-0.4,0c0,0-0.1,0-0.1,0.1
	c0.2,0.4,0.4,0.8,0.7,1.2c0,0.1,0.2,0.1,0.2,0.1h0.1c-0.1,0.1-0.2,0.1-0.3,0.2s-0.3,0.2-0.4,0.2V31c0.1,0,0.1-0.2,0.1-0.3
	c-0.2-0.4-0.4-0.8-0.6-1.2c-0.1,0.1-0.3,0.1-0.3,0.3c0,0.1,0,0.2,0,0.3c0,0,0,0-0.1,0c-0.1-0.1-0.1-0.2-0.2-0.3
	C49.5,29.5,50,29.2,50.4,29L50.4,29z"/>
<path d="M51.5,28.4c0.1,0.2,0.3,0.4,0.4,0.6c0.1-0.1,0.2-0.2,0.1-0.3c0-0.1-0.1-0.2-0.1-0.3c0,0,0,0.1,0.1,0.1
	c0.2,0.2,0.3,0.4,0.5,0.6c-0.1,0.1-0.1-0.1-0.2-0.1c-0.1-0.1-0.2-0.1-0.3,0c-0.1,0-0.1,0.1,0,0.1c0.1,0.1,0.2,0.3,0.3,0.4
	s0.2,0,0.2-0.1c0.2-0.1,0.3-0.3,0.3-0.5c0-0.1,0-0.2,0-0.3c0,0,0,0,0.1,0.1s0.1,0.3,0.2,0.4c-0.4,0.3-0.8,0.6-1.2,0.9
	c-0.1,0,0-0.1,0-0.1c0.1-0.1,0.1-0.2,0-0.3c-0.2-0.3-0.5-0.7-0.7-1c-0.1-0.1-0.2,0-0.2,0s-0.1,0,0,0c0.4-0.3,0.7-0.6,1.1-0.8
	c0.1,0.1,0.2,0.3,0.3,0.4c-0.1,0.1-0.1-0.1-0.2-0.1c-0.1-0.1-0.3,0-0.4,0.1C51.6,28.3,51.5,28.3,51.5,28.4"/>
<path class="st1" d="M7.8,7.3H9L0.9,2.6l0,0C0.8,2.8,0.7,3,0.6,3.1L7.8,7.3z"/>
<path class="st1" d="M32.1,18.2C32.1,18.2,32.1,18.3,32.1,18.2L32.1,18.2c0-0.1,0.1-0.2,0.1-0.3v-0.2l-9-5.2h-1L32.1,18.2z"/>
<path class="st1" d="M18.2,13.3l12.4,7.1c0.5-0.3,0.9-0.7,1.2-1.1L20,12.5h-1.8V13.3z"/>
<path class="st1" d="M1.6,1.8l9.6,5.5H13V6.6L2.9,0.8l0,0C2.4,1,2,1.4,1.6,1.8z"/>
<path class="st19" d="M9.2,7.3h2L1.6,1.8C1.4,2,1.1,2.3,0.9,2.6l0,0L9.2,7.3z"/>
<path class="st19" d="M22.2,12.5h-2.1l11.7,6.7c0.2-0.3,0.3-0.6,0.3-0.9v-0.1L22.2,12.5z"/>
<path class="st1" d="M0.1,20.1c0.1,0.1,0.2,0.1,0.4,0.2L13,13.2v-0.5L0.1,20.1z"/>
<polygon class="st1" points="11.1,12.5 7.9,12.5 0,17 0,19 "/>
<polygon class="st1" points="18.2,7.2 30.8,0 29.7,0 18.2,6.6 "/>
<path class="st1" d="M23.2,7.3l9-5.2V2c-0.1-0.6-0.2-1-0.4-1.4L20.1,7.3H23.2z"/>
<path class="st19" d="M0.1,20.1L13,12.7v-0.2h-1.7L0,19v1L0.1,20.1L0.1,20.1z"/>
<path class="st19" d="M18.2,7.2L18.2,7.2l1.9,0.1l11.7-6.7c-0.1-0.2-0.3-0.4-0.5-0.6h-0.6L18.2,7.2z"/>
<polygon class="st1" points="17.1,8.3 32.1,8.3 32.1,7.3 23.2,7.3 20.1,7.3 18.2,7.3 18.2,7.2 18.2,6.6 18.2,0 17.1,0 "/>
<polygon class="st1" points="14,8.3 14,0 13,0 13,6.6 13,7.3 11.2,7.3 9.2,7.3 9,7.3 7.8,7.3 0,7.3 0,8.3 "/>
<polygon class="st1" points="17.1,20.8 18.2,20.8 18.2,13.3 18.2,12.5 20,12.5 20.1,12.5 22.2,12.5 23.2,12.5 32.1,12.5 32.1,11.4 
	17.1,11.4 "/>
<polygon class="st1" points="11.1,12.5 11.3,12.5 13,12.5 13,12.7 13,13.2 13,20.8 14,20.8 14,11.4 0,11.4 0,12.5 7.9,12.5 "/>
<polygon class="st19" points="17.1,0 14,0 14,8.3 0,8.3 0,11.4 14,11.4 14,20.8 17.1,20.8 17.1,11.4 32.1,11.4 32.1,8.3 17.1,8.3 
	"/>
</svg>
