<?xml version="1.0" encoding="utf-8"?>
<!-- Generator: Adobe Illustrator 20.0.0, SVG Export Plug-In . SVG Version: 6.00 Build 0)  -->
<svg version="1.1" id="Layer_1" xmlns="http://www.w3.org/2000/svg" xmlns:xlink="http://www.w3.org/1999/xlink" x="0px" y="0px"
	 viewBox="0 0 64 42" style="enable-background:new 0 0 64 42;" xml:space="preserve">
<style type="text/css">
	.st0{fill:#FFFFFF;}
	.st1{fill:#57A863;}
	.st2{fill:#FF0000;}
</style>
<path id="Rounded_Rectangle_7_copy" class="st0" d="M5.8,0h52.3C61.4,0,64,2.6,64,5.7v30.6c0,3.2-2.6,5.7-5.8,5.7H5.8
	C2.6,42,0,39.4,0,36.3V5.7C0,2.6,2.6,0,5.8,0z"/>
<path class="st1" d="M64,5.3v31.4c0-0.1,0-0.3,0-0.4V5.7C64,5.6,64,5.5,64,5.3z"/>
<path class="st2" d="M58.2,42c-3.1,0-6.3,0-9.4,0c0-14,0-28,0-42c3.1,0,6.3,0,9.4,0C61.4,0,64,2.6,64,5.7v30.7
	C64,39.5,61.4,42.1,58.2,42z"/>
<path class="st2" d="M0,36.4V5.7C0,2.6,2.6,0,5.8,0c3.1,0,6.3,0,9.4,0c0,14,0,28,0,42c-3.1,0-6.3,0-9.4,0C2.6,42.1,0,39.5,0,36.4z"
	/>
<path class="st2" d="M32,6.6L29.7,11c-0.3,0.5-0.7,0.4-1.2,0.2l-1.7-0.9l1.3,6.7c0.3,1.2-0.6,1.2-1,0.7l-2.9-3.3L23.6,16
	c-0.1,0.2-0.3,0.4-0.7,0.4l-3.7-0.8l1,3.5c0.2,0.8,0.4,1.1-0.2,1.3L18.7,21l6.4,5.2c0.3,0.2,0.4,0.5,0.3,0.9L24.8,29
	c2.2-0.3,4.2-0.6,6.4-0.9c0.2,0,0.5,0.3,0.5,0.5l-0.3,6.7h1.1l-0.2-6.7c0-0.2,0.3-0.6,0.5-0.5c2.2,0.2,4.2,0.6,6.4,0.9l-0.6-1.8
	c-0.1-0.3,0-0.7,0.3-0.9l6.4-5.2L44,20.5c-0.6-0.2-0.4-0.5-0.2-1.3l1-3.5L41,16.4c-0.4,0.1-0.6-0.2-0.7-0.4l-0.5-1.7L37,17.6
	c-0.4,0.5-1.3,0.5-1-0.7l1.3-6.7l-1.7,0.9c-0.5,0.3-0.9,0.3-1.2-0.2"/>
</svg>
