<?xml version="1.0" encoding="utf-8"?>
<!-- Generator: Adobe Illustrator 20.0.0, SVG Export Plug-In . SVG Version: 6.00 Build 0)  -->
<svg version="1.1" id="Layer_1" xmlns="http://www.w3.org/2000/svg" xmlns:xlink="http://www.w3.org/1999/xlink" x="0px" y="0px"
	 viewBox="0 0 64 42" style="enable-background:new 0 0 64 42;" xml:space="preserve">
<style type="text/css">
	.st0{fill:#00247D;}
	.st1{fill:#FFFFFF;}
	.st2{fill:#CF142B;}
</style>
<path id="Rounded_Rectangle_7_copy_2" class="st0" d="M5.8,0h52.4C61.4,0,64,2.5,64,5.7v30.6c0,3.1-2.6,5.7-5.8,5.7H5.8
	C2.6,42,0,39.5,0,36.3V5.7C0,2.5,2.6,0,5.8,0z"/>
<circle class="st1" cx="45.9" cy="23.5" r="11.2"/>
<path class="st0" d="M53.6,28.7c-0.3-0.1-0.5,0.2-0.6,0.5c0,0.1-0.1,0.2-0.1,0.3l0,0c-0.4,0.3-0.7,0.4-1,0.3c0.2-0.3,0.4-0.6,0.6-1
	c0.3-0.5,0-0.8-0.3-1c-0.3-0.1-0.8-0.5-1-0.7l0.1,0.1c0-0.1-0.1-0.1-0.2-0.2c-0.2-0.2-0.6-0.4-0.8-0.2l0,0c-0.1,0.1-0.1,0.1-0.2,0.2
	c0-0.1,0-0.2,0.1-0.2c0-0.1,0-0.1,0.1-0.2l0,0c0.1-0.3,0.2-0.7,0.2-1.1l0,0c0-0.4,0-0.7,0-1.2c0-0.1,0-0.2,0-0.3c0-0.4,0-0.8,0-1.3
	c0-1.2,0-2.5,0-3.2h-6.6H44c0.2-0.1,0.4-0.2,0.6-0.2c0.2,0,0.4,0,0.7-0.1c-0.1,0-0.1-0.1-0.2-0.2c0,0.1,0.1,0.1,0.1,0.1
	c0.2,0.1,0.8,0,1,0c-0.1,0-0.1-0.1-0.1-0.2c0,0.1,0.1,0.1,0.1,0.2c0.2,0.1,0.9,0.1,0.9,0c0,0,0-0.1-0.1-0.1c0,0.1,0.1,0.1,0.1,0.2
	c0.2,0.2,0.7,0.2,0.8,0.1c-0.1-0.1-0.1-0.2-0.1-0.4c0,0.2,0.1,0.4,0.2,0.4c0.2,0.1,0.6,0.1,0.7-0.1c0.1-0.1,0.1-0.3,0-0.5
	c0.1,0,0.1-0.1,0.1-0.2c-0.1-0.7-0.5-0.8-0.5-1.1l0,0c0.2,0,0.4,0,0.5-0.1S49,17,49.1,17s0.1-0.1,0-0.1s-0.2,0-0.3,0
	c0-0.1,0-0.1-0.1-0.1s-0.2-0.1-0.2-0.2c-0.3-0.3-0.6-0.6-1-0.7c0.6-0.4,1.3-0.7,1.6-0.8c-0.4-0.1-0.9,0.1-1.3,0.2
	c0.4-0.4,0.9-0.9,1.3-1.3c-0.7,0.2-1.4,0.8-1.8,1.2c0.4-0.5,1-1.3,1.5-1.8c-0.9,0.4-1.4,1-1.8,1.4c0.2-0.5,0.6-1.3,0.9-1.6
	c-0.4,0.2-0.7,0.5-0.9,0.8c0.1-0.4,0.2-0.8,0.4-1c-0.2,0.2-0.3,0.3-0.5,0.5c-0.1,0-0.3,0.1-0.4,0.1l0,0l0,0c0.2-0.2,0.2-0.5,0.4-0.6
	c-0.1,0-0.4,0.1-0.5,0.2c0.1-0.1,0.1-0.3,0.2-0.4c-0.2,0-0.4,0.3-0.5,0.4c0-0.1-0.1-0.3-0.1-0.4c0,0.2-0.2,0.4-0.1,0.6
	c-0.2-0.1-0.4-0.1-0.6,0.1c0.2,0,0.4,0,0.5,0.2c-0.2,0-0.2,0-0.3,0.1c-0.2-0.4-0.5-0.8-0.9-0.9c0.2,0.4,0.5,0.8,0.8,1.4
	c-0.4-0.6-0.8-0.8-1-1c0.1,0.2,0.3,0.6,0.5,0.9c-0.4-0.3-0.8-0.6-1.3-0.7c0.3,0.2,0.8,0.6,1.2,1.1c-0.4-0.2-0.9-0.5-1.3-0.5
	c0.4,0.2,0.9,0.6,1.3,1c-0.4-0.3-0.9-0.5-1.3-0.6c0.2,0.1,0.8,0.5,1.2,0.9c-0.1,0.1-0.2,0.1-0.3,0.2l0,0c-0.1,0-0.3,0-0.3,0.1
	c-0.1,0-0.3-0.1-0.4-0.2c-0.2-0.2-0.6-0.3-0.8-0.1c-0.1,0-0.2,0-0.2,0.1c-0.1,0-0.3,0.1-0.2,0.4c0.1-0.1,0.1,0,0.2,0c0,0,0,0,0,0.1
	s0.3,0.4,0.5,0.3c0.3,0,0.4,0.1,0.4,0.1s0,0,0,0.1v0.1c0.1,0.1,0.1,0.1,0,0.2c-0.2,0.1-0.3,0.5,0,0.8c0.1,0.1,0.3,0.2,0.5,0.3
	C44,17.9,44,18,44,18l0,0c-0.2,0-0.3,0.1-0.5,0.2s-0.2,0.5,0,0.7c0.1,0.1,0.2,0.2,0.3,0.2h-2.2c0,0.7,0,2,0,3.2c0,0.5,0,0.9,0,1.3
	c0,0.1,0,0.2,0,0.3c0,1.1,0.1,1.9,0.4,2.7c-0.1-0.1-0.1-0.1-0.2-0.2c0,0,0.1,0.1,0.1,0.2l0,0c0-0.1-0.1-0.1-0.1-0.2
	c-0.3-0.2-0.7,0-0.9,0.2c-0.1,0.1-0.1,0.1-0.2,0.2c0-0.1,0.1-0.1,0.1-0.2c-0.2,0.2-0.6,0.6-1,0.7c-0.3,0.2-0.6,0.4-0.3,1
	c0.2,0.3,0.4,0.7,0.6,1c-0.3,0-0.6,0-1-0.3l0,0c0-0.1-0.1-0.2-0.1-0.3c-0.1-0.3-0.4-0.6-0.6-0.5s-0.2,0.3-0.2,0.5s0.2,1.2,0.5,1.6
	c0.1,0.4,1.2,0.9,2.4,0.2l0,0c1.6,1.4,3.6,1.9,5,1.9s3.4-0.5,5-1.9c0,0,0,0,0.1,0c1.2,0.7,2.3,0.1,2.4-0.2c0.2-0.4,0.4-1.3,0.5-1.6
	C53.8,29,53.9,28.8,53.6,28.7z M45.4,14.7C45.4,14.7,45.5,14.7,45.4,14.7C45.5,14.7,45.5,14.7,45.4,14.7L45.4,14.7z M45.7,15.7
	L45.7,15.7L45.7,15.7L45.7,15.7L45.7,15.7z M46.6,15.9L46.6,15.9L46.6,15.9L46.6,15.9z M46.9,16.2L46.9,16.2c0-0.1,0-0.1,0-0.1V16.2
	C46.9,16.3,46.9,16.2,46.9,16.2z M44.7,18.5L44.7,18.5L44.7,18.5L44.7,18.5z M44.9,18.4c0.1,0,0.1-0.1,0.2-0.1
	c0.1,0,0.2,0.1,0.3,0.1c-0.1,0-0.1,0-0.2,0C45.1,18.3,45,18.4,44.9,18.4z M45.7,18.4c0.1,0,0.1,0,0.2,0
	C45.8,18.4,45.8,18.4,45.7,18.4c0.1,0.1,0.1,0.1,0.1,0.1C45.8,18.4,45.7,18.4,45.7,18.4z M45.8,18.5c0.1,0.1,0.1,0.3,0.2,0.4
	C45.9,18.8,45.9,18.7,45.8,18.5z M47,19.1L47,19.1L47,19.1z M47.4,18.5c-0.3,0-0.4,0-0.5,0l-0.1-0.1c0.4,0,0.7-0.1,1-0.2
	c0.1,0.2,0.1,0.3,0.2,0.5l0,0l0,0C47.7,18.5,47.6,18.5,47.4,18.5z M46.4,14.2L46.4,14.2L46.4,14.2L46.4,14.2z M45.6,14.4
	c-0.1,0.1-0.2,0.2-0.2,0.3c0-0.1-0.1-0.2-0.1-0.2C45.4,14.4,45.6,14.4,45.6,14.4z M45.8,31.4c-1.6,0-2.9-0.5-3.9-1.4
	c0.2-0.3,0.4-0.7,0.7-1.1c0.2,0.2,0.4,0.5,0.7,0.7l0,0c0.7,0.6,1.6,1.1,2.6,1.5c0.2-0.1,0.4-0.2,0.5-0.2c0.1-0.1,0.3-0.1,0.4-0.2
	c0,0,0.1,0,0.1-0.1c0.6-0.3,1.1-0.6,1.6-1l0,0c0.2-0.2,0.4-0.4,0.6-0.7c0.2,0.4,0.4,0.8,0.7,1.1C48.7,31,47.4,31.4,45.8,31.4z
	 M51.4,27.7L51.4,27.7L51.4,27.7z M51.4,27.6v-0.1C51.3,27.5,51.4,27.6,51.4,27.6z M50.8,28.8c-0.1,0.1-0.1,0.2-0.2,0.2l0,0
	c-0.1-0.1-0.2-0.2-0.3-0.4C50.4,28.5,50.7,28.6,50.8,28.8z M41.7,27.3L41.7,27.3L41.7,27.3L41.7,27.3z M41.3,28.7
	c0.3-0.3,0.5-0.8,0.4-1.2c0.1,0.5-0.3,1.2-0.7,1.6c-0.1-0.1-0.1-0.1-0.2-0.2C41,28.6,41.3,28.5,41.3,28.7z M40.3,27.7L40.3,27.7
	L40.3,27.7z M40.3,27.6c0-0.1,0-0.1,0-0.2C40.3,27.5,40.3,27.6,40.3,27.6z"/>
<path class="st1" d="M7.8,7.3H9L0.9,2.6l0,0C0.8,2.8,0.7,3,0.6,3.1L7.8,7.3z"/>
<path class="st1" d="M32.1,18.2C32.1,18.2,32.1,18.3,32.1,18.2L32.1,18.2c0-0.1,0.1-0.2,0.1-0.3v-0.2l-9-5.2h-1L32.1,18.2z"/>
<path class="st1" d="M18.2,13.3l12.4,7.1c0.5-0.3,0.9-0.7,1.2-1.1L20,12.5h-1.8V13.3z"/>
<path class="st1" d="M1.6,1.8l9.6,5.5H13V6.6L2.9,0.8l0,0C2.4,1,2,1.4,1.6,1.8z"/>
<path class="st2" d="M9.2,7.3h2L1.6,1.8C1.4,2,1.1,2.3,0.9,2.6l0,0L9.2,7.3z"/>
<path class="st2" d="M22.2,12.5h-2.1l11.7,6.7c0.2-0.3,0.3-0.6,0.3-0.9v-0.1L22.2,12.5z"/>
<path class="st1" d="M0.1,20.1c0.1,0.1,0.2,0.1,0.4,0.2L13,13.2v-0.5L0.1,20.1z"/>
<polygon class="st1" points="11.1,12.5 7.9,12.5 0,17 0,19 "/>
<polygon class="st1" points="18.2,7.2 30.8,0 29.7,0 18.2,6.6 "/>
<path class="st1" d="M23.2,7.3l9-5.2V2c-0.1-0.6-0.2-1-0.4-1.4L20.1,7.3H23.2z"/>
<path class="st2" d="M0.1,20.1L13,12.7v-0.2h-1.7L0,19v1L0.1,20.1L0.1,20.1z"/>
<path class="st2" d="M18.2,7.2L18.2,7.2l1.9,0.1l11.7-6.7c-0.1-0.2-0.3-0.4-0.5-0.6h-0.6L18.2,7.2z"/>
<polygon class="st1" points="17.1,8.3 32.1,8.3 32.1,7.3 23.2,7.3 20.1,7.3 18.2,7.3 18.2,7.2 18.2,6.6 18.2,0 17.1,0 "/>
<polygon class="st1" points="14,8.3 14,0 13,0 13,6.6 13,7.3 11.2,7.3 9.2,7.3 9,7.3 7.8,7.3 0,7.3 0,8.3 "/>
<polygon class="st1" points="17.1,20.8 18.2,20.8 18.2,13.3 18.2,12.5 20,12.5 20.1,12.5 22.2,12.5 23.2,12.5 32.1,12.5 32.1,11.4 
	17.1,11.4 "/>
<polygon class="st1" points="11.1,12.5 11.3,12.5 13,12.5 13,12.7 13,13.2 13,20.8 14,20.8 14,11.4 0,11.4 0,12.5 7.9,12.5 "/>
<polygon class="st2" points="17.1,0 14,0 14,8.3 0,8.3 0,11.4 14,11.4 14,20.8 17.1,20.8 17.1,11.4 32.1,11.4 32.1,8.3 17.1,8.3 "/>
</svg>
