<?xml version="1.0" encoding="utf-8"?>
<!-- Generator: Adobe Illustrator 20.0.0, SVG Export Plug-In . SVG Version: 6.00 Build 0)  -->
<svg version="1.1" id="Layer_1" xmlns="http://www.w3.org/2000/svg" xmlns:xlink="http://www.w3.org/1999/xlink" x="0px" y="0px"
	 viewBox="0 0 64 42" style="enable-background:new 0 0 64 42;" xml:space="preserve">
<style type="text/css">
	.st0{fill:#002785;}
	.st1{fill:#FFFFFF;}
	.st2{fill:#CF142B;}
</style>
<path id="Rounded_Rectangle_7_copy_1_" class="st0" d="M5.8,0h52.3C61.4,0,64,2.6,64,5.7v30.6c0,3.2-2.6,5.7-5.8,5.7H5.8
	C2.6,42,0,39.4,0,36.3V5.7C0,2.6,2.6,0,5.8,0z"/>
<rect y="24.9" class="st1" width="64" height="8.4"/>
<rect y="8.4" class="st1" width="64" height="8.4"/>
<path class="st2" d="M2.1,40.7L32.9,21L2.1,1.3C0.8,2.4,0,4,0,5.7v30.6C0,38,0.8,39.6,2.1,40.7z"/>
<polygon class="st1" points="11.7,14.8 13.3,19.5 18.4,19.5 14.3,22.4 15.8,27.2 11.7,24.2 7.7,27.2 9.3,22.4 5.2,19.5 10.2,19.5 
	"/>
</svg>
