<?xml version="1.0" encoding="utf-8"?>
<!-- Generator: Adobe Illustrator 20.0.0, SVG Export Plug-In . SVG Version: 6.00 Build 0)  -->
<svg version="1.1" id="Layer_1" xmlns="http://www.w3.org/2000/svg" xmlns:xlink="http://www.w3.org/1999/xlink" x="0px" y="0px"
	 viewBox="0 0 64 42" style="enable-background:new 0 0 64 42;" xml:space="preserve">
<style type="text/css">
	.st0{fill:#002B7F;}
	.st1{fill:#57A863;}
	.st2{fill:#F9E814;}
	.st3{fill:#FFFFFF;}
</style>
<path id="Rounded_Rectangle_7_copy" class="st0" d="M5.8,0h52.3C61.4,0,64,2.6,64,5.7v30.6c0,3.2-2.6,5.7-5.8,5.7H5.8
	C2.6,42,0,39.4,0,36.3V5.7C0,2.6,2.6,0,5.8,0z"/>
<path class="st1" d="M64,5.3v31.4c0-0.1,0-0.3,0-0.4V5.7C64,5.6,64,5.5,64,5.3z"/>
<rect y="27.5" class="st2" width="64" height="3.3"/>
<g>
	<polygon class="st3" points="20.2,20.5 19.1,17 22.1,14.8 18.4,14.8 17.2,11.3 16.1,14.8 12.4,14.8 15.4,17 14.2,20.5 14.2,20.5 
		14.2,20.5 14.2,20.5 14.2,20.5 17.2,18.3 	"/>
	<polygon class="st3" points="10.9,9.2 13.2,7.6 10.4,7.6 9.6,4.9 8.7,7.6 5.9,7.6 5.9,7.6 5.9,7.6 5.9,7.6 5.9,7.6 8.2,9.2 
		7.3,11.8 9.6,10.2 11.8,11.8 	"/>
</g>
</svg>
