<?xml version="1.0" encoding="utf-8"?>
<!-- Generator: Adobe Illustrator 20.0.0, SVG Export Plug-In . SVG Version: 6.00 Build 0)  -->
<svg version="1.1" id="Layer_1" xmlns="http://www.w3.org/2000/svg" xmlns:xlink="http://www.w3.org/1999/xlink" x="0px" y="0px"
	 viewBox="0 0 64 42" style="enable-background:new 0 0 64 42;" xml:space="preserve">
<style type="text/css">
	.st0{fill:#002D61;}
	.st1{fill:#CF1033;}
	.st2{fill:#FFFFFF;}
	.st3{fill:#1F714D;}
</style>
<path class="st0" d="M27.8,0h-22C2.6,0,0,2.6,0,5.7v11.1h27.8V0z"/>
<path class="st1" d="M0,25.2v11.1C0,39.4,2.6,42,5.8,42h22V25.2H0z"/>
<path class="st1" d="M58.1,0H36.2v16.8H64V5.7C64,2.6,61.4,0,58.1,0z"/>
<path class="st0" d="M36.2,42h22c3.2,0,5.8-2.5,5.8-5.7V25.2H36.2V42z"/>
<polygon class="st2" points="36.2,0 27.8,0 27.8,16.8 0,16.8 0,25.2 27.8,25.2 27.8,42 36.2,42 36.2,25.2 64,25.2 64,16.8 
	36.2,16.8 "/>
<circle class="st3" cx="32" cy="21" r="4.3"/>
</svg>
