<?xml version="1.0" encoding="utf-8"?>
<!-- Generator: Adobe Illustrator 20.0.0, SVG Export Plug-In . SVG Version: 6.00 Build 0)  -->
<svg version="1.1" id="Layer_1" xmlns="http://www.w3.org/2000/svg" xmlns:xlink="http://www.w3.org/1999/xlink" x="0px" y="0px"
	 viewBox="0 0 64 42" style="enable-background:new 0 0 64 42;" xml:space="preserve">
<style type="text/css">
	.st0{fill:#BB0F23;}
	.st1{fill:#F4CA15;}
	.st2{fill:#00795D;}
</style>
<path id="Rounded_Rectangle_7_copy_1_" class="st0" d="M5.8,0h52.3C61.4,0,64,2.6,64,5.7v30.6c0,3.2-2.6,5.7-5.8,5.7H5.8
	C2.6,42,0,39.4,0,36.3V5.7C0,2.6,2.6,0,5.8,0z"/>
<g>
	<polygon class="st1" points="20.2,5.2 21.6,4.1 19.8,4.1 19.3,2.4 18.7,4.1 16.9,4.1 18.4,5.2 17.8,6.9 19.3,5.8 20.7,6.9 	"/>
	<polygon class="st1" points="32.9,5.2 34.4,4.1 32.6,4.1 32,2.4 31.4,4.1 29.6,4.1 31.1,5.2 30.5,6.9 32,5.8 33.5,6.9 	"/>
	<polygon class="st1" points="46.2,6.7 45.6,5.2 47.1,4.1 45.3,4.1 44.7,2.4 44.2,4.1 42.4,4.1 43.8,5.2 43.3,6.9 44.7,5.8 
		46.1,6.8 46.2,6.9 46.2,6.8 46.2,6.9 	"/>
</g>
<g>
	<polygon class="st1" points="20.2,38.2 21.6,37.2 19.8,37.2 19.3,35.4 18.7,37.2 16.9,37.2 18.4,38.2 17.8,39.9 19.3,38.9 
		20.7,39.9 	"/>
	<polygon class="st1" points="32.9,38.2 34.4,37.2 32.6,37.2 32,35.4 31.4,37.2 29.6,37.2 31.1,38.2 30.5,39.9 32,38.9 33.5,39.9 	
		"/>
	<polygon class="st1" points="46.2,39.8 45.6,38.2 47.1,37.2 45.3,37.2 44.7,35.4 44.2,37.2 42.4,37.2 43.8,38.2 43.3,39.9 
		44.7,38.9 46.1,39.8 46.2,39.9 46.2,39.9 46.2,39.9 	"/>
</g>
<g>
	<rect x="5.5" y="7.5" class="st2" width="53" height="27.5"/>
	<path class="st1" d="M5.5,7.5h53L5.5,35h53L5.5,7.5z"/>
	<circle class="st0" cx="32" cy="21.3" r="4.6"/>
	<polygon class="st1" points="33.5,21.8 36,20 32.9,20 32,17.1 31,20 28,20 30.4,21.8 29.5,24.7 32,22.9 34.4,24.7 	"/>
	<path class="st1" d="M12.3,23.6c1.3-4.7-3.3-4.4-4.5-6c0.8,1.7-2.2,5.9,2.8,6.8c-0.3-0.4-0.6-1-0.7-1.7c0.5,0.5,1,0.9,1.6,1.1
		c0-0.6-0.1-1.2-0.3-1.9C11.7,22.6,12.1,23.2,12.3,23.6z"/>
</g>
</svg>
