<?xml version="1.0" encoding="utf-8"?>
<!-- Generator: Adobe Illustrator 20.0.0, SVG Export Plug-In . SVG Version: 6.00 Build 0)  -->
<svg version="1.1" id="Layer_1" xmlns="http://www.w3.org/2000/svg" xmlns:xlink="http://www.w3.org/1999/xlink" x="0px" y="0px"
	 viewBox="0 0 64 42" style="enable-background:new 0 0 64 42;" xml:space="preserve">
<style type="text/css">
	.st0{fill:#002488;}
	.st1{fill:none;}
	.st2{fill:#008100;}
	.st3{fill:#FCDD09;}
</style>
<path id="Rounded_Rectangle_7_copy_1_" class="st0" d="M5.8,0h52.3C61.4,0,64,2.6,64,5.7v30.6c0,3.2-2.6,5.7-5.8,5.7H5.8
	C2.6,42,0,39.4,0,36.3V5.7C0,2.6,2.6,0,5.8,0z"/>
<path class="st1" d="M58.1,0H5.8C2.6,0,0,2.6,0,5.7V14h64V5.7C64,2.6,61.4,0,58.1,0z"/>
<path d="M0,36.3C0,39.4,2.6,42,5.8,42h52.4c3.2,0,5.8-2.5,5.8-5.7V14H0V36.3z"/>
<path class="st2" d="M17.9,21.5c0,0,0.5,0.1,1,0.3c0.5,0.2,1.2,0.4,1.5,0.4c0.5,0,2.3,0.9,2.3,1.1S20,22.7,19,22.2
	C17.9,21.7,17.8,21.6,17.9,21.5L17.9,21.5z"/>
<path class="st2" d="M21.3,21.9c0.2,0.5,1,0.9,2.1,1c0.7,0.1,0.4-0.3-0.6-0.6c-0.5-0.1-1-0.4-1.2-0.6C21.1,21.4,21.1,21.4,21.3,21.9
	L21.3,21.9z M11.4,17.9c0.6,0.8,1.2,1.4,2.5,2.3c0.9,0.6,1.7,1.1,1.8,1.1c0.1-0.1-4.5-4.3-4.8-4.5C10.7,16.8,11,17.3,11.4,17.9z
	 M23.2,22.4c0.4,0.2,1,0.4,1.2,0.4c0.3,0,0.2-0.1-0.4-0.3c-0.5-0.2-1-0.5-1.3-0.7c-0.4-0.4-0.4-0.4-0.4,0
	C22.4,21.9,22.7,22.2,23.2,22.4L23.2,22.4z M20.6,18.6c0.3,1.1,1.4,3.1,1.8,3.2s0.4,0,0.1-0.3c-0.5-0.6-1.5-2.6-1.5-3
	c0-0.2-0.1-0.4-0.2-0.4C20.5,18.1,20.5,18.3,20.6,18.6z M8.8,17.2c0,0,0.4,0.3,0.8,0.6c0.5,0.3,1,0.8,1.2,1c0.3,0.4,2,1.4,2.2,1.3
	s-2.1-1.9-3-2.4C8.9,17.1,8.8,17.1,8.8,17.2z M9.4,18.7c0,0,0.4,0.3,0.9,0.5s1.1,0.6,1.3,0.8c0.4,0.4,2.2,1.1,2.4,0.9
	c0.1-0.1-2.4-1.5-3.4-1.9C9.5,18.6,9.4,18.6,9.4,18.7z M18.1,19.4c0.7,1.4,1.5,2.3,1.8,2.2c0.2-0.1-0.2-0.6-1-1.5
	c-0.7-0.8-1.3-1.5-1.3-1.6S17.8,18.8,18.1,19.4L18.1,19.4z M19.1,18.9c0,0.2,0.8,1.7,1.2,2.3c0.3,0.4,0.5,0.5,0.9,0.5
	c0.5,0,0.5,0-0.3-0.8c-0.4-0.5-1-1.1-1.3-1.5C19.4,19,19.1,18.8,19.1,18.9L19.1,18.9z M17.3,19.5c0,0.3,1.4,2.3,1.7,2.3
	c0.1,0-0.1-0.5-0.6-1C17.5,19.4,17.3,19.3,17.3,19.5z M16,24.9c-1.3,0.5-1.6,0.7-1.6,1c0,0.1,0.1,0.1,0.4-0.1
	c0.2-0.2,0.8-0.4,1.4-0.5c0.6-0.1,1.3-0.4,1.6-0.5l0.5-0.3h-0.6C17.3,24.5,16.5,24.7,16,24.9L16,24.9z M12.3,21.6
	c1,0.9,4.2,2.5,5.8,3c0.4,0.1,1.2,0.2,1.6,0.1l0.8-0.2l-0.7-0.4c-1.2-0.6-3.2-1.9-3.9-2.6c-0.8-0.7-0.7-0.5,0,0.5
	c0.3,0.4,1.2,1.1,2,1.5s1.4,0.8,1.3,0.9c-0.2,0.1-2.4-1.2-4.1-2.4c-1.8-1.3-1.9-1.3-1.2-0.5c0.3,0.4,0.9,0.9,1.4,1.2
	c0.4,0.3,0.7,0.5,0.6,0.6c-0.2,0.1-1.3-0.6-2.8-1.5c-0.4-0.3-1-0.6-1.2-0.8C11.5,20.8,11.7,21.1,12.3,21.6L12.3,21.6z M12.4,21.3
	l-0.8,0.3l0.6,0.1c0.3,0.1,0.7,0,0.9-0.1s0.5-0.2,0.8-0.2c0.4,0,0.4,0,0.1-0.2C13.5,21,13.4,21,12.4,21.3z M13.4,21.8
	c-0.3,0.3-0.3,0.3,0.4,0.2c0.4-0.1,1.1-0.2,1.4-0.3c0.5-0.1,0.5-0.2-0.4-0.2C14.2,21.5,13.6,21.6,13.4,21.8z M8.5,19.8
	c3.2,0.6,9.7,2.8,9.3,3.1c-0.1,0.1-1.9-0.4-2.2-0.5c-0.1-0.1-1.1-0.1-2.1,0.1c-2,0.2-2.3,0.4-2.3,1.2c0,0.4,0,0.4,0.1,0
	c0.2-0.7,0.5-0.9,1.6-0.9c1.2,0,4.5,0.5,6,0.9c2,0.5,2,0.5,1.4,0.2c-0.8-0.5-2.1-1.3-2.3-1.6c-0.4-0.5-8.2-2.6-9.4-2.6
	C8.1,19.7,8.1,19.7,8.5,19.8z M10,20.8c-0.2,0.2-0.5,0.6-0.5,0.9c-0.1,0.6-0.1,0.6,0.2,0.2c0.8-1,0.9-1.1,1.9-1.1
	c0.8,0,0.9-0.1,0.5-0.2C11.3,20.4,10.5,20.5,10,20.8z M20,22c0.2,0.3,1.7,1,1.8,0.9c0.1-0.1-0.1-0.2-0.4-0.4
	c-0.3-0.1-0.6-0.4-0.7-0.5C20.4,21.8,19.8,21.7,20,22L20,22z M20.1,23.9c0.2,0.3,1.7,1,1.8,0.9c0.1-0.1-0.1-0.2-0.4-0.4
	c-0.3-0.1-0.6-0.4-0.7-0.5C20.5,23.6,19.9,23.6,20.1,23.9L20.1,23.9z M21.2,23c-0.4,0.1-0.7,0.4-0.8,0.6c-0.1,0.2,0,0.2,0.4,0
	s0.9-0.3,1.2-0.4c0.5,0,0.5,0,0.2-0.2C22,22.8,21.5,22.8,21.2,23L21.2,23z M18.9,24.4c-1.1,1-1.4,1.7-1,2.7l0.3,0.9l-0.1-0.9
	c-0.1-1.2,0.2-1.8,1.5-2.8c0.6-0.5,1.1-0.9,1.1-0.9C20.7,23.2,19.5,23.8,18.9,24.4L18.9,24.4z M12,16.4c0.6,1.2,3.1,3.8,4.4,4.8
	c0.4,0.3,1,0.5,1.4,0.6l0.8,0.1L18,21.3c-0.9-1-2.3-2.9-2.8-3.8s-0.5-0.7-0.1,0.5c0.2,0.5,0.8,1.4,1.4,2.1s1,1.3,0.9,1.3
	c-0.3,0-1.9-1.9-3.1-3.6c-1.3-1.8-1.3-1.9-1-0.9c0.2,0.5,0.6,1.2,0.9,1.6c0.3,0.4,0.5,0.7,0.4,0.7c-0.2,0-1.1-1-2.1-2.4
	c-0.3-0.4-0.7-0.9-0.9-1.2C11.5,15.4,11.7,15.7,12,16.4z M18.3,21.9c0,0.1,0.3,0.5,0.6,0.8c1,0.8,3.8,2.1,4.1,2
	c0.2-0.1-0.1-0.3-1.1-0.6c-1.6-0.6-3.1-1.5-3.1-1.8c0-0.2,0.6-0.2,2.2-0.1c2.4,0.1,3.1-0.1,0.9-0.3C19.8,21.5,18.3,21.5,18.3,21.9
	L18.3,21.9z M13.2,24c-0.8,0.2-1.3,0.5-1.3,0.8c0,0.1,0.1,0.1,0.2,0c0.2-0.3,1.8-0.7,1.9-0.6c0,0,0,0.3-0.1,0.6s-0.2,0.6-0.1,0.6
	c0.1,0.1,0.2-0.1,0.2-0.3c0.2-0.8,1-1.1,2.7-0.9c0.9,0.1,1.9,0.2,2.2,0.2c0.3,0,0.8,0.1,1,0.3c0.5,0.3,2.5,0.3,2.3,0
	c-0.1-0.1-0.4-0.2-0.8-0.3c-0.4-0.1-1.2-0.3-1.8-0.4C18.3,23.7,14.4,23.7,13.2,24L13.2,24z M20.3,26.2c-1.5-0.3-2.2,0-2.8,0.9
	L17,27.9l0.7-0.6c0.9-0.9,1.5-0.9,3.1-0.5c0.7,0.2,1.4,0.4,1.4,0.3C22.3,26.9,21.1,26.3,20.3,26.2z M18.4,25.7c-2.7,0.7-3,1-2.6,2.3
	c0.2,0.5,0.2,0.5,0.2-0.2c0-0.3,0.2-0.8,0.4-1c0.4-0.4,1.9-0.8,3.9-1.1c0.5-0.1,0.8-0.2,0.7-0.3C20.8,25.1,20.1,25.2,18.4,25.7z
	 M20.7,26.6c-1.4,0.6-1.8,1.2-1.8,2.3v0.9l0.2-0.9c0.3-1.2,0.7-1.6,2.3-2.2c0.7-0.2,1.3-0.5,1.3-0.5C22.8,26.1,21.4,26.3,20.7,26.6
	L20.7,26.6z M20.4,28.3C20.2,28.6,20,29,20,29.2c0,0.3,0.1,0.2,0.4-0.3c0.2-0.4,0.6-0.8,0.8-0.9c0.4-0.3,0.4-0.3,0-0.3
	C21,27.7,20.7,28,20.4,28.3L20.4,28.3z"/>
<path class="st2" d="M51.9,37.3c-0.1,0.2-0.2,0.4-0.3,0.5c-0.6-0.2-3.2-1.3-5.4-2.3s-5.4-2.3-5.9-2.6s-0.4-0.5,0.1-0.3
	c0.6,0.2,2.7,1.2,4.2,1.9C46.4,35.1,50.8,36.8,51.9,37.3z M40.7,32.3c0.6,0.3,3.8,1.5,6,2.4s4.8,2,5.5,2.1c0.1-0.1,0.1-0.3,0.3-0.5
	c-1.1-0.4-5.6-2-7.4-2.7c-1.5-0.6-3.7-1.5-4.3-1.7C40.2,31.8,40.2,32,40.7,32.3z M40,32.9c-0.5-0.2-0.6,0-0.2,0.3l0,0
	c0.6,0.4,3.6,1.8,5.8,3c2.1,1.1,4.6,2.4,5.2,2.6c0.1-0.1,0.2-0.2,0.3-0.4c-1.1-0.5-5.4-2.5-7.1-3.3C42.7,34.3,40.6,33.2,40,32.9z
	 M46.5,31.8c-1.6-0.4-3.9-1-4.5-1.1s-0.5,0.1,0,0.3l0,0c0.6,0.3,4,1,6.3,1.6s5.1,1.3,5.7,1.4c0-0.1,0.1-0.3,0.2-0.5
	C53,33.2,48.4,32.3,46.5,31.8z M45.5,33c-1.6-0.5-3.8-1.3-4.3-1.5c-0.6-0.2-0.6,0.1-0.1,0.3c0.6,0.3,3.9,1.3,6.2,2.1
	s4.9,1.7,5.6,1.8c0.1-0.1,0.1-0.3,0.2-0.5C51.9,35,47.3,33.7,45.5,33z M46.1,32.4c-1.6-0.4-3.8-1.1-4.4-1.3
	c-0.6-0.1-0.6,0.1-0.1,0.3c0.6,0.3,3.9,1.1,6.3,1.8c2.3,0.7,5,1.5,5.6,1.6c0-0.1,0.1-0.3,0.2-0.5C52.5,34.1,47.9,33,46.1,32.4z"/>
<path class="st3" d="M33.1,37.4l0.6,0.5c0.9,0.6,1.4,1.5,1.4,2.4v0.8l0.3-0.7c0.3-0.8,0.3-1.9-0.1-2.8L35,37l0.7,0.3
	c1,0.4,1.7,1.2,1.8,2.1l0.1,0.7l0.1-0.8c0.2-0.8-0.1-2-0.7-2.7l-0.3-0.4l0.8,0.2c1.1,0.2,1.9,0.8,2.2,1.7l0.3,0.7V38
	c0-0.8-0.5-1.9-1.2-2.5L38.4,35h0.8c1.1,0,2,0.4,2.5,1.2l0.4,0.6L41.9,36c-0.2-0.8-0.9-1.7-1.7-2.2l-0.5-0.3l0.8-0.2
	c1.1-0.3,2.1,0,2.7,0.6l0.5,0.5l-0.3-0.7c-0.4-0.8-1.3-1.5-2.2-1.8l-0.5-0.2l0.7-0.3c1-0.5,2-0.5,2.8,0l0.6,0.4l-0.5-0.6
	c-0.5-0.7-1.5-1.2-2.5-1.3l-0.5-0.1l0.6-0.5c0.9-0.7,1.9-0.9,2.7-0.5l0.7,0.3l-0.6-0.5c-0.6-0.5-1.8-0.9-2.7-0.8l-0.5,0.1l0.5-0.6
	c0.7-0.8,1.7-1.2,2.5-1.1l0.7,0.1L44.5,26c-0.7-0.4-1.9-0.5-2.8-0.2L41.2,26l0.4-0.7c0.5-1,1.4-1.6,2.3-1.6h0.7l-0.8-0.2
	c-0.8-0.2-2-0.1-2.8,0.4l-0.5,0.3l0.2-0.7c0.3-1.1,1-1.8,1.9-2l0.7-0.2L42.6,21c-0.8-0.1-1.9,0.3-2.6,1l-0.4,0.4l0.1-0.8
	c0.1-1.1,0.6-2,1.4-2.4l0.7-0.3L41,19c-0.8,0.1-1.8,0.7-2.4,1.5l-0.3,0.4l-0.1-0.8c-0.1-1.1,0.2-2.1,0.9-2.6l0.6-0.5L39,17.3
	c-0.8,0.3-1.6,1.1-2,2l-0.2,0.5L36.4,19c-0.4-1-0.3-2.1,0.3-2.8l0.5-0.6L36.5,16c-0.7,0.4-1.4,1.4-1.6,2.3L34.8,19l-0.4-0.7
	c-0.6-0.9-0.7-2-0.3-2.8l0.3-0.7L34,15.4c-0.6,0.6-1,1.7-1,2.6v0.6L32.4,18c-0.8-0.8-1.1-1.8-0.8-2.7l0.2-0.7l-0.4,0.7
	c-0.5,0.7-0.7,1.8-0.5,2.8l0.1,0.5l-0.6-0.5c-0.9-0.6-1.4-1.5-1.4-2.4v-0.8l-0.3,0.7c-0.3,0.8-0.3,1.9,0.1,2.8L29,19l-0.7-0.3
	c-1-0.4-1.7-1.2-1.8-2.1l-0.1-0.7l-0.1,0.8c-0.2,0.8,0.1,2,0.7,2.7l0.3,0.4l-0.8-0.2c-1.1-0.2-1.9-0.8-2.2-1.7L24,17.3v0.8
	c0,0.8,0.5,1.9,1.2,2.5l0.4,0.4h-0.8c-1.1,0-2-0.4-2.5-1.2l-0.4-0.6l0.2,0.8c0.2,0.8,0.9,1.7,1.7,2.2l0.5,0.3l-0.8,0.2
	c-1.1,0.3-2.1,0-2.7-0.6l-0.5-0.5l0.3,0.7c0.4,0.8,1.3,1.5,2.2,1.8l0.5,0.2l-0.7,0.3c-1,0.5-2,0.5-2.8,0l-0.6-0.4l0.5,0.6
	c0.5,0.7,1.5,1.2,2.5,1.3l0.5,0.1l-0.6,0.5c-0.9,0.7-1.9,0.9-2.7,0.5l-0.7-0.3l0.6,0.5c0.6,0.5,1.8,0.9,2.7,0.8l0.5-0.1L22,28.7
	c-0.7,0.8-1.7,1.2-2.5,1.1l-0.7-0.1l0.7,0.4c0.7,0.4,1.9,0.5,2.8,0.2l0.5-0.2l-0.4,0.7c-0.5,1-1.4,1.6-2.3,1.6h-0.7l0.8,0.2
	c0.8,0.2,2,0.1,2.8-0.4l0.5-0.3l-0.2,0.7c-0.3,1.1-1,1.8-1.9,2l-0.7,0.2l0.8,0.1c0.8,0.1,1.9-0.3,2.6-1l0.4-0.4l-0.1,0.8
	c-0.1,1.1-0.6,2-1.4,2.4L22.3,37H23c0.8-0.1,1.8-0.7,2.4-1.5l0.3-0.4l0.1,0.8c0.1,1.1-0.2,2.1-0.9,2.6L24.3,39l0.7-0.3
	c0.8-0.3,1.6-1.1,2-2l0.2-0.5l0.2,0.7c0.4,1,0.3,2.1-0.3,2.8l-0.5,0.6l0.7-0.4c0.7-0.4,1.4-1.4,1.6-2.3l0.1-0.5l0.4,0.7
	c0.6,0.9,0.7,2,0.3,2.8l-0.3,0.7l0.6-0.6c0.6-0.6,1-1.7,1-2.6v-0.6l0.5,0.6c0.8,0.8,1.1,1.8,0.8,2.7l-0.2,0.7l0.4-0.7
	C33,40.1,33.2,39,33,38L33.1,37.4"/>
<path id="a" class="st3" d="M31.1,1.5c-0.8,1.3-0.9,2.3-0.3,4.1c0.3,0.8,0.5,2,0.7,2.7c0.2,0.9,0.1,1,0.2,1.2c0.2,0,0.6,0,0.8,0
	c0-0.3,0.1-0.7,0.1-1.2c0.1-0.6,0.3-1.9,0.6-2.7c0.5-1.7,0.5-2.8-0.3-4C32.5,1,32.1,0.7,32,0.7C31.8,0.7,31.4,1,31.1,1.5z M34.9,5.1
	c-1.1,0.5-1.8,1.8-2.1,3.6c-0.1,0.3-0.1,0.5-0.1,0.8c0.2,0,0.3,0,0.6,0c0.1-0.3,0.1-0.4,0.2-0.8c0.4-1.4,1.7-2,1.7-0.7
	c0,0.4-0.2,0.6-0.3,0.8c0.2-0.1,0.7-0.3,1-0.5C37.8,7.1,37,4.2,34.9,5.1L34.9,5.1z M30.4,9.9c0.9,0,2.4,0,3.1,0c0-0.2,0-0.1,0-0.2
	c-0.5,0-2.6,0-3.1,0C30.4,9.8,30.4,9.8,30.4,9.9z M30.7,11c-0.3,0.3-0.8,0.6-0.8,0.6s0.4,0,0.9,0c0.4,0,0.6-0.1,0.9-0.2
	c-0.1,0.5-0.1,1-0.1,1c0.1,0.6,0.1,0.8,0.3,1.1s0.3,0.3,0.4,0s0.2-0.6,0.3-1.1c0-0.4,0-0.5-0.1-1c0.3,0.1,0.5,0.2,0.9,0.2
	s0.8,0,0.8,0s-0.6-0.3-0.8-0.7c-0.3-0.4-0.2-0.3-0.4-0.8c-0.2,0-1.4,0-1.7,0C31,10.6,30.9,10.7,30.7,11L30.7,11z M29.1,5.1
	c1.1,0.5,1.8,1.8,2.1,3.6c0.1,0.3,0.1,0.5,0.1,0.8c-0.2,0-0.3,0-0.6,0c-0.1-0.3-0.1-0.4-0.2-0.8c-0.4-1.4-1.7-2-1.7-0.7
	c0,0.4,0.2,0.6,0.3,0.8c-0.2-0.1-0.7-0.3-1-0.5C26.2,7.1,27,4.2,29.1,5.1L29.1,5.1z"/>
<path id="a_1_" class="st3" d="M11.6,1.5c-0.8,1.3-0.9,2.3-0.3,4.1c0.3,0.8,0.5,2,0.7,2.7c0.2,0.9,0.1,1,0.2,1.2c0.2,0,0.6,0,0.8,0
	c0-0.3,0.1-0.7,0.1-1.2c0.1-0.6,0.3-1.9,0.6-2.7c0.5-1.7,0.5-2.8-0.3-4c-0.4-0.6-0.8-0.9-1-0.9C12.2,0.7,11.8,1,11.6,1.5z M15.4,5.1
	c-1.1,0.5-1.8,1.8-2.1,3.6c-0.1,0.3-0.1,0.5-0.1,0.8c0.2,0,0.3,0,0.6,0c0.1-0.3,0.1-0.4,0.2-0.8c0.4-1.4,1.7-2,1.7-0.7
	c0,0.4-0.2,0.6-0.3,0.8c0.2-0.1,0.7-0.3,1-0.5C18.3,7.1,17.5,4.2,15.4,5.1L15.4,5.1z M10.9,9.9c0.9,0,2.4,0,3.1,0c0-0.2,0-0.1,0-0.2
	c-0.5,0-2.6,0-3.1,0C10.9,9.8,10.9,9.8,10.9,9.9z M11.2,11c-0.3,0.3-0.8,0.6-0.8,0.6s0.4,0,0.9,0c0.4,0,0.6-0.1,0.9-0.2
	c-0.1,0.5-0.1,1-0.1,1c0.1,0.6,0.1,0.8,0.3,1.1s0.3,0.3,0.4,0c0.1-0.3,0.2-0.6,0.3-1.1c0-0.4,0-0.5-0.1-1c0.3,0.1,0.5,0.2,0.9,0.2
	s0.8,0,0.8,0s-0.6-0.3-0.8-0.7c-0.3-0.4-0.2-0.3-0.4-0.8c-0.2,0-1.4,0-1.7,0C11.4,10.6,11.4,10.7,11.2,11L11.2,11z M9.6,5.1
	c1.1,0.5,1.8,1.8,2.1,3.6c0.1,0.3,0.1,0.5,0.1,0.8c-0.2,0-0.3,0-0.6,0c-0.1-0.3-0.1-0.4-0.2-0.8c-0.4-1.4-1.7-2-1.7-0.7
	c0,0.4,0.2,0.6,0.3,0.8C9.5,8.8,9,8.6,8.7,8.3C6.7,7.1,7.4,4.2,9.6,5.1L9.6,5.1z"/>
<path id="a_2_" class="st3" d="M50.6,1.5c-0.8,1.3-0.9,2.3-0.3,4.1c0.3,0.8,0.5,2,0.7,2.7c0.2,0.9,0.1,1,0.2,1.2c0.2,0,0.6,0,0.8,0
	c0-0.3,0.1-0.7,0.1-1.2c0.1-0.6,0.3-1.9,0.6-2.7c0.5-1.7,0.5-2.8-0.3-4c-0.3-0.5-0.7-0.8-0.9-0.8C51.3,0.7,50.9,1,50.6,1.5z
	 M54.4,5.1c-1.1,0.5-1.8,1.8-2.1,3.6c-0.1,0.3-0.1,0.5-0.1,0.8c0.2,0,0.3,0,0.6,0c0.1-0.3,0.1-0.4,0.2-0.8c0.4-1.4,1.7-2,1.7-0.7
	c0,0.4-0.2,0.6-0.3,0.8c0.2-0.1,0.7-0.3,1-0.5C57.3,7.1,56.6,4.2,54.4,5.1L54.4,5.1z M50,9.9c0.9,0,2.4,0,3.1,0c0-0.2,0-0.1,0-0.2
	c-0.5,0-2.6,0-3.1,0C50,9.8,50,9.8,50,9.9z M50.2,11c-0.3,0.3-0.8,0.6-0.8,0.6s0.4,0,0.9,0c0.4,0,0.6-0.1,0.9-0.2
	c-0.1,0.5-0.1,1-0.1,1c0.1,0.6,0.1,0.8,0.3,1.1s0.3,0.3,0.4,0c0.1-0.3,0.2-0.6,0.3-1.1c0-0.4,0-0.5-0.1-1c0.3,0.1,0.5,0.2,0.9,0.2
	s0.8,0,0.8,0s-0.6-0.3-0.8-0.7c-0.3-0.4-0.2-0.3-0.4-0.8c-0.2,0-1.4,0-1.7,0C50.5,10.6,50.5,10.7,50.2,11L50.2,11z M48.6,5.1
	c1.1,0.5,1.8,1.8,2.1,3.6c0.1,0.3,0.1,0.5,0.1,0.8c-0.2,0-0.3,0-0.6,0c-0.1-0.3-0.1-0.4-0.2-0.8c-0.4-1.4-1.7-2-1.7-0.7
	c0,0.4,0.2,0.6,0.3,0.8c-0.2-0.1-0.7-0.3-1-0.5C45.7,7.1,46.5,4.2,48.6,5.1L48.6,5.1z"/>
</svg>
