<?xml version="1.0" encoding="utf-8"?>
<!-- Generator: Adobe Illustrator 20.0.0, SVG Export Plug-In . SVG Version: 6.00 Build 0)  -->
<svg version="1.1" id="Layer_1" xmlns="http://www.w3.org/2000/svg" xmlns:xlink="http://www.w3.org/1999/xlink" x="0px" y="0px"
	 viewBox="0 0 64 42" style="enable-background:new 0 0 64 42;" xml:space="preserve">
<style type="text/css">
	.st0{fill:#00209F;}
	.st1{fill:#D21034;}
	.st2{fill:#FFFFFF;}
	.st3{fill:#3E895C;}
</style>
<path id="Rounded_Rectangle_7_copy" class="st0" d="M5.8,0h52.3C61.4,0,64,2.6,64,5.7v30.6c0,3.2-2.6,5.7-5.8,5.7H5.8
	C2.6,42,0,39.4,0,36.3V5.7C0,2.6,2.6,0,5.8,0z"/>
<path class="st1" d="M0,36.3C0,39.4,2.6,42,5.8,42h52.4c3.2,0,5.8-2.5,5.8-5.7V21H0V36.3z"/>
<title>Flag of Haiti</title>
<g>
	<rect x="26.9" y="16.9" class="st2" width="10.2" height="8.1"/>
	<path class="st3" d="M36.9,23.9C36.9,23.8,36.9,23.8,36.9,23.9C36.8,23.8,36.8,23.8,36.9,23.9C36.9,23.8,37,23.9,36.9,23.9
		c0.1-0.1-0.2-0.4-0.3-0.4c0,0,0.1,0.2,0.1,0.4c-0.1,0-0.2-0.1-0.3-0.1c-0.3-0.1-0.3-0.2-0.7-0.3l0.4-0.3h0.1c0,0,0,0-0.1-0.1
		l0.3-0.3c0.1,0,0.2,0,0.3,0c0,0-0.1,0.1,0,0.1c0,0.1,0.4,0.1,0.4,0c0.1,0-0.4-0.1-0.4-0.1s0.1-0.1,0.1-0.2s-0.1-0.1-0.2-0.1l0,0
		l0,0l0,0l-0.5,0.4H36V23c0,0-0.3,0.2-0.4,0.3c-0.1,0-0.2-0.1-0.4-0.1c0-0.1,0-0.1,0-0.2v-0.1c0.1-0.1,0.1-0.1,0.2-0.2h0.2l0,0h0.1
		l-0.1-0.5h-0.1v0.1h-0.1c0.1-0.3,0-0.4,0.1-0.5c0,0,0.1-0.2,0.1-0.4c0,0.1,0.1,0.3,0,0.4l0.2-0.1l0,0l0.1-0.1l-0.3-0.3h0.1
		c0,0,0-0.1-0.1-0.1l0,0h0.1l0.3-0.3L35.5,21v0.1l0,0c0,0,0-0.1-0.1-0.1l0.1,0c-0.1-0.1-0.2-0.1-0.3,0l0,0c0,0.1,0,0.2,0.1,0.2
		l-0.2,0.1c0-0.1,0.1-0.5,0.1-0.8c0,0.1,0.1,0.3,0.1,0.3l0.2-0.1l0,0l0,0v-0.1l-0.3-0.3l0.1-0.1l0,0c0,0,0-0.1-0.1-0.1l0,0h0.1
		l0.2-0.4L35.2,20v0.1l0,0L35.1,20L35,20.1c-0.1,0-0.1,0-0.2,0.1l0,0c0,0.1,0,0.2,0.1,0.2l-0.3,0.2c0-0.1,0-0.4-0.2-0.7
		c0.1,0.1,0.2,0.2,0.2,0.3l0.1-0.1l0,0l0.1-0.1l-0.3-0.2l0.1-0.1l-0.1-0.1l0,0h0.1l0.2-0.4l-0.4,0.2v0.1l0,0c0,0-0.1,0-0.1-0.1
		l-0.2,0.2c-0.1,0-0.2,0-0.3,0.1l0,0c0.1,0.1,0.1,0.2,0.2,0.2L33,21l0.2-0.3h0.1l0.3-0.8l-0.4,0.7h-0.1l-0.4,0.9l-0.1,0.1l0.4-1h0.1
		l0.2-0.9L33,20.4h-0.1l-0.5,1.3l0.3-1.1h0.1l0.1-0.9l-0.2,0.8h-0.1l-0.2,0.8c0-0.3-0.1-0.8-0.1-1l0,0v-0.2l0,0l-0.1-0.2l0,0v-0.1
		c0.1,0,0.2-0.2,0.2-0.2L32.3,20l0.2-0.3V20c0.1-0.2,0.1-0.2,0.1-0.4l0.1,0.1c0-0.2-0.1-0.3-0.1-0.3l0.1,0.1c0-0.1-0.2-0.3-0.2-0.3
		l0.2,0.1c0-0.1,0-0.1-0.1-0.1l0.1-0.1v0.1h0.1v0.2v-0.2l0.1,0.2c0.1-0.2,0-0.3,0.2-0.1c0-0.1-0.1-0.4-0.3-0.6h0.1l0.1,0.1l0.1-0.1
		v0.2v-0.1l0.1,0.1v-0.1l0.1,0.2l0.1-0.1l0.1,0.1v-0.1V19c0.1-0.1,0.1-0.1,0.1,0v-0.1l0.1,0.1v-0.1c0,0,0.1,0,0.1,0.1
		c-0.2-0.3-0.8-0.5-1.1-0.6h0.1v-0.1l0.1,0.1v-0.1l0.1,0.1v-0.1l0.1,0.1c0.1,0,0.2,0,0.2,0l0.1-0.1l0.1,0.2l0.1-0.1l0.2,0.2v-0.2
		l0.1,0.3l0.1-0.2v0.2l0.1-0.2l0.1,0.1c-0.1-0.4-0.3-0.4-0.7-0.6v-0.1l0.2,0.1v-0.1l0.2,0.2V18l0.2,0.1L33.9,18l0.2,0.2v-0.1
		c0,0,0.1,0.1,0.2,0.1c-0.2-0.4-1.1-0.3-1.6-0.2c0.1-0.1,0.3-0.2,0.4-0.2c0,0,0,0,0-0.1l0.1,0.1c0,0,0-0.1-0.1-0.2l0.2,0.1
		c0,0,0-0.1-0.1-0.1l0.3,0.1l-0.1-0.1c0,0,0.1,0.1,0.2,0.1c-0.2-0.1-0.8-0.5-1.6,0.3c0-0.1,0-0.2,0-0.3h0.1l0,0l0,0l0.1-0.1l0,0
		c0-0.3,0-0.2,0-0.3c0-0.2-0.4-0.2-0.4-0.2c0,0.1,0.1,0,0,0.2l0,0c0,0-0.1,0.1-0.1,0.2l0,0c0,0.1,0.1,0.1,0.2,0.2V18
		c-0.8-0.8-1.5-0.4-1.6-0.3c0.1,0,0.2,0,0.2-0.1l-0.1,0.1l0.3-0.1l-0.1,0.1l0.2-0.1c0,0.1-0.1,0.2-0.1,0.2l0.1-0.1v0.1
		c0.1,0,0.3,0.1,0.4,0.2c-0.5-0.1-1.4-0.2-1.6,0.2c0.1,0,0.2-0.1,0.2-0.1v0.1L30,18l-0.1,0.2l0.2-0.1v0.1l0.2-0.2v0.1l0.2-0.1v0.1
		c-0.4,0.2-0.6,0.2-0.7,0.6l0.1-0.1l0.1,0.2v-0.2l0.1,0.2l0.1-0.3v0.2l0.2-0.2l0.1,0.1l0.1-0.2l0.1,0.1c0,0,0.1-0.1,0.2,0l0.1-0.1
		v0.1l0.1-0.1v0.1l0.1-0.1v0.1h0.1c-0.4,0.1-1,0.3-1.1,0.6c0.1,0,0.1-0.1,0.1-0.1v0.1l0.1-0.1v0.1c0-0.1,0.1-0.1,0.1,0V19v0.1
		l0.1-0.1c0,0,0,0.1,0.1,0.1l0.1-0.2V19l0.1-0.1V19v-0.2l0.1,0.1c0,0,0-0.1,0.1-0.1h0.1c0,0-0.1,0.2-0.1,0.4
		c0.2-0.2,0.1-0.2,0.2,0.1c0,0,0-0.2,0.1-0.2v0.2v-0.2h0.1V19l0.1,0.1c0,0,0,0.1-0.1,0.1l0.2-0.1c0,0-0.2,0.2-0.2,0.3l0.1-0.1
		c0,0-0.1,0.1-0.1,0.3l0.1-0.1c0,0.2,0,0.3,0.1,0.4v-0.3l0.2,0.3l-0.1,0.2l0,0l-0.1,0.2l0,0c0,0.1,0,0.5,0,0.9l-0.2-0.7h-0.1
		l-0.2-0.8l0.1,0.9h0.1l0.3,1.1l-0.5-1.3h-0.1l-0.3-0.7l0.2,0.9h0.1l0.4,1l-0.1-0.1l-0.3-1H31l-0.4-0.7l0.3,0.8H31l0.2,0.3l-1-1.1
		c0.1,0,0.1-0.1,0.2-0.2l0,0c-0.1-0.1-0.2-0.1-0.3-0.1L30,19.4c0,0-0.1,0-0.1,0.1l0,0v-0.1l-0.4-0.2l0.2,0.4h0.1l0,0l-0.1,0.1
		l0.1,0.1L29.5,20l0.1,0.1l0,0l0.1,0.1c0-0.1,0.1-0.2,0.2-0.3c-0.2,0.2-0.2,0.5-0.2,0.7l-0.3-0.2c0,0,0.1-0.1,0.1-0.2l0,0
		c-0.1-0.1-0.2-0.1-0.2-0.1L29.1,20L29,20.1l0,0V20l-0.4-0.2l0.2,0.4h0.1l0,0l-0.1,0.1l0.1,0.1l-0.3,0.3v0.1l0,0l0,0l0.2,0.1
		c0-0.1,0-0.2,0.1-0.3c-0.1,0.3,0,0.7,0.1,0.8l-0.2-0.1c0,0,0.1-0.1,0.1-0.2l0,0c-0.1-0.1-0.2-0.1-0.3,0L28.5,21l-0.1,0.1l0,0V21
		l-0.5-0.1l0.3,0.3h0.1l0,0c0,0,0,0.1-0.1,0.1h0.1L28,21.6l0.1,0.1l0,0l0.2,0.1c0-0.1,0-0.2,0-0.4c0,0.2,0.1,0.4,0.1,0.4
		c0,0.1,0,0.2,0.1,0.5h-0.1v-0.1h-0.1l-0.1,0.5h0.1l0,0h0.2c0,0.1,0.1,0.1,0.2,0.2V23c0,0.1,0,0.2,0,0.2c-0.1,0-0.3,0.1-0.4,0.1
		c-0.1-0.1-0.4-0.3-0.4-0.3v-0.1c0,0,0,0-0.1,0l-0.5-0.4l0,0l0,0l0,0c0,0-0.2,0-0.2,0.1s0.1,0.1,0.1,0.2l-0.4,0.1c0,0,0.4,0,0.5-0.1
		c0,0-0.1-0.1,0-0.1c0,0,0.2,0,0.3,0l0.5,0.3L28,23.1h0.1l0.3,0.3l0,0c-0.4,0.1-0.4,0.2-0.7,0.3c-0.3,0.1-0.3,0.1-0.5,0.1
		c-0.1,0-0.2,0.1-0.3,0.2v1.1h10.2V24C37.1,23.9,37,23.9,36.9,23.9z M32.2,18.6L32.2,18.6L32.2,18.6L32.2,18.6z M31.9,18.7
		L31.9,18.7L31.9,18.7L31.9,18.7z M31.9,18.9V19V18.9L31.9,18.9z M32.2,19.4L32.2,19.4L32.2,19.4L32.2,19.4z M32.2,19L32.2,19
		c0.1,0,0,0.1,0,0.1V19z M31.9,19.1v0.1L31.8,19L31.9,19.1z M31.9,19.3L31.9,19.3L31.9,19.3L31.9,19.3L31.9,19.3L31.9,19.3
		L31.9,19.3z M32.2,19.5L32.2,19.5L32.2,19.5v-0.1l0.2-0.1L32.2,19.5z M32.2,19.3v-0.2h0.1L32.2,19.3z M32.7,18.9
		c-0.1-0.1-0.2-0.2-0.2-0.2h0.1l-0.2-0.1h0.1l-0.1-0.1h0.1v0.1l0.1-0.1c0.1,0.2,0,0.2,0,0.2C32.7,18.8,32.7,18.8,32.7,18.9z
		 M31.5,18.9c0-0.1,0-0.1,0-0.2c0,0-0.1,0,0-0.2l0.1,0.1v-0.1h0.1l-0.1,0.1h0.1l-0.2,0.1h0.1C31.7,18.7,31.6,18.8,31.5,18.9z
		 M31.9,19.5v0.1l-0.1-0.3C31.8,19.3,31.9,19.4,31.9,19.5z M31.9,19.7L31.9,19.7L31.9,19.7L31.9,19.7z M36.7,23.8L36.7,23.8
		L36.7,23.8L36.7,23.8z"/>
</g>
</svg>
