<?xml version="1.0" encoding="utf-8"?>
<!-- Generator: Adobe Illustrator 20.0.0, SVG Export Plug-In . SVG Version: 6.00 Build 0)  -->
<svg version="1.1" id="Layer_1" xmlns="http://www.w3.org/2000/svg" xmlns:xlink="http://www.w3.org/1999/xlink" x="0px" y="0px"
	 viewBox="0 0 64 42" style="enable-background:new 0 0 64 42;" xml:space="preserve">
<style type="text/css">
	.st0{fill:#4758A9;}
	.st1{fill:#F5F7FA;}
</style>
<path id="Rounded_Rectangle_7_copy_1_" class="st0" d="M5.8,0h52.3C61.4,0,64,2.6,64,5.7v30.6c0,3.2-2.6,5.7-5.8,5.7H5.8
	C2.6,42,0,39.4,0,36.3V5.7C0,2.6,2.6,0,5.8,0z"/>
<rect y="15.4" class="st1" width="64" height="11.2"/>
<polygon class="st0" points="32,19.7 32.3,20.7 33.4,20.7 32.5,21.3 32.9,22.3 32,21.7 31.1,22.3 31.5,21.3 30.6,20.7 31.7,20.7 "/>
<g>
	<g>
		<polygon class="st0" points="23,17 23.4,18 24.4,18 23.6,18.6 23.9,19.6 23,19 22.2,19.6 22.5,18.6 21.6,18 22.7,18 		"/>
		<polygon class="st0" points="23,22.4 23.4,23.4 24.4,23.4 23.6,24 23.9,25 23,24.4 22.2,25 22.5,24 21.6,23.4 22.7,23.4 		"/>
	</g>
	<g>
		<polygon class="st0" points="41,17 41.3,18 42.4,18 41.5,18.6 41.8,19.6 41,19 40.1,19.6 40.4,18.6 39.6,18 40.6,18 		"/>
		<polygon class="st0" points="41,22.4 41.3,23.4 42.4,23.4 41.5,24 41.8,25 41,24.4 40.1,25 40.4,24 39.6,23.4 40.6,23.4 		"/>
	</g>
</g>
</svg>
