<?xml version="1.0" encoding="utf-8"?>
<!-- Generator: Adobe Illustrator 20.0.0, SVG Export Plug-In . SVG Version: 6.00 Build 0)  -->
<svg version="1.1" id="Layer_1" xmlns="http://www.w3.org/2000/svg" xmlns:xlink="http://www.w3.org/1999/xlink" x="0px" y="0px"
	 viewBox="0 0 64 42" style="enable-background:new 0 0 64 42;" xml:space="preserve">
<style type="text/css">
	.st0{fill:#2E8427;}
	.st1{fill:#F9DA00;}
</style>
<path id="Rounded_Rectangle_7_copy_1_" class="st0" d="M5.8,0h52.3C61.4,0,64,2.6,64,5.7v30.6c0,3.2-2.6,5.7-5.8,5.7H5.8
	C2.6,42,0,39.4,0,36.3V5.7C0,2.6,2.6,0,5.8,0z"/>
<path d="M0,5.7v30.6c0,0.8,0.2,1.6,0.5,2.3L27.8,21L0.5,3.4C0.2,4.1,0,4.9,0,5.7z"/>
<path d="M63.5,3.4L36.2,21l27.3,17.6c0.3-0.7,0.5-1.5,0.5-2.3V5.7C64,4.9,63.8,4.1,63.5,3.4z"/>
<path class="st1" d="M36.2,21L63.5,3.4c-0.4-0.8-0.9-1.4-1.5-2c-0.6-0.5-1.3-0.9-2-1.1L32,18.3l-28-18C3.3,0.5,2.6,0.9,2,1.4
	c-0.6,0.5-1.2,1.2-1.5,2L27.8,21L0.5,38.6c0.4,0.8,0.9,1.5,1.6,2c0.6,0.5,1.2,0.9,2,1.1l28-18l28,18c0.7-0.2,1.3-0.6,1.9-1
	c0.7-0.6,1.3-1.3,1.6-2.1L36.2,21z"/>
</svg>
