<?xml version="1.0" encoding="utf-8"?>
<!-- Generator: Adobe Illustrator 20.0.0, SVG Export Plug-In . SVG Version: 6.00 Build 0)  -->
<svg version="1.1" id="Layer_1" xmlns="http://www.w3.org/2000/svg" xmlns:xlink="http://www.w3.org/1999/xlink" x="0px" y="0px"
	 viewBox="0 0 64 42" style="enable-background:new 0 0 64 42;" xml:space="preserve">
<style type="text/css">
	.st0{fill:#FFFFFF;}
	.st1{fill:#CF1033;}
	.st2{fill:#0063C0;}
</style>
<path id="SVGID_1_" class="st0" d="M58.1,0H36.2h-8.4h-22C2.6,0,0,2.6,0,5.7v11.1v8.4v11.1C0,39.4,2.6,42,5.8,42h22h8.4h22
	c3.2,0,5.8-2.5,5.8-5.7V25.2v-8.4V5.7C64,2.6,61.4,0,58.1,0z"/>
<path class="st1" d="M58.1,0H36.2H32v21h32v-4.2V5.7C64,2.6,61.4,0,58.1,0z"/>
<path class="st2" d="M0,21v4.2v11.1C0,39.4,2.6,42,5.8,42h22H32V21H0z"/>
<polygon class="st2" points="16.1,4.9 17.4,9.1 21.9,9.1 18.3,11.7 19.7,16 16.1,13.3 12.5,16 13.8,11.7 10.2,9.1 14.7,9.1 "/>
<polygon class="st1" points="48,24.4 49.4,28.6 53.8,28.6 50.2,31.2 51.6,35.5 48,32.8 44.4,35.5 45.8,31.2 42.2,28.6 46.6,28.6 "/>
</svg>
