<?xml version="1.0" encoding="utf-8"?>
<!-- Generator: Adobe Illustrator 20.0.0, SVG Export Plug-In . SVG Version: 6.00 Build 0)  -->
<svg version="1.1" id="Layer_1" xmlns="http://www.w3.org/2000/svg" xmlns:xlink="http://www.w3.org/1999/xlink" x="0px" y="0px"
	 viewBox="0 0 64 42" style="enable-background:new 0 0 64 42;" xml:space="preserve">
<style type="text/css">
	.st0{fill:#FFFFFF;}
	.st1{fill:#ED0000;}
	.st2{fill:#0050F0;}
</style>
<rect y="8.4" class="st0" width="64" height="8.4"/>
<rect y="25.2" class="st0" width="64" height="8.4"/>
<path class="st1" d="M0,36.3C0,39.4,2.6,42,5.8,42h52.4c3.2,0,5.8-2.5,5.8-5.7v-2.7H0V36.3z"/>
<rect y="16.8" class="st1" width="64" height="8.4"/>
<path class="st1" d="M58.1,0H5.8C2.6,0,0,2.6,0,5.7v2.7h64V5.7C64,2.6,61.4,0,58.1,0z"/>
<path class="st2" d="M2,40.6c9.7-6.5,19.4-13.1,29.1-19.6C21.4,14.4,11.7,7.9,2,1.4C0.8,2.4,0,4,0,5.7v30.6C0,38,0.8,39.6,2,40.6z"
	/>
<polygon class="st0" points="18.2,18.1 13.9,21.3 15.5,26.4 11.2,23.2 6.8,26.4 8.5,21.3 4.1,18.1 9.5,18.1 11.2,13 12.9,18.1 "/>
</svg>
