<?xml version="1.0" encoding="utf-8"?>
<!-- Generator: Adobe Illustrator 20.0.0, SVG Export Plug-In . SVG Version: 6.00 Build 0)  -->
<svg version="1.1" id="Layer_1" xmlns="http://www.w3.org/2000/svg" xmlns:xlink="http://www.w3.org/1999/xlink" x="0px" y="0px"
	 viewBox="0 0 64 42" style="enable-background:new 0 0 64 42;" xml:space="preserve">
<style type="text/css">
	.st0{fill:#F0C715;}
	.st1{fill:#57A863;}
	.st2{fill:#009E60;}
	.st3{fill:#006DBD;}
</style>
<path id="Rounded_Rectangle_7_copy" class="st0" d="M5.8,0h52.3C61.4,0,64,2.6,64,5.7v30.6c0,3.2-2.6,5.7-5.8,5.7H5.8
	C2.6,42,0,39.4,0,36.3V5.7C0,2.6,2.6,0,5.8,0z"/>
<path class="st1" d="M64,5.3v31.4c0-0.1,0-0.3,0-0.4V5.7C64,5.6,64,5.5,64,5.3z"/>
<path class="st2" d="M58.2,42c-3.1,0-6.3,0-9.4,0c0-14,0-28,0-42c3.1,0,6.3,0,9.4,0C61.4,0,64,2.6,64,5.7v30.7
	C64,39.5,61.4,42.1,58.2,42z"/>
<path class="st3" d="M0,36.4V5.7C0,2.6,2.6,0,5.8,0c3.1,0,6.3,0,9.4,0c0,14,0,28,0,42c-3.1,0-6.3,0-9.4,0C2.6,42.1,0,39.5,0,36.4z"
	/>
<g>
	<path class="st2" d="M28.5,30.4l3.5,7l3.5-7l-3.5-7L28.5,30.4z"/>
	<path class="st2" d="M24.1,21.6l3.5,7l3.5-7l-3.5-7L24.1,21.6z"/>
	<path class="st2" d="M32.9,21.6l3.5,7l3.5-7l-3.5-7L32.9,21.6z"/>
</g>
</svg>
