<?xml version="1.0" encoding="utf-8"?>
<!-- Generator: Adobe Illustrator 20.0.0, SVG Export Plug-In . SVG Version: 6.00 Build 0)  -->
<svg version="1.1" id="Layer_1" xmlns="http://www.w3.org/2000/svg" xmlns:xlink="http://www.w3.org/1999/xlink" x="0px" y="0px"
	 viewBox="0 0 64 42" style="enable-background:new 0 0 64 42;" xml:space="preserve">
<style type="text/css">
	.st0{fill:#FFFFFF;}
	.st1{fill:#57A863;}
	.st2{fill:#CE0F25;}
	.st3{fill:none;stroke:#221B0F;stroke-width:0.127;}
	.st4{fill:#FAF8F0;}
	.st5{fill:#F6E4BE;}
	.st6{fill:#666666;}
	.st7{fill:none;stroke:#552200;stroke-width:0.127;}
	.st8{fill:#EACE24;stroke:#806600;stroke-width:0.254;}
	.st9{fill:#5E520E;stroke:#552200;stroke-width:0.127;}
	.st10{fill:none;stroke:#806600;stroke-width:0.127;}
	.st11{fill:#1353B4;stroke:#554400;stroke-width:0.254;}
	.st12{fill:none;stroke:#554400;stroke-width:0.254;}
	.st13{fill:#FFFFFF;stroke:#000000;stroke-width:0.1022;}
	.st14{fill:#EACE24;}
	.st15{fill:#EACE24;stroke:#000000;stroke-width:0.127;}
	.st16{fill:none;stroke:#000000;stroke-width:0.127;}
	.st17{fill:#FFFFFF;stroke:#000000;stroke-width:0.127;}
	.st18{fill:#EACE24;stroke:#806600;stroke-width:0.127;}
	.st19{fill:#EACE24;stroke:#806600;stroke-width:0.127;stroke-miterlimit:10;}
	.st20{fill:#806600;}
	.st21{fill:#FF8080;}
	.st22{fill:none;stroke:#9E7800;stroke-width:0.127;stroke-linejoin:round;}
	.st23{fill:#BA0028;}
	.st24{fill:#CF1E45;}
	.st25{fill:#FF083C;}
	.st26{fill:#FF99CC;}
	.st27{fill:#FF0000;}
	.st28{fill:#CCCCCC;}
	.st29{fill:none;stroke:#9E7800;stroke-width:0.127;}
	.st30{fill:#CCCCCC;stroke:#9E7800;stroke-width:6.349926e-02;}
</style>
<path id="Rounded_Rectangle_7_copy" class="st0" d="M5.8,0h52.3C61.4,0,64,2.6,64,5.7v30.6c0,3.2-2.6,5.7-5.8,5.7H5.8
	C2.6,42,0,39.4,0,36.3V5.7C0,2.6,2.6,0,5.8,0z"/>
<path class="st1" d="M64,5.3v31.4c0-0.1,0-0.3,0-0.4V5.7C64,5.6,64,5.5,64,5.3z"/>
<path class="st2" d="M43.6,26c0.7,1.5,0.4,2.8,0,3.9c0.9-0.3,2.9-1.3,2.7-2.5C45.9,26.4,44.5,26.2,43.6,26"/>
<path class="st3" d="M43.6,26c0.7,1.5,0.4,2.8,0,3.9c0.9-0.3,2.9-1.3,2.7-2.5C45.9,26.4,44.5,26.2,43.6,26z"/>
<path class="st4" d="M40.2,32.6c0.6-0.2,1-0.4,2-0.5c0.4-0.1,1.5,0,2.1-0.2s1-0.4,1-0.7c0-0.5,0.2-1.2,0.4-1.7
	c0.3-0.8,0.7-1.5,0.7-1.7c0.1-0.2,0-0.4-0.2-0.6c-0.5-0.7-1.7-1.3-2.8-1.3v0.2c0.8,0,2.5,0.6,2.6,1.5c0.1,1.2-4.1,1.4-6.4,1.9
	c0,0-0.6,0.1-0.8,0.4c-0.1,0.1-0.2,0.5-0.1,0.7C39.9,31.5,40.2,32.6,40.2,32.6"/>
<path class="st3" d="M40.2,32.6c0.6-0.2,1-0.4,2-0.5c0.4-0.1,1.5,0,2.1-0.2s1-0.4,1-0.7c0-0.5,0.2-1.2,0.4-1.7
	c0.3-0.8,0.7-1.5,0.7-1.7c0.1-0.2,0-0.4-0.2-0.6c-0.5-0.7-1.7-1.3-2.8-1.3v0.2c0.8,0,2.5,0.6,2.6,1.5c0.1,1.2-4.1,1.4-6.4,1.9
	c0,0-0.6,0.1-0.8,0.4c-0.1,0.1-0.2,0.5-0.1,0.7C39.9,31.5,40.2,32.6,40.2,32.6z"/>
<path class="st5" d="M46.1,28.3c-1.6,1-3.7,1.1-5.6,1.3l-1.2,1.2l1.1,1.6c0,0,1.2-0.4,1.8-0.5c0.4-0.1,0.9,0,1.4-0.1
	c0.4-0.1,0.7,0,1-0.3s0.3-0.9,0.4-1.4c0.1-0.3,0.3-0.5,0.5-0.8C45.9,28.8,46.1,28.3,46.1,28.3"/>
<path class="st2" d="M39.7,33.3c0.3-1.4-0.6-2-1.1-2.8c0,0,0.5,0.2,0.8,0.3c0.5,0.1,0.8,0.1,1.6-0.1c0.6-0.1,1.1-0.4,1.6-0.2
	c0.1,0,0.1,0.1,0.1,0.2c0,0.2-0.1,0.4-0.2,0.6C41.8,32.1,39.7,33.3,39.7,33.3"/>
<path class="st3" d="M39.7,33.3c0.3-1.4-0.6-2-1.1-2.8c0,0,0.5,0.2,0.8,0.3c0.5,0.1,0.8,0.1,1.6-0.1c0.6-0.1,1.1-0.4,1.6-0.2
	c0.1,0,0.1,0.1,0.1,0.2c0,0.2-0.1,0.4-0.2,0.6C41.8,32.1,39.7,33.3,39.7,33.3z"/>
<path class="st2" d="M20.4,26c-0.7,1.5-0.4,2.8,0,3.9c-0.9-0.3-2.9-1.3-2.7-2.5C18.1,26.4,19.4,26.2,20.4,26"/>
<path class="st3" d="M20.4,26c-0.7,1.5-0.4,2.8,0,3.9c-0.9-0.3-2.9-1.3-2.7-2.5C18.1,26.4,19.4,26.2,20.4,26z"/>
<path class="st4" d="M23.7,32.6c-0.6-0.2-1-0.4-2-0.5c-0.4-0.1-1.5,0-2.1-0.2s-1-0.4-1-0.7c0-0.5-0.2-1.2-0.4-1.7
	c-0.3-0.8-0.7-1.5-0.7-1.7c-0.1-0.2,0-0.4,0.2-0.6c0.5-0.7,1.7-1.3,2.8-1.3v0.2c-0.8,0-2.5,0.6-2.6,1.5c-0.1,1.2,4.1,1.4,6.4,1.9
	c0,0,0.6,0.1,0.8,0.4c0.1,0.1,0.2,0.5,0.1,0.7C24,31.5,23.7,32.6,23.7,32.6"/>
<path class="st3" d="M23.7,32.6c-0.6-0.2-1-0.4-2-0.5c-0.4-0.1-1.5,0-2.1-0.2s-1-0.4-1-0.7c0-0.5-0.2-1.2-0.4-1.7
	c-0.3-0.8-0.7-1.5-0.7-1.7c-0.1-0.2,0-0.4,0.2-0.6c0.5-0.7,1.7-1.3,2.8-1.3v0.2c-0.8,0-2.5,0.6-2.6,1.5c-0.1,1.2,4.1,1.4,6.4,1.9
	c0,0,0.6,0.1,0.8,0.4c0.1,0.1,0.2,0.5,0.1,0.7C24,31.5,23.7,32.6,23.7,32.6z"/>
<path class="st5" d="M17.8,28.3c1.6,1,3.7,1.1,5.6,1.3l1.2,1.2l-1.1,1.6c0,0-1.2-0.4-1.8-0.5c-0.4-0.1-0.9,0-1.4-0.1
	c-0.4-0.1-0.7,0-1-0.3s-0.3-0.9-0.4-1.4c-0.1-0.3-0.3-0.5-0.5-0.8C18.1,28.8,17.8,28.3,17.8,28.3"/>
<path class="st2" d="M24.3,33.3c-0.3-1.4,0.6-2,1.1-2.8c0,0-0.5,0.2-0.8,0.3c-0.5,0.1-0.8,0.1-1.6-0.1c-0.6-0.1-1.1-0.4-1.6-0.2
	c-0.1,0-0.1,0.1-0.1,0.2c0,0.2,0.1,0.4,0.2,0.6C22.2,32.1,24.3,33.3,24.3,33.3"/>
<path class="st3" d="M24.3,33.3c-0.3-1.4,0.6-2,1.1-2.8c0,0-0.5,0.2-0.8,0.3c-0.5,0.1-0.8,0.1-1.6-0.1c-0.6-0.1-1.1-0.4-1.6-0.2
	c-0.1,0-0.1,0.1-0.1,0.2c0,0.2,0.1,0.4,0.2,0.6C22.2,32.1,24.3,33.3,24.3,33.3z"/>
<path class="st4" d="M22,35c-0.3-0.2-0.6-0.3-0.8-0.6c-0.1-0.2-0.2-0.4-0.1-0.6c0.3-1.2,0.3-1.9,0-2.8c-0.1-0.3-0.1-0.8,0.2-0.7
	c1,0.1,2,0.4,2.8,0.3c0.3,0,0.8-0.1,0.8-0.4c0-0.4-1-0.8-1-0.8c0.6,0.1,1.1,0.3,1.3,0.7c0.1,0.1,0,0.4-0.1,0.5
	c-0.2,0.3-0.5,0.3-0.9,0.4c-0.6,0.1-1.7-0.1-2.4-0.2c-0.3-0.1-0.4-0.1-0.4-0.1c-0.1,0.1,0,0.3,0.4,0.7c0.8,0.7,1.7,1.3,2.6,1.8
	c2.6,1.4,4.5,1.8,7.2,1.8s4.6-0.4,7.2-1.8c0.9-0.5,1.9-1.1,2.6-1.8c0.4-0.4,0.6-0.6,0.4-0.7c0,0-0.1,0-0.4,0.1
	c-0.6,0.1-1.7,0.3-2.4,0.2c-0.3,0-0.7-0.1-0.9-0.4C38,30.5,38,30.3,38,30.1c0.2-0.4,0.7-0.6,1.3-0.7c0,0-1.1,0.4-1,0.8
	c0,0.3,0.5,0.4,0.8,0.4c0.8,0,1.9-0.3,2.8-0.3c0.4,0,0.3,0.4,0.2,0.7c-0.2,0.9-0.3,1.6,0,2.8c0.1,0.2,0,0.5-0.1,0.6
	c-0.2,0.3-0.5,0.4-0.8,0.6c-3.2,2-6.7,3.1-10,3.1C28.7,38.1,25.2,37.1,22,35"/>
<path class="st3" d="M22,35c-0.3-0.2-0.6-0.3-0.8-0.6c-0.1-0.2-0.2-0.4-0.1-0.6c0.3-1.2,0.3-1.9,0-2.8c-0.1-0.3-0.1-0.8,0.2-0.7
	c1,0.1,2,0.4,2.8,0.3c0.3,0,0.8-0.1,0.8-0.4c0-0.4-1-0.8-1-0.8c0.6,0.1,1.1,0.3,1.3,0.7c0.1,0.1,0,0.4-0.1,0.5
	c-0.2,0.3-0.5,0.3-0.9,0.4c-0.6,0.1-1.7-0.1-2.4-0.2c-0.3-0.1-0.4-0.1-0.4-0.1c-0.1,0.1,0,0.3,0.4,0.7c0.8,0.7,1.7,1.3,2.6,1.8
	c2.6,1.4,4.5,1.8,7.2,1.8s4.6-0.4,7.2-1.8c0.9-0.5,1.9-1.1,2.6-1.8c0.4-0.4,0.6-0.6,0.4-0.7c0,0-0.1,0-0.4,0.1
	c-0.6,0.1-1.7,0.3-2.4,0.2c-0.3,0-0.7-0.1-0.9-0.4C38,30.5,38,30.3,38,30.1c0.2-0.4,0.7-0.6,1.3-0.7c0,0-1.1,0.4-1,0.8
	c0,0.3,0.5,0.4,0.8,0.4c0.8,0,1.9-0.3,2.8-0.3c0.4,0,0.3,0.4,0.2,0.7c-0.2,0.9-0.3,1.6,0,2.8c0.1,0.2,0,0.5-0.1,0.6
	c-0.2,0.3-0.5,0.4-0.8,0.6c-3.2,2-6.7,3.1-10,3.1C28.7,38.1,25.2,37.1,22,35z"/>
<path class="st5" d="M42.3,34.6c0,0,0.2-0.2,0.3-0.4c0.1-0.5-0.1-0.9-0.1-1.4s0.1-1.5,0.1-1.5c-1.2,1.2-4.6,4.1-10.5,4.1
	c-5.7,0-9.3-3-10.5-4.1c0,0,0.1,1,0.1,1.5s-0.2,0.9-0.1,1.4c0,0.2,0.3,0.4,0.3,0.4c3.2,2.1,6.7,3.3,10.3,3.3
	C35.6,37.9,39,36.6,42.3,34.6"/>
<path d="M25.7,35.5c0.1-0.3,0.5-0.7,1-0.5s0.7,0.5,0.5,1c-0.1,0.4-0.6,0.7-1.1,0.5C25.7,36.3,25.6,35.8,25.7,35.5 M27,36
	c0.1-0.4,0-0.8-0.3-0.9c-0.2-0.1-0.5,0-0.7,0.4c-0.1,0.4,0,0.8,0.3,0.9C26.5,36.5,26.8,36.5,27,36"/>
<path d="M27.7,35.9c0.1-0.3,0.1-0.3,0.1-0.4c0-0.1,0-0.1-0.1-0.1c0,0,0,0-0.1,0l0,0l0,0c0.1,0,0.2,0.1,0.3,0.1c0,0,0.2,0,0.2,0.1
	l0,0l0,0c0,0,0,0-0.1,0s-0.1,0-0.1,0.1s0,0.1-0.1,0.4l-0.1,0.3c-0.1,0.3,0,0.4,0,0.5c0.1,0.1,0.2,0.1,0.2,0.1c0.1,0,0.2,0,0.3,0
	c0.1-0.1,0.2-0.3,0.2-0.5l0.1-0.2c0.1-0.3,0.1-0.3,0.1-0.4c0-0.1,0-0.1-0.1-0.1c0,0,0,0-0.1,0l0,0l0,0c0.1,0,0.2,0.1,0.2,0.1
	s0.1,0,0.2,0l0,0l0,0c0,0,0,0-0.1,0s-0.1,0-0.1,0.1s0,0.1-0.1,0.4v0.2c-0.1,0.2-0.1,0.4-0.3,0.5c-0.2,0.1-0.3,0.1-0.4,0
	c-0.1,0-0.3-0.1-0.4-0.2c-0.1-0.1-0.1-0.3-0.1-0.6L27.7,35.9z"/>
<path d="M29.4,36.8L29.4,36.8L29.3,37v0.1c0,0,0,0.1,0.1,0.1l0,0l0,0l0,0c-0.1,0-0.2,0-0.2,0s-0.1,0-0.2,0l0,0l0,0c0,0,0,0,0.1,0
	s0.1-0.1,0.2-0.2l0.7-1.1c0-0.1,0-0.1,0.1-0.1c0,0,0,0,0,0.1s0.2,0.9,0.3,1.3c0.1,0.2,0.1,0.2,0.1,0.2h0.1l0,0c0,0,0,0-0.1,0
	s-0.2,0-0.4-0.1H30l0,0l0,0l-0.1-0.4l0,0L29.4,36.8z M29.9,36.7L29.9,36.7l-0.1-0.5l0,0l0,0l-0.3,0.5l0,0H29.9z"/>
<path d="M30.9,37.2c0,0.2,0,0.2,0.1,0.2h0.1l0,0l0,0c-0.1,0-0.2,0-0.3,0c0,0-0.1,0-0.2,0l0,0l0,0h0.1C30.8,37.4,30.8,37.3,30.9,37.2
	l0-1.2v-0.1c0,0,0,0,0.1,0.1c0,0,0.3,0.4,0.6,0.7c0.1,0.1,0.4,0.4,0.4,0.5l0,0v-0.9c0-0.1,0-0.2-0.1-0.2h-0.1l0,0c0,0,0,0,0.1,0
	s0.2,0,0.2,0s0.1,0,0.2,0l0,0l0,0c0,0,0,0-0.1,0s-0.1,0.1-0.1,0.2L32,37.6v0.1c0,0,0,0-0.1,0c-0.1-0.1-0.4-0.4-0.6-0.6
	c-0.2-0.2-0.4-0.5-0.5-0.5l0,0L30.9,37.2z"/>
<path d="M32.8,36.9L32.8,36.9l-0.1,0.3c0,0.1,0,0.1,0,0.1s0,0.1,0.1,0.1l0,0l0,0l0,0c-0.1,0-0.2,0-0.2,0s-0.1,0-0.2,0l0,0l0,0
	c0,0,0,0,0.1,0s0.1-0.1,0.2-0.2L33,36c0-0.1,0-0.1,0.1-0.1c0,0,0,0,0.1,0.1s0.4,0.9,0.6,1.2c0.1,0.2,0.2,0.2,0.2,0.2h0.1l0,0
	c0,0,0,0-0.1,0s-0.2,0-0.4,0h-0.1l0,0l0,0L33.3,37l0,0L32.8,36.9z M33.3,36.8L33.3,36.8L33,36.3l0,0l0,0l-0.2,0.5l0,0H33.3z"/>
<path d="M34.5,36.7c0,0.3,0.1,0.4,0.1,0.4s0.1,0,0.2,0c0.1,0,0.2,0,0.2-0.1v-0.1l0,0l0,0v0.2c0,0,0,0.1-0.1,0.1s-0.2,0-0.3,0
	s-0.2,0-0.2,0h-0.1h-0.1l0,0l0,0h0.1v-0.1c0-0.1,0-0.2-0.1-0.4l-0.1-0.3c0-0.3-0.1-0.4-0.1-0.4c0-0.1,0-0.1-0.1-0.1c0,0,0,0-0.1,0
	l0,0l0,0c0.1,0,0.2,0,0.3,0c0,0,0.2,0,0.3,0l0,0l0,0h-0.1c-0.1,0-0.1,0.1-0.1,0.1c0,0.1,0,0.1,0.1,0.4L34.5,36.7z"/>
<path d="M35.6,36.6L35.6,36.6l-0.1,0.3c0,0.1,0,0.1,0,0.1s0,0.1,0.1,0l0,0l0,0l0,0c-0.1,0-0.1,0-0.2,0c0,0-0.1,0-0.2,0.1l0,0l0,0
	c0,0,0,0,0.1,0s0.1-0.1,0.1-0.2l0.2-1.3c0-0.1,0-0.1,0-0.1s0,0,0.1,0c0.1,0.1,0.6,0.8,0.8,1.1c0.1,0.2,0.2,0.2,0.2,0.2h0.1l0,0
	c0,0,0,0-0.1,0s-0.2,0.1-0.4,0.1h-0.1l0,0l0,0L36,36.5l0,0L35.6,36.6z M36,36.4L36,36.4L35.7,36l0,0l0,0l-0.1,0.5l0,0L36,36.4z"/>
<path d="M36.6,36.1c-0.1-0.3,0-0.8,0.5-1s0.9,0,1,0.4s0,0.9-0.5,1C37.1,36.7,36.7,36.4,36.6,36.1 M37.9,35.6
	c-0.1-0.4-0.5-0.6-0.8-0.5c-0.2,0.1-0.4,0.3-0.3,0.7c0.1,0.4,0.5,0.6,0.8,0.5C37.8,36.4,38.1,36.2,37.9,35.6"/>
<path class="st6" d="M40,10.1H23.9v1.1H40V10.1z"/>
<path class="st7" d="M40,10.1H23.9v1.1H40V10.1z"/>
<path class="st8" d="M23.9,11.3L22.1,7l-0.3,0.1l-0.7-1.5l1.2-0.4l0.3,0.7l0.6-0.2L23,5l1.3-0.3l0.2,0.7L25,5.3l-0.2-0.7l1.3-0.2
	l0.2,0.7L27.1,5l0.1,0.4h0.3L27.4,5L28,4.9l0.1,0.4h0.3V4.9L29,4.8l0.1,0.4h0.6L29.6,4l1.3-0.1v0.8h0.6V3.9h1.3v0.8h0.6V3.9L34.7,4
	l-0.1,1.2h0.6l0.1-0.4l0.6,0.1l-0.1,0.4h0.3l0.1-0.4L36.8,5l-0.1,0.4H37L37.2,5L38,5.1l0.2-0.8l1.3,0.2l-0.2,0.8l0.6,0.1L40,4.7
	L41.3,5L41,5.7l0.6,0.2l0.3-0.7l1.2,0.4L42.5,7L42,6.8l-1.9,4.4C35,9.8,28.9,9.8,23.9,11.3"/>
<path class="st9" d="M31.6,7.7V6.3c0-0.5,1-0.5,1,0v1.4"/>
<path class="st9" d="M24.4,8.6L24,7.3c-0.2-0.5,0.8-0.7,0.9-0.2l0.4,1.3"/>
<path class="st9" d="M38.7,8.4l0.4-1.3c0.2-0.5,1.1-0.3,0.9,0.2l-0.4,1.3"/>
<path class="st10" d="M34.8,9.2l-0.1,0.5 M23.7,10.8c5.4-1.6,11.2-1.6,16.6-0.1 M23.5,10.3c5.5-1.6,11.5-1.6,17-0.1 M23.3,9.9
	C28.9,8.3,35,8.2,40.7,9.8 M23.2,9.5c5.7-1.7,11.9-1.7,17.7-0.1 M36.9,9.5L36.8,10 M39.7,10.1l-0.2,0.4 M38.5,9.8l-0.1,0.4 M36.9,9
	l-0.1,0.5 M37.8,9.2l-0.1,0.4 M38.9,9.4l-0.1,0.4 M40.2,9.7L40,10.1 M38.7,8.9l-0.1,0.4 M40.1,9.2L40,9.6 M39.6,9.1l-0.1,0.4
	 M37.4,8.7l-0.1,0.4 M36.7,8.5L36.6,9 M34.1,9.2v0.5 M35.7,9.3l-0.1,0.4 M33.7,8.7v0.5 M34.6,8.7v0.5 M36,8.9l-0.1,0.4 M35.7,8.4
	l-0.1,0.4 M34.9,8.3l-0.1,0.4 M33.5,8.2v0.4 M25.6,9.8l0.1,0.4 M33.2,9.1v0.5 M24.8,10l0.2,0.4 M29.8,9.2v0.5 M31,9.1v0.4 M28.4,9.3
	l0.1,0.5 M31.7,9.1v0.5 M26.8,9.6l0.1,0.5 M25.2,9.4l0.1,0.4 M26.3,9.2l0.1,0.4 M27,9.1l0.1,0.5 M28,8.9l0.1,0.4 M29.4,8.8l0.1,0.5
	 M30.4,8.7v0.5 M31.4,8.7v0.5 M32.7,8.6v0.5 M24.2,9.7l0.2,0.4 M32.5,8.2v0.4 M31.5,8.2v0.4 M30.6,8.2v0.4 M29,8.4v0.4 M27.7,8.5
	l0.1,0.4 M26.8,8.6L26.9,9 M25.7,8.8l0.1,0.4 M24.2,9.2l0.2,0.4 M37.3,8.1l0.5-2.3 M23,9c5.8-1.7,12.2-1.7,18-0.1 M34.3,6.1
	c1.1,0.1,2.3,0.2,3.4,0.4 M34.7,5.1v0.4l0,0c-1.7-0.1-3.4-0.1-5.1,0l0,0V5.1 M26.5,6.4c1.1-0.2,2.3-0.3,3.4-0.4 M26.4,5.9l0.5,2.3
	 M30.1,7.8l-0.2-2.3 M34.3,5.5l-0.1,2.3 M26.4,5.1l0.2,0.7l0,0C25,6.1,23.4,6.6,21.8,7 M37.7,5.1l-0.2,0.7c1.7,0.3,3.3,0.7,4.9,1.2"
	/>
<path class="st11" d="M23.9,11.3c0,2.7,0,5.5,0,8.2c0,2.6,0.2,4.7,1.3,6.3c1.4,1.9,3.7,3.4,6.8,4.7c3-1.4,5.4-2.8,6.8-4.7
	c1.2-1.6,1.3-3.7,1.3-6.3c0-2.7,0-5.5,0-8.2H23.9L23.9,11.3z"/>
<path class="st2" d="M39.9,22.9c0-0.7,0.1-1,0.1-1.7c0.1-1.4,0.1-2.7,0.1-4.1H23.9c0,1.4,0,2.7,0.1,4.1c0,0.7,0.1,1,0.2,1.7H39.9z"
	/>
<path class="st12" d="M23.9,17.1h16.2 M24.1,22.9h15.7"/>
<path class="st13" d="M30,20.9l2-0.8l-0.8,2l0.9-0.6l0.9,0.6l-0.8-2l2,0.8L33.5,20l0.6-0.9l-2,0.8l0.8-2L32,18.5L31.1,18l0.8,2
	l-2-0.8l0.6,0.9L30,20.9z"/>
<path class="st14" d="M19,26.2c0,2.4,0,2.5,0,2.5c1,1,1.2,1.4,1.5,1.7c0.4-0.6,1-0.3,1-0.3c0.1-0.5,0.8-1,0.8-1
	c-0.9-0.1-2.5-0.5-2.7-0.7c-0.4-0.6,0.2-2.5,0.2-2.5L19,26.2z"/>
<path class="st10" d="M19,26.2c0,2.4,0,2.5,0,2.5c1,1,1.2,1.4,1.5,1.7c0.4-0.6,1-0.3,1-0.3c0.1-0.5,0.8-1,0.8-1
	c-0.9-0.1-2.5-0.5-2.7-0.7c-0.4-0.6,0.2-2.5,0.2-2.5L19,26.2z"/>
<path class="st14" d="M21.3,29.9l-1-0.8l1.2,0.7"/>
<path class="st10" d="M21.3,29.9l-1-0.8l1.2,0.7"/>
<path class="st15" d="M19.8,25.1c0,0,1.3-0.5,2.6,0.4c0.1,0,0.2,0,0.3,0c0.3-0.3,0.8-1.1,1.3-1c0-0.7,0-3.4,0-3.4
	c-0.2,0-0.3,0.4-0.3,0.4c0.1,0.8-0.3,5.5-2.2,2.4L20.2,24L19.8,25.1z"/>
<path class="st10" d="M19.8,25.1c0,0,1.3-0.5,2.6,0.4c0.1,0,0.2,0,0.3,0c0.3-0.3,0.8-1.1,1.3-1c0-0.7,0-3.4,0-3.4
	c-0.2,0-0.3,0.4-0.3,0.4c0.1,0.8-0.3,5.5-2.2,2.4L20.2,24L19.8,25.1z"/>
<path class="st14" d="M19.1,14.2c1.1,0.4,1.1,0.6,2.2,1.6c0.9,0.3,2.2,1.2,2.3,1.4l-0.1,0.3c0.2,0.1,0.3-0.3,0.3-0.3
	c-0.2-1-3.2-3.8-3.2-3.8l-1.4,0.3L19.1,14.2z"/>
<path class="st10" d="M19.1,14.2c1.1,0.4,1.1,0.6,2.2,1.6c0.9,0.3,2.2,1.2,2.3,1.4l-0.1,0.3c0.2,0.1,0.3-0.3,0.3-0.3
	c-0.2-1-3.2-3.8-3.2-3.8l-1.4,0.3L19.1,14.2z"/>
<path class="st16" d="M20.1,13.7l3.5,3.2l0.1,0.2"/>
<path class="st16" d="M20.9,14.9c0.3,0.6,1,0.8,1,0.8"/>
<path class="st17" d="M19.5,12.9c0-1.1,1.3-1.9,1.3-2c-0.1-0.8-2.1,1.1-2.2,1.4c-0.1,0.4,0.1,0.8,0.1,0.8"/>
<path class="st17" d="M19.9,11.4c-0.4,0.3-0.7,1.4-0.7,1.4"/>
<path class="st17" d="M18.9,12.9c-0.2-1.1,0.7-2.1,0.6-2.1c-0.5-0.3-1.2,1.1-1.4,1.5l0.3,1.5"/>
<path class="st17" d="M18.6,12c-0.2,0.5,0,1.3,0,1.3"/>
<path class="st17" d="M18.4,13.5c-0.3-0.3,0-2.2-0.1-2.2c-0.6,0-0.9,1.8-0.7,2.2c0.4,1.3,0.7,1.5,0.7,1.5"/>
<path class="st17" d="M17.9,12.8c0,0.6,0.4,1.3,0.4,1.3"/>
<path class="st17" d="M18.3,14.9c-0.7-0.7-0.8-2.5-0.9-2.7c-0.8,0.1-0.4,2.1-0.4,2.1c0,0.1,1,1.3,1,1.3"/>
<path class="st17" d="M17.3,13.4c-0.3,0.5,0.9,2,0.9,2"/>
<path class="st17" d="M19.2,19.2c0,0-0.2-2.6,0.1-3l-1-1.4L17,17.3l1.1,2.1L19.2,19.2z"/>
<path class="st16" d="M19.2,19.2c0,0-0.2-2.6,0.1-3l-1-1.4L17,17.3l1.1,2.1L19.2,19.2z"/>
<path class="st17" d="M18.3,24.8c0.4,0.5,0.6,1.8,0.6,1.8l0.1-0.4c0.1,0,0.1,0.3,0.2,0.3c0,0,0-0.3,0.1-0.3c0,0,0,0.4,0.1,0.4
	s0.1-0.3,0.1-0.3c0.1,0,0.1,0.4,0.1,0.2c-0.1-2.1,4-3.8,4-6.2c0.1-2.4-2.5-3.4-4.1-5.4c0,0-0.4-1.3,0.4-0.7c0.7-0.1,0.6-0.8,0.6-0.8
	h0.4c0.2-1.4-1.3-1.1-1.3-1.1c-1.3,0-1.5,1.4-1.5,1.4c-0.3,1.8,2,3.9,2,3.9c0.3,0.7,0,2,0,2l-3.2,3.1"/>
<path class="st17" d="M16.9,22.8c-0.2,0.2-1.1,1.3-1.3,1.7c-0.3,0.3,0.3,0.3,0.3,0.3s-0.9,1-1.4,1.2c0.1,0.4,1-0.2,1-0.2
	s-0.8,0.5-0.8,0.6c0.3,0.2,1-0.4,1-0.4s-0.2,0.3,0,0.3c0.3,0,0.8-0.5,0.8-0.5s-0.1,0.3,0,0.3c0.2-0.2,1.8-1.4,1.8-1.4"/>
<path class="st16" d="M17.5,22.1c0,0-0.5,0.6-0.1,0.5"/>
<path class="st17" d="M17.4,20.6c-0.4,0.7-0.8,1.9-0.3,2.4c0.2,0.1,0.6-1.7,1-1.8c0.1-0.2,0.3-1,0.3-1"/>
<path class="st17" d="M18,20.5c0.2,0-0.4,0.4-0.6,0.9"/>
<path class="st17" d="M18.1,20.6c-0.3,1.3,0,1.6,0.1,1.6c0.2-0.1,0.5-1.3,0.8-1.4"/>
<path class="st17" d="M16.7,14.4c-1.2-1.1-1.3-2.4-1.5-2.4c-0.6,0,0.2,2.2,0.2,2.2l1.4,1.1"/>
<path class="st17" d="M16.5,14.7c0,0-0.6-0.4-0.9-1"/>
<path class="st17" d="M16.7,15.2c-1.7-1-2-2.5-2.1-2.5c-0.5,0.2,0.1,1.7,0.1,1.7c0.1,0.4,1.5,1.7,1.5,1.7"/>
<path class="st17" d="M16.4,15.7c0,0-0.7-0.6-1.3-1.5"/>
<path class="st17" d="M16.2,15.9c-2.1-1.2-2.1-2.5-2.4-2.4c-0.5,1.3,1.3,2.6,2.6,3.6"/>
<path class="st17" d="M16.3,16.5c0,0-1-0.3-1.5-1.3"/>
<path class="st17" d="M16.4,17.1c-1.8-0.6-2.7-2.3-2.9-2.2c-0.5,0.2,0.6,1.6,0.6,1.6c0.9,0.8,2.4,1.4,2.4,1.4"/>
<path class="st17" d="M16.4,17.3c0,0-1.3-0.2-2-0.9"/>
<path class="st17" d="M16.4,17.8c-2.9-0.9-3-1.9-3.3-1.8c-0.5,0.4,1.1,1.7,1.1,1.7c0.2,0.3,2.3,0.9,2.3,0.9"/>
<path class="st17" d="M16.6,18c0,0-1.5,0-2.1-0.5"/>
<path class="st17" d="M16.5,18.6c-2.8-0.6-3.2-1.4-3.4-1.4c-0.3,0.5,1.3,1.5,1.3,1.5c1,0.6,2.5,0.7,2.5,0.7"/>
<path class="st17" d="M16.8,19c0,0-1,0-1.6-0.3"/>
<path class="st17" d="M16.4,20.5c-0.8,0.7-1.2,2.1-0.8,2.1c0.2,0,0.8-1.6,1.7-1.8l0.6-0.5"/>
<path class="st17" d="M17.5,20.3c0.2,0-1,0.4-1.2,0.9"/>
<path class="st17" d="M16,19.8c-1.1,0.9-1.5,1.9-1.3,1.9c0.3,0.1,1.3-1,1.6-1c0.2,0,1.2-0.6,1.2-0.6"/>
<path class="st17" d="M16.7,19.9c0.2,0-0.8,0.3-1,0.9"/>
<path class="st17" d="M16.8,19.5c-1.2,0.1-3.4-1.2-3.5-1.1c-0.5,0.6,1.8,1.7,2.3,1.6l1.8,0.1"/>
<path class="st17" d="M17.3,19.8c0,0-1.5,0-2.2-0.3"/>
<path class="st17" d="M20.7,19.6c0,0,0-0.7-0.3-0.7c0,0-0.8-0.1-1.6,0.1c-2-1.2-0.4-2.7-0.7-3.2c-0.1-0.8-1.4-2-1.4-2
	c-0.1,0.1,0,0.9-0.1,0.8c-0.3-0.1-0.1,0.5-0.2,0.6c-0.3-0.1-0.2,0.3-0.2,0.6c-0.2,0-0.1,0.4-0.1,0.6c-0.4-0.2,0.1,0.6,0,0.6
	c-0.6-0.1,0.1,0.6,0.1,0.6c-0.4,0.1-0.2,0.4,0.1,0.5c-0.3,0.2,0,0.6,0.1,0.6c-0.3,0.1,0,0.4,0.2,0.5c-0.3,0.2,0.2,0.3,0.4,0.4
	c-0.2,0.3,0,0.3,0.2,0.4c-0.1,0.2,0.2,0.2,0.4,0.2c-0.2,0.2,0.1,0.3,0.3,0.3c0,0,0.1,0.3,0.3,0.2C18.1,21,18.7,21,18.7,21
	c0,0.2,0.8,0.1,0.8,0.1"/>
<path class="st16" d="M16.9,15.6c0,0,0.2,0.4,0.4,0.4"/>
<path class="st16" d="M16.6,14.5c0,0,0.2,0.7,0.4,0.7"/>
<path class="st16" d="M16.4,15.1c0,0,0.1,0.5,0.3,0.5"/>
<path class="st16" d="M16.2,15.7c0,0,0.2,0.4,0.4,0.4"/>
<path class="st16" d="M16.1,16.3c0,0,0.2,0.4,0.4,0.4"/>
<path class="st16" d="M16.1,17c0,0,0.3,0.5,0.5,0.5"/>
<path class="st16" d="M16.2,17.6c0,0,0.3,0.3,0.5,0.3"/>
<path class="st16" d="M16.2,18.1c0,0,0.3,0.3,0.5,0.3"/>
<path class="st16" d="M16.3,18.7c0,0,0.5,0.2,0.7,0.2"/>
<path class="st16" d="M16.5,19.2c0,0,0.5,0,0.7,0"/>
<path class="st16" d="M16.9,19.6c0,0,0.4,0,0.6,0"/>
<path class="st16" d="M17.2,20c0,0,0.4-0.1,0.6,0"/>
<path class="st16" d="M17.5,20.3c0,0,0.4-0.1,0.6,0"/>
<path class="st16" d="M17.8,20.6c0,0,0.4,0,0.6-0.2"/>
<path class="st16" d="M18.2,20.8c0,0,0.2,0,0.4-0.1"/>
<path class="st16" d="M18.6,20.9c0,0,0.1,0,0.4-0.1"/>
<path class="st16" d="M20.5,13.5c-0.3-0.6-0.6-0.5-0.6-0.5c-0.2,0-0.2,0.1-0.4,0.1c-0.2,0-0.2-0.2-0.2-0.2"/>
<path d="M20,13c-0.1,0.3-0.3,0.3-0.3,0.3s0,0.3,0.2,0.3c0.3,0.1,0.4-0.2,0.3-0.5C20.1,13.1,20,13,20,13"/>
<path class="st0" d="M20.2,13.3c0,0,0,0.1-0.1,0.1s-0.1,0-0.2,0l0,0c0,0,0-0.1,0.1-0.1S20.2,13.3,20.2,13.3L20.2,13.3"/>
<path class="st16" d="M16,24.7c-0.1,0.2,0.4,0.2,0.5,0c0,0.3,0.3,0.3,0.5,0.1c0.1,0.2,0.3,0.1,0.4,0c0,0.1,0.2,0.2,0.3,0.2
	c0.2-0.1,0.8-0.9,0.9-1 M15.3,25.9c0,0,0.7-0.7,1.2-1.1 M15.6,26.1c0,0,0.9-0.9,1.4-1.2 M16.5,26c0,0,0.6-0.6,1.1-1 M15.9,24.7
	c0,0,0.7-0.8,1.2-1.2 M16.4,24.7c0,0,0.6-0.7,1.2-1.1 M16.9,24.8c0,0,0.3-0.5,1.1-1.2 M17.3,24.8c0,0,0.3-0.6,0.9-1 M17.3,24.9
	c-0.5,0.5-0.9,0.8-0.9,0.8 M16.6,24.9c-0.5,0.5-1,0.9-1,0.9 M16.2,24.8c-0.5,0.5-0.6,0.5-0.6,0.5 M16.6,23.1
	c-0.1,0.2,0.1,0.5,0.6,0.3c-0.1,0.4,0.1,0.3,0.4,0.1c-0.1,0.3,0.3,0.1,0.4,0c0,0.1,0,0.2,0.2,0.3c0.2,0,0.3-0.5,0.5-0.5 M17.2,23.4
	l0.8-0.8 M16.7,23.5l0.4-0.6 M17.6,23.6l0.5-0.6 M18,23.5l0.3-0.3 M17.2,23.6c-0.1,0.1-0.3,0.3-0.3,0.3 M17.7,23.7
	c-0.2,0.2-0.4,0.4-0.4,0.4 M18.4,23.9c-0.5,0.5-0.4,0.4-0.4,0.4 M18.1,23.7c-0.2,0.2-0.4,0.3-0.4,0.3 M18.6,22.5
	c-0.7,0.8,0.3,0.2,0.3,0.2 M17.7,22.9c0,0-0.4,0.1,0.1-0.5 M18.5,22.1l-0.1,0.2 M18.4,16.5c-0.1,0.3,0.2,0.7,0.2,0.7 M18.1,16.7
	c-0.1,0.3,0.4,0.9,0.4,0.9 M18,17.3c-0.1,0.3,0.5,0.6,0.5,0.6 M18.3,18.2c0,0.3,0.5,0.2,0.5,0.2 M17.6,15.4c0,0,0,0.3,0.2,0.7
	c-0.2,0.2-0.3,0.6-0.3,0.6 M16.9,15.6c0,0,0.2,0.4,0.4,0.4 M16.8,16.1c0,0,0.2,0.4,0.4,0.4 M16.6,16.5c0,0,0.2,0.3,0.4,0.3
	 M16.7,17.1c0,0,0.2,0.3,0.4,0.3 M16.8,17.7c0,0,0.2,0.1,0.4,0.1 M17,18.1c0,0,0,0,0.2,0 M17.2,15.2c0,0,0,0.2,0.2,0.2 M17.4,19
	c0,0,0.2,0,0.2-0.2 M17.1,18.7c0,0,0.4-0.1,0.4-0.3 M17.9,19.5c0,0,0.1-0.5,0-0.7 M18.5,19.9c0,0-0.1-0.6-0.2-0.7 M19.2,20.1
	c-0.2-0.5-0.4-0.8-0.5-0.8 M19.8,20c-0.2-0.5-0.6-0.8-0.7-0.8 M20.5,20.1c-0.2-0.5-0.6-0.8-0.7-0.8 M20,20.8
	c-0.6,0.2-0.8,0.7-0.8,0.7 M19.2,13.8c-0.1,0-0.2,0.1-0.2,0.1 M18.7,14.7c-0.1,0.2,0.1,0.4,0.1,0.4 M18.8,13.3
	c-0.1,0-0.2,0.3-0.2,0.3 M19.6,15.7l0.2,0.3 M19.7,16.5l0.2,0.3 M20.6,17.4l0.3,0.3"/>
<path d="M21.9,18.4c0,0,0.1,0.3,0.2,0.4c0,0,0.1,0,0.2,0s0-0.1,0-0.1C22.2,18.5,21.9,18.4,21.9,18.4 M21.4,18.6V19
	c0,0,0.1,0.1,0.2,0.1s0-0.1,0-0.1C21.6,18.8,21.4,18.6,21.4,18.6 M21.8,19.9v0.4c0,0,0.1,0.1,0.2,0.1s0-0.1,0-0.1
	C22,20.1,21.8,19.9,21.8,19.9 M22.7,20.2L22.7,20.2L22.7,20.2C22.6,20.3,22.6,20.2,22.7,20.2c-0.1,0-0.1-0.2-0.1-0.4l-0.1-0.2l0,0
	l0,0l0,0c0,0,0.2,0.2,0.2,0.3C22.8,19.9,22.7,20.2,22.7,20.2z M20.7,21.3c-0.1,0-0.1,0.2-0.1,0.3c0,0,0,0.1,0.1,0.1s0.1-0.1,0.1-0.1
	C20.8,21.5,20.8,21.3,20.7,21.3 M20.3,24.3c0,0.1-0.1,0.1-0.2,0.1l0,0l0,0c0,0,0-0.1,0.1-0.3c0-0.1,0-0.2,0.1-0.3l0,0l0,0l0,0
	C20.3,23.9,20.3,24.2,20.3,24.3z M19.3,24.5C19.3,24.6,19.3,24.6,19.3,24.5c-0.1,0-0.1,0-0.1,0l0,0v-0.2c0-0.1,0-0.2,0.1-0.3l0,0
	l0,0l0,0C19.3,24.2,19.4,24.5,19.3,24.5z M20.1,23.1L20.1,23.1c-0.1,0-0.1,0-0.1,0l0,0c-0.1,0,0-0.2,0-0.2s0.1-0.2,0.2-0.2l0,0l0,0
	C20.1,22.8,20.2,23,20.1,23.1z M21.3,22c0,0-0.1,0.3-0.1,0.4c0,0,0,0.1,0.1,0.1s0.1-0.1,0.1-0.1C21.5,22.3,21.3,22,21.3,22
	 M20.9,22.9c-0.2,0.1-0.3,0.3-0.3,0.4c0,0,0,0.1,0.1,0.1s0.1-0.1,0.1-0.1C20.9,23.3,21.1,23,20.9,22.9 M19.7,21.6
	c-0.1,0.1-0.1,0.2-0.2,0.3c0,0,0,0.1,0.1,0.2c0.1,0,0.3,0,0.3,0C20,21.9,19.7,21.9,19.7,21.6 M21.3,20.2c-0.1,0.1-0.1,0.1-0.2,0.3
	l0.1,0.2c0.1,0,0.1-0.1,0.1-0.1C21.5,20.5,21.4,20.2,21.3,20.2 M22.4,21c-0.1,0-0.1,0.2-0.1,0.3c0,0,0,0.1,0.1,0.1s0.1-0.1,0.1-0.1
	C22.6,21.1,22.5,21,22.4,21 M21.9,21.5c-0.1,0.3-0.2,0.4-0.2,0.5c0,0,0.1,0,0.2,0s0.1-0.1,0.1-0.1C22.1,21.8,22,21.9,21.9,21.5
	 M19.3,25.2c-0.1,0-0.1,0.2-0.1,0.3c0,0,0,0.1,0.1,0.1s0.1-0.1,0.1-0.1C19.5,25.3,19.5,25.2,19.3,25.2"/>
<path class="st14" d="M45,26.2c0,2.4,0,2.5,0,2.5c-1,1-1.2,1.4-1.5,1.7c-0.4-0.6-1-0.3-1-0.3c-0.1-0.5-0.8-1-0.8-1
	c0.9-0.1,2.5-0.5,2.7-0.7c0.4-0.6-0.2-2.5-0.2-2.5L45,26.2z"/>
<path class="st10" d="M45,26.2c0,2.4,0,2.5,0,2.5c-1,1-1.2,1.4-1.5,1.7c-0.4-0.6-1-0.3-1-0.3c-0.1-0.5-0.8-1-0.8-1
	c0.9-0.1,2.5-0.5,2.7-0.7c0.4-0.6-0.2-2.5-0.2-2.5L45,26.2z"/>
<path class="st14" d="M42.7,29.9l1-0.8l-1.2,0.7"/>
<path class="st10" d="M42.7,29.9l1-0.8l-1.2,0.7"/>
<path class="st15" d="M44.2,25.1c0,0-1.3-0.5-2.6,0.4c-0.1,0-0.2,0-0.3,0c-0.3-0.3-0.8-1.1-1.3-1c0-0.7,0-3.4,0-3.4
	c0.2,0,0.3,0.4,0.3,0.4c-0.1,0.8,0.3,5.5,2.2,2.4l1.3,0.1L44.2,25.1z"/>
<path class="st10" d="M44.2,25.1c0,0-1.3-0.5-2.6,0.4c-0.1,0-0.2,0-0.3,0c-0.3-0.3-0.8-1.1-1.3-1c0-0.7,0-3.4,0-3.4
	c0.2,0,0.3,0.4,0.3,0.4c-0.1,0.8,0.3,5.5,2.2,2.4l1.3,0.1L44.2,25.1z"/>
<path class="st14" d="M44.9,14.2c-1.1,0.4-1.1,0.6-2.2,1.6c-0.9,0.3-2.2,1.2-2.3,1.4l0.1,0.3c-0.2,0.1-0.3-0.3-0.3-0.3
	c0.2-1,3.2-3.8,3.2-3.8l1.4,0.3L44.9,14.2z"/>
<path class="st10" d="M44.9,14.2c-1.1,0.4-1.1,0.6-2.2,1.6c-0.9,0.3-2.2,1.2-2.3,1.4l0.1,0.3c-0.2,0.1-0.3-0.3-0.3-0.3
	c0.2-1,3.2-3.8,3.2-3.8l1.4,0.3L44.9,14.2z"/>
<path class="st16" d="M43.9,13.7l-3.5,3.2l-0.1,0.2"/>
<path class="st16" d="M43.1,14.9c-0.3,0.6-1,0.8-1,0.8"/>
<path class="st17" d="M44.5,12.9c0-1.1-1.3-1.9-1.3-2c0.1-0.8,2.1,1.1,2.2,1.4c0.1,0.4-0.1,0.8-0.1,0.8"/>
<path class="st17" d="M44.1,11.4c0.4,0.3,0.7,1.4,0.7,1.4"/>
<path class="st17" d="M45.1,12.9c0.2-1.1-0.7-2.1-0.6-2.1c0.5-0.3,1.2,1.1,1.4,1.5l-0.3,1.5"/>
<path class="st17" d="M45.4,12c0.2,0.5,0,1.3,0,1.3"/>
<path class="st17" d="M45.6,13.5c0.3-0.3,0-2.2,0.1-2.2c0.6,0,0.9,1.8,0.7,2.2C46,14.8,45.7,15,45.7,15"/>
<path class="st17" d="M46.1,12.8c0,0.6-0.4,1.3-0.4,1.3"/>
<path class="st17" d="M45.7,14.9c0.7-0.7,0.8-2.5,0.9-2.7c0.8,0.1,0.4,2.1,0.4,2.1c0,0.1-1,1.3-1,1.3"/>
<path class="st17" d="M46.7,13.4c0.3,0.5-0.9,2-0.9,2"/>
<path class="st17" d="M44.8,19.2c0,0,0.2-2.6-0.1-3l1-1.4l1.3,2.5l-1.1,2.1L44.8,19.2z"/>
<path class="st16" d="M44.8,19.2c0,0,0.2-2.6-0.1-3l1-1.4l1.3,2.5l-1.1,2.1L44.8,19.2z"/>
<path class="st17" d="M45.7,24.8c-0.4,0.5-0.6,1.8-0.6,1.8L45,26.2c-0.1,0-0.1,0.3-0.2,0.3c0,0,0-0.3-0.1-0.3c0,0,0,0.4-0.1,0.4
	s-0.1-0.3-0.1-0.3c-0.1,0-0.1,0.4-0.1,0.2c0.1-2.1-4-3.8-4-6.2C40.3,18,42.9,17,44.5,15c0,0,0.4-1.3-0.4-0.7
	c-0.7-0.1-0.6-0.8-0.6-0.8h-0.4c-0.2-1.4,1.3-1.1,1.3-1.1c1.3,0,1.5,1.4,1.5,1.4c0.3,1.8-2,3.9-2,3.9c-0.3,0.7,0,2,0,2l3.2,3.1"/>
<path class="st17" d="M47.1,22.8c0.2,0.2,1.1,1.3,1.3,1.7c0.3,0.3-0.3,0.3-0.3,0.3s0.9,1,1.4,1.2c-0.1,0.4-1-0.2-1-0.2
	s0.8,0.5,0.8,0.6c-0.3,0.2-1-0.4-1-0.4s0.2,0.3,0,0.3c-0.3,0-0.8-0.5-0.8-0.5s0.1,0.3,0,0.3c-0.2-0.2-1.8-1.4-1.8-1.4"/>
<path class="st16" d="M46.5,22.1c0,0,0.5,0.6,0.1,0.5"/>
<path class="st17" d="M46.6,20.6c0.4,0.7,0.8,1.9,0.3,2.4c-0.2,0.1-0.6-1.7-1-1.8c-0.1-0.2-0.3-1-0.3-1"/>
<path class="st17" d="M46,20.5c-0.2,0,0.4,0.4,0.6,0.9"/>
<path class="st17" d="M45.9,20.6c0.3,1.3,0,1.6-0.1,1.6c-0.2-0.1-0.5-1.3-0.8-1.4"/>
<path class="st17" d="M47.3,14.4c1.2-1.1,1.3-2.4,1.5-2.4c0.6,0-0.2,2.2-0.2,2.2l-1.4,1.1"/>
<path class="st17" d="M47.5,14.7c0,0,0.6-0.4,0.9-1"/>
<path class="st17" d="M47.3,15.2c1.7-1,2-2.5,2.1-2.5c0.5,0.2-0.1,1.7-0.1,1.7c-0.1,0.4-1.5,1.7-1.5,1.7"/>
<path class="st17" d="M47.6,15.7c0,0,0.7-0.6,1.3-1.5"/>
<path class="st17" d="M47.8,15.9c2.1-1.2,2.1-2.5,2.4-2.4c0.5,1.3-1.3,2.6-2.6,3.6"/>
<path class="st17" d="M47.7,16.5c0,0,1-0.3,1.5-1.3"/>
<path class="st17" d="M47.6,17.1c1.8-0.6,2.7-2.3,2.9-2.2c0.5,0.2-0.6,1.6-0.6,1.6c-0.9,0.8-2.4,1.4-2.4,1.4"/>
<path class="st17" d="M47.6,17.3c0,0,1.3-0.2,2-0.9"/>
<path class="st17" d="M47.6,17.8c2.9-0.9,3-1.9,3.3-1.8c0.5,0.4-1.1,1.7-1.1,1.7c-0.2,0.3-2.3,0.9-2.3,0.9"/>
<path class="st17" d="M47.4,18c0,0,1.5,0,2.1-0.5"/>
<path class="st17" d="M47.5,18.6c2.8-0.6,3.2-1.4,3.4-1.4c0.3,0.5-1.3,1.5-1.3,1.5c-1,0.6-2.5,0.7-2.5,0.7"/>
<path class="st17" d="M47.2,19c0,0,1,0,1.6-0.3"/>
<path class="st17" d="M47.6,20.5c0.8,0.7,1.2,2.1,0.8,2.1c-0.2,0-0.8-1.6-1.7-1.8l-0.6-0.5"/>
<path class="st17" d="M46.5,20.3c-0.2,0,1,0.4,1.2,0.9"/>
<path class="st17" d="M48,19.8c1.1,0.9,1.5,1.9,1.3,1.9c-0.3,0.1-1.3-1-1.6-1c-0.2,0-1.2-0.6-1.2-0.6"/>
<path class="st17" d="M47.3,19.9c-0.2,0,0.8,0.3,1,0.9"/>
<path class="st17" d="M47.2,19.5c1.2,0.1,3.4-1.2,3.5-1.1c0.5,0.6-1.8,1.7-2.3,1.6l-1.8,0.1"/>
<path class="st17" d="M46.7,19.8c0,0,1.5,0,2.2-0.3"/>
<path class="st17" d="M43.3,19.6c0,0,0-0.7,0.3-0.7c0,0,0.8-0.1,1.6,0.1c2-1.2,0.4-2.7,0.7-3.2c0.1-0.8,1.4-2,1.4-2
	c0.1,0.1,0,0.9,0.1,0.8c0.3-0.1,0.1,0.5,0.2,0.6c0.3-0.1,0.2,0.3,0.2,0.6c0.2,0,0.1,0.4,0.1,0.6c0.4-0.2-0.1,0.6,0,0.6
	c0.6-0.1-0.1,0.6-0.1,0.6c0.4,0.1,0.2,0.4-0.1,0.5c0.3,0.2,0,0.6-0.1,0.6c0.3,0.1,0,0.4-0.2,0.5c0.3,0.2-0.2,0.3-0.4,0.4
	c0.2,0.3,0,0.3-0.2,0.4c0.1,0.2-0.2,0.2-0.4,0.2c0.2,0.2-0.1,0.3-0.3,0.3c0,0-0.1,0.3-0.3,0.2c0.1,0.2-0.5,0.2-0.5,0.2
	c0,0.2-0.8,0.1-0.8,0.1"/>
<path class="st16" d="M47.1,15.6c0,0-0.2,0.4-0.4,0.4"/>
<path class="st16" d="M47.4,14.5c0,0-0.2,0.7-0.4,0.7"/>
<path class="st16" d="M47.6,15.1c0,0-0.1,0.5-0.3,0.5"/>
<path class="st16" d="M47.8,15.7c0,0-0.2,0.4-0.4,0.4"/>
<path class="st16" d="M47.9,16.3c0,0-0.2,0.4-0.4,0.4"/>
<path class="st16" d="M47.9,17c0,0-0.3,0.5-0.5,0.5"/>
<path class="st16" d="M47.8,17.6c0,0-0.3,0.3-0.5,0.3"/>
<path class="st16" d="M47.8,18.1c0,0-0.3,0.3-0.5,0.3"/>
<path class="st16" d="M47.7,18.7c0,0-0.5,0.2-0.7,0.2"/>
<path class="st16" d="M47.5,19.2c0,0-0.5,0-0.7,0"/>
<path class="st16" d="M47.1,19.6c0,0-0.4,0-0.6,0"/>
<path class="st16" d="M46.8,20c0,0-0.4-0.1-0.6,0"/>
<path class="st16" d="M46.5,20.3c0,0-0.4-0.1-0.6,0"/>
<path class="st16" d="M46.2,20.6c0,0-0.4,0-0.6-0.2"/>
<path class="st16" d="M45.8,20.8c0,0-0.2,0-0.4-0.1"/>
<path class="st16" d="M45.4,20.9c0,0-0.1,0-0.4-0.1"/>
<path class="st16" d="M43.5,13.5c0.3-0.6,0.6-0.5,0.6-0.5c0.2,0,0.2,0.1,0.4,0.1s0.2-0.2,0.2-0.2"/>
<path d="M44,13c0.1,0.3,0.3,0.3,0.3,0.3s0,0.3-0.2,0.3c-0.3,0.1-0.4-0.2-0.3-0.5C43.9,13.1,44,13,44,13"/>
<path class="st0" d="M43.8,13.3c0,0,0,0.1,0.1,0.1s0.1,0,0.2,0l0,0c0,0,0-0.1-0.1-0.1S43.8,13.3,43.8,13.3L43.8,13.3"/>
<path class="st16" d="M48,24.7c0.1,0.2-0.4,0.2-0.5,0c0,0.3-0.3,0.3-0.5,0.1c-0.1,0.2-0.3,0.1-0.4,0c0,0.1-0.2,0.2-0.3,0.2
	c-0.2-0.1-0.8-0.9-0.9-1 M48.7,25.9c0,0-0.7-0.7-1.2-1.1 M48.4,26.1c0,0-0.9-0.9-1.4-1.2 M47.5,26c0,0-0.6-0.6-1.1-1 M48.1,24.7
	c0,0-0.7-0.8-1.2-1.2 M47.6,24.7c0,0-0.6-0.7-1.2-1.1 M47.1,24.8c0,0-0.3-0.5-1.1-1.2 M46.7,24.8c0,0-0.3-0.6-0.9-1 M46.7,24.9
	c0.5,0.5,0.9,0.8,0.9,0.8 M47.4,24.9c0.5,0.5,1,0.9,1,0.9 M47.8,24.8c0.5,0.5,0.6,0.5,0.6,0.5 M47.4,23.1c0.1,0.2-0.1,0.5-0.6,0.3
	c0.1,0.4-0.1,0.3-0.4,0.1c0.1,0.3-0.3,0.1-0.4,0c0,0.1,0,0.2-0.2,0.3c-0.2,0-0.3-0.5-0.5-0.5 M46.8,23.4L46,22.6 M47.3,23.5
	l-0.4-0.6 M46.4,23.6L45.9,23 M46,23.5l-0.3-0.3 M46.8,23.6c0.1,0.1,0.3,0.3,0.3,0.3 M46.3,23.7c0.2,0.2,0.4,0.4,0.4,0.4 M45.6,23.9
	c0.5,0.5,0.4,0.4,0.4,0.4 M45.9,23.7c0.2,0.2,0.4,0.3,0.4,0.3 M45.4,22.5c0.7,0.8-0.3,0.2-0.3,0.2 M46.3,22.9c0,0,0.4,0.1-0.1-0.5
	 M45.5,22.1l0.1,0.2 M45.6,16.5c0.1,0.3-0.2,0.7-0.2,0.7 M45.9,16.7c0.1,0.3-0.4,0.9-0.4,0.9 M46,17.3c0.1,0.3-0.5,0.6-0.5,0.6
	 M45.7,18.2c0,0.3-0.5,0.2-0.5,0.2 M46.4,15.4c0,0,0,0.3-0.2,0.7c0.2,0.2,0.3,0.6,0.3,0.6 M47.1,15.6c0,0-0.2,0.4-0.4,0.4
	 M47.2,16.1c0,0-0.2,0.4-0.4,0.4 M47.4,16.5c0,0-0.2,0.3-0.4,0.3 M47.3,17.1c0,0-0.2,0.3-0.4,0.3 M47.2,17.7c0,0-0.2,0.1-0.4,0.1
	 M47,18.1c0,0,0,0-0.2,0 M46.8,15.2c0,0,0,0.2-0.2,0.2 M46.6,19c0,0-0.2,0-0.2-0.2 M46.9,18.7c0,0-0.4-0.1-0.4-0.3 M46.1,19.5
	c0,0-0.1-0.5,0-0.7 M45.5,19.9c0,0,0.1-0.6,0.2-0.7 M44.8,20.1c0.2-0.5,0.4-0.8,0.5-0.8 M44.2,20c0.2-0.5,0.6-0.8,0.7-0.8
	 M43.5,20.1c0.2-0.5,0.6-0.8,0.7-0.8 M44,20.8c0.6,0.2,0.8,0.7,0.8,0.7 M44.8,13.8c0.1,0,0.2,0.1,0.2,0.1 M45.3,14.7
	c0.1,0.2-0.1,0.4-0.1,0.4 M45.2,13.3c0.1,0,0.2,0.3,0.2,0.3 M44.4,15.7L44.2,16 M44.3,16.5l-0.2,0.3 M43.4,17.4l-0.3,0.3"/>
<path d="M42.1,18.4c0,0-0.1,0.3-0.2,0.4c0,0-0.1,0-0.2,0c-0.1,0,0-0.1,0-0.1C41.8,18.5,42.1,18.4,42.1,18.4 M42.6,18.6V19
	c0,0-0.1,0.1-0.2,0.1c-0.1,0,0-0.1,0-0.1C42.4,18.8,42.6,18.6,42.6,18.6 M42.2,19.9v0.4c0,0-0.1,0.1-0.2,0.1c-0.1,0,0-0.1,0-0.1
	C42,20.1,42.2,19.9,42.2,19.9 M41.3,20.2L41.3,20.2L41.3,20.2C41.4,20.3,41.4,20.2,41.3,20.2c0.1,0,0.1-0.2,0.1-0.4l0.1-0.2l0,0l0,0
	l0,0c0,0-0.2,0.2-0.2,0.3C41.2,19.9,41.3,20.2,41.3,20.2z M43.3,21.3c0.1,0,0.1,0.2,0.1,0.3c0,0,0,0.1-0.1,0.1s-0.1-0.1-0.1-0.1
	C43.2,21.5,43.2,21.3,43.3,21.3 M43.7,24.3c0,0.1,0.1,0.1,0.2,0.1l0,0l0,0c0,0,0-0.1-0.1-0.3c0-0.1,0-0.2-0.1-0.3l0,0l0,0l0,0
	C43.7,23.9,43.7,24.2,43.7,24.3z M44.7,24.5C44.7,24.6,44.7,24.6,44.7,24.5C44.8,24.5,44.8,24.5,44.7,24.5L44.7,24.5l0.1-0.2
	c0-0.1,0-0.2-0.1-0.3l0,0l0,0l0,0C44.7,24.2,44.6,24.5,44.7,24.5z M43.9,23.1L43.9,23.1C44,23.1,44,23.1,43.9,23.1L43.9,23.1
	c0.2,0,0.1-0.2,0.1-0.2s-0.1-0.2-0.2-0.2l0,0l0,0C43.9,22.8,43.8,23,43.9,23.1z M42.7,22c0,0,0.1,0.3,0.1,0.4c0,0,0,0.1-0.1,0.1
	s-0.1-0.1-0.1-0.1C42.5,22.3,42.7,22,42.7,22 M43.1,22.9c0.2,0.1,0.3,0.3,0.3,0.4c0,0,0,0.1-0.1,0.1s-0.1-0.1-0.1-0.1
	C43.1,23.3,42.9,23,43.1,22.9 M44.3,21.6c0.1,0.1,0.1,0.2,0.2,0.3c0,0,0,0.1-0.1,0.2c-0.1,0-0.3,0-0.3,0
	C44,21.9,44.3,21.9,44.3,21.6 M42.7,20.2c0.1,0.1,0.1,0.1,0.2,0.3l-0.1,0.2c-0.1,0-0.1-0.1-0.1-0.1C42.5,20.5,42.6,20.2,42.7,20.2
	 M41.6,21c0.1,0,0.1,0.2,0.1,0.3c0,0,0,0.1-0.1,0.1s-0.1-0.1-0.1-0.1C41.4,21.1,41.5,21,41.6,21 M42.1,21.5c0.1,0.3,0.2,0.4,0.2,0.5
	c0,0-0.1,0-0.2,0C42,22,42,21.9,42,21.9C41.9,21.8,42,21.9,42.1,21.5 M44.7,25.2c0.1,0,0.1,0.2,0.1,0.3c0,0,0,0.1-0.1,0.1
	s-0.1-0.1-0.1-0.1C44.5,25.3,44.5,25.2,44.7,25.2"/>
<path class="st18" d="M31.6,15c0-0.2,0-0.5-0.1-0.7c0-0.1-0.1-0.1-0.2-0.1s-0.1,0-0.2,0.1v0.2c0,0.1,0.1,0.2,0.1,0.2
	s-0.3-0.1-0.4-0.1c-0.1-0.1-0.2-0.2-0.3-0.4c0,0-0.1-0.2,0-0.4c0-0.1,0.1-0.2,0.2-0.3c0.2-0.2,0.6-0.1,0.7-0.1
	c0.1,0.1,0.2,0.2,0.3,0.3c0,0.1,0.1,0.4,0.1,0.4c0,0.2,0,0.3,0.1,0.5c0,0.1,0,0.3,0,0.4c0,0.1,0,0.2-0.1,0.3c0,0.1-0.1,0.2-0.2,0.2
	c-0.1,0.1-0.5,0.1-0.5,0.1s0.2-0.2,0.2-0.4C31.5,15.3,31.6,15.2,31.6,15"/>
<path class="st18" d="M32.4,15c0-0.2,0-0.5,0.1-0.7c0-0.1,0.1-0.1,0.2-0.1c0.1,0,0.1,0,0.2,0.1v0.2c0,0.1-0.1,0.2-0.1,0.2
	s0.3-0.1,0.4-0.1c0.1-0.1,0.2-0.2,0.3-0.4c0,0,0.1-0.2,0-0.4c0-0.1-0.1-0.2-0.2-0.3c-0.2-0.2-0.6-0.1-0.7-0.1
	c-0.1,0.1-0.2,0.2-0.3,0.3c0,0.1-0.1,0.4-0.1,0.4c0,0.2,0,0.3-0.1,0.5c0,0.1,0,0.3,0,0.4c0,0.1,0,0.2,0.1,0.3c0,0.1,0.1,0.2,0.2,0.2
	c0.1,0.1,0.5,0.1,0.5,0.1s-0.2-0.2-0.2-0.4C32.5,15.3,32.5,15.2,32.4,15"/>
<path class="st18" d="M32,16.4c0,0,0.3-0.2,0.3-0.5c0-0.2-0.1-0.5-0.2-0.6c-0.1-0.5,0.1-1.1,0.1-1.1c0-0.2,0.1-0.3,0.1-0.3
	s0.1-0.1,0.1-0.2c0-0.1,0.1-0.1,0.1-0.2c0-0.1,0-0.2,0-0.3s0-0.2,0-0.3s-0.1-0.2-0.2-0.3c-0.1-0.1-0.2-0.1-0.3-0.2
	c0.1-0.1,0-0.4,0-0.4s-0.1,0.3-0.2,0.3c0,0-0.1,0.1-0.2,0.2c-0.1,0.1-0.2,0.2-0.2,0.3s0,0.2,0,0.3s0,0.2,0,0.3s0.1,0.2,0.1,0.2
	c0.1,0.1,0.1,0.2,0.1,0.2c0,0.1,0.1,0.1,0.1,0.3c0,0,0.1,0.7,0.1,1.1c0,0.1-0.2,0.4-0.2,0.6C31.7,16.1,32,16.4,32,16.4"/>
<path class="st18" d="M32.6,14.9l-0.1-0.2h-1l-0.1,0.2l0.1,0.2h1L32.6,14.9z"/>
<path class="st18" d="M26.3,15c0-0.2,0-0.5-0.1-0.7c0-0.1-0.1-0.1-0.2-0.1s-0.1,0-0.2,0.1v0.2c0,0.1,0.1,0.2,0.1,0.2
	s-0.3-0.1-0.4-0.1c-0.1-0.1-0.2-0.2-0.3-0.4c0,0-0.1-0.2,0-0.4c0-0.1,0.1-0.2,0.2-0.3c0.2-0.2,0.6-0.1,0.7-0.1
	c0.1,0.1,0.2,0.2,0.3,0.3c0,0.1,0.1,0.4,0.1,0.4c0,0.2,0,0.3,0.1,0.5c0,0.1,0,0.3,0,0.4c0,0.1,0,0.2-0.1,0.3c0,0.1-0.1,0.2-0.2,0.2
	c-0.1,0.1-0.5,0.1-0.5,0.1s0.2-0.2,0.2-0.4C26.2,15.3,26.3,15.2,26.3,15"/>
<path class="st18" d="M27.1,15c0-0.2,0-0.5,0.1-0.7c0-0.1,0.1-0.1,0.2-0.1s0.1,0,0.2,0.1v0.2c0,0.1-0.1,0.2-0.1,0.2s0.3-0.1,0.4-0.1
	c0.1-0.1,0.2-0.2,0.3-0.4c0,0,0.1-0.2,0-0.4c0-0.1-0.1-0.2-0.2-0.3c-0.2-0.2-0.6-0.1-0.7-0.1c-0.1,0.1-0.2,0.2-0.3,0.3
	c0,0.1-0.1,0.4-0.1,0.4c0,0.2,0,0.3-0.1,0.5c0,0.1,0,0.3,0,0.4c0,0.1,0,0.2,0.1,0.3c0,0.1,0.1,0.2,0.2,0.2c0.1,0.1,0.5,0.1,0.5,0.1
	s-0.2-0.2-0.2-0.4C27.2,15.3,27.2,15.2,27.1,15"/>
<path class="st18" d="M26.7,16.4c0,0,0.3-0.2,0.3-0.5c0-0.2-0.1-0.5-0.2-0.6c-0.1-0.5,0.1-1.1,0.1-1.1c0-0.2,0.1-0.3,0.1-0.3
	s0.1-0.1,0.1-0.2c0-0.1,0.1-0.1,0.1-0.2c0-0.1,0-0.2,0-0.3s0-0.2,0-0.3s-0.1-0.2-0.2-0.3s-0.2-0.1-0.3-0.2c-0.1-0.1-0.2-0.3-0.2-0.3
	s-0.1,0.3-0.2,0.3c0,0-0.1,0.1-0.2,0.2c-0.1,0.1-0.2,0.2-0.2,0.3s0,0.2,0,0.3s0,0.2,0,0.3s0.1,0.2,0.1,0.2c0.1,0.1,0.1,0.2,0.1,0.2
	c0,0.1,0.1,0.1,0.1,0.3c0,0,0.1,0.7,0.1,1.1c0,0.1-0.2,0.4-0.2,0.6C26.4,16.1,26.7,16.4,26.7,16.4"/>
<path class="st18" d="M27.3,14.9l-0.1-0.2h-1l-0.1,0.2l0.1,0.2h1L27.3,14.9z"/>
<path class="st18" d="M36.9,15c0-0.2,0-0.5-0.1-0.7c0-0.1-0.1-0.1-0.2-0.1c-0.1,0-0.1,0-0.2,0.1v0.2c0,0.1,0.1,0.2,0.1,0.2
	s-0.3-0.1-0.4-0.1c-0.1-0.1-0.2-0.2-0.3-0.4c0,0-0.1-0.2,0-0.4c0-0.1,0.1-0.2,0.2-0.3c0.2-0.2,0.6-0.1,0.7-0.1
	c0.1,0.1,0.2,0.2,0.3,0.3c0,0.1,0.1,0.4,0.1,0.4c0,0.2,0,0.3,0.1,0.5c0,0.1,0,0.3,0,0.4c0,0.1,0,0.2-0.1,0.3c0,0.1-0.1,0.2-0.2,0.2
	c-0.1,0.1-0.5,0.1-0.5,0.1s0.2-0.2,0.2-0.4C36.8,15.3,36.9,15.2,36.9,15"/>
<path class="st18" d="M37.7,15c0-0.2,0-0.5,0.1-0.7c0-0.1,0.1-0.1,0.2-0.1c0.1,0,0.1,0,0.2,0.1v0.2c0,0.1-0.1,0.2-0.1,0.2
	s0.3-0.1,0.4-0.1c0.1-0.1,0.2-0.2,0.3-0.4c0,0,0.1-0.2,0-0.4c0-0.1-0.1-0.2-0.2-0.3c-0.2-0.2-0.6-0.1-0.7-0.1
	c-0.1,0.1-0.2,0.2-0.3,0.3c0,0.1-0.1,0.4-0.1,0.4c0,0.2,0,0.3-0.1,0.5c0,0.1,0,0.3,0,0.4c0,0.1,0,0.2,0.1,0.3c0,0.1,0.1,0.2,0.2,0.2
	c0.1,0.1,0.5,0.1,0.5,0.1S38,15.4,38,15.2C37.8,15.3,37.8,15.2,37.7,15"/>
<path class="st18" d="M37.3,16.4c0,0,0.3-0.2,0.3-0.5c0-0.2-0.1-0.5-0.2-0.6c-0.1-0.5,0.1-1.1,0.1-1.1c0-0.2,0.1-0.3,0.1-0.3
	s0.1-0.1,0.1-0.2c0-0.1,0.1-0.1,0.1-0.2c0-0.1,0-0.2,0-0.3s0-0.2,0-0.3s-0.1-0.2-0.2-0.3c-0.1-0.1-0.2-0.1-0.3-0.2
	c-0.1-0.1-0.2-0.3-0.2-0.3s-0.1,0.3-0.2,0.3c0,0-0.1,0.1-0.2,0.2c-0.1,0.1-0.2,0.2-0.2,0.3s0,0.2,0,0.3s0,0.2,0,0.3s0.1,0.2,0.1,0.2
	c0.1,0.1,0.1,0.2,0.1,0.2c0,0.1,0.1,0.1,0.1,0.3c0,0,0.1,0.7,0.1,1.1c0,0.1-0.2,0.4-0.2,0.6C37,16.1,37.3,16.4,37.3,16.4"/>
<path class="st18" d="M37.9,14.9l-0.1-0.2h-1l-0.1,0.2l0.1,0.2h1L37.9,14.9z"/>
<path class="st19" d="M30.5,28.7h3v0.7h-3V28.7z M30.5,28.6c0-0.7-0.1-1.3-0.4-1.9h0.1c0.2,0,0.4,0.2,0.4,0.4c0,0.1,0,0.1,0,0.1
	s0.1,0,0.2,0c0.2,0,0.4,0.2,0.4,0.4c0,0.2-0.2,0.4-0.4,0.4h-0.1c0,0.3,0.2,0.5,0.3,0.5c0.1,0,0.2-0.1,0.3-0.3
	c0.1,0.2,0.2,0.3,0.3,0.3c0.2,0,0.3-0.2,0.3-0.5c-0.1,0-0.1,0.1-0.2,0.1c-0.2,0-0.4-0.2-0.4-0.4c0-0.2,0.2-0.4,0.4-0.4
	c0-0.1-0.1-0.1-0.1-0.2c0-0.2,0.2-0.4,0.4-0.4c0.2,0,0.4,0.2,0.4,0.4c0,0.1,0,0.1-0.1,0.2c0.2,0,0.4,0.2,0.4,0.4
	c0,0.2-0.2,0.4-0.4,0.4c-0.1,0-0.2,0-0.2-0.1c0,0.3,0.2,0.5,0.3,0.5s0.2-0.1,0.3-0.3c0.1,0.2,0.2,0.3,0.3,0.3c0.2,0,0.3-0.2,0.3-0.5
	h-0.1c-0.2,0-0.4-0.2-0.4-0.4c0-0.2,0.2-0.4,0.4-0.4c0.1,0,0.1,0,0.2,0v-0.1c0-0.2,0.2-0.4,0.4-0.4h0.1c-0.3,0.6-0.4,1.2-0.4,1.9
	H30.5L30.5,28.6z"/>
<path class="st20" d="M32.1,27.5l0.4-0.1l-0.4-0.1L32,27l-0.1,0.4l-0.4,0.1l0.4,0.1h0.2V27.5z"/>
<path class="st20" d="M30.5,28.8L30.5,28.8C30.6,28.8,30.6,28.8,30.5,28.8l0.1,0.2l0,0l0,0l-0.1,0.2c0,0,0,0-0.1,0L30.5,28.8
	L30.5,28.8z"/>
<path class="st20" d="M30.6,27.6l0.4-0.1h-0.4l-0.1-0.4L30.6,27.6L30.6,27.6z"/>
<path class="st20" d="M30.4,27.4L30.4,27.4L30.4,27.4C30.5,27.4,30.5,27.4,30.4,27.4C30.5,27.4,30.5,27.4,30.4,27.4L30.4,27.4
	L30.4,27.4C30.5,27.4,30.5,27.4,30.4,27.4L30.4,27.4C30.5,27.4,30.5,27.5,30.4,27.4L30.4,27.4c0.1,0.1,0.1,0.1,0.1,0.2l0,0l0,0l0,0
	c0,0,0,0,0,0.1l0,0l0,0l0,0l0,0l0,0l0,0l0,0l0,0l0,0l0,0l0,0l0,0l0,0C30.5,27.6,30.5,27.5,30.4,27.4L30.4,27.4L30.4,27.4L30.4,27.4
	L30.4,27.4L30.4,27.4z"/>
<path class="st21" d="M31.7,29l0.3-0.2l0.3,0.2L32,29.2L31.7,29z"/>
<path class="st22" d="M31.7,29l0.3-0.2l0.3,0.2L32,29.2L31.7,29z"/>
<path class="st21" d="M31.7,29l0.3-0.2l0.3,0.2L32,29.2L31.7,29z"/>
<path class="st23" d="M32.3,29L32,29.2l0,0V29H32.3z"/>
<path class="st24" d="M32,29v0.2L31.7,29H32z"/>
<path class="st25" d="M32,28.9V29l0,0h0.3l0,0L32,28.9L32,28.9z"/>
<path class="st26" d="M30.4,29l0.2-0.2l0.1,0.2l-0.1,0.2L30.4,29z"/>
<path class="st27" d="M30.4,29h0.2l-0.1,0.2L30.4,29z"/>
<path class="st28" d="M30.4,27.5L30.4,27.5c0.1,0,0.1,0.1,0.1,0.1v0.1c0,0,0,0-0.1,0s-0.1-0.1-0.1-0.1
	C30.3,27.5,30.4,27.5,30.4,27.5"/>
<path class="st29" d="M30.4,27.5L30.4,27.5c0.1,0,0.1,0.1,0.1,0.1v0.1c0,0,0,0-0.1,0s-0.1-0.1-0.1-0.1
	C30.3,27.5,30.4,27.5,30.4,27.5z"/>
<path class="st0" d="M30.4,27.5L30.4,27.5c0.1,0.1,0,0.1,0,0.1C30.3,27.6,30.3,27.6,30.4,27.5C30.3,27.5,30.3,27.5,30.4,27.5"/>
<path class="st20" d="M33.5,27.6l-0.4-0.1h0.4l0.1-0.4L33.5,27.6L33.5,27.6z"/>
<path class="st20" d="M33.6,27.4L33.6,27.4L33.6,27.4L33.6,27.4L33.6,27.4L33.6,27.4L33.6,27.4C33.5,27.4,33.5,27.4,33.6,27.4
	L33.6,27.4C33.5,27.4,33.5,27.5,33.6,27.4L33.6,27.4c-0.1,0.1-0.1,0.1-0.1,0.2l0,0l0,0l0,0c0,0,0,0,0,0.1l0,0l0,0l0,0l0,0l0,0l0,0
	l0,0l0,0l0,0l0,0l0,0l0,0C33.5,27.6,33.6,27.5,33.6,27.4L33.6,27.4L33.6,27.4L33.6,27.4L33.6,27.4L33.6,27.4z"/>
<path class="st28" d="M33.6,27.5L33.6,27.5c-0.1,0-0.1,0.1-0.1,0.1v0.1c0,0,0,0,0.1,0s0.1-0.1,0.1-0.1
	C33.7,27.5,33.7,27.5,33.6,27.5"/>
<path class="st29" d="M33.6,27.5L33.6,27.5c-0.1,0-0.1,0.1-0.1,0.1v0.1c0,0,0,0,0.1,0s0.1-0.1,0.1-0.1
	C33.7,27.5,33.7,27.5,33.6,27.5z"/>
<path class="st0" d="M33.6,27.5L33.6,27.5c-0.1,0.1,0,0.1,0,0.1S33.7,27.6,33.6,27.5C33.7,27.5,33.6,27.5,33.6,27.5"/>
<path class="st20" d="M33.5,28.8L33.5,28.8L33.5,28.8L33.4,29l0,0l0,0l0.1,0.2c0,0,0,0,0.1,0C33.5,29.3,33.5,28.8,33.5,28.8z"/>
<path class="st25" d="M33.7,29l-0.2-0.2L33.4,29l0.1,0.2L33.7,29z"/>
<path class="st23" d="M33.7,29h-0.2l0.1,0.2L33.7,29z"/>
<circle class="st30" cx="32" cy="27.4" r="0.1"/>
<circle class="st0" cx="32" cy="27.4" r="0.1"/>
<circle class="st30" cx="31.3" cy="28.9" r="0.1"/>
<circle class="st0" cx="31.3" cy="28.9" r="0"/>
<circle class="st30" cx="31.3" cy="29.2" r="0.1"/>
<circle class="st0" cx="31.3" cy="29.2" r="0"/>
<circle class="st30" cx="32.7" cy="28.9" r="0.1"/>
<circle class="st0" cx="32.7" cy="28.9" r="0"/>
<circle class="st30" cx="32.7" cy="29.2" r="0.1"/>
<circle class="st0" cx="32.7" cy="29.2" r="0"/>
<path class="st19" d="M27.5,25.3h3V26h-3V25.3z M27.5,25.2c0-0.7-0.1-1.3-0.4-1.9h0.1c0.2,0,0.4,0.2,0.4,0.4c0,0.1,0,0.1,0,0.1
	s0.1,0,0.2,0c0.2,0,0.4,0.2,0.4,0.4c0,0.2-0.2,0.4-0.4,0.4h-0.1c0,0.3,0.2,0.5,0.3,0.5c0.1,0,0.2-0.1,0.3-0.3
	c0.1,0.2,0.2,0.3,0.3,0.3c0.2,0,0.3-0.2,0.3-0.5c-0.1,0-0.1,0.1-0.2,0.1c-0.2,0-0.4-0.2-0.4-0.4c0-0.2,0.2-0.4,0.4-0.4
	c0-0.1-0.1-0.1-0.1-0.2c0-0.2,0.2-0.4,0.4-0.4s0.4,0.2,0.4,0.4c0,0.1,0,0.1-0.1,0.2c0.2,0,0.4,0.2,0.4,0.4c0,0.2-0.2,0.4-0.4,0.4
	c-0.1,0-0.2,0-0.2-0.1c0,0.3,0.2,0.5,0.3,0.5c0.1,0,0.2-0.1,0.3-0.3c0.1,0.2,0.2,0.3,0.3,0.3c0.2,0,0.3-0.2,0.3-0.5h-0.1
	c-0.2,0-0.4-0.2-0.4-0.4c0-0.2,0.2-0.4,0.4-0.4c0.1,0,0.1,0,0.2,0v-0.1c0-0.2,0.2-0.4,0.4-0.4h0.1c-0.3,0.6-0.4,1.2-0.4,1.9H27.5
	L27.5,25.2z"/>
<path class="st20" d="M29.1,24.1l0.4-0.1h-0.4L29,23.6V24l-0.4,0.1l0.4,0.1h0.1V24.1z"/>
<path class="st20" d="M27.5,25.5C27.5,25.5,27.6,25.5,27.5,25.5C27.6,25.5,27.6,25.5,27.5,25.5l0.1,0.2l0,0l0,0l-0.1,0.2
	c0,0,0,0-0.1,0L27.5,25.5L27.5,25.5z"/>
<path class="st20" d="M27.6,24.3l0.4-0.1h-0.4l-0.1-0.4L27.6,24.3L27.6,24.3z"/>
<path class="st20" d="M27.4,24.1L27.4,24.1L27.4,24.1C27.5,24.1,27.5,24.1,27.4,24.1C27.5,24.1,27.5,24.1,27.4,24.1L27.4,24.1
	L27.4,24.1C27.5,24.1,27.5,24.1,27.4,24.1L27.4,24.1C27.5,24.1,27.5,24.1,27.4,24.1L27.4,24.1c0.1,0.1,0.1,0.1,0.1,0.2l0,0l0,0l0,0
	c0,0,0,0,0,0.1l0,0l0,0l0,0l0,0l0,0l0,0l0,0l0,0l0,0l0,0l0,0l0,0l0,0C27.5,24.3,27.5,24.2,27.4,24.1L27.4,24.1L27.4,24.1L27.4,24.1
	L27.4,24.1L27.4,24.1z"/>
<path class="st21" d="M28.7,25.7l0.3-0.2l0.3,0.2L29,25.8L28.7,25.7z"/>
<path class="st22" d="M28.7,25.7l0.3-0.2l0.3,0.2L29,25.8L28.7,25.7z"/>
<path class="st21" d="M28.7,25.7l0.3-0.2l0.3,0.2L29,25.8L28.7,25.7z"/>
<path class="st23" d="M29.3,25.7L29,25.8l0,0v-0.2h0.3V25.7z"/>
<path class="st24" d="M29,25.7v0.2l-0.3-0.2H29z"/>
<path class="st25" d="M29,25.5v0.1l0,0h0.3l0,0L29,25.5L29,25.5z"/>
<path class="st26" d="M27.4,25.7l0.2-0.2l0.1,0.2l-0.1,0.2L27.4,25.7z"/>
<path class="st27" d="M27.4,25.7h0.2l-0.1,0.2L27.4,25.7z"/>
<path class="st28" d="M27.4,24.1C27.4,24.1,27.5,24.1,27.4,24.1c0.1,0,0.1,0.1,0.1,0.1v0.1c0,0,0,0-0.1,0s-0.1-0.1-0.1-0.1
	L27.4,24.1"/>
<path class="st29" d="M27.4,24.1C27.4,24.1,27.5,24.1,27.4,24.1c0.1,0,0.1,0.1,0.1,0.1v0.1c0,0,0,0-0.1,0s-0.1-0.1-0.1-0.1
	L27.4,24.1z"/>
<path class="st0" d="M27.4,24.1C27.4,24.1,27.4,24.2,27.4,24.1c0.1,0.1,0,0.1,0,0.1C27.3,24.3,27.3,24.2,27.4,24.1
	C27.3,24.2,27.3,24.1,27.4,24.1"/>
<path class="st20" d="M30.5,24.3l-0.4-0.1h0.4l0.1-0.4L30.5,24.3L30.5,24.3z"/>
<path class="st20" d="M30.6,24.1L30.6,24.1L30.6,24.1L30.6,24.1L30.6,24.1L30.6,24.1L30.6,24.1C30.5,24.1,30.5,24.1,30.6,24.1
	L30.6,24.1C30.5,24.1,30.5,24.1,30.6,24.1L30.6,24.1c-0.1,0.1-0.1,0.1-0.1,0.2l0,0l0,0l0,0c0,0,0,0,0,0.1l0,0l0,0l0,0l0,0l0,0l0,0
	l0,0l0,0l0,0l0,0l0,0l0,0C30.5,24.3,30.6,24.2,30.6,24.1L30.6,24.1L30.6,24.1L30.6,24.1L30.6,24.1L30.6,24.1z"/>
<path class="st28" d="M30.6,24.1L30.6,24.1c-0.1,0-0.1,0.1-0.1,0.1v0.1c0,0,0,0,0.1,0s0.1-0.1,0.1-0.1S30.7,24.1,30.6,24.1"/>
<path class="st29" d="M30.6,24.1L30.6,24.1c-0.1,0-0.1,0.1-0.1,0.1v0.1c0,0,0,0,0.1,0s0.1-0.1,0.1-0.1S30.7,24.1,30.6,24.1z"/>
<path class="st0" d="M30.6,24.1L30.6,24.1c-0.1,0.1,0,0.1,0,0.1C30.7,24.2,30.7,24.2,30.6,24.1C30.7,24.1,30.7,24.1,30.6,24.1"/>
<path class="st20" d="M30.5,25.5L30.5,25.5L30.5,25.5l-0.1,0.2l0,0l0,0l0.1,0.2c0,0,0,0,0.1,0C30.5,25.9,30.5,25.5,30.5,25.5z"/>
<path class="st25" d="M30.7,25.7l-0.2-0.2l-0.1,0.2l0.1,0.2L30.7,25.7z"/>
<path class="st23" d="M30.7,25.7h-0.2l0.1,0.2L30.7,25.7z"/>
<circle class="st30" cx="29" cy="24.1" r="0.1"/>
<circle class="st0" cx="29" cy="24" r="0.1"/>
<circle class="st30" cx="28.3" cy="25.5" r="0.1"/>
<circle class="st0" cx="28.3" cy="25.5" r="0"/>
<circle class="st30" cx="28.3" cy="25.8" r="0.1"/>
<circle class="st0" cx="28.3" cy="25.8" r="0"/>
<circle class="st30" cx="29.7" cy="25.5" r="0.1"/>
<circle class="st0" cx="29.7" cy="25.5" r="0"/>
<circle class="st30" cx="29.7" cy="25.8" r="0.1"/>
<circle class="st0" cx="29.7" cy="25.8" r="0"/>
<path class="st19" d="M33.5,25.3h3V26h-3V25.3z M33.5,25.2c0-0.7-0.1-1.3-0.4-1.9h0.1c0.2,0,0.4,0.2,0.4,0.4c0,0.1,0,0.1,0,0.1
	s0.1,0,0.2,0c0.2,0,0.4,0.2,0.4,0.4c0,0.2-0.2,0.4-0.4,0.4h-0.1c0,0.3,0.2,0.5,0.3,0.5s0.2-0.1,0.3-0.3c0.1,0.2,0.2,0.3,0.3,0.3
	c0.2,0,0.3-0.2,0.3-0.5c-0.1,0-0.1,0.1-0.2,0.1c-0.2,0-0.4-0.2-0.4-0.4c0-0.2,0.2-0.4,0.4-0.4c0-0.1-0.1-0.1-0.1-0.2
	c0-0.2,0.2-0.4,0.4-0.4s0.4,0.2,0.4,0.4c0,0.1,0,0.1-0.1,0.2c0.2,0,0.4,0.2,0.4,0.4c0,0.2-0.2,0.4-0.4,0.4c-0.1,0-0.2,0-0.2-0.1
	c0,0.3,0.2,0.5,0.3,0.5s0.2-0.1,0.3-0.3c0.1,0.2,0.2,0.3,0.3,0.3c0.2,0,0.3-0.2,0.3-0.5h-0.1c-0.2,0-0.4-0.2-0.4-0.4
	c0-0.2,0.2-0.4,0.4-0.4c0.1,0,0.1,0,0.2,0v-0.1c0-0.2,0.2-0.4,0.4-0.4h0.1c-0.3,0.6-0.4,1.2-0.4,1.9H33.5L33.5,25.2z"/>
<path class="st20" d="M35.1,24.1l0.4-0.1h-0.4L35,23.6L34.9,24l-0.4,0.1l0.4,0.1h0.2V24.1z"/>
<path class="st20" d="M33.5,25.5L33.5,25.5C33.6,25.5,33.6,25.5,33.5,25.5l0.1,0.2l0,0l0,0l-0.1,0.2c0,0,0,0-0.1,0L33.5,25.5
	L33.5,25.5z"/>
<path class="st20" d="M33.5,24.3l0.4-0.1h-0.4l-0.1-0.4L33.5,24.3L33.5,24.3z"/>
<path class="st20" d="M33.4,24.1L33.4,24.1L33.4,24.1C33.4,24.1,33.5,24.1,33.4,24.1C33.5,24.1,33.5,24.1,33.4,24.1L33.4,24.1
	L33.4,24.1C33.5,24.1,33.5,24.1,33.4,24.1L33.4,24.1C33.5,24.1,33.5,24.1,33.4,24.1L33.4,24.1c0.1,0.1,0.1,0.1,0.1,0.2l0,0l0,0l0,0
	c0,0,0,0,0,0.1l0,0l0,0l0,0l0,0l0,0l0,0l0,0l0,0l0,0l0,0l0,0l0,0l0,0C33.5,24.3,33.5,24.2,33.4,24.1L33.4,24.1L33.4,24.1L33.4,24.1
	L33.4,24.1L33.4,24.1z"/>
<path class="st21" d="M34.7,25.7l0.3-0.2l0.3,0.2L35,25.8L34.7,25.7z"/>
<path class="st22" d="M34.7,25.7l0.3-0.2l0.3,0.2L35,25.8L34.7,25.7z"/>
<path class="st21" d="M34.7,25.7l0.3-0.2l0.3,0.2L35,25.8L34.7,25.7z"/>
<path class="st23" d="M35.3,25.7L35,25.8l0,0v-0.2h0.3V25.7z"/>
<path class="st24" d="M35,25.7v0.2l-0.3-0.2H35z"/>
<path class="st25" d="M35,25.5v0.1l0,0h0.3l0,0L35,25.5L35,25.5z"/>
<path class="st26" d="M33.4,25.7l0.2-0.2l0.1,0.2l-0.1,0.2L33.4,25.7z"/>
<path class="st27" d="M33.4,25.7h0.2l-0.1,0.2L33.4,25.7z"/>
<path class="st28" d="M33.4,24.1L33.4,24.1c0.1,0,0.1,0.1,0.1,0.1v0.1c0,0,0,0-0.1,0s-0.1-0.1-0.1-0.1
	C33.3,24.2,33.4,24.1,33.4,24.1"/>
<path class="st29" d="M33.4,24.1L33.4,24.1c0.1,0,0.1,0.1,0.1,0.1v0.1c0,0,0,0-0.1,0s-0.1-0.1-0.1-0.1
	C33.3,24.2,33.4,24.1,33.4,24.1z"/>
<path class="st0" d="M33.4,24.1C33.4,24.1,33.4,24.2,33.4,24.1c0.1,0.1,0,0.1,0,0.1C33.3,24.3,33.3,24.2,33.4,24.1
	C33.3,24.2,33.3,24.1,33.4,24.1"/>
<path class="st20" d="M36.5,24.3l-0.4-0.1h0.4l0.1-0.4L36.5,24.3L36.5,24.3z"/>
<path class="st20" d="M36.6,24.1L36.6,24.1L36.6,24.1L36.6,24.1L36.6,24.1L36.6,24.1L36.6,24.1C36.5,24.1,36.5,24.1,36.6,24.1
	L36.6,24.1C36.5,24.1,36.5,24.1,36.6,24.1L36.6,24.1c-0.1,0.1-0.1,0.1-0.1,0.2l0,0l0,0l0,0c0,0,0,0,0,0.1l0,0l0,0l0,0l0,0l0,0l0,0
	l0,0l0,0l0,0l0,0l0,0l0,0C36.5,24.3,36.6,24.2,36.6,24.1L36.6,24.1L36.6,24.1L36.6,24.1L36.6,24.1L36.6,24.1z"/>
<path class="st28" d="M36.6,24.1L36.6,24.1c-0.1,0-0.1,0.1-0.1,0.1v0.1c0,0,0,0,0.1,0s0.1-0.1,0.1-0.1
	C36.7,24.2,36.7,24.1,36.6,24.1"/>
<path class="st29" d="M36.6,24.1L36.6,24.1c-0.1,0-0.1,0.1-0.1,0.1v0.1c0,0,0,0,0.1,0s0.1-0.1,0.1-0.1
	C36.7,24.2,36.7,24.1,36.6,24.1z"/>
<path class="st0" d="M36.6,24.1L36.6,24.1c-0.1,0.1,0,0.1,0,0.1S36.7,24.2,36.6,24.1C36.7,24.1,36.6,24.1,36.6,24.1"/>
<path class="st20" d="M36.5,25.5L36.5,25.5L36.5,25.5l-0.1,0.2l0,0l0,0l0.1,0.2c0,0,0,0,0.1,0C36.5,25.9,36.5,25.5,36.5,25.5z"/>
<path class="st25" d="M36.7,25.7l-0.2-0.2l-0.1,0.2l0.1,0.2L36.7,25.7z"/>
<path class="st23" d="M36.7,25.7h-0.2l0.1,0.2L36.7,25.7z"/>
<circle class="st30" cx="35" cy="24.1" r="0.1"/>
<circle class="st0" cx="35" cy="24" r="0.1"/>
<circle class="st30" cx="34.3" cy="25.5" r="0.1"/>
<circle class="st0" cx="34.3" cy="25.5" r="0"/>
<circle class="st30" cx="34.3" cy="25.8" r="0.1"/>
<circle class="st0" cx="34.3" cy="25.8" r="0"/>
<circle class="st30" cx="35.7" cy="25.5" r="0.1"/>
<circle class="st0" cx="35.7" cy="25.5" r="0"/>
<circle class="st30" cx="35.7" cy="25.8" r="0.1"/>
<circle class="st0" cx="35.7" cy="25.8" r="0"/>
</svg>
