<?xml version="1.0" encoding="utf-8"?>
<!-- Generator: Adobe Illustrator 20.0.0, SVG Export Plug-In . SVG Version: 6.00 Build 0)  -->
<svg version="1.1" id="Layer_1" xmlns="http://www.w3.org/2000/svg" xmlns:xlink="http://www.w3.org/1999/xlink" x="0px" y="0px"
	 viewBox="0 0 64 42" style="enable-background:new 0 0 64 42;" xml:space="preserve">
<style type="text/css">
	.st0{fill:#CE1126;}
	.st1{fill:#009E49;}
	.st2{fill:#FCD116;}
	.st3{fill:#FFFFFF;}
</style>
<path id="Rounded_Rectangle_7_copy" class="st0" d="M5.8,0h52.3C61.4,0,64,2.5,64,5.7v30.6c0,3.2-2.6,5.7-5.8,5.7H5.8
	C2.6,42,0,39.5,0,36.3V5.7C0,2.5,2.7,0,5.8,0z"/>
<path class="st1" d="M55.5,0H36.2h-8.4h-22C2.6,0,0,2.6,0,5.7v11.1v8.4v10.4l25.6-9.2L55.5,0z"/>
<polygon class="st2" points="10,42 14.1,42 64,10.3 64,7.7 "/>
<polygon class="st2" points="53.9,0 49.9,0 0,31.7 0,34.3 "/>
<path d="M0,36.3C0,39.4,2.6,42,5.8,42H10L64,7.7v-2C64,2.6,61.4,0,58.1,0h-4.2L0,34.3V36.3z"/>
<polygon class="st3" points="24.2,30 21.4,29.9 20.4,32.5 19.6,29.8 16.8,29.7 19.2,28.1 18.4,25.4 20.6,27.2 23,25.6 22,28.3 "/>
<polygon class="st3" points="48.5,14.6 45.7,14.5 44.7,17.1 43.9,14.4 41.1,14.2 43.5,12.7 42.7,10 44.9,11.7 47.3,10.2 46.3,12.8 
	"/>
</svg>
