<?xml version="1.0" encoding="utf-8"?>
<!-- Generator: Adobe Illustrator 20.0.0, SVG Export Plug-In . SVG Version: 6.00 Build 0)  -->
<svg version="1.1" id="Layer_1" xmlns="http://www.w3.org/2000/svg" xmlns:xlink="http://www.w3.org/1999/xlink" x="0px" y="0px"
	 viewBox="0 0 64 42" style="enable-background:new 0 0 64 42;" xml:space="preserve">
<style type="text/css">
	.st0{fill:#FFFFFF;}
	.st1{fill:#012A87;}
	.st2{fill:#DC171D;}
	.st3{fill:#FFFF00;}
	.st4{fill:#F9D90F;}
	.st5{fill:#62AFE1;}
	.st6{fill:none;}
	.st7{fill:#7E7E7E;}
	.st8{fill:#F9B60F;}
	.st9{fill:#BC715F;}
	.st10{fill:#008830;}
</style>
<path id="Rounded_Rectangle_7_copy_2_" class="st0" d="M5.8,0h52.3C61.4,0,64,2.6,64,5.7v30.6c0,3.2-2.6,5.7-5.8,5.7H5.8
	C2.6,42,0,39.4,0,36.3V5.7C0,2.6,2.6,0,5.8,0z"/>
<path class="st1" d="M58.1,0H5.8C4.4,0,3.1,0.5,2.1,1.4C12,7.9,22,14.5,32,21C22,27.6,12,34.1,2.1,40.6c1,0.8,2.3,1.4,3.7,1.4h52.4
	c3.2,0,5.8-2.5,5.8-5.7V5.7C64,2.6,61.4,0,58.1,0z"/>
<path class="st2" d="M58.1,0H5.8C4.4,0,3.1,0.5,2.1,1.4C12,7.9,22,14.5,31.9,21H64V5.7C64,2.6,61.4,0,58.1,0z"/>
<path class="st3" d="M15.5,15.7v-0.3c0,0-0.2-0.3,0-0.5c0,0-0.4-0.2-0.3-0.5c0,0-0.4-0.1-0.3-0.5c0,0-0.4,0-0.4-0.4
	c0,0-0.4,0.1-0.6-0.3c0,0-0.4,0.1-0.5-0.2c0,0-0.4,0.1-0.6-0.2c0,0-0.4,0.2-0.5-0.1c-0.2,0.3-0.5,0.1-0.5,0.1
	c-0.2,0.3-0.6,0.2-0.6,0.2c-0.1,0.3-0.5,0.2-0.5,0.2c-0.2,0.3-0.6,0.3-0.6,0.3c0,0.3-0.4,0.4-0.4,0.4c0,0.4-0.3,0.5-0.3,0.5
	c0.1,0.3-0.3,0.5-0.3,0.5c0.2,0.3,0,0.5,0,0.5v0.3H15.5"/>
<path class="st4" d="M15.5,15.7v-0.3c0,0-0.2-0.3,0-0.5c0,0-0.4-0.2-0.3-0.5c0,0-0.4-0.1-0.3-0.5c0,0-0.4,0-0.4-0.4
	c0,0-0.4,0.1-0.6-0.3c0,0-0.4,0.1-0.5-0.2c0,0-0.4,0.1-0.6-0.2c0,0-0.4,0.2-0.5-0.1c-0.2,0.3-0.5,0.1-0.5,0.1
	c-0.2,0.3-0.6,0.2-0.6,0.2c-0.1,0.3-0.5,0.2-0.5,0.2c-0.2,0.3-0.6,0.3-0.6,0.3c0,0.3-0.4,0.4-0.4,0.4c0,0.4-0.3,0.5-0.3,0.5
	c0.1,0.3-0.3,0.5-0.3,0.5c0.2,0.3,0,0.5,0,0.5v0.3H15.5L15.5,15.7L15.5,15.7z"/>
<path class="st2" d="M15.3,15.3c-1-0.1-2.2-0.3-3.1,0.2c-0.6-0.4-1.4-0.3-2.1-0.3c-0.4,0.1-0.8,0.1-1.2,0.1H8.8
	c-0.7,0-1.4-0.2-2-0.5C7,16,7.2,17.2,7.3,18.4c0.2,1.8-0.8,3.3-0.4,5c0.3,0.8,1.2,1.3,2,1.4c0.8,0,1.7,0.2,2.4,0.3
	c0.1,0,0.3,0.1,0.4,0.1c0.2,0.1,0.4,0.2,0.5,0.4c0.5-0.5,1.1-0.6,1.8-0.7c1.2-0.1,2.7-0.1,3.4-1.1v-0.1c0.4-0.6,0.3-1.5,0.2-2.2
	c0-0.2-0.1-0.4-0.1-0.7c-0.7-1.9-0.1-4.1,0.2-6c-0.4,0.2-0.8,0.3-1.2,0.4c-0.3,0-0.7,0-1.1,0L15.3,15.3 M16.9,21L16.9,21"/>
<path class="st5" d="M16.9,21c0,0.1,0.1,0.2,0.1,0.3c0.1,0.8,0.3,2-0.6,2.5c-1,0.6-2.2,0.3-3.3,0.7c-0.2,0.1-0.5,0.3-0.7,0.4
	c-0.1-0.1-0.2-0.2-0.3-0.2c-0.9-0.5-2.1-0.3-3.1-0.6c-0.5-0.2-1.1-0.6-1.2-1.1c-0.3-1.4,0.5-2.6,0.4-4c-0.1-1.1-0.2-2.1-0.5-3.1
	c0.8,0.4,1.7,0.4,2.6,0.3c0.7-0.1,1.5-0.1,2.1,0.2c0.3-0.1,0.8-0.2,1.1-0.3c0.7,0.1,1.5,0.2,2.2,0.2c0.5,0,0.9-0.2,1.4-0.4
	C16.8,17.6,16.2,19.3,16.9,21"/>
<path class="st0" d="M15.4,21.3v-1.5h0.2l-2.3-1.5v-0.8h0.2l-1.2-0.8l-1.2,0.8h0.2v0.8L9,19.8h0.2v1.5H15.4"/>
<path class="st6" d="M15.4,21.3v-1.5h0.2l-2.3-1.5v-0.8h0.2l-1.2-0.8l-1.2,0.8h0.2v0.8L9,19.8h0.2v1.5H15.4L15.4,21.3L15.4,21.3z"/>
<path class="st0" d="M16.1,23.3v0.5H8.5v-0.5H16.1"/>
<path class="st6" d="M16.1,23.3v0.5H8.5v-0.5H16.1L16.1,23.3L16.1,23.3z"/>
<path class="st0" d="M9.1,23.3v-1.6h0.3v1.6v-1.6H9v-0.3h6.9v0.3h-0.4v1.6v-1.6h0.3v1.6"/>
<path class="st6" d="M9.1,23.3v-1.6h0.3v1.6v-1.6H9v-0.3h6.9v0.3h-0.4v1.6v-1.6h0.3v1.6 M10.5,22.9v-1.1H9.6v1.1H10.5 M10.5,22.9
	v-1.1H9.6v1.1H10.5 M10.5,22.9v-1.1H9.6v1.1H10.5 M10.5,22.9v-1.1H9.6v1.1H10.5 M10.5,22.9v-1.1H9.6v1.1H10.5 M9.8,22v0.7h0.4V22
	H9.8 M14.9,22.9v-1.1H14v1.1H14.9 M14.3,22v0.7h0.4V22H14.3 M14.9,21v-1.1H14V21H14.9L14.9,21L14.9,21z M14.3,20.2v0.7h0.4v-0.7
	H14.3 M10.5,21v-1.1H9.6V21H10.5L10.5,21L10.5,21z M9.8,20.1v0.7h0.4v-0.7H9.8 M12.1,21v-1.1h-0.9V21H12.1 M11.5,20.1v0.7h0.4v-0.7
	H11.5 M13.4,21v-1.1h-0.9V21H13.4 M12.7,20.2v0.7h0.4v-0.7H12.7"/>
<path class="st0" d="M13.6,20.7v2.6H11v-2.6H13.6"/>
<path class="st6" d="M13.6,20.7v2.6H11v-2.6H13.6L13.6,20.7L13.6,20.7z M11,21.4h2.6 M11,21.4h2.6 M11,21.4h2.6 M11,21.4h2.6
	 M11,21.4h2.6 M11.3,23.3v-1.8 M13.3,23.3v-1.8 M14.6,19.6l-1.5-1.1h-1.7l-1.5,1.1H14.6 M11.6,17.6v0.7H13v-0.7H11.6 M11.6,17.6v0.7
	H13v-0.7H11.6"/>
<path class="st6" d="M11.6,17.6v0.7H13v-0.7H11.6"/>
<path class="st6" d="M12,17.8v0.3h0.6v-0.3H12 M12.3,16.9l0.8,0.5h-1.5L12.3,16.9 M12.3,16.9l0.8,0.5h-1.5L12.3,16.9 M12.3,16.9
	l0.8,0.5h-1.5L12.3,16.9 M12.3,16.9l0.8,0.5h-1.5L12.3,16.9 M12.3,16.9l0.8,0.5h-1.5L12.3,16.9"/>
<path class="st0" d="M15.4,16.5c0.2,0,0.3,0.9,0.3,1.4c0.2,0.1,0.6,0.3,0.8,0.6h-2.1c0.2-0.2,0.6-0.5,0.8-0.6
	C15.1,17.4,15.2,16.5,15.4,16.5"/>
<path class="st6" d="M15.4,16.5c0.2,0,0.3,0.9,0.3,1.4c0.2,0.1,0.6,0.3,0.8,0.6h-2.1c0.2-0.2,0.6-0.5,0.8-0.6
	C15.1,17.4,15.2,16.5,15.4,16.5 M11.1,20.8h0.2H11.1 M11.1,20.8h0.2H11.1 M11.1,20.8h0.2H11.1 M11.1,20.8h0.2H11.1 M11.1,20.8h0.2
	H11.1c0.1,0.1,0.2,0.2,0.1,0.4l0.1,0.1h-0.2l0.1-0.1c0,0-0.1-0.2,0-0.3L11.1,20.8 M11.5,20.8h0.2H11.5c0.1,0.1,0.2,0.2,0.1,0.4v0.1
	h-0.2v-0.1c0,0-0.1-0.2,0-0.3L11.5,20.8 M11.9,20.8h0.2H11.9c0.1,0.1,0.2,0.2,0.1,0.4l0.1,0.1h-0.2v-0.1
	C11.9,21.2,11.8,21,11.9,20.8L11.9,20.8L11.9,20.8L11.9,20.8z M12.4,20.8h0.2H12.4c0.1,0.1,0.2,0.2,0.1,0.4l0.1,0.1h-0.2v-0.1
	C12.4,21.2,12.3,21,12.4,20.8L12.4,20.8L12.4,20.8L12.4,20.8z M12.9,20.8h0.2H12.9c0.1,0.1,0.2,0.2,0.1,0.4l0.1,0.1h-0.2v-0.1
	C12.9,21.2,12.8,21,12.9,20.8L12.9,20.8 M13.3,20.8h0.2H13.3c0.1,0.1,0.2,0.2,0.1,0.4v0.1h-0.2v-0.1c0,0-0.1-0.2,0-0.3L13.3,20.8"/>
<path class="st4" d="M12.3,26.7c1,0,2.2-0.2,2.8-0.5l1.2-0.1v1.5c-1.1,0.6-3.5,0.7-4,0.7s-3-0.1-4.1-0.7v-1.5l1.2,0.1
	C10.1,26.5,11.4,26.7,12.3,26.7L12.3,26.7"/>
<path class="st6" d="M12.3,26.7c1,0,2.2-0.2,2.8-0.5l1.2-0.1v1.5c-1.1,0.6-3.5,0.7-4,0.7s-3-0.1-4.1-0.7v-1.5l1.2,0.1
	C10.1,26.5,11.4,26.7,12.3,26.7L12.3,26.7"/>
<path class="st4" d="M5.1,20.2l1.1,0.3l-0.3,1.8l-1,0.2C4.8,22.5,4.6,21.5,5.1,20.2"/>
<path class="st6" d="M5.1,20.2l1.1,0.3l-0.3,1.8l-1,0.2C4.8,22.5,4.6,21.5,5.1,20.2L5.1,20.2L5.1,20.2z"/>
<path class="st7" d="M5.8,22.3l-1,0.2l0.7-0.9L5.8,22.3"/>
<path class="st8" d="M5.8,22.3l-1,0.2l0.7-0.9L5.8,22.3"/>
<path class="st4" d="M4.4,21.5l1.1,0.1c0,0.9,0.1,4.3,4.2,4.5l-0.1,1.2C4.6,27.3,4.2,23.1,4.4,21.5"/>
<path class="st6" d="M4.4,21.5l1.1,0.1c0,0.9,0.1,4.3,4.2,4.5l-0.1,1.2C4.6,27.3,4.2,23.1,4.4,21.5L4.4,21.5z M8.3,27.5l1.2-0.3
	 M8.3,27.5l1.2-0.3 M8.3,27.5l1.2-0.3 M8.3,27.5l1.2-0.3 M8.3,27.5l1.2-0.3"/>
<path class="st3" d="M19.6,20.2l-1.1,0.3l0.3,1.8l1,0.2C19.9,22.5,20.1,21.6,19.6,20.2"/>
<path class="st4" d="M19.6,20.2l-1.1,0.3l0.3,1.8l1,0.2C19.9,22.5,20.1,21.6,19.6,20.2L19.6,20.2L19.6,20.2z"/>
<path class="st7" d="M18.9,22.3l1,0.2l-0.7-0.9L18.9,22.3"/>
<path class="st8" d="M18.9,22.3l1,0.2l-0.7-0.9L18.9,22.3"/>
<path class="st4" d="M20.3,21.5l-1.1,0.1c0,0.9-0.1,4.3-4.2,4.5l0.1,1.2C20.1,27.3,20.5,23.1,20.3,21.5"/>
<path class="st6" d="M20.3,21.5l-1.1,0.1c0,0.9-0.1,4.3-4.2,4.5l0.1,1.2C20.1,27.3,20.5,23.1,20.3,21.5L20.3,21.5L20.3,21.5z
	 M16.3,27.5l-1.2-0.3"/>
<path class="st9" d="M8.4,14.4c0.1-0.2,0.9-0.7,3.4-0.5c0,0,0.4,0.3,0.7,0.2c0.1,0-0.1,0-0.3-0.1c-0.2-0.2-0.2-0.5,0.2-0.5
	c0.4,0,2.1,0.1,2.1,0.2c0,0.1-0.9,0.2-1.2,0.2c-0.3,0-0.3,0.2,0,0.1c1,0,2.2-0.4,3.3,0.4c0.1,0.1-0.4,0.1-0.7,0c0,0-1,0.1-1.5,0
	c0,0-0.3,0.3-0.8,0.3c0.1,0.1-0.2,0.7-1.6,0.3c-0.2,0.1-1.1,0.2-1,0c-0.2,0-0.6,0.1-0.7-0.1c-0.1-0.1,0.7-0.3,0.8-0.5
	c0,0-1.6,0-1.9-0.1C9.3,14.4,8.3,14.6,8.4,14.4"/>
<path class="st10" d="M8.9,16.7c0,0,0-0.1,0.1-0.1c0.2,0,0.3,0.3,0.5,0.1c0.1,0,0.1,0.1,0.2,0.1c0,0.2,0.2,0,0.3,0
	c0.2-0.1,0.5-0.1,0.7-0.1c0,0.2-0.1,0.3-0.3,0.4c0,0.2,0.1,0.3,0.1,0.4c0,0.1,0,0.2-0.1,0.2c-0.1,0-0.2,0-0.3-0.1l0,0
	c0,0.1,0.1,0.1,0.1,0.2c-0.1,0.1-0.2,0-0.2,0c0,0.1,0,0.1-0.1,0.2c-0.1,0-0.1-0.1-0.2-0.2c-0.1,0.1,0,0.1,0.1,0.2
	c0,0.2,0,0.4-0.2,0.5l-0.1,0.1c0-0.1,0-0.3,0-0.4c-0.1,0.1-0.1,0.3-0.3,0.4c-0.1,0-0.2-0.2-0.3-0.4c-0.1-0.2,0-0.4,0.1-0.5
	c0-0.1-0.2-0.1-0.2-0.2c-0.2-0.1-0.3,0.3-0.5,0c0-0.2,0-0.4,0.1-0.6c0-0.1-0.1-0.1-0.2-0.1c-0.1-0.1-0.3-0.2-0.3-0.5
	C8.2,16.3,8.6,16.4,8.9,16.7"/>
<path class="st4" d="M9.1,16.7c0,0.2,0.1,0,0.2,0.2c-0.1,0-0.1,0.1-0.2,0l0,0c0,0.1,0.1,0.1,0,0.1S9,16.9,9,16.9v-0.1
	c0,0-0.1,0.1-0.2,0v-0.1c0.1-0.1,0.2,0,0.2,0c0-0.1,0-0.1,0-0.1C9,16.7,9.1,16.7,9.1,16.7 M9.6,16.8L9.6,16.8L9.6,16.8L9.6,16.8
	L9.6,16.8L9.6,16.8c0.1,0.1,0.1,0.1,0.2,0.1V17H9.7l0,0H9.6l0.1,0.1c-0.1,0.1-0.1,0-0.1,0V17c-0.1,0,0,0.1-0.1,0.1
	c0,0-0.1-0.1,0-0.1h0.1C9.4,16.9,9.4,16.7,9.6,16.8 M9,17.1c0,0.1,0,0.1,0,0.2c0.1-0.1,0.2,0,0.2,0v0.1c-0.1,0-0.2,0.1-0.3,0l0,0
	C9,17.5,9,17.5,9,17.6c-0.1,0-0.2,0-0.3-0.1c0-0.1,0.1-0.1,0-0.2c-0.1,0.1-0.1,0.2-0.2,0.1c-0.1,0-0.1-0.1-0.1-0.2
	c0.1-0.1,0.2,0,0.3-0.1c0-0.1,0-0.2,0.1-0.2C8.9,17,8.9,17.1,9,17.1"/>
<path class="st0" d="M9.3,17.2c0,0.2-0.2,0-0.2,0C9.2,17,9.2,17.2,9.3,17.2 M9.7,17.4L9.7,17.4L9.7,17.4L9.7,17.4L9.7,17.4
	c-0.1,0-0.1-0.1-0.1-0.1l0,0C9.7,17.2,9.7,17.3,9.7,17.4"/>
<path class="st4" d="M9.6,17.3c0,0.1-0.1,0.1,0,0.2C9.6,17.5,9.7,17.4,9.6,17.3c0.1,0.1,0.2,0.1,0.3,0.2c0,0.1-0.1,0.1-0.2,0.2H9.6
	v-0.1H9.5c0,0.1,0.1,0.1,0,0.2c-0.1,0-0.2,0-0.2-0.1c0-0.1,0.1-0.2,0-0.2c0,0.1-0.1,0.2-0.2,0.1v-0.1c0.1,0,0.2,0,0.3-0.1
	c0-0.1-0.1-0.2,0-0.2C9.5,17.2,9.5,17.2,9.6,17.3"/>
<path d="M9.5,17.5c0,0.1,0,0.1-0.1,0.1H9.3c0-0.1,0-0.1,0.1-0.1C9.5,17.4,9.5,17.5,9.5,17.5"/>
<path class="st0" d="M9.5,17.6C9.5,17.6,9.4,17.6,9.5,17.6L9.5,17.6C9.4,17.5,9.5,17.5,9.5,17.6"/>
</svg>
