<?xml version="1.0" encoding="utf-8"?>
<!-- Generator: Adobe Illustrator 20.0.0, SVG Export Plug-In . SVG Version: 6.00 Build 0)  -->
<svg version="1.1" id="Layer_1" xmlns="http://www.w3.org/2000/svg" xmlns:xlink="http://www.w3.org/1999/xlink" x="0px" y="0px"
	 viewBox="0 0 64 42" style="enable-background:new 0 0 64 42;" xml:space="preserve">
<style type="text/css">
	.st0{fill:#00237A;}
	.st1{fill:#FFFFFF;}
	.st2{fill:#FDC300;}
	.st3{fill:#FF9E3D;}
	.st4{fill:#FF927F;}
	.st5{fill:#FF9EE1;}
	.st6{fill:#00A728;}
	.st7{fill:#FCC300;}
	.st8{fill:#EF072D;}
	.st9{fill:#B95A1E;}
	.st10{fill:#CF142B;}
</style>
<path id="Rounded_Rectangle_7_copy_2" class="st0" d="M5.8,0h52.4C61.4,0,64,2.5,64,5.7v30.6c0,3.1-2.6,5.7-5.8,5.7H5.8
	C2.6,42,0,39.5,0,36.3V5.7C0,2.5,2.6,0,5.8,0z"/>
<path class="st1" d="M52.9,13.3v5.1c0,4.2-1.6,8-6.5,10.3c-4.9-2.3-6.5-6.2-6.5-10.3v-5.1L52.9,13.3L52.9,13.3z"/>
<path class="st2" d="M52.5,13.8v4.8c0,3.9-1.5,7.5-6.1,9.6c-4.5-2.2-6.1-5.7-6.1-9.6v-4.8H52.5L52.5,13.8z"/>
<path class="st3" d="M43.6,15.9c-0.1-0.1-0.2-0.1-0.3-0.1c0-0.3-0.2-0.5-0.4-0.5c-0.2-0.1-0.2-0.1-0.3-0.3c0-0.1-0.1-0.2-0.3-0.3
	c-0.2,0-0.3-0.2-0.3-0.3c-0.1-0.1-0.1-0.1-0.1,0.1c0,0.1-0.2,0.4-0.1,0.4c-0.1,0.1-0.2,0.2-0.1,0.4c-0.1,0.1-0.1,0.2,0,0.2
	s0.1,0.1,0.1,0.1c-0.1,0-0.1,0.2,0.1,0.2c-0.1,0-0.1,0.2,0,0.2c-0.1,0-0.2,0.2-0.4,0.2s-0.3,0-0.3,0.1s-0.1,0.2-0.1,0.2
	c0.1,0,0.2,0,0.3-0.1s0.2-0.1,0.2,0c0.1,0.1,0.2,0.1,0.3,0.1c-0.2,0.1-0.3,0.3-0.3,0.4s-0.1,0.3-0.2,0.3c-0.1,0-0.3,0.2-0.3,0.3
	c0.1,0.3,0.3,0.4,0.5,0.5c0.4,0.2,0.6,0.3,0.7,0.4c0.1,0.2,0.2,0,0.4,0.3s0.4,0.8,0.6,0.9c0.2,0.1,0.5,0,0.7-0.2
	C44.3,19.2,44.4,16.4,43.6,15.9L43.6,15.9z"/>
<path class="st4" d="M44,14.7c-0.2,0.2-0.5,0.4-0.4,0.8c0,0.4,0.1,1-0.3,1.3c-0.4,0.2-0.5,0.8-0.1,1.1c0.4,0.3,0.5,0.7,0.5,1.1
	c0.1,0.4,0.3,0.7,0.6,0.4c0.3,0,0.5-0.1,0.5-0.3s0-0.4,0.2-0.4c0.2-0.1,0.3-0.1,0.4-0.3c0.1-0.2,0.2-0.3,0.1-0.4
	c-0.1-0.1-0.1-0.4,0-0.5c0-0.2-0.1-0.3-0.1-0.4c-0.1-0.1-0.1-0.2-0.1-0.4c0-0.1,0-0.2-0.1-0.3c-0.1-0.1-0.1-0.1-0.1-0.3
	c0-0.1-0.1-0.2-0.2-0.3s-0.2-0.2-0.2-0.4C44.6,15.2,44.2,14.8,44,14.7L44,14.7z"/>
<path class="st5" d="M44.1,19.5c0.5-0.1,0.4-0.9,0.4-1.3c-0.1-0.3-0.3-0.8-0.1-1.2c0.2-0.5-0.2-1.1-0.1-1.3c0.1-0.2,0.1-0.3,0.1-0.4
	c0-0.1-0.1-0.1-0.1,0s0,0.2-0.1,0.3s-0.1,0.3,0,0.5c0.1,0.2,0.2,0.5,0,1c-0.2,0.4-0.1,0.6,0,0.8C44.1,18.3,44.4,19.3,44.1,19.5
	L44.1,19.5z"/>
<path class="st3" d="M41.9,14.9c0.1,0,0.2,0,0.2,0.1"/>
<path class="st3" d="M41.7,15.3c0.1,0,0.2,0,0.3-0.1"/>
<path class="st3" d="M41.9,15.5c0.1,0,0.2,0,0.3-0.1"/>
<path class="st3" d="M42,15.8c0.1,0,0.2-0.1,0.3-0.2"/>
<path class="st3" d="M42,16c0.2,0,0.4,0.1,0.4,0"/>
<path class="st3" d="M42,16.5c0.1-0.1,0.4-0.2,0.4-0.3"/>
<path class="st3" d="M42.3,14.8c0.2,0.1,0.1,0.2,0.2,0.2c0.2,0.1,0,0.3,0.1,0.3s0.1,0.1,0.1,0.2c0,0.2,0.1,0.2,0.1,0.3"/>
<path class="st3" d="M43.3,15.8c-0.1,0-0.3,0-0.4,0.2"/>
<path class="st3" d="M41.7,17.9c0.1,0,0.1,0,0.2-0.1c0-0.1,0-0.1,0.1-0.1s0.2,0,0.2-0.1s0.1,0,0.2-0.2c0.1-0.2,0.1-0.3,0.3-0.4"/>
<path class="st6" d="M47.5,21.1c0.1,0.1,0,0.3,0.1,0.3c0.2,0.1,0,0.3,0.2,0.4s0,0.3,0.2,0.4s0,0.3,0.2,0.4s0,0.4,0.1,0.5
	c0.2,0.1-0.1,0.3,0.1,0.4c0.2,0.1-0.1,0.3,0.1,0.4c0.2,0.1,0,0.3,0.1,0.5s-0.1,0.3,0.1,0.5c0.1,0.1-0.1,0.3,0.1,0.5
	c0.1,0.1-0.1,0.7-0.5,0.6c-0.1,0.2-0.7,0.4-0.9,0.4c-0.2,0.1-0.8,0.3-1.1,0c-0.3,0.3-0.9,0.1-1.1,0c-0.2,0.1-0.7-0.1-0.9-0.4
	c-0.4,0.1-0.5-0.5-0.5-0.6c0.1-0.2-0.1-0.3,0.1-0.5c0.2-0.2-0.1-0.3,0.1-0.5c0.2-0.1,0-0.3,0.1-0.5c0.2-0.1-0.1-0.3,0.1-0.4
	c0.2-0.1,0-0.3,0.1-0.4c0.2-0.1-0.1-0.3,0.1-0.5c0.2-0.1,0-0.3,0.2-0.4s0-0.3,0.2-0.4s0.1-0.3,0.2-0.4c0.1-0.1,0.1-0.2,0.1-0.3
	C45.7,21.3,47,21.4,47.5,21.1L47.5,21.1z"/>
<path class="st6" d="M45.7,21.1c-0.2,0.2,0,0.3-0.1,0.4c-0.2,0.2,0,0.3-0.1,0.4c-0.1,0.2,0.1,0.3-0.1,0.4c-0.1,0.2,0,0.3-0.1,0.4
	c-0.2,0.2,0,0.3-0.1,0.5c-0.2,0.2,0,0.3-0.1,0.4c-0.2,0.2,0,0.3-0.1,0.5c-0.2,0.2,0,0.3-0.1,0.5c-0.2,0.2,0,0.3-0.1,0.5
	c-0.1,0.1,0,0.3-0.1,0.4s-0.1,0.2-0.1,0.3"/>
<path class="st6" d="M46,21.2c-0.1,0.2,0.1,0.3-0.1,0.4c-0.1,0.2,0.1,0.2,0,0.4c-0.1,0.2,0.1,0.2-0.1,0.4c-0.1,0.2,0.1,0.3-0.1,0.5
	c-0.1,0.2,0.1,0.3-0.1,0.5c-0.1,0.2,0.1,0.3-0.1,0.4c-0.1,0.1,0.1,0.3-0.1,0.4c-0.1,0.2,0.1,0.3-0.1,0.4c-0.1,0.2,0,0.3-0.1,0.4
	s0.1,0.3-0.1,0.5c-0.1,0.2,0,0.3-0.1,0.4s-0.1,0.3-0.1,0.3"/>
<path class="st6" d="M46.4,21.4c-0.1,0.3,0.1,0.5,0,0.8c-0.1,0.2,0.1,0.3,0,0.5s0.1,0.3,0,0.5s0.1,0.4,0,0.6c-0.1,0.3,0.1,0.3,0,0.6
	c-0.1,0.3,0.1,0.5,0,0.7s0.1,0.3,0,0.5c-0.1,0.3,0.1,0.3,0,0.6"/>
<path class="st6" d="M47.2,21.1c0.2,0.2,0,0.3,0.1,0.4c0.2,0.2,0,0.3,0.1,0.4c0.1,0.2-0.1,0.3,0.1,0.4c0.1,0.2,0,0.3,0.1,0.4
	c0.2,0.2,0,0.3,0.1,0.5c0.2,0.2,0,0.3,0.1,0.4c0.2,0.2,0,0.3,0.1,0.5c0.2,0.2,0,0.3,0.1,0.5c0.2,0.2,0,0.3,0.1,0.5
	c0.1,0.1,0,0.3,0.1,0.4s0.1,0.2,0.1,0.3"/>
<path class="st6" d="M46.9,21.2c0.1,0.2-0.1,0.3,0.1,0.4c0.1,0.2-0.1,0.2,0,0.4c0.1,0.2-0.1,0.2,0.1,0.4c0.1,0.2-0.1,0.3,0.1,0.5
	c0.1,0.2-0.1,0.3,0.1,0.5c0.1,0.2-0.1,0.3,0.1,0.4c0.1,0.1-0.1,0.3,0.1,0.4c0.1,0.2-0.1,0.3,0.1,0.4c0.1,0.2,0,0.3,0.1,0.4
	s-0.1,0.3,0.1,0.5c0.1,0.2,0,0.3,0.1,0.4s0.1,0.3,0.1,0.3"/>
<path class="st7" d="M45.5,21.8c0,0.1,0,0.1-0.1,0.2c-0.1,0.2,0.1,0.3-0.1,0.4c-0.1,0.2,0,0.3-0.1,0.4c-0.2,0.2,0,0.3-0.1,0.5
	c-0.2,0.2,0,0.3-0.1,0.4c-0.2,0.2,0,0.3-0.1,0.5c-0.2,0.2,0,0.3-0.1,0.5c-0.2,0.2,0,0.3-0.1,0.5c-0.1,0.1,0,0.3-0.1,0.4
	c0.2-0.1,0.2-0.3,0.3-0.4s0-0.2,0-0.3c0.1-0.1,0-0.4,0.1-0.5s0-0.4,0.1-0.5s0-0.4,0.2-0.5c0.1-0.1,0-0.3,0.1-0.5
	c0.1-0.1,0-0.3,0.1-0.5s0-0.3,0.1-0.4C45.6,22,45.6,21.6,45.5,21.8L45.5,21.8z"/>
<path class="st7" d="M45.9,22c-0.1,0.2,0.1,0.2-0.1,0.4c-0.1,0.2,0.1,0.3-0.1,0.5c-0.1,0.2,0.1,0.3-0.1,0.5
	c-0.1,0.2,0.1,0.3-0.1,0.4c-0.1,0.1,0.1,0.3-0.1,0.4c-0.1,0.2,0.1,0.3-0.1,0.4c-0.1,0.2,0,0.3-0.1,0.4s0.1,0.3-0.1,0.5
	s0,0.3-0.1,0.4c0.2-0.1,0.1-0.3,0.2-0.3c0.1,0,0-0.4,0.1-0.5s-0.1-0.3,0-0.5c0.2-0.2,0-0.3,0.1-0.5c0.1-0.1,0-0.3,0-0.4
	c0.1-0.2-0.1-0.3,0-0.4c0.1-0.2,0-0.3,0.1-0.4c0.1-0.2,0-0.3,0-0.4C46,22.4,46.1,22.1,45.9,22L45.9,22z"/>
<path class="st7" d="M46.4,22.1c-0.1,0.2,0.1,0.3,0,0.5s0.1,0.3,0,0.5s0.1,0.4,0,0.6c-0.1,0.3,0.1,0.3,0,0.6c-0.1,0.3,0.1,0.5,0,0.7
	s0.2,0.3,0,0.5c-0.1,0.1,0,0.4,0.1,0.1s-0.1-0.4,0-0.5s0-0.5,0-0.7s-0.1-0.5,0-0.7s-0.1-0.4,0-0.6s0-0.4,0-0.5
	c0.1-0.1-0.1-0.3,0-0.4C46.6,22.2,46.5,21.9,46.4,22.1L46.4,22.1z"/>
<path class="st8" d="M47.5,21.3c0-1.6-0.2-2.1-1-2.1s-1,0.5-1,2.1H47.5L47.5,21.3z"/>
<path d="M45.4,21.3c0-1.6,0.2-2.1,1-2.1c-0.4,0-0.6,0.3-0.7,0.5c-0.1,0.2,0,0.2,0.1,0.1s0,0.1,0,0.2c-0.1,0.1-0.1,0.3,0,0.3
	c0.1-0.1,0.2,0,0.1,0.2c-0.1,0.1-0.2,0.5-0.1,0.4c0.1-0.1,0.1,0.1,0.1,0.2c-0.1,0.1-0.1,0.2,0,0.1c0.1,0,0,0.2,0,0.2h-0.5
	C45.4,21.4,45.4,21.3,45.4,21.3z"/>
<path d="M47.3,21.2c0-1.2-0.2-1.6-0.5-1.7c-0.2-0.1-0.2-0.1-0.1,0.1c0.1,0.1,0.1,0.3,0,0.2c-0.1-0.1-0.1-0.1-0.1-0.1
	s0.1,0.3,0.2,0.5c0.1,0.2,0,0.3-0.1,0.1c-0.1-0.2-0.1,0,0,0.1c0.1,0.2,0.1,0.7,0.1,1L47.3,21.2L47.3,21.2z"/>
<path class="st8" d="M46.4,21.5c0.3,0,0.7-0.1,0.9-0.2c0.3-0.1,0.3-0.2,0.2-0.3c-0.1-0.1-0.2,0-0.4,0c-0.1,0.1-0.5,0.1-0.8,0.1
	c-0.2,0-0.6,0-0.8-0.1c-0.1-0.1-0.3-0.1-0.4,0c-0.1,0.1-0.1,0.2,0.2,0.3C45.7,21.4,46.1,21.5,46.4,21.5z"/>
<path class="st9" d="M49.6,19.4c0,0,0.2,0.4,0.4,0.6c0.2,0.3,0.3,0.3,0.4,0.3c0.1-0.1,0-0.3-0.1-0.4s-0.6-0.6-0.6-0.6L49.6,19.4
	L49.6,19.4z"/>
<path class="st9" d="M49.5,19.4c0,0,0.1,0.4,0.1,0.7c0.1,0.3,0.2,0.4,0.3,0.4s0.1-0.3,0.1-0.4C49.9,20,49.6,19.3,49.5,19.4
	L49.5,19.4L49.5,19.4z"/>
<path class="st9" d="M49.5,19.5c0,0,0,0.4,0,0.7c0,0.3,0.1,0.4,0.2,0.4c0.1,0,0.2-0.2,0.1-0.4C49.8,20.1,49.6,19.4,49.5,19.5
	L49.5,19.5L49.5,19.5z"/>
<path class="st9" d="M49.3,19.4c0,0-0.2,0.4-0.4,0.6c-0.2,0.3-0.3,0.3-0.4,0.3c-0.1-0.1,0-0.3,0.1-0.4s0.6-0.6,0.6-0.6L49.3,19.4
	L49.3,19.4z"/>
<path class="st9" d="M49.4,19.4c0,0-0.1,0.4-0.1,0.7c-0.1,0.3-0.2,0.4-0.3,0.4s-0.1-0.3-0.1-0.4C49,20,49.3,19.3,49.4,19.4
	L49.4,19.4L49.4,19.4z"/>
<path class="st9" d="M49.5,19.5c0,0,0,0.4,0,0.7c0,0.3-0.1,0.4-0.2,0.4c-0.1,0-0.2-0.2-0.1-0.4C49.2,20.1,49.4,19.4,49.5,19.5
	L49.5,19.5L49.5,19.5z"/>
<path class="st9" d="M49.7,16.1c0,0,0.3-0.4,1-0.7c0.6-0.4,1.1-0.7,1.1-0.6c0,0.1-0.5,0.4-1,0.7c-0.4,0.3-1,0.7-1,0.7L49.7,16.1
	L49.7,16.1z"/>
<path class="st9" d="M49.7,16.4c0,0,0.3-0.2,1-0.5c0.7-0.3,1.6-0.2,1.6-0.1c-0.1,0.1-0.9,0.1-1.4,0.3c-0.5,0.2-1,0.5-1,0.5
	L49.7,16.4L49.7,16.4z"/>
<path class="st9" d="M49.7,16.9c0,0,0.3-0.1,1-0.4c0.7-0.2,1.6-0.1,1.6,0c-0.1,0.1-0.8,0-1.4,0.1c-0.5,0.1-1.1,0.4-1.1,0.4
	L49.7,16.9L49.7,16.9z"/>
<path class="st9" d="M49.8,17.4c0,0,0.3-0.3,1.1-0.4c0.7-0.1,1.4,0.4,1.4,0.4c-0.1,0.1-0.8-0.3-1.3-0.3c-0.6,0.1-1,0.3-1,0.3H49.8
	L49.8,17.4z"/>
<path class="st9" d="M49.6,15.8c0,0,0.6-0.4,0.6-0.7s-0.2-0.6-0.3-0.7c0.1,0,0.5,0.4,0.5,0.7s-0.5,0.8-0.5,0.8L49.6,15.8L49.6,15.8z
	"/>
<path class="st9" d="M49.6,15.8c0,0-0.1-0.2-0.1-0.7s0.3-0.8,0.4-1c0,0.1-0.3,0.5-0.3,1c0,0.3,0.1,0.8,0.1,0.8L49.6,15.8L49.6,15.8z
	"/>
<path class="st9" d="M49.2,16.1c0,0-0.3-0.4-1-0.7c-0.6-0.4-1.1-0.7-1.1-0.6c0,0.1,0.5,0.4,1,0.7s1,0.7,1,0.7L49.2,16.1L49.2,16.1z"
	/>
<path class="st9" d="M49.2,16.4c0,0-0.3-0.2-1-0.5c-0.7-0.3-1.6-0.2-1.6-0.1c0.1,0.1,0.9,0.1,1.4,0.3c0.5,0.2,1,0.5,1,0.5L49.2,16.4
	L49.2,16.4z"/>
<path class="st9" d="M49.2,16.9c0,0-0.3-0.1-1-0.4c-0.7-0.2-1.6-0.1-1.6,0c0.1,0.1,0.8,0,1.4,0.1c0.5,0.1,1.1,0.4,1.1,0.4L49.2,16.9
	L49.2,16.9z"/>
<path class="st9" d="M49.1,17.4c0,0-0.3-0.3-1.1-0.4c-0.7-0.1-1.4,0.4-1.4,0.4c0.1,0.1,0.8-0.3,1.3-0.3c0.6,0.1,1,0.3,1,0.3H49.1
	L49.1,17.4z"/>
<path class="st9" d="M49.3,15.8c0,0-0.6-0.4-0.6-0.7s0.2-0.6,0.3-0.7c-0.1,0-0.5,0.4-0.5,0.7s0.5,0.8,0.5,0.8L49.3,15.8L49.3,15.8z"
	/>
<path class="st9" d="M49.3,15.8c0,0,0.1-0.2,0.1-0.7s-0.3-0.8-0.4-1c0,0.1,0.3,0.5,0.3,1c0,0.3-0.1,0.8-0.1,0.8L49.3,15.8L49.3,15.8
	z"/>
<path class="st9" d="M51.3,21.1c-0.2-0.5-0.3-1.4-0.3-1.6c0-0.4,0.1-2.4,0.1-3.3c0-0.8-0.5-1.3-1-1.3c-0.4,0-0.7,0.3-0.7,0.7h0.2
	c0-0.3,0.2-0.5,0.5-0.5c0.4,0,0.7,0.3,0.8,1c0,0.8-0.1,2.9-0.1,3.4C50.9,20.3,51.1,20.8,51.3,21.1L51.3,21.1z"/>
<path class="st9" d="M47.6,21.1c0.2-0.5,0.3-1.4,0.3-1.6c0-0.4-0.1-2.4-0.1-3.3c0-0.8,0.5-1.3,1-1.3c0.4,0,0.7,0.3,0.7,0.7h-0.2
	c0-0.3-0.2-0.5-0.5-0.5c-0.4,0-0.7,0.3-0.8,1c0,0.8,0.1,2.9,0.1,3.4C48,20.3,47.8,20.8,47.6,21.1L47.6,21.1z"/>
<path class="st9" d="M49.5,19.4c0.4,0,0.4-0.1,0.4-0.1s0.1-0.3,0-0.4c0-0.1-0.5-0.1-0.5-0.1L49.5,19.4L49.5,19.4z"/>
<path class="st9" d="M49.5,19.1c0.4,0,0.5-0.1,0.5-0.1s0.1-0.3,0.1-0.4c-0.1-0.1-0.6-0.1-0.6-0.1V19.1L49.5,19.1z"/>
<path class="st9" d="M49.5,18.8c0.4,0,0.6-0.1,0.6-0.1s0.1-0.3,0.1-0.4c-0.1-0.1-0.6-0.1-0.6-0.1L49.5,18.8L49.5,18.8z"/>
<path class="st9" d="M49.5,18.5c0.6,0,0.6-0.2,0.6-0.2s0.1-0.3,0.1-0.4c-0.1-0.1-0.7,0-0.7,0L49.5,18.5L49.5,18.5z"/>
<path class="st9" d="M49.5,18.2c0.6,0,0.7-0.1,0.7-0.1s0.1-0.3,0.1-0.4c-0.1-0.1-0.8-0.1-0.8-0.1V18.2L49.5,18.2z"/>
<path class="st9" d="M49.5,17.8c0.6,0,0.8-0.1,0.8-0.1s0.1-0.3,0.1-0.4c-0.1-0.1-0.8-0.1-0.8-0.1L49.5,17.8L49.5,17.8z"/>
<path class="st9" d="M49.5,17.4c0.6,0,0.8-0.1,0.8-0.1s0.1-0.3,0-0.4s-0.8-0.1-0.8-0.1V17.4z"/>
<path class="st9" d="M49.5,17.1c0.6,0,0.8-0.1,0.8-0.1s0-0.3-0.1-0.4s-0.8-0.1-0.8-0.1L49.5,17.1L49.5,17.1z"/>
<path class="st9" d="M49.5,16.7c0.6,0,0.8-0.1,0.8-0.1s0-0.3-0.1-0.4s-0.7-0.1-0.7-0.1V16.7L49.5,16.7z"/>
<path class="st9" d="M49.5,15.8c0.5,0,0.7,0.4,0.7,0.4L50,16.3c-0.1,0.1-0.6,0.1-0.6,0.1L49.5,15.8L49.5,15.8z"/>
<path class="st9" d="M49.5,19.4c-0.4,0-0.4-0.1-0.4-0.1s-0.1-0.3,0-0.4c0-0.1,0.5-0.1,0.5-0.1L49.5,19.4L49.5,19.4z"/>
<path class="st9" d="M49.5,19.1C49,19.1,49,19,49,19s-0.1-0.3-0.1-0.4c0.1-0.1,0.6-0.1,0.6-0.1V19.1L49.5,19.1z"/>
<path class="st9" d="M49.5,18.8c-0.4,0-0.6-0.1-0.6-0.1s-0.1-0.3-0.1-0.4c0.1-0.1,0.6-0.1,0.6-0.1L49.5,18.8L49.5,18.8z"/>
<path class="st9" d="M49.5,18.5c-0.6,0-0.6-0.2-0.6-0.2s-0.1-0.3-0.1-0.4c0.1-0.1,0.7,0,0.7,0L49.5,18.5L49.5,18.5z"/>
<path class="st9" d="M49.5,18.2c-0.6,0-0.7-0.1-0.7-0.1s-0.1-0.3-0.1-0.4c0.1-0.1,0.8-0.1,0.8-0.1V18.2L49.5,18.2z"/>
<path class="st9" d="M49.5,17.8c-0.6,0-0.8-0.1-0.8-0.1s-0.1-0.3-0.1-0.4c0.1-0.1,0.8-0.1,0.8-0.1L49.5,17.8L49.5,17.8z"/>
<path class="st9" d="M49.5,17.4c-0.6,0-0.8-0.1-0.8-0.1s-0.1-0.3,0-0.4s0.8-0.1,0.8-0.1V17.4z"/>
<path class="st9" d="M49.5,17.1c-0.6,0-0.8-0.1-0.8-0.1s0-0.3,0.1-0.4s0.8-0.1,0.8-0.1L49.5,17.1L49.5,17.1z"/>
<path class="st9" d="M49.5,16.7c-0.6,0-0.8-0.1-0.8-0.1s0-0.3,0.1-0.4s0.7-0.1,0.7-0.1V16.7L49.5,16.7z"/>
<path class="st9" d="M49.5,15.8c-0.5,0-0.7,0.4-0.7,0.4l0.1,0.1c0.1,0.1,0.6,0.1,0.6,0.1L49.5,15.8L49.5,15.8z"/>
<path class="st1" d="M7.8,7.3H9L0.9,2.6l0,0C0.8,2.8,0.7,3,0.6,3.1L7.8,7.3z"/>
<path class="st1" d="M32.1,18.2C32.1,18.2,32.1,18.3,32.1,18.2L32.1,18.2c0-0.1,0.1-0.2,0.1-0.3v-0.2l-9-5.2h-1L32.1,18.2z"/>
<path class="st1" d="M18.2,13.3l12.4,7.1c0.5-0.3,0.9-0.7,1.2-1.1L20,12.5h-1.8V13.3z"/>
<path class="st1" d="M1.6,1.8l9.6,5.5H13V6.6L2.9,0.8l0,0C2.4,1,2,1.4,1.6,1.8z"/>
<path class="st10" d="M9.2,7.3h2L1.6,1.8C1.4,2,1.1,2.3,0.9,2.6l0,0L9.2,7.3z"/>
<path class="st10" d="M22.2,12.5h-2.1l11.7,6.7c0.2-0.3,0.3-0.6,0.3-0.9v-0.1L22.2,12.5z"/>
<path class="st1" d="M0.1,20.1c0.1,0.1,0.2,0.1,0.4,0.2L13,13.2v-0.5L0.1,20.1z"/>
<polygon class="st1" points="11.1,12.5 7.9,12.5 0,17 0,19 "/>
<polygon class="st1" points="18.2,7.2 30.8,0 29.7,0 18.2,6.6 "/>
<path class="st1" d="M23.2,7.3l9-5.2V2c-0.1-0.6-0.2-1-0.4-1.4L20.1,7.3H23.2z"/>
<path class="st10" d="M0.1,20.1L13,12.7v-0.2h-1.7L0,19v1L0.1,20.1L0.1,20.1z"/>
<path class="st10" d="M18.2,7.2L18.2,7.2l1.9,0.1l11.7-6.7c-0.1-0.2-0.3-0.4-0.5-0.6h-0.6L18.2,7.2z"/>
<polygon class="st1" points="17.1,8.3 32.1,8.3 32.1,7.3 23.2,7.3 20.1,7.3 18.2,7.3 18.2,7.2 18.2,6.6 18.2,0 17.1,0 "/>
<polygon class="st1" points="14,8.3 14,0 13,0 13,6.6 13,7.3 11.2,7.3 9.2,7.3 9,7.3 7.8,7.3 0,7.3 0,8.3 "/>
<polygon class="st1" points="17.1,20.8 18.2,20.8 18.2,13.3 18.2,12.5 20,12.5 20.1,12.5 22.2,12.5 23.2,12.5 32.1,12.5 32.1,11.4 
	17.1,11.4 "/>
<polygon class="st1" points="11.1,12.5 11.3,12.5 13,12.5 13,12.7 13,13.2 13,20.8 14,20.8 14,11.4 0,11.4 0,12.5 7.9,12.5 "/>
<polygon class="st10" points="17.1,0 14,0 14,8.3 0,8.3 0,11.4 14,11.4 14,20.8 17.1,20.8 17.1,11.4 32.1,11.4 32.1,8.3 17.1,8.3 
	"/>
</svg>
