<?xml version="1.0" encoding="utf-8"?>
<!-- Generator: Adobe Illustrator 20.0.0, SVG Export Plug-In . SVG Version: 6.00 Build 0)  -->
<svg version="1.1" id="Layer_1" xmlns="http://www.w3.org/2000/svg" xmlns:xlink="http://www.w3.org/1999/xlink" x="0px" y="0px"
	 viewBox="0 0 64 42" style="enable-background:new 0 0 64 42;" xml:space="preserve">
<style type="text/css">
	.st0{fill:#FFFFFF;}
	.st1{fill:#369443;stroke:#010002;stroke-width:0.1615;stroke-miterlimit:10;}
	.st2{fill:#F4C53D;stroke:#010002;stroke-width:0.1615;stroke-miterlimit:10;}
	.st3{fill:none;stroke:#010002;stroke-width:0.1615;stroke-miterlimit:10;}
	.st4{fill:#F4C53D;stroke:#010002;stroke-width:0.1615;}
	.st5{fill:#F6E200;stroke:#010002;stroke-width:0.1615;}
	.st6{fill:none;stroke:#010002;stroke-width:0.1615;}
	.st7{fill:#0081C6;stroke:#010002;stroke-width:0.1615;stroke-miterlimit:10;}
	.st8{fill:#FFFFFF;stroke:#010002;stroke-width:0.1615;}
	.st9{fill:#A60032;stroke:#010002;stroke-width:0.1615;}
	.st10{fill:none;}
	.st11{fill:#162667;stroke:#010002;stroke-width:0.1615;stroke-miterlimit:10;}
</style>
<path id="SVGID_1_" class="st0" d="M5.8,0h52.4C61.4,0,64,2.5,64,5.7v30.6c0,3.1-2.6,5.7-5.8,5.7H5.8C2.6,42,0,39.5,0,36.3V5.7
	C0,2.5,2.6,0,5.8,0z"/>
<g>
	<path id="path5" class="st1" d="M19.6,29.1c0,0-0.1-0.4,0.7-0.7c0.7-0.3,0.8-1.3,0.6-2c0,0-0.4,0.7-0.8,0.9c0,0-0.7,0.4-0.8,1.1
		c0,0,0,0.3-0.1,0.5c0,0.1-0.4-0.9,0.3-1.7c0.6-0.8,0.8-1.4,0.3-2.7c0,0,0,0.8-0.5,1.2c-0.5,0.4-0.6,0.5-0.6,1.5c0,0,0,0.4-0.2,0.5
		c0,0-0.4-0.6-0.5-0.9c-0.1-0.4-0.2-0.5,0.3-1c0,0,1.4-0.9,0.4-2.9c0,0,0,0.7-0.5,1.1c-0.5,0.4-0.5,0.7-0.5,1.4
		c0,0.7-0.1,0.7-0.1,0.8c0,0-0.9-1.7-0.2-2.6c0.7-0.9,1.1-1.1,0.3-2.7c0,0,0,0.8-0.6,1.3c-0.6,0.4-0.5,1.4-0.5,1.4s0,0.4-0.1,0.6
		c0,0-0.9-1.7,0-2.6c0.7-0.8,0.8-1.3,0.4-2.4c0,0,0,0.5-0.4,0.8c-0.4,0.3-0.7,0.6-0.6,1.6c0,0,0,0.7-0.1,1c0,0-0.4-0.7-0.5-1.1
		c-0.1-0.4-0.1-0.7,0.1-1.1c0.3-0.4,1.3-1.7,0.1-3.5c0,0,0,0.6-0.4,1.1c-0.3,0.5-0.2,1.2-0.1,1.7c0.1,0.5-0.2,1-0.2,1
		s-0.6-1-0.4-2.2c0.1-1.2-0.4-2.1-1.4-2.8c0,0-0.8,1.8,0.3,2.8c0,0,0.9,0.9,1.1,2c0,0-0.7-0.1-1.3-1.3c-0.6-1.2-1.9-1-2-1
		c0,0,0.2,1.9,2.2,2.4c0,0,1.3,0.2,1.5,1.2c0,0,0.2,0.6,0.3,1c0,0-0.4-0.2-0.8-0.7C14,21.1,14,21,12.8,20.9c0,0-0.5-0.1-0.8-0.4
		c0,0,0.5,2,1.9,2c0,0,1.2-0.1,1.9,1.5c0,0-0.1-0.1-0.3-0.2c-0.2-0.1-0.6-0.4-1.6-0.3c-0.9,0.1-1.2,0-1.4-0.1c0,0,0.9,1.7,2.2,1.2
		c1.3-0.5,1.9,1.3,1.9,1.4c0,0-0.2-0.1-0.4-0.4c-0.2-0.2-0.7-0.5-1.6-0.2c0,0-0.7,0.3-1.3,0.1c0,0,0.6,1.2,2.1,1
		c1.5-0.2,1.9,1.1,1.9,1.1s-0.2-0.1-0.3-0.2c-0.1-0.1-0.6-0.4-1.7-0.1c-1.1,0.3-1.5-0.1-1.5-0.1s0.6,1.1,1.7,1.2c0,0,0.6,0,0.9-0.1
		c0.3-0.1,1-0.3,1.5,0.5c0,0-0.1,0-0.3-0.1c0,0-0.8-0.3-1.3,0.2c0,0-0.5,0.5-1.2,0.4c0,0,0.9,0.9,2.4,0.1c0,0,0.5-0.4,0.9-0.1
		C18.8,29.7,19.6,29.1,19.6,29.1z"/>
	<path id="path7" class="st2" d="M28,6.4c0,0-0.2-1.6,1.1-1.7C30.4,4.6,31,4.8,31,4.8L31.6,6l-0.2,0.8l-0.8,0.4c0,0,0.1-1.2-0.9-1.2
		c-0.3,0-0.4,0.1-0.9,0C28.3,5.9,28.1,6.4,28,6.4z"/>
	<path id="path9" class="st2" d="M36.7,10.3c-0.2,0.2-0.9,0.3-0.9,0.3s0.8,0.6,1.1,1.4c0.3,0.8-8.8,0-8.8,0s0.4-0.3,0.7-0.8
		c0,0-0.4,0.2-0.8-0.3c0,0,0.3,0.1,0.7-0.5c0,0,0.6-0.8,1-1c0,0-0.2,0.1-0.7-0.1c0,0,0.8-0.1,1.1-1.5c0,0,0-0.3,0.3-0.7
		c0.3-0.4,0.2,0.1,0.8-0.6c0,0,0.3-0.5,0-0.8s-0.5-0.2-0.9-0.5s-0.7-0.4-0.5-0.9c0.2-0.4,0.6-0.4,0.6-0.4c0.1,0,0.1-0.4,0.6-0.6
		c0.5-0.3,1.9-0.1,2.1,0c0.2,0.1,1,0.4,1.5,1.6c0.5,1.2-0.1,1.7,1.2,3.5c0,0-0.5,0.1-0.9,0C34.9,8.5,35.6,9.7,36.7,10.3z"/>
	<path id="path11" class="st3" d="M31.1,5.2c-1.1-0.1-0.7-1.1-0.7-1.1"/>
	<path id="path13" class="st2" d="M32.9,5.3c0,0-0.2-0.1-0.3-0.3c-0.2-0.3-0.7-0.4-1-0.2c0,0-0.3,0.3-0.5,0.3c0,0,0.3,0.1,0.5,0.3
		c0.2,0.2,0.4,0.3,0.7,0.3c0.3,0,0.3-0.2,0.5-0.3C32.8,5.4,32.9,5.3,32.9,5.3z"/>
	<path id="path15" class="st4" d="M39.8,20.4c0,0,1,0.8,1.8,0c0,0,0.3,0.4,1,0.3c0.7-0.1,0.8-0.5,0.8-0.7c0,0,0.6,0.3,1.1,0.1
		c0.5-0.3,0.5-0.7,0.5-0.7s0.8,0.2,1.3-0.4c0.4-0.6,0.2-1.1-0.1-1.2c0,0,0.9,0.2,1.2-0.5c0.2-0.7-0.3-1-0.3-1s1.9,0,2.7-0.6
		c0,0,0.7-0.4,0.3-0.8c0,0,1.7-0.3,2.2-1c0,0,0.2-0.2,0.1-0.5c0,0,0-0.2-0.2-0.2c0,0,2-0.3,2.6-1c0,0,0.3-0.3,0.1-0.7
		c0,0,0-0.1-0.1-0.2c0,0,1.8-0.4,2.7-1.2c0,0,0.5-0.5,0.2-1.1c0,0,3-0.8,2.3-2.2c0,0,1.4-0.5,1-1.7c0,0,1.2-0.6,0.7-1.5
		c-0.5-0.9-2,0.2-3.7,0.6c0,0-4.8,1.5-7.1,1.9l-6.7,10l-3.9,1.5L39.8,20.4z"/>
	<path id="path17" class="st4" d="M39.7,13c0,0,0.6-0.5,1.7,0.1c0,0,0.4,0.3,0.7,0c0.2-0.2,0.3-0.7-0.1-0.9
		c-0.8-0.6-1.1-2.5,0.1-3.2c0,0,1.8-1.1,8.6-2.8c0,0,0.6-0.2,0.9-0.1c0.3,0.1,0.6,0.4,0.6,0.6c0,0,0.3,0.9-0.7,1.4
		c0,0-0.5,0.2-0.9,0.3c0,0,0.5-0.1,0.7,0.4c0.2,0.5-0.1,1-1,1.3c0,0-0.3,0.1-0.6,0.2c0,0,0.8,0.2,0.4,0.9c0,0-0.3,0.7-1.6,0.8
		c0,0,0.9,0.1,0.3,1c0,0-0.3,0.5-1.2,0.7c0,0,0.7,0,0.3,0.6c-0.3,0.6-1.2,1-2,1c0,0-0.4,0-0.7,0c0,0,0.8,0.4,0.3,1
		c0,0-0.3,0.5-1.1,0.4c0,0,0.2,0.7-0.4,1c-0.5,0.2-0.9-0.1-0.9-0.1s0.2,0.8-0.5,1c0,0-0.3,0.2-0.8,0c0,0-0.4,0.9-1.8,0.3
		C38.7,18.2,39.7,13,39.7,13z"/>
	<path id="path19" class="st5" d="M36.2,15.6"/>
	<path id="path21" class="st6" d="M61,5.1c0,0-2.2,1.3-8.9,2.5"/>
	<path id="path23" class="st4" d="M22.2,27.3c0,0-0.8,1.4-1.8,1.4c0,0-1.7-0.2-2.1,0.2c-0.3,0.3-0.7,0.6-0.8,1.3
		c-0.1,0.8,0.3,0.9,0.4,1c0,0,0.1,0.6,0.6,0.4c0,0,0,0.6,1,0.3s1.4-0.2,1.6-1.2c0.2-1,0.4-1,0.5-1.1c0.2-0.2,0.7-0.3,1-0.5
		c0.3-0.2,1.4-0.7,1.8-0.8c0.4,0,0.3-1.3,0.3-1.3h-1l-0.5-0.7L22.2,27.3z"/>
	<path id="path25" class="st6" d="M60.1,6.8c0,0-5.9,1.9-8.6,2.2"/>
	<path id="path27" class="st6" d="M57.7,9c0,0-3.4,1.1-7.5,1.8"/>
	<path id="path29" class="st6" d="M54.8,11.2c0,0-3.9,0.9-5.8,1.1"/>
	<path id="path31" class="st3" d="M52.2,13.1c0,0-3.3,0.7-4.1,0.8"/>
	<polygon id="polygon33" class="st7" points="48.5,18.1 48.6,23.3 48.6,23.3 47.7,22.8 47.7,22.8 46.2,29.4 45.6,28.9 47,22.6 
		47,22.6 46,22.6 46,22.6 	"/>
	<path id="path35" class="st3" d="M50.1,14.8c0,0-2.4,0.4-3.4,0.3"/>
	<path id="path37" class="st3" d="M47.1,16.2c0,0-1,0-1.4-0.1"/>
	<path id="path39" class="st3" d="M46.2,17.8c0,0-0.8-0.2-1.3-0.5"/>
	<path id="path41" class="st3" d="M45,19.4c0,0-0.6-0.2-0.9-0.9"/>
	<path id="path43" class="st3" d="M43.4,20c0,0-0.5-0.4-0.5-0.9"/>
	<polygon id="polygon45" class="st7" points="54.4,20.4 52.3,25.1 52.3,25.1 51.7,24.2 51.7,24.2 47.1,29.6 46.6,29.1 51.2,23.7 
		51.2,23.7 50.2,23.2 50.2,23.2 	"/>
	<path id="path47" class="st3" d="M41.6,20.4c0,0,0.2-0.2,0.1-0.9"/>
	<polygon id="polygon49" class="st7" points="52.5,16.9 51.3,22 51.3,22 50.6,21.3 50.6,21.3 46.4,29.2 45.8,28.8 50,20.9 50,20.9 
		49,20.7 49,20.7 	"/>
	<path id="path51" class="st3" d="M41.8,18.5c0,0,0.1-0.2,0.1-0.5"/>
	<path id="path53" class="st4" d="M25.3,20.4c0,0-1,0.8-1.8,0c0,0-0.3,0.4-1,0.3c-0.7-0.1-0.8-0.5-0.8-0.7c0,0-0.6,0.3-1.1,0.1
		c-0.5-0.3-0.5-0.7-0.5-0.7s-0.8,0.2-1.3-0.4c-0.4-0.6-0.2-1.1,0.1-1.2c0,0-0.9,0.2-1.2-0.5c-0.2-0.7,0.3-1,0.3-1s-1.9,0-2.7-0.6
		c0,0-0.7-0.4-0.3-0.8c0,0-1.7-0.3-2.2-1c0,0-0.2-0.2-0.1-0.5c0,0,0-0.2,0.2-0.2c0,0-2-0.3-2.6-1c0,0-0.3-0.3-0.1-0.7
		c0,0,0-0.1,0.1-0.2c0,0-1.8-0.4-2.7-1.2c0,0-0.5-0.5-0.2-1.1c0,0-3-0.8-2.3-2.2c0,0-1.4-0.5-1-1.7c0,0-1.2-0.6-0.7-1.5
		c0.5-0.9,2,0.2,3.7,0.6c0,0,4.8,1.5,7.1,1.9l6.7,10l3.9,1.5L25.3,20.4z"/>
	<path id="path55" class="st3" d="M45.3,8.6c0,0-1.1,0.4-1.5,1.1c-0.4,0.6-0.1,1.2,0,1.6c0.1,0.2,0.8,1.7-0.1,2.8"/>
	<path id="path57" class="st4" d="M25.4,13c0,0-0.6-0.5-1.7,0.1c0,0-0.4,0.3-0.7,0c-0.2-0.2-0.3-0.7,0.1-0.9
		c0.8-0.6,1.1-2.5-0.1-3.2c0,0-1.8-1.1-8.6-2.8c0,0-0.6-0.2-0.9-0.1c-0.3,0.1-0.6,0.4-0.6,0.6c0,0-0.3,0.9,0.7,1.4
		c0,0,0.5,0.2,0.9,0.3c0,0-0.5-0.1-0.7,0.4c-0.2,0.5,0.1,1,1,1.3c0,0,0.3,0.1,0.6,0.2c0,0-0.8,0.2-0.4,0.9c0,0,0.3,0.7,1.6,0.8
		c0,0-0.9,0.1-0.3,1c0,0,0.3,0.5,1.2,0.7c0,0-0.7,0-0.3,0.6c0.3,0.6,1.2,1,2,1c0,0,0.4,0,0.7,0c0,0-0.8,0.4-0.3,1
		c0,0,0.3,0.5,1.1,0.4c0,0-0.2,0.7,0.4,1c0.5,0.2,0.9-0.1,0.9-0.1s-0.2,0.8,0.5,1c0,0,0.3,0.2,0.8,0c0,0,0.4,0.9,1.8,0.3
		C26.5,18.2,25.4,13,25.4,13z"/>
	<path id="path59" class="st3" d="M45.3,15.2c0,0,0,0-0.4-0.1"/>
	<path id="path61" class="st3" d="M47.6,13.6c0,0-0.7,0.1-1.3,0.1"/>
	<path id="path63" class="st3" d="M48.5,11.9c0,0-0.8,0.1-1.5,0.1"/>
	<path id="path65" class="st3" d="M49.7,10.2c0,0-1.1,0.2-1.7,0.2"/>
	<path id="path67" class="st3" d="M50.6,8.3c0,0-1.4,0.4-2.4,0.5"/>
	<path id="path69" class="st3" d="M45.9,9.7c0,0,1,0.9-0.2,1.8c0,0,0.5,0.8-0.5,1.6"/>
	<path id="path71" class="st4" d="M25.5,20.9c0,0-0.2,1.1-1.8,2.5c0,0-1.2,1.1-1.2,2.4c0,1.3-0.2,1.4-0.7,1.9c0,0,1,0.1,1.5-0.6
		c0,0,0,1.1-0.2,1.2c0,0,0.3,0,0.8-0.5c0,0,0.3-0.3,0.5-0.4c0,0-0.3,0.8-0.1,1.5c0,0,0.1-0.3,0.5-0.4c0,0,0.7-0.1,1-1.2
		c0,0,0.2-0.7,1.3-1.3c0,0,1.3-0.5,1.2-1.1C28.3,24.3,25.5,20.9,25.5,20.9z"/>
	<path id="path73" class="st3" d="M45.5,13.4c0,0,0.1,1.5-1.7,1.5c0,0,0.3,1.3-1.4,1.3c0,0-0.2,1.1-1.5,0.8"/>
	<path id="path75" class="st4" d="M42.9,27.3c0,0,0.8,1.4,1.8,1.4c0,0,1.7-0.2,2.1,0.2c0.3,0.3,0.7,0.6,0.8,1.3
		c0.1,0.8-0.3,0.9-0.4,1c0,0-0.1,0.6-0.6,0.4c0,0,0,0.6-1,0.3c-1-0.3-1.4-0.2-1.6-1.2c-0.2-1-0.4-1-0.5-1.1c-0.2-0.2-0.7-0.3-1-0.5
		c-0.3-0.2-1.4-0.7-1.8-0.8c-0.4,0-0.3-1.3-0.3-1.3h1l0.5-0.7L42.9,27.3z"/>
	<path id="path77" class="st4" d="M39.7,20.9c0,0,0.2,1.1,1.8,2.5c0,0,1.2,1.1,1.2,2.4c0,1.3,0.2,1.4,0.7,1.9c0,0-1,0.1-1.5-0.6
		c0,0,0,1.1,0.2,1.2c0,0-0.3,0-0.8-0.5c0,0-0.3-0.3-0.5-0.4c0,0,0.3,0.8,0.1,1.5c0,0-0.1-0.3-0.5-0.4c0,0-0.7-0.1-1-1.2
		c0,0-0.2-0.7-1.3-1.3c0,0-1.3-0.5-1.2-1.1C36.9,24.3,39.7,20.9,39.7,20.9z"/>
	<path id="path79" class="st6" d="M43.7,28.7c0,0,0.3,0.1,0.9,0"/>
	<path id="path81" class="st3" d="M46.4,29.5c0,0,0.9-0.1,0.8,1.8"/>
	<path id="path83" class="st3" d="M45.9,29.9c0,0,0.8-0.1,0.7,1.8"/>
	<path id="path85" class="st6" d="M38.2,25.5c0,0,0.4,0.1,0.6,0.4c0.3,0.3,0.8,0.2,0.8,0.2s-0.3-0.2-0.4-0.8
		c-0.1-0.6-0.4-0.7-0.4-0.7"/>
	<path id="path87" class="st6" d="M39.8,24.1c0,0,0.4,0.1,0.6,0.4c0.3,0.3,0.8,0.2,0.8,0.2s-0.3-0.2-0.4-0.8
		c-0.1-0.6-0.4-0.7-0.4-0.7"/>
	<path id="path89" class="st6" d="M40,26.2c0,0,0.3,0.1,0.6,0.3c0.2,0.3,0.7,0.2,0.7,0.2S41,26.6,41,26.1c-0.1-0.5-0.4-0.6-0.4-0.6"
		/>
	<path id="path91" class="st2" d="M33.8,35c0,0,0.3,1.3,1.3,1.2c0,0,0.7-0.1,0.7-1.2c0,0,1,0.6,1.2-0.8c0,0,1,0.2,0.9-1.1
		c0,0,0.9,0.2,0.8-1c0,0,1,0.3,1-0.8c0,0,2.3-0.4-2.4-4.7L33,29L33.8,35z"/>
	<path id="path93" class="st4" d="M33.3,29.3c0,0,0.7,0.6,1.2-0.3c0,0,0.7,0,0.8-0.5c0,0,0.6-0.1,0.7-0.6c0,0,0.8-0.1,0.7-0.7
		c0,0,1.4-0.1,0-1.7C35.3,23.9,33,28,33,28L33.3,29.3z"/>
	<path id="path95" class="st3" d="M35.8,34.9c0,0-0.1-2.2-2-5.5"/>
	<path id="path97" class="st3" d="M37,34.1c0,0,0.3-1.3-2.4-5.1c0,0,0.3-0.9-0.7-1.5"/>
	<path id="path99" class="st3" d="M37.9,33c0,0,0.1-1.4-2.6-4.6c0,0,0.2-0.8-0.7-1.5"/>
	<path id="path101" class="st3" d="M38.7,32c0,0-0.1-1.4-2.7-4.2c0,0,0.1-0.8-0.8-1.4"/>
	<path id="path103" class="st3" d="M39.7,31.2c0,0-0.2-1.6-3-4.1c0,0,0.1-0.6-0.8-1.3"/>
	<path id="path105" class="st2" d="M31.3,35c0,0-0.3,1.3-1.3,1.2c0,0-0.7-0.1-0.7-1.2c0,0-1,0.6-1.2-0.8c0,0-1,0.2-0.9-1.1
		c0,0-0.9,0.2-0.8-1c0,0-1,0.3-1-0.8c0,0-2.3-0.4,2.4-4.7l4.2,2.5L31.3,35z"/>
	<path id="path107" class="st4" d="M31.8,29.3c0,0-0.7,0.6-1.2-0.3c0,0-0.7,0-0.8-0.5c0,0-0.6-0.1-0.7-0.6c0,0-0.8-0.1-0.7-0.7
		c0,0-1.4-0.1,0-1.7c1.4-1.5,3.7,2.6,3.7,2.6L31.8,29.3z"/>
	<path id="path109" class="st3" d="M29.4,34.9c0,0,0.1-2.2,2-5.5"/>
	<path id="path111" class="st3" d="M28.2,34.1c0,0-0.3-1.3,2.4-5.1c0,0-0.3-0.9,0.7-1.5"/>
	<path id="path113" class="st4" d="M32.6,28.9c0.7,0,1.4,4.2,1.2,6.8c-0.1,0.9-0.6,1.7-1.2,1.7c-0.7,0-1.2-0.8-1.2-1.7
		C31.1,33.1,31.9,28.9,32.6,28.9"/>
	<path id="path115" class="st3" d="M27.2,33c0,0-0.1-1.4,2.6-4.6c0,0-0.2-0.8,0.7-1.5"/>
	<path id="path117" class="st3" d="M26.4,32c0,0,0.1-1.4,2.7-4.2c0,0-0.1-0.8,0.8-1.4"/>
	<ellipse id="ellipse119" class="st4" cx="32.6" cy="28.8" rx="0.9" ry="1.4"/>
	<path id="path121" class="st3" d="M25.5,31.2c0,0,0.2-1.6,3-4.1c0,0-0.1-0.6,0.8-1.3"/>
	<path id="path123" class="st8" d="M32.6,28.5c0,0,8-3.5,8-11.7H24.6C24.6,25,32.6,28.5,32.6,28.5z"/>
	<line id="line125" class="st3" x1="28.3" y1="16.9" x2="29.5" y2="16.9"/>
	<line id="line127" class="st3" x1="25.8" y1="16.9" x2="27" y2="16.9"/>
	<line id="line129" class="st3" x1="30.7" y1="16.9" x2="32" y2="16.9"/>
	<path id="path131" class="st9" d="M25.8,16.9v5.2c0,0,0.6,1.2,1.2,2v-7.2H25.8L25.8,16.9z"/>
	<path id="path133" class="st9" d="M28.3,16.9v8.6c0,0,0.8,0.8,1.2,1.1v-9.7H28.3z"/>
	<path id="path135" class="st9" d="M30.7,16.9v10.6c0,0,0.9,0.6,1.2,0.8V16.9L30.7,16.9L30.7,16.9z"/>
	<line id="line137" class="st6" x1="25.8" y1="16.9" x2="27" y2="16.9"/>
	<line id="line139" class="st6" x1="28.3" y1="16.9" x2="29.5" y2="16.9"/>
	<line id="line141" class="st6" x1="30.7" y1="16.9" x2="32" y2="16.9"/>
	<path id="path143" class="st9" d="M39.3,16.9v5.2c0,0-0.6,1.2-1.2,2v-7.2H39.3z"/>
	<path id="path145" class="st9" d="M36.9,16.9v8.6c0,0-0.8,0.8-1.2,1.1v-9.7H36.9z"/>
	<path id="path147" class="st9" d="M34.4,16.9v10.6c0,0-0.9,0.6-1.2,0.8V16.9L34.4,16.9L34.4,16.9z"/>
	<line id="line149" class="st10" x1="41" y1="36.4" x2="40.2" y2="37.3"/>
	<line id="line151" class="st10" x1="39.3" y1="36.3" x2="41.3" y2="38.2"/>
	<path id="path153" class="st7" d="M45.4,31.6l-0.3,1.3l0,0l0.8,0.8l0,0l-1.2,5.1l-1.1-1.4l-1.6,0.7l1.2-5.1l0,0l1.1-0.3l0,0
		l0.3-1.3C44.7,31.5,45,31.3,45.4,31.6z"/>
	<path id="path155" class="st7" d="M45.7,30.8l-0.6,1.1l0,0l0.6,1l0,0l-2.4,4.6l-0.7-1.7l-1.7,0.3l2.4-4.6l0,0l1.1,0l0,0l0.6-1.1
		C45.1,30.5,45.5,30.5,45.7,30.8z"/>
	<path id="path157" class="st7" d="M45.8,31.1l-1.6,2.1l0,0l0.4,1.2l0,0l-3.3,3.9l-0.3-1.8l-1.7-0.1l3.3-3.9l0,0l1.1,0.3l0,0
		l1.7-2.2C45.4,30.5,45.8,30.7,45.8,31.1z"/>
	<path id="path159" class="st3" d="M20.4,26.1"/>
	<path id="path161" class="st6" d="M4.1,5.1c0,0,2.2,1.3,8.9,2.5"/>
	<path id="path163" class="st6" d="M5.1,6.8c0,0,5.9,1.9,8.6,2.2"/>
	<path id="path165" class="st6" d="M7.4,9c0,0,3.4,1.1,7.5,1.8"/>
	<path id="path167" class="st6" d="M10.3,11.2c0,0,3.9,0.9,5.8,1.1"/>
	<path id="path169" class="st3" d="M12.9,13.1c0,0,3.3,0.7,4.1,0.8"/>
	<path id="path171" class="st3" d="M15,14.8c0,0,2.4,0.4,3.4,0.3"/>
	<path id="path173" class="st3" d="M18,16.2c0,0,1,0,1.4-0.1"/>
	<path id="path175" class="st3" d="M18.9,17.8c0,0,0.8-0.2,1.3-0.5"/>
	<path id="path177" class="st3" d="M20.1,19.4c0,0,0.6-0.2,0.9-0.9"/>
	<path id="path179" class="st3" d="M21.7,20c0,0,0.5-0.4,0.5-0.9"/>
	<path id="path181" class="st3" d="M23.5,20.4c0,0-0.2-0.2-0.1-0.9"/>
	<path id="path183" class="st3" d="M23.3,18.5c0,0-0.1-0.2-0.1-0.5"/>
	<path id="path185" class="st3" d="M19.8,8.6c0,0,1.1,0.4,1.5,1.1c0.4,0.6,0.1,1.2,0,1.6c-0.1,0.2-0.8,1.7,0.1,2.8"/>
	<path id="path187" class="st3" d="M19.8,15.2c0,0,0,0,0.4-0.1"/>
	<path id="path189" class="st3" d="M17.5,13.6c0,0,0.7,0.1,1.3,0.1"/>
	<path id="path191" class="st3" d="M16.6,11.9c0,0,0.8,0.1,1.5,0.1"/>
	<path id="path193" class="st1" d="M19.5,31.4c0,0,0-0.7,0.8-0.7l2.5,3.5c0,0-0.1,0.2-1.2,0.2c0,0-0.1,0-0.2,0.1
		C21.3,34.7,19.5,31.4,19.5,31.4z"/>
	<path id="path195" class="st3" d="M15.4,10.2c0,0,1.1,0.2,1.7,0.2"/>
	<path id="path197" class="st3" d="M14.5,8.3c0,0,1.4,0.4,2.4,0.5"/>
	<path id="path199" class="st3" d="M19.2,9.7c0,0-1,0.9,0.2,1.8c0,0-0.5,0.8,0.5,1.6"/>
	<path id="path201" class="st3" d="M19.6,13.4c0,0-0.1,1.5,1.7,1.5c0,0-0.3,1.3,1.4,1.3c0,0,0.2,1.1,1.5,0.8"/>
	<path id="path203" class="st6" d="M21.4,28.7c0,0-0.3,0.1-0.9,0"/>
	<path id="path205" class="st3" d="M18.7,29.5c0,0-0.9-0.1-0.8,1.8"/>
	<path id="path207" class="st3" d="M19.2,29.9c0,0-0.8-0.1-0.7,1.8"/>
	<path id="path209" class="st6" d="M26.9,25.5c0,0-0.4,0.1-0.6,0.4c-0.3,0.3-0.8,0.2-0.8,0.2s0.3-0.2,0.4-0.8
		c0.1-0.6,0.4-0.7,0.4-0.7"/>
	<path id="path211" class="st6" d="M25.4,24.1c0,0-0.4,0.1-0.6,0.4c-0.3,0.3-0.8,0.2-0.8,0.2s0.3-0.2,0.4-0.8
		c0.1-0.6,0.4-0.7,0.4-0.7"/>
	<path id="path213" class="st6" d="M25.1,26.2c0,0-0.3,0.1-0.6,0.3c-0.2,0.3-0.7,0.2-0.7,0.2s0.2-0.2,0.3-0.7
		c0.1-0.5,0.4-0.6,0.4-0.6"/>
	<path id="path215" class="st11" d="M40.5,10.9c0,0-3.9,2-8-0.2c-4.1,2.2-8,0.2-8,0.2v5.9h15.9V10.9L40.5,10.9z"/>
	<path id="path217" class="st7" d="M4.7,26.3c0.4-0.2,0.7-0.3,0.7-0.7c0-0.1-0.1-0.3-0.2-0.7L2.6,17c-0.2-0.5-0.3-0.8-0.3-0.9
		c-0.1-0.2-0.3-0.3-0.7-0.4H2h2.7H5c-0.4,0.2-0.7,0.3-0.7,0.7c0,0.1,0,0.3,0.1,0.6l2,6.2l2-6.2c0.1-0.3,0.1-0.5,0.1-0.6
		c0-0.4-0.3-0.5-0.7-0.7h0.3h2.6H11c-0.3,0.1-0.5,0.2-0.7,0.4c-0.1,0.1-0.2,0.4-0.3,0.9l-2.6,7.9c-0.1,0.3-0.1,0.6-0.2,0.7
		c0,0-0.1,0.5,0.7,0.7L4.7,26.3L4.7,26.3z"/>
	<path id="path219" class="st7" d="M60,25.5v-9c0-0.2,0-0.3-0.1-0.4c-0.1-0.1-0.3-0.3-0.6-0.5h0.3H62h0.3c-0.3,0.1-0.5,0.4-0.6,0.4
		c-0.1,0.1-0.1,0.2-0.1,0.4v9c0,0.2,0,0.3,0.1,0.4c0.1,0.1,0.3,0.3,0.6,0.4H62h-2.3h-0.3c0.3-0.1,0.5-0.4,0.6-0.5
		C60,25.8,60,25.6,60,25.5z"/>
</g>
</svg>
