<?xml version="1.0" encoding="utf-8"?>
<!-- Generator: Adobe Illustrator 20.0.0, SVG Export Plug-In . SVG Version: 6.00 Build 0)  -->
<svg version="1.1" id="Layer_1" xmlns="http://www.w3.org/2000/svg" xmlns:xlink="http://www.w3.org/1999/xlink" x="0px" y="0px"
	 viewBox="0 0 64 42" style="enable-background:new 0 0 64 42;" xml:space="preserve">
<style type="text/css">
	.st0{fill:#000066;}
	.st1{fill:#BD1021;}
	.st2{fill:#F5F7FA;}
	.st3{fill:#472B13;}
</style>
<path class="st0" d="M58.1,0H5.8C2.6,0,0,2.6,0,5.7v13.9C21,13.9,41.9,8.1,62.9,2.3C61.8,0.9,60.1,0,58.1,0z"/>
<path class="st0" d="M0,36.3C0,39.4,2.6,42,5.8,42h52.4c1.9,0,3.6-0.9,4.7-2.3C41.9,33,21,26.3,0,19.6V36.3z"/>
<path class="st1" d="M64,5.7c0-1.2-0.4-2.4-1.1-3.4C41.9,8.1,21,13.9,0,19.6C21,26.3,41.9,33,62.9,39.7c0.7-0.9,1.1-2.1,1.1-3.4V5.7
	z"/>
<path class="st2" d="M64,37.2V4.8c-18.2,5-36.4,10-54.7,15C27.6,25.6,45.8,31.4,64,37.2z"/>
<path class="st3" d="M61.8,19.1L61.8,19.1L61.8,19.1C61.7,19.1,61.7,19.1,61.8,19.1c0.3-0.3-0.1-0.5-0.1-0.5l0,0l0,0
	c0,0,0.1-0.5-0.2-0.5l0,0l0,0l0,0c0.1-0.4-0.7-0.5-0.7-0.5s-1.6,0.4-2.7,0.5l0,0l0,0c-0.1-0.1-1.9-0.4-1.9-0.4s2.5-1.5,2.7-1.7
	c0.2-0.2,0.1-0.3,0.1-0.3s0.3-0.1,0.3-0.4c0.2-0.2,0.2-0.5,0.2-0.5s0.4-0.1,0.3-0.4c0.5-0.2,0.4-0.6,0.4-0.6s0.3-0.3,0.2-0.6
	c0.3-0.2,0.2-0.6,0.2-0.6s0.3-0.3,0.1-0.7c0.4-0.6-0.2-0.6-0.2-0.6S59,12,58.2,12.1c-0.2-0.4-1.4,0.4-2.3,0.5c0,0,0.1-0.7-0.1-0.3
	c-0.1,0.3-2.5,1.1-2.5,1.1l0,0l0,0L53,12.9c0,0-0.2,0.5-0.8,0.7c-1.1,0.2-3.5,0.8-3.9,1.4c-0.3,0.7,0,0.9,0.1,1.2
	c-0.2,0.4-1.4,1-1.4,1s-0.9,0.8-0.4,1.3s1.5,0,1.8-0.2s0.6-0.2,0.9-0.1l0,0l0,0l0,0c-0.1,0.1-0.5,0.6-0.7,0.8s-2.9,1.4-3.1,1.6
	c-0.2,0.2-0.1,0.4-0.1,0.6c-0.1,0.2-0.2,0.4-0.2,0.4l0,0c0,0,0,0.1,0.1,0.2c-0.1-0.1-0.1-0.1-0.1-0.2l0,0c0,0-1.3,1.1,0,1.7
	c0.1-0.4,0.2-0.5,0.2-0.5s1.1,0.4,1.7-0.5l0,0l0,0c0,0,0.7-0.5,1.2-0.7s1.3-0.3,1.6-0.4c0.1,0,0.1,0,0.2-0.1l0,0h1.1
	c0,0,0.7,0.8,1.5,0.5c-1,0.4,0.1,0.7,0.1,0.7S52.7,22.8,53,23l0,0l0,0l0,0c-0.4,0.6,0,0.8,0,0.8s-0.2,0.4,0,0.6
	c-0.4,0.5-0.1,0.8-0.1,0.8l0,0l0,0l0,0c0,0-0.1,0.9-1,0.8s-1.6-1-1.8-1.1s-0.3,0.7-0.3,0.7l-2-0.5c0,0,0.2-0.5,0.1-0.6
	c0-0.1-0.5-0.1-0.5-0.1s0-0.2,0.1-0.4c-0.1-0.2-0.7-0.2-0.7-0.2l-0.3,1c0,0-0.6-0.5-1-1.1c-0.9,0.5-2.7,0.5-2.7,0.5l0,0
	c0,0,1.9,1,2.2,1.8c0.9-0.6,1.5-0.7,1.5-0.7s-0.2,1-0.2,1.1l0.7,0.2c0,0,0-0.7,0-0.6s0.5,0,0.5,0l0.1-0.5l1.9,0.4
	c0,0-0.2,0.6,0.1,0.8c0.6-0.5,1.8-0.3,1.7-0.3s-0.1,0.3-0.1,0.4s-0.7,0.4-0.8,0.4s0.1,0.2,0.1,0.2s-1.3,0-1.6-0.1
	c-0.1-0.2-0.6-0.8-1-0.1c-0.3-0.5-1.2-0.1-1.2-0.1s0,0.1-0.1-0.2c-0.8-0.1-0.9,0.7-0.9,0.7s0.7,0.6,1.2,1.2c0.9,0.2,1.1,0.1,1.4,0.5
	c1.2,0.1,2.1,0.4,2.3,1.1c0.6-0.7,1,0,1,0s0.3-0.2-0.4-0.7c1.2,0.3,1.7,1,1.8,1.1c0,0.1,0.3-0.2,0-0.7c1.1,1,1.6,0.6,1.6,0.6
	s-0.7-0.4-0.8-0.8c0.9,0.2,1.6,0,1.6,0s-0.8-0.2-1.4-0.6c1,0.1,1-0.5,1-0.4S53.5,29,53.5,29s0.5-0.9,0.1-0.5s-2.2,0.3-2.2,0.3
	s0.3-0.3,0.2-0.3s-3.7,0.1-3.2-0.2c0.5-0.2,0.2-0.3,0.2-0.3l0.1-0.2l2,0.1l0,0l0,0l0,0c0,0,0.2,0.4,0.5,0.1c0.1,0.3,0.5,0,0.5,0l0,0
	l0,0l0,0c0,0,0.2,0.4,0.5,0.1c0.3,0.5,0.6-0.1,0.6-0.1s4.6,0.3,4.9,0.3c0.2-0.1-0.1-0.5-0.1-0.5L53,27.4c0,0-0.2-0.3,0.1-0.2
	c0.3,0.1,0.7-0.4,0.7-0.4l4.2,1c0.4-0.2,0.2-0.5,0.2-0.5l-4.2-1c0,0,0,0.1-0.2-0.3c-0.2-0.5,0.4-1,0.4-1l0,0h0.1
	c0,0,0.7,0.8,0.5,0.5s0.1-0.8,0.1-0.8s0.3,0.2,0.7,0.2c-0.3-0.2-0.2-0.8-0.2-0.9l0,0l0,0c0,0,0,0,0.1,0c0.1,0.3,1,0.3,0.9,0.2
	c-0.1-0.1-0.5-0.5-0.6-1c0.4-0.1,0.9,0.4,0.9,0.4s0.1-0.3-0.1-0.8l0,0l0,0l0,0c0.7-0.2,0.9-0.7,0.9-0.7s-0.8,0.2-0.8,0.1
	c0.1-0.1,0.7-0.7,0.5-0.5s-0.8,0.1-0.8-0.1c0.5-0.1,1.3-0.6,1-0.5c-0.3,0-0.4-0.3-0.5-0.4s-0.4-0.2-0.4-0.2l0,0l0,0l0,0
	c0.1-0.1,1.6,0.1,1.6,0.1l0.1-0.1l2.9,0.6c0,0,0.3-0.4,0.2-0.6l0,0l0,0l0,0c0.4-0.1,0.3-0.7,0.3-0.7S62.2,19.6,61.8,19.1z M49.1,19
	L49.1,19L49.1,19L49.1,19z"/>
</svg>
