<?xml version="1.0" encoding="utf-8"?>
<!-- Generator: Adobe Illustrator 20.0.0, SVG Export Plug-In . SVG Version: 6.00 Build 0)  -->
<svg version="1.1" id="Layer_1" xmlns="http://www.w3.org/2000/svg" xmlns:xlink="http://www.w3.org/1999/xlink" x="0px" y="0px"
	 viewBox="0 0 64 42" style="enable-background:new 0 0 64 42;" xml:space="preserve">
<style type="text/css">
	.st0{fill:#00227D;}
	.st1{fill:#FFFFFF;}
	.st2{fill:#CF142B;}
</style>
<path id="Rounded_Rectangle_7_copy_2" class="st0" d="M5.8,0h52.4C61.4,0,64,2.5,64,5.7v30.6c0,3.1-2.6,5.7-5.8,5.7H5.8
	C2.6,42,0,39.5,0,36.3V5.7C0,2.5,2.6,0,5.8,0z"/>
<path class="st1" d="M7.8,7.3H9L0.9,2.6l0,0C0.8,2.8,0.7,3,0.6,3.1L7.8,7.3z"/>
<path class="st1" d="M32.1,18.2C32.1,18.2,32.1,18.3,32.1,18.2L32.1,18.2c0-0.1,0.1-0.2,0.1-0.3v-0.2l-9-5.2h-1L32.1,18.2z"/>
<path class="st1" d="M18.2,13.3l12.4,7.1c0.5-0.3,0.9-0.7,1.2-1.1L20,12.5h-1.8V13.3z"/>
<path class="st1" d="M1.6,1.8l9.6,5.5H13V6.6L2.9,0.8l0,0C2.4,1,2,1.4,1.6,1.8z"/>
<path class="st2" d="M9.2,7.3h2L1.6,1.8C1.4,2,1.1,2.3,0.9,2.6l0,0L9.2,7.3z"/>
<path class="st2" d="M22.2,12.5h-2.1l11.7,6.7c0.2-0.3,0.3-0.6,0.3-0.9v-0.1L22.2,12.5z"/>
<path class="st1" d="M0.1,20.1c0.1,0.1,0.2,0.1,0.4,0.2L13,13.2v-0.5L0.1,20.1z"/>
<polygon class="st1" points="11.1,12.5 7.9,12.5 0,17 0,19 "/>
<polygon class="st1" points="18.2,7.2 30.8,0 29.7,0 18.2,6.6 "/>
<path class="st1" d="M23.2,7.3l9-5.2V2c-0.1-0.6-0.2-1-0.4-1.4L20.1,7.3H23.2z"/>
<path class="st2" d="M0.1,20.1L13,12.7v-0.2h-1.7L0,19v1L0.1,20.1L0.1,20.1z"/>
<path class="st2" d="M18.2,7.2L18.2,7.2l1.9,0.1l11.7-6.7c-0.1-0.2-0.3-0.4-0.5-0.6h-0.6L18.2,7.2z"/>
<polygon class="st1" points="17.1,8.3 32.1,8.3 32.1,7.3 23.2,7.3 20.1,7.3 18.2,7.3 18.2,7.2 18.2,6.6 18.2,0 17.1,0 "/>
<polygon class="st1" points="14,8.3 14,0 13,0 13,6.6 13,7.3 11.2,7.3 9.2,7.3 9,7.3 7.8,7.3 0,7.3 0,8.3 "/>
<polygon class="st1" points="17.1,20.8 18.2,20.8 18.2,13.3 18.2,12.5 20,12.5 20.1,12.5 22.2,12.5 23.2,12.5 32.1,12.5 32.1,11.4 
	17.1,11.4 "/>
<polygon class="st1" points="11.1,12.5 11.3,12.5 13,12.5 13,12.7 13,13.2 13,20.8 14,20.8 14,11.4 0,11.4 0,12.5 7.9,12.5 "/>
<polygon class="st2" points="17.1,0 14,0 14,8.3 0,8.3 0,11.4 14,11.4 14,20.8 17.1,20.8 17.1,11.4 32.1,11.4 32.1,8.3 17.1,8.3 "/>
<g>
	<polygon class="st1" points="15.8,30.2 17.7,27.3 14.5,28.5 13.4,25.2 12.3,28.5 9.1,27.3 11,30.2 8,32 11.5,32.3 11,35.7 
		13.4,33.2 15.8,35.7 15.3,32.3 18.8,32 	"/>
	<polygon class="st1" points="51.5,33.6 52.4,32.2 50.8,32.8 50.3,31.2 49.8,32.8 48.3,32.2 49.2,33.6 47.8,34.4 49.4,34.6 
		49.2,36.2 50.3,35 51.5,36.2 51.2,34.6 52.9,34.4 	"/>
	<polygon class="st1" points="42.2,19 43.2,17.6 41.6,18.2 41.1,16.6 40.6,18.2 39,17.6 40,19 38.5,19.8 40.2,19.9 40,21.6 
		41.1,20.4 42.2,21.6 42,19.9 43.7,19.8 	"/>
	<polygon class="st1" points="49.4,9.9 49.2,11.6 50.3,10.4 51.5,11.6 51.2,9.9 52.9,9.8 51.5,9 52.4,7.6 50.8,8.2 50.3,6.6 
		49.8,8.2 48.3,7.6 49.2,9 47.8,9.8 	"/>
	<polygon class="st1" points="61.1,17.3 59.7,16.5 60.6,15.1 59,15.7 58.5,14.1 58,15.7 56.5,15.1 57.4,16.5 56,17.3 57.6,17.5 
		57.4,19.1 58.5,17.9 59.7,19.1 59.4,17.5 	"/>
	<polygon class="st1" points="54.4,22.5 54,21.5 53.6,22.5 52.6,22.6 53.4,23.3 53.1,24.3 54,23.7 54.9,24.3 54.7,23.3 55.5,22.6 	
		"/>
</g>
</svg>
