<?xml version="1.0" encoding="utf-8"?>
<!-- Generator: Adobe Illustrator 20.0.0, SVG Export Plug-In . SVG Version: 6.00 Build 0)  -->
<svg version="1.1" id="Layer_1" xmlns="http://www.w3.org/2000/svg" xmlns:xlink="http://www.w3.org/1999/xlink" x="0px" y="0px"
	 viewBox="0 0 64 42" style="enable-background:new 0 0 64 42;" xml:space="preserve">
<style type="text/css">
	.st0{fill:#00247C;}
	.st1{fill:#FFFFFF;}
	.st2{fill:#CF142B;}
</style>
<path id="SVGID_1_" class="st0" d="M5.8,0h52.3C61.4,0,64,2.6,64,5.7v30.6c0,3.2-2.6,5.7-5.8,5.7H5.8C2.6,42,0,39.4,0,36.3V5.7
	C0,2.6,2.6,0,5.8,0z"/>
<polygon class="st1" points="45.9,8.6 46.4,10 47.9,10 46.7,10.9 47.1,12.3 45.9,11.4 44.7,12.3 45.2,10.9 44,10 45.5,10 "/>
<polygon class="st1" points="50.1,9.4 50.6,10.8 52.1,10.8 50.9,11.7 51.3,13.1 50.1,12.2 48.9,13.1 49.4,11.7 48.2,10.8 49.7,10.8 
	"/>
<polygon class="st1" points="53.6,11.6 54.1,13 55.6,13 54.4,13.9 54.8,15.3 53.6,14.4 52.4,15.3 52.9,13.9 51.7,13 53.2,13 "/>
<polygon class="st1" points="56.1,14.9 56.6,16.3 58.1,16.3 56.9,17.1 57.3,18.6 56.1,17.7 54.9,18.6 55.4,17.1 54.2,16.3 
	55.7,16.3 "/>
<polygon class="st1" points="57.3,18.9 57.8,20.3 59.2,20.3 58,21.2 58.5,22.6 57.3,21.7 56.1,22.6 56.6,21.2 55.4,20.3 56.8,20.3 
	"/>
<polygon class="st1" points="56.9,23.2 57.4,24.6 58.8,24.6 57.6,25.5 58.1,26.9 56.9,26.1 55.7,26.9 56.2,25.5 55,24.6 56.4,24.6 
	"/>
<polygon class="st1" points="55,26.9 55.5,28.4 57,28.4 55.8,29.2 56.2,30.6 55,29.8 53.8,30.6 54.3,29.2 53.1,28.4 54.6,28.4 "/>
<polygon class="st1" points="52,29.7 52.4,31.1 53.9,31.1 52.7,32 53.2,33.4 52,32.5 50.8,33.4 51.2,32 50,31.1 51.5,31.1 "/>
<polygon class="st1" points="48.1,31.3 48.5,32.7 50,32.7 48.8,33.5 49.3,34.9 48.1,34.1 46.9,34.9 47.3,33.5 46.2,32.7 47.6,32.7 
	"/>
<polygon class="st1" points="43.7,31.3 44.2,32.7 45.7,32.7 44.5,33.5 44.9,34.9 43.7,34.1 42.5,34.9 43,33.5 41.8,32.7 43.3,32.7 
	"/>
<polygon class="st1" points="39.8,29.7 40.3,31.1 41.8,31.1 40.6,32 41,33.4 39.8,32.5 38.6,33.4 39.1,32 37.9,31.1 39.4,31.1 "/>
<polygon class="st1" points="36.8,26.9 37.3,28.4 38.7,28.4 37.6,29.2 38,30.6 36.8,29.8 35.6,30.6 36.1,29.2 34.9,28.4 36.4,28.4 
	"/>
<polygon class="st1" points="34.9,23.2 35.4,24.6 36.9,24.6 35.7,25.5 36.1,26.9 34.9,26.1 33.7,26.9 34.2,25.5 33,24.6 34.5,24.6 
	"/>
<polygon class="st1" points="34.5,18.9 35,20.3 36.5,20.3 35.3,21.2 35.7,22.6 34.5,21.7 33.3,22.6 33.8,21.2 32.6,20.3 34.1,20.3 
	"/>
<polygon class="st1" points="35.7,14.9 36.2,16.3 37.6,16.3 36.4,17.1 36.9,18.6 35.7,17.7 34.5,18.6 35,17.1 33.8,16.3 35.3,16.3 
	"/>
<polygon class="st1" points="38.2,11.6 38.7,13 40.1,13 38.9,13.9 39.4,15.3 38.2,14.4 37,15.3 37.5,13.9 36.3,13 37.7,13 "/>
<polygon class="st1" points="41.7,9.4 42.2,10.8 43.6,10.8 42.4,11.7 42.9,13.1 41.7,12.2 40.5,13.1 41,11.7 39.8,10.8 41.3,10.8 
	"/>
<polygon class="st1" points="45.9,8.6 46.4,10 47.9,10 46.7,10.9 47.1,12.3 45.9,11.4 44.7,12.3 45.2,10.9 44,10 45.5,10 "/>
<path class="st1" d="M7.8,7.3H9L0.9,2.6l0,0C0.8,2.8,0.7,3,0.6,3.1L7.8,7.3z"/>
<path class="st1" d="M32.1,18.2C32.1,18.2,32.1,18.3,32.1,18.2L32.1,18.2c0-0.1,0.1-0.2,0.1-0.3v-0.2l-9-5.2h-1L32.1,18.2z"/>
<path class="st1" d="M18.2,13.3l12.4,7.1c0.5-0.3,0.9-0.7,1.2-1.1L20,12.5h-1.8V13.3z"/>
<path class="st1" d="M1.6,1.8l9.6,5.5H13V6.6L2.9,0.8l0,0C2.4,1,2,1.4,1.6,1.8z"/>
<path class="st2" d="M9.2,7.3h2L1.6,1.8C1.4,2,1.1,2.3,0.9,2.6l0,0L9.2,7.3z"/>
<path class="st2" d="M22.2,12.5h-2.1l11.7,6.7c0.2-0.3,0.3-0.6,0.3-0.9v-0.1L22.2,12.5z"/>
<path class="st1" d="M0.1,20.1c0.1,0.1,0.2,0.1,0.4,0.2L13,13.2v-0.5L0.1,20.1z"/>
<polygon class="st1" points="11.1,12.5 7.9,12.5 0,17 0,19 "/>
<polygon class="st1" points="18.2,7.2 30.8,0 29.7,0 18.2,6.6 "/>
<path class="st1" d="M23.2,7.3l9-5.2V2c-0.1-0.6-0.2-1-0.4-1.4L20.1,7.3H23.2z"/>
<path class="st2" d="M0.1,20.1L13,12.7v-0.2h-1.7L0,19v1L0.1,20.1L0.1,20.1z"/>
<path class="st2" d="M18.2,7.2L18.2,7.2l1.9,0.1l11.7-6.7c-0.1-0.2-0.3-0.4-0.5-0.6h-0.6L18.2,7.2z"/>
<polygon class="st1" points="17.1,8.3 32.1,8.3 32.1,7.3 23.2,7.3 20.1,7.3 18.2,7.3 18.2,7.2 18.2,6.6 18.2,0 17.1,0 "/>
<polygon class="st1" points="14,8.3 14,0 13,0 13,6.6 13,7.3 11.2,7.3 9.2,7.3 9,7.3 7.8,7.3 0,7.3 0,8.3 "/>
<polygon class="st1" points="17.1,20.8 18.2,20.8 18.2,13.3 18.2,12.5 20,12.5 20.1,12.5 22.2,12.5 23.2,12.5 32.1,12.5 32.1,11.4 
	17.1,11.4 "/>
<polygon class="st1" points="11.1,12.5 11.3,12.5 13,12.5 13,12.7 13,13.2 13,20.8 14,20.8 14,11.4 0,11.4 0,12.5 7.9,12.5 "/>
<polygon class="st2" points="17.1,0 14,0 14,8.3 0,8.3 0,11.4 14,11.4 14,20.8 17.1,20.8 17.1,11.4 32.1,11.4 32.1,8.3 17.1,8.3 "/>
</svg>
