<?xml version="1.0" encoding="utf-8"?>
<!-- Generator: Adobe Illustrator 20.0.0, SVG Export Plug-In . SVG Version: 6.00 Build 0)  -->
<svg version="1.1" id="Layer_1" xmlns="http://www.w3.org/2000/svg" xmlns:xlink="http://www.w3.org/1999/xlink" x="0px" y="0px"
	 viewBox="0 0 64 42" style="enable-background:new 0 0 64 42;" xml:space="preserve">
<style type="text/css">
	.st0{fill:#ED5565;}
	.st1{fill:#DC241F;}
	.st2{fill:#FFC726;}
	.st3{fill:#57A863;}
	.st4{fill:#FFFFFF;}
</style>
<path class="st0" d="M58.1,0H5.8C2.6,0,0,2.6,0,5.7v30.6C0,39.4,2.6,42,5.8,42h52.4c3.2,0,5.8-2.5,5.8-5.7V5.7C64,2.6,61.4,0,58.1,0
	z"/>
<path class="st1" d="M58.1,0H5.8C4.5,0,3.3,0.4,2.3,1.2L41.9,21L2.3,40.8c1,0.7,2.2,1.2,3.5,1.2h52.4c3.2,0,5.8-2.5,5.8-5.7V5.7
	C64,2.6,61.4,0,58.1,0z"/>
<path class="st2" d="M2.3,1.2C2.2,1.3,2,1.4,1.9,1.5L28,21L2,40.5c0.1,0.1,0.2,0.2,0.4,0.3L41.9,21L2.3,1.2z"/>
<path d="M1.9,40.5L28,21L1.9,1.5C0.7,2.5,0,4,0,5.7v30.6C0,38,0.7,39.5,1.9,40.5z"/>
<path class="st3" d="M64,5.3v31.4c0-0.1,0-0.3,0-0.4V5.7C64,5.6,64,5.5,64,5.3z"/>
<polygon class="st4" points="16.3,14.3 13.9,20.4 18.9,24.6 12.4,24.2 10,30.2 8.3,23.9 1.8,23.5 7.3,20 5.7,13.7 10.7,17.8 "/>
</svg>
