<?xml version="1.0" encoding="utf-8"?>
<!-- Generator: Adobe Illustrator 20.0.0, SVG Export Plug-In . SVG Version: 6.00 Build 0)  -->
<svg version="1.1" id="Layer_1" xmlns="http://www.w3.org/2000/svg" xmlns:xlink="http://www.w3.org/1999/xlink" x="0px" y="0px"
	 viewBox="0 0 64 42" style="enable-background:new 0 0 64 42;" xml:space="preserve">
<style type="text/css">
	.st0{fill:#CE1126;}
	.st1{fill:#FFFFFF;}
	.st2{clip-path:url(#SVGID_2_);}
	.st3{fill:#FF9C10;}
	.st4{fill:#00399A;}
	.st5{fill:#CE1126;stroke:#630810;stroke-width:0.1373;stroke-linejoin:round;}
	.st6{fill:#630810;stroke:#630810;stroke-width:0.1984;stroke-linecap:round;}
</style>
<path id="Rounded_Rectangle_7_copy_1_" class="st0" d="M5.8,0h52.3C61.4,0,64,2.6,64,5.7v30.6c0,3.2-2.6,5.7-5.8,5.7H5.8
	C2.6,42,0,39.4,0,36.3V5.7C0,2.6,2.6,0,5.8,0z"/>
<path class="st0" d="M0,36.3C0,39.4,2.6,42,5.8,42h52.4c3.2,0,5.8-2.5,5.8-5.7V14H0V36.3z"/>
<rect y="14" class="st1" width="64" height="14"/>
<g>
	<g>
		<defs>
			<ellipse id="SVGID_1_" cx="32" cy="21" rx="6.1" ry="6.3"/>
		</defs>
		<clipPath id="SVGID_2_">
			<use xlink:href="#SVGID_1_"  style="overflow:visible;"/>
		</clipPath>
		<g class="st2">
			<g>
				<path class="st3" d="M30.4,20.3h-1v-0.4L30.4,20.3L30.4,20.3z"/>
				<path class="st3" d="M30.4,20.2l-1-0.5V19c0,0-0.1,0-0.1-0.1c0-0.3,0.8,0.5,1.1,0.8V20.2L30.4,20.2z"/>
				<path class="st3" d="M25.9,22h2.2v-1.3l-2.5-0.1L25.9,22L25.9,22z"/>
				<path class="st3" d="M25.8,20.1l2.3,0.2v-1l-2.3-0.9V20.1L25.8,20.1z"/>
				<path class="st3" d="M26.3,18.2l1.8,0.9l0.3-0.3c0,0-0.2-0.1-0.2-0.2s0.2-0.1,0.2-0.2s-0.2-0.1-0.2-0.2s0.1-0.2,0.1-0.2
					l-1.6-1.4L26.3,18.2L26.3,18.2z"/>
				<path class="st3" d="M38,22h-2.3v-1.3l2.5-0.2L38,22L38,22z"/>
				<path class="st3" d="M38,20.1c0-0.2-0.1-0.4-0.1-0.6c-0.1-0.3-0.2-0.6-0.3-0.8c0,0,0,0,0-0.1l-2,0.8v1L38,20.1L38,20.1z"/>
				<path class="st3" d="M36.7,16.9c-0.4,0.3-0.8,0.6-1.2,0.9c0,0.1,0.1,0.2,0.1,0.2c0.1,0.1-0.1,0.2-0.1,0.3
					c-0.1,0.1,0.1,0.1,0.1,0.2c0.1,0.1,0,0.2-0.1,0.3c0.1,0.1,0.2,0.2,0.2,0.3c0.6-0.3,1.2-0.6,1.8-0.9C37.3,17.7,37,17.3,36.7,16.9
					L36.7,16.9z"/>
				<path class="st3" d="M33.4,20.3h1v-0.4L33.4,20.3L33.4,20.3z"/>
				<path class="st3" d="M33.4,20.1v-0.4c0,0,0.9-0.8,1.1-1c0,0.2-0.1,0.3-0.1,0.3v0.6L33.4,20.1L33.4,20.1z"/>
				<path class="st3" d="M27.4,16.4l1,1.1c0-0.1,0.3-0.1,0.5-0.1s0.4,0,0.4,0.2s-0.1,0.1-0.1,0.3c0,0.1,0.2,0.1,0.2,0.3
					c0,0.2-0.1,0.1-0.1,0.2s0.1,0.1,0.1,0.1l1,0.9v-1l-2-3.1L27.4,16.4L27.4,16.4z"/>
				<path class="st3" d="M29,15.2l1.4,2.8c0,0,0-2.6,0.2-2.7l-0.4-0.7L29,15.2L29,15.2z"/>
				<path class="st3" d="M33.4,14.9c-0.2,0.6-0.3,1.2-0.5,1.8c0.2,0,0.3,0,0.5,0c0.1,0,0,0.1,0,0.2c0,0.4,0,0.7,0,1.1
					c0.5-0.8,1-1.7,1.4-2.5c-0.3-0.2-0.7-0.3-1-0.4C33.7,15,33.5,14.9,33.4,14.9L33.4,14.9z"/>
				<path class="st3" d="M35.2,15.6c-0.6,0.9-1.2,1.8-1.8,2.7c0,0.4,0,0.7,0,1.1c0.4-0.4,0.8-0.8,1.2-1.1c0.1-0.1-0.2-0.2-0.1-0.3
					c0.1,0,0.2-0.3,0-0.3c-0.1-0.2,0.1-0.3,0.3-0.3s0.4,0,0.6,0c0.1,0.1,0.2-0.2,0.3-0.2c0.2-0.2,0.4-0.4,0.6-0.7
					C36,16.2,35.6,15.9,35.2,15.6L35.2,15.6z"/>
			</g>
			<g>
				<path class="st4" d="M30.6,26.3c-0.4,0-0.9,0.3-1.1,0.5c0.4,0.2,0.8,0.3,1.2,0.4c0.7,0.1,1.3,0.1,2,0.1c0.1,0,0.2,0,0.3,0
					l1.4-0.5c0,0-0.7-0.4-1.2-0.4s-0.9,0.5-1.3,0.5C31.4,26.8,31.3,26.3,30.6,26.3L30.6,26.3L30.6,26.3z"/>
				<path class="st4" d="M28,25.9h8c0,0-0.7-0.7-1.5-0.8c-0.8,0-0.6,0.3-1.2,0.4c-0.6,0.1-0.8-0.4-1.3-0.4c-0.6,0-0.9,0.4-1.3,0.4
					s-1-0.4-1.3-0.4s-1.5,0.5-1.5,0.5L28,25.9L28,25.9z"/>
				<path class="st4" d="M27,25h9.8c0.2-0.2-0.5-0.8-1.1-0.8c-0.5,0-0.8,0.5-1.2,0.5s-0.8-0.5-1.3-0.5c-0.4,0-0.9,0.5-1.4,0.5
					c-0.4,0-0.8-0.5-1.3-0.5c-0.6,0-0.8,0.5-1.3,0.5c-0.4,0-0.8-0.5-1.2-0.5c-0.4,0-1.1,0.6-1.2,0.6C26.7,24.8,27,25.1,27,25L27,25z
					"/>
				<path class="st4" d="M30.8,24.1H33c0,0-0.5-0.7-1.1-0.7S30.8,24.1,30.8,24.1L30.8,24.1z"/>
				<path class="st4" d="M37.8,24h-3c0,0,0.4-0.2,0.5-0.4c0.2,0.1,0.1,0.2,0.5,0.2s0.8-0.4,1.1-0.4C37.4,23.4,37.8,24,37.8,24
					L37.8,24z"/>
				<path class="st4" d="M26,24h3c0,0-0.4-0.2-0.5-0.4c-0.2,0.1-0.1,0.2-0.5,0.2s-0.8-0.4-1.1-0.4C26.5,23.4,26,24,26,24L26,24z"/>
				<path class="st4" d="M26.2,23.1h2.1c0,0-0.1-0.3-0.2-0.6c-0.6-0.2-1,0.4-1.4,0.4s-0.8-0.4-0.8-0.4L26.2,23.1L26.2,23.1z"/>
				<path class="st4" d="M37.6,23.1h-2.1c0,0,0.1-0.3,0.2-0.6c0.6-0.2,1,0.4,1.4,0.4s0.8-0.4,0.8-0.4L37.6,23.1L37.6,23.1z"/>
				<path class="st4" d="M31.4,23.1h1.1c0,0,0-0.3-0.6-0.3C31.3,22.7,31.4,23.1,31.4,23.1L31.4,23.1z"/>
			</g>
			<g>
				<path class="st5" d="M30.8,19.6l2.3,0.6V17c-1,0.1-1.9-1.9-0.1-2.1c-1.8-0.3-2,0.2-2.2,0.7V19.6L30.8,19.6z"/>
				<path class="st5" d="M31.3,22.5c-0.5,0.8-1.8,0.6-2.1,0c-0.1,0,0-3.5,0-3.5S29,18.9,29,18.8s0.2-0.1,0.2-0.3
					c0-0.1-0.2-0.1-0.2-0.2s0.2-0.1,0.2-0.2s-0.3-0.1-0.3-0.2s0.2-0.2,0.2-0.2h-0.2c-0.1,0-0.3,0-0.4,0c-0.3,0,0,0.1,0,0.2
					s-0.1,0.2-0.1,0.3c0,0.1,0.2,0.2,0.2,0.3c0,0.1-0.2,0.1-0.2,0.2s0.2,0.2,0.2,0.3c0,0.1-0.2,0.1-0.2,0.2s0,3.5,0,3.5
					C28.8,24.3,30.8,24.8,31.3,22.5L31.3,22.5z"/>
				<path class="st5" d="M32.6,22.5c0.5,0.8,1.8,0.6,2.1,0c0.1,0,0-3.5,0-3.5s0.1-0.1,0.2-0.2c0-0.1-0.2-0.1-0.2-0.3
					c0-0.1,0.2-0.1,0.2-0.2s-0.2-0.1-0.2-0.2s0.2-0.1,0.2-0.2s-0.1-0.2-0.2-0.2h0.2c0.1,0,0.3,0,0.4,0c0.3,0,0,0.1,0,0.2
					s0.1,0.2,0.1,0.3c0,0.1-0.2,0.2-0.2,0.3c0,0.1,0.2,0.1,0.2,0.2s-0.2,0.2-0.2,0.3c0,0.1,0.2,0.1,0.2,0.2s0,3.5,0,3.5
					C35.1,24.3,33.1,24.8,32.6,22.5L32.6,22.5z"/>
			</g>
			<g>
				<path class="st6" d="M30.7,22.6c0.2-0.1,0.4-0.2,0.5-0.4h-0.7c0,0-0.3,0.2-0.5,0.4H30.7L30.7,22.6z"/>
				<path class="st6" d="M33.1,22.6c-0.2-0.1-0.4-0.2-0.5-0.4h0.7c0,0,0.3,0.2,0.5,0.4H33.1L33.1,22.6z"/>
				<path class="st6" d="M29.4,21.9h5.1"/>
				<g id="x">
					<path class="st6" d="M29.6,20.7l0.6,0.8"/>
					<path class="st6" d="M29.6,21.5l0.7-0.8"/>
					<path class="st6" d="M30,20.7v0.5"/>
				</g>
				<g>
					<g id="x_1_">
						<path class="st6" d="M30.6,20.7l0.6,0.8"/>
						<path class="st6" d="M30.6,21.5l0.7-0.8"/>
						<path class="st6" d="M30.9,20.7v0.5"/>
					</g>
				</g>
				<g>
					<g id="x_2_">
						<path class="st6" d="M31.6,20.7l0.6,0.8"/>
						<path class="st6" d="M31.6,21.5l0.7-0.8"/>
						<path class="st6" d="M31.9,20.7v0.5"/>
					</g>
				</g>
				<g>
					<g id="x_3_">
						<path class="st6" d="M32.6,20.7l0.6,0.8"/>
						<path class="st6" d="M32.6,21.5l0.7-0.8"/>
						<path class="st6" d="M32.9,20.7v0.5"/>
					</g>
				</g>
				<g>
					<g id="x_4_">
						<path class="st6" d="M33.6,20.7l0.6,0.8"/>
						<path class="st6" d="M33.6,21.5l0.7-0.8"/>
						<path class="st6" d="M33.9,20.7v0.5"/>
					</g>
				</g>
			</g>
		</g>
	</g>
</g>
</svg>
