<?xml version="1.0" encoding="utf-8"?>
<!-- Generator: Adobe Illustrator 20.0.0, SVG Export Plug-In . SVG Version: 6.00 Build 0)  -->
<svg version="1.1" id="Layer_1" xmlns="http://www.w3.org/2000/svg" xmlns:xlink="http://www.w3.org/1999/xlink" x="0px" y="0px"
	 viewBox="0 0 64 42" style="enable-background:new 0 0 64 42;" xml:space="preserve">
<style type="text/css">
	.st0{fill:#C62139;}
	.st1{fill:#57A863;}
	.st2{fill:#00297B;}
	.st3{fill:#66AFEB;}
	.st4{fill:#007AE1;}
	.st5{fill:#9C8431;}
	.st6{fill:#FFF100;}
	.st7{fill:#009270;}
	.st8{fill:#7B4800;}
	.st9{fill:#FFFFFF;}
</style>
<path id="Rounded_Rectangle_7_copy" class="st0" d="M5.8,0h52.3C61.4,0,64,2.6,64,5.7v30.6c0,3.2-2.6,5.7-5.8,5.7H5.8
	C2.6,42,0,39.4,0,36.3V5.7C0,2.6,2.6,0,5.8,0z"/>
<path class="st1" d="M64,5.3v31.4c0-0.1,0-0.3,0-0.4V5.7C64,5.6,64,5.5,64,5.3z"/>
<rect x="3.6" y="3.5" class="st2" width="57" height="35"/>
<path class="st0" d="M32,10.5c0,0-7,4.8-7,10.4s7,10.6,7,10.6s7-4.5,7-10.6C39,14.9,32,10.5,32,10.5"/>
<path class="st3" d="M37.9,22.8c0.2-0.6,0.2-1.2,0.2-1.9c0-5.4-6.1-9.4-6.1-9.4s-6.2,4.2-6.2,9.4c0,0.6,0.1,1.3,0.2,1.9H37.9"/>
<path class="st4" d="M32,30.5c0,0,4.8-3.2,6-7.7H26C27.2,27.2,32,30.5,32,30.5"/>
<path class="st5" d="M38.2,21.6c-1.1,0.8-7,0.4-7,0.4l-0.3,0.8H38c0-0.1,0.1-0.2,0.1-0.3L38.2,21.6"/>
<path class="st6" d="M31.7,26.9c-0.1-0.6-2.9-1.3-4.4-1.3c0.5,0.7,1,1.4,1.5,2C29.6,26.8,31.7,27.1,31.7,26.9"/>
<path class="st6" d="M37.3,24.5c-0.4,0-1,0.1-1.4,0.3c-0.6,0.3-2.1,0.7-2.7,0.5c-0.6-0.2-1.6,0.4-1.5,0.5c0.2,0.2,1.7,0,1.7,1.3
	c0,1.1-1.7,0.6-2.4,1.1c-0.4,0.3-0.7,0.6-0.8,0.8c1,1,1.9,1.5,1.9,1.5s1.9-1.3,3.6-3.3l0.8-1.1C36.7,25.6,37,25.1,37.3,24.5"/>
<path class="st7" d="M31.6,16.2c0,0-1-0.6-2.3-0.3C28,16.2,27.8,17,27.8,17l0.4-0.2V17l0.4-0.2V17l0.3-0.3l0.1,0.2l0.3-0.3v0.1
	l0.5-0.3v0.2l0.4-0.2v0.2l0.7-0.1c0,0-1.8,0.6-2,2l0.3-0.4v0.2l0.2-0.4l0.1,0.2l0.2-0.4l0.1,0.2l0.3-0.4v0.2l0.3-0.5v0.2l0.4-0.4
	v0.3c0,0,0.4-0.3,0.5-0.3l-0.4,0.5H31c0,0-0.3,0.2-0.3,0.3h0.2l-0.3,0.3c0,0.1,0.2,0,0.2,0s-0.2,0.3-0.3,0.4c0,0.1,0.1,0,0.1,0
	s-0.1,0.4-0.2,0.5c0,0.1,0.2,0,0.2,0l0.1,0.6L31,19l0.1,0.2v-0.5l0.1,0.1v-0.3l0.1,0.1l-0.1-0.4l0.1,0.2V18l0.1,0.1v-0.5l0.1,0.1
	v-0.3l0.2,0.1c0,0,0-0.4,0.2-0.4c0.2,0,0.4,0.2,0.3,0.3h0.2v0.4l0.1-0.1V18l0.1-0.1v0.4l0.1-0.1v0.4l0.2-0.1V19l0.2-0.1v0.4l0.2-0.1
	l0.2,0.4V19l0.1,0.1l-0.2-0.4h0.2l-0.2-0.3h0.2l-0.2-0.3h0.2l-0.4-0.3l0.2-0.1L33,17.5l0.1-0.1L32.8,17l0.3,0.1l0.1-0.2l0.3,0.3
	v-0.3l0.3,0.4v-0.2l0.2,0.3v-0.1l0.2,0.3l0.1-0.2l0.2,0.3v-0.2l0.1,0.4l0.1-0.1l0.1,0.4l0.1-0.1l0.1,0.3l0.2-0.1l0.1,0.4
	c0,0,0.4-2.1-2.8-2.1L31.6,16.2"/>
<path class="st7" d="M30.2,14.4l0.2,0.2l-0.1,0.1l0.3,0.2L30.5,15l0.3,0.1l-0.1,0.1l0.3,0.2l-0.2,0.1l0.3,0.2v0.1l0.3,0.1L31.3,16
	l0.3,0.3l0.4,0.3l0.3-0.1L32.2,16C32.1,15.8,31,14.3,30.2,14.4"/>
<path class="st7" d="M31.2,13l0.1,0.3h-0.2l0.4,0.4h-0.3l0.4,0.3h-0.2l0.3,0.3l-0.2,0.1l0.4,0.3l-0.2,0.1l0.4,0.4h-0.2l0.2,0.3
	l-0.2,0.1c0,0,0.3,0.5,0.2,0.7h0.4c0,0,0.1-1.3,0-1.5l-0.1,0.1v-0.5l-0.2,0.1v-0.6L32,14.1v-0.6l-0.1,0.2l-0.1-0.5l-0.1,0.2
	l-0.1-0.3l-0.1,0.1L31.2,13"/>
<path class="st7" d="M32.3,16.2c0.1-0.8,1-1.9,2.5-2l-0.4,0.2l0.2,0.1l-0.4,0.1l0.2,0.1h-0.5l0.2,0.2h-0.4L33.4,15l0.2,0.2h-0.4
	l0.3,0.1c0,0-0.6,0.2-0.7,0.3c0,0,2.2-0.6,2.7,0.5l-0.4-0.2v0.2L35,16v0.2L34.7,16v0.2L34.4,16l0.1,0.2L34.1,16l0.1,0.2l-0.4-0.1
	v0.2h-0.4v0.2h-1.1L32.3,16.2"/>
<path class="st8" d="M32,16.9h0.2c-0.1,2.2,0,5.2,0.3,6.4c0.5,1.9,1.9,2.7,2.3,2.9c0.2,0.1,0.1,0.5-0.3,0.5c-0.4,0-1.8-1-2.2-2.8
	C31.6,21.4,31.9,17.2,32,16.9"/>
<circle class="st8" cx="32.3" cy="16.5" r="0.3"/>
<circle class="st8" cx="31.9" cy="16.4" r="0.2"/>
<circle class="st8" cx="31.9" cy="16.8" r="0.2"/>
<circle class="st8" cx="32.2" cy="16.7" r="0.2"/>
<path d="M29.8,24.3H30v-2.8h-0.3L29.8,24.3L29.8,24.3z"/>
<path class="st8" d="M30.6,24.8c0,0-0.1,0-0.3,0v-0.2h-0.2v0.2c-0.2,0-0.4,0-0.6,0s-0.5,0-0.7,0v-0.2h-0.2v0.2c-0.2,0-0.3,0-0.3,0
	s0.1,0.2,1.2,0.2C30.7,25,30.6,24.8,30.6,24.8"/>
<path class="st8" d="M29.5,24.2c0.9,0,1.7-0.1,1.7-0.1s0.1,0.6-1.7,0.6c-1.8,0-1.7-0.5-1.7-0.5S28.6,24.2,29.5,24.2"/>
<path class="st9" d="M28.7,21.7c0,0,1.4,0.5,2,2.4c0,0-1.3-0.3-2.1,0h-0.4C28.2,24.1,29,23.1,28.7,21.7"/>
<path class="st0" d="M28.9,20.2h-0.3c0-0.1-0.1-0.2-0.2-0.2h-0.1c-0.1,0-0.2,0.1-0.3,0.2c0,0,0,0.2,0,0.4s0,0.4,0.1,0.4
	c0.1,0.1,0.2,0.1,0.3,0.1c0.1,0,0.2,0,0.2-0.1c0.1-0.1,0.1-0.2,0.1-0.3h-0.3v-0.3h0.5v0.9h-0.2v-0.2c-0.1,0.1-0.1,0.1-0.1,0.2
	c-0.1,0.1-0.2,0.1-0.3,0.1c-0.2,0-0.3-0.1-0.4-0.2c-0.1-0.2-0.2-0.4-0.2-0.6c0-0.3,0.1-0.5,0.2-0.7s0.3-0.2,0.5-0.2s0.3,0.1,0.4,0.2
	C28.9,19.9,28.9,20.1,28.9,20.2"/>
<path class="st0" d="M30.2,20.7v-1h0.3v1c0,0.1,0,0.2,0,0.3c0,0.1,0.1,0.1,0.2,0.1s0.2,0,0.2-0.1s0-0.1,0-0.3v-1h0.3v1
	c0,0.2,0,0.3-0.1,0.4c-0.1,0.2-0.2,0.3-0.5,0.3c-0.2,0-0.4-0.1-0.5-0.3C30.2,21.1,30.2,20.9,30.2,20.7"/>
<path class="st0" d="M33.1,19.7l-0.5,1.7H33l0.1-0.3h0.5l0.1,0.3H34l-0.5-1.7H33.1z M33.3,20.1l0.2,0.7h-0.3L33.3,20.1z"/>
<path class="st0" d="M35.6,21l0.2-1.3h0.4v1.7H36v-1.1v-0.1c0-0.1,0-0.1,0-0.1l-0.2,1.4h-0.3L35.3,20v0.1c0,0.1,0,0.1,0,0.1v1.1H35
	v-1.7h0.4L35.6,21"/>
</svg>
