<?xml version="1.0" encoding="utf-8"?>
<!-- Generator: Adobe Illustrator 20.0.0, SVG Export Plug-In . SVG Version: 6.00 Build 0)  -->
<svg version="1.1" id="Layer_1" xmlns="http://www.w3.org/2000/svg" xmlns:xlink="http://www.w3.org/1999/xlink" x="0px" y="0px"
	 viewBox="0 0 64 42" style="enable-background:new 0 0 64 42;" xml:space="preserve">
<style type="text/css">
	.st0{fill:#C81125;}
	.st1{fill:#FCD116;stroke:#BD9C08;stroke-width:0.2;}
	.st2{fill:#FCD116;stroke:#BD9C08;stroke-width:0.1999;stroke-linecap:round;}
	.st3{fill:#003A7B;}
	.st4{fill:#FCD116;stroke:#BD9C08;stroke-width:0.2;stroke-linecap:round;}
	.st5{fill:none;stroke:#BD9C08;stroke-width:0.2;stroke-linecap:round;}
	.st6{fill:#BD9C08;stroke:#BD9C08;stroke-width:8.686861e-02;stroke-linecap:round;stroke-linejoin:round;}
	.st7{fill:#FFFFFF;}
</style>
<path id="Rounded_Rectangle_7_copy" class="st0" d="M5.8,0h52.3C61.4,0,64,2.6,64,5.7v30.6c0,3.2-2.6,5.7-5.8,5.7H5.8
	C2.6,42,0,39.4,0,36.3V5.7C0,2.6,2.6,0,5.8,0z"/>
<path id="path6046" class="st1" d="M37.3,25.1c0.9,0.3,2.3,0.2,3,0.9c-0.9-0.3-2.1,1.3-3,0.9c0.8,0.6-11.5,0-10.5,0
	c-0.9-0.3-2.3-0.2-3-0.9c0.9,0.3,2.1-1.3,3-0.9c-0.8-0.6-2.2-1-2.5-1.9c0.8,0.6,2.4-0.5,3.1,0.1c-0.6-0.8-1.7-1.7-1.7-2.6
	c0.6,0.8,2.4,0.4,2.9,1.2c-0.3-0.9-1-2.1-0.7-3c0.3,0.9,2.1,1.2,2.3,2.1c0.1-1-0.3-2.4,0.4-3.1c-0.1,1,1.6,1.8,1.4,2.8
	c0.4-0.9,0.6-2.3,1.4-2.8c-0.4,0.9,0.9,2.3,0.4,3.1c0.7-0.7,1.3-2,2.3-2.1c-0.7,0.7,0,2.4-0.7,3c0.9-0.4,1.9-1.4,2.9-1.2
	c-0.9,0.4-0.8,2.3-1.7,2.6c1-0.1,2.3-0.6,3.1-0.1C38.8,23.3,38.3,25.1,37.3,25.1z"/>
<path id="path4182" class="st1" d="M27.6,26l-3.4-1.4l3.6-0.1L25.1,22l3.5,1.1l-1.7-3.2l2.9,2.2l-0.5-3.6l1.9,3.1L32,18l0.8,3.6
	l1.9-3.1l-0.5,3.6l2.9-2.2l-1.7,3.2l3.5-1.1l-2.7,2.4l3.6,0.1L36.4,26l3.4,1.4H24.2L27.6,26z"/>
<path id="path1076" class="st2" d="M36.4,26c0,2.4-2,4.4-4.4,4.4s-4.4-2-4.4-4.4s2-4.4,4.4-4.4S36.4,23.6,36.4,26z"/>
<path class="st3" d="M0,36.3C0,39.4,2.6,42,5.8,42h52.4c3.2,0,5.8-2.5,5.8-5.7v-8.7H0V36.3z"/>
<path id="path18554" class="st1" d="M33.5,15.3h2.4c0-0.1-0.2-0.3-0.4-0.3c-0.6-0.1-1,0.1-1.8,0.1L33.5,15.3z"/>
<path id="path18555" class="st1" d="M28.7,14.8c0.6,0.7,1.6,1.2,2.7,1.2c1.4,0,2.9-1.1,4.8-1.5l-6.1-0.1c-0.8-0.5-1.4-0.5-1.8-0.1
	h-1.2c-0.2,0.1,0.1,0.5,0.4,0.5L28.7,14.8z"/>
<path id="path18556" class="st1" d="M31.5,14.4c-0.2-1-1-1.5-2-1.6c-1.1-0.1-3.7-0.3-5.5-0.8c0.7,0.7,2.3,1.1,3.4,1.3
	c1.2,0.2,2.3,0.4,3.2,1.1H31.5z"/>
<path id="path18557" class="st4" d="M30.7,15c0.4,0.5,0.9,0.4,1.5,0c0.6-0.4,1.3-1.5,1.6-1.6c2.2-0.1,4.9-1.1,6.2-1.8
	c-1.6,0.2-3.2,0.5-4.8,0.5c-2.8,0-3.1,1.3-4.2,2.2"/>
<path id="path18558" class="st5" d="M31.2,14.5c0.6-0.4,1.1-0.9,1.6-1.3c0.9-0.7,2-0.7,3.1-0.7c1,0,2.8-0.4,3.7-0.7"/>
<path id="path18559" class="st1" d="M30.6,14.3c-0.2-0.9-1-1.2-2.1-1.3c-1.2-0.2-2.4-0.3-3.5-0.6c-0.3-0.1-0.6-0.2-0.8-0.3"/>
<path id="path18560" class="st5" d="M30.9,15.7c1.1,0.1,1.9-0.2,2.8-0.7"/>
<path id="path18561" class="st5" d="M27.2,14.5h1.4"/>
<path id="path18562" class="st6" d="M29.2,14.3c0,0.1-0.1,0.2-0.2,0.2s-0.2-0.1-0.2-0.2c0-0.1,0.1-0.2,0.2-0.2S29.2,14.2,29.2,14.3z
	"/>
<path class="st7" d="M51.2,35.1c-2.1,0-4.3,1.4-6.4,1.4c-2.1,0-4.3-1.4-6.4-1.4c-2.1,0-4.3,1.4-6.4,1.4s-4.3-1.4-6.4-1.4
	s-4.3,1.4-6.4,1.4s-4.3-1.4-6.4-1.4s-4.3,1.4-6.4,1.4S2.1,35.1,0,35.1v2.3c2.1,0,4.3,1.4,6.4,1.4s4.3-1.4,6.4-1.4s4.3,1.4,6.4,1.4
	s4.3-1.4,6.4-1.4s4.3,1.4,6.4,1.4s4.3-1.4,6.4-1.4s4.3,1.4,6.4,1.4c2.1,0,4.3-1.4,6.4-1.4c2.1,0,4.3,1.4,6.4,1.4
	c2.1,0,4.3-1.4,6.4-1.4v-2.3c-2.1,0-4.3,1.4-6.4,1.4C55.5,36.5,53.3,35.1,51.2,35.1z"/>
<path class="st7" d="M57.6,27.4c-2.1,0-4.3-1.4-6.4-1.4c-2.1,0-4.3,1.4-6.4,1.4c-2.1,0-4.3-1.4-6.4-1.4c-2.1,0-4.3,1.4-6.4,1.4
	S27.7,26,25.6,26s-4.3,1.4-6.4,1.4S14.9,26,12.8,26s-4.3,1.4-6.4,1.4S2.1,26,0,26v2.3c2.1,0,4.3,1.4,6.4,1.4s4.3-1.4,6.4-1.4
	s4.3,1.4,6.4,1.4s4.3-1.4,6.4-1.4s4.3,1.4,6.4,1.4s4.3-1.4,6.4-1.4c2.1,0,4.3,1.4,6.4,1.4c2.1,0,4.3-1.4,6.4-1.4
	c2.1,0,4.3,1.4,6.4,1.4c2.1,0,4.3-1.4,6.4-1.4V26C61.9,26,59.7,27.4,57.6,27.4z"/>
<path class="st7" d="M51.2,30.6c-2.1,0-4.3,1.4-6.4,1.4c-2.1,0-4.3-1.4-6.4-1.4c-2.1,0-4.3,1.4-6.4,1.4s-4.3-1.4-6.4-1.4
	S21.3,32,19.2,32s-4.3-1.4-6.4-1.4S8.5,32,6.4,32S2.1,30.6,0,30.6v2.3c2.1,0,4.3,1.4,6.4,1.4s4.3-1.4,6.4-1.4s4.3,1.4,6.4,1.4
	s4.3-1.4,6.4-1.4s4.3,1.4,6.4,1.4s4.3-1.4,6.4-1.4s4.3,1.4,6.4,1.4c2.1,0,4.3-1.4,6.4-1.4c2.1,0,4.3,1.4,6.4,1.4
	c2.1,0,4.3-1.4,6.4-1.4v-2.3c-2.1,0-4.3,1.4-6.4,1.4C55.5,31.9,53.3,30.6,51.2,30.6z"/>
</svg>
