<?xml version="1.0" encoding="utf-8"?>
<!-- Generator: Adobe Illustrator 20.0.0, SVG Export Plug-In . SVG Version: 6.00 Build 0)  -->
<svg version="1.1" id="Layer_1" xmlns="http://www.w3.org/2000/svg" xmlns:xlink="http://www.w3.org/1999/xlink" x="0px" y="0px"
	 viewBox="0 0 64 42" style="enable-background:new 0 0 64 42;" xml:space="preserve">
<style type="text/css">
	.st0{fill:#00348A;}
	.st1{fill:#FFFFFF;}
	.st2{fill:#D77200;}
</style>
<path id="Rounded_Rectangle_7_copy" class="st0" d="M5.8,0h52.3C61.4,0,64,2.6,64,5.7v30.6c0,3.2-2.6,5.7-5.8,5.7H5.8
	C2.6,42,0,39.4,0,36.3V5.7C0,2.6,2.6,0,5.8,0z"/>
<path class="st1" d="M64,5.4l-62.3,35c0.4,0.4,0.9,0.8,1.4,1L64,15.8V5.7C64,5.6,64,5.5,64,5.4z"/>
<path class="st2" d="M1.7,40.3L64,5.4C63.8,2.4,61.3,0,58.1,0H57l-56,39.3C1.1,39.7,1.4,40,1.7,40.3z"/>
<path class="st1" d="M14,24.5l-0.4-7.1l-1.5,3.9l0.7-4.2l-2.5,3.4l1.7-3.8l-3.3,2.7l2.7-3.3l-3.8,1.7l3.4-2.5L6.8,16l3.9-1.5
	l-7.1-0.4l7.1-0.4l-3.9-1.5l4.2,0.7l-3.4-2.5l3.8,1.7L8.7,8.9l3.3,2.7l-1.7-3.8l2.5,3.4L12.1,7l1.5,3.9L14,3.7l0.4,7.1l1.5-3.9
	l-0.7,4.2l2.5-3.4L16,11.5l3.3-2.7l-2.7,3.3l3.8-1.7L17,12.9l4.2-0.7l-3.9,1.5l7.1,0.4l-7.1,0.4l3.9,1.5L17,15.4l3.4,2.5l-3.8-1.7
	l2.7,3.3L16,16.7l1.7,3.8l-2.5-3.4l0.7,4.2l-1.5-3.9L14,24.5L14,24.5z"/>
</svg>
