<?xml version="1.0" encoding="utf-8"?>
<!-- Generator: Adobe Illustrator 20.0.0, SVG Export Plug-In . SVG Version: 6.00 Build 0)  -->
<svg version="1.1" id="Layer_1" xmlns="http://www.w3.org/2000/svg" xmlns:xlink="http://www.w3.org/1999/xlink" x="0px" y="0px"
	 viewBox="0 0 64 42" style="enable-background:new 0 0 64 42;" xml:space="preserve">
<style type="text/css">
	.st0{fill:#75B2DD;}
	.st1{fill:#FFFFFF;}
</style>
<path id="Rounded_Rectangle_7_copy" class="st0" d="M5.8,0h52.3C61.4,0,64,2.6,64,5.7v30.6c0,3.2-2.6,5.7-5.8,5.7H5.8
	C2.6,42,0,39.4,0,36.3V5.7C0,2.6,2.6,0,5.8,0z"/>
<polygon class="st1" points="32,10.1 32.5,11.6 34.1,11.6 32.8,12.5 33.3,14 32,13.1 30.7,14 31.2,12.5 29.9,11.6 31.5,11.6 "/>
<polygon class="st1" points="22.1,20 22.6,21.5 24.2,21.5 22.9,22.4 23.4,23.9 22.1,23 20.8,23.9 21.3,22.4 20,21.5 21.6,21.5 "/>
<polygon class="st1" points="32,29.9 32.5,31.4 34.1,31.4 32.8,32.3 33.3,33.8 32,32.9 30.7,33.8 31.2,32.3 29.9,31.4 31.5,31.4 "/>
<polygon class="st1" points="41.9,20 42.4,21.5 44,21.5 42.7,22.4 43.2,23.9 41.9,23 40.6,23.9 41.1,22.4 39.8,21.5 41.4,21.5 "/>
<polygon class="st1" points="32,10.1 32.5,11.6 34.1,11.6 32.8,12.5 33.3,14 32,13.1 30.7,14 31.2,12.5 29.9,11.6 31.5,11.6 "/>
</svg>
