<?xml version="1.0" encoding="utf-8"?>
<!-- Generator: Adobe Illustrator 20.0.0, SVG Export Plug-In . SVG Version: 6.00 Build 0)  -->
<svg version="1.1" id="Layer_1" xmlns="http://www.w3.org/2000/svg" xmlns:xlink="http://www.w3.org/1999/xlink" x="0px" y="0px"
	 viewBox="0 0 64 42" style="enable-background:new 0 0 64 42;" xml:space="preserve">
<style type="text/css">
	.st0{fill:#002A7B;}
	.st1{fill:#FFC91B;}
	.st2{fill:#FFFFFF;}
</style>
<path id="Rounded_Rectangle_7_copy" class="st0" d="M5.8,0h52.3C61.4,0,64,2.6,64,5.7v30.6c0,3.2-2.6,5.7-5.8,5.7H5.8
	C2.6,42,0,39.4,0,36.3V5.7C0,2.6,2.6,0,5.8,0z"/>
<rect y="19" class="st1" width="64" height="3.9"/>
<polygon class="st2" points="20,35.9 16.9,32.9 16.5,37.1 15.4,33 12.9,36.5 14,32.3 10,34.1 13.1,31.1 8.8,30.7 12.9,29.5 9.4,27 
	13.6,28.1 11.8,24.2 14.8,27.2 15.2,22.9 16.4,27.1 18.9,23.5 17.8,27.7 21.7,25.9 18.7,29 23,29.4 18.9,30.5 22.4,33 18.2,32 "/>
</svg>
