<?xml version="1.0" encoding="utf-8"?>
<!-- Generator: Adobe Illustrator 20.0.0, SVG Export Plug-In . SVG Version: 6.00 Build 0)  -->
<svg version="1.1" id="Layer_1" xmlns="http://www.w3.org/2000/svg" xmlns:xlink="http://www.w3.org/1999/xlink" x="0px" y="0px"
	 viewBox="0 0 64 42" style="enable-background:new 0 0 64 42;" xml:space="preserve">
<style type="text/css">
	.st0{fill:#FFFFFF;}
	.st1{fill:#57A863;}
	.st2{fill:#007934;}
</style>
<path id="Rounded_Rectangle_7_copy" class="st0" d="M5.8,0h52.3C61.4,0,64,2.6,64,5.7v30.6c0,3.2-2.6,5.7-5.8,5.7H5.8
	C2.6,42,0,39.4,0,36.3V5.7C0,2.6,2.6,0,5.8,0z"/>
<path class="st1" d="M64,5.3v31.4c0-0.1,0-0.3,0-0.4V5.7C64,5.6,64,5.5,64,5.3z"/>
<path class="st2" d="M5.8,42h15.5V0H5.8C2.6,0,0,2.6,0,5.7v30.7C0,39.5,2.6,42.1,5.8,42z"/>
<path class="st2" d="M58.2,42H42.7V0h15.5C61.4,0,64,2.6,64,5.7v30.7C64,39.5,61.4,42.1,58.2,42z"/>
<path class="st2" d="M32.2,6.6c-0.1,0.6-0.1,1.3-0.2,1.9c-0.2,0-0.4,0.1-0.6,0.1c0,0,0.4,0.2,0.5,0.5v0.1l0,0
	c-0.1,0.1-0.5,0.1-0.5,0.1s0.5,0.4,0.5,0.6l0,0l0,0l0,0l0,0C31.8,10,31.3,10,31.3,10s0.6,0.4,0.7,0.7c0,0.2,0,0.4,0,0.4
	s-1-0.9-1.7-0.6h-0.1l0,0c0,0.1,1,0.3,1.6,0.8c0,0.1-1.8-0.4-1.9-0.1c0.1,0.1,1.9,0.4,2.1,0.6c-0.7,0-2.1-0.2-2.1,0.1
	c-0.1,0.3,1.3,0.1,2,0.3c0.2,0.2,0.2,0.4-0.2,0.4c-0.6-0.3-2-0.5-2-0.1l0,0l0,0l0,0l0,0c0.2,0.1,1.4,0,1.9,0.4
	c-0.7,0.2-2.9-0.3-3-0.1c0.1,0.1,0.4,0.6,1,0.5c0.6,0,2.1,0.3,2.1,0.4l0,0c0,0.1-1.9-0.4-2.6-0.1c-0.7,0.3,2.1,0.1,2.6,0.6
	c0.5,0.4-0.9,0-0.9,0s-1.9-0.3-2.2-0.1c-0.3,0.1-0.6,0.4-0.6,0.4s0.2,0.4,0.4,0.3c0,0,0,0,0.1,0l0,0l0,0l0,0l0,0l0,0l0,0
	c0,0.1-0.1,0.2-0.1,0.2s2.7,0.7,3.3,1.2c0.6,0.6-3.4-0.9-3.4-0.9s-1.6,0.6,0.1,0.6c-0.2,0.3,0.1,0.5,0.1,0.5s2.9,0.6,3.2,1.1
	c0.3,0.5-2-0.4-2.5-0.7c-0.5-0.2-1.8,0.1-1.9,0.2l0,0l0,0l0,0l0,0l0,0l0,0l0,0l0,0l0,0c0.1,0.1,0.7,0.2,0.7,0.4l0,0l0,0
	c-0.1,0.1-0.8,0.2-0.8,0.3l0,0c0,0.2,3.6,0.9,4.6,1.7c1,0.8-2.8-1-2.8-1s0.2,0.3,0,0.4s-1-1.1-2.2-0.4c-0.2,0.3,1.1,0.5,1.4,0.6
	c-0.1,0.3-0.2,0.4,0.3,0.7c0.1,0,0.1,0.1,0.1,0.1l0,0l0,0l0,0l0,0l0,0l0,0c-0.1,0-0.9-0.4-1-0.5l0,0l0,0l0.1,0.5
	c-0.4-0.3-0.9-0.5-1.4-0.1c0,0,0,0.4,0.5,0.6c-0.3,0.6,0.3,0.4,1.2,0.9c-1.4-0.4-1.5,0.3-0.5,0.5s3.7,0.3,4.3,1.1
	c0.1,0.2,0.2,0.3,0.1,0.3c-0.1,0.1-1.1-0.6-1.2-0.6l0,0l0,0l0,0c0,0.1-0.1,0.4-0.1,0.4c-0.4-0.2-0.8-0.5-1.3-0.6
	c0,0.1,0,0.2-0.1,0.3c-0.4-0.3-0.8-0.5-1.5-0.6c0,0.1-0.1,0.2-0.1,0.3c0,0-0.5-0.7-1.6,0c-0.6,0.4,2.2,0.2,2.7,0.7s0.1,0.6,0.1,0.6
	c-0.4-0.1-0.8-0.3-1.2-0.4c0,0-1.4-0.3-1.8,0.1c-0.4,0.3,5.7,1.1,5.8,1.9c0.1,0.4-1.4-0.5-2.7-0.9c-0.1,0.1-0.1,0.3-0.2,0.4
	c0,0-0.5-0.5-1.1-0.6l0,0l0,0c0,0.1,0.1,0.5,0.1,0.5s-1.5-0.7-2.2-0.3c-0.8,0.4,2.6,0.6,2.9,0.9v0.1l0,0c-0.1,0.1-1.1-0.3-1.2-0.1
	c-0.1,0.2-1.8-0.4-1.7-0.1c0,0.3,0.2,0.5,0.2,0.5s3.4,0.3,3.5,0.7c0.1,0.4-1.9-0.2-1.9-0.2s-0.2,0.3,0,0.4l0,0l0,0l0,0
	c-0.1,0-1.2-0.7-1.1-0.2c-0.4-0.2-1.5-0.7-1.4-0.3c0.2,0.4,3,1,3.1,1c-0.1,0-1.3,0.1-1.2,0.4c-1.6-1-1.6-0.4-1.6-0.3l0,0
	c-0.1,0-2.1-0.5-0.5,0.3c0.9,0.5,1.1,0.6,1.1,0.7l0,0l0,0l0,0l0,0l0,0l0,0l0,0l0,0h-0.1l0,0l0,0l0,0l0.1,0.4l0,0l0,0l0,0l0,0l0,0
	l0,0c-0.1,0-1.1-0.6-1.5-0.6s-2.1,0.5-0.3,1.3c1.9,0.8,3-0.2,4-0.1s1.5,0.3,1.4,0.6c-0.1,0.3-1-1.1-2.1,0.1
	c-1.1-0.2-1.9-0.4-1.3,0.5c-1.9-0.7-3,0.2-0.7,0.6c2.3,0.1,3.7-0.6,3.7-0.6s0.4,0.7,0.9,0.2s0.6,0.1,0.6,0.2l0,0l0,0l0,0l0.5-0.2H31
	v4.6c0.6,0,1.3,0,1.9,0c0,0-0.6-4-0.3-4.6c0.3-0.5,0.6-0.5,0.6-0.5s1.2,0.4,1.4,0.3l0,0l0,0l0,0l0,0c0.1-0.1,0-0.4,0.6-0.4
	c0.2-0.1,0.1-0.4,0.2-0.4l0,0l0,0l0,0c0.2,0,3.9,1,4.7,0c-0.2-0.6-0.9,0-1.1,0c-0.2,0-0.9-0.3-1.3,0c-0.4-0.3-2.1-0.5-2.1-0.5
	c-0.2-0.2,4.2,0.1,4.5-0.1c0.5-0.5-1-0.5-1.2-0.3c-0.4-0.3-0.9-0.2-1.2-0.1c-0.2-0.4-1.6-0.2-2.4-0.3c-0.3-0.1-0.2-0.2,0-0.3
	c1.7,0.1,3.3,0.3,5,0.2c0.5-0.6-0.6-0.8-1.2-0.3c-0.4-0.6-1.1,0-1.6-0.1s-0.3-0.7,0.4-0.6c0.6,0.1,1.8,0,2-0.3s-0.1-0.6-1.2-0.3
	c-0.4-0.3-1.1,0-1.5,0.1c-0.5-0.3-1.6,0-2,0.1c-0.4-0.2,2-0.6,2-0.6c0.9,0,1.4-0.2,1.7-0.3c1.4-0.7,0-0.8-0.7-0.3
	c-0.5-0.4-0.9,0-1.3,0.2c-0.4,0.1-1.1,0.2-1.2,0.2l0,0l0,0l0,0l0,0l0,0l0,0c0.1-0.1,1.1-0.7,1.1-0.7s1.4-0.1,1.6-0.1
	c0.2,0,0.7-0.3,0.7-0.4s-0.2-0.1-1,0.1c-0.7,0.1-1,0-1.3,0c-0.4,0-0.6-0.1-0.6-0.1l0,0l0,0l0,0c0.1-0.1,0.7-0.1,0.7-0.1
	s2-0.2,2.1-0.3l0,0l0,0l0,0c0-0.8-1.7-0.4-1.7-0.4c0-0.6-1.5,0-1.6,0l0,0c-0.1,0-0.1-0.1-0.1-0.1l0,0c0-0.1,0.3-0.2,0.3-0.2
	c0.4-0.1,1.1-0.1,1.2-0.3c0,0,1.2,0,1.3-0.3c-0.3-0.8-2.5,0.1-2.8,0.3c-0.1,0-0.1,0-0.1,0c-0.1-0.1,0.4-0.6,0.4-0.6l0,0
	c0.1,0,1.9-0.1,2.7-1.3c0.1-0.7-1,0.4-1,0.4c-0.1-0.9-1.2,0.1-1.8,0.1c-0.6,0.1-0.7-0.3-0.2-0.3c0.4-0.1,0.9,0,1.2-0.7s1,0,1.1-0.2
	s-0.2-0.4-0.3-0.5c0,0,0.6-0.6-0.3-0.6c-0.9,0-2.1-0.1-2.1-0.1c0.1,0,1-0.4,1.8-0.3c0.9,0,0.4-0.6-0.4-0.6c-0.9,0-1.3-0.3-1.3-0.3
	c0.5-0.2,1-0.4,1.5-0.5c0-0.1-0.1-0.3-0.1-0.4c0,0,0.9-0.7-0.3-0.5s-1.3,0.2-1.3,0.2l-2.4,0.4l0,0c0,0-0.3-0.1-0.3-0.2l0,0l0,0l0,0
	c0,0,0.1-0.1,0.3-0.1c0.6-0.2,2.8-0.6,3.1-0.5h0.1c0.1-0.1-0.3-0.8-1.3-0.9c-1.2-0.1-1.9,0.3-1.9,0.3s-0.8-0.3-0.1-0.5
	s1.8,0.1,1.8,0.1s1.2-0.4,0.2-0.5c-1-0.2-1.3,0.1-1.8,0.2c-0.2-0.2,1.6-0.3,1.7-0.5c-0.2-0.3-1.3,0-2,0c-0.3-0.1-0.3-0.3,0-0.4
	c0.7,0,1.3,0,2,0c0-0.4,0-0.8,0-1.1c-0.8-0.2-1.8,0.1-2.3,0.1c0.1-0.4,1.9-0.5,2.1-0.6c0.4-0.5-1.7,0-1.8,0
	c-0.4-0.1-0.4-0.3-0.1-0.4c0.6-0.1,1.8,0.1,1.7-0.3c-0.1-0.4-0.9-0.2-1.2-0.1c-0.3,0.1-0.8,0-0.8,0c-0.2-0.3,1.9-0.2,1.9-0.4
	s-1.3-0.1-1.8-0.1c-0.3-0.2,1.6-0.4,1.7-0.4l0,0c0.1-0.6-1.4,0-1.6,0h-0.1l0,0c-0.1-0.1,0-0.4,0-0.4s0.5-0.2,0.5-0.3l0,0l0,0l0,0
	l0,0l0,0c-0.1,0-0.4-0.2-0.5-0.2l0,0l0,0l0,0l0,0c0-0.1,0-0.4,0-0.4S33,9.5,33,9.4l0,0l0,0l0,0l0,0l0,0l0,0l0,0l0,0l0,0l0,0l0,0l0,0
	l0,0c-0.1,0-0.5,0.1-0.5,0.1c0-0.1,0-0.3,0-0.4c0,0,0.4,0,0.4-0.2l0,0l0,0l0,0l0,0c-0.1-0.1-0.4-0.1-0.4-0.1
	C32.4,7.9,32.3,7.3,32.2,6.6L32.2,6.6z M31.9,13.2v0.3c0,0-0.4,0-0.5-0.1l0,0l0,0l0,0l0,0l0,0l0,0l0,0l0,0l0,0l0,0l0,0l0,0l0,0l0,0
	l0,0l0,0l0,0C31.5,13.2,31.8,13.2,31.9,13.2L31.9,13.2L31.9,13.2L31.9,13.2L31.9,13.2L31.9,13.2z M32.5,13.5c0,0,0.9,0,0.9,0.1l0,0
	l0,0l0,0l0,0l0,0c-0.1,0.1-0.9,0.2-0.9,0.2V13.5L32.5,13.5z M32.5,14.1L32.5,14.1L32.5,14.1c0.1,0,0.4,0,0.4,0.1l0,0l0,0l0,0l0,0
	l0,0l0,0l0,0l0,0l0,0l0,0l0,0l0,0l0,0c-0.1,0.1-0.4,0.1-0.4,0.1l0,0l0,0l0,0C32.5,14.3,32.5,14.1,32.5,14.1L32.5,14.1z M29.9,14.8
	c0.3,0,0.8,0.1,1.9,0.3v0.3l0,0l0,0l0,0c0,0-1.9-0.5-2.1-0.5l0,0l0,0l0,0l0,0l0,0l0,0l0,0l0,0l0,0l0,0l0,0l0,0l0,0l0,0l0,0
	C29.7,14.8,29.7,14.8,29.9,14.8L29.9,14.8z M30.8,15.6c0.3,0,1,0.2,1,0.2c0,0.1,0,0.3,0,0.4l0,0l0,0l0,0l0,0l0,0l0,0l0,0
	c-0.1,0-1.1-0.3-1.2-0.5l0,0l0,0l0,0l0,0C30.7,15.6,30.8,15.6,30.8,15.6L30.8,15.6z M33.8,16.3c0.3,0,0.5,0,0.4,0.1
	c-0.2,0.2-1.6,0.4-1.6,0.4v-0.4C32.6,16.4,33.3,16.3,33.8,16.3L33.8,16.3z M29.8,17.6c0.2,0,0.8,0.1,2,0.6v0.3c0,0-2.1-0.6-2.2-0.7
	C29.6,17.8,29.5,17.6,29.8,17.6L29.8,17.6z M33.9,18.1C34,18.1,34,18.1,33.9,18.1L33.9,18.1L33.9,18.1L33.9,18.1L33.9,18.1
	c-0.1,0.2-1.1,0.4-1.1,0.4v-0.3l0,0C32.8,18.3,33.5,18.1,33.9,18.1L33.9,18.1z M29.3,18.1c0.3,0,1,0.1,2.6,0.9v0.3l0,0
	c-0.1,0-2.8-1-2.8-1C29,18.3,29,18.1,29.3,18.1L29.3,18.1z M34.5,19.3C34.6,19.3,34.6,19.3,34.5,19.3L34.5,19.3L34.5,19.3
	c-0.1,0.2-1.7,0.5-1.8,0.5l0,0l0,0l0,0l0,0l0,0l0,0c0-0.1,0-0.2,0-0.3l0,0l0,0l0,0l0,0C32.9,19.6,34.1,19.3,34.5,19.3L34.5,19.3z
	 M29.8,20c0.5,0,1.9,0.6,2,0.6l0,0v0.3l0,0l0,0c0,0-2-0.8-2.1-0.8C29.6,20.1,29.7,20,29.8,20L29.8,20z M34.1,20.2c0.1,0,0.2,0,0.2,0
	l0,0l0,0l0,0l0,0l0,0l0,0c-0.1,0.1-1.5,0.4-1.5,0.4s0-0.2,0-0.3C32.8,20.3,33.7,20.2,34.1,20.2L34.1,20.2z M33.9,21
	c0.1,0,0.2,0,0.2,0l0,0l0,0l0,0l0,0l0,0l0,0l0,0l0,0c-0.1,0.1-1.3,0.4-1.3,0.4v-0.3C32.8,21.2,33.6,21.1,33.9,21L33.9,21z
	 M29.1,21.1c0.3,0,1,0.1,2.7,0.7l0.1,0.3c0,0-2.8-0.9-2.9-0.9l0,0l0,0l0,0C28.9,21.1,29,21.1,29.1,21.1L29.1,21.1z M32.8,21.8
	c0,0,0.5,0,0.6,0.1l0,0l0,0l0,0l0,0l0,0l0,0l0,0l0,0l0,0l0,0l0,0l0,0l0,0c-0.1,0.1-0.6,0.2-0.6,0.2S32.8,21.9,32.8,21.8L32.8,21.8z
	 M34,22.5c0.1,0,0.2,0,0.2,0s0,0.1-0.1,0.1c-0.4,0.3-1.3,0.4-1.3,0.4v-0.4l0,0C32.9,22.6,33.6,22.5,34,22.5L34,22.5z M35.1,22.8
	c0.1,0,0.2,0,0.2,0.1l0,0l0,0c0,0,0,0.1-0.1,0.1c-0.1,0.1-2.3,0.8-2.3,0.8v-0.5C34.2,22.9,34.8,22.8,35.1,22.8L35.1,22.8z
	 M33.7,24.1c0.1,0,0.2,0,0.3,0l0,0l0,0l0,0l0,0l0,0c-0.2,0.2-1.1,0.2-1.1,0.2v-0.2C33,24.2,33.4,24.1,33.7,24.1L33.7,24.1z
	 M34.6,24.5L34.6,24.5C34.7,24.5,34.7,24.5,34.6,24.5C34.7,24.5,34.6,24.5,34.6,24.5c-0.3,0.3-1.7,0.6-1.7,0.6v-0.2
	C32.9,24.9,34.3,24.5,34.6,24.5L34.6,24.5z M35.3,24.8c0.2,0,0.3,0,0.4,0.1l0,0l0,0l0,0l0,0c0,0-0.1,0.3-0.5,0.4
	c-0.5,0-2.4,0.5-2.4,0.5l0,0l0,0v-0.2C33.5,25.1,34.7,24.8,35.3,24.8L35.3,24.8z M30.5,25.9L30.5,25.9c0.8,0.1,1.1,0.4,1.2,0.5
	C31.5,26.7,30.2,26,30.5,25.9C30.4,25.9,30.4,25.9,30.5,25.9L30.5,25.9z M35.2,25.9C35.2,25.9,35.3,25.9,35.2,25.9
	C35.3,25.9,35.3,25.9,35.2,25.9c0.1,0,0.1,0,0.1,0.1c-0.1,0.1-0.5,0.1-0.6,0.1C34.8,26.1,35,25.9,35.2,25.9L35.2,25.9z M33.4,26.8
	C33.5,26.8,33.5,26.8,33.4,26.8L33.4,26.8L33.4,26.8L33.4,26.8L33.4,26.8c0.1,0,0.1,0,0.1,0.1c-0.1,0.2-0.7,0.2-0.7,0.2v-0.2l0,0
	C32.9,26.9,33.2,26.8,33.4,26.8L33.4,26.8z M30.1,27.5c0.2,0,0.3,0.1,0.5,0.2c0.4-0.1,1.1,0.1,1.1,0.1V28l0,0l0,0
	c-0.1,0-0.9,0-1.1-0.1c-0.2,0-0.6-0.2-0.6-0.4l0,0l0,0l0,0l0,0l0,0l0,0l0,0C30,27.5,30,27.5,30.1,27.5L30.1,27.5z M33.8,27.6
	c0.1,0,0.2,0,0.1,0.2c-0.3,0.4-1,0.2-1,0.2v-0.3C33.1,27.8,33.6,27.6,33.8,27.6L33.8,27.6z M31,28.5c0.3,0,0.6,0.1,0.6,0.1
	s0.2,0.3,0,0.4l0,0c-0.2,0.1-1-0.1-1-0.4C30.7,28.5,30.9,28.5,31,28.5L31,28.5z M27.9,28.6c0.3,0,0.6,0.2,0.6,0.2l0,0v0.3
	c0,0-0.6-0.2-0.7-0.5C27.8,28.6,27.8,28.6,27.9,28.6L27.9,28.6z M33.2,28.7c0.3,0,0.7,0.1,0.7,0.2c0,0,0,0,0,0.1c-0.2,0.2-1,0-1,0
	v-0.2C33,28.7,33.1,28.7,33.2,28.7L33.2,28.7z"/>
</svg>
