<?xml version="1.0" encoding="utf-8"?>
<!-- Generator: Adobe Illustrator 20.0.0, SVG Export Plug-In . SVG Version: 6.00 Build 0)  -->
<svg version="1.1" id="Layer_1" xmlns="http://www.w3.org/2000/svg" xmlns:xlink="http://www.w3.org/1999/xlink" x="0px" y="0px"
	 viewBox="0 0 64 42" style="enable-background:new 0 0 64 42;" xml:space="preserve">
<style type="text/css">
	.st0{fill:#0071BC;}
	.st1{fill:#FFFFFF;stroke:#000000;stroke-width:0.1;stroke-miterlimit:10;}
	.st2{fill:none;stroke:#000000;stroke-width:0.1;stroke-miterlimit:10;}
	.st3{fill:#F7DF73;stroke:#000000;stroke-width:0.1;stroke-miterlimit:10;}
	.st4{fill:#8C1800;stroke:#000000;stroke-width:0.1;stroke-miterlimit:10;}
	.st5{fill:#217900;stroke:#000000;stroke-width:0.1;stroke-miterlimit:10;}
	.st6{fill:#6B18B5;stroke:#000000;stroke-width:0.1;stroke-miterlimit:10;}
	.st7{fill:#FFD200;stroke:#000000;stroke-width:0.1;stroke-miterlimit:10;}
	.st8{fill:#DE2010;stroke:#000000;stroke-width:0.1;stroke-miterlimit:10;}
	.st9{fill:#FFE300;stroke:#000000;stroke-width:0.1;stroke-miterlimit:10;}
	.st10{fill:#8C8A8C;stroke:#000000;stroke-width:0.1;stroke-miterlimit:10;}
</style>
<path id="Rounded_Rectangle_7_copy" class="st0" d="M5.8,0h52.3C61.4,0,64,2.6,64,5.7v30.6c0,3.2-2.6,5.7-5.8,5.7H5.8
	C2.6,42,0,39.4,0,36.3V5.7C0,2.6,2.6,0,5.8,0z"/>
<path class="st1" d="M36.1,31.3c0,0,1.2-1.3,2.4-1.1c0.4-1.4,1.7-1.5,1.7-1.5s-0.1-1.5,1.6-1.9c0-1,1.1-1.9,1.1-1.9s-0.2-1.6,0.9-2
	c-0.7-1.3,0.2-2.2,0.2-2.2s-1.1-2-0.1-2.6c-1.1-0.9-0.7-1.9-0.7-1.9s-1.2-0.3-0.7-1.7c-1-0.2-1.2-1.7-1.2-1.7s-1.5,0.3-1.7-1
	c-1,0.2-1.1-0.8-1.1-0.8s-1.9,0.5-2.3-0.9c-0.7,0.4-1.1-0.3-1.1-0.3s-1.1,0.5-1.7-0.5c-1.3,0.8-2,0-2,0s-1.7,1.1-2.2,0.3
	c-1,1-1.9,0.6-1.9,0.6s-0.7,1.3-1.9,1c-0.3,1.2-1.7,1.2-1.7,1.2s0.1,1.1-1.5,1.4c-0.2,1.3-1.1,1.5-1.1,1.5s0.1,1.2-0.7,1.6
	c0.3,0.7-0.4,1.5-0.4,1.5s0.8,1-0.3,2c1,0.3,0.3,2,0.3,2s1.4,0.6,0.5,1.8c1,0.3,0.7,1.1,0.7,1.6c0.6,0.3,1.2,0.1,0.9,1.4
	c2,0.2,1,1.3,1,1.3s0.9,0,0.6,0.8c1.7,0,1.9,1.2,1.9,1.2s1.5-0.4,1.8,0.2c0.2,0.6-0.7,4.6-0.7,4.6s-1.3,0-2.3-1
	c-2.3-0.1-1.8-1.6-1.8-1.6s-0.8,0.3-1.1-1c-1.5,0.3-1.5-1-1.5-1s-0.7-0.3-0.4-0.9c-1.6,0.1-1.5-1.4-1.5-1.4
	c-0.3-0.1-0.5-0.5-0.4-0.8c-0.2-0.1-1.6-0.1-0.9-1.9c-1.3-0.8-0.5-1.7-0.5-1.7s-1.8-0.9-0.4-2c-1.1-1.6,0.1-2.3,0.1-2.3
	s-1.5-1.5,0-2.5c-0.2-2.3,1.1-2.8,1.1-2.8s-0.7-1.8,1.2-2.6c0.1-1.9,1.5-1.9,1.5-1.9s0-1.5,2.1-1.3c0.4-1.3,1.8-1.1,1.8-1.1
	s0.4-1.6,2.4-0.8c1-1.9,2.5-0.9,2.5-0.9s0.9-0.6,1.4-0.4c0.6-1,1.9,0,2.7,0.2c0.3-0.1,1.4-0.9,2.2,0.1c1.1-0.7,2,0.6,2,0.6
	s1.5-0.8,2.2,1c3.2-0.3,2.7,1.8,2.7,1.8s2.5-0.6,1.9,1.9c2.3,0.2,2,1.6,2,1.6s1.4,1.1,0.8,2.1c1.3,0.1,0.8,1.3,0.8,1.3
	s1,0.4,0.2,1.9c1.9,1.5,0.4,3,0.3,3c0,0,1,1.2,0.1,2.6c0.3,2.2-0.8,2.8-0.8,2.8s0.3,1.4-1,1.8c0,1.7-1.6,1.9-1.6,1.9
	s0.4,0.7-1.2,1.5c-0.1,1.1-1.7,1.2-1.7,1.2s-0.2,2.1-2.2,1.5c-0.5,1.7-3,1.2-3,1.1C36.5,34.8,36.1,31.3,36.1,31.3L36.1,31.3z"/>
<path class="st2" d="M39,33c0,0-0.2,0.4,0.6,0.7"/>
<path class="st2" d="M40.5,32.2c0,0,0.8-0.2,1.4,0"/>
<path class="st2" d="M43,30.1c0,0-0.1,0.4,0.5,0.9"/>
<path class="st2" d="M43.4,29.2c0,0,0.5,0.4,1.3,0.3"/>
<path class="st2" d="M38.5,30.2c0,0,0,0.9-0.5,1.4"/>
<path class="st2" d="M40.2,28.8c0,0,0.8,0.2,1.5-0.1"/>
<path class="st2" d="M45.3,27.4c0,0,0.2,0.2,1.1,0.2"/>
<path class="st2" d="M41.8,26.8c0,0,1,0.3,1.7,0"/>
<path class="st2" d="M43.9,23c0,0,0-0.1,0.4,1"/>
<path class="st2" d="M44.6,19.9c0,0,0,0.6-0.5,0.8"/>
<path class="st2" d="M47.6,17.5c0,0-0.7,0.6-0.6,0.8"/>
<path class="st2" d="M44.2,17.1c0,0,0.4,0.6-0.2,1"/>
<path class="st2" d="M42.5,14.5c0,0,0.6,0,0.9,0.5"/>
<path class="st2" d="M43.8,10.6c0,0,0.1,0.1-0.1,0.4"/>
<path class="st2" d="M39.4,10.7c0,0,0.3,0.5,0.3,1.1"/>
<path class="st2" d="M41.3,9c0.1,0,0.6-0.2,0.6-0.2"/>
<path class="st2" d="M39.2,6.9c0,0-0.2,0.6,0.1,0.9"/>
<path class="st2" d="M38.4,9.8c0,0.7,0.5,0.5,0.2,1.2"/>
<path class="st2" d="M37.1,9.3c0,0-0.9,0.7-0.9,0.8"/>
<path class="st2" d="M34.9,8.9c0,0,0.4,0.4,0.3,0.8"/>
<path class="st2" d="M32,8.5c0,0-0.3,0.6-0.5,0.8"/>
<path class="st2" d="M29.4,8.5c0,0,0.3,0.6-0.1,1"/>
<path class="st2" d="M24.8,10.9l0.7,0.1"/>
<path class="st2" d="M23,12.5l0.9-0.3"/>
<path class="st2" d="M21.6,13.6c0,0,0.6,0.1,0.7,0"/>
<path class="st2" d="M21.2,14.1c0,0,0.2,0.1,0,1.1"/>
<path class="st2" d="M18.4,11.6l0.3,0.5"/>
<path class="st2" d="M17.3,14.2c0,0,0.3,0.5,0.8,0.6"/>
<path class="st2" d="M19.9,16.9c0,0,0.6-0.1,0.6-0.2"/>
<path class="st2" d="M19.7,18.9c0,0,0-0.4,0.4-0.6"/>
<path class="st2" d="M19.1,19.7c0,0,0.4,0.5,0.7,0.6"/>
<path class="st2" d="M18.9,20.7c0,0,0.5-0.4,1-0.4"/>
<path class="st2" d="M18.7,22.1c0,0,0,0.4,1.3,0.3"/>
<path class="st2" d="M18.9,23.6c0,0,0.4-0.9,1.2-1.2"/>
<path class="st2" d="M19.9,24.7c0,0,0.1-0.4,0.8-0.6"/>
<path class="st2" d="M20.6,26.2c0,0,0.5-0.4,0.6-0.4"/>
<path class="st2" d="M21.2,27.3c0,0,0.3,0.3,1-0.2"/>
<path class="st2" d="M17.8,27.6c0.1,0,1.1-0.3,1.5,0.3"/>
<path class="st2" d="M18.2,28.4c0,0,1.1-0.1,1.2,0"/>
<path class="st2" d="M22.1,28.7c0,0-0.1,0.3,1.2-0.2"/>
<path class="st2" d="M23.8,29.2c-0.2,0.4,0.1,0.7-0.3,0.9"/>
<path class="st2" d="M19.7,29.8c0,0,0.5-0.2,0.4-0.8"/>
<path class="st2" d="M20.1,30.7c0.1,0,0.8-0.3,1-0.2"/>
<path class="st2" d="M21.6,31.7c0,0,0.1-0.7,0.3-0.7"/>
<path class="st2" d="M22.7,32.7c0,0,0.6,0,0.9-0.2"/>
<path class="st2" d="M23.9,30.4c0,0,0.6,0.3,1.8,0"/>
<path class="st2" d="M24.4,33.2c0,0,0.2,0.9,0.2,1.1"/>
<path class="st2" d="M41.4,12.8h0.5"/>
<path class="st2" d="M33.9,8.6c0,0-0.2,0.5-0.4,0.7"/>
<path class="st2" d="M28.8,5.6c0,0,0.1,0.4-0.2,0.8"/>
<path class="st2" d="M26.2,6.5c0,0,0.1,0.5-0.6,0.6"/>
<path class="st3" d="M36.4,33.3c0,0,7.1-2,9.3-10.7c-1.2,9-9,11.8-9,11.8L36.4,33.3L36.4,33.3z"/>
<path class="st3" d="M27,33.1c0,0-7.1-2-9.2-10.9c1.2,9.1,9,12,9,12L27,33.1L27,33.1z"/>
<path class="st4" d="M37.1,33.8c0.2,0,0.8-0.6,1.1-0.7c0.3-0.1,0.3-0.4,0-0.4c-0.4,0-0.7,0.4-0.7,0.4s-0.3,0.3-0.6,0.3
	C36.5,33.5,36.7,33.9,37.1,33.8L37.1,33.8z"/>
<path class="st4" d="M38.6,32.7c0,0-0.2-0.1,0.3-0.3c0.6-0.2,0.5-0.5,0.7-0.6s0.6-0.4,0.7-0.2c0.1,0.2-0.4,0.5-0.5,0.5
	s-0.7,0.6-0.8,0.6C38.8,32.8,38.7,32.8,38.6,32.7L38.6,32.7z"/>
<path class="st4" d="M26.3,33.7c-0.2,0-0.8-0.6-1.1-0.7c-0.3-0.1-0.3-0.4,0-0.4c0.4,0,0.7,0.4,0.7,0.4s0.3,0.3,0.6,0.3
	C26.9,33.3,26.7,33.7,26.3,33.7L26.3,33.7z"/>
<path class="st4" d="M24.8,32.5c0,0,0.2-0.1-0.3-0.3c-0.6-0.2-0.5-0.5-0.7-0.6s-0.6-0.4-0.7-0.2c-0.1,0.2,0.4,0.5,0.5,0.5
	s0.7,0.6,0.8,0.6S24.7,32.6,24.8,32.5L24.8,32.5z"/>
<path class="st4" d="M41.2,30.8c0,0-0.7,0.4-0.6,0.5c0.1,0.1,0.8-0.4,0.8-0.4C41.3,30.9,41.6,30.6,41.2,30.8L41.2,30.8z"/>
<path class="st4" d="M22.3,30.5c0,0,0.7,0.4,0.6,0.5s-0.8-0.4-0.8-0.4C22.1,30.7,21.8,30.3,22.3,30.5L22.3,30.5z"/>
<path class="st2" d="M42.3,29.7c-0.5,0.5-0.5,0.5-0.5,0.5"/>
<path class="st2" d="M43,28.8l-0.5,0.6"/>
<path class="st2" d="M43.8,27.6l-0.5,0.8"/>
<path class="st2" d="M44.4,26.5L44,27.4"/>
<path class="st2" d="M44.6,25.8l-0.1,0.3"/>
<path class="st2" d="M45,25l-0.1,0.4"/>
<path class="st2" d="M21.2,29.4c0.5,0.6,0.5,0.5,0.5,0.5"/>
<path class="st2" d="M20.4,28.5l0.5,0.6"/>
<path class="st2" d="M19.7,27.4l0.5,0.8"/>
<path class="st2" d="M19.1,26.2l0.4,0.9"/>
<path class="st2" d="M18.8,25.5l0.1,0.3"/>
<path class="st2" d="M18.5,24.7l0.1,0.4"/>
<path class="st5" d="M20.9,11.5c0,0,0.5,0.5,0.4,1.1c-0.1,0.7-0.5,1.6-0.4,2.3c0,0.3,0,0.8,0,0.8s-0.5-0.7-0.5-1.4s0.5-1.4,0.5-1.9
	C21,11.9,20.9,11.5,20.9,11.5L20.9,11.5z"/>
<path class="st5" d="M20.7,11.7c0,0-0.7,0.7-0.8,1.3c-0.1,0.3-0.1,1.9-0.1,2.5c0,0.2-0.1,1-0.1,1.3s0.5-0.5,0.5-1.2s0-2.1,0.1-2.3
	c0.1-0.3,0-0.6,0.1-0.9C20.5,12.1,20.7,11.7,20.7,11.7L20.7,11.7z"/>
<path class="st2" d="M16.2,16.1c0,0,0.5,0.6,0.5,1c0.1,0.4,0.2,1.1,0.4,1.4c0.2,0.3,1.4,2,1.4,2.6c0,0.5-0.5,1.2-1.2,1.2
	c-0.5,0-1.6-0.3-1.7-1.3c0-1,0.4-1,0.4-1.6C16.2,18.8,16.2,16.1,16.2,16.1L16.2,16.1z"/>
<path class="st2" d="M24.2,7.3c0,0-0.5,0-0.9,0.2C23,7.7,22.5,8,22.2,8.4c-0.9,0.7-2.2,1-2.6,1.5c-0.2,0.4-0.2,1.3,0.4,1.7
	c0.4,0.2,1.5,0.6,2.1-0.3c0.6-0.8,0.2-1.1,0.5-1.6C23.1,8.6,24.2,7.3,24.2,7.3L24.2,7.3z"/>
<path class="st2" d="M35.9,6.1c0,0-0.4-0.3-0.8-0.4c-0.3-0.1-0.9,0-1.4-0.1c-1.1-0.2-2.2-0.9-2.9-0.8c-0.4,0.1-1.1,0.7-0.9,1.4
	c0.1,0.4,0.6,1.3,1.6,1.2c1-0.2,1-0.4,1.6-0.6C34.4,5.9,35.8,6.1,35.9,6.1L35.9,6.1z"/>
<path class="st2" d="M47.4,17.3c0.1-0.2-0.1-0.5-0.2-0.9c-0.1-0.3-0.3-0.8-0.6-1.3c-0.4-1-0.4-2.4-0.8-2.9c-0.3-0.3-1.2-0.5-1.7,0
	c-0.3,0.3-0.9,1.4-0.3,2.1c0.7,0.7,1,0.5,1.4,0.9C46.4,15.9,46.9,17.2,47.4,17.3L47.4,17.3z"/>
<path class="st2" d="M47,26.1c0.2-0.2,0.4-0.6,0.4-0.9s0.1-1.1,0.1-1.4c0.1-1.1,0.8-2,0.6-2.9c-0.1-0.4-0.8-1.1-1.5-0.9
	c-0.4,0.1-1.4,0.7-1.2,1.6c0.2,1,0.5,1,0.7,1.5C46.9,24.3,46.5,25.7,47,26.1z"/>
<path class="st6" d="M31.4,5.2c0-0.2-0.2-0.3-0.4-0.3c-0.2,0-0.4,0.1-0.4,0.3c0,0.2,0.2,0.3,0.4,0.3C31.2,5.5,31.4,5.4,31.4,5.2z"/>
<path class="st6" d="M31.6,5.9c0-0.1-0.2-0.3-0.4-0.3c-0.2,0-0.4,0.1-0.4,0.3c0,0.1,0.2,0.3,0.4,0.3C31.4,6.1,31.6,6,31.6,5.9z"/>
<path class="st6" d="M32.1,5.1c0,0-0.5,0.3-0.3,0.5c0.2,0.1,0.7-0.3,0.7-0.3L32.1,5.1z"/>
<path class="st6" d="M45.5,12.9c0-0.1,0-0.2-0.1-0.2s-0.2,0-0.2,0c-0.1,0-0.1,0.1-0.1,0.2c0,0.1,0,0.2,0.1,0.2s0.2,0,0.2,0
	C45.4,13.1,45.5,13,45.5,12.9z"/>
<path class="st6" d="M45.3,12.3c0-0.2-0.1-0.3-0.2-0.3c-0.1,0-0.2,0.1-0.2,0.3s0.1,0.3,0.2,0.3S45.3,12.4,45.3,12.3z"/>
<path class="st6" d="M45.4,13.6c0-0.1,0-0.2-0.1-0.2s-0.1,0.1-0.1,0.2s0,0.2,0.1,0.2C45.4,13.7,45.4,13.7,45.4,13.6z"/>
<path class="st6" d="M45.8,12.4c0-0.1,0-0.2-0.1-0.2s-0.1,0.1-0.1,0.2s0,0.2,0.1,0.2S45.8,12.5,45.8,12.4z"/>
<path class="st6" d="M44.7,12.5c0-0.1,0-0.1-0.1-0.1s-0.1,0.1-0.1,0.1s0,0.1,0.1,0.1C44.7,12.7,44.7,12.6,44.7,12.5z"/>
<path class="st6" d="M44.9,13.5c0-0.1-0.1-0.2-0.2-0.2c-0.1,0-0.2,0.1-0.2,0.2c0,0.1,0.1,0.2,0.2,0.2S44.9,13.6,44.9,13.5z"/>
<path class="st6" d="M44.4,13c0-0.1-0.1-0.2-0.2-0.2c-0.1,0-0.2,0.1-0.2,0.2c0,0.1,0.1,0.2,0.2,0.2S44.4,13.2,44.4,13z"/>
<path class="st6" d="M44.3,12.5c0-0.1,0-0.1-0.1-0.1c0,0-0.1,0-0.2,0l-0.1,0.1c0,0.1,0,0.1,0.1,0.1c0,0,0.1,0,0.2,0
	S44.3,12.6,44.3,12.5z"/>
<path class="st6" d="M46.7,15.3c-0.2-0.3-0.6-0.4-0.8-0.3c-0.2,0.1-0.2,0.5,0,0.8s0.6,0.4,0.8,0.3C47,16,47,15.6,46.7,15.3z"/>
<path class="st6" d="M47.4,20.8c0-0.4-0.1-0.7-0.4-0.7c-0.3,0-0.5,0.2-0.6,0.6c0,0.4,0.1,0.7,0.4,0.7C47.1,21.4,47.3,21.1,47.4,20.8
	z"/>
<path class="st6" d="M47.5,24c0.1-0.4-0.1-0.7-0.3-0.7c-0.3-0.1-0.5,0.2-0.6,0.6s0.1,0.7,0.3,0.7C47.2,24.6,47.4,24.3,47.5,24
	L47.5,24z"/>
<path class="st6" d="M48.1,21c0-0.1-0.1-0.3-0.2-0.3c-0.1,0-0.2,0.1-0.2,0.3c0,0.1,0.1,0.3,0.2,0.3C48,21.2,48.1,21.1,48.1,21z"/>
<path class="st6" d="M47.6,21.6l-0.4,0.5c0,0-0.4,0-0.4,0.1s0.6,0.5,0.6,0.7s0.4,0,0.4,0L48,22c0,0,0-0.6-0.2-0.6
	C47.7,21.4,47.6,21.6,47.6,21.6L47.6,21.6z"/>
<path class="st6" d="M18.3,21.4c0-0.1-0.1-0.2-0.2-0.2s-0.2,0.1-0.2,0.2s0.1,0.2,0.2,0.2C18.2,21.6,18.3,21.5,18.3,21.4L18.3,21.4z"
	/>
<path class="st6" d="M18.5,20.7c0-0.1-0.1-0.2-0.2-0.2s-0.2,0.1-0.2,0.2s0.1,0.2,0.2,0.2C18.4,21,18.5,20.9,18.5,20.7z"/>
<path class="st6" d="M16.8,17.6c-0.1-0.2-0.2-0.3-0.4-0.2s-0.2,0.2-0.1,0.4c0.1,0.2,0.2,0.3,0.4,0.2C16.8,18,16.8,17.8,16.8,17.6z"
	/>
<path class="st6" d="M17.3,19.6c-0.1-0.2-0.3-0.4-0.5-0.3s-0.2,0.3-0.1,0.5s0.3,0.4,0.5,0.3C17.3,20,17.4,19.8,17.3,19.6z"/>
<path class="st6" d="M17.8,21c0-0.3-0.1-0.6-0.3-0.6c-0.2,0-0.4,0.2-0.4,0.5s0.1,0.6,0.3,0.6C17.6,21.5,17.8,21.3,17.8,21z"/>
<path class="st6" d="M16.9,21.2c0.1-0.3,0.1-0.6-0.1-0.6c-0.2-0.1-0.4,0.1-0.5,0.3c-0.1,0.3-0.1,0.6,0.1,0.6
	C16.6,21.6,16.8,21.4,16.9,21.2z"/>
<path class="st6" d="M16.5,20.6c0-0.1-0.1-0.2-0.2-0.2s-0.2,0.1-0.2,0.2s0.1,0.2,0.2,0.2C16.4,20.8,16.5,20.7,16.5,20.6z"/>
<path class="st6" d="M16.3,20c0-0.1-0.1-0.2-0.2-0.2s-0.2,0.1-0.2,0.2s0.1,0.2,0.2,0.2C16.2,20.2,16.3,20.1,16.3,20z"/>
<path class="st6" d="M16.5,18.8c0-0.2-0.1-0.4-0.2-0.4s-0.2,0.2-0.2,0.4c0,0.2,0.1,0.4,0.2,0.4S16.5,19,16.5,18.8z"/>
<path class="st6" d="M17.2,18.7c0-0.2,0-0.4-0.2-0.4c-0.1,0-0.2,0.1-0.3,0.3c0,0.2,0,0.4,0.2,0.4C17,19.1,17.1,18.9,17.2,18.7z"/>
<path class="st6" d="M21.7,9.7c0.1-0.3,0-0.6-0.2-0.7c-0.2,0-0.4,0.1-0.5,0.4c-0.1,0.3,0,0.6,0.2,0.7C21.4,10.1,21.6,10,21.7,9.7z"
	/>
<path class="st6" d="M20.8,11c0.3-0.2,0.4-0.5,0.2-0.7c-0.1-0.2-0.4-0.1-0.7,0.1c-0.3,0.2-0.4,0.5-0.2,0.7
	C20.3,11.2,20.6,11.2,20.8,11z"/>
<path class="st6" d="M20.3,10.3c0.2-0.2,0.4-0.4,0.2-0.6c-0.1-0.1-0.4-0.1-0.7,0.1c-0.2,0.2-0.4,0.4-0.2,0.6
	C19.8,10.5,20.1,10.4,20.3,10.3z"/>
<path class="st6" d="M22.3,9c0.2-0.1,0.2-0.3,0.2-0.4c-0.1-0.1-0.3-0.1-0.4,0.1c-0.2,0.1-0.2,0.3-0.2,0.4C21.9,9.1,22.1,9.1,22.3,9z
	"/>
<path class="st6" d="M21.3,10.2c0.1-0.2,0.1-0.4,0-0.4c-0.1-0.1-0.3,0-0.4,0.2s-0.1,0.4,0,0.4C21,10.5,21.1,10.4,21.3,10.2z"/>
<path class="st6" d="M22.7,9.5C22.9,9.3,23,9.1,22.9,9s-0.3-0.1-0.5,0.1c-0.2,0.2-0.3,0.4-0.2,0.5C22.3,9.7,22.5,9.6,22.7,9.5z"/>
<path class="st6" d="M20.1,11.2c0.2,0,0.3-0.1,0.3-0.2c0-0.1-0.2-0.2-0.3-0.2c-0.2,0-0.3,0.1-0.3,0.2C19.8,11.2,19.9,11.2,20.1,11.2
	L20.1,11.2z"/>
<path class="st6" d="M23.3,8.5c0.1-0.2,0.1-0.4,0-0.4c-0.1-0.1-0.3,0-0.4,0.2s-0.1,0.4,0,0.4C23,8.8,23.1,8.7,23.3,8.5z"/>
<path class="st7" d="M35.8,9.6c0,0,0.9-0.4,1.1-1.2c0.3-0.8-0.8-0.8-0.9-0.5c-0.1,0.2,0.1,0.8,0.1,1C36,9,35.6,9.4,35.8,9.6
	L35.8,9.6z"/>
<path class="st7" d="M27.9,9.8c0,0,0.6-0.8,0.4-1.6c-0.1-0.8-1-0.3-1,0c0,0.3,0.5,0.7,0.5,0.9C27.8,9.3,27.7,9.8,27.9,9.8L27.9,9.8z
	"/>
<path class="st7" d="M26.3,10.3c0,0,0.6-0.8,0.4-1.6s-1-0.3-1,0s0.5,0.7,0.5,0.9C26.3,9.7,26.1,10.2,26.3,10.3L26.3,10.3z"/>
<path class="st7" d="M24.6,10.8c0,0,0.6-0.8,0.4-1.6c-0.1-0.8-1-0.3-1,0s0.5,0.7,0.5,0.9C24.5,10.3,24.4,10.8,24.6,10.8L24.6,10.8z"
	/>
<path class="st7" d="M23.4,12.1c0,0,0.6-0.8,0.4-1.6s-1-0.3-1,0s0.5,0.7,0.5,0.9C23.3,11.5,23.2,12,23.4,12.1L23.4,12.1z"/>
<path class="st7" d="M22.1,13.2c0,0,0.6-0.8,0.4-1.6c-0.1-0.8-1-0.3-1,0s0.5,0.7,0.5,0.9C22,12.7,21.9,13.2,22.1,13.2L22.1,13.2z"/>
<path class="st7" d="M25,6.4c0,0-0.8,0.6-0.8,1.4c-0.1,0.8,0.9,0.6,1,0.3c0.1-0.3-0.3-0.8-0.3-1C24.9,7,25.2,6.5,25,6.4L25,6.4z"/>
<path class="st7" d="M27.6,5.6c0,0-0.8,0.6-0.8,1.4c-0.1,0.8,0.9,0.6,1,0.3c0.1-0.3-0.3-0.8-0.3-1C27.5,6.2,27.8,5.7,27.6,5.6
	L27.6,5.6z"/>
<path class="st7" d="M18,12.5c0,0,0.2,1,0.8,1.4c0.7,0.4,0.9-0.5,0.7-0.7c-0.2-0.2-0.8-0.1-1-0.2C18.5,12.9,18.2,12.4,18,12.5
	L18,12.5z"/>
<path class="st7" d="M16.7,15.8c0,0,0,1,0.6,1.5s1-0.4,0.9-0.6c-0.2-0.2-0.8-0.2-0.9-0.4C17.1,16.2,16.9,15.7,16.7,15.8L16.7,15.8z"
	/>
<path class="st7" d="M19.7,19.5c0,0-0.3-0.9-1.1-1.2C17.9,18,17.8,19,18,19.2s0.9-0.1,1,0C19.2,19.2,19.5,19.6,19.7,19.5L19.7,19.5z
	"/>
<path class="st7" d="M19.1,17.9c0,0,0.6-0.8,0.5-1.6c-0.1-0.8-1-0.3-1,0s0.5,0.7,0.5,0.9C19,17.3,18.9,17.8,19.1,17.9L19.1,17.9z"/>
<path class="st7" d="M37.6,10.4c0,0,0.9-0.4,1.1-1.2C39,8.4,38,8.4,37.8,8.6c-0.1,0.2,0.1,0.8,0.1,1C37.8,9.8,37.5,10.2,37.6,10.4
	L37.6,10.4z"/>
<path class="st7" d="M40.3,11.7c0,0,0.5-0.8,0.3-1.6s-1.1-0.2-1,0c0,0.3,0.6,0.6,0.6,0.8C40.2,11.1,40.1,11.6,40.3,11.7L40.3,11.7z"
	/>
<path class="st7" d="M47.6,19.3c0,0-0.4-0.9-1.1-1.2c-0.7-0.3-0.8,0.7-0.6,0.9c0.2,0.2,0.9-0.1,1,0C47.1,19.1,47.5,19.4,47.6,19.3
	L47.6,19.3z"/>
<path class="st7" d="M44,19.9c0,0,0-1,0.6-1.5s1,0.4,0.8,0.6s-0.8,0.2-0.9,0.4C44.4,19.5,44.2,20,44,19.9L44,19.9z"/>
<path class="st7" d="M43.5,9.5c0,0-0.9-0.3-1.6,0c-0.7,0.4,0,1.1,0.3,1s0.5-0.7,0.7-0.7C42.9,9.7,43.4,9.7,43.5,9.5L43.5,9.5z"/>
<path class="st7" d="M41.4,7.7c0,0-0.9-0.3-1.6,0c-0.7,0.4,0,1.1,0.3,1S40.6,8,40.8,8C40.8,8,41.3,7.9,41.4,7.7L41.4,7.7z"/>
<path class="st7" d="M38.2,6.1c0,0-0.8,0.6-0.9,1.4c-0.1,0.8,0.9,0.6,1,0.3C38.4,7.5,38,7,38,6.8C38.1,6.6,38.4,6.2,38.2,6.1
	L38.2,6.1z"/>
<path class="st7" d="M36.2,5.6c0,0-0.4,0.9,0,1.6c0.3,0.7,1.1,0,1-0.2c-0.1-0.3-0.7-0.5-0.7-0.7C36.4,6.1,36.4,5.6,36.2,5.6
	L36.2,5.6z"/>
<path class="st7" d="M30.4,9.1c0,0,0.6-0.7,0.5-1.5s-1-0.4-1-0.1s0.5,0.7,0.5,0.9C30.4,8.5,30.2,9,30.4,9.1L30.4,9.1z"/>
<path class="st8" d="M46.3,19.8c0-0.3-0.2-0.5-0.4-0.7c-0.2-0.1-0.4-0.1-0.6,0.1c-0.2,0.2-0.2,0.4-0.2,0.7c0,0.3,0.2,0.5,0.4,0.7
	c0.2,0.1,0.4,0.1,0.6-0.1C46.2,20.4,46.3,20.1,46.3,19.8L46.3,19.8z"/>
<path class="st8" d="M46.2,18.4c0-0.3-0.2-0.5-0.4-0.7c-0.2-0.1-0.4-0.1-0.6,0.1C45,18,45,18.2,45,18.5s0.2,0.5,0.4,0.7
	c0.2,0.1,0.4,0.1,0.6-0.1C46.1,18.9,46.2,18.6,46.2,18.4L46.2,18.4z"/>
<path class="st8" d="M45.9,16.8c-0.1-0.3-0.2-0.5-0.4-0.6s-0.4-0.1-0.5,0.1s-0.2,0.5-0.1,0.7c0.1,0.3,0.2,0.5,0.4,0.6
	s0.4,0.1,0.5-0.1C45.9,17.4,45.9,17.1,45.9,16.8L45.9,16.8z"/>
<path class="st8" d="M45.3,15.2c-0.1-0.3-0.3-0.4-0.6-0.5c-0.2-0.1-0.4,0-0.5,0.3c-0.1,0.2-0.1,0.5,0.1,0.8c0.1,0.3,0.3,0.4,0.6,0.5
	c0.2,0.1,0.4,0,0.5-0.3C45.5,15.7,45.5,15.5,45.3,15.2z"/>
<path class="st8" d="M44.8,13.9c-0.1-0.3-0.3-0.4-0.6-0.5c-0.2-0.1-0.4,0-0.5,0.3c-0.1,0.2-0.1,0.5,0.1,0.8c0.1,0.3,0.3,0.4,0.6,0.5
	c0.2,0.1,0.4,0,0.5-0.3C44.9,14.4,44.9,14.2,44.8,13.9z"/>
<path class="st8" d="M43.9,12.6c-0.2-0.2-0.4-0.4-0.6-0.4c-0.2,0-0.4,0.1-0.5,0.3s0,0.5,0.1,0.7c0.2,0.2,0.4,0.4,0.6,0.4
	c0.2,0,0.4-0.1,0.5-0.3S44.1,12.8,43.9,12.6z"/>
<path class="st8" d="M43,11.3c-0.2-0.2-0.4-0.4-0.6-0.4c-0.2,0-0.4,0.1-0.4,0.3s0,0.5,0.2,0.7s0.4,0.4,0.6,0.4
	c0.2,0,0.4-0.1,0.4-0.3C43.3,11.8,43.2,11.6,43,11.3z"/>
<path class="st8" d="M42,10.2c-0.2-0.2-0.5-0.3-0.7-0.3s-0.4,0.2-0.4,0.4s0.1,0.5,0.3,0.7s0.5,0.3,0.7,0.3s0.4-0.2,0.4-0.4
	C42.3,10.6,42.2,10.4,42,10.2L42,10.2z"/>
<path class="st8" d="M40.7,9.1c-0.2-0.2-0.5-0.3-0.7-0.2c-0.2,0-0.4,0.2-0.4,0.4S39.7,9.8,40,10c0.2,0.2,0.5,0.3,0.7,0.2
	c0.2,0,0.4-0.2,0.4-0.4C41.1,9.5,41,9.3,40.7,9.1z"/>
<path class="st8" d="M39.4,8.2c-0.3-0.1-0.5-0.2-0.7-0.1c-0.2,0.1-0.3,0.3-0.3,0.5s0.2,0.4,0.5,0.6c0.3,0.1,0.5,0.2,0.7,0.1
	C39.9,9.2,40,9,39.9,8.8C39.9,8.6,39.7,8.4,39.4,8.2z"/>
<path class="st8" d="M38,7.5c-0.3-0.1-0.6-0.1-0.8,0c-0.1,0-0.2,0.2-0.2,0.4c0,0.2,0.3,0.4,0.5,0.5c0.3,0.1,0.6,0.1,0.8,0
	s0.3-0.3,0.2-0.5C38.5,7.8,38.3,7.6,38,7.5L38,7.5z"/>
<path class="st8" d="M36.6,6.9c-0.3-0.1-0.6-0.1-0.8,0s-0.3,0.3-0.2,0.5s0.3,0.4,0.6,0.5C36.5,8,36.8,8,37,7.9
	c0.2-0.1,0.3-0.3,0.2-0.5S36.9,7,36.6,6.9z"/>
<path class="st8" d="M35.2,6.4c-0.3-0.1-0.6-0.1-0.7,0.1c-0.2,0.1-0.2,0.3-0.2,0.5c0.1,0.2,0.3,0.4,0.6,0.5s0.6,0.1,0.7-0.1
	c0.2-0.1,0.2-0.3,0.2-0.5C35.7,6.7,35.4,6.5,35.2,6.4z"/>
<path class="st8" d="M33.6,6.2c-0.3,0-0.6,0-0.7,0.2c-0.2,0.2-0.2,0.4-0.1,0.6c0.1,0.2,0.4,0.3,0.7,0.4c0.3,0,0.6,0,0.7-0.2
	c0.2-0.2,0.2-0.4,0.1-0.6C34.1,6.4,33.9,6.2,33.6,6.2z"/>
<path class="st8" d="M32,6.1c-0.3,0-0.6,0.1-0.7,0.2c-0.2,0.2-0.2,0.4,0,0.6c0.1,0.2,0.4,0.3,0.7,0.3c0.3,0,0.6-0.1,0.7-0.2
	c0.2-0.2,0.2-0.4,0-0.6C32.6,6.2,32.3,6.1,32,6.1L32,6.1z"/>
<path class="st8" d="M30.6,6.1c-0.3,0-0.6,0.1-0.7,0.2c-0.2,0.2-0.2,0.4,0,0.6c0.1,0.2,0.4,0.3,0.7,0.3c0.3,0,0.6-0.1,0.7-0.2
	c0.2-0.2,0.2-0.4,0-0.6C31.1,6.3,30.9,6.2,30.6,6.1L30.6,6.1z"/>
<path class="st8" d="M28.9,6.3c-0.3,0.1-0.5,0.2-0.6,0.4c-0.1,0.2-0.1,0.4,0.1,0.5s0.5,0.2,0.7,0.1c0.3-0.1,0.5-0.2,0.6-0.4
	c0.1-0.2,0.1-0.4-0.1-0.5C29.5,6.3,29.2,6.3,28.9,6.3z"/>
<path class="st8" d="M27.4,6.7c-0.3,0.1-0.5,0.3-0.6,0.5s0,0.4,0.2,0.5s0.5,0.1,0.8,0.1c0.3-0.1,0.5-0.3,0.6-0.5s0-0.4-0.2-0.5
	C27.9,6.7,27.7,6.6,27.4,6.7z"/>
<path class="st8" d="M26,7.3c-0.3,0.1-0.5,0.3-0.5,0.5c0,0.2,0,0.4,0.2,0.5s0.5,0.1,0.8,0C26.7,8.2,26.9,8,27,7.8
	c0.1-0.2,0-0.4-0.2-0.5C26.5,7.2,26.2,7.2,26,7.3z"/>
<path class="st8" d="M24.6,8c-0.3,0.1-0.4,0.4-0.5,0.6c0,0.2,0.1,0.4,0.3,0.5s0.5,0,0.7-0.1c0.3-0.1,0.4-0.4,0.5-0.6
	c0-0.2-0.1-0.4-0.3-0.5C25.1,7.8,24.8,7.9,24.6,8z"/>
<path class="st8" d="M23.3,8.9c-0.2,0.2-0.4,0.4-0.4,0.6c0,0.2,0.1,0.4,0.3,0.5c0.2,0.1,0.5,0,0.7-0.2s0.4-0.4,0.4-0.6
	c0-0.2-0.1-0.4-0.3-0.5C23.8,8.7,23.5,8.8,23.3,8.9z"/>
<path class="st8" d="M22.1,9.8c-0.2,0.2-0.4,0.4-0.4,0.7c0,0.2,0.1,0.4,0.4,0.4c0.2,0,0.5-0.1,0.7-0.2c0.2-0.2,0.4-0.4,0.4-0.7
	c0-0.2-0.1-0.4-0.4-0.4C22.6,9.6,22.3,9.7,22.1,9.8z"/>
<path class="st8" d="M21,11c-0.2,0.2-0.3,0.5-0.3,0.7s0.2,0.4,0.4,0.4c0.2,0,0.5-0.1,0.7-0.3s0.3-0.5,0.3-0.7s-0.2-0.4-0.4-0.4
	C21.5,10.6,21.2,10.8,21,11z"/>
<path class="st8" d="M20.1,12.2c-0.2,0.2-0.3,0.5-0.2,0.7c0,0.2,0.2,0.4,0.4,0.4c0.2,0,0.5-0.1,0.7-0.4c0.2-0.2,0.3-0.5,0.2-0.7
	c0-0.2-0.2-0.4-0.4-0.4C20.5,11.9,20.3,12,20.1,12.2z"/>
<path class="st8" d="M19.2,13.5C19,13.7,19,14,19,14.2c0.1,0.2,0.2,0.3,0.5,0.3c0.2,0,0.5-0.2,0.6-0.4c0.2-0.2,0.2-0.5,0.2-0.7
	c-0.1-0.2-0.2-0.3-0.5-0.3C19.6,13.1,19.4,13.2,19.2,13.5z"/>
<path class="st8" d="M18.5,14.9c-0.1,0.3-0.1,0.5,0,0.8c0.1,0.2,0.3,0.3,0.5,0.2s0.4-0.3,0.5-0.5c0.1-0.3,0.1-0.5,0-0.8
	c-0.1-0.2-0.3-0.3-0.5-0.2C18.9,14.5,18.6,14.7,18.5,14.9z"/>
<path class="st8" d="M18,16.4c-0.1,0.3-0.1,0.6,0,0.8c0.1,0.2,0.3,0.3,0.5,0.2c0.2-0.1,0.4-0.3,0.5-0.6c0.1-0.3,0.1-0.6,0-0.8
	c-0.1-0.2-0.3-0.3-0.5-0.2C18.3,16,18.1,16.2,18,16.4z"/>
<path class="st8" d="M17.5,19.3c0,0.2,0.1,0.5,0.2,0.6s0.4,0.1,0.6,0s0.3-0.3,0.3-0.5s-0.1-0.5-0.2-0.6c-0.2-0.1-0.4-0.1-0.6,0
	C17.6,18.9,17.5,19.1,17.5,19.3L17.5,19.3z"/>
<path class="st8" d="M17.6,18c-0.1,0.3,0,0.6,0.1,0.7c0.1,0.2,0.3,0.2,0.5,0.1s0.4-0.3,0.4-0.6c0.1-0.3,0-0.6-0.1-0.7
	c-0.1-0.2-0.3-0.2-0.5-0.1C17.8,17.4,17.7,17.7,17.6,18z"/>
<path class="st9" d="M45.1,17.3c0.2-0.2,0.3-0.2,0.5-0.2c-0.1-0.5-0.2-0.7-0.4-0.6C45.1,16.6,45,16.8,45.1,17.3L45.1,17.3z"/>
<path class="st9" d="M45.4,18.8c0.2-0.2,0.4-0.2,0.6-0.1c0-0.5-0.2-0.7-0.4-0.6C45.4,18.1,45.3,18.3,45.4,18.8L45.4,18.8z"/>
<path class="st9" d="M44.8,15.9c0.1-0.2,0.3-0.3,0.5-0.3c-0.2-0.5-0.4-0.6-0.6-0.5C44.5,15.2,44.5,15.5,44.8,15.9L44.8,15.9z"/>
<path class="st9" d="M44.1,14.5c0.1-0.2,0.3-0.3,0.5-0.3c-0.2-0.5-0.4-0.6-0.6-0.5C43.8,13.9,43.8,14.1,44.1,14.5L44.1,14.5z"/>
<path class="st9" d="M42.5,12c0.1-0.2,0.2-0.4,0.4-0.4c-0.3-0.4-0.5-0.5-0.6-0.4C42.1,11.4,42.2,11.7,42.5,12L42.5,12z"/>
<path class="st9" d="M41.4,11c0.1-0.2,0.2-0.4,0.4-0.4c-0.3-0.4-0.5-0.5-0.6-0.4C41.1,10.3,41.1,10.6,41.4,11L41.4,11z"/>
<path class="st9" d="M39.2,9.1c0-0.3,0.1-0.4,0.3-0.5c-0.4-0.3-0.6-0.3-0.7-0.1C38.7,8.6,38.8,8.9,39.2,9.1L39.2,9.1z"/>
<path class="st9" d="M40.4,10c0-0.3,0.1-0.4,0.4-0.4c-0.3-0.4-0.6-0.4-0.7-0.3C39.9,9.4,40,9.7,40.4,10L40.4,10z"/>
<path class="st9" d="M37.9,8.4c0-0.3,0-0.4,0.2-0.5c-0.4-0.3-0.7-0.3-0.7-0.1C37.3,8,37.5,8.2,37.9,8.4L37.9,8.4z"/>
<path class="st9" d="M36.6,7.8c-0.1-0.2,0-0.4,0.1-0.6C36.2,7,36,7,36,7.2C36,7.5,36.1,7.7,36.6,7.8L36.6,7.8z"/>
<path class="st9" d="M35.2,7.4c-0.1-0.2-0.1-0.4,0.1-0.6c-0.5-0.2-0.7-0.1-0.7,0.1C34.5,7.1,34.7,7.3,35.2,7.4L35.2,7.4z"/>
<path class="st9" d="M33.7,7.1c-0.1-0.2-0.1-0.4,0.1-0.6c-0.5-0.1-0.7,0-0.7,0.2C33.1,6.9,33.3,7,33.7,7.1L33.7,7.1z"/>
<path class="st9" d="M32.3,7c-0.1-0.2-0.1-0.4,0-0.6c-0.5-0.1-0.7,0-0.7,0.2C31.5,6.8,31.8,7,32.3,7L32.3,7z"/>
<path class="st9" d="M29.3,7.2c-0.2-0.2-0.2-0.4-0.1-0.6c-0.5,0-0.7,0.2-0.6,0.4C28.6,7.2,28.9,7.3,29.3,7.2L29.3,7.2z"/>
<path class="st9" d="M30.8,7c-0.2-0.2-0.2-0.4-0.1-0.6c-0.5,0-0.7,0.1-0.7,0.3C30,6.9,30.3,7.1,30.8,7L30.8,7z"/>
<path class="st9" d="M27.9,7.5c-0.2-0.2-0.3-0.3-0.2-0.5c-0.5,0.1-0.6,0.3-0.6,0.5C27.2,7.6,27.5,7.7,27.9,7.5L27.9,7.5z"/>
<path class="st9" d="M25.2,8.7c-0.2-0.1-0.3-0.3-0.3-0.5c-0.5,0.2-0.6,0.4-0.5,0.6C24.5,9,24.8,9,25.2,8.7L25.2,8.7z"/>
<path class="st9" d="M26.5,8.1c-0.2-0.1-0.3-0.3-0.3-0.5c-0.5,0.2-0.6,0.3-0.5,0.5C25.8,8.3,26.1,8.3,26.5,8.1L26.5,8.1z"/>
<path class="st9" d="M22.8,10.4c-0.2-0.1-0.4-0.2-0.4-0.4c-0.4,0.3-0.5,0.5-0.3,0.7C22.2,10.8,22.4,10.8,22.8,10.4L22.8,10.4z"/>
<path class="st9" d="M23.9,9.5c-0.2-0.1-0.4-0.2-0.4-0.4c-0.4,0.3-0.5,0.5-0.4,0.6C23.3,9.8,23.6,9.8,23.9,9.5L23.9,9.5z"/>
<path class="st9" d="M21.7,11.4c-0.3,0-0.4-0.1-0.4-0.4c-0.4,0.3-0.4,0.6-0.3,0.7C21.2,11.9,21.4,11.8,21.7,11.4L21.7,11.4z"/>
<path class="st9" d="M20.8,12.6c-0.3,0-0.4-0.1-0.5-0.3C20,12.7,20,12.9,20.1,13C20.3,13.1,20.6,13,20.8,12.6L20.8,12.6z"/>
<path class="st9" d="M20,13.9c-0.3,0-0.4-0.1-0.5-0.2c-0.3,0.4-0.3,0.6-0.1,0.7C19.6,14.4,19.9,14.3,20,13.9L20,13.9z"/>
<path class="st9" d="M19.4,15.2c-0.3,0.1-0.4,0-0.5-0.2c-0.2,0.4-0.2,0.7,0,0.7C19,15.8,19.2,15.6,19.4,15.2L19.4,15.2z"/>
<path class="st9" d="M18.8,16.5c-0.2,0.1-0.4,0.1-0.6-0.1c-0.2,0.5-0.1,0.7,0.1,0.7C18.6,17.2,18.8,17,18.8,16.5L18.8,16.5z"/>
<path class="st9" d="M18.5,18c-0.2,0.1-0.4,0.1-0.6,0c-0.1,0.5,0,0.7,0.2,0.7C18.3,18.7,18.4,18.5,18.5,18L18.5,18z"/>
<path class="st9" d="M18.3,19.3c-0.2,0.1-0.4,0.1-0.6,0c-0.1,0.4,0,0.6,0.2,0.5C18.2,19.8,18.3,19.6,18.3,19.3L18.3,19.3z"/>
<path class="st9" d="M43.5,13.3c0.1-0.2,0.2-0.4,0.4-0.4c-0.3-0.4-0.5-0.5-0.6-0.4C43.1,12.7,43.2,13,43.5,13.3L43.5,13.3z"/>
<path class="st9" d="M45.6,20.3c0.2-0.2,0.4-0.2,0.6-0.1c0-0.5-0.2-0.7-0.4-0.6C45.5,19.6,45.4,19.8,45.6,20.3L45.6,20.3z"/>
<path class="st7" d="M42.4,13.9c0,0,0.5-0.8,0.3-1.6s-1.1-0.2-1,0c0,0.3,0.6,0.6,0.6,0.8C42.3,13.3,42.2,13.8,42.4,13.9L42.4,13.9z"
	/>
<path class="st5" d="M43.6,12.1c0,0-0.6,0.6-0.5,1.2c0.1,0.7,0.5,1.5,0.5,2.2c-0.1,0.7-0.2,1.2-0.2,1.2s0.7-0.8,0.7-1.5
	s-0.5-1.7-0.5-2.2C43.6,12.6,43.6,12.1,43.6,12.1L43.6,12.1z"/>
<path class="st5" d="M44.6,14.4c0,0-0.4,0.3-0.4,1.1c0,0.7,0.8,2.1,0.8,2.1s0.6,1.2,0.5,1.5c0,0.3,0.1-0.3,0-0.9
	c-0.1-0.7-0.9-2.1-0.9-2.1s-0.2-0.3-0.2-0.8C44.6,14.7,44.6,14.4,44.6,14.4L44.6,14.4z"/>
<path class="st5" d="M32.4,7c0,0,1.9,0.1,1.9,1.3c0,0.2,0,0.4-0.1,1c0.4-0.2,0.6-0.8,0.6-1.1C34.8,6.9,33.1,6,32.4,7L32.4,7z"/>
<path class="st5" d="M31.2,6.9c0,0,1.5-0.3,1.5,0.9s-0.5,1.4-0.5,1.4s1.2-0.3,1.2-1.5S31.9,6,31.2,6.9L31.2,6.9z"/>
<path class="st5" d="M46,20.9c0,0.5,0.6,1.1,0.4,2c-0.3,1.1-1.2,3.7-1,4.1c-0.3-0.4-0.2-0.7-0.3-1.3c0-0.5,0.8-2.5,0.9-3.2
	C45.9,22,45.9,21.2,46,20.9L46,20.9z"/>
<path class="st5" d="M46,21c0,0,0.9,1.1,0.8,2c0,0.9-0.5,1.9-0.4,2.4c-0.3-0.4-0.3-0.6-0.4-1.2c0-0.5,0.4-1.1,0.3-1.7
	C46.3,21.8,46,21,46,21L46,21z"/>
<path class="st5" d="M17.3,21.2c0,0.5-0.4,1-0.2,2c0.3,1.1,1.2,2.5,1.1,4c0.3-0.4,0.4-0.8,0.4-1.4c0-0.5-1.1-2.3-1.1-3
	C17.4,22.2,17.4,21.4,17.3,21.2L17.3,21.2z"/>
<path class="st5" d="M17.3,21.2c0,0-0.9,1.1-0.8,1.9c0,0.6,1.1,3,0.9,3.5c0.3-0.4,0.4-0.3,0.3-0.9c-0.3-1.5-0.9-2.4-0.8-3
	C17.1,22.1,17.3,21.2,17.3,21.2L17.3,21.2z"/>
<path class="st10" d="M33.9,10.7c0,0,1.5,0.1,1.6,1s-0.4,1.4-0.4,1.4s0.2,1.9-1.3,2.4c-1.6,0.2-4.1,0-4.1,0s-0.7,0.2-1-1.3
	s-0.4-2.6-0.4-2.6s0.1-0.8,1.2-0.9C30.6,10.7,33.9,10.7,33.9,10.7L33.9,10.7z"/>
<path class="st2" d="M35.1,13.1c0,0-0.8,1-0.7,1.4"/>
<path class="st10" d="M34,15.5c0.2,0.2,0.4,0.4,0.4,1s0.1,1.3,0.1,1.3l1.1,9.6l0.9,6.9l0.1,1.1c0,0-0.2,0.8-0.8,0.8
	c-0.5,1-2.9,1.2-3.2,1.2c-0.2,0-1-0.3-1.5-0.3s-1.3,0.4-1.7,0.3c-0.4-0.1-1.2-0.4-1.4-1c-1-0.3-1.2-1.1-1.2-1.1l1.1-8L29,17.1
	c0,0,0.1-1.3,0.7-1.6C30.3,15.5,33.2,15.6,34,15.5L34,15.5z"/>
<path class="st2" d="M28.3,29.3L28,36.4"/>
<path class="st2" d="M35.1,30.2l0.6,5.8"/>
<path class="st1" d="M31.9,11.4l2.1,6.5h6.9l-5.5,4l2.1,6.5l-5.5-4l-5.5,4l2.1-6.5l-5.5-4H30L31.9,11.4z"/>
</svg>
