<?xml version="1.0" encoding="utf-8"?>
<!-- Generator: Adobe Illustrator 20.0.0, SVG Export Plug-In . SVG Version: 6.00 Build 0)  -->
<svg version="1.1" id="Layer_1" xmlns="http://www.w3.org/2000/svg" xmlns:xlink="http://www.w3.org/1999/xlink" x="0px" y="0px"
	 viewBox="0 0 64 42" style="enable-background:new 0 0 64 42;" xml:space="preserve">
<style type="text/css">
	.st0{fill:none;}
	.st1{fill:#C91125;}
	.st2{fill:#FCD116;}
	.st3{fill:#FFFFFF;}
</style>
<path id="Rounded_Rectangle_7_copy" d="M5.8,0h52.3C61.4,0,64,2.6,64,5.7v30.6c0,3.2-2.6,5.7-5.8,5.7H5.8C2.6,42,0,39.4,0,36.3V5.7
	C0,2.6,2.6,0,5.8,0z"/>
<path class="st0" d="M0,5.7v30.6C0,39.4,2.6,42,5.8,42h52.4c1.4,0,2.7-0.5,3.8-1.3L2.1,1.4C0.8,2.4,0,4,0,5.7z"/>
<path class="st1" d="M58.1,0H5.8C4.4,0,3.1,0.5,2.1,1.4L62,40.7c1.3-1,2-2.6,2-4.4V5.7C64,2.6,61.4,0,58.1,0z"/>
<path id="path3348" class="st2" d="M41.2,12.9c-0.4,0.5-1.4-0.5-2.6-0.6c-1.2,0-2,1.1-2.4,1.5c-0.3,0.4-1.5,2.5-1.4,2.7
	c0,0.2,0.7-0.6,0.9-0.8c0,0.3-0.3,0.6-0.2,0.7s0.9-0.6,1.1-0.6c0.1,0.2-0.1,0.4-0.1,0.7c0.1,0.1,0.5-0.5,0.8-0.6
	c0,0.2-0.3,0.6-0.1,0.9c0.1,0,0.9-0.8,1.1-0.9c0.2-0.1-0.1,0.8,0,0.9c0.2-0.1,0.9-0.9,1.1-1c0.2-0.1,0,1,0.1,1c0.3-0.2,1-1.1,1-1.3
	s-0.1,1.4,0.7,2.3c0.8,0.8,1.9,1.8,2.1,1.8c0.1-0.3,0-0.8,0.1-0.8c0.3,0.4,1,0.9,1.1,0.9s-0.1-0.6,0.1-0.6c0.4,0.4,1.5,1.8,3.8,2.5
	c-0.1-0.4-0.5-0.8-0.5-1c0.1,0,0.7,0.3,0.8,0.2c0.1,0-1.1-1.5-1-1.7c0.3,0,0.4,0.1,0.5,0c-0.1-0.2-1.2-1.4-1.2-1.6s0.3,0.1,0.4,0
	s-0.4-1.1-0.3-1.2c0.1-0.1,1.2,0.7,1.5,0.7s0.1-1,0.2-1c0.1-0.1,1,0.5,1.2,0.5s0.2-0.4,0.2-0.4c0.1,0.1,2.2,2.2,1.5,4.8
	c-0.7,1.8-2.2,2.8-4.4,2c0.1,0.2,1.3,1.2,2.6,0.8c1.3-0.3,2.8-1.3,2.6-3.8s-1-2.8-1.1-3.2c-0.1-0.4,0.2,0.1,0.5,0.2
	s-0.1-0.5-0.1-0.8c-0.1-0.3,0.8,0.6,1,0.6c0.2,0.1-0.5-2-0.7-2.2c-0.2-0.1,0.2,0,0.4,0.1c0.1,0.1-1.4-2.3-1.7-2.3s0.3-0.1,0.4-0.1
	c0.2,0-1.7-1.5-2.1-1.5s0.7-0.4,0.8-0.4c0.2,0-2.2-1.3-4.4,0c-0.1-0.1,1-0.9,1-1.2c0-0.1-0.4-0.3-0.4-0.4c0-0.1,0.6-0.4,0.6-0.6
	c-0.1-0.2-0.4-0.1-0.6-0.2c0-0.2,0.5-0.6,0.5-0.8C46.6,7,46.2,7,46.1,7s0.3-0.5,0.2-0.7c0-0.1-0.2,0-0.4,0c-0.1,0,0.6-1.1,0.5-1.2
	s-2.2,1.1-3,2.5s-0.2,2.5-0.3,3s-0.2,0.9-0.5,0.9s-1.1-0.5-1.3-0.7s-0.3-0.4-0.6-0.5s-1.1,0.2-1.4,0.2c-0.3,0-1.5-0.2-1.5-0.1
	c-0.1,0.1,1.1,0.5,1.4,0.7c0.3,0.1,0.3,0.3,0.5,0.5C40,11.6,41.8,12.1,41.2,12.9z M48.6,16.4c0.6,0.6,4.6,3.3,4.6,6.6
	s-2.9,3.2-3.8,3.1c0.9,0.8,4.5,0.6,4.5-3.1c0-3.3-4.6-6.6-5.2-6.9C48.1,15.8,48,15.8,48.6,16.4z"/>
<polygon class="st3" points="25.3,23.7 23,23.7 22.4,21.4 21.7,23.7 19.4,23.7 21.2,25.1 20.6,27.3 22.4,25.9 24.2,27.3 23.5,25.1 
	"/>
<polygon class="st3" points="16.1,36.4 15.4,34.1 14.7,36.4 12.5,36.4 14.3,37.8 13.6,39.9 15.4,38.6 17.3,40 16.6,37.8 18.4,36.4 
	"/>
<polygon class="st3" points="18.9,30.4 18.6,29.2 18.2,30.4 17.1,30.4 18,31.1 17.6,32.2 18.6,31.5 19.5,32.2 19.1,31.1 20,30.4 "/>
<polygon class="st3" points="13.6,19 15.4,17.7 17.3,19 16.6,16.8 18.4,15.4 16.1,15.4 15.4,13.1 14.7,15.4 12.5,15.4 14.3,16.8 "/>
<polygon class="st3" points="9.1,24.3 8.5,22.1 7.7,24.3 5.5,24.3 7.3,25.7 6.7,27.9 8.5,26.6 10.3,28 9.6,25.7 11.4,24.3 "/>
</svg>
