<?xml version="1.0" encoding="utf-8"?>
<!-- Generator: Adobe Illustrator 20.0.0, SVG Export Plug-In . SVG Version: 6.00 Build 0)  -->
<svg version="1.1" id="Layer_1" xmlns="http://www.w3.org/2000/svg" xmlns:xlink="http://www.w3.org/1999/xlink" x="0px" y="0px"
	 viewBox="0 0 64 42" style="enable-background:new 0 0 64 42;" xml:space="preserve">
<style type="text/css">
	.st0{fill:#00237A;}
	.st1{fill:#F7E017;}
	.st2{fill:#337321;}
	.st3{fill:#316D3A;}
	.st4{fill:none;}
	.st5{fill:#006EC7;}
	.st6{fill:#FFFFFF;}
	.st7{fill:#E5E5E5;}
	.st8{fill:#96877D;}
	.st9{fill:#CF142B;}
</style>
<path id="Rounded_Rectangle_7_copy_2" class="st0" d="M5.8,0h52.4C61.4,0,64,2.5,64,5.7v30.6c0,3.1-2.6,5.7-5.8,5.7H5.8
	C2.6,42,0,39.5,0,36.3V5.7C0,2.5,2.6,0,5.8,0z"/>
<path class="st1" d="M40.3,23.6c-0.7,0.6-1.4,1.5-1.6,2.3c-0.5,2.3-1.1,2.8-2.1,2.3c0,1.2,1.1,1.3,1.6,0.6c0,1.2,0.4,2.2,1.4,3
	c0.4,0.4,0.5,0.1,0.3-0.3s-0.2-1.7-0.6-2.4c0.6,0.4,1.5,0.2,1.4-1c-0.8,0.5-1.5,0.4-1.6-0.6C38.9,26.2,39.4,24.4,40.3,23.6z"/>
<path class="st1" d="M39.4,14.5c0.1-0.5,0-0.9-0.4-1.2c-0.6-0.6-1.3-0.4-1.7,0.1c-0.7-0.4-1.1,1-1.9,0.7c0.1,0.4,0.3,0.6,0.7,0.5
	c-0.4,0.4,0,0.8-0.5,1.3c0.9,0.3,1.4-0.2,1.3-1.1c0.3,0.3,0.9,0.3,1.2-0.1c-0.5-0.2-0.5-0.6-0.3-0.9C38.1,13.2,39.5,13.2,39.4,14.5z
	"/>
<path class="st2" d="M41.4,21c-1,0.5-2.8,0.3-3-1s1.1-1.9,1.4-2.1c0.5-0.3,0.9,0.2,0.8,0.8c0.6-0.2,0.7-0.9,0.4-1.3
	c0.8,0.1,1.5-0.5,1.8-1.4c-0.3,0.3-1,0.1-1.6,0c0.2-0.2,0.2-0.6,0.1-0.8c-0.6,0.7-1.6,0.4-2.8,2.3c0.2-0.7,0.5-2,0.8-2.9
	c0-0.1,0-0.2,0-0.3c0.1-1.3-1.3-1.3-1.5-0.7c0.3,0.4,0.1,0.8,0,1.4c-0.1,0.7-0.4,2.4-0.7,3c-0.1-0.9-0.7-0.9-0.8-1.4
	c-0.2,0.1-0.3,0.4-0.2,0.6c-0.2-0.2-0.9,0.1-1.2-0.3c-0.3,0.6,0.2,1.1,0.6,1.4c-0.3,0-0.3,0.4-0.6,0.4c0.4,0.5,0.8,0.7,1.3,0.7
	s0.8,0.2,1.1,0.8C37.9,21.3,39.7,21.9,41.4,21z"/>
<path class="st1" d="M43.9,19.9c-0.6,1.6-2.1,2.7-2.8,2.9c-1.2,0.3-3.6,1.5-4.3,2.1c-0.1,0-0.2-0.1-0.3-0.1c-0.3-0.2-0.6-1,0-1.6
	c1.8-1.7,3.7-0.9,4.9-2.1c-1,0.5-2.8,0.3-3-1c1.1,0.3,3,0.3,4.6-1.4C43.2,18.9,43.8,19.6,43.9,19.9z"/>
<path class="st2" d="M40.3,23.6c-0.9,0.8-1.4,2.6-1.3,3.9c0,0.4,0.1,0.6,0.3,0.7c0.1-0.7,0.6-2.6,1.8-3.4c1.1-0.7,2.8-2.3,3.4-4.1
	c-0.1-0.3-0.3-0.5-0.7-0.8C43.3,21.7,41.6,22.5,40.3,23.6z"/>
<path class="st3" d="M43.4,19.2c-0.3,0.5-1.1,1.1-1.8,1.4c0.2-0.2,0.2-0.4,0.2-0.6c-0.9,0.3-2.7,0.3-3.4,0c1.1,0.3,3,0.3,4.6-1.4
	C43.2,18.9,43.3,19,43.4,19.2z"/>
<path class="st2" d="M36.6,23.1c-1.4,1.4-0.5,2.5,0.1,2.8c-0.2,0.9,0.7,0.8,0.7,1.6c0.4-0.2,0.5-0.8,0.4-1.2
	c0.5,0.5,1.6-0.1,1.9,0.9c0.2-1-0.6-2-1.6-1.9c0.4-0.4,0.2-0.9-0.2-1.1c-0.1,0.7-0.9,0.7-1.2,0.5C36.3,24.5,36,23.8,36.6,23.1z"/>
<path class="st1" d="M39.7,31.7c-0.2,0.1-0.1,0.3,0,0.4c0.2,0.3-0.1,0.9,0.5,1c0.2,0,0.3-0.1,0.4-0.3c0.2-0.6-0.4-0.7-0.5-0.9
	C40,31.6,39.8,31.7,39.7,31.7z"/>
<path class="st1" d="M40.2,32.9c-0.2,0.1-0.4,0.2-0.3,0.9c0,0.3,0,1-0.2,1c0.2,0.1,0.5,0.2,0.6,0c0.1,0.2,0.4,0.2,0.5-0.1
	c0.2,0.1,0.4-0.1,0.4-0.3c0.1,0.1,0.4,0,0.3-0.4c0.2,0.1,0.4-0.1,0.4-0.2c-0.2,0-0.8-0.4-1-0.6C40.8,32.9,40.5,32.8,40.2,32.9z"/>
<path class="st4" d="M36.9,13.7c0.1-0.1,0.2-0.3,0.3-0.4"/>
<path class="st4" d="M40.5,16.2c0.2-0.1,0.4-0.1,0.7-0.1"/>
<path class="st4" d="M40.3,34.7c-0.1-0.1-0.1-0.5,0-0.7"/>
<path class="st4" d="M40.8,34.6c-0.1-0.1-0.3-0.4-0.3-0.6"/>
<path class="st4" d="M41.2,34.4c-0.1-0.1-0.5-0.5-0.5-0.7"/>
<path class="st4" d="M41.5,33.9c-0.2,0-0.6-0.3-0.8-0.7"/>
<path class="st1" d="M50.2,23.2c2.3,2,2.5,3.5,2.1,4.4c-0.2-0.9-1.2-2.2-2.2-2.5L50.2,23.2z"/>
<path class="st2" d="M46.1,22.1h4.3c0,0,0,1.1,0,5.1c0,4.4-2.4,6.9-4.9,8.3c-2.5-1.4-4.9-3.9-4.9-8.3c0-4,0-5.1,0-5.1h3
	c0,0.3,0,0.7,0.3,1.1C44.7,23,45.5,22.5,46.1,22.1z"/>
<path class="st5" d="M50.4,22.1c0,0,0,1.1,0,5.1c0,1.3-0.2,2.5-0.6,3.5l-4.3-7.9l-4.3,7.9c-0.4-1-0.6-2.2-0.6-3.5c0-4,0-5.1,0-5.1
	H50.4L50.4,22.1z"/>
<path class="st1" d="M49.9,30.3c-0.1,0.2-0.2,0.6-0.3,0.8l-4.1-7.6l-4.1,7.6c-0.1-0.2-0.2-0.6-0.3-0.8l4.4-8.2L49.9,30.3z"/>
<path class="st1" d="M47.5,33.1c0.1,0.1,0.3,0.2,0.4,0.2c0.2-0.5,0.3-1.1,0.2-1.7c-0.2,0.6-1.1,0.6-1.3,1c0.1,0.1,0.3,0.2,0.4,0.2
	c-0.3,0.3-0.9,0.8-1.3,0.9v-4.1c0-0.3-0.1-0.5-0.1-0.8c0,0,0-0.7,0-0.8s0-0.5-0.2-0.5s-0.2,0.3-0.2,0.5s0,0.8,0,0.8
	c0,0.2-0.1,0.5-0.1,0.8v4.1c-0.2-0.6-1-0.4-1.4-1c0.1,0,0.3,0,0.5,0c-0.3-1-1.1-1-1.2-1.3c0,0.4-0.2,1.3,0.1,1.7
	c0.1-0.1,0.1-0.1,0.3-0.2c0.3,0.7,1.8,0.7,2.1,1.9C45.8,34.3,46.8,33.8,47.5,33.1z"/>
<path class="st1" d="M45.5,29.7c0.3,0,1.3-0.1,1.7-0.1c0.1,0,0.2-0.1,0.2-0.3S47.3,29,47.2,29c-0.4,0-1.4-0.1-1.7-0.1
	S44.2,29,43.8,29c-0.1,0-0.2,0.1-0.2,0.3s0.1,0.3,0.2,0.3C44.2,29.6,45.2,29.7,45.5,29.7z"/>
<path class="st1" d="M45.3,28c-0.1-0.1-0.2-0.1-0.3-0.1c-0.2,0-0.4,0.2-0.4,0.4s0.2,0.4,0.4,0.4s0.4-0.2,0.4-0.4
	c0-0.2,0.2-0.2,0.2,0c0,0.3-0.3,0.6-0.6,0.6s-0.6-0.2-0.6-0.6s0.3-0.6,0.6-0.6c0.1,0,0.2,0,0.3,0.1C45.3,27.8,45.3,27.9,45.3,28z"/>
<path class="st1" d="M43.8,29.6c0.1,0,0.2-0.1,0.2-0.3S43.9,29,43.8,29"/>
<path class="st1" d="M43.9,29.6c0.1,0,0.2-0.1,0.2-0.3S44,29,43.9,29"/>
<path class="st1" d="M44.9,29.6c0.1,0,0.2-0.2,0.2-0.4c0-0.2-0.1-0.4-0.2-0.4"/>
<path class="st1" d="M45.1,29.7c0.1,0,0.2-0.2,0.2-0.4s-0.1-0.4-0.2-0.4"/>
<path class="st1" d="M45.8,29.7c0.1,0,0.2-0.2,0.2-0.4c0-0.2-0.1-0.4-0.2-0.4"/>
<path class="st1" d="M46,29.7c0.1,0,0.2-0.2,0.2-0.4s-0.1-0.4-0.2-0.4"/>
<path class="st1" d="M47.1,29.6c0.1,0,0.2-0.1,0.2-0.3c0-0.2-0.1-0.3-0.2-0.3"/>
<path class="st1" d="M43.4,32.9c0.1-0.1,0.3-0.1,0.4-0.2"/>
<path class="st1" d="M47.3,32.9L47.3,32.9"/>
<path class="st1" d="M47.5,33.1c0.3-0.3,0.5-0.6,0.6-1"/>
<path class="st6" d="M44.6,25.7c0-0.1,0.1-0.1,0.2-0.2c0.1-0.1,0.2-0.1,0.2-0.1h1.2c0.1,0,0.1,0,0.1,0.1v1.7c0,0.1,0,0.1-0.1,0.1
	h-1.7L44.6,25.7"/>
<path class="st7" d="M46,27.4c0.2,0,0.1,0,0.2-0.1c0.1-0.1,0.1-0.1,0.1-0.2v-1.5c0-0.1,0-0.1-0.1-0.1h-1.1c-0.1,0-0.1,0-0.2,0.1
	c-0.1,0.1-0.2,0.1-0.2,0.2v1.7L46,27.4L46,27.4z"/>
<path class="st6" d="M46.1,27.4c0,0.1,0,0.1-0.1,0.1h-1.2c-0.1,0-0.1,0-0.1-0.1v-1.7c0-0.1,0-0.1,0.1-0.1H46c0.1,0,0.1,0,0.1,0.1
	V27.4z"/>
<path class="st8" d="M48.5,21.1c0.2,0.3,0.3,0.6,0.2,1h-0.4c0.2-0.5,0.1-0.9-0.6-0.9c-1-0.1-2.1,1.8-3.8,2c-0.5-0.6-0.5-1.7,0.2-2.2
	c-0.3-0.9-1-2-1.5-2.4c-0.3-0.1-0.7-0.1-0.9-0.1c0.2-0.5,0.9-1.1,1.5-1.3c0.1-0.1,0.2-0.3,0.3-0.4c0.1-0.7,3.5-0.4,4.3,0.1
	C47.8,17.6,48.2,20.3,48.5,21.1z"/>
<path d="M44.3,21.6c-0.1-1.3-0.6-2.3-1.3-3c0.3,0.1,1,0.1,1.5-0.2c0.6-0.4,2.3-1.1,2.9-0.8c0,0.1,0.1,0.3,0,0.5
	c-0.1-0.4-1.7,0.2-2.2,0.4c-0.4,0.2-0.6,0.5-0.5,1.1c-0.2-0.2-0.2-0.4-0.4-0.6c0.1,0.2,0.2,0.7,0.2,1c-0.1-0.3-0.3-0.8-0.6-1.1
	c0.3,0.6,0.6,2.1,0.5,2.9c0.3,0,0.8-0.3,1-0.4c-0.2,0.3-0.8,0.5-1.1,0.6c-0.2,0.2-0.3,0.7-0.3,1C44,22.5,44.1,21.6,44.3,21.6z"/>
<path d="M48.5,21.1c-0.3-0.3-0.9-0.5-1.6-0.3c0.1-0.1,0.4-0.2,0.6-0.2c0-0.2-0.2-1.1-0.2-1.3l0.2-0.1c0.1,0.5,0.2,1.1,0.3,1.3
	c0.1,0,0.2,0,0.4,0.1c-0.1-0.2-0.4-1.6-0.4-1.8l0.3-0.2C48.1,19.5,48.3,20.6,48.5,21.1z"/>
<path class="st8" d="M48.4,22.1c0.2-0.5,0.1-0.9-0.6-0.9c-0.5,0-1,0.4-1.7,0.9H48.4z"/>
<path class="st8" d="M44.2,18c-0.3,0-0.9,0-1.2-0.1c0-0.1,0.1-0.2,0.1-0.3c-0.2,0.1-0.6,0.4-0.7,0.6C42.8,18.2,43.7,18.3,44.2,18z"
	/>
<path class="st4" d="M44.2,20.9c0.1,0.3,0.2,0.6,0.2,0.9"/>
<path class="st4" d="M43.3,17.1c-0.2,0.3-0.3,0.5-0.4,0.7c0.3,0.1,1,0.2,1.2,0.1"/>
<path class="st4" d="M42.7,18.5c0.1,0,0.2,0,0.3,0.1c0.3,0.1,1,0.1,1.5-0.2c0.5-0.3,1.8-1.4,3.2-1.5"/>
<path class="st4" d="M42.3,18.2c0.5,0.1,1.4,0.1,1.9-0.2c1.1-0.7,2.2-1.2,3.2-1.2"/>
<path class="st2" d="M50.2,23.2c1.6,1.1,2.8,2.2,3.1,3.9c0.3,1.7,1,2.2,1.8,1.7c-0.2,1-1.2,1.1-2,0.3c0.1,1.1-0.4,2.5-1.6,3
	c-0.1-0.7,0.4-1.2,0.2-1.8c-0.1-0.2-0.1-0.8,0.2-1.1c-0.6,0.2-1.6-0.2-1.7-1.1c0.7,0.3,1.6,0.4,2-0.5C52.7,26.7,52.6,25.1,50.2,23.2
	z"/>
<path class="st2" d="M52.3,14.3c0.5-1.3,1.8-1.2,2.2-0.6c1.3-0.7,1.4,0.9,2.5,0.6c0,0.3-0.4,0.6-0.8,0.6c0.4,0.4-0.2,0.9,0.7,1.3
	c-0.8,0.4-1.8,0-2.1-1.1c-0.2,0.5-1.1,0.5-1.5,0.1c0.8-0.2,0.7-0.9,0.3-1.2C53.2,13.7,52.4,13.8,52.3,14.3z"/>
<path class="st2" d="M48.4,17.1c0.4,1.1,1.1,2.2,1.9,2.9c0.9,0.8,2.3,0.6,3-0.2c0,1.6-1.6,1.7-2.5,1.2c-0.4-0.2-0.7-0.1-0.3,0.2
	c0.6,0.5,1.9,0.9,3.4,1.3c2.7,0.6,1.7,2.7,0.9,2.7c0.2,0,0.4-0.2,0.1-0.5c-2.3-2.1-7-1.3-6.9-5.9c-0.5,1.2-2.5,0.7-1.6-0.7
	c0.3,0.2,0.8,0.3,1-0.1c0.1-0.3,0-0.8-0.5-1.2c0.1,0,0.3,0,0.3-0.2c0,0.1,0.1,0.3,0.4,0.3c0.1,0.1,0.2,0.2,0.3,0.2
	c0,0,0.1,0,0.1-0.2C48,17.1,48.3,17.1,48.4,17.1z"/>
<path class="st1" d="M50.8,21.1c1.1,0.7,2.3,0.7,3.5-0.6c0.4-0.4,0.9-0.8,1.3-0.8c0.4,0,0.4-0.4,0.7-0.5c-0.2-0.1-0.3-0.3-0.5-0.3
	c0.7-0.2,0.5-0.8,0.9-1.1c-0.3,0.1-0.7-0.3-1.1,0.2c0.1-0.2,0-0.5-0.1-0.7c0,0.3-0.6,0.3-0.7,1.1c-0.1,0.4-0.3,0.4-0.3-0.2
	c0-0.5-0.2-1.7-0.5-2.4c-0.3-0.6-0.3-1.5,0-1.7c-0.1-0.1-0.1-0.2-0.2-0.2c-0.4-0.3-1.2-0.2-1.4,0.3c-0.5,1.3,0.9,2,0.8,3.4
	c-0.2-1-1.9-1.3-1.9-2.3c-0.5,0.2-0.5,0.7-0.3,1.1c-0.3-0.5-1.1,0.3-1.8-0.4c-0.1,0.9,0.8,1.3,1.4,1.3c-0.3,0.6,0.1,1.1,0.6,1.3
	c0-1.1,2.2-0.6,2.2,1.2C53.4,21.4,51.7,21.6,50.8,21.1z"/>
<path class="st1" d="M53.8,22.6c2.7,0.6,1.7,2.7,0.9,2.7c-0.5,0-1-0.4-1-0.8c-0.6,0.3-0.4,0.9,0,1.1c-1.2-0.1-1.7,0.6-1.7,1.5
	c0.2-0.4,0.9-0.4,1.1-0.3c0.2,0.1,0.9,0.1,1.1-0.2c-0.2,0.2,0.1,0.6-0.2,0.9c1,0,1.4-1,1.3-1.4C56.7,25,56.5,23.1,53.8,22.6z"/>
<path class="st1" d="M51.8,31.6c0.2,0.1,0.2,0.3,0,0.5c-0.2,0.3,0.1,1-0.6,1.1c-0.2,0-0.4-0.1-0.4-0.3c-0.2-0.7,0.5-0.7,0.6-1
	C51.5,31.4,51.7,31.5,51.8,31.6z"/>
<path class="st1" d="M51.2,32.8c0.2,0.1,0.4,0.3,0.3,1c-0.1,0.3-0.1,1.1,0.2,1.1c-0.2,0.1-0.5,0.2-0.7,0c-0.2,0.2-0.5,0.2-0.6-0.2
	c-0.2,0.1-0.4-0.1-0.4-0.3c-0.2,0.1-0.4-0.1-0.4-0.5c-0.2,0.1-0.4-0.1-0.5-0.2c0.3,0,0.9-0.4,1.1-0.7C50.5,32.8,50.9,32.7,51.2,32.8
	z"/>
<path class="st4" d="M51,34.9c0.1-0.1,0.1-0.5,0.1-0.8"/>
<path class="st4" d="M50.4,34.7c0.1-0.1,0.4-0.4,0.4-0.7"/>
<path class="st4" d="M50,34.4c0.2-0.1,0.5-0.5,0.6-0.8"/>
<path class="st4" d="M49.7,33.9c0.2,0,0.7-0.4,1-0.7"/>
<path class="st1" d="M48,18.8c0,1.9,0.8,2.9,1.9,3.6c-0.4-0.2-0.2-1.1-0.8-1.4c0.1,0,0.3,0.2,0.7,0.1c-0.2-0.4-0.4-0.9-1-1
	c0.2,0,0.5,0,0.7,0C49.1,19.6,48.2,19.8,48,18.8z"/>
<path class="st1" d="M47.8,17c-0.1,0-0.1-0.1-0.2-0.2c-0.3,0.1-0.4-0.1-0.4-0.3c0,0.2-0.2,0.2-0.3,0.2c0.5,0.4,0.6,1,0.5,1.2
	c-0.2,0.4-0.7,0.4-1,0.1c0,0.8,1,1.1,1.4,0.1c0,0.2,0.2,0.2,0.3,0.4C48.3,18.1,48.1,17.5,47.8,17z"/>
<path class="st2" d="M46.1,13.1c-0.5-0.4-0.7-1.2-0.7-1.6c0-0.4,0.2-0.9,0.8-0.7c-0.2,0-0.1,0.4-0.3,0.4c0.2,0.1,0.4-0.1,0.4-0.2
	c0,0.1,0.3,0.1,0.3,0.2c0.1-0.1,0-0.4-0.2-0.5c0.1-0.1,0.2-0.4,0.1-0.5c-0.1,0-0.2,0.2-0.3,0.3c0-0.2,0-0.5-0.3-0.6
	c-0.1,0.1-0.1,0.4,0,0.5c-0.2-0.1-0.6,0.1-0.7,0.3c0-0.3,0.1-0.6,0.2-0.8c0.1-0.1-0.1-0.2-0.2,0c-0.2-0.4-0.7-0.5-0.9-0.4
	c-0.2,0.2-0.5-0.1-0.7,0.2s-0.8,0.3-0.8,0.6c0,0.2,0,0.5-0.1,0.6c-0.2,0.2,0.1,0.4,0.2,0.6c0-0.7,1.1-2.1,2.3-1.6
	c-0.1,0.2-0.2,0.5-0.2,1c0,0.6,0,1.6,0.7,2.1L46.1,13.1z"/>
<path class="st9" d="M46.4,10.9c0-0.2,0.3-0.4,0.7-0.4c0.5,0,0.8,0.4,1.2,0.4s0.2,0.2,0.1,0.2c-0.1,0.1-0.1,0.1-0.1,0.2
	s0,0.2-0.2,0.1c-0.3-0.2-0.7,0.1-1.1-0.1C46.7,11.2,46.4,11.1,46.4,10.9z"/>
<path class="st8" d="M44.5,15.4c-0.2-0.6-0.9-1.3-1.3-1.4v-0.3c0.2-0.1,0.6-0.4,0.9-0.6c1.4,0.7,3.4-0.3,4.2-1.3l0.3,0.2l-0.2,0.2
	l-0.2-0.1c-0.2,0.3-1,1-1.3,1.2c0.3,0.1,0.8,0.1,0.9,0.1c0.8-0.6,1.4-1.1,1.7-1.1l0.3,0.3l-0.2,0.2l-0.2-0.1
	c-0.9,0.7-1.8,2.2-2.2,3.3C46.8,15.8,44.9,15.9,44.5,15.4z"/>
<path class="st4" d="M47,13.2c-0.1,0-0.2-0.1-0.3-0.1c-0.2,0.1-0.5,0.3-1,0.3"/>
<path class="st4" d="M44.6,15.1c-0.1-0.7,0.1-1.5,0.4-1.7c0.8,0.5,2.1,0.5,2.9,0"/>
<path class="st4" d="M44.6,14.8c0.6,0,1.9,0.1,2.2,0.1s0.9,0.2,0.8,0.3"/>
<path class="st4" d="M44.8,14.7l0.2-0.2l-0.2-0.2l-0.2,0.2L44.8,14.7z"/>
<path class="st2" d="M45.2,11.2c-0.2-0.3-0.8-0.4-0.9,0c-0.1,0.2-0.1,0.4-0.3,0.5c-0.1,0.1-0.1,0.3,0,0.5c0.2,0.3,0,0.5,0.3,0.7
	c0-0.2,0.3-0.4,0.6-0.5s0.7-0.3,0.7-0.6C45.7,11.4,45.8,11.2,45.2,11.2z"/>
<path class="st8" d="M43.9,13.9L43.9,13.9l0.1,0.5l0,0l0.4-0.3v0.1L44,14.5c0,0,0,0,0,0.1l0.4,0.3V15L44,14.6l0,0v0.5h-0.1v-0.5l0,0
	l-0.4,0.3v-0.1l0.4-0.3c0,0,0,0,0-0.1l-0.4-0.3V14l0.4,0.3l0,0V13.9L43.9,13.9z"/>
<path class="st8" d="M44.6,15.1c-0.2,0.2-0.4,0.3-0.6,0.3c-0.5,0-0.9-0.4-0.9-0.9s0.4-0.9,0.9-0.9c0.3,0,0.5,0.1,0.7,0.4
	c0,0.1-0.1,0.4-0.1,0.5c0-0.3-0.3-0.6-0.6-0.6s-0.6,0.3-0.6,0.6s0.3,0.6,0.6,0.6s0.5-0.2,0.6-0.5C44.5,14.8,44.5,15.1,44.6,15.1z"/>
<path class="st2" d="M43.5,16c-0.1-0.1-0.2-0.2-0.2-0.4c0.1,0,0.2,0,0.3,0.1c0-0.1,0-0.3,0-0.4c0.1,0,0.3,0.2,0.4,0.3
	c0-0.1-0.1-0.3,0-0.5c0.1,0.1,0.3,0.2,0.3,0.4c0-0.2,0.1-0.5,0.1-0.6c0.1,0.1,0.2,0.2,0.3,0.3c0-0.2,0.1-0.3,0.2-0.4
	c0.1,0.1,0.2,0.3,0.2,0.6c0.1,0,0.2-0.2,0.2-0.2c0,0.1,0.1,0.2,0.1,0.4c0.1-0.1,0.2-0.2,0.3-0.3c0.1,0.1,0.2,0.2,0.3,0.4
	c0-0.1,0-0.3,0-0.5c0.1,0.1,0.3,0.2,0.3,0.4c0-0.1,0.1-0.4,0.2-0.4c0.1,0.2,0.2,0.3,0.1,0.5c0-0.1,0.1-0.3,0.2-0.3
	c0.1,0.1,0.1,0.3,0,0.5c0.1-0.1,0.2-0.2,0.3-0.2c0,0.1,0,0.2,0,0.3c0.1,0,0.2-0.3,0.3-0.4c0.1,0.1,0.3,0.3,0.3,0.4
	c0.1,0,0.3-0.2,0.3-0.3c0,0.1,0,0.2,0,0.4c0.1-0.1,0.1-0.2,0.1-0.2c0,0.1,0,0.3,0,0.4c0.1-0.1,0.2-0.1,0.3-0.1
	c0,0.2-0.1,0.4-0.2,0.7C47.4,16.2,45.5,16.1,43.5,16z"/>
<path class="st1" d="M46.7,11c0-0.1,0.2-0.2,0.4-0.2c0.3,0,0.6,0.2,0.9,0.2c0.3,0,0.1,0.1,0.1,0.1c-0.1,0-0.1,0.1-0.1,0.1
	s0,0.1-0.1,0c-0.2-0.1-0.5,0-0.8,0C46.9,11.1,46.7,11.1,46.7,11z"/>
<path class="st1" d="M43.8,16.6c-0.3,0.3-0.6,0.3-0.6,0.1c-0.1-0.2,0.2-0.3,0.1-0.5c-0.1-0.2,0.1-0.3,0.2-0.2
	c0.1,0.1,0.4-0.2,0.5,0.1c0.1,0.3,0.2,0.5,0.2,0.6C44.1,16.7,43.9,16.7,43.8,16.6z"/>
<path class="st1" d="M45.1,16.1c-0.1-0.1,0.2-0.4,0.4-0.2s0.4-0.2,0.5,0.1s0.2,0.4,0.2,0.6c0.1,0.2-0.4,0.2-0.5,0.1
	c0,0.1-0.4,0.2-0.5-0.1C45.2,16.4,45.1,16.2,45.1,16.1z"/>
<path class="st1" d="M47,16.2c-0.1-0.1,0.3-0.3,0.5-0.1c0-0.1,0.4-0.1,0.4,0.2s0,0.5,0,0.6s-0.2,0.2-0.4-0.1
	c-0.3,0.1-0.4-0.1-0.4-0.3C47.1,16.4,47.1,16.3,47,16.2z"/>
<path class="st2" d="M44,16c0-0.1,0.2-0.3,0.4-0.1c0.2,0.1,0.5-0.1,0.6,0.1c0.2,0.5,0.2,0.6,0.2,0.7c-0.1,0.1-0.4,0.1-0.5-0.1
	c0,0.1-0.3,0.1-0.4,0C44.2,16.5,44.1,16.2,44,16z"/>
<path class="st2" d="M46,16c-0.1-0.1,0.4-0.3,0.6,0c0.1-0.1,0.3-0.1,0.4,0.2c0.1,0.3,0.1,0.4,0.1,0.5c-0.1,0.1-0.3,0.1-0.4,0
	c-0.1,0.1-0.4,0-0.5-0.2S46.1,16.2,46,16z"/>
<path class="st2" d="M47.9,16.3c0-0.1,0.2-0.2,0.3,0s0.4,0,0.4,0.3c0,0.1,0,0.3-0.1,0.4s-0.5,0-0.6-0.2
	C47.9,16.6,47.9,16.5,47.9,16.3z"/>
<path class="st4" d="M43.8,16.6c-0.1-0.1-0.2-0.4-0.4-0.1"/>
<path class="st4" d="M44.8,16.6c-0.1-0.1-0.1-0.2-0.2-0.3"/>
<path class="st4" d="M45.7,16.6c-0.1,0-0.2-0.1-0.2-0.2"/>
<path class="st4" d="M45.6,16.1c0.2,0,0.3,0.2,0.3,0.2c0.1,0.1,0.2,0.2,0.2,0.2"/>
<path class="st4" d="M46.7,16.7c-0.1-0.1-0.1-0.2-0.1-0.2"/>
<path class="st4" d="M46.6,16c0.1,0.1,0.1,0.1,0.1,0.2"/>
<path class="st4" d="M47.6,16.8c-0.1-0.1-0.2-0.3-0.3-0.3"/>
<path class="st4" d="M47.5,16.3c0,0.3,0.4,0.3,0.4,0.5"/>
<path class="st4" d="M48.2,16.3c0,0.1,0.1,0.1,0.1,0.3"/>
<path class="st6" d="M7.8,7.3H9L0.9,2.6l0,0C0.8,2.8,0.7,3,0.6,3.1L7.8,7.3z"/>
<path class="st6" d="M32.1,18.2C32.1,18.2,32.1,18.3,32.1,18.2L32.1,18.2c0-0.1,0.1-0.2,0.1-0.3v-0.2l-9-5.2h-1L32.1,18.2z"/>
<path class="st6" d="M18.2,13.3l12.4,7.1c0.5-0.3,0.9-0.7,1.2-1.1L20,12.5h-1.8V13.3z"/>
<path class="st6" d="M1.6,1.8l9.6,5.5H13V6.6L2.9,0.8l0,0C2.4,1,2,1.4,1.6,1.8z"/>
<path class="st9" d="M9.2,7.3h2L1.6,1.8C1.4,2,1.1,2.3,0.9,2.6l0,0L9.2,7.3z"/>
<path class="st9" d="M22.2,12.5h-2.1l11.7,6.7c0.2-0.3,0.3-0.6,0.3-0.9v-0.1L22.2,12.5z"/>
<path class="st6" d="M0.1,20.1c0.1,0.1,0.2,0.1,0.4,0.2L13,13.2v-0.5L0.1,20.1z"/>
<polygon class="st6" points="11.1,12.5 7.9,12.5 0,17 0,19 "/>
<polygon class="st6" points="18.2,7.2 30.8,0 29.7,0 18.2,6.6 "/>
<path class="st6" d="M23.2,7.3l9-5.2V2c-0.1-0.6-0.2-1-0.4-1.4L20.1,7.3H23.2z"/>
<path class="st9" d="M0.1,20.1L13,12.7v-0.2h-1.7L0,19v1L0.1,20.1L0.1,20.1z"/>
<path class="st9" d="M18.2,7.2L18.2,7.2l1.9,0.1l11.7-6.7c-0.1-0.2-0.3-0.4-0.5-0.6h-0.6L18.2,7.2z"/>
<polygon class="st6" points="17.1,8.3 32.1,8.3 32.1,7.3 23.2,7.3 20.1,7.3 18.2,7.3 18.2,7.2 18.2,6.6 18.2,0 17.1,0 "/>
<polygon class="st6" points="14,8.3 14,0 13,0 13,6.6 13,7.3 11.2,7.3 9.2,7.3 9,7.3 7.8,7.3 0,7.3 0,8.3 "/>
<polygon class="st6" points="17.1,20.8 18.2,20.8 18.2,13.3 18.2,12.5 20,12.5 20.1,12.5 22.2,12.5 23.2,12.5 32.1,12.5 32.1,11.4 
	17.1,11.4 "/>
<polygon class="st6" points="11.1,12.5 11.3,12.5 13,12.5 13,12.7 13,13.2 13,20.8 14,20.8 14,11.4 0,11.4 0,12.5 7.9,12.5 "/>
<polygon class="st9" points="17.1,0 14,0 14,8.3 0,8.3 0,11.4 14,11.4 14,20.8 17.1,20.8 17.1,11.4 32.1,11.4 32.1,8.3 17.1,8.3 "/>
</svg>
