<?xml version="1.0" encoding="utf-8"?>
<!-- Generator: Adobe Illustrator 20.0.0, SVG Export Plug-In . SVG Version: 6.00 Build 0)  -->
<svg version="1.1" id="Layer_1" xmlns="http://www.w3.org/2000/svg" xmlns:xlink="http://www.w3.org/1999/xlink" x="0px" y="0px"
	 viewBox="0 0 64 42" style="enable-background:new 0 0 64 42;" xml:space="preserve">
<style type="text/css">
	.st0{fill:#D21034;}
	.st1{fill:#003177;}
	.st2{fill:#FFFFFF;}
</style>
<path id="Rounded_Rectangle_7_copy" class="st0" d="M5.8,0h52.3C61.4,0,64,2.6,64,5.7v30.6c0,3.2-2.6,5.7-5.8,5.7H5.8
	C2.6,42,0,39.4,0,36.3V5.7C0,2.6,2.6,0,5.8,0z"/>
<path class="st1" d="M34.2,0H5.8C2.6,0,0,2.6,0,5.7v14.5h34.2V0z"/>
<g>
	<polygon class="st2" points="18.2,15.9 17.6,14 17,15.9 15.1,15.9 16.7,17 16.1,18.8 17.6,17.7 19.2,18.8 18.6,17 20.2,15.9 	"/>
	<polygon class="st2" points="12.6,8.2 12.1,6.7 11.6,8.2 10.1,8.2 11.3,9.1 10.8,10.5 12.1,9.6 13.3,10.5 12.9,9.1 14.1,8.2 	"/>
	<polygon class="st2" points="25.2,7.3 23.8,7.3 23.3,6 22.9,7.3 21.4,7.3 22.6,8.1 22.1,9.5 23.3,8.7 24.5,9.5 24,8.1 	"/>
	<polygon class="st2" points="16.4,6 17.6,5.1 18.9,6 18.4,4.5 19.7,3.6 18.1,3.6 17.6,2.2 17.2,3.6 15.6,3.6 16.9,4.5 	"/>
	<polygon class="st2" points="20.7,11.5 20.4,10.6 20.1,11.5 19.1,11.5 19.9,12.1 19.6,13 20.4,12.5 21.2,13 20.9,12.1 21.7,11.5 	
		"/>
</g>
</svg>
