<?xml version="1.0" encoding="utf-8"?>
<!-- Generator: Adobe Illustrator 20.0.0, SVG Export Plug-In . SVG Version: 6.00 Build 0)  -->
<svg version="1.1" id="Layer_1" xmlns="http://www.w3.org/2000/svg" xmlns:xlink="http://www.w3.org/1999/xlink" x="0px" y="0px"
	 viewBox="0 0 64 42" style="enable-background:new 0 0 64 42;" xml:space="preserve">
<style type="text/css">
	.st0{fill:#215B33;}
	.st1{fill:#004FB9;}
	.st2{fill:#FFFFFF;}
</style>
<path class="st0" d="M61.9,1.4L2.1,40.6c1,0.8,2.3,1.4,3.7,1.4h52.4c3.2,0,5.8-2.5,5.8-5.7V5.7C64,4,63.2,2.4,61.9,1.4z"/>
<path class="st1" d="M2.1,40.6L61.9,1.4c-1-0.8-2.4-1.4-3.8-1.4H5.8C2.6,0,0,2.6,0,5.7v30.6C0,38,0.8,39.6,2.1,40.6z"/>
<polygon class="st2" points="14.8,12.6 14,10 13.2,12.6 10.5,12.6 12.7,14.1 11.8,16.7 14,15.1 16.2,16.7 15.3,14.1 17.5,12.6 "/>
<polygon class="st2" points="19.1,10.4 21.3,8.9 23.4,10.4 22.6,7.9 24.8,6.3 22.1,6.3 21.3,3.8 20.4,6.3 17.8,6.3 19.9,7.9 "/>
<polygon class="st2" points="22.1,18.8 21.3,16.2 20.4,18.8 17.8,18.8 19.9,20.4 19.1,22.9 21.3,21.3 23.4,22.9 22.6,20.4 
	24.8,18.8 "/>
<polygon class="st2" points="7.6,18.8 6.7,16.2 5.9,18.8 3.2,18.8 5.4,20.4 4.6,22.9 6.7,21.3 8.9,22.9 8.1,20.4 10.2,18.8 "/>
<polygon class="st2" points="6.7,3.8 5.9,6.3 3.2,6.3 5.4,7.9 4.6,10.4 6.7,8.9 8.9,10.4 8.1,7.9 10.2,6.3 7.6,6.3 "/>
</svg>
