<?xml version="1.0" encoding="utf-8"?>
<!-- Generator: Adobe Illustrator 20.0.0, SVG Export Plug-In . SVG Version: 6.00 Build 0)  -->
<svg version="1.1" id="Layer_1" xmlns="http://www.w3.org/2000/svg" xmlns:xlink="http://www.w3.org/1999/xlink" x="0px" y="0px"
	 viewBox="0 0 64 42" style="enable-background:new 0 0 64 42;" xml:space="preserve">
<style type="text/css">
	.st0{fill:#00247D;}
	.st1{fill:#FED100;}
	.st2{fill:#FFFFFF;}
</style>
<path id="Rounded_Rectangle_7_copy" class="st0" d="M5.8,0h52.3C61.4,0,64,2.6,64,5.7v30.6c0,3.2-2.6,5.7-5.8,5.7H5.8
	C2.6,42,0,39.4,0,36.3V5.7C0,2.6,2.6,0,5.8,0z"/>
<path class="st1" d="M12.4,32.3c-0.6,0,5.9-3.5,11.4-8C31,18.5,46.4,9.1,51,7.6c0.5-0.2-1,0.8-1.2,1.1c-4.9,5.7-1,16.6,5.1,22
	c1.8,1.4,1.7,1.5,5.1,1.6v0.3L12.4,32.3L12.4,32.3z"/>
<path class="st1" d="M12,32.9c0,0-0.5,0.3-0.5,0.6s0.5,0.6,0.5,0.6l47,0.5l0.9-0.6l-1.2-0.7L12,32.9L12,32.9z"/>
<polygon class="st2" points="12.3,9.2 11.9,10.3 12.9,9.6 13.8,10.3 13.5,9.2 14.4,8.5 13.2,8.5 12.9,7.3 12.5,8.5 11.3,8.5 "/>
<polygon class="st2" points="19.6,14.6 20.4,14 19.4,14 19.1,13 18.8,14 17.8,14 18.6,14.6 18.3,15.5 19.1,15 19.9,15.5 "/>
<polygon class="st2" points="5.9,15.8 5.6,14.7 5.2,15.8 4,15.8 5,16.5 4.6,17.7 5.6,17 6.5,17.7 6.2,16.5 7.1,15.8 "/>
<polygon class="st2" points="13.3,27.3 12.9,26 12.4,27.3 11,27.3 12.2,28.2 11.7,29.5 12.9,28.7 14,29.5 13.6,28.2 14.7,27.3 "/>
</svg>
