<?xml version="1.0" encoding="utf-8"?>
<!-- Generator: Adobe Illustrator 20.0.0, SVG Export Plug-In . SVG Version: 6.00 Build 0)  -->
<svg version="1.1" id="Layer_1" xmlns="http://www.w3.org/2000/svg" xmlns:xlink="http://www.w3.org/1999/xlink" x="0px" y="0px"
	 viewBox="0 0 64 42" style="enable-background:new 0 0 64 42;" xml:space="preserve">
<style type="text/css">
	.st0{fill:#C10000;}
	.st1{fill:#FFFFFF;}
</style>
<path id="Rounded_Rectangle_7_copy" class="st0" d="M5.8,0h52.3C61.4,0,64,2.6,64,5.7v30.6c0,3.2-2.6,5.7-5.8,5.7H5.8
	C2.6,42,0,39.4,0,36.3V5.7C0,2.6,2.6,0,5.8,0z"/>
<path class="st1" d="M34.2,0H5.8C2.6,0,0,2.6,0,5.7v14.5h34.2V0z"/>
<polygon class="st0" points="24.9,7 19.9,7 19.9,2 13.9,2 13.9,7 8.9,7 8.9,13 13.9,13 13.9,18 19.9,18 19.9,13 24.9,13 "/>
</svg>
