<?xml version="1.0" encoding="utf-8"?>
<!-- Generator: Adobe Illustrator 20.0.0, SVG Export Plug-In . SVG Version: 6.00 Build 0)  -->
<svg version="1.1" id="Layer_1" xmlns="http://www.w3.org/2000/svg" xmlns:xlink="http://www.w3.org/1999/xlink" x="0px" y="0px"
	 viewBox="0 0 64 42" style="enable-background:new 0 0 64 42;" xml:space="preserve">
<style type="text/css">
	.st0{fill:#5B97B1;}
	.st1{fill:#FFCE00;}
	.st2{fill:#002B7F;}
	.st3{fill:#FFFFFF;}
	.st4{fill:#CF142B;}
</style>
<path id="Rounded_Rectangle_7_copy_2" class="st0" d="M5.8,0h52.4C61.4,0,64,2.5,64,5.7v30.6c0,3.1-2.6,5.7-5.8,5.7H5.8
	C2.6,42,0,39.5,0,36.3V5.7C0,2.5,2.6,0,5.8,0z"/>
<polygon id="polygon24_10_" class="st1" points="59.7,7.1 59,9.1 60.6,7.8 62.2,9.2 61.7,7.2 63.3,5.9 61.3,5.9 60.8,3.9 60.1,5.8 
	58,5.8 "/>
<polygon id="polygon24_9_" class="st1" points="56.5,29.6 55.9,31.6 57.5,30.5 59.2,31.7 58.6,29.7 60.2,28.6 58.1,28.5 57.6,26.4 
	56.9,28.5 54.9,28.3 "/>
<polygon id="polygon24_8_" class="st1" points="52.2,34.4 51.5,36.3 53.3,35.1 54.8,36.4 54.3,34.4 55.9,33.2 53.9,33.1 53.3,31.1 
	52.6,33.1 50.6,33.1 "/>
<polygon id="polygon24_7_" class="st1" points="50.6,12.1 48.7,12.9 50.7,13.4 50.8,15.5 51.9,13.7 53.9,14.3 52.5,12.7 53.7,10.9 
	51.7,11.6 50.5,10 "/>
<polygon id="polygon24_6_" class="st1" points="42.5,37.9 43.1,39.9 43.7,37.9 45.7,37.9 44.1,36.7 44.7,34.7 43.1,36 41.5,34.7 
	42.1,36.7 40.4,37.9 "/>
<polygon id="polygon24_5_" class="st1" points="29.2,38.2 29.9,40.2 30.6,38.2 32.5,38.2 30.9,37 31.5,35 29.9,36.3 28.2,35 
	28.9,37 27.3,38.2 "/>
<polygon id="polygon24_4_" class="st1" points="35.3,38.4 36,40.4 36.6,38.4 38.6,38.4 37,37.1 37.6,35.1 36,36.4 34.3,35.1 
	34.9,37.1 33.3,38.4 "/>
<polygon id="polygon24_2_" class="st1" points="36.3,32 36.3,34 37.5,32.4 39.4,33 38.2,31.3 39.4,29.6 37.5,30.3 36.4,28.6 
	36.4,30.6 34.4,31.2 "/>
<polygon id="polygon24_1_" class="st1" points="44.3,16.7 42.5,17.8 44.5,18 44.9,20 45.7,18.1 47.8,18.3 46.2,16.9 47.1,15 
	45.3,16.1 43.9,14.7 "/>
<path class="st2" d="M32.1,17.8V2.1c0-0.8-0.3-1.5-0.8-2.1H5.8C2.6,0,0,2.5,0,5.7v15.1h29.1C30.8,20.8,32.1,19.5,32.1,17.8z"/>
<path class="st3" d="M7.8,7.3H9L0.9,2.6l0,0C0.8,2.8,0.7,3,0.6,3.1L7.8,7.3z"/>
<path class="st3" d="M32.1,18.2C32.1,18.2,32.1,18.3,32.1,18.2L32.1,18.2c0-0.1,0.1-0.2,0.1-0.3v-0.2l-9-5.2h-1L32.1,18.2z"/>
<path class="st3" d="M18.2,13.3l12.4,7.1c0.5-0.3,0.9-0.7,1.2-1.1L20,12.5h-1.8V13.3z"/>
<path class="st3" d="M1.6,1.8l9.6,5.5H13V6.6L2.9,0.8l0,0C2.4,1,2,1.4,1.6,1.8z"/>
<path class="st4" d="M9.2,7.3h2L1.6,1.8C1.4,2,1.1,2.3,0.9,2.6l0,0L9.2,7.3z"/>
<path class="st4" d="M22.2,12.5h-2.1l11.7,6.7c0.2-0.3,0.3-0.6,0.3-0.9v-0.1L22.2,12.5z"/>
<path class="st3" d="M0.1,20.1c0.1,0.1,0.2,0.1,0.4,0.2L13,13.2v-0.5L0.1,20.1z"/>
<polygon class="st3" points="11.1,12.5 7.9,12.5 0,17 0,19 "/>
<polygon class="st3" points="18.2,7.2 30.8,0 29.7,0 18.2,6.6 "/>
<path class="st3" d="M23.2,7.3l9-5.2V2c-0.1-0.6-0.2-1-0.4-1.4L20.1,7.3H23.2z"/>
<path class="st4" d="M0.1,20.1L13,12.7v-0.2h-1.7L0,19v1L0.1,20.1L0.1,20.1z"/>
<path class="st4" d="M18.2,7.2L18.2,7.2l1.9,0.1l11.7-6.7c-0.1-0.2-0.3-0.4-0.5-0.6h-0.6L18.2,7.2z"/>
<polygon class="st3" points="17.1,8.3 32.1,8.3 32.1,7.3 23.2,7.3 20.1,7.3 18.2,7.3 18.2,7.2 18.2,6.6 18.2,0 17.1,0 "/>
<polygon class="st3" points="14,8.3 14,0 13,0 13,6.6 13,7.3 11.2,7.3 9.2,7.3 9,7.3 7.8,7.3 0,7.3 0,8.3 "/>
<polygon class="st3" points="17.1,20.8 18.2,20.8 18.2,13.3 18.2,12.5 20,12.5 20.1,12.5 22.2,12.5 23.2,12.5 32.1,12.5 32.1,11.4 
	17.1,11.4 "/>
<polygon class="st3" points="11.1,12.5 11.3,12.5 13,12.5 13,12.7 13,13.2 13,20.8 14,20.8 14,11.4 0,11.4 0,12.5 7.9,12.5 "/>
<polygon class="st4" points="17.1,0 14,0 14,8.3 0,8.3 0,11.4 14,11.4 14,20.8 17.1,20.8 17.1,11.4 32.1,11.4 32.1,8.3 17.1,8.3 "/>
</svg>
