<?xml version="1.0" encoding="utf-8"?>
<!-- Generator: Adobe Illustrator 20.0.0, SVG Export Plug-In . SVG Version: 6.00 Build 0)  -->
<svg version="1.1" id="Layer_1" xmlns="http://www.w3.org/2000/svg" xmlns:xlink="http://www.w3.org/1999/xlink" x="0px" y="0px"
	 viewBox="0 0 64 42" style="enable-background:new 0 0 64 42;" xml:space="preserve">
<style type="text/css">
	.st0{fill:#CE1033;}
	.st1{fill:#009242;}
	.st2{fill:#FFCE00;}
</style>
<path class="st0" d="M58.1,0H5.8C4.4,0,3.2,0.5,2.2,1.2l28.3,16H64V5.7C64,2.6,61.4,0,58.1,0z"/>
<path class="st1" d="M2.2,40.8c1,0.8,2.2,1.2,3.6,1.2h52.4c3.2,0,5.8-2.5,5.8-5.7V24.7H30.6L2.2,40.8z"/>
<path class="st2" d="M35.3,19.9H30l-4.8-2.7L0.6,3.3C0.2,4,0,4.7,0,5.5l20.7,11.7l4.8,2.7l2,1.1l-2,1.1l-4.6,2.6L0,36.5
	c0,0.8,0.2,1.5,0.5,2.2l24.8-14l4.6-2.6h5.3H64V21v-1.1H35.3z"/>
<path d="M0,5.5v0.2C0,5.6,0,5.6,0,5.5L0,5.5z"/>
<path d="M0,36.3v0.2l0,0C0,36.4,0,36.4,0,36.3z"/>
<path d="M30.5,17.2L2.2,1.2C1.5,1.8,0.9,2.5,0.6,3.3l24.6,13.9l4.8,2.7h5.3H64v-2.7H30.5z"/>
<path d="M30,22.1l-4.6,2.6l-24.8,14c0.4,0.8,1,1.5,1.7,2.1l28.4-16.1H64v-2.6H35.3H30z"/>
<path d="M25.5,22.1l2-1.1l-2-1.1l-4.8-2.7L0,5.5c0,0.1,0,0.1,0,0.2v11.5v2.7V21v1.1v2.6v11.6c0,0.1,0,0.1,0,0.2l20.9-11.8L25.5,22.1
	z"/>
<path class="st2" d="M7.6,24.7c0,0,0,1.5,0,2.4c1.9,0,5.6-1.6,5.6-6.7s-4-6.1-5.2-6.1s-4.9,0.9-4.9,5.1S6.7,24,7.4,24
	s3.4-0.7,3.1-3.9c0,0.9-0.9,2.8-2.9,2.8c-1.9,0-3.1-1.6-3.1-3.1c0-1.6,1.2-3.6,3.2-3.6s3.5,2,3.5,4C11.3,22.2,9.9,24.7,7.6,24.7z"/>
<path class="st2" d="M9.8,21.6c-0.1-0.1-0.2-0.3-0.2-0.4l0,0c0,0,0.3-0.6,0-0.9C9.4,20,9.5,21,9.5,21l-0.1-0.2c0,0,0.2-0.8,0-0.9
	c-0.3-0.1-0.2,0.8-0.2,0.8l-0.1-0.2c0,0,0.1-0.7-0.1-0.9c-0.2-0.1-0.1,0.7-0.1,0.7l-0.1-0.1l0,0c0,0,0.1-0.7-0.1-0.9
	c-0.2-0.2,0,0.7,0,0.7l0,0c0-0.1-0.1-0.1-0.1-0.2c0,0,0.1-0.6-0.1-0.8H8.4H8.3c0,0,0,0,0-0.1c0.2,0,0.4-0.1,0.5-0.2
	c0-0.1-0.5,0-0.6,0l0.1-0.1c0,0,0.6,0,0.7-0.1c0.1-0.2-0.5,0-0.5,0l0,0l0,0l0.1-0.1c0,0,0.6,0,0.7-0.1c0.1-0.1-0.4,0-0.5,0l0.1-0.1
	c0.1,0,0.9-0.1,0.8-0.3C9.6,17.8,9.2,18,9.1,18l0,0h0.1c0,0,0.5-0.3,0.4-0.4C9.5,17.4,9.2,18,9.2,18l0,0l-0.1,0.1
	c0,0,0.4-0.5,0.2-0.4c-0.2,0-0.4,0.6-0.4,0.6l-0.1,0.1c0-0.1,0.4-0.6,0.2-0.6c-0.2-0.1-0.4,0.5-0.4,0.5l-0.1,0.1
	c0-0.1,0.3-0.6,0.1-0.5s-0.3,0.7-0.3,0.7l0,0l-0.1,0.1c0,0,0.3-0.7,0.1-0.6s-0.2,0.7-0.2,0.8c0,0,0,0-0.1,0.1v-0.1
	c0.1-0.2,0.1-0.4,0-0.3c0,0,0,0-0.1,0.1c0,0,0,0-0.1-0.1s-0.1,0.2,0,0.3V19c0,0,0,0-0.1-0.1c0-0.1-0.1-0.7-0.2-0.8
	c-0.3-0.1,0,0.6,0,0.6l-0.1-0.1l0,0c0,0-0.1-0.6-0.3-0.7c-0.2-0.1,0.1,0.5,0.1,0.5l-0.1-0.1c0,0-0.2-0.6-0.4-0.7
	c-0.2-0.1,0.2,0.5,0.2,0.6l-0.1-0.1c0,0-0.2-0.5-0.4-0.6c-0.2,0,0.2,0.4,0.2,0.4c-0.1,0-0.1-0.1-0.1-0.1l0,0c0,0-0.3-0.6-0.4-0.4
	s0.4,0.4,0.4,0.4h0.1l0,0C6.5,17.7,6,17.5,6,17.7c-0.1,0.1,0.7,0.2,0.8,0.3l0.1,0.1c-0.1,0-0.6-0.1-0.5,0c0.1,0.2,0.7,0.1,0.7,0.1
	l0.1,0.1l0,0l0,0c0,0-0.6-0.2-0.5,0c0.1,0.1,0.6,0.1,0.7,0.1l0.1,0.1c-0.1,0-0.6-0.1-0.5,0c0,0.1,0.3,0.2,0.5,0.2c0,0,0,0,0,0.1H7.4
	c0,0,0-0.1-0.1,0c-0.2,0.1-0.1,0.8-0.1,0.8c0,0.1-0.1,0.1-0.1,0.2l0,0c0,0,0.2-0.8,0-0.7c-0.4,0.4-0.3,1.1-0.3,1.1l0,0l-0.1,0.2
	c0,0,0.1-0.8-0.1-0.7c-0.2,0.1-0.1,0.9-0.1,0.9v0.1c0,0,0.1-0.9-0.1-0.7c-0.2,0.2,0,0.9,0,0.9l-0.1,0.2c0,0,0.1-1-0.1-0.7
	s0,0.9,0,0.9l0,0C6.1,21.4,6,21.5,6,21.7l0,0c0,0,0.1-0.1,0.1-0.3c0,0,0.8-0.2,0.8-0.4c0-0.2-0.7,0.2-0.7,0.2l0.1-0.1
	c0,0,0.7-0.2,0.7-0.4c0.1-0.2-0.6,0.2-0.6,0.2s0.1-0.1,0.1-0.2c0,0,0.6-0.2,0.7-0.4c0.1-0.2-0.4,0.1-0.5,0.2
	c0.1-0.1,0.1-0.2,0.1-0.2s0.7-0.2,0.7-0.4c0.1-0.2-0.6,0.2-0.6,0.2l0.2-0.3c0,0,0.4-0.1,0.6-0.2c0.2,0.2,0.6,0.2,0.6,0.2l0.2,0.3
	c0,0-0.7-0.4-0.6-0.2c0.3,0.2,0.9,0.4,0.9,0.4c0,0.1,0.1,0.1,0.1,0.2c-0.1-0.1-0.6-0.3-0.5-0.2c0.1,0.2,0.7,0.4,0.7,0.4
	c0,0.1,0.1,0.1,0.1,0.2c0,0-0.7-0.4-0.6-0.2c0.1,0.2,0.7,0.4,0.7,0.4l0.1,0.1c0,0-0.7-0.4-0.7-0.2c0,0.2,0.7,0.4,0.8,0.4
	c0.1,0.2,0.1,0.3,0.1,0.3L9.8,21.6z M7.8,19.1L7.8,19.1L7.8,19.1L7.8,19.1L7.8,19.1z M8.1,19.3C8.1,19.2,8.1,19.2,8.1,19.3L8.1,19.3
	L8.1,19.3z M8.3,19.1c0,0.2,0.1,0.5,0.1,0.5l-0.1-0.2C8.3,19.5,8.3,19.3,8.3,19.1L8.3,19.1z M8.1,19C8,19.1,8,19.1,8.1,19
	C8,19,8,19,8.1,19C8,19,8,19,8.1,19C8,19,8,19,8.1,19C8,19,8,19,8.1,19z M7.6,19C7.7,19,7.7,19,7.6,19C7.7,19,7.7,19,7.6,19
	c0.1,0,0.1,0.1,0.1,0.1S7.6,19.1,7.6,19L7.6,19z M7.3,19.1C7.4,19.1,7.4,19.1,7.3,19.1c0.1,0.2,0.1,0.4,0.1,0.4l-0.1,0.2
	C7.3,19.6,7.3,19.3,7.3,19.1z M7.6,19.2L7.6,19.2C7.6,19.3,7.6,19.3,7.6,19.2C7.6,19.3,7.6,19.3,7.6,19.2z M7.9,19.4L7.9,19.4
	C7.8,19.4,7.8,19.4,7.9,19.4C7.8,19.4,7.8,19.4,7.9,19.4c-0.1,0-0.2,0-0.2,0c-0.1,0-0.3,0.1-0.3,0.1c0-0.1,0.1-0.1,0.2-0.2
	c0,0,0.1,0,0.2,0c0.1,0,0.2,0,0.2,0c0.1,0.1,0.1,0.1,0.2,0.2C8.2,19.5,8,19.5,7.9,19.4z"/>
</svg>
