<?xml version="1.0" encoding="utf-8"?>
<!-- Generator: Adobe Illustrator 20.0.0, SVG Export Plug-In . SVG Version: 6.00 Build 0)  -->
<svg version="1.1" id="Layer_1" xmlns="http://www.w3.org/2000/svg" xmlns:xlink="http://www.w3.org/1999/xlink" x="0px" y="0px"
	 viewBox="0 0 64 42" style="enable-background:new 0 0 64 42;" xml:space="preserve">
<style type="text/css">
	.st0{fill:#FFFFFF;}
	.st1{fill:#CE1126;}
</style>
<path class="st0" d="M11.4,33.6l10.7-4.2l-10.7-4.2L22.1,21l-10.7-4.2l10.7-4.2L11.4,8.4l10.7-4.2L11.4,0H5.8C2.6,0,0,2.6,0,5.7
	v30.6C0,39.4,2.6,42,5.8,42h5.6l10.7-4.2L11.4,33.6z"/>
<path class="st1" d="M58.1,0H11.4l10.7,4.2L11.4,8.4l10.7,4.2l-10.7,4.2L22.1,21l-10.7,4.2l10.7,4.2l-10.7,4.2l10.7,4.2L11.4,42
	h46.8c3.2,0,5.8-2.5,5.8-5.7V5.7C64,2.6,61.4,0,58.1,0z"/>
</svg>
