<?xml version="1.0" encoding="utf-8"?>
<!-- Generator: Adobe Illustrator 20.0.0, SVG Export Plug-In . SVG Version: 6.00 Build 0)  -->
<svg version="1.1" id="Layer_1" xmlns="http://www.w3.org/2000/svg" xmlns:xlink="http://www.w3.org/1999/xlink" x="0px" y="0px"
	 viewBox="0 0 64 42" style="enable-background:new 0 0 64 42;" xml:space="preserve">
<style type="text/css">
	.st0{fill:#EFB22D;}
	.st1{fill:none;}
	.st2{fill:#E23D28;}
	.st3{fill:#FFFFFF;stroke:#434A54;stroke-width:0.1;stroke-miterlimit:10;}
	.st4{fill:none;stroke:#434A54;stroke-width:0.1;stroke-miterlimit:10;}
	.st5{stroke:#434A54;stroke-width:0.1;stroke-miterlimit:10;}
</style>
<path id="Rounded_Rectangle_7_copy" class="st0" d="M5.8,0h52.3C61.4,0,64,2.6,64,5.7v30.6c0,3.2-2.6,5.7-5.8,5.7H5.8
	C2.6,42,0,39.4,0,36.3V5.7C0,2.6,2.6,0,5.8,0z"/>
<path class="st1" d="M58.1,0H5.8C2.6,0,0,2.6,0,5.7v30.6c0,1.7,0.8,3.2,1.9,4.2C22,27.5,42,14.5,62,1.4C60.9,0.5,59.6,0,58.1,0z"/>
<path class="st2" d="M58.2,42c3.2,0,5.8-2.5,5.8-5.7V5.7c0-1.7-0.8-3.2-2-4.3C42,14.5,22,27.5,1.9,40.5C3,41.4,4.3,42,5.8,42H58.2z"
	/>
<g>
	<g>
		<path class="st3" d="M34.5,12c-0.4-0.1-0.6,0.1-0.6,0.5c0,0.5,0.3,0.8,0.6,0.6V12z"/>
		<path class="st3" d="M34.8,11.2c-0.3-0.2-0.6-0.1-0.7,0.3c-0.1,0.5,0,0.8,0.4,0.7L34.8,11.2z"/>
		<path class="st3" d="M35.3,10.3C35,10,34.7,10,34.5,10.5c-0.2,0.4-0.1,0.8,0.3,0.8L35.3,10.3z"/>
		<path class="st3" d="M35,14.5c-0.5,0.2-0.5,0.8-0.2,1.2c0.3,0.4,0.8,0.5,1.1,0L35,14.5z"/>
		<path class="st3" d="M34.4,13.2c-0.4-0.1-0.8,0.4-0.9,1c-0.1,0.7-1,0.9-0.5,1.9c0.1-0.6,0.5-1,0.9-1c0.3,0,0.8-0.1,1.1-0.5
			L34.4,13.2z"/>
		<path class="st3" d="M35.8,15.8c-0.5,0.1-0.6,0.8-0.2,1.3c0.3,0.4,1.3,0.3,1.2-0.1L35.8,15.8z"/>
		<path class="st3" d="M37.2,19.8c0-0.4-0.7-0.6-1-0.5s-1,0-1.1-0.4c-0.1,0.3,0.1,0.6,0.5,0.8c0.4,0.1,0.4,0.4,0.3,0.5
			C36.2,20.2,37,20.2,37.2,19.8z"/>
		<path class="st3" d="M36.8,17c-0.5-0.2-0.8,0.1-1,0.4c-0.3,0.5-1.1-0.1-1.4,0.5c0.4-0.2,0.8,0.2,1,0.3c0.5,0.3,1.5,0.2,1.7-0.6
			L36.8,17z"/>
		<path class="st3" d="M37.1,17.6c-0.5,0.4-0.7,0.8-0.7,1.1c0,0.3,0.4,1,0.9,1C37.6,19.2,37.7,18,37.1,17.6z"/>
		<path class="st3" d="M35.1,19.9c0-0.2,0.3-0.3,0.4-0.2c0.2,0.1,0.5,0.2,0.4,0.4L35.1,19.9z"/>
		<path class="st3" d="M32.4,18.9c0-0.2,0.3-0.6,0.8-0.4s0.5,0.6,0.3,0.8L32.4,18.9z"/>
		<path class="st3" d="M33.5,19.3c0-0.1,0.3-0.4,0.9-0.2c0.6,0.1,0.7,0.5,0.7,0.8L33.5,19.3z"/>
		<path class="st3" d="M32.3,18.9c0.3-0.2,0.2-0.7-0.1-0.8c-0.5-0.2-0.3-0.9-0.6-1S31,16.8,31,16.6c-0.2,0.3-0.1,0.6,0.2,0.8
			c0.2,0.2-0.2,1,0.1,1.2L32.3,18.9z"/>
		<path class="st3" d="M25.9,18.8c-0.3-0.4-0.9-0.3-1.1,0c-0.3,0.3-0.2,0.7,0,0.9L25.9,18.8z"/>
		<path class="st3" d="M27.3,18.2c-0.1-0.5-0.7-0.6-1.1-0.5c-0.3,0.1-0.6,0.7-0.4,1L27.3,18.2z"/>
		<path class="st3" d="M28.3,18.1c0.2-0.4-0.2-1.1-0.7-1.2c-0.4-0.1-0.9-0.1-1.1-0.5c-0.1,0.4,0.2,0.6,0.5,0.8
			c0.3,0.2-0.1,0.7,0.4,1L28.3,18.1z"/>
		<path class="st3" d="M28.2,18.1c-0.1-0.3,0.1-0.7,0.5-0.7s0.7,0.3,0.5,0.7H28.2z"/>
		<path class="st3" d="M29.2,18.2c-0.1-0.3,0.2-0.7,0.6-0.6s0.6,0.4,0.4,0.8L29.2,18.2z"/>
		<path class="st3" d="M30.2,18.3c0-0.3,0.2-0.7,0.7-0.6c0.4,0.1,0.6,0.5,0.3,0.8L30.2,18.3z"/>
		<path class="st3" d="M22.9,23.8c-0.8,0-1,0.2-1.1,1C21.7,25.8,23.1,26,22.9,23.8z"/>
		<path class="st3" d="M23.3,22.7c-1.2-0.5-1.9,1.5-3.1,1.1c0.4,0.7,1.5,0,1.9,0.1C22.7,24,24.2,23.8,23.3,22.7z"/>
		<path class="st3" d="M22.5,25.4c-0.6-0.3-1.3,0.7-1.2,1.1C21.5,27,22.9,26.5,22.5,25.4z"/>
		<path class="st3" d="M19.6,29.4c0.3,0.1,0.7,0.3,0.7,0.9c-0.1,0.6-1.3,2-2.4,2s-1.5,1.4-2.4,1c0.9-0.2,0.9-1.2,1.6-1.5
			c-0.5-0.2-0.8,1-1.4,1s-1,1-1.7,1c-0.8-0.1-0.9,1.3-2.5,1.3c-1.2,0-2.7,1.4-3.2,0.8c1.2-0.2,1.6-0.8,2.3-1.5
			c1.1-1.2,2.4-0.6,2.8-1.7c-0.5,0.3-1.1,0.5-1.7,0.5c-0.7,0-1.5,1.2-2.4,0.6c0.5-0.1,0.8-0.3,1.3-0.8s1.3-0.2,1.9-0.7
			c0.9-0.9,1.7-0.1,2.6-1.2c-0.3-0.1-0.8,0-1.3,0.2c-0.5,0.3-1.2-0.2-1.7,0.1c0.1-0.7,1.4-0.3,2.3-0.8c0.9-0.6,1.7-0.4,2.5-0.3
			c-1,0-1.4-1-2.9-0.7c-0.6,0.1-1.1-0.9-1.7-0.4c0-0.4,0.7-0.7,1.3-0.3c0.7,0.4,0.9-0.3,2.3,0.5c0.6,0.3,1.5-0.2,2.1,0.2
			c-0.1-0.2-0.4-0.4-0.8-0.3C17.3,28.8,18.9,28.9,19.6,29.4z"/>
		<path class="st3" d="M20.7,28.6c-0.5-0.4-1.3,0.1-1.8-0.1c0,0.3,0.2,0.8,0.7,1C19.8,29.4,20.6,28.8,20.7,28.6z"/>
		<path class="st3" d="M21.5,27.5c-0.8-0.4-1,0.6-1.6,0.4c0,0.3,0.3,0.7,0.8,0.8L21.5,27.5z"/>
		<path class="st3" d="M22,26.5c-1.2-0.5-1.4,0.7-2.1,0.5c0.2,0.4,1.2,0.6,1.7,0.5L22,26.5z"/>
		<path class="st3" d="M23.7,21.4c-0.3-0.5-1-0.1-1.1,0.5c-0.1,0.5,0.2,1.3,0.6,1.1L23.7,21.4z"/>
		<path class="st3" d="M24.5,19.9c-0.6-0.1-1.2-0.1-1.1,0.5c-0.2,0.1-0.3,0.8,0.3,1L24.5,19.9z"/>
		<path class="st3" d="M24.9,19.6c-0.6-0.6-1.2-0.6-1.5-0.4c-0.6,0.5-1.3,0.2-1.3,0.7c0.4-0.3,0.7,0.1,1,0s0.5,0.5,1.4,0.2
			L24.9,19.6z"/>
		<path class="st3" d="M23.6,29.2c0.1,0.2,0.6,0.2,0.9,0c0.3-0.3,0-1.3-0.6-1.4S23.3,28.9,23.6,29.2z"/>
		<path class="st3" d="M23,29.3c0.8,0.3,1.1-0.3,0.7-0.7C23.5,28.7,23.1,29.1,23,29.3z"/>
		<path class="st3" d="M20.1,30.3c-0.1,0.4-0.9,0.5-1.7,1.8c-0.8,1.3-1.6,0.8-1.8,1.7c1-0.8,1.8-0.3,2.4-1.1c0.9-1.2,1.7-1,2-1.9
			c0.5-1.2,2.7-1.2,2.8-3C23.1,27.8,20.7,29.7,20.1,30.3z"/>
		<path class="st3" d="M39,12.2c1,0.3,1,1.6,2.1,2s1.2,1.4,2.1,1.2c-0.8-0.2-0.8-1.2-1.7-1.4c-1-0.3-1.4-1.8-2.2-2.1"/>
		<path class="st3" d="M43.4,18.7c0.2,0.4,0.1,1.1-0.5,1.2c0.3,0.2,0.8,0,1.1-0.4c-0.4,0.9-0.1,1.7,0.5,1.8
			c-0.3-0.6,0.4-0.9,0.2-1.3c0.4,0.2,0.7,0.7,0.7,1c0.5-0.6-0.4-1.3-0.2-1.9L43.4,18.7z"/>
		<path class="st3" d="M37.2,24.8c-0.6-0.5-0.8,0.1-1.1-0.1s-0.6-0.2-0.8,0c0.5,0,0.3,0.4,1.2,0.5c-1,0.1-0.8,1.2-1.4,1.1
			c0.7,0.7,1.1-0.6,1.6-0.4c-0.2,0,0.3,0.4,0,1c0.5,0,0.7-0.7,0.7-1L37.2,24.8z"/>
		<path class="st3" d="M24.3,30.4c-0.2-0.2-0.8-0.3-1.1-0.1c-0.2,0.1-0.2,0.2,0.1,0.2c0.3,0,0.7,0.5,0,0.5c-0.3,0-0.2,0.7-0.8,0.8
			c0.2,0.3,0.9,0.1,1.2-0.2c0,0.3,0.3,0.5,0.2,0.8c0.4,0,0.2-0.9,0.9-0.9c-0.3,0-0.2,0.7,0.3,0.5c-0.3,0.1-0.1,0.5,0.2,0.4
			c-0.2,0.1-0.3,0.3,0,0.5C25.7,32.6,25.4,31.2,24.3,30.4z"/>
		<path class="st3" d="M50.4,17.2c0.9,0,1.7-0.7,1.7-1.7c0-0.9-0.7-1.7-1.7-1.7c-0.9,0-1.7,0.7-1.7,1.7S49.5,17.2,50.4,17.2z"/>
		<path class="st3" d="M41.7,19.2c0.5-0.5,1.3-0.7,1.8-0.4c0.5,0.4,2.3,0.8,3.1,0.2c0.9-0.6,1.3-0.9,1.7-0.8
			c0.3,0.4,0.6,0.6,1.1,0.7c0.1,0.1,0.6,0.3,0.9,0.2c0.4,0.1,0.9,0,1.2-0.4c0.6,0.1,1.1-0.3,1.3-1c0.6-0.1,0.6-0.8,0.3-1.2
			c-0.4-0.1-0.1-1.3-1.4-1c0.6,0.3,0.1,1,0.6,1.3c-0.3,0-0.7,0.1-0.8,0.6c0.1-0.3,0-0.5-0.1-0.6c0-0.3-0.6-1-1.2-0.7
			c0.4,0.1,0.2,0.8,0.5,1c-0.2,0-0.4,0.1-0.6,0.3c-0.2-0.3-0.7-0.6-1-0.6c0-0.1,0-0.3-0.1-0.4c-0.1-0.3-0.3-0.6-0.2-1.1
			c-0.3,0.3-0.5,0.7-0.7,1.1c-0.5-0.3-1.6,0.1-2.1,0.3c-0.5,0.1-2.3-0.2-2.7-0.6s-1.2-0.7-1.9-0.9c-1-0.3-1-1.4-2.2-2.2
			C39.1,14.3,41.3,18.7,41.7,19.2z"/>
		<path class="st3" d="M30,29.8c0.9,0,1.6-0.7,1.6-1.6s-0.7-1.6-1.6-1.6s-1.6,0.7-1.6,1.6C28.4,29.1,29.1,29.8,30,29.8z"/>
		<path class="st3" d="M26.2,28.6c0.3,0.4,0.9,0.4,1.1,0.4c0.2,0.5,0.8,0.5,1.1,0.8c0.3,0.3,1.2,0.3,1.4,0.1c-0.2,0-0.6-0.2-0.9-0.4
			c-0.4-0.3-0.2-0.9-0.5-1.1c0.2-0.2,0.3-0.6,0.2-0.8c0.2-0.1,0.4-0.3,0.4-0.5c0.4,0,0.7-0.2,0.9-0.4c0.2,0.2,0.7-0.1,1,0.3
			c0.1-0.8-0.7-1.2-1.2-0.9c-0.2-0.1-0.7,0-0.8,0.1c-0.2-0.1-0.6,0.2-0.9,0.3c0.2-0.1,0.3-0.5,0.2-0.7c0.2-0.1,0.4-0.4,0.5-0.6
			c0.3,0,0.7-0.1,0.9-0.1c-0.3-0.4-0.8-0.6-1.4-0.5c-0.5,0-0.8,0.4-0.9,0.8c-0.3,0.2-0.4,0.8-0.3,1.1c-0.2,0-0.4,0.2-0.4,0.3
			c-0.3-0.1-0.6-0.2-0.9-0.2"/>
		<path class="st3" d="M25.9,25.9c-0.1-0.3,0-0.6,0.1-0.8c0.2-0.6,0.1-0.8-0.5-0.7C25.4,24.6,25.7,25.6,25.9,25.9z"/>
		<path class="st3" d="M25.5,24.4c0.1,0.1,0.7,0.2,0.7-0.2c0.1-0.5-0.1-0.7-0.6-0.5C25.5,23.7,25.5,24.2,25.5,24.4z"/>
		<path class="st3" d="M25.6,23.6c0.2,0.1,0.6,0.2,0.8-0.2c0.2-0.4-0.1-0.7-0.5-0.6C25.9,22.8,25.7,23.2,25.6,23.6z"/>
		<path class="st3" d="M25.9,22.7c0,0.1,0.5,0.6,0.9,0.3c0.4-0.3,0.4-0.9-0.2-1.1C26.5,21.9,26.1,22.4,25.9,22.7z"/>
		<path class="st3" d="M26.6,21.9c0.1,0.3,0.4,0.8,1.1,0.6c0.6-0.2,0.4-1,0.1-1.2C27.6,21.3,26.9,21.6,26.6,21.9z"/>
		<path class="st3" d="M27.8,21.3c0,0.3,0,1,0.9,1s0.6-1,0.4-1.2C28.7,21.1,28.1,21.1,27.8,21.3z"/>
		<path class="st3" d="M29.1,21.2c-0.1,0.2-0.3,1.5,1.4,1.2C30.6,22.3,31.2,21.1,29.1,21.2z"/>
		<path class="st3" d="M30,21.3c-0.2,0.2,0.3,1.5,1.4,1.3C32.5,22.4,31.5,21.1,30,21.3z"/>
		<path class="st3" d="M30.9,21.5C30.8,21.9,31,23,32.4,23C33.7,23,32.3,21.5,30.9,21.5z"/>
		<path class="st3" d="M32,21.8c-0.1,0.2-0.2,1.4,1.4,1.5C34.6,23.4,34.4,21.7,32,21.8z"/>
		<path class="st3" d="M33.8,22.3c-0.2,0.4-0.4,1.3,1.4,1.3C36.3,23.7,35.6,22.3,33.8,22.3z"/>
		<path class="st3" d="M35.3,22.6c-0.3,0.4-0.1,1.1,0.6,1.2c0.8,0.2,1-0.6,0.4-1C35.7,22.4,35.3,22.6,35.3,22.6z"/>
		<path class="st3" d="M36.1,22.7c-0.2,0.3-0.1,1.2,1.2,1.2C37.6,23.9,38.6,22.9,36.1,22.7z"/>
		<path class="st3" d="M26.3,38.4c1,0,1.9-0.8,1.9-1.9c0-1-0.8-1.9-1.9-1.9c-1,0-1.9,0.8-1.9,1.9C24.4,37.5,25.2,38.4,26.3,38.4z"/>
		<path class="st3" d="M39.9,11.3c-0.1,0.1-0.4,0.6-0.5,0.7c-0.6,1.9,1,3.3,2,5.3c0.8,1.6,0.7,4.1-0.5,5.7c-0.4,0.5-0.3,0.7-0.8,1.2
			c-0.2,0.2-0.4,0.5-0.4,1.2c0.3-0.1,0.8,0.2,0.9,0.5c0.2-0.1,0.6-0.1,0.7,0.1c0.4-0.2,0.7-0.1,1.1,0.3c0.3,0,0.6,0,1,0.3
			c0.2-0.3,0.5-0.5,0.7-0.4c0-0.4,0.4-0.7,0.8-0.6c-0.1-0.6,0.4-1,0.9-0.8c0.4-0.3,1.3-0.4,1.7,0.1c-0.8-0.2-0.7,0.6-1.4,0.5
			c0.2,0.5-0.3,0.8-0.7,0.9c0.3-0.1,0.6-0.3,0.7-0.1c0.2-0.2,0.7-0.1,0.8,0c0.3-0.1,0.6,0,0.8,0.4c0.4,0.3,0.7,0.9,0.4,1.4
			c-0.1-0.5-0.5-0.5-0.6-0.7c-0.3,0.1-0.7,0.1-0.8-0.1c-0.2,0.2-0.8,0.4-1.1,0.1c-0.1,0.4-0.5,0.8-0.9,0.8c0.1,0.3-0.2,0.9-0.5,1.2
			c0.4,0.2,0.3,0.7,0.2,1c0.6,0.1,0.1,0.6,1.2,1c-0.5,0.2-1.6,0-1.7-0.6c-0.5,0-0.9-0.6-0.9-1.1c-0.4-0.4-0.5-0.9,0.1-1.3
			c-0.5,0.1-0.7-0.6-1.4-0.3c-0.3,0.2-1.3-0.1-1.2-0.4c-0.1,0.2-1,0.1-1.1-0.3c-0.3,0.2-1-0.1-0.9-0.5c-0.4,0.2-0.9-0.1-0.9-0.5
			c-0.3,0-0.4-0.4-0.4-0.6c-0.3-0.1-0.2-0.4-0.1-0.8c-0.2-0.2-0.1-0.6,0-0.9c-0.2-0.4-0.1-0.7-0.1-1c-1.2-0.1-2.6-0.4-5.9-1.4
			c-5-1.5-6.3,2.1-5.2,4.3c1.3,2.6-0.1,3.2,0.3,5.1c0.5,0.1,0.7,0.5,0.7,0.9c0.3,0,0.5,0.3,0.4,0.7c0.2,0,0.5,0,0.7,0.2
			c0.2-0.3,0.7-0.4,1,0c0.6,0,0.9,0.5,0.9,1.1c0.3,0.6,0.2,1.3-0.1,1.8c0-0.3,0-0.6,0-0.8c0-0.4-0.6-0.5-0.5-0.8
			c-0.3,0-0.6-0.1-0.7-0.3c-0.2,0.1-0.4,0.2-0.6,0.1c0.3,0.1,0.6,0.7,0.5,1.1c0.2,0.3,0.1,0.8-0.1,1c-0.1,0.5-0.5,0.6-0.9,0.4
			c0.3-0.2,0.4-0.5,0.3-0.7c-0.2-0.1-0.3-0.4-0.3-0.6c-0.5,0.1-1.1-0.3-1.2-0.5c-1,0-1.9,0.8-1.9,1.9c0-0.4-0.5-0.8-0.5-1.1
			c-0.3-0.9,0.1-1.7,1.3-1.9c-0.1-0.3,0.4-0.7,0.2-1.1c-0.2-0.5-0.7-1.1-1.4-1.9c0.4-0.7,0.3-1.6,0-2.2c-0.3-0.8-0.7-0.6-1.9,0.7
			c-2,2.2-4.6,1.6-7,3c-0.6,0.4-1.2,0.5-0.6-0.1c0.7-0.7,2.4-1.3,3.6-1.9c2.2-1.1,4-2.9,4.7-6.4c1.7-8.2,7.9-5.5,11.8-4
			c3.7,1.4,3-1.8,1.2-3.8c-2.2-2.4-1.8-4.2-0.7-5.7C37,10,40.7,10.6,39.9,11.3z"/>
		<path class="st3" d="M46.6,31.5c1.1,0,2.1-0.9,2.1-2.1c0-1.1-0.9-2.1-2.1-2.1c-1.1,0-2.1,0.9-2.1,2.1
			C44.6,30.6,45.5,31.5,46.6,31.5z"/>
	</g>
	<path class="st4" d="M38.8,11.4c-0.5,2-0.1,2.9,0.6,3.8c1.4,1.8,2.5,6,0.9,8.7"/>
	<g>
		<path class="st4" d="M41.2,21.6c0.2-0.1,0.6-0.3,0.6-0.7"/>
		<path class="st4" d="M41.3,20.7c0.1-0.3,0.6-0.5,0.6-0.9"/>
		<path class="st4" d="M41.3,19.3c0-0.4,0.5-0.7,0.5-1"/>
		<path class="st4" d="M41,18c0-0.2,0.5-0.6,0.3-0.9"/>
		<path class="st4" d="M40.6,16.8c-0.1-0.2,0.3-0.5,0.1-0.7"/>
		<path class="st4" d="M40.1,15.8c0-0.2,0.2-0.5,0.1-0.7"/>
		<path class="st4" d="M39.5,14.6c0-0.1,0.2-0.2,0.2-0.4"/>
		<path class="st4" d="M39.1,13.7c0.1,0,0.3-0.1,0.3-0.3"/>
		<g>
			<path class="st4" d="M27.1,36.3c-0.5-0.2-1.1,0.1-1.2,0.5"/>
			<path class="st4" d="M26.2,37.2c0.1-0.4,0.7-0.6,0.9-0.4c-0.4-0.2-0.6,0.6-0.2,0.6"/>
			<path class="st4" d="M30.1,27.7c-0.3,0.1-0.4,0.7,0,1.1"/>
			<path class="st4" d="M30.5,27.8c-0.2,0.2-0.2,0.7,0.1,0.8c-0.3-0.2,0-0.5,0.2-0.5s0.3,0.2,0.1,0.4"/>
			<path class="st4" d="M47.4,29c-0.7-0.2-1.2,0.6-0.6,1.3c0-0.7,0.5-1.1,1.1-1"/>
			<path class="st4" d="M47.6,29.8c-0.2,0-0.3,0.1-0.3,0.3c0,0.1,0.1,0.3,0.3,0.3c0.1,0,0.2-0.1,0.2-0.2"/>
			<path class="st4" d="M49.9,15c0.1,0.4,0.7,0.6,1.1,0.5"/>
			<path class="st4" d="M51,15.3c-0.3,0-0.6-0.3-0.6-0.6c0,0.2,0.5,0.3,0.6,0.2"/>
		</g>
		<path class="st4" d="M27.3,28.9c-0.1-0.2,0.3-0.5,0.3-0.7s0.4-0.4,0.9,0"/>
		<path class="st4" d="M28.2,25.7c-0.1,0-0.2,0.1-0.2,0.1"/>
		<path class="st4" d="M29,27c-0.1,0-0.3,0-0.4-0.1"/>
		<path class="st4" d="M28.6,27.5c-0.1,0-0.3,0.1-0.4,0.1"/>
		<path class="st4" d="M24.5,34.7c0,0.2,0.2,0.5,0.3,0.6"/>
		<path class="st4" d="M25.4,34.2c-0.1,0.2-0.2,0.5-0.1,0.7"/>
		<path class="st4" d="M27.2,34.9c-0.2-0.1-0.1-0.5-0.1-0.8c0-0.2,0.3-0.6,0.8-0.3"/>
		<path class="st4" d="M25.2,33.5c0.2,0,0.4,0,0.6,0"/>
		<path class="st4" d="M27.9,32.9c-0.1,0.1-0.1,0.3-0.1,0.4"/>
		<path class="st4" d="M29,32.8c-0.2,0-0.3,0.1-0.4,0.2"/>
		<path class="st4" d="M26.6,26.7c0.2,0.1,0.7,0.4,0.7,0.7"/>
		<path class="st4" d="M28.7,25.1c-0.6,0-0.8-0.6-0.4-0.6"/>
		<path class="st4" d="M29.7,25.9c-0.2,0.1-0.1,0.5,0.2,0.7"/>
		<path class="st4" d="M28.3,29.7c-0.1-0.1,0-0.6,0.4-0.4"/>
		<path class="st4" d="M29.2,34.1c0-0.4,0.5-0.6,0.7-0.2"/>
		<path class="st4" d="M27.5,35.1c0-0.4,0.2-0.5,0.4-0.6c0.2,0,0.4,0.1,0.6,0.4"/>
		<path class="st4" d="M23.9,35.4c0-0.2,0.2-0.5,0.4-0.5"/>
		<path class="st4" d="M45.9,24.8c-0.2,0.1-0.3,0.6,0.3,0.7"/>
		<path class="st4" d="M44.9,25.6c0,0.1,0.1,0.1,0.1,0.2"/>
		<path class="st4" d="M47.8,26.6c-0.2-0.1-0.6,0.4-0.2,0.7"/>
		<path class="st4" d="M44,30.6c-0.1-0.3,0.2-0.4,0.5-0.4"/>
		<path class="st4" d="M43.2,28.2c0.2-0.1,0.4-0.3,0.6-0.3"/>
		<path class="st4" d="M43.1,29.5c0-0.3,0.1-0.5,0.3-0.6"/>
		<path class="st4" d="M44.2,26.2c0,0.3,0.1,0.7,0.2,0.9"/>
		<path class="st4" d="M47,26.2c-0.2,0.1-0.3,0.1-0.4,0.3"/>
		<path class="st4" d="M46.8,27.2C46.9,27.1,47,27,47,27"/>
		<path class="st4" d="M51.3,16.7c0,0.3-0.4,0.5-0.7,0.3"/>
		<path class="st4" d="M52.3,16.8c0.2,0.1,0.8,0,0.7-0.4"/>
		<path class="st4" d="M51.5,18.7c-0.1,0-0.4-0.2-0.5-0.3"/>
		<path class="st4" d="M52.8,17.7c-0.2,0-0.4,0-0.5,0"/>
		<path class="st4" d="M49.4,18.9c0.1,0,0.4,0,0.6-0.1"/>
		<path class="st4" d="M49,16.8c-0.2,0-0.3,0-0.4,0.1"/>
		<path class="st4" d="M51.4,17.4c0,0.1-0.1,0.4-0.3,0.5"/>
		<path class="st4" d="M48.6,17.9c0.3-0.1,0.7,0.9,1.4,0.5"/>
		<path class="st4" d="M50.1,17.4c-0.1,0.1-0.2,0.3-0.2,0.5"/>
	</g>
	<path class="st4" d="M35.7,15.8c0.1,0,0.3,0,0.3-0.2"/>
	<path class="st4" d="M23.4,27c0.4,0.2,0.6,0.6,0.5,1.1"/>
	<path class="st4" d="M39.9,14.7c0.1,0.1,0.5,0.1,0.7,0"/>
	<path class="st4" d="M40.9,14.9c0,0.2,0,0.8-0.3,0.9"/>
	<path class="st4" d="M40.7,15.8c0.3,0.1,0.9,0.1,1.1-0.5"/>
	<path class="st4" d="M41.4,15.8c0.2,0.2,0.2,0.7-0.3,1"/>
	<path class="st4" d="M41.5,16.2c0.3,0.1,1.2,0.1,1.1-0.6"/>
	<path class="st4" d="M42.3,16.2c0.2,0.3,1.3,0.7,1.1,0"/>
	<path class="st4" d="M41.4,17.1c0.4,0.1,1-0.2,0.7-0.9"/>
	<path class="st4" d="M43.3,16.6c0.1,0.3,1.4,0.6,1.2-0.1"/>
	<path class="st4" d="M44.2,16.9c0.3,0.6,1.6,0.5,1.2-0.2"/>
	<path class="st4" d="M45.2,17.2c0.3,0.3,1.4,0.1,1-0.6"/>
	<path class="st4" d="M46.1,17.2c0.7,0.6,1.6-0.2,0.7-0.8"/>
	<path class="st4" d="M47.2,17.1c0.6,0.5,1.4-0.4,0.9-0.7"/>
	<path class="st4" d="M42.1,16.8c0.2,0.1,0.6,0,0.7-0.3"/>
	<path class="st4" d="M42.7,16.8c0,0.5,0.9,0.8,1.1,0.1"/>
	<path class="st4" d="M43.5,17.2c0.2,0.4,1,0.5,1.1,0"/>
	<path class="st4" d="M44.4,17.5c0.1,0.4,0.8,0.3,1,0"/>
	<path class="st4" d="M45.2,17.6c0.2,0.5,1.1,0.5,1.3-0.2"/>
	<path class="st4" d="M46.4,17.7c0.3,0.2,1.1,0.1,1-0.5"/>
	<path class="st4" d="M47.3,17.7c0.5,0.4,1.2,0,0.9-0.7"/>
	<path class="st4" d="M48.1,18.2c0.3,0,0.4-0.6,0.1-0.7"/>
	<path class="st4" d="M41.7,18.3c0.6-0.3,0.7-0.8,0.3-1.4"/>
	<path class="st4" d="M42.2,17.8c0.4,0.2,1,0,1.2-0.5"/>
	<path class="st4" d="M42.7,17.8c0.2,0.3,0.2,0.6,0,0.9"/>
	<path class="st4" d="M42.9,18.2c0.6-0.4,1.4,0.3,0.8,0.8"/>
	<path class="st4" d="M43.6,18.1c0.1,0,0.4-0.3,0.4-0.6"/>
	<path class="st4" d="M43.9,18.4c0.3-0.3,2.1,0.3,0.9,0.9"/>
	<path class="st4" d="M44.7,17.7c0.3,0.1,0.5,0.6,0,0.8"/>
	<path class="st4" d="M45.2,18.9c0.4-0.4,1.6-0.1,1.2,0.4"/>
	<path class="st4" d="M46,18.7c0.2-0.7,1.5-0.3,1.1,0"/>
	<path class="st4" d="M45.8,18c0,0.1,0,0.5-0.2,0.7"/>
	<path class="st4" d="M46.9,17.8c0,0.1,0,0.3-0.1,0.5"/>
	<path class="st4" d="M47.7,17.8c0.1,0.1,0.2,0.4-0.1,0.6"/>
	<path class="st4" d="M37.4,12.3c0,0.7,0.3,1.1,1.2,0.7"/>
	<path class="st4" d="M37.7,13.2c-0.5,0.6,0.1,1.3,1,0.6"/>
	<path class="st4" d="M36.3,13.5c0.6,0.7,1.7,0.2,1-0.8"/>
	<path class="st4" d="M38.1,14c-0.1,0.7,0.4,0.8,0.9,0.5"/>
	<path class="st4" d="M35.8,13.6c0.1,0.7,0.8,1.2,1.4,0.8"/>
	<path class="st4" d="M36.6,14.5c0,0.9,1.3,1.1,1.6,0.1"/>
	<path class="st4" d="M37.7,15.1c0.4,0.9,1.3,0.5,1.6,0"/>
	<path class="st4" d="M36.8,13.8c0.2,0.4,0.5,0.9,1.3,0.5"/>
	<path class="st4" d="M34.4,13.6c0.1,0.3,0.7,0.8,1.4,0.3"/>
	<path class="st4" d="M34.8,14c-0.4,0.6,0.4,1.1,1.3,0.3"/>
	<path class="st4" d="M35.3,14.7c0.2,0.8,0.5,1.4,1.6,0.4"/>
	<path class="st4" d="M36.3,15.5c0.4,0.5,1,0.8,1.6,0"/>
	<path class="st4" d="M38.4,15.7c0,0.6,0.1,0.9,0.6,0.9c0.4,0,0.7-0.3,0.9-0.6"/>
	<path class="st4" d="M38.8,16.5c0,0.7,0.5,1.2,1.5,0.5"/>
	<path class="st4" d="M39.2,17.3c-0.2,0.5,0.4,1.4,1.5,0.9"/>
	<path class="st4" d="M36.9,16c-0.1,0.7,0.5,1.1,1.5,0.3"/>
	<path class="st4" d="M37.3,16.7c0,0.5,0.6,1.2,1.5,0.3"/>
	<path class="st4" d="M37.8,17.4c-0.1,0.9,0.8,1.2,1.5,0.5"/>
	<path class="st4" d="M36.5,16.7c0.2,0,0.3-0.2,0.4-0.3"/>
	<path class="st4" d="M36.9,17.4c0.2,0,0.5-0.1,0.6-0.3"/>
	<path class="st4" d="M37.3,18.5c0.2,0.2,0.8,0.1,0.9-0.2"/>
	<path class="st4" d="M38,18.4c0.4,0.8,1.3,0.8,1.7-0.1"/>
	<path class="st4" d="M39.6,18.6c0.2,0.5,0.6,0.8,1.4,0.6"/>
	<path class="st4" d="M39.9,19.1c-0.4,0.7,0.1,1.5,1.1,0.7"/>
	<path class="st4" d="M40.2,20.2c0,0.4,0.3,0.9,0.9,1"/>
	<path class="st4" d="M38.4,18.9c-0.1,1,0.6,1.4,1.4,0.9"/>
	<path class="st4" d="M37.4,19.4c0.2,0.2,0.6,0.2,1,0.1"/>
	<path class="st4" d="M38.9,20c-0.2,0.8,0.6,1.4,1.3,0.5"/>
	<path class="st4" d="M37.7,19.5c0,0.4,0.4,0.9,1.1,0.7"/>
	<path class="st4" d="M40.8,21.1c-0.5,0.3-0.6,0.9,0.1,1.3"/>
	<path class="st4" d="M39.6,20.9c0,0.5,0.3,0.8,0.8,0.8"/>
	<path class="st4" d="M38.9,20.7c-0.7,0.7,0,1.4,0.8,0.8"/>
	<path class="st4" d="M39.4,21.6c-0.2,0.8,0.7,1.2,1.1,0.4"/>
	<path class="st4" d="M37.9,20c-0.3,0.7,0.1,1.2,0.7,1.2"/>
	<path class="st4" d="M37,19.9c0,0.4,0.4,0.6,0.9,0.5"/>
	<path class="st4" d="M37.3,20.4c-0.3,0.6,0.2,1,0.8,0.7"/>
	<path class="st4" d="M40,22.5c-0.1,0.4,0,0.7,0.5,0.8"/>
	<path class="st4" d="M40.1,23c-0.7,0.3-0.8,1-0.2,1.4"/>
	<path class="st4" d="M39.5,22.3c-0.4,0.3-0.3,0.9,0.1,1.1"/>
	<path class="st4" d="M36.4,20.1c-0.4,0.4,0,1.5,0.9,0.9"/>
	<path class="st4" d="M38.7,21.5c-0.6,0.5-0.3,1.3,0.6,1.1"/>
	<path class="st4" d="M37.8,21.1c-0.3,0.8,0,1.1,0.6,1.1"/>
	<path class="st4" d="M35.8,20.1c-0.5,0.4-0.4,0.9-0.1,1.1c0.2,0.2,0.6,0.1,0.8-0.2"/>
	<path class="st4" d="M34.7,19.7c-0.6,0.7,0,1.5,0.8,1.3"/>
	<path class="st4" d="M37.7,21.8c-0.6,0.2-1,0.7-0.6,1.2c0.2,0.3,1.1,0.3,1.3-0.7"/>
	<path class="st4" d="M36.7,21.2c-0.3,0.5-0.2,0.9,0.4,1.1"/>
	<path class="st4" d="M36.6,22c-0.3,0.2-0.6,0.4-0.5,0.8"/>
	<path class="st4" d="M35.8,21.3c-0.1,0.6,0,0.9,0.4,1.1"/>
	<path class="st4" d="M35.8,22c-0.5,0-0.8,0.2-0.6,0.7"/>
	<path class="st4" d="M35.2,22.1c-0.5-0.2-0.6-0.6-0.4-1.1"/>
	<path class="st4" d="M34.8,21.7c-0.6,0-0.8,0.3-0.8,0.7"/>
	<path class="st4" d="M34,19.5c-0.4,0.2-0.6,0.7-0.4,1.1c0.2,0.3,0.6,0.3,0.9,0.1"/>
	<path class="st4" d="M32.8,19c-0.4,0.4,0.1,1.3,0.7,1.1"/>
	<path class="st4" d="M31.9,18.7c-0.4,0.5,0,1.3,1,1.1"/>
	<path class="st4" d="M32.9,22.1c-0.1-0.6,0.5-1,1.3-0.2"/>
	<path class="st4" d="M33.8,20.7c-0.2,0.2-0.3,0.5-0.3,0.8"/>
	<path class="st4" d="M30.9,18.4c-0.4,0.7,0.1,1.3,0.9,1"/>
	<path class="st4" d="M33.1,20.1c-0.6,0.6-0.4,1.1,0,1.4"/>
	<path class="st4" d="M32.7,20.7c-0.9,0-0.9,1-0.2,1.3"/>
	<path class="st4" d="M32.1,19.7c-0.3,0.2-0.5,0.9,0.1,1.2"/>
	<path class="st4" d="M32.1,21.2c-0.4-0.2-0.8,0-0.8,0.5"/>
	<path class="st4" d="M31.5,21.2c-0.3-0.8-1.3-0.6-1.2,0.2"/>
	<path class="st4" d="M31.8,20.3c-0.2,0-0.6,0.2-0.8,0.5"/>
	<path class="st4" d="M31.1,19.4c-0.4,0.4-0.1,0.9,0.2,1.1"/>
	<path class="st4" d="M29.9,18.2c-0.1,0.5,0.1,0.8,0.8,0.7"/>
	<path class="st4" d="M30.2,18.9c-0.3,0.6,0.1,0.9,0.7,0.9"/>
	<path class="st4" d="M30.3,19.6c-0.4,0.5-0.1,0.9,0.3,1.2"/>
	<path class="st4" d="M30.1,20.2c-0.7-0.1-0.8,0.7-0.6,1.1"/>
	<path class="st4" d="M29.6,18.1c-0.4,0.2-0.7,0.7-0.4,1c0.2,0.3,0.7,0.2,0.9,0"/>
	<path class="st4" d="M29.3,19.3c-0.3,0.5,0,0.9,0.3,1.1"/>
	<path class="st4" d="M27.9,18.1c-0.3,0.3-0.1,0.9,0.6,0.9c0.5,0,0.8-0.5,0.6-0.9"/>
	<path class="st4" d="M28.4,19c-0.2,0.5-0.1,1,0.7,0.9"/>
	<path class="st4" d="M29.5,20.6c-0.5-0.2-1.2,0-0.9,0.6"/>
	<path class="st4" d="M28.5,19.8c-0.2,0.3-0.1,0.7,0.1,0.9"/>
	<path class="st4" d="M28.5,20.5c-0.3,0.1-0.7,0.2-0.5,0.8"/>
	<path class="st4" d="M28,20.9c-0.4-0.1-1,0.2-0.6,0.6"/>
	<path class="st4" d="M27.3,21.1c-0.4-0.1-0.8,0.3-0.5,0.7"/>
	<path class="st4" d="M26.7,21.5c-0.3,0.1-0.7,0.5-0.4,0.8"/>
	<path class="st4" d="M28.4,19.6c-0.5,0.2-0.5,0.8-0.3,1.2"/>
	<path class="st4" d="M27.9,18.6c-0.7,0.3-0.7,1.2,0.1,1.5"/>
	<path class="st4" d="M27.6,19.9c-0.4,0.3-0.5,0.7-0.2,1"/>
	<path class="st4" d="M26.9,18.3c-0.3,0.1-0.3,1,0.5,1"/>
	<path class="st4" d="M26.1,18.6c-0.6,0.4,0.1,1.4,1.1,0.7"/>
	<path class="st4" d="M26.6,19.5c-0.1,0.4,0,0.8,0.7,0.9"/>
	<path class="st4" d="M26.6,20c-0.5,0.2-0.5,1.1,0.3,1.2"/>
	<path class="st4" d="M25.2,19.1c-0.6,0.5,0.5,1,0.9,0.2"/>
	<path class="st4" d="M24.4,20c-0.3,0.3,0.7,1.3,1.2-0.3"/>
	<path class="st4" d="M25.6,19.7c0,0.4,0.2,0.6,0.7,0.6"/>
	<path class="st4" d="M26.3,20.7c-0.7,0.1-0.9,1-0.1,1.2"/>
	<path class="st4" d="M25,20.6c0,0.3,0.3,0.6,0.7,0.6"/>
	<path class="st4" d="M26.1,21.9c-0.6,0.1-0.7,1-0.2,0.9"/>
	<path class="st4" d="M25.6,23.6c-0.5-0.2-0.6-0.8-0.1-1"/>
	<path class="st4" d="M25.2,23c-0.5,0.3-0.3,0.9,0,1c0.2,0.1,0.4,0,0.5-0.2"/>
	<path class="st4" d="M25.6,24.7c0,0.3-1.1,0.2-0.5-0.8"/>
	<path class="st4" d="M25.1,24.8c-0.4,0.6,0.2,1.1,0.6,0.6"/>
	<path class="st4" d="M25.1,25.5C25,26,25.5,26.4,25.9,26"/>
	<path class="st4" d="M23.8,20.9c-0.2,0.4,0.9,0.6,0.9-0.3"/>
	<path class="st4" d="M23.5,21.6c-0.2,0.9,1.4,0.7,1-0.4"/>
	<path class="st4" d="M24.5,21.7c0.2,0.1,0.9,0.1,1.1-0.6"/>
	<path class="st4" d="M25.1,21.7c0,0.2,0.3,0.5,0.4,0.6"/>
	<path class="st4" d="M24.4,22c-0.1,0.5,0.4,0.9,0.9,0.8"/>
	<path class="st4" d="M24.4,22.4c-0.3,0.4-0.3,1.1,0.5,1.1"/>
	<path class="st4" d="M23.2,22.5c-0.1,0.4,0.6,0.8,1.1,0.1"/>
	<path class="st4" d="M22.9,23.5c-0.1,0.3,0.6,0.7,1-0.5"/>
	<path class="st4" d="M23.7,23.6c0.2,0.3,0.7,0.5,1.1,0"/>
	<path class="st4" d="M24.2,23.9c-0.1,0.4,0.3,0.8,0.7,0.7"/>
	<path class="st4" d="M23.3,23.8c-0.1,0.6,0.6,0.9,1,0.6"/>
	<path class="st4" d="M22.8,24c-0.2,0.8,0.8,1.1,1.2,0.5"/>
	<path class="st4" d="M23.7,24.7c0,0.4,0.7,0.8,1.2,0.4"/>
	<path class="st4" d="M22.5,25.1c0,0.2,0.8,0.4,0.9-0.3"/>
	<path class="st4" d="M23,25.3c0.2,0.5,0.8,0.6,1.2,0"/>
	<path class="st4" d="M24,25.5c0.1,0.5,0.7,0.7,1.2,0.4"/>
	<path class="st4" d="M25.4,26.1c-0.1,0.6,0.5,1.1,0.9,0.8"/>
	<path class="st4" d="M24.4,26c-0.2,0.7,0.6,1.1,1.1,0.7"/>
	<path class="st4" d="M23.4,25.7c0,0.6,0.4,1,1,0.7"/>
	<path class="st4" d="M22.3,25.7c-0.2,0.4,0.7,0.7,1.1,0.4"/>
	<path class="st4" d="M21.7,26.8c0.2,0.3,1,0,1.1-0.6"/>
	<path class="st4" d="M22.6,26.7c0.3,0.3,1,0.5,1.2-0.2"/>
	<path class="st4" d="M23.6,26.8c0,0.5,0.9,0.9,1.2-0.1"/>
	<path class="st4" d="M25.9,27c-0.1,0.3,0.1,0.7,0.5,0.7"/>
	<path class="st4" d="M25.2,26.8c-0.1,0.3,0.4,0.7,0.8,0.5"/>
	<path class="st4" d="M26,27.5c-0.1,0.3,0,0.8,0.4,0.8"/>
	<path class="st4" d="M26.1,28c-0.3,0.3-0.2,0.7,0.3,0.7"/>
	<path class="st4" d="M25.9,28.5c-0.4,0.3-0.3,1,0.3,0.9"/>
	<path class="st4" d="M24.6,27.2c0,0.6,0.8,0.7,1,0.1"/>
	<path class="st4" d="M25.2,27.7c-0.1,0.4,0.2,0.8,0.7,0.6"/>
	<path class="st4" d="M25.3,32.4c0.1,0.2,0.6-0.1,0.4-0.4c-0.1-0.3-0.6-0.1-0.5,0.2"/>
	<path class="st4" d="M25.6,31.9c0.1-0.5-0.6-0.6-0.7-0.2"/>
	<path class="st4" d="M25.2,31.5c0.2-0.3-0.4-0.6-0.6-0.2"/>
	<path class="st4" d="M24.8,31.1c0.1-0.4-0.5-0.6-0.5-0.2"/>
	<path class="st4" d="M24.1,30.4c0.1-0.2,0.7-0.1,0.5,0.3"/>
	<path class="st4" d="M25.1,31.2c0.3-0.2-0.2-0.7-0.5-0.6"/>
	<path class="st4" d="M26.9,31.9c-0.2,0-0.4,0.2-0.3,0.6c0.1,0.3,0.6,0.3,0.6,0.1"/>
	<path class="st4" d="M26.6,32.1c-0.2-0.1-0.6,0.1-0.4,0.5c0.2,0.3,0.5,0.2,0.6,0"/>
	<path class="st4" d="M25.4,32.7c0.1,0.2,0.6,0.1,0.7-0.1"/>
	<path class="st4" d="M25.8,32.1c0.1-0.1,0.3,0,0.3,0.1"/>
	<path class="st4" d="M25.7,29.2c-0.3,0.2-0.1,0.9,0.4,0.7"/>
	<path class="st4" d="M25.6,29.8c-0.3,0.2,0,0.9,0.5,0.6"/>
	<path class="st4" d="M25.7,30.4c-0.2,0.2,0,0.7,0.5,0.6"/>
	<path class="st4" d="M25.6,30.7c-0.1,0-0.4,0-0.5,0.2"/>
	<path class="st4" d="M25.3,28.2C25,28.5,25.2,29,25.7,29"/>
	<path class="st4" d="M25.2,28.8c-0.4,0.2-0.4,0.9,0.4,1"/>
	<path class="st4" d="M25.2,29.6c-0.2,0.2-0.1,0.8,0.4,0.7"/>
	<path class="st4" d="M25.4,30.3c-0.1,0.1-0.1,0.3,0,0.4"/>
	<path class="st4" d="M25.1,30.1c-0.2,0-0.4,0.1-0.5,0.3"/>
	<path class="st4" d="M24.3,29.7c0.1-0.2,0.7-0.2,0.7,0.4"/>
	<path class="st4" d="M25,29.4c-0.1,0-0.2,0.1-0.3,0.3"/>
	<path class="st4" d="M24.8,27.7c-0.3,0.2-0.4,1,0.4,1.1"/>
	<path class="st4" d="M24.3,29.2c0-0.2,0.5-0.4,0.7-0.1"/>
	<path class="st4" d="M23.9,28.1c0.1,0.1,0.4,0.4,0.7,0.2"/>
	<path class="st4" d="M22,26.9c0,0.3,0.3,0.7,0.7,0.6c0.4,0,0.5-0.4,0.4-0.6"/>
	<path class="st4" d="M22.7,27.6c-0.3,0.3,0.1,0.8,0.4,0.6"/>
	<path class="st4" d="M23,27.3c0.2-0.1,0.7-0.1,0.8,0.1"/>
	<path class="st4" d="M21.4,27.4c-0.1,0.2,0.6,0.4,0.9,0"/>
	<path class="st4" d="M22,27.6c0,0.2,0.1,0.6,0.7,0.5"/>
	<path class="st4" d="M22.8,28.5c0.1-0.2-0.4-0.5-0.7-0.2c-0.3,0.4,0,0.8,0.3,0.6"/>
	<path class="st4" d="M21.2,27.7C21,28,21.7,28.6,22.1,28"/>
	<path class="st4" d="M20.7,28.2c-0.3,0.3,0.1,0.7,0.4,0.6c0.4-0.1,0.3-0.5,0.3-0.6"/>
	<path class="st4" d="M20.2,28.7c-0.2,0.2,0,0.6,0.3,0.6s0.5-0.2,0.4-0.5"/>
	<path class="st4" d="M21.4,28.7c0,0.3,0.4,0.5,0.6,0.2"/>
	<path class="st4" d="M22,28.4c0-0.1,0-0.2-0.1-0.2"/>
	<path class="st4" d="M19.8,29.1c-0.2,0.2,0.3,0.7,0.6,0.2"/>
	<path class="st4" d="M21.6,29c-0.1,0.1,0.1,0.5,0.3,0.4"/>
	<path class="st4" d="M20.8,29.2c0,0.3,0.5,0.4,0.9,0.1"/>
	<path class="st4" d="M21.1,29.5c-0.1,0.2,0.1,0.4,0.3,0.4"/>
	<path class="st4" d="M25.8,31c-0.2,0.4,0.4,0.8,0.8,0.3"/>
	<path class="st4" d="M26.3,31.5c-0.1,0.2,0,0.5,0.2,0.6"/>
	<path class="st4" d="M25.7,31.9c0-0.2,0.3-0.3,0.5-0.3"/>
	<path class="st4" d="M25.4,31.4c0-0.2,0.3-0.3,0.4-0.3"/>
	<path class="st4" d="M39.5,24c-0.9,0-0.5,1.4,0.2,1.1"/>
	<path class="st4" d="M39.2,25c-0.2,0.3,0.2,0.7,0.5,0.5"/>
	<path class="st4" d="M39.6,25.5c-0.3,0.4,0.6,1.1,1,0.4"/>
	<path class="st4" d="M40.4,26.1c0,0.4,1.2,0.6,1-0.1"/>
	<path class="st4" d="M41.3,26.4c0.3,0.5,1.3,0.5,1.2-0.2"/>
	<path class="st4" d="M42.2,26.7c0.2,0.3,1.2,0.5,1.2-0.1"/>
	<path class="st4" d="M38.1,22.8c0.1,0.4,0.6,0.5,1.2,0.3"/>
	<path class="st4" d="M37.8,23c0.3,0.2-0.2,1.2-0.7,0.8"/>
	<path class="st4" d="M37.8,23.7c0.4,0.2,0.8,0,1-0.5"/>
	<path class="st4" d="M38.6,23.6c0,0.3,0.4,0.5,0.9,0.4"/>
	<path class="st4" d="M37.6,23.9c0.5,0.4-0.2,1.2-0.5,0.9"/>
	<path class="st4" d="M37.8,24.2c0.2,0.2,0.8,0.1,0.9-0.4"/>
	<path class="st4" d="M38.4,24.2c0,0.3,0.3,0.4,0.6,0.4"/>
	<path class="st4" d="M37.7,24.6c0.2,0.3,0.8,0.4,1.1,0"/>
	<path class="st4" d="M38.5,24.8c0,0.3,0.3,0.6,0.7,0.5"/>
	<path class="st4" d="M37.2,25.5c0.3,0.2,0.6-0.4,0.4-0.8"/>
	<path class="st4" d="M37.6,26.2c0.4,0,0.4-0.5,0.1-0.9"/>
	<path class="st4" d="M38.4,26.7c0.3-0.1,0.2-0.8-0.5-0.8"/>
	<path class="st4" d="M39.4,27.2c0.3-0.1,0.1-0.8-0.8-0.8"/>
	<path class="st4" d="M40.5,27.4c0.2-0.3-0.5-0.8-1-0.6"/>
	<path class="st4" d="M41.1,27.9c0.4,0.1,0.6-0.9-0.6-0.7"/>
	<path class="st4" d="M41.8,27.9c0.3-0.1,0.6-0.7-0.4-0.5"/>
	<path class="st4" d="M42.5,27.9c0.3,0.1,0.4-0.7-0.5-0.5"/>
	<path class="st4" d="M37.6,25.3c0.4,0.2,0.9,0,0.9-0.5"/>
	<path class="st4" d="M38.4,25.2c0.1,0.2,0.1,0.6-0.2,0.7"/>
	<path class="st4" d="M38.4,25.7c0.2,0.1,0.6,0,0.8-0.4"/>
	<path class="st4" d="M38.8,25.7c0.1,0.2,0.1,0.5-0.1,0.7"/>
	<path class="st4" d="M38.9,26c0.3,0.1,0.6,0,0.7-0.3"/>
	<path class="st4" d="M39.4,25.9c0.2,0.1,0.4,0.7,0,0.9"/>
	<path class="st4" d="M39.6,26.6c0.2,0,0.6,0,0.8-0.3"/>
	<path class="st4" d="M40.3,26.5c0.2,0.1,0.4,0.4,0.4,0.7"/>
	<path class="st4" d="M40.6,27c0.2,0,0.6-0.2,0.7-0.5"/>
	<path class="st4" d="M41.3,26.8c0.2,0.1,0.3,0.3,0.3,0.6"/>
	<path class="st4" d="M41.6,27.2c0.2,0,0.4-0.1,0.5-0.4"/>
	<path class="st4" d="M42,27c0.2,0.1,0.4,0.3,0.4,0.5"/>
	<path class="st4" d="M42.4,27.3c0.2,0,0.3-0.1,0.4-0.3"/>
	<path class="st4" d="M43.2,27c0.2,0.2-0.1,0.9-0.5,0.8"/>
	<path class="st4" d="M38.6,12.4c-0.4,0.3-1.7,0.2-1.1-0.9"/>
	<path class="st4" d="M38.7,11.7c-0.9,0.3-2-0.3-0.8-1.1"/>
	<path class="st4" d="M37.6,10.4c-0.7,0-1.2,1.2-0.2,1.6"/>
	<path class="st4" d="M34.8,10.9c-0.2,0.4,0.5,0.8,1,0.4c0.4-0.3,0.3-1.1,0.1-1.4"/>
	<path class="st4" d="M34.4,11.8c-0.2,0.8,1.5,0.8,1.2-0.4"/>
	<path class="st4" d="M34.3,13c0.1,0.6,1.7,0.4,1.2-0.8"/>
	<path class="st4" d="M35.6,11.9c0.1,0.2,0.5,0.5,1.1,0.4"/>
	<path class="st4" d="M35.9,11c0.1,0.2,0.4,0.4,0.9,0.2"/>
	<path class="st4" d="M19.6,29.2c-0.4,0.3,0.2,0.8,0.5,0.2"/>
	<path class="st4" d="M19.3,29.5c-0.4,0.3,0.2,0.8,0.5,0.2"/>
	<path class="st4" d="M18.9,29.7c-0.4,0.3,0.2,0.8,0.5,0.2"/>
	<path class="st4" d="M18.6,29.9c-0.4,0.2,0.1,0.7,0.5,0.3"/>
	<path class="st4" d="M18.2,30.1c-0.4,0.2,0.1,0.7,0.5,0.3"/>
	<path class="st4" d="M20.2,29.5c0,0.3,0.6,0.4,0.8,0"/>
	<path class="st4" d="M20.5,29.8c-0.2,0.2,0.1,0.5,0.3,0.4"/>
	<path class="st4" d="M19.8,29.7c0,0.3,0.5,0.4,0.7,0.1"/>
	<path class="st4" d="M20,30c-0.2,0.2,0.2,0.5,0.4,0.4"/>
	<path class="st4" d="M19.4,29.9c0,0.2,0.3,0.4,0.6,0.3"/>
	<path class="st4" d="M19.6,30.2c-0.1,0.1-0.1,0.4,0.1,0.4"/>
	<path class="st4" d="M19,30.2c0,0.2,0.3,0.5,0.6,0.3"/>
	<path class="st4" d="M19.1,30.4c-0.2,0.1-0.2,0.4,0.1,0.4"/>
	<path class="st4" d="M18.6,30.4c0,0.1,0.1,0.3,0.3,0.3"/>
	<path class="st4" d="M17.6,30.4c-0.2,0.1,0.3,0.6,0.6,0.1"/>
	<path class="st4" d="M17.1,30.6c-0.2,0.1,0.4,0.7,0.6,0.1"/>
	<path class="st4" d="M18.7,30.6c-0.2,0-0.3,0.3-0.1,0.4"/>
	<path class="st4" d="M18,30.7c0,0.1,0.2,0.3,0.4,0.2"/>
	<path class="st4" d="M17.9,30.7c-0.2,0.1-0.1,0.4,0.1,0.4"/>
	<path class="st4" d="M17.2,30.9c-0.2,0.1-0.1,0.4,0.2,0.3"/>
	<path class="st4" d="M17.6,30.9c0,0.1,0.2,0.2,0.3,0.1"/>
	<path class="st4" d="M16.7,30.8c-0.2,0.1-0.2,0.6,0.5,0.3"/>
	<path class="st4" d="M16.2,31c-0.3,0.1-0.2,0.5,0.4,0.2"/>
	<path class="st4" d="M16.7,31.2c-0.1,0.1-0.2,0.3,0.1,0.2"/>
	<path class="st4" d="M16.2,31.3c-0.1,0.1,0,0.3,0.2,0.2"/>
	<path class="st4" d="M15.5,31.4c-0.2,0.1,0.3,0.3,0.6,0"/>
	<path class="st4" d="M15.7,31.5c-0.1,0.1-0.1,0.4,0.2,0.3"/>
	<path class="st4" d="M15.1,31.6c-0.1,0.1,0.1,0.3,0.6,0.1"/>
	<path class="st4" d="M15.2,31.8c-0.2,0.1-0.1,0.3,0.1,0.3"/>
	<path class="st4" d="M14.8,31.9c-0.2,0.2,0.1,0.3,0.4,0.1"/>
	<path class="st4" d="M14.8,32.1c-0.3,0.1-0.2,0.4,0,0.3"/>
	<path class="st4" d="M25.4,33c-0.1,0.2,0.2,0.3,0.4,0.3c0.2,0,0.4-0.2,0.3-0.5"/>
	<path class="st4" d="M26,33.1c0.2,0.2,0.6,0,0.6-0.3"/>
	<g>
		<path class="st3" d="M39.2,7.7c-1-0.5-2.9-1.4-3.5-0.6c0.5-0.2,2,0,3.3,1.2L39.2,7.7z"/>
		<path class="st3" d="M39.8,7.6c-1.1-1.3-1.8-1-2.6-1.4c-0.7-0.4-1.9-0.5-2.2,0.2c1.1-0.5,2.1,0.3,2.7,0.4c0.8,0.1,1.3,0.8,1.6,1.1
			L39.8,7.6z"/>
		<path class="st3" d="M44,7.5c-0.6-1.3-1.8-1-2.3-1.5c-0.8-0.8-2.8-1.6-3.6-1c1.8-0.1,2.6,1.3,3.6,1.7C42.3,7,43,7.7,44,7.5z"/>
		<path class="st3" d="M41.8,7.3c-1-1.2-2.5-2.3-3.2-1.9c0.9,0,1.2,0.7,1.8,1.1C41.2,6.9,40.9,7.5,41.8,7.3z"/>
		<path class="st3" d="M37.2,9.5c-1-0.4-3-0.6-4,0.6C34.8,10.3,37.1,10.2,37.2,9.5z"/>
		<path class="st3" d="M37,9.9c-1-0.5-1.8,0.2-2.8,0.1c-1.8-0.2-3.2-0.1-3.3,0.8c1.1-0.9,2.8-0.2,3.5-0.4s3.4,0,4.2,0.3
			C38.2,10.3,37.5,10.1,37,9.9z"/>
		<path class="st3" d="M40.2,7.2c-0.2-0.8-0.2-1.6,1-1.6c-0.3-0.4-1.4-0.6-1.6,0.8c-1.3-1-2.7-1.1-3-0.3c0.7-0.6,1.7-0.2,3,1.3
			C39.7,7.3,40,7.2,40.2,7.2z"/>
		<path class="st3" d="M38.4,8.3c-0.7-0.5-1.7-1.3,0-1.6c-0.8-0.4-1.9-0.2-1.7,1.2c-2-0.8-3.5-0.5-3.8,0.3C32.6,9.1,33.8,9.6,34,9
			c-0.2,0.1-1-0.2-0.6-0.7s2.5-0.1,4.5,0.9C38.5,9.5,40.4,9.4,38.4,8.3z"/>
		<path class="st3" d="M37.9,9.6c-0.6-1.2-2.4-0.1-2.8-1.2C34.6,10,37.7,9.1,37.9,9.6z"/>
		<path class="st3" d="M49.7,10.9c0.4,0.2,0.7-0.1,0.1-0.3c0.4,0.2,0.7-0.1,0.1-0.3c0.4,0.2,0.7-0.1,0.1-0.3
			C50,10,49.7,10.6,49.7,10.9z"/>
		<path class="st3" d="M49.9,8.6c0.9-0.9-0.1-1.2,1-2.2c0.9-0.8,0.2-1.3,1-1.9c0.3-0.2,0.8-0.6,0.9-1c0.3,0.9-1.1,1-1,2.4
			c0.1,0.9-0.5,0.8-0.8,2.3C51,8.6,50.8,9.3,49.9,8.6z"/>
		<path class="st3" d="M50.3,9c0.5-1,1-1,1.3-1.4c0.5-0.8,1.6,0.1,2.5-0.6c-0.2,1-1.4,0.6-1.9,1.2C51.7,8.9,51.2,9.2,50.3,9z"/>
		<path class="st3" d="M50.4,9.4c0.8-0.7,1.5-0.2,2-0.6c1.5-0.9,2,0.2,3.4-0.2c-0.3,0.8-2.3,0.1-3.1,0.7
			C51.9,9.9,48.9,10.5,50.4,9.4z"/>
		<path class="st3" d="M48,14.1c0-0.4-0.4-0.9-0.9-0.9c-0.5-0.1-0.7-0.6-1.1-0.6c-0.4,0-0.6-0.8-1.2-0.8c-0.5,0-0.7,0.7,0.5,1.3
			C46.6,13.7,47.9,14.5,48,14.1z"/>
		<path class="st3" d="M46.4,14.5c-0.5,0-0.6,0.8-1.1,0.8c0.7,0.4,1.2-0.2,1.6-0.6L46.4,14.5z"/>
		<path class="st3" d="M46.9,14.6C46.4,15,46.3,15.8,47,16c-0.4-0.5,0.7-0.8,0.4-1.3L46.9,14.6z"/>
		<path class="st3" d="M47.3,14.6c-0.4,0.7,0.6,0.8,0.3,1.3c0.5-0.1,0.6-1.1,0.1-1.4L47.3,14.6z"/>
		<path class="st3" d="M43.8,13.1c0.9,0,1.7,0.4,2.2,1.2c0.3,0.5,1.5,0.7,1.8,0.3c0.4-0.4,0.2-1.2-0.8-0.9c-0.2-0.4-0.9-0.3-1.3-0.6
			C45.4,12.7,44.1,11.7,43.8,13.1z"/>
		<path class="st3" d="M47,13.6c-0.2,0-0.3,0.4-0.2,0.6"/>
		<path class="st3" d="M47.5,13.9c0.1,0.1,0,0.3,0,0.4"/>
		<path class="st3" d="M45.2,13.1c0.4,0,0.5,0.3,1,0.5"/>
		<path class="st3" d="M44.9,12c1.5,0.4,2.7,0.7,3.5,1.2c0.8,0.4,1.9,0.6,2.9,0.3s3-0.6,2.9,0.7c0.5-0.6-0.1-1.3-1.5-1.4
			c0-0.6-0.6-1.2-1.1-0.8c0.4-0.1,0.8,0.8,0,1.1c0.2-0.6-0.4-1.2-1.1-0.9c0.4,0.1,0.8,0.8-0.1,1.1c-0.6,0.2-1.4,0-2.1-0.4
			C47.6,12.4,44.1,11,44.9,12z"/>
		<path class="st3" d="M48.7,11.4c-0.5,0.2-0.2,0.7-0.9,1s-1.3,0.9-1.1,1.5c0.5-1.1,1.4-1.1,1.7-1.5S49.2,11.4,48.7,11.4z"/>
		<path class="st3" d="M48.9,11.5c0,0.9-0.7,0.6-0.4,1.8c0.1,0.4,0.2,1,0,1.6c0.8-0.6,0.3-1.7,0.6-2.2c0.2-0.2,0.4-0.6,0.5-0.8
			c-0.2,0.5-0.2,1.4,0.3,1.7c-0.4-0.9,1.1-1.7,0.1-2.8C49.7,11,49.3,11.5,48.9,11.5z"/>
		<path class="st3" d="M46.4,10.6c0.1,0.2,0.2,0.6,0.1,0.9c0.2-0.1,0.6-0.5,0.7-0.8c0.5,0.1,0.7,0.7,0.2,0.9c0.3,0,0.8,0,1.1-0.3
			C48.2,11,47.1,10.4,46.4,10.6z"/>
		<path class="st3" d="M39,8.9c-0.1-0.1-0.2-0.1-0.4-0.2c-0.7-0.1-0.4-0.8,0.3-0.8c1.3-1.4,2.1-0.3,3.7-0.8C43,7,43.4,7,43.7,7.1
			c0.7-0.5,1.6-0.3,2.2,0.2c0.1-0.1,0.2-0.2,0.3-0.2c0.6-0.2,1,0.3,1.2,0.9c0.4-0.1,0.9,0.1,1.3,0.4c0.5-0.2,0.8-0.2,0.9,0
			c0.4-0.2,0.9-0.3,1.2,0.3s-0.6,0.5-0.8,1.8c-0.1,0.8-1,1.2-1.8,0.7c-1.2-0.8-2.3-0.9-2.9,0.3c-0.6,1.2-1,1.9-2.4,1.5
			c-0.5-0.1-1.2,0-1.6,0.6c-0.4,0.6-1,0-1.8,0.1c0.9-0.1,0.6-0.4,1.4-0.4c0.7,0,0.6-0.7,1-0.8c-1.9,0.5-1.8-0.2-3.3,0.3
			c0.7-0.9,1.7-0.4,2.3-0.9c-1.4,0-2-0.9-2.6-0.6c-1,0.6-0.6,2.3-3.1,2.2c-1.2-0.1-2,0.1-2.8,0.8c1.3-2.7,3.1-1.2,3.9-2.1
			c0.5-0.5,0.9-0.9,1.2-1.4c0.1-0.2,0.2-0.3,0.4-0.3C35.6,10,36.9,9,39,8.9z"/>
		<path class="st3" d="M49.5,8.5c0,0.1,0,0.2,0,0.3c0,0.5-0.8,0.6-0.8,1.3c0,0.4-0.1,0.6-0.3,0.6c-0.3,0-0.5-0.5-0.3-1"/>
		<path class="st3" d="M39.4,8.1C39.2,8,39,7.9,38.8,7.9"/>
		<path class="st3" d="M43.7,7.1c0.6,0.3,0.9,0.9,1.9,1c0.9,0,1.4,1.3,2.9,0.5c0,0,0.1,0,0.1-0.1"/>
		<path class="st3" d="M45.9,7.4c-0.1,0.2-0.2,0.5-0.1,0.8"/>
		<path class="st3" d="M43,10.1c-1.1,0-1.4,0.6-1.4,1.1c0,0.6,0.5,1.3,1.5,1.3c0.9,0,1.4-0.6,1.4-1.2C44.5,10.6,43.9,10.1,43,10.1z"
			/>
		<path class="st3" d="M43.2,12.4c0-0.3-0.6-0.3-0.6-0.5s0.3-0.3,0.3-0.7c0-0.3,0.5-0.4,0.7-0.1c0.2,0.3,0.7,0.8,0.8,0.5"/>
		<path class="st3" d="M43.6,11.2c-0.3,0.3-0.4,0.8,0,1.2"/>
		<path class="st3" d="M44,11.6c-0.1,0.2-0.1,0.5,0,0.6"/>
	</g>
	<path class="st4" d="M48.4,10.7c0.9,0.1,1-0.9,0.4-1"/>
	<path class="st4" d="M47.3,8.1c-0.3-0.4-1-0.5-1,0.3"/>
	<path class="st3" d="M46.2,9.3c-0.3-0.7-1.1-0.9-1.5-0.5c-0.3,0.3-0.3,1.1,0.4,1.3C45.4,9.8,45.9,9.4,46.2,9.3z"/>
	<path class="st3" d="M45.9,8.9c-0.4-0.4-1.1,0.3-0.5,1"/>
	<path class="st5" d="M47.3,8.1C47,7.8,46.5,8,46.6,8.6C46.8,8.3,47.1,8.1,47.3,8.1z"/>
	<path class="st5" d="M45.7,9.6c0.2-0.1,0.4-0.2,0.5-0.3c0-0.2-0.2-0.3-0.3-0.5C45.8,8.7,45.4,9.3,45.7,9.6z"/>
	<g>
		<path class="st4" d="M45,8.6c-0.4-0.3-0.8-0.3-1,0c-0.3,0-0.6,0.2-0.6,0.7"/>
		<path class="st4" d="M44.1,9.5c-0.5-0.4-1.2-0.2-1.2,0.6"/>
		<path class="st4" d="M42.7,10.5c0.3-0.2,0.6-0.3,0.9,0"/>
		<path class="st4" d="M46.5,9.7c-0.1,0.1-0.2,0.3,0,0.6c-0.2-0.3-0.7-0.3-1.2,0.4"/>
		<path class="st4" d="M47.6,9.7c-0.6,0.1-0.6,0.5-0.1,0.7"/>
		<path class="st4" d="M43.2,8.2c-0.5-0.1-0.9,0.2-0.2,0.5"/>
		<path class="st4" d="M44.2,7.8c-0.7-0.2-1,0-0.7,0.2"/>
		<path class="st4" d="M42.1,10.8c0,0.3,0.1,0.6,0.6,0.2"/>
		<path class="st4" d="M42.2,11.6c0,0.1,0,0.2-0.1,0.2"/>
		<path class="st4" d="M40.5,8.1C40,8,40,7.5,40.5,7.6"/>
		<path class="st4" d="M40.3,9c-0.5-0.2-0.5-0.7-0.1-0.6"/>
		<path class="st4" d="M41.3,8.8c-0.6-0.1-0.6-0.6-0.2-0.5"/>
		<path class="st4" d="M41.3,7.5c-0.3,0-0.8,0.3,0,0.5"/>
		<path class="st4" d="M42.2,8.2c-0.7-0.1-0.7,0.2-0.3,0.4"/>
		<path class="st4" d="M42.8,7.5c-0.6-0.1-0.8,0.2-0.4,0.4"/>
		<path class="st4" d="M41,9.6c-0.1-0.1-0.3-0.7,0.4-0.5"/>
		<path class="st4" d="M42.4,9.4C42,9.3,41.5,9.7,41.9,10"/>
		<path class="st4" d="M42.9,8.9c-0.5-0.1-0.9,0-0.6,0.2"/>
	</g>
	<path class="st3" d="M37.7,10.7c0.3-0.1,0.7,0.1,1.4,0.4c0.4,0.2,1.6,0.6,2.4,0.2c-0.8,0.3-1.4-0.9-2-0.8c-0.6,0.1-1.7,0.4-2.2-0.1
		c1.1,0.1,1.7-0.8,3,0c0.4,0.2,0.8,0.4,1.2,0.3c-1.1-1.3-2.4-0.5-2.6-1.5c0.6,0.7,2.2-0.2,3,1.1"/>
	<path class="st3" d="M47.3,8.1c-0.3,0-0.5,0.2-0.7,0.5"/>
	<path class="st3" d="M39.2,9.4C39.1,9.2,39.1,9,39,8.9"/>
</g>
</svg>
