<?xml version="1.0" encoding="utf-8"?>
<!-- Generator: Adobe Illustrator 20.0.0, SVG Export Plug-In . SVG Version: 6.00 Build 0)  -->
<svg version="1.1" id="Layer_1" xmlns="http://www.w3.org/2000/svg" xmlns:xlink="http://www.w3.org/1999/xlink" x="0px" y="0px"
	 viewBox="0 0 64 42" style="enable-background:new 0 0 64 42;" xml:space="preserve">
<style type="text/css">
	.st0{fill:#FFFFFF;}
	.st1{fill:none;}
	.st2{fill:#002B7F;}
	.st3{fill:#CF142B;}
</style>
<path class="st0" d="M5.8,0h52.4C61.4,0,64,2.5,64,5.7v30.6c0,3.1-2.6,5.7-5.8,5.7H5.8C2.6,42,0,39.5,0,36.3V5.7C0,2.5,2.6,0,5.8,0z
	"/>
<path class="st1" d="M57.5,27.8c-4.9,0-6.2-2.8-9.9-2.8c-2.5,0-3.7,2.8-6.2,2.8c-4.9,0-6.2-2.8-9.9-2.8c-2.5,0-3.7,2.8-6.2,2.8
	c-4.9,0-6.2-2.8-9.9-2.8c-2.5,0-3.7,2.8-6.2,2.8c-4.6,0-6-2.4-9.2-2.8v3.3c3.2,0.3,4.5,2.8,9.2,2.8c2.5,0,3.7-2.8,6.2-2.8
	c3.7,0,4.9,2.8,9.9,2.8c2.5,0,3.7-2.8,6.2-2.8c3.7,0,4.9,2.8,9.9,2.8c2.5,0,3.7-2.8,6.2-2.8c3.7,0,4.9,2.8,9.9,2.8
	c2.5,0,3.7-2.8,6.2-2.8c0.1,0,0.2,0,0.3,0V25c-0.1,0-0.2,0-0.3,0C61.2,25,60,27.8,57.5,27.8z"/>
<path class="st1" d="M57.5,20.8c-4.9,0-6.2-2.8-9.9-2.8c-2.5,0-3.7,2.8-6.2,2.8c-4.9,0-6.2-2.8-9.9-2.8c-2.5,0-3.7,2.8-6.2,2.8
	c-4.9,0-6.2-2.8-9.9-2.8c-2.5,0-3.7,2.8-6.2,2.8c-4.6,0-6-2.4-9.2-2.8v3.4c3.2,0.3,4.5,2.8,9.2,2.8c2.5,0,3.7-2.8,6.2-2.8
	c3.7,0,4.9,2.8,9.9,2.8c2.5,0,3.7-2.8,6.2-2.8c3.7,0,4.9,2.8,9.9,2.8c2.5,0,3.7-2.8,6.2-2.8c3.7,0,4.9,2.8,9.9,2.8
	c2.5,0,3.7-2.8,6.2-2.8c0.1,0,0.2,0,0.3,0V18c-0.1,0-0.2,0-0.3,0C61.2,18,60,20.8,57.5,20.8z"/>
<path class="st1" d="M63.8,4.2c-0.1,0-0.1,0-0.2,0c-2.5,0-3.7,2.8-6.2,2.8c-4.9,0-6.2-2.8-9.9-2.8C45,4.2,43.8,7,41.3,7
	c-4.9,0-6.2-2.8-9.9-2.8c-2.5,0-3.7,2.8-6.2,2.8c-4.9,0-6.2-2.8-9.9-2.8C12.8,4.2,11.6,7,9.1,7C4.6,7,3.2,4.7,0.2,4.3
	C0.1,4.7,0,5.2,0,5.7v1.8c3.2,0.3,4.5,2.8,9.2,2.8c2.5,0,3.7-2.8,6.2-2.8c3.7,0,4.9,2.8,9.9,2.8c2.5,0,3.7-2.8,6.2-2.8
	c3.7,0,4.9,2.8,9.9,2.8c2.5,0,3.7-2.8,6.2-2.8c3.7,0,4.9,2.8,9.9,2.8c2.5,0,3.7-2.8,6.2-2.8c0.1,0,0.2,0,0.3,0V5.7
	C64,5.2,63.9,4.7,63.8,4.2z"/>
<path class="st1" d="M57.5,13.9c-4.9,0-6.2-2.8-9.9-2.8c-2.5,0-3.7,2.8-6.2,2.8c-4.9,0-6.2-2.8-9.9-2.8c-2.5,0-3.7,2.8-6.2,2.8
	c-4.9,0-6.2-2.8-9.9-2.8c-2.5,0-3.7,2.8-6.2,2.8c-4.6,0-6-2.4-9.2-2.8v3.3c3.2,0.3,4.5,2.8,9.2,2.8c2.5,0,3.7-2.8,6.2-2.8
	c3.7,0,4.9,2.8,9.9,2.8c2.5,0,3.7-2.8,6.2-2.8c3.7,0,4.9,2.8,9.9,2.8c2.5,0,3.7-2.8,6.2-2.8c3.7,0,4.9,2.8,9.9,2.8
	c2.5,0,3.7-2.8,6.2-2.8c0.1,0,0.2,0,0.3,0v-3.3c-0.1,0-0.2,0-0.3,0C61.2,11.1,60,13.9,57.5,13.9z"/>
<path class="st1" d="M57.5,34.7c-4.9,0-6.2-2.8-9.9-2.8c-2.5,0-3.7,2.8-6.2,2.8c-4.9,0-6.2-2.8-9.9-2.8c-2.5,0-3.7,2.8-6.2,2.8
	c-4.9,0-6.2-2.8-9.9-2.8c-2.5,0-3.7,2.8-6.2,2.8c-4.6,0-6-2.4-9.2-2.8v3.3C3.2,35.6,4.5,38,9.2,38c2.5,0,3.7-2.8,6.2-2.8
	c3.7,0,4.9,2.8,9.9,2.8c2.5,0,3.7-2.8,6.2-2.8c3.7,0,4.9,2.8,9.9,2.8c2.5,0,3.7-2.8,6.2-2.8c3.7,0,4.9,2.8,9.9,2.8
	c2.5,0,3.7-2.8,6.2-2.8c0.1,0,0.2,0,0.3,0v-3.3c-0.1,0-0.2,0-0.3,0C61.2,31.9,60,34.7,57.5,34.7z"/>
<path class="st1" d="M47.6,38.8c-2.5,0-3.7,2.8-6.2,2.8c-4.9,0-6.2-2.8-9.9-2.8c-2.5,0-3.7,2.8-6.2,2.8c-4.9,0-6.2-2.8-9.9-2.8
	c-2.5,0-3.7,2.8-6.2,2.8c-4.3,0-5.8-2.1-8.6-2.7c1,1.8,2.9,3.1,5.2,3.1h52.4c2.3,0,4.2-1.3,5.2-3.2c-2.3,0.2-3.5,2.8-5.9,2.8
	C52.6,41.6,51.3,38.8,47.6,38.8z"/>
<path class="st1" d="M15.4,0.6c3.7,0,4.9,2.8,9.9,2.8c2.5,0,3.7-2.8,6.2-2.8c3.7,0,4.9,2.8,9.9,2.8c2.5,0,3.7-2.8,6.2-2.8
	c3.7,0,4.9,2.8,9.9,2.8c1.8,0,2.9-1.4,4.3-2.2c-1-0.7-2.2-1.2-3.6-1.2H5.8C4.4,0,3.2,0.5,2.2,1.2c1.9,0.8,3.6,2.2,7,2.2
	C11.7,3.4,12.9,0.6,15.4,0.6z"/>
<path class="st2" d="M15.3,4.2c3.7,0,5,2.8,9.9,2.8c2.5,0,3.7-2.8,6.2-2.8c3.7,0,5,2.8,9.9,2.8c2.5,0,3.7-2.8,6.2-2.8
	c3.7,0,5,2.8,9.9,2.8c2.5,0,3.7-2.8,6.2-2.8c0.1,0,0.1,0,0.2,0c-0.3-1.2-1.1-2.3-2-3c-1.4,0.8-2.5,2.2-4.3,2.2c-5,0-6.2-2.8-9.9-2.8
	c-2.5,0-3.7,2.8-6.2,2.8c-5,0-6.2-2.8-9.9-2.8c-2.5,0-3.7,2.8-6.2,2.8c-5,0-6.2-2.8-9.9-2.8c-2.5,0-3.7,2.8-6.2,2.8
	c-3.5,0-5.1-1.3-7-2.2c-1,0.8-1.7,1.8-2,3C3.2,4.7,4.6,7,9.1,7C11.6,7,12.8,4.2,15.3,4.2z"/>
<path class="st2" d="M57.5,38c-5,0-6.2-2.8-9.9-2.8c-2.5,0-3.7,2.8-6.2,2.8c-5,0-6.2-2.8-9.9-2.8c-2.5,0-3.7,2.8-6.2,2.8
	c-5,0-6.2-2.8-9.9-2.8c-2.5,0-3.7,2.8-6.2,2.8c-4.7,0-6-2.4-9.2-2.8v1.1c0,1,0.2,1.9,0.6,2.6c2.8,0.6,4.3,2.7,8.6,2.7
	c2.5,0,3.7-2.8,6.2-2.8c3.7,0,5,2.8,9.9,2.8c2.5,0,3.7-2.8,6.2-2.8c3.7,0,5,2.8,9.9,2.8c2.5,0,3.7-2.8,6.2-2.8c3.7,0,5,2.8,9.9,2.8
	c2.4,0,3.6-2.6,5.9-2.8c0.4-0.8,0.6-1.6,0.6-2.5v-1.1c-0.1,0-0.2,0-0.3,0C61.2,35.2,60,38,57.5,38z"/>
<path class="st2" d="M57.5,31.1c-5,0-6.2-2.8-9.9-2.8c-2.5,0-3.7,2.8-6.2,2.8c-5,0-6.2-2.8-9.9-2.8c-2.5,0-3.7,2.8-6.2,2.8
	c-5,0-6.2-2.8-9.9-2.8c-2.5,0-3.7,2.8-6.2,2.8c-4.7,0-6-2.4-9.2-2.8v3.6c3.2,0.3,4.6,2.8,9.2,2.8c2.5,0,3.7-2.8,6.2-2.8
	c3.7,0,5,2.8,9.9,2.8c2.5,0,3.7-2.8,6.2-2.8c3.7,0,5,2.8,9.9,2.8c2.5,0,3.7-2.8,6.2-2.8c3.7,0,5,2.8,9.9,2.8c2.5,0,3.7-2.8,6.2-2.8
	c0.1,0,0.2,0,0.3,0v-3.6c-0.1,0-0.2,0-0.3,0C61.2,28.3,60,31.1,57.5,31.1z"/>
<path class="st2" d="M57.5,24.2c-5,0-6.2-2.8-9.9-2.8c-2.5,0-3.7,2.8-6.2,2.8c-5,0-6.2-2.8-9.9-2.8c-2.5,0-3.7,2.8-6.2,2.8
	c-5,0-6.2-2.8-9.9-2.8c-2.5,0-3.7,2.8-6.2,2.8c-4.7,0-6-2.4-9.2-2.8V25c3.2,0.3,4.6,2.8,9.2,2.8c2.5,0,3.7-2.8,6.2-2.8
	c3.7,0,5,2.8,9.9,2.8c2.5,0,3.7-2.8,6.2-2.8c3.7,0,5,2.8,9.9,2.8c2.5,0,3.7-2.8,6.2-2.8c3.7,0,5,2.8,9.9,2.8c2.5,0,3.7-2.8,6.2-2.8
	c0.1,0,0.2,0,0.3,0v-3.6c-0.1,0-0.2,0-0.3,0C61.2,21.4,60,24.2,57.5,24.2z"/>
<path class="st2" d="M57.5,17.2c-5,0-6.2-2.8-9.9-2.8c-2.5,0-3.7,2.8-6.2,2.8c-5,0-6.2-2.8-9.9-2.8c-2.5,0-3.7,2.8-6.2,2.8
	c-5,0-6.2-2.8-9.9-2.8c-2.5,0-3.7,2.8-6.2,2.8c-4.7,0-6-2.4-9.2-2.8V18c3.2,0.3,4.6,2.8,9.2,2.8c2.5,0,3.7-2.8,6.2-2.8
	c3.7,0,5,2.8,9.9,2.8c2.5,0,3.7-2.8,6.2-2.8c3.7,0,5,2.8,9.9,2.8c2.5,0,3.7-2.8,6.2-2.8c3.7,0,5,2.8,9.9,2.8c2.5,0,3.7-2.8,6.2-2.8
	c0.1,0,0.2,0,0.3,0v-3.6c-0.1,0-0.2,0-0.3,0C61.2,14.4,60,17.2,57.5,17.2z"/>
<path class="st2" d="M57.5,10.3c-5,0-6.2-2.8-9.9-2.8c-2.5,0-3.7,2.8-6.2,2.8c-5,0-6.2-2.8-9.9-2.8c-2.5,0-3.7,2.8-6.2,2.8
	c-5,0-6.2-2.8-9.9-2.8c-2.5,0-3.7,2.8-6.2,2.8c-4.7,0-6-2.4-9.2-2.8v3.6c3.2,0.3,4.6,2.8,9.2,2.8c2.5,0,3.7-2.8,6.2-2.8
	c3.7,0,5,2.8,9.9,2.8c2.5,0,3.7-2.8,6.2-2.8c3.7,0,5,2.8,9.9,2.8c2.5,0,3.7-2.8,6.2-2.8c3.7,0,5,2.8,9.9,2.8c2.5,0,3.7-2.8,6.2-2.8
	c0.1,0,0.2,0,0.3,0V7.5c-0.1,0-0.2,0-0.3,0C61.2,7.5,60,10.3,57.5,10.3z"/>
<path class="st2" d="M32.1,17.8V2.1c0-0.8-0.3-1.5-0.8-2.1H5.8C2.6,0,0,2.5,0,5.7v15.1h29.1C30.8,20.8,32.1,19.5,32.1,17.8z"/>
<path class="st0" d="M7.8,7.3H9L0.9,2.6l0,0C0.8,2.8,0.7,3,0.6,3.1L7.8,7.3z"/>
<path class="st0" d="M32.1,18.2C32.1,18.2,32.1,18.3,32.1,18.2L32.1,18.2c0-0.1,0.1-0.2,0.1-0.3v-0.2l-9-5.2h-1L32.1,18.2z"/>
<path class="st0" d="M18.2,13.3l12.4,7.1c0.5-0.3,0.9-0.7,1.2-1.1L20,12.5h-1.8V13.3z"/>
<path class="st0" d="M1.6,1.8l9.6,5.5H13V6.6L2.9,0.8l0,0C2.4,1,2,1.4,1.6,1.8z"/>
<path class="st3" d="M9.2,7.3h2L1.6,1.8C1.4,2,1.1,2.3,0.9,2.6l0,0L9.2,7.3z"/>
<path class="st3" d="M22.2,12.5h-2.1l11.7,6.7c0.2-0.3,0.3-0.6,0.3-0.9v-0.1L22.2,12.5z"/>
<path class="st0" d="M0.1,20.1c0.1,0.1,0.2,0.1,0.4,0.2L13,13.2v-0.5L0.1,20.1z"/>
<polygon class="st0" points="11.1,12.5 7.9,12.5 0,17 0,19 "/>
<polygon class="st0" points="18.2,7.2 30.8,0 29.7,0 18.2,6.6 "/>
<path class="st0" d="M23.2,7.3l9-5.2V2c-0.1-0.6-0.2-1-0.4-1.4L20.1,7.3H23.2z"/>
<path class="st3" d="M0.1,20.1L13,12.7v-0.2h-1.7L0,19v1L0.1,20.1L0.1,20.1z"/>
<path class="st3" d="M18.2,7.2L18.2,7.2l1.9,0.1l11.7-6.7c-0.1-0.2-0.3-0.4-0.5-0.6h-0.6L18.2,7.2z"/>
<polygon class="st0" points="17.1,8.3 32.1,8.3 32.1,7.3 23.2,7.3 20.1,7.3 18.2,7.3 18.2,7.2 18.2,6.6 18.2,0 17.1,0 "/>
<polygon class="st0" points="14,8.3 14,0 13,0 13,6.6 13,7.3 11.2,7.3 9.2,7.3 9,7.3 7.8,7.3 0,7.3 0,8.3 "/>
<polygon class="st0" points="17.1,20.8 18.2,20.8 18.2,13.3 18.2,12.5 20,12.5 20.1,12.5 22.2,12.5 23.2,12.5 32.1,12.5 32.1,11.4 
	17.1,11.4 "/>
<polygon class="st0" points="11.1,12.5 11.3,12.5 13,12.5 13,12.7 13,13.2 13,20.8 14,20.8 14,11.4 0,11.4 0,12.5 7.9,12.5 "/>
<polygon class="st3" points="17.1,0 14,0 14,8.3 0,8.3 0,11.4 14,11.4 14,20.8 17.1,20.8 17.1,11.4 32.1,11.4 32.1,8.3 17.1,8.3 "/>
</svg>
