<?xml version="1.0" encoding="utf-8"?>
<!-- Generator: Adobe Illustrator 20.0.0, SVG Export Plug-In . SVG Version: 6.00 Build 0)  -->
<svg version="1.1" id="Layer_1" xmlns="http://www.w3.org/2000/svg" xmlns:xlink="http://www.w3.org/1999/xlink" x="0px" y="0px"
	 viewBox="0 0 64 42" style="enable-background:new 0 0 64 42;" xml:space="preserve">
<style type="text/css">
	.st0{fill:#F0DA16;}
	.st1{fill:#57A863;}
	.st2{fill:#FFFFFF;}
	.st3{fill:#CF1126;}
	.st4{fill:#F6D660;}
</style>
<path id="Rounded_Rectangle_7_copy" class="st0" d="M5.8,0h52.3C61.4,0,64,2.6,64,5.7v30.6c0,3.2-2.6,5.7-5.8,5.7H5.8
	C2.6,42,0,39.4,0,36.3V5.7C0,2.6,2.6,0,5.8,0z"/>
<path class="st1" d="M64,5.3v31.4c0-0.1,0-0.3,0-0.4V5.7C64,5.6,64,5.5,64,5.3z"/>
<polygon id="path2535" class="st2" points="64,19.8 64,27.2 0,14.1 0,6.7 0,6.7 "/>
<polygon id="path3422" points="64,27.2 64,33.7 0,20.6 0,14.1 0,14.1 "/>
<g>
	<path class="st3" d="M41,30.8c-0.3,0-0.3-0.1-0.3-0.1s0.1-0.1,0.1-0.2c0.2-0.3,0.2-0.6-0.1-0.8c-0.3-0.3-0.8-0.3-1.2-0.2
		c-0.3,0.1-0.3,0.1-0.2-0.2c0.1-0.2,0.1-0.3,0.1-0.4c0-0.3,0-0.5-0.2-0.6C39.1,28,38.9,28,38.7,28c-0.3,0-0.5,0.1-0.8,0.4
		c-1.3,1.2-3,2.1-4.6,2.3c-0.5,0.1-1.5,0.1-1.9,0.1c-1.8-0.2-3.4-1-4.9-2.4c-0.5-0.5-0.7-0.6-1-0.5c-0.4,0-0.7,0.4-0.8,0.8
		c0,0.3,0,0.5,0.2,0.7s0.2,0.3,0.1,0.3c0,0-0.1,0-0.2-0.1c-0.4-0.2-0.9-0.1-1.2,0.1c-0.3,0.2-0.4,0.5-0.2,0.8
		c0.1,0.1,0.1,0.2,0.1,0.2s-0.1,0.1-0.2,0.1c-0.2,0.1-0.4,0.2-0.5,0.4c-0.1,0.1-0.1,0.5,0,0.5c0,0,0.1,0,0.2-0.1
		c0.1,0,0.2-0.1,0.4-0.2c0.3-0.1,0.8-0.1,1.2,0c0.4,0.1,1,0.4,1.4,0.8c0.4,0.4,1,0.5,1.3,0.4c0.4-0.1,0.5-0.3,0.5-0.6
		c0-0.1,0-0.2,0-0.2s0.1,0.1,0.3,0.2c0.7,0.5,1.7,0.8,2.8,1c1.4,0.2,3.3,0,4.6-0.6c0.4-0.2,0.7-0.3,1-0.6c0.1-0.1,0.3-0.2,0.3-0.2
		s0,0.1,0,0.3s0,0.3,0.1,0.4c0.1,0.2,0.3,0.3,0.7,0.3s0.6-0.1,0.9-0.4c0.3-0.3,0.7-0.5,1.1-0.6c0.2-0.1,0.4-0.1,0.7-0.1
		c0.5,0,0.7,0,1.1,0.2c0.1,0.1,0.3,0.1,0.3,0.1s0-0.1,0-0.2C41.5,31.1,41.3,30.9,41,30.8z"/>
	<path class="st3" d="M28,29.3c0.8,0.5,1.9,0.9,2.9,1c0.2,0,0.4,0,0.4,0.1c0.1,0,1.1,0,1.5,0c1.7-0.2,3.1-0.7,4.3-1.7
		s2.2-2.5,2.6-4.2c0.2-0.8,0.3-2.2,0.2-3.1c-0.1-1.1-0.5-2.1-1-2.9c-0.2-0.4-0.7-0.9-0.7-0.9s0,0.1,0.1,0.2c0.3,0.6,0.5,1.3,0.6,2
		c0.1,1.2-0.1,2.7-0.5,3.8c-0.7,1.5-1.9,2.8-3.5,3.5c-0.5,0.2-1.1,0.4-1.8,0.5c-0.8,0.2-1.1,0.2-1.6,0.1c-0.2,0-0.5-0.1-0.7-0.1
		c-2-0.4-3.8-1.8-4.7-3.6c-0.3-0.5-0.4-0.9-0.6-1.5c-0.4-1.5-0.3-2.8,0.2-4.1c0.1-0.2,0.2-0.4,0.2-0.5s-0.2,0.1-0.4,0.4
		c-1.1,1.5-1.5,3.6-1,6C24.8,26.3,26.2,28.2,28,29.3z"/>
	<path class="st3" d="M42.5,28C42.5,28,42.4,28,42.5,28C42.4,28,42.4,28,42.5,28C42.4,28,42.5,28,42.5,28z"/>
	<path class="st3" d="M43.8,27.3c-0.1,0-0.2,0.1-0.5,0.2s-0.5,0.2-0.8,0.2c-0.6,0-1-0.2-1.2-0.2c-0.1,0-0.2-0.1-0.3-0.1h-0.1
		c0,0,0,0,0,0.1c0,0.2,0.3,0.3,0.5,0.4c0.3,0.1,0.6,0.1,1,0.1c0.5,0,0.9-0.1,1.1-0.2c0.1-0.1,0.3-0.1,0.3-0.2
		c0.1-0.1,0.1-0.1,0.1-0.1C44.1,27.4,44,27.3,43.8,27.3z"/>
	<path class="st3" d="M45.6,17.9L45.6,17.9C45.6,17.8,45.6,17.8,45.6,17.9C45.5,17.8,45.5,17.8,45.6,17.9
		C45.5,17.8,45.5,17.9,45.6,17.9c-0.2,0-0.2,0.1-0.3,0.2c-0.1,0.2-0.2,0.6-0.2,1l0,0l0,0c-0.3,0.4-0.5,0.7-0.5,0.9
		c0,0.1,0,0.2-0.1,0.3c0,0.1,0,0.1-0.1,0.2c-0.2,0.2-0.5,0.3-0.7,0.4s-0.4,0.3-0.5,0.4l0,0l0,0c0,0.1,0,0.1-0.1,0.1l0,0
		c0,0,0,0-0.1,0c0,0,0,0,0-0.1s0-0.2,0.1-0.3s0.1-0.3,0.1-0.5c0.1-0.1,0.1-0.3,0.2-0.4c0.1-0.1,0.2-0.3,0.3-0.5
		c0-0.1,0.1-0.2,0.1-0.2c0-0.1,0-0.1,0-0.1h-0.1c-0.1,0-0.1,0-0.2,0.1c-0.1,0-0.1,0.1-0.2,0.1l-0.1,0.1c0,0-0.1,0.1-0.1,0.2
		C43,19.9,43,20,42.9,20c-0.2,0.2-0.3,0.4-0.4,0.4l0,0l0,0c-0.1,0.1-0.4,0.3-0.6,0.5c-0.2,0.2-0.4,0.4-0.4,0.6l0,0
		c0,0.6,0,4.1-0.1,4.6h0.1l0,0c0.2,0.1,0.4,0.2,0.9,0.2l0,0c0.3,0,0.5-0.1,0.7-0.2c0.1,0,0.2-0.1,0.3-0.1l0,0c0-0.5,0-1.2,0-1.9
		c0-0.4,0-0.8,0-1c0-0.1,0-0.3,0-0.4s0-0.2,0-0.2c0.1-0.3,0.4-0.5,0.8-0.8c0.3-0.3,0.7-0.6,0.8-1c0.2-0.4,0.3-1.1,0.4-1.7
		c0-0.3,0.1-0.6,0.1-0.8C45.5,18.1,45.5,18,45.6,17.9L45.6,17.9z"/>
	<path class="st3" d="M44.6,19.1c-0.1,0.1-0.3,0.3-0.4,0.5c-0.1,0.2-0.2,0.5-0.2,0.6l0,0l0,0c-0.1,0-0.2,0.1-0.4,0.2
		c-0.1,0.1-0.2,0.2-0.3,0.3c0,0.1,0,0.2-0.1,0.3v0.1c0.1-0.1,0.3-0.2,0.5-0.3c0.2-0.1,0.5-0.3,0.7-0.4c0,0,0,0,0-0.1s0-0.2,0.1-0.3
		c0.1-0.2,0.2-0.6,0.5-1c-0.1-0.3,0-0.7,0.1-0.9c0-0.1,0-0.2-0.1-0.2c0,0,0,0-0.1,0h-0.1C44.8,18,44.6,18.3,44.6,19.1L44.6,19.1
		L44.6,19.1z"/>
	<path class="st3" d="M43.9,19.6c0,0.1,0,0.1-0.1,0.2c-0.1,0.2-0.2,0.4-0.3,0.5c0,0-0.1,0.1-0.1,0.2l0.1-0.1
		c0.1-0.1,0.3-0.2,0.4-0.2c0-0.2,0.1-0.4,0.2-0.6c0.1-0.2,0.3-0.4,0.4-0.6c0-0.4,0-0.7,0.1-0.9c0-0.1,0-0.1,0-0.1s0,0-0.1,0
		c0,0-0.1,0-0.2,0.1c-0.1,0.2-0.3,0.5-0.2,0.8C44.1,19.2,44,19.4,43.9,19.6z"/>
	<path class="st3" d="M43.9,19.4C44,19.3,44,19.1,44,19l0,0l0,0c0-0.3,0-0.5,0.1-0.7c0-0.1-0.1-0.1-0.1-0.1s0,0-0.1,0l0,0
		c0,0-0.1,0.1-0.1,0.2c-0.1,0.2-0.2,0.6-0.2,0.9c0.1,0,0.1,0,0.2,0C43.8,19.3,43.8,19.3,43.9,19.4z"/>
	<path class="st3" d="M42.5,26.9C42.5,26.9,42.4,26.9,42.5,26.9C42.4,26.9,42.4,26.9,42.5,26.9C42.4,26.9,42.5,26.9,42.5,26.9z"/>
	<path class="st3" d="M41.7,26.7c0.2,0.1,0.4,0.1,0.7,0.1s0.6-0.1,0.9-0.2c0.1-0.1,0.2-0.1,0.3-0.2s0.1-0.1,0.1-0.1
		c0-0.2-0.1-0.3-0.2-0.3c-0.1,0-0.1,0.1-0.4,0.2c-0.2,0.1-0.4,0.2-0.6,0.2c-0.2,0-0.4,0-0.6-0.1l0,0l0,0c-0.1,0-0.2-0.1-0.3-0.1
		s-0.1-0.1-0.2-0.1l0,0l0,0l0,0h-0.1c0,0,0,0,0,0.1C41.3,26.6,41.5,26.6,41.7,26.7z"/>
	<path class="st3" d="M41.6,27.3c0.3,0.1,0.5,0.1,0.9,0.1s0.7-0.1,1-0.2c0.1-0.1,0.2-0.1,0.3-0.2s0.1-0.1,0.1-0.1
		c0-0.2-0.1-0.3-0.2-0.3c-0.1,0-0.2,0.1-0.4,0.2C43,27,42.8,27,42.5,27c-0.6,0-0.9-0.2-1-0.2s-0.2-0.1-0.2-0.1h-0.1c0,0,0,0,0,0.1
		C41.1,27.1,41.3,27.2,41.6,27.3z"/>
	<path class="st3" d="M42.5,27.4L42.5,27.4C42.4,27.4,42.4,27.4,42.5,27.4C42.4,27.4,42.5,27.4,42.5,27.4z"/>
	<path class="st3" d="M21.7,28L21.7,28L21.7,28L21.7,28z"/>
	<path class="st3" d="M23.3,27.5C23.3,27.4,23.2,27.4,23.3,27.5c-0.1-0.1-0.1-0.1-0.1-0.1c-0.1,0-0.2,0-0.3,0.1
		c-0.2,0.1-0.6,0.2-1.2,0.2c-0.3,0-0.6-0.1-0.8-0.2c-0.3-0.1-0.4-0.2-0.5-0.2s-0.3,0.1-0.2,0.3l0.1,0.1c0.1,0.1,0.2,0.1,0.3,0.2
		c0.3,0.1,0.7,0.2,1.1,0.2s0.7,0,1-0.1C23,27.8,23.2,27.7,23.3,27.5z"/>
	<path class="st3" d="M20.6,22.5c0,0,0,0.1,0,0.2s0,0.2,0,0.4c0,0.3,0,0.6,0,1c0,0.6,0,1.3,0,1.9l0,0c0.1,0,0.2,0.1,0.3,0.1
		c0.2,0.1,0.5,0.2,0.7,0.2l0,0c0.5,0,0.8-0.2,0.9-0.2l0,0h0.1c0-0.5-0.1-4-0.1-4.6l0,0c0-0.2-0.1-0.4-0.4-0.6
		c-0.2-0.2-0.4-0.4-0.6-0.5l0,0l0,0c-0.1-0.1-0.3-0.3-0.4-0.4s-0.2-0.2-0.2-0.2c-0.1-0.1-0.1-0.1-0.1-0.2c0,0,0-0.1-0.1-0.1
		c0,0-0.1-0.1-0.2-0.1s-0.1-0.1-0.2-0.1s-0.1,0-0.1,0v0.1c0,0.1,0,0.2,0.1,0.2c0.1,0.2,0.2,0.4,0.3,0.5c0.1,0.1,0.1,0.2,0.2,0.4
		c0.1,0.1,0.1,0.3,0.1,0.5s0.1,0.3,0.1,0.3s0,0,0,0.1c0,0,0,0-0.1,0l0,0c0,0,0-0.1-0.1-0.1l0,0l0,0c0-0.1-0.2-0.2-0.5-0.4
		c-0.2-0.1-0.5-0.3-0.7-0.4c-0.1,0-0.1-0.1-0.1-0.2s0-0.2-0.1-0.3c-0.1-0.2-0.2-0.5-0.5-0.9l0,0l0,0c0.1-0.4,0-0.7-0.2-1
		c-0.1-0.1-0.1-0.2-0.2-0.2c0,0,0,0-0.1,0l0,0l0,0l0,0V18c0,0.1,0,0.2,0,0.3c0,0.2,0,0.5,0.1,0.8c0.1,0.6,0.2,1.3,0.4,1.7
		c0.2,0.4,0.5,0.7,0.8,1C20.1,22,20.5,22.3,20.6,22.5z"/>
	<path class="st3" d="M19.1,19c0.3,0.4,0.5,0.7,0.5,1c0,0.1,0,0.2,0.1,0.3c0,0.1,0,0.1,0,0.1c0.2,0.2,0.5,0.3,0.7,0.4
		s0.4,0.2,0.5,0.3V21c0-0.1,0-0.2-0.1-0.3c0-0.1-0.1-0.2-0.3-0.3c-0.1-0.1-0.3-0.2-0.4-0.2l0,0l0,0c0-0.1-0.1-0.4-0.2-0.6
		s-0.3-0.5-0.4-0.5l0,0l0,0c0-0.7-0.1-1.1-0.3-1.1h-0.1c0,0,0,0-0.1,0c0,0-0.1,0.1-0.1,0.2C19.1,18.4,19.2,18.7,19.1,19z"/>
	<path class="st3" d="M20,19.6c0.1,0.2,0.2,0.4,0.2,0.6c0.1,0,0.2,0.1,0.4,0.2l0.1,0.1c0-0.1-0.1-0.2-0.1-0.2
		c-0.1-0.1-0.2-0.3-0.3-0.5c0-0.1,0-0.1-0.1-0.2S19.9,19.2,20,19c0-0.3-0.1-0.6-0.2-0.8c-0.1-0.1-0.1-0.1-0.2-0.1c0,0,0,0-0.1,0v0.1
		c0.1,0.2,0.1,0.5,0.1,0.9C19.8,19.2,19.9,19.4,20,19.6z"/>
	<path class="st3" d="M20.2,19L20.2,19c0,0.1,0,0.3,0.1,0.4c0-0.1,0-0.1,0.1-0.1s0.1,0,0.2,0c0-0.4-0.1-0.7-0.2-0.9
		c-0.1-0.1-0.1-0.2-0.1-0.2l0,0c0,0,0,0-0.1,0l-0.1,0.1C20.1,18.4,20.2,18.7,20.2,19L20.2,19z"/>
	<path class="st3" d="M22.7,26.2L22.7,26.2c-0.1,0-0.1,0-0.2,0.1c-0.1,0-0.1,0.1-0.3,0.1l0,0l0,0c-0.1,0.1-0.3,0.1-0.6,0.1
		c-0.3,0-0.4-0.1-0.6-0.2s-0.3-0.2-0.4-0.2s-0.2,0.1-0.2,0.3c0,0,0,0.1,0.1,0.1c0.1,0.1,0.2,0.1,0.3,0.2c0.2,0.1,0.5,0.2,0.9,0.2
		c0.3,0,0.5,0,0.7-0.1s0.4-0.2,0.4-0.4C22.8,26.3,22.8,26.3,22.7,26.2C22.8,26.2,22.8,26.2,22.7,26.2C22.8,26.2,22.8,26.2,22.7,26.2
		C22.8,26.2,22.8,26.2,22.7,26.2z"/>
	<path class="st3" d="M21.7,26.9L21.7,26.9L21.7,26.9L21.7,26.9z"/>
	<path class="st3" d="M21.7,27.4L21.7,27.4L21.7,27.4L21.7,27.4z"/>
	<path class="st3" d="M21.6,27c-0.3,0-0.5-0.1-0.7-0.2c-0.3-0.1-0.3-0.2-0.4-0.2s-0.3,0.1-0.2,0.3l0.1,0.1c0.1,0.1,0.2,0.1,0.3,0.2
		c0.3,0.1,0.6,0.2,1,0.2s0.6,0,0.9-0.1c0.2-0.1,0.5-0.2,0.5-0.4v-0.1c0,0,0,0-0.1,0s-0.2,0-0.2,0.1C22.5,26.9,22.2,27,21.6,27z"/>
	<path class="st3" d="M30.2,26.2c-0.1-0.1-0.1,0,0,0.2c0.3,0.7,0.9,1.1,1.6,1.2c0.1,0,0.4,0,0.5,0c0.5-0.1,0.9-0.2,1.3-0.6
		c0.2-0.2,0.5-0.7,0.4-0.7c0,0-0.1,0-0.2,0.1c-0.1,0.1-0.3,0.1-0.4,0.2c-0.1,0-0.2,0.1-0.3,0.2c-0.2,0.2-0.5,0.4-0.6,0.4
		s-0.1-0.1,0-0.2c0.1-0.2,0-0.4-0.2-0.7c-0.1-0.1-0.2-0.3-0.2-0.3s-0.1,0.1-0.3,0.3c-0.3,0.3-0.3,0.5-0.2,0.7
		c0.2,0.3-0.2,0.2-0.6-0.1c-0.2-0.2-0.3-0.2-0.3-0.2C30.6,26.5,30.4,26.4,30.2,26.2z"/>
	<path class="st3" d="M30.9,25.7c0,0.3,0,0.4,0.1,0.6s0.3,0.4,0.4,0.4v-0.1c0-0.1,0-0.2,0.1-0.3c0.1-0.3,0.5-0.7,0.5-0.7
		s0.1,0,0.1,0.1c0,0,0.1,0.2,0.2,0.3c0.2,0.2,0.3,0.6,0.3,0.7v0.1c0,0.1,0.1,0,0.3-0.2s0.3-0.4,0.3-0.8c0-0.3-0.1-0.8-0.3-1.2
		c-0.2-0.4-0.2-0.6-0.2-0.8c0-0.3,0.1-0.5,0.3-0.7s0.2-0.2,0-0.2s-0.3,0.1-0.4,0.3c-0.2,0.2-0.2,0.2-0.2,0s-0.1-0.4-0.2-0.5
		c-0.1,0-0.1,0-0.2,0.1c-0.1,0.1-0.1,0.2-0.1,0.3c0,0.2-0.1,0.2-0.2,0.1S31.4,23,31.2,23c-0.1,0-0.2,0-0.1,0.2
		c0.2,0.2,0.3,0.4,0.3,0.7c0,0.3,0,0.4-0.2,0.7C30.9,25,30.9,25.3,30.9,25.7z"/>
	<path class="st3" d="M33.1,19.4c0-0.1-0.2-0.1-0.4,0c-0.1,0-0.2,0.1-0.3,0.2c-0.2,0.2-0.2,0.2-0.2,0s-0.1-0.4-0.2-0.4
		c-0.1,0-0.2,0.1-0.2,0.4c0,0.1,0,0.2-0.1,0.2s-0.1-0.1-0.1-0.1c-0.2-0.2-0.3-0.3-0.5-0.3c-0.1,0-0.2,0-0.2,0s0.1,0.1,0.2,0.2
		c0.3,0.3,0.3,0.5,0.4,0.8c0,0.3,0,0.3-0.1,0.6c-0.2,0.5-0.2,0.7-0.2,1c0,0.4,0.1,0.6,0.3,0.7c0.1,0.1,0.2,0.1,0.2,0.1l0.1-0.1
		c0-0.1,0.3-0.4,0.3-0.4c0.1,0,0.3,0.2,0.4,0.4c0,0.1,0.1,0.1,0.1,0.1s0.1,0,0.2-0.1c0.2-0.1,0.3-0.3,0.3-0.7c0-0.4,0-0.7-0.2-1.1
		c-0.2-0.5-0.1-1,0.2-1.4C33.1,19.5,33.1,19.4,33.1,19.4z"/>
	<path class="st3" d="M26.2,17c0.4,0,0.6,0,1.3-0.4c0.5-0.3,0.8-0.4,1-0.3c0.2,0,0.1,0.1,0,0.1c-0.4,0.1-0.5,0.1-1,0.4
		c-0.3,0.2-0.7,0.3-0.8,0.3c-0.2,0-0.3,0.1-0.3,0.1s0,0.1,0.1,0.2c0.2,0.4,0.9,0.5,1.4,0.1c0.4-0.3,1.1-0.6,1.4-0.7
		c0.2,0,0.2,0.1,0.1,0.1c-0.5,0.1-1.1,0.4-1.4,0.7c-0.1,0.1-0.2,0.1-0.3,0.2s-0.1,0.1-0.1,0.1c0,0.1,0.2,0.3,0.4,0.3
		c0.2,0.1,0.6,0,0.8-0.1c0.1,0,0.3-0.2,0.4-0.3c0.4-0.4,0.9-0.7,1.1-0.7c0.1,0,0.1,0.1-0.1,0.2s-0.7,0.5-0.9,0.7
		c-0.1,0.1-0.2,0.2-0.2,0.2c-0.1,0.1-0.2,0.2,0,0.3c0.2,0.3,0.8,0.2,1.3-0.1c0.1-0.1,0.4-0.3,0.6-0.6c0.3-0.3,0.5-0.5,0.5-0.4
		s0,0.1-0.2,0.3c-0.2,0.2-0.2,0.3-0.2,0.4c0,0.3,0.2,0.3,0.4,0.2c0.2-0.1,0.2,0,0.1,0.2c-0.1,0.1-0.1,0.2-0.1,0.3
		c0,0.3,0.1,0.4,0.3,0.5c0.1,0.1,0.2,0.1,0.2,0.1s0.1-0.1,0.1-0.2c0.2-0.3,0.3-0.3,0.5,0c0,0.1,0.1,0.1,0.1,0.1s0.1-0.1,0.2-0.1
		c0.3-0.2,0.3-0.6,0.1-0.8c-0.1-0.2-0.1-0.2,0.1-0.2c0.2,0.1,0.3,0,0.4-0.1c0.1-0.2,0-0.3-0.2-0.5s-0.2-0.3-0.1-0.3
		c0,0,0.2,0.2,0.5,0.4c0.6,0.6,1,0.9,1.5,0.9c0.2,0,0.4,0,0.5-0.2c0.1-0.1,0.1-0.2,0-0.3c0,0-0.2-0.1-0.3-0.2
		c-0.2-0.2-0.6-0.5-0.9-0.6C34.1,17.1,34,17,34.1,17c0.2,0,0.7,0.3,1.3,0.8c0.3,0.2,0.5,0.3,0.8,0.3c0.2,0,0.4-0.1,0.5-0.3
		c0.1-0.1,0-0.1,0-0.1s-0.2-0.1-0.3-0.2c-0.5-0.3-0.9-0.6-1.3-0.6c-0.1,0-0.2,0-0.2-0.1c0-0.2,1.1,0.2,1.5,0.6
		c0.3,0.2,0.4,0.3,0.7,0.3s0.5-0.1,0.7-0.3c0.1-0.2,0.1-0.3,0-0.3c-0.2,0-0.5-0.1-1-0.4c-0.5-0.2-0.9-0.4-1.1-0.4
		c-0.1,0-0.1,0-0.1-0.1c0-0.2,0.6,0,1.2,0.3c0.9,0.5,1.5,0.5,2,0c0.3-0.3,0.5-0.7,0.3-0.7c0,0-0.2,0-0.3,0.1c-0.4,0.1-1,0.1-1.4-0.1
		c-0.4-0.1-1-0.4-1.4-0.7c-0.3-0.2-0.6-0.4-0.9-0.5c-0.7-0.2-1.6-0.2-2.1,0c-0.2,0.1-0.5,0.3-0.5,0.5c0,0,0,0,0,0.1v-1.3l-0.3,0.2
		l-0.3-0.2v1.3c0,0-0.1-0.1-0.2-0.1c-0.4-0.4-0.8-0.6-1.5-0.6c-0.8,0-1.4,0.2-2.1,0.8c-0.4,0.3-0.9,0.6-1.4,0.7c-0.2,0-0.3,0-0.8,0
		c-0.3,0-0.6,0-0.7,0S25,16,25,16s0.2,0.5,0.4,0.6C25.7,16.9,25.9,16.9,26.2,17z"/>
	<path class="st3" d="M33.6,12.1c-0.1-0.1-0.3-0.2-0.5-0.2s-0.5,0-0.7-0.1c0,0.1,0,0.3,0,0.4h-0.5c0-0.1,0-0.3,0-0.4
		c-0.3,0-0.5,0-0.8,0.1c-0.2,0-0.3,0.1-0.4,0.2C30.7,12.6,33,12.8,33.6,12.1z"/>
	<path class="st3" d="M32,9.5v2.8h0.4V11l1.2,0.6l-0.7-0.9l1-0.3l-1.5-0.8l0,0c0.1,0,0.2-0.1,0.2-0.2c0-0.1-0.2-0.2-0.4-0.2
		s-0.4,0.1-0.4,0.2C31.8,9.4,31.9,9.4,32,9.5z"/>
	<path class="st3" d="M31.2,14l0.5-0.5l0.5,0.4l0.5-0.5l0.5,0.6l0.4-0.5l0.7,0.5c-0.3-0.6-0.6-1.1-0.6-1.9c-0.7,0.5-2.3,0.6-3,0
		c-0.1,0.7-0.2,1.3-0.5,1.8l0.6-0.6L31.2,14z"/>
</g>
<path id="path3138_1_" class="st0" d="M36.8,31.3c0.2-0.1,0.5-0.4,0.7-0.7c0.1-0.2,0.1-0.3,0.1-0.6c0-0.3,0-0.4-0.1-0.5
	s-0.1-0.1-0.2-0.1c-0.1,0-0.2,0-0.2,0.1c-0.1,0.2-0.1,0.5,0,0.6s0.1,0.1,0.2,0c0.2-0.1,0.2-0.1,0.2,0c0,0.2-0.4,0.7-0.7,1
	c-0.1,0.1-0.2,0.1-0.2,0.2C36.5,31.4,36.6,31.3,36.8,31.3z"/>
<path id="path3150_1_" class="st0" d="M31.6,32.6c0.2-0.1,0.4-0.2,0.4-0.5c0-0.1,0.1-0.3,0.1-0.3c0-0.1-0.1-0.1-0.2,0
	s-0.1,0.1-0.1,0.2c0.1,0.3-0.1,0.4-0.7,0.5c-0.1,0-0.2,0-0.4,0c-0.3,0-0.4,0-0.3,0.1c0,0,0.1,0.1,0.2,0.1
	C30.9,32.7,31.4,32.7,31.6,32.6z"/>
<path id="path3148_1_" class="st0" d="M32.9,32.6c0,0,0.2-0.1,0.3-0.1s0.2-0.1,0.3-0.2c0.2-0.3,0.1-0.5-0.1-0.8
	c-0.1-0.2-0.2-0.2-0.3,0s-0.1,0.2,0,0.2s0.1,0.1,0.2,0.1c0.2,0.3,0.1,0.4-0.1,0.4c-0.2,0-0.3,0-0.3,0.2
	C32.9,32.5,32.8,32.5,32.9,32.6C32.7,32.6,32.8,32.6,32.9,32.6z"/>
<path id="path3146_1_" class="st0" d="M32.4,32.3c0-0.1,0.1-0.3,0-0.7c0-0.3,0-0.5,0-0.5l-0.2,0.1c0,0,0,0.1,0,0.2
	c0.1,0.1,0.1,0.2,0,0.6C32.3,32.5,32.3,32.6,32.4,32.3z"/>
<path id="path3144_1_" class="st0" d="M31.5,32c0-0.1,0-0.3,0.1-0.4c0-0.1,0-0.3,0.1-0.4c0.1-0.2,0-0.2-0.2-0.1l-0.1,0.1v0.3
	c0,0.3,0,0.7-0.1,0.9c0,0,0,0,0.1,0C31.4,32.2,31.5,32.1,31.5,32z"/>
<path id="path3142_1_" class="st0" d="M30.6,32.2c0.1-0.1,0.2-0.2,0.2-0.6c0-0.2,0.1-0.4,0.1-0.5s0-0.2-0.2,0
	c-0.1,0.1-0.1,0.1-0.1,0.2c0.1,0.2,0,0.6-0.1,0.7s-0.2,0.1-0.3,0.1c-0.1,0-0.1-0.1,0-0.1c0-0.2-0.1-0.2-0.3-0.1
	c-0.2,0.1-0.3,0.1-0.3,0c0-0.1,0-0.1,0-0.1c-0.1,0-0.1,0-0.4,0c-0.1,0-0.1,0-0.1-0.1s0-0.1,0-0.1s-0.2,0-0.4,0
	c-0.4,0-0.7-0.1-0.9-0.2c-0.2-0.1-0.2-0.2-0.1-0.5c0.1-0.1,0.1-0.3,0.2-0.3c0-0.1,0.1-0.2,0.2-0.2c0.1-0.1,0.1-0.1,0.1-0.1
	s-0.2,0-0.4,0.1c-0.1,0-0.1,0.1-0.1,0.2s-0.1,0.3-0.2,0.5c-0.2,0.2-0.4,0.1-0.8-0.3c-0.1-0.1-0.2-0.2-0.2-0.1
	c-0.1,0.1,0,0.3,0.1,0.4s0.5,0.3,0.7,0.3c0.1,0,0.2,0,0.2,0.2c0.1,0.2,0.6,0.3,1.2,0.4c0.2,0,0.2,0,0.2,0.1s0,0.1,0.3,0.1
	s0.3,0,0.2,0.1v0.1c0,0,0.1,0.1,0.3,0c0.1,0,0.3,0,0.3,0c0.1,0,0.1,0,0.1,0.1s0.1,0.1,0.2,0.1C30.4,32.3,30.5,32.3,30.6,32.2z"/>
<path id="path3140_1_" class="st0" d="M35.5,32c0.3-0.2,0.5-0.3,0.7-0.6c0.1-0.1,0.1-0.2,0.1-0.3c0,0-0.2-0.1-0.3-0.1
	s-0.1-0.1-0.1-0.3c0-0.2,0-0.4-0.1-0.4c0,0-0.1,0-0.1,0.1c-0.1,0.1-0.1,0.1,0,0.2c0.1,0.2,0,0.3-0.1,0.4s-0.1,0.1-0.1,0.2v0.1
	c0,0,0.1,0,0.2-0.1l0.2-0.1l0.1,0.1c0.1,0,0.1,0.1,0.1,0.2c0,0.2-0.6,0.5-1,0.6c-0.2,0-0.2,0-0.3-0.1s-0.1-0.1-0.1-0.2s0-0.2,0-0.2
	c0-0.2,0-0.2-0.2,0.1c-0.1,0.2-0.1,0.3-0.1,0.4c0,0.1,0.4,0.2,0.6,0.1C35.3,32.1,35.4,32,35.5,32z"/>
<path id="path3136_1_" class="st4" d="M37.2,29.8c-0.1-0.1,0-0.3,0.1-0.3s0.1,0,0.1,0.1S37.4,29.7,37.2,29.8
	C37.2,29.9,37.2,29.9,37.2,29.8z"/>
<path id="path3134_1_" class="st0" d="M37.8,30.7c0.2-0.2,0.3-0.5,0.3-0.9v-0.3l0.2-0.1c0.2-0.1,0.4-0.3,0.4-0.4s-0.1-0.1-0.2,0
	c-0.1,0.1-0.2,0.2-0.5,0.3c-0.1,0-0.1,0.1-0.1,0.4c0,0.4-0.1,0.6-0.3,0.9c-0.1,0.2-0.1,0.2,0,0.2C37.6,30.9,37.7,30.8,37.8,30.7z"/>
<path id="path3132_1_" class="st0" d="M27.3,30.5c0.1-0.1,0.2-0.2,0.2-0.4c0.1-0.1,0.1-0.3,0.2-0.3c0.1-0.1,0-0.2-0.1-0.1
	c-0.1,0-0.1,0.1-0.1,0.1C27.3,30,27.3,30.3,27.3,30.5c-0.2,0.1-0.2,0.1-0.2,0.1C27.1,30.6,27.2,30.5,27.3,30.5z"/>
<path id="path3130_1_" class="st0" d="M35.5,30.5c0-0.1-0.1-0.1-0.1-0.1L35.5,30.5C35.4,30.6,35.5,30.6,35.5,30.5z"/>
<path id="path3128_1_" class="st0" d="M26.5,30.1c0.2-0.1,0.4-0.3,0.4-0.5c0-0.1-0.2-0.2-0.3-0.2c-0.1,0-0.2,0-0.3,0.1
	c-0.3,0.2-0.6,0.2-0.8-0.1c-0.1-0.2-0.3-0.3-0.4-0.3c-0.2,0-0.2,0.1,0,0.2c0.1,0,0.1,0.1,0.2,0.2c0.2,0.3,0.2,0.4,0.6,0.4h0.3v0.2
	c0,0.1,0,0.2,0,0.2C26.3,30.2,26.4,30.2,26.5,30.1z"/>
<path id="path3126_1_" class="st4" d="M26.4,29.8c0-0.1,0-0.2,0.1-0.2s0.1,0.1,0.1,0.2S26.5,29.9,26.4,29.8z"/>
<path id="path3124_1_" class="st0" d="M38.6,29.7c0-0.1-0.1-0.1-0.1-0.1L38.6,29.7C38.5,29.8,38.6,29.7,38.6,29.7z"/>
<path id="path3120_1_" class="st0" d="M34.6,29.7c0,0,0.1-0.1,0.1-0.2s0-0.1,0.1-0.1s0.1,0,0.2-0.1c0.1,0,0.2-0.1,0.3-0.2
	c0.1-0.2,0.1-0.4-0.1-1c-0.1-0.3-0.2-0.5-0.2-0.6s-0.1-0.1-0.2,0l-0.1,0.1l0.1,0.1c0.1,0.1,0.3,0.7,0.3,1c0,0.1,0,0.2-0.1,0.3
	c-0.1,0.1,0,0.1-0.6,0c-0.1,0-0.2,0-0.3,0.1c-0.2,0.1-0.3,0.1-0.3,0c-0.1-0.1-0.1-0.1-0.1,0.1v0.2h0.2h0.2v0.1c0,0.1,0,0.2,0.1,0.2
	C34.2,29.8,34.5,29.8,34.6,29.7z"/>
<path id="path3118_1_" class="st4" d="M34.3,29.6c-0.1-0.1,0-0.2,0.1-0.2s0.1,0,0.1,0.1C34.5,29.6,34.4,29.7,34.3,29.6z"/>
<path id="path3116_1_" class="st0" d="M29.6,29.4c0.1,0,0.3-0.2,0.4-0.3l0.2-0.2h0.2c0.3,0,0.3,0,0.3,0.2c0,0.1,0,0.1,0.2,0.1
	c0.1,0,0.3,0,0.4,0s0.2,0,0.2,0.1s0.1,0.1,0.5,0c0.4,0,0.4,0,0.6,0c0.1,0,0.3,0.1,0.3,0c0.3,0,0.7-0.3,0.7-0.4c0,0,0.1-0.1,0.2-0.1
	c0.3-0.1,0.3-0.1,0-0.2c-0.1,0-0.3-0.1-0.4-0.1c-0.1,0-0.2-0.1-0.3-0.1s-0.3,0.1-0.3,0.2s0,0.1,0.2,0c0.2,0,0.2,0,0.3,0.1
	c0.1,0,0.1,0.1,0.1,0.1c0,0.1-0.4,0.2-0.5,0.2s-0.2,0-0.3,0c-0.1-0.1-0.3-0.1-0.4,0h-0.1h0.1L32,29.1c-0.2,0.1-0.3,0.1-0.3,0
	c0,0-0.1,0-0.4,0s-0.4,0-0.4-0.1c-0.1-0.1-0.1-0.1,0-0.2c0-0.1,0-0.1,0-0.1s-0.1,0-0.2,0c-0.3,0.1-0.4,0-0.4-0.2s-0.2-0.3-0.4-0.2
	c-0.3,0.2-0.4,0.5-0.2,0.6c0.2,0.1,0.1,0.2-0.1,0.3c-0.3,0.2-0.6,0.1-1.2-0.1c-0.1-0.1-0.2,0-0.1,0.1c0,0.1,0.1,0.2,0.4,0.3
	C29,29.5,29.4,29.5,29.6,29.4z"/>
<path id="path3114_1_" class="st4" d="M29.9,28.7v-0.1c0.1,0,0.1,0,0.1,0v0.1C30.1,28.7,29.9,28.7,29.9,28.7z"/>
<path id="path3112_1_" class="st0" d="M29.4,28.8c0.2-0.1,0.2-0.1,0.2-0.5c0-0.2,0-0.3-0.1-0.3s-0.1,0.1-0.1,0.3
	c0,0.1,0,0.2-0.1,0.3c-0.2,0.2-0.6,0.1-0.6-0.1c0-0.1,0-0.1,0.1-0.3c0.2-0.3,0.1-0.3-0.1-0.1c-0.2,0.1-0.2,0.1-0.2,0s0-0.1-0.2-0.1
	c-0.1,0-0.1,0.1-0.1,0.1c0,0.1,0,0.1-0.1,0.1s-0.3-0.1-0.3-0.2s0.3-0.4,0.6-0.7c0.1-0.1,0.2-0.2,0.2-0.3s-0.1,0-0.1,0
	c-0.1,0-0.1,0-0.1,0.1c0,0-0.2,0.3-0.4,0.5c-0.4,0.5-0.5,0.6-0.2,0.7c0.2,0.1,0.4,0.1,0.6,0l0.1-0.1v0.2c0,0.2,0,0.3,0.2,0.4
	S29.2,28.9,29.4,28.8z"/>
<path id="path3110_1_" class="st0" d="M35.5,28.6c0-0.2,0-0.3,0.1-0.2c0.4,0.1,0.6,0,0.8-0.2c0.1-0.1,0.1-0.2,0.1-0.4v-0.2h0.2
	c0.4,0,0.4,0,0.3,0.2c-0.1,0.4-0.2,0.6-0.5,0.9c-0.2,0.2-0.2,0.3,0,0.2c0.2-0.1,0.4-0.3,0.5-0.5s0.1-0.2,0.1-0.5s0-0.3,0.1-0.4
	s0.1-0.1,0.3-0.1s0.2,0,0.3-0.1s0.1-0.1,0.1-0.2c0-0.2,0-0.2,0.2-0.3c0.3-0.1,0.4-0.3,0.4-0.5S38.4,26,38.3,26c-0.1,0-0.1,0.2,0,0.3
	v0.1c0,0.1-0.2,0.2-0.4,0.2s-0.4,0.2-0.5,0.4c-0.2,0.4-0.2,0.4-0.3,0.2c-0.3-0.2-0.5-0.2-0.6,0.2v0.1l-0.1-0.1
	c-0.1-0.1-0.2-0.2-0.2-0.1c-0.1,0.1-0.1,0.2,0.1,0.4c0.1,0.1,0.1,0.2,0.1,0.2c0,0.2-0.2,0.4-0.4,0.4c-0.1,0-0.2-0.2-0.2-0.3
	c0-0.1-0.1-0.1-0.1,0c-0.1,0.2-0.2,0.1-0.2-0.2c0-0.2-0.1-0.2-0.2,0c-0.1,0.1-0.1,0.1,0,0.2s0.3,0.6,0.3,0.8
	C35.4,28.9,35.5,28.9,35.5,28.6z"/>
<path id="path3108_1_" class="st4" d="M36.7,27.3c-0.1-0.1,0-0.2,0.1-0.2s0.2,0.1,0.2,0.2C36.9,27.4,36.8,27.4,36.7,27.3z"/>
<path id="path3106_1_" class="st4" d="M37.5,27.1c0-0.1,0-0.2,0.1-0.2S37.7,27,37.5,27.1C37.6,27.2,37.5,27.2,37.5,27.1z"/>
<path id="path3104_1_" class="st4" d="M27.9,28.5L27.9,28.5c-0.1-0.1-0.2,0-0.1,0.1C27.8,28.6,27.9,28.6,27.9,28.5z"/>
<path id="path3102_1_" class="st4" d="M30.8,28.2C30.8,28.2,30.7,28.1,30.8,28.2C30.6,28.2,30.6,28.3,30.8,28.2
	C30.7,28.3,30.8,28.3,30.8,28.2z"/>
<path id="path3100_1_" class="st0" d="M26.8,27.9l0.1-0.1h0.4c0.5,0,0.5,0,0.9-0.4c0.1-0.2,0.3-0.3,0.3-0.3s0,0,0-0.1
	s-0.2-0.1-0.2,0c-0.1,0.2-0.5,0.6-0.6,0.6s-0.2,0-0.3,0c-0.1,0-0.2,0-0.1-0.1s0.3-0.3,0.3-0.3c0-0.1-0.2-0.1-0.3-0.1
	c-0.1,0-0.2,0.1-0.3,0.1c-0.2,0.1-0.3,0.1-0.3,0c0,0,0.1-0.2,0.2-0.3c0.1-0.1,0.2-0.3,0.3-0.3c0.1-0.1,0.1-0.1,0.1-0.1s0,0,0-0.1
	c0,0,0-0.1-0.1-0.1s-0.1,0-0.2,0.2c0,0.1-0.1,0.2-0.2,0.3C26.7,27,26.6,27,26.5,27c-0.2,0-0.3-0.1-0.3-0.3c0-0.1,0-0.1-0.1-0.1
	s-0.2,0.1-0.2,0.1c0,0.1,0,0.2,0.3,0.3c0.2,0.1,0.2,0.1,0.2,0.2s0,0.1,0.1,0.1s0.2,0.1,0.1,0.3c-0.1,0.1-0.1,0.3,0,0.3
	C26.7,28,26.7,28,26.8,27.9z"/>
<path id="path3098_1_" class="st4" d="M26.9,27.6c0-0.1,0-0.1,0.1,0c0,0,0.1,0,0,0.1C27,27.7,26.9,27.7,26.9,27.6z"/>
<path id="path3096_1_" class="st0" d="M27.1,27.4l0.2-0.1c0.1,0,0,0.1,0,0.1C27.1,27.5,27.1,27.5,27.1,27.4z"/>
<path id="path3094_1_" class="st4" d="M29.5,27.7c0-0.1-0.1-0.1-0.2,0C29.4,27.8,29.4,27.8,29.5,27.7C29.5,27.8,29.5,27.7,29.5,27.7
	z"/>
<path id="path3092_1_" class="st4" d="M35.9,27.1c0-0.1-0.1-0.1-0.1-0.1C35.7,27.1,35.7,27.2,35.9,27.1
	C35.8,27.2,35.9,27.2,35.9,27.1z"/>
<path id="path3090_1_" class="st0" d="M26,26.4c0.1-0.1,0.1-0.1,0.1-0.3c-0.1-0.3-0.1-0.3,0-0.3s0.4,0.1,0.5,0.3
	c0.1,0.1,0.1,0.1,0,0.2s-0.1,0.2,0,0.2s0.3-0.2,0.3-0.3c0-0.1-0.3-0.4-0.5-0.5c-0.1-0.1-0.3-0.1-0.4-0.1c-0.3,0-0.3,0.1-0.2,0.4
	c0.1,0.4,0,0.4-0.3,0.1c-0.2-0.2-0.3-0.4-0.3-0.7c0-0.3,0.1-0.5,0.4-0.6c0.2,0,0.2-0.1,0-0.1c-0.3,0-0.6,0.2-0.6,0.5
	c-0.1,0.4,0.1,0.9,0.6,1.1C25.8,26.5,25.9,26.5,26,26.4z"/>
<path id="path3088_1_" class="st0" d="M37.8,25.9v-0.1c0,0,0-0.1,0.1-0.2s0.1-0.1,0.1-0.2s-0.1-0.1-0.2,0c-0.1,0.1-0.2,0.1-0.2,0
	c0,0,0-0.1,0.1-0.1c0.1-0.1,0.1-0.1,0-0.2s-0.3,0.1-0.3,0.3c0,0.1,0,0.2,0.1,0.2c0.1,0.1,0.1,0.1,0.1,0.2C37.7,26,37.7,26,37.8,25.9
	z"/>
<path id="path3086_1_" class="st0" d="M38.9,25.8c0.1-0.1,0.1-0.2,0.1-0.2s0.1-0.1,0.2-0.2c0.2-0.2,0.3-0.4,0.2-0.6
	c0-0.1-0.2-0.3-0.5-0.5c-0.2-0.2-0.4-0.4-0.5-0.4s-0.1,0.3,0,0.3s0.2,0.1,0.5,0.3c0.3,0.2,0.4,0.5,0.3,0.6c-0.1,0.1-0.1,0.1-0.4-0.2
	c-0.1-0.1-0.2-0.2-0.3-0.2c0,0,0,0,0,0.1s0,0.2,0.2,0.3c0.2,0.2,0.2,0.4,0.1,0.5c-0.1,0-0.1,0.1-0.1,0.1l-0.1-0.1
	c-0.1-0.2-0.6-0.7-0.7-0.7c0,0-0.1,0-0.1,0.1s0,0.1,0.1,0.2s0.3,0.3,0.6,0.6c0.1,0.1,0.1,0.2,0.2,0.2C38.8,25.9,38.8,25.9,38.9,25.8
	z"/>
<path id="path3084_1_" class="st0" d="M39.4,24.4c0-0.1-0.7-0.8-0.8-0.8c0,0,0,0,0,0.2c0,0.1,0,0.2,0.1,0.2s0.2,0.2,0.4,0.3
	c0.2,0.2,0.3,0.3,0.3,0.3C39.4,24.5,39.4,24.4,39.4,24.4z"/>
</svg>
