<?xml version="1.0" encoding="utf-8"?>
<!-- Generator: Adobe Illustrator 20.0.0, SVG Export Plug-In . SVG Version: 6.00 Build 0)  -->
<svg version="1.1" id="Layer_1" xmlns="http://www.w3.org/2000/svg" xmlns:xlink="http://www.w3.org/1999/xlink" x="0px" y="0px"
	 viewBox="0 0 64 42" style="enable-background:new 0 0 64 42;" xml:space="preserve">
<style type="text/css">
	.st0{fill:#000099;}
	.st1{fill:#CC0000;}
	.st2{fill:#FFFFFF;}
</style>
<path id="Rounded_Rectangle_7_copy_1_" class="st0" d="M5.8,0h52.3C61.4,0,64,2.6,64,5.7v30.6c0,3.2-2.6,5.7-5.8,5.7H5.8
	C2.6,42,0,39.4,0,36.3V5.7C0,2.6,2.6,0,5.8,0z"/>
<path class="st0" d="M0,36.3C0,39.4,2.6,42,5.8,42h52.4c3.2,0,5.8-2.5,5.8-5.7v-6.8H0V36.3z"/>
<rect y="8.1" class="st1" width="64" height="25.9"/>
<g>
	<path class="st2" d="M32,13.7c-0.2,0-0.2,0.4-0.2,0.4h0.4C32.2,14.1,32.2,13.7,32,13.7z"/>
	<path class="st2" d="M42.8,27.2v-1.1h-3.5l0,0h2.9v-0.9h-0.6v-0.7h-2.4l0,0h2V24h-0.5c-0.1-0.1-0.3-0.3-0.4-0.4l0,0v-1.8
		c0.1-0.2,0.3-0.4,0.4-0.5v-1.7c-0.2,0-0.3,0.3-0.3,0.3l0,0v-0.7c-0.1-0.1-0.1,0-0.2,0v1.4l0,0v-1H40l0,0h0.3v-0.3H40v-0.8
		c-0.1,0-0.1,0.4-0.4,0.4c-0.1,0-0.1-0.2,0-0.3c0.1-0.1,0.1-0.3,0-0.6c-0.1,0.2-0.3,0.3-0.2,0.2c0.1-0.2,0.2-0.3,0.1-0.6
		c0,0.3-0.2,0.3-0.2,0.1c0.1-0.2,0.2-0.3,0-0.6c-0.1,0.3-0.2,0.3-0.2,0.1c0-0.3,0-0.6-0.4-0.7c0,0,0-0.3-0.2-0.3
		c-0.1,0-0.2,0.3-0.2,0.3c-0.4,0.1-0.4,0.4-0.4,0.7c0,0.2-0.1,0.2-0.2-0.1c-0.1,0.3,0,0.4,0,0.6s-0.1,0.2-0.2-0.1
		c-0.1,0.4,0,0.4,0.1,0.6c0,0.1-0.2,0.1-0.2-0.2c-0.1,0.3,0,0.4,0,0.6c0.1,0.1,0.1,0.3,0,0.3c-0.2,0-0.3-0.4-0.4-0.4v1.4l0,0h-0.3
		v-0.1c0,0-0.1,0-0.2,0v0.1h-2.2v-1.3c-0.2,0.1-0.2,0.3-0.2,0.3v1l0,0v-0.8h-0.2c0,0-0.1,0-0.1-0.2s0.1-0.4,0.2-0.4v-0.4
		c0,0-0.4,0.1-0.4,0.5v-0.4c-0.1,0-0.2,0.2-0.2,0.6h-0.1v-0.5c0-0.2,0.2-0.3,0.2-0.4c0,0,0-0.3,0-0.4c-0.1,0.4-0.3,0.3-0.3,0.1
		c0-0.1,0.1-0.2,0.3-0.6c0.1-0.1,0-0.4-0.1-0.5c0,0.3-0.1,0.4-0.2,0.4c-0.1,0-0.1,0-0.1-0.2s0.1-0.3,0.2-0.4c0.1-0.2,0-0.4-0.1-0.5
		c0,0.3,0,0.4-0.2,0.4c-0.2-0.1,0-0.4,0.1-0.5c0-0.2-0.1-0.3-0.1-0.3c-0.1,0.2-0.1,0.3-0.2,0.2c-0.1,0-0.1-0.2,0-0.3s0.1-0.2,0-0.3
		c-0.1,0.2-0.2,0.2-0.2,0l0.1-0.4h-1.5l0.1,0.4c0,0.1-0.1,0.1-0.2-0.1c-0.1,0.1-0.1,0.2,0,0.3s0.1,0.3,0,0.3s-0.1,0-0.2-0.2
		c0,0-0.1,0.2-0.1,0.3c0.1,0.1,0.3,0.4,0.1,0.5c-0.1,0-0.1-0.1-0.2-0.4c-0.1,0.1-0.2,0.3-0.1,0.5s0.2,0.2,0.2,0.4
		c0,0.1-0.1,0.2-0.1,0.2c-0.1,0-0.2-0.1-0.2-0.4c-0.1,0.1-0.1,0.4-0.1,0.5c0.2,0.3,0.3,0.4,0.3,0.6c0,0.1-0.2,0.2-0.3-0.1
		c-0.1,0.1,0,0.4,0,0.4c0,0.2,0.2,0.2,0.2,0.4v0.5h-0.1c0-0.4,0-0.6-0.2-0.6v0.4c0-0.5-0.4-0.5-0.4-0.5v0.4c0.2,0,0.2,0.1,0.2,0.4
		S30,19,30,19h-0.3v0.8l0,0v-1c0,0,0-0.2-0.2-0.3v1.3h-2.2v-0.1c-0.1,0-0.1,0-0.2,0v0.1h-0.2h-0.2v-1.4c-0.1,0-0.1,0.4-0.4,0.4
		c-0.1,0-0.1-0.2,0-0.3c0.1-0.1,0.1-0.3,0-0.6c-0.1,0.2-0.3,0.3-0.2,0.2c0.1-0.2,0.2-0.3,0.1-0.6c0,0.3-0.2,0.3-0.2,0.1
		c0.1-0.2,0.2-0.3,0-0.6c-0.1,0.3-0.2,0.3-0.2,0.1c0-0.3,0-0.6-0.4-0.7c0,0,0-0.3-0.2-0.3c-0.1,0-0.2,0.3-0.2,0.3
		c-0.4,0.1-0.4,0.4-0.4,0.7c0,0.2-0.1,0.2-0.2-0.1c-0.1,0.3,0,0.4,0,0.6s-0.1,0.2-0.2-0.1c-0.1,0.4,0,0.4,0.1,0.6
		c0,0.1-0.2,0.1-0.2-0.2c-0.1,0.3,0,0.4,0,0.6c0.1,0.1,0.1,0.3,0,0.3c-0.2,0-0.3-0.4-0.4-0.4v0.8h-0.3l0,0V19c-0.1,0-0.2,0-0.2,0
		v0.7c0,0-0.1-0.3-0.3-0.3v0.1v1.6c0.1,0,0.3,0.2,0.4,0.5v1.8c-0.1,0.2-0.2,0.4-0.4,0.4h-0.5v0.5h2l0,0H22V25h-0.6v0.9h2.9l0,0h-3.5
		V27h-0.6v1.1h22.7V27h-0.1C42.8,27,42.8,27.2,42.8,27.2z"/>
	<polygon class="st2" points="32.7,14.8 32.7,14.5 31.3,14.5 31.3,14.8 	"/>
	<polygon class="st2" points="32.6,14.5 32.6,14.3 31.4,14.3 31.4,14.5 	"/>
	<polygon class="st2" points="32.4,14.3 32.4,14.1 31.6,14.1 31.6,14.3 	"/>
</g>
</svg>
