<?xml version="1.0" encoding="utf-8"?>
<!-- Generator: Adobe Illustrator 20.0.0, SVG Export Plug-In . SVG Version: 6.00 Build 0)  -->
<svg version="1.1" id="Layer_1" xmlns="http://www.w3.org/2000/svg" xmlns:xlink="http://www.w3.org/1999/xlink" x="0px" y="0px"
	 viewBox="0 0 64 42" style="enable-background:new 0 0 64 42;" xml:space="preserve">
<style type="text/css">
	.st0{fill:#1C8A42;}
	.st1{fill:#0021AD;}
	.st2{fill:#FFC639;}
	.st3{fill:#FFFFFF;}
</style>
<path id="Rounded_Rectangle_7_copy" class="st0" d="M64,5.7v30.6c0,3.1-2.6,5.7-5.8,5.7H5.8C2.6,42,0,39.5,0,36.3V5.7
	C0,2.6,2.6,0,5.9,0h52.3C61.4,0,64,2.6,64,5.7z"/>
<path class="st1" d="M0,5.7v30.6C0,39.5,2.6,42,5.8,42h52.4c1.5,0,2.8-0.6,3.9-1.5C42,27.5,22,14.5,2,1.4C0.8,2.5,0,4,0,5.7z"/>
<g>
	<circle class="st2" cx="32.7" cy="21.6" r="5.9"/>
	<path class="st0" d="M29,18.9c0.4,0.6,1,1.5,1.5,1.2c0.4,0,0.6,0,0.6,0.3c0.9,0.2,2.4-0.2,3.4-1.5c0,0,0.1,0,0.1-0.5
		c0-0.2,0.3-0.2,0.3-0.1s0,0.2,0.1,0.2s0.3-0.3,0.4-0.5c0-0.1,0-0.2,0-0.2c0.1-0.2,0.2-0.1,0.3,0c0,0.1,0,0.1,0.1,0.2
		c0.2,0.1,0.5,0,0.5,0c0-0.1,0.1-0.1,0.1-0.1c0.1,0,0.1,0,0.2,0c-0.1,0.8,0.2,0.8,0.1,1.2c0,0.4-0.1,0.6-0.1,0.7
		c0,0.2,0.7,0.2,0.5,0.4c-0.2,0.1,0,0.3-0.3,0.4c-0.9,0.5-1.1,0.8-1.1,0.8L35.4,22c-0.2,0.3-0.3,0.1-0.4,0.3c-0.1,0.2-0.1,0.6,0,0.8
		c0.1,0.3,0,0.4-0.1,0.7c-0.1,0.6-0.3,0.7-0.3,0.9c-0.1,0.2,0,1.2-0.1,1.2c-0.7,0-1.2-0.1-1.4-0.2c0.3-1.1,0.2-2.1,0.2-2.2
		c-0.1-0.8-1.2-0.6-1.4-0.7c-0.1,0-0.2-0.1-0.3-0.2c-0.2,0-0.2-0.1-0.4-0.1c-0.1,0,0,0.1-0.2,0.1c-0.4,0.1-0.6-0.4-0.6-0.4
		c0-0.1-1,0-1.6-0.1c-0.2,0.1-0.3,0.5-0.5,0.6c0,0.1-0.3-0.1-0.4-0.2c0-0.3,0.3-0.5,0.3-0.5c0.2-0.2,0.4-0.2,0.5-0.3
		c0.1-0.3,0-0.5,0.2-0.7c0.1-0.2,0.3-0.1,0.4-0.2s0.2-0.6,0.1-0.7l-0.5-0.4C28.6,19.2,29,18.9,29,18.9L29,18.9z"/>
	<path class="st2" d="M57.4,11.6c-0.3-1.1-2.7-3.3-4.5-4.8c-0.4-0.3-0.7-0.1-0.7,0.3c0.2,0.4,0.4,0.8,0.6,1.2C52.9,8.5,53,8.7,53,9
		c0,0,0,0.4,0.1,0.5c0.6,0.6,0.6,1.1,0.6,1.1c0.3,0.6,0.6,1.1,1.2,1.6c0.6,0.4,0.2,1.6,0.2,2.3c0,0.4-0.3,0.4-0.6,0.3
		c-2.1-1.9-4.1-1.9-5.9-2.4c-0.7-0.1-0.7,0.3-0.5,0.4c1.3,1.3,2.4,2.3,4,3c0.3,0.2,0.5,0.3,0.8,0.5s0.6,0.5,0.9,0.7
		c0.7,0.4,0.7,0.9,0.7,0.9c0,0.8-0.4,1.5-0.6,1.8c-0.2,0.9-0.7,1-0.7,1c-3.9,2.6-5.9,3.3-12.1,2.5c-0.1,0-0.7,0.1,0,0.3
		c1.6,0.5,5.5,1.4,9.3-0.4c0.9-0.6,1.5-0.4,2.2-0.8c1.1-0.7,2.6-1.5,2.9-1.6c0.8-0.4,3.2-1,3.7-1.4c0.6-0.1,1.3-0.1,1.3-0.7
		c0.2-0.1,0.5,0,0.7-0.5c0.5-0.1,0.4-0.3,0.4-0.3c-0.1-0.3-0.6-0.5-0.9-0.7c-0.5-0.2-0.8-0.2-1.2,0c-0.1,0.1-0.2,0.1-0.3,0.1
		l-0.5-0.1C57.7,17.1,57.8,13.2,57.4,11.6L57.4,11.6z"/>
	<g>
		<path id="s" class="st3" d="M12.2,17.7l-0.8-0.8l-0.8,0.8l0.1-1.1l-1.1-0.2l0.9-0.6l-0.6-1l1.1,0.3l0.4-1.1l0.4,1.1l1.1-0.3
			l-0.6,1l0.9,0.7l-1.1,0.2L12.2,17.7L12.2,17.7z"/>
		<path class="st3" d="M15.2,27.2l-0.9-0.6l-0.9,0.6l0.3-1l-0.9-0.6h1.1l0.3-1l0.4,1h1.1l-0.9,0.6L15.2,27.2L15.2,27.2z"/>
		<g>
			<path id="s_1_" class="st3" d="M12.4,35.3l-0.8-0.8l-0.8,0.8l0.1-1.1L9.7,34l0.9-0.6l-0.6-1l1.1,0.3l0.4-1.1l0.4,1.1l1.1-0.3
				l-0.6,1l0.9,0.7l-1.1,0.2L12.4,35.3L12.4,35.3z"/>
		</g>
		<g>
			<path id="s_2_" class="st3" d="M4.9,25.8L4.1,25l-0.8,0.8l0.1-1.1l-1.1-0.2l0.9-0.6l-0.6-1l1.1,0.3l0.4-1.1l0.4,1.1l1.1-0.3
				l-0.6,1l1,0.6l-1.1,0.2V25.8L4.9,25.8z"/>
		</g>
		<g>
			<path id="s_3_" class="st3" d="M19.3,23.3l-0.8-0.8l-0.8,0.8l0.1-1.1L16.6,22l0.9-0.6l-0.6-1l1.1,0.3l0.4-1.1l0.4,1.1l1.1-0.3
				l-0.6,1l0.9,0.7l-1.1,0.2L19.3,23.3L19.3,23.3z"/>
		</g>
	</g>
</g>
</svg>
