<?xml version="1.0" encoding="utf-8"?>
<!-- Generator: Adobe Illustrator 20.0.0, SVG Export Plug-In . SVG Version: 6.00 Build 0)  -->
<svg version="1.1" id="Layer_1" xmlns="http://www.w3.org/2000/svg" xmlns:xlink="http://www.w3.org/1999/xlink" x="0px" y="0px"
	 viewBox="0 0 64 42" style="enable-background:new 0 0 64 42;" xml:space="preserve">
<style type="text/css">
	.st0{fill:#008000;}
	.st1{fill:#FFE000;}
	.st2{fill:#A57258;stroke:#A57258;stroke-width:2.8023;}
</style>
<path id="Rounded_Rectangle_7_copy_1_" class="st0" d="M5.8,0h52.3C61.4,0,64,2.6,64,5.7v30.6c0,3.2-2.6,5.7-5.8,5.7H5.8
	C2.6,42,0,39.4,0,36.3V5.7C0,2.6,2.6,0,5.8,0z"/>
<circle class="st1" cx="33" cy="23.2" r="7.5"/>
<circle class="st0" cx="35.4" cy="23.2" r="6.2"/>
<circle class="st1" cx="9.4" cy="15.7" r="7.9"/>
<path class="st2" d="M8.8,21.6h2c0,0,0.1-0.2,0-0.3c-0.1-0.1-0.5-0.1-0.4-0.4c0.2-0.7,0.3-0.5,0.4-2c0.1-1.6,0.2-4,0.2-4h-0.3
	c0,0,0.1,0.8-0.1,1.7c-0.2,1-0.2,1.1-0.4,1.8c-0.2,0.8-0.2,0.8-0.4,1.3s-0.2,0.5-0.4,0.9c-0.3,0.4-0.2,0.3-0.3,0.5
	c-0.1,0.1-0.2,0.1-0.2,0.2C8.8,21.4,8.8,21.6,8.8,21.6L8.8,21.6z"/>
<path class="st0" d="M10.3,10c0,0.3,0,0.7-0.1,1c-0.1,0.4-0.3,0.7-0.3,1.1c-0.2,0.1-0.4-0.4-0.6-0.1c0.1,0.4,0.5,0.7,0.7,1.1
	c0,0.1,0.4,0.4,0.2,0.5c-0.5-0.2-0.6-0.8-0.9-1.2c-0.4-0.6-1-1.1-1.7-1.1c-0.3,0-1.2-0.1-0.9,0.4c0.3,0.2,0.8,0.4,1.1,0.6
	c0.3,0,0.7,0.4,0.7,0.6c-0.4-0.2-0.7-0.4-1.1-0.6c-0.6-0.3-1.5-0.1-1.9,0.5c-0.1,0.2-0.2,0.7,0,0.7c0.2-0.4,0.6-0.8,1.1-0.7
	c0.4,0-0.5,0.8-0.1,0.6c0.1,0,0.3-0.2,0.5-0.2s0.3,0.1,0.4,0.1c0.3,0,0.3,0.1,0.3,0.2c0,0.1-0.1,0-0.4,0.1c-0.1,0-0.2,0.2-0.3,0.2
	c-0.2,0.1-0.5,0.1-0.6,0c-0.4-0.2-1.1-0.1-1.2,0.4c0,0.2-0.2,0-0.3,0.1c-0.1,0.2-0.1,0.5-0.5,0.5c-0.2,0.2-0.5,0.5-0.7,0.6
	c0.2,0.4,0.8-0.4,0.8-0.1c-0.3,0.4,0.1,0.5,0.3,0.2c0.3-0.3,0.7-0.8,1.2-0.4C6.2,15.3,6.4,15,6.5,15c0.1,0.3,0.2,0,0.4-0.1
	C7,15,7,15.3,7.2,15.1c0.5-0.3,1,0,1.5-0.3c0.5-0.2,0.1,0.2-0.1,0.3c-0.2,0.4,0,0.9-0.5,1.2c-0.2,0.5,0.2,1.1-0.2,1.5
	c0,0.2,0.6,0.2,0.7,0.3c0.3,0,0-0.7,0.3-0.7c0.4,0.2,0.4-0.4,0.3-0.6c0-0.5,0.1-1,0.3-1.4c0.2-0.5,0.5,0.2,0.2,0.4
	c-0.2,0.5-0.4,1.1,0,1.5c0.1,0,0.2,0.3,0.3,0.3c0.1,0.1,0.3,0,0.3-0.2c0.2-0.7,0.1-1.4,0.3-2.1c0.2-0.2,0.4,0,0.5,0.2
	c0.3,0.4,0.6,0.9,1,1.2c0.4,0.2,0.7,0.4,0.9,0.8c0,0.3,0.8,0.3,0.6,0s-0.1-0.6,0.2-0.9c0.1,0,0.1-0.2,0-0.1c-0.2,0-0.2-0.3,0.1-0.2
	c0.4,0.1,0-0.3-0.2-0.3c-0.3-0.2-0.7-0.4-0.9-0.8c0.4,0,0.9,0.2,1.3,0.1c0.3-0.2,0.7,0,0.8,0.3c0.3,0,0.2-0.3,0-0.4
	c0.2-0.1,0.3-0.2,0.1-0.4c-0.1-0.2,0.2-0.4-0.2-0.4c0-0.3-0.1-0.5-0.4-0.6c-0.3-0.3-1.2,0.4-1.2-0.2c-0.1-0.3,0.4,0,0.5-0.2
	c0.1-0.3-0.6-0.3-0.4-0.6c0.2-0.1,0.9-0.3,0.3-0.4c-0.3,0.1-0.5,0-0.8-0.1c-0.2,0.4-0.8-0.2-0.7,0.4c-0.1,0.2-0.6,0.9-0.8,0.4
	c0.1-0.4,0.8-0.5,0.6-1c0-0.3-0.3,0.1-0.4,0c-0.1-0.2,0.2-0.4,0.4-0.5c0.3,0.3,0.4-0.3,0.7-0.3c0.2-0.1-0.1-0.2-0.1-0.2
	c0.1-0.2,0.4-0.3,0.1-0.4c-0.3-0.2-0.6,0.2-0.8,0.3c-0.3-0.3,0.2-0.4,0.4-0.6c0-0.1-0.3,0-0.2-0.1s0.6-0.1,0.3-0.3
	c-0.4-0.1-0.8-0.1-1.2,0.1c-0.2,0.1-0.3,0.6-0.5,0.5C10.5,10.4,10.6,10,10.3,10L10.3,10z M12,14.7c0.3,0,0,0.4-0.1,0.4
	c0-0.2-0.4-0.1-0.1-0.3C11.8,14.8,11.9,14.7,12,14.7z"/>
<g>
	<g>
		<path id="Star7" class="st1" d="M51,32.6l0.5,1.5l1.5-0.6l-0.9,1.4l1.4,0.8l-1.6,0.1l0.2,1.6L51,36.3l-1.1,1.2l0.2-1.6l-1.6-0.1
			l1.4-0.8L49,33.6l1.5,0.6L51,32.6z"/>
	</g>
	<g>
		<path id="Star7_1_" class="st1" d="M42,18.4l0.5,1.5l1.5-0.6l-0.9,1.4l1.4,0.8l-1.6,0.1l0.2,1.6L42,22.1l-1.1,1.2l0.2-1.6
			l-1.6-0.1l1.4-0.8L40,19.3l1.5,0.6L42,18.4z"/>
	</g>
	<g>
		<path id="Star7_2_" class="st1" d="M51,8.6l0.5,1.5L53,9.5l-0.9,1.4l1.4,0.8l-1.6,0.1l0.2,1.6L51,12.3l-1.1,1.2l0.2-1.6l-1.6-0.1
			l1.4-0.8L49,9.6l1.5,0.6L51,8.6z"/>
	</g>
	<g>
		<path id="Star7_3_" class="st1" d="M59,16l0.5,1.5l1.5-0.6l-0.9,1.4l1.4,0.8l-1.6,0.1l0.2,1.6L59,19.7l-1.1,1.2l0.2-1.6l-1.6-0.1
			l1.4-0.8L57,16.9l1.5,0.6L59,16z"/>
	</g>
	<g>
		<path id="Star5" class="st1" d="M54.6,23.2l0.4,1l1,0.1L55.2,25l0.2,1l-0.9-0.5L53.6,26l0.2-1L53,24.3l1-0.1L54.6,23.2z"/>
	</g>
</g>
</svg>
