<?xml version="1.0" encoding="utf-8"?>
<!-- Generator: Adobe Illustrator 20.0.0, SVG Export Plug-In . SVG Version: 6.00 Build 0)  -->
<svg version="1.1" id="Layer_1" xmlns="http://www.w3.org/2000/svg" xmlns:xlink="http://www.w3.org/1999/xlink" x="0px" y="0px"
	 viewBox="0 0 64 42" style="enable-background:new 0 0 64 42;" xml:space="preserve">
<style type="text/css">
	.st0{fill:#FFFFFF;}
	.st1{fill:#57A863;}
	.st2{fill:#E8112D;}
</style>
<path id="Rounded_Rectangle_7_copy" class="st0" d="M5.8,0h52.3C61.4,0,64,2.6,64,5.7v30.6c0,3.2-2.6,5.7-5.8,5.7H5.8
	C2.6,42,0,39.4,0,36.3V5.7C0,2.6,2.6,0,5.8,0z"/>
<path class="st1" d="M64,5.3v31.4c0-0.1,0-0.3,0-0.4V5.7C64,5.6,64,5.5,64,5.3z"/>
<rect x="26.5" y="0" class="st2" width="11" height="42"/>
<rect y="15.5" class="st2" width="64" height="11"/>
<g>
	<path class="st2" d="M54,7.9c0-0.5,0-1.1,0.1-1.6c-1.1,0.2-2.2,0.3-3.4,0.4c0.1-1.1,0.2-2.3,0.4-3.4c-0.5,0.1-1.1,0.1-1.6,0.1
		s-1.1,0-1.6-0.1c0.2,1.1,0.3,2.2,0.4,3.4c-1.1-0.1-2.3-0.2-3.4-0.4C45,6.8,45,7.3,45,7.9s0,1.1-0.1,1.6c1.1-0.2,2.2-0.3,3.4-0.4
		c-0.1,1.1-0.2,2.3-0.4,3.4c0.5-0.1,1.1-0.1,1.6-0.1s1.1,0,1.6,0.1c-0.2-1.1-0.3-2.2-0.4-3.4c1.1,0.1,2.3,0.2,3.4,0.4
		C54,8.9,54,8.4,54,7.9z"/>
	<path class="st2" d="M18.3,7.9c0-0.5,0-1.1,0.1-1.6c-1.1,0.2-2.2,0.3-3.4,0.4c0.1-1.1,0.2-2.3,0.4-3.4c-0.5,0.1-1.1,0.1-1.6,0.1
		s-1.1,0-1.6-0.1c0.2,1.1,0.3,2.2,0.4,3.4c-1.1-0.1-2.3-0.2-3.4-0.4c0.1,0.5,0.1,1.1,0.1,1.6c0,0.5,0,1.1-0.1,1.6
		c1.1-0.2,2.2-0.3,3.4-0.4c-0.1,1.1-0.2,2.3-0.4,3.4c0.5-0.1,1.1-0.1,1.6-0.1s1.1,0,1.6,0.1c-0.2-1.1-0.3-2.2-0.4-3.4
		c1.1,0.1,2.3,0.2,3.4,0.4C18.3,8.9,18.3,8.4,18.3,7.9z"/>
</g>
<g>
	<path class="st2" d="M54,34.5c0-0.5,0-1.1,0.1-1.6c-1.1,0.2-2.2,0.3-3.4,0.4c0.1-1.1,0.2-2.3,0.4-3.4C50.6,30,50,30,49.5,30
		s-1.1,0-1.6-0.1c0.2,1.1,0.3,2.2,0.4,3.4c-1.1-0.1-2.3-0.2-3.4-0.4C45,33.5,45,34,45,34.5s0,1.1-0.1,1.6c1.1-0.2,2.2-0.3,3.4-0.4
		c-0.1,1.1-0.2,2.3-0.4,3.4C48.4,39,49,39,49.5,39s1.1,0,1.6,0.1c-0.2-1.1-0.3-2.2-0.4-3.4c1.1,0.1,2.3,0.2,3.4,0.4
		C54,35.6,54,35.1,54,34.5z"/>
	<path class="st2" d="M18.3,34.5c0-0.5,0-1.1,0.1-1.6c-1.1,0.2-2.2,0.3-3.4,0.4c0.1-1.1,0.2-2.3,0.4-3.4C14.9,30,14.3,30,13.8,30
		s-1.1,0-1.6-0.1c0.2,1.1,0.3,2.2,0.4,3.4c-1.1-0.1-2.3-0.2-3.4-0.4c0.1,0.5,0.1,1.1,0.1,1.6s0,1.1-0.1,1.6c1.1-0.2,2.2-0.3,3.4-0.4
		c-0.1,1.1-0.2,2.3-0.4,3.4c0.5-0.1,1.1-0.1,1.6-0.1s1.1,0,1.6,0.1C15.2,38,15,36.9,15,35.8c1.1,0.1,2.3,0.2,3.4,0.4
		C18.3,35.6,18.3,35.1,18.3,34.5z"/>
</g>
</svg>
