<?xml version="1.0" encoding="utf-8"?>
<!-- Generator: Adobe Illustrator 20.0.0, SVG Export Plug-In . SVG Version: 6.00 Build 0)  -->
<svg version="1.1" id="Layer_1" xmlns="http://www.w3.org/2000/svg" xmlns:xlink="http://www.w3.org/1999/xlink" x="0px" y="0px"
	 viewBox="0 0 64 42" style="enable-background:new 0 0 64 42;" xml:space="preserve">
<style type="text/css">
	.st0{fill:#DE2910;}
	.st1{fill:#FFFFFF;}
</style>
<path id="SVGID_1_" class="st0" d="M5.8,0h52.3C61.4,0,64,2.6,64,5.7v30.6c0,3.2-2.6,5.7-5.8,5.7H5.8C2.6,42,0,39.4,0,36.3V5.7
	C0,2.6,2.6,0,5.8,0z"/>
<path class="st1" d="M35.3,3.7C25.4,3.1,20.7,16.2,30.2,21c-1-0.8-1.7-1.9-2.1-3.3c-0.5-2-0.2-4.1,0.9-5.8l0.2,0.1
	c-1,1.7-1.3,3.7-0.8,5.6c0.4,1.4,1.2,2.6,2.2,3.4c-1.8-1.9-1-5,1.7-6.2c1.8-0.8,3.2-4.1,1.9-6.2C33,6.8,33.3,4.8,35.3,3.7z
	 M30.5,11.4l-0.6,0.9l-0.2-1.1L28.6,11l1-0.5l-0.1-1.1l0.8,0.8l1-0.4l-0.5,1l0.7,0.9L30.5,11.4z"/>
<g id="petal_1_">
	<path class="st1" d="M31.1,21.4c1-11.5,15.7-11.3,18.2-1.4c-1.6-1.6-3.6-1.3-5,0.4c-1.5,1.9-5.1,1.5-6.4,0.1
		C35.6,18.1,32.1,18.6,31.1,21.4L31.1,21.4z"/>
	<g>
		<polygon class="st0" points="41.6,17.2 42.1,16.2 41.1,16.6 40.3,15.9 40.3,17 39.3,17.5 40.4,17.8 40.6,18.9 41.2,18 42.4,18.1 
					"/>
		<path class="st0" d="M39.5,16.5c-2-0.5-4.1-0.1-5.8,1c-1.5,1-2.5,2.4-2.8,4h0.3c0.2-1.4,1.2-2.8,2.7-3.8c1.6-1.1,3.7-1.4,5.6-0.9
			V16.5z"/>
	</g>
</g>
<g id="petal_2_">
	<path class="st1" d="M31.1,21.5c11.3-2.6,15.6,11.4,7,16.8c1-2.1,0.1-3.8-1.9-4.6c-2.3-0.9-3.1-4.4-2.1-6.1
		C35.6,24.8,34,21.6,31.1,21.5L31.1,21.5z"/>
	<g>
		<polygon class="st0" points="38.8,29.5 39.2,28.5 38.2,28.9 37.4,28.1 37.4,29.2 36.5,29.8 37.5,30.1 37.8,31.2 38.4,30.2 
			39.5,30.3 		"/>
		<path class="st0" d="M38.4,27.9c-0.1-2-1.1-3.9-2.7-5.2c-1.4-1.1-3.1-1.6-4.6-1.4v0.3c1.4-0.2,3.1,0.3,4.4,1.4
			c1.5,1.2,2.5,3,2.6,5L38.4,27.9z"/>
	</g>
</g>
<g id="petal_3_">
	<path class="st1" d="M31.1,21.5c6,9.9-6,18.4-13.9,11.8c2.3,0.4,3.7-1.1,3.8-3.2c0.1-2.4,3.2-4.3,5.2-3.9
		C29.3,26.8,31.9,24.3,31.1,21.5L31.1,21.5z"/>
	<g>
		<polygon class="st0" points="26.7,29.5 25.6,29.9 24.8,29.2 24.9,30.3 23.9,30.8 25,31.1 25.2,32.2 25.8,31.3 26.9,31.4 
			26.2,30.5 		"/>
		<path class="st0" d="M31.2,21.4L31,21.5c0.7,1.3,0.7,3,0.1,4.6c-0.7,1.8-2.1,3.3-3.9,4l0.1,0.2c1.9-0.8,3.4-2.3,4.1-4.2
			C31.9,24.5,31.9,22.8,31.2,21.4z"/>
	</g>
</g>
<g id="petal_4_">
	<path class="st1" d="M31,21.5c-7.6,8.8-19.3,0-15.5-9.5c0.4,2.3,2.2,3.2,4.3,2.6c2.4-0.6,5.1,1.8,5.3,3.7
		C25.4,21.5,28.6,23.1,31,21.5L31,21.5z"/>
	<g>
		<polygon class="st0" points="21.3,18.9 21.8,17.9 20.8,18.3 19.9,17.5 20,18.7 19,19.2 20.1,19.5 20.3,20.6 20.9,19.6 22,19.8 		
			"/>
		<path class="st0" d="M31,21.4c-1,1-2.7,1.6-4.4,1.5c-2-0.1-3.8-1-5.1-2.5l-0.2,0.2c1.3,1.6,3.2,2.5,5.2,2.6
			c1.8,0.1,3.5-0.5,4.6-1.6L31,21.4z"/>
	</g>
</g>
</svg>
