<?xml version="1.0" encoding="utf-8"?>
<!-- Generator: Adobe Illustrator 20.0.0, SVG Export Plug-In . SVG Version: 6.00 Build 0)  -->
<svg version="1.1" id="Layer_1" xmlns="http://www.w3.org/2000/svg" xmlns:xlink="http://www.w3.org/1999/xlink" x="0px" y="0px"
	 viewBox="0 0 64 42" style="enable-background:new 0 0 64 42;" xml:space="preserve">
<style type="text/css">
	.st0{fill:#CD1126;}
	.st1{fill:#FFFFFF;}
	.st2{fill:#0FA454;}
</style>
<path id="Rounded_Rectangle_7_copy_1_" class="st0" d="M5.8,0h52.3C61.4,0,64,2.6,64,5.7v30.6c0,3.2-2.6,5.7-5.8,5.7H5.8
	C2.6,42,0,39.4,0,36.3V5.7C0,2.6,2.6,0,5.8,0z"/>
<path d="M0,36.3C0,39.4,2.6,42,5.8,42h52.4c3.2,0,5.8-2.5,5.8-5.7V14H0V36.3z"/>
<rect y="14" class="st1" width="64" height="14"/>
<g>
	<path class="st2" d="M39.1,18c0.4,0.2,0.8,0.2,1-0.1c0.1-0.1,0.2-0.1,0.4,0s0.3,0.1,0.5,0c0.3-0.1,0.4-0.4,0.3-0.7
		c-0.1-0.1-0.2-0.2-0.2,0c0,0.1-0.2,0.4-0.4,0.5c0,0-0.2,0-0.4-0.1L40,17.5l0,0.1c-0.3,0.2-0.5,0.3-0.9,0.2c-0.2-0.1-0.3-0.1-0.2,0
		C38.9,17.9,39,17.9,39.1,18z"/>
	<path class="st2" d="M40.2,16.8c0-0.4,0-0.5-0.2-0.5c-0.1,0-0.1,0-0.2,0.1c0,0.1,0.1,0.6,0.2,0.7C40.2,17.2,40.2,17.1,40.2,16.8z"
		/>
	<path class="st2" d="M30.3,20.1c-0.6,0.3-1.5,0.4-1.5,1.3c-1.3,0.1-2.8,0.1-4.2,0.1c0.5-0.6,3-3.1,3.7-3.8c0.1-0.1,0.3,0,0.4-0.1
		c-0.2-0.1-0.6-0.7-0.6-0.9c-1.1,1.1-2.4,2.2-2.6,2.4c-1.8,1.8-1.8,1.8-2.1,2.1c0,0.4,0,0.8,0,1.1c2.1,0,6,0,6.3,0s-0.1-1.1,0.3-1.1
		s0.3,0.9,0.3,1.4c-2.7,0-5.5,0-8.1,0c0-0.5,0-1.2,0-1.7c-0.7,0.6-0.7,0.6-1.2,0.8c0.3,0.1,0.3,0.6,0.3,1c-1.1,0-2.6,0.2-2.2-1.1
		C18.7,22,18.6,22,18,22.2c0.4,0.6,0.9,1.3,0.7,2.5c-0.2,0.5-0.8,0.6-1.2,1c1.1,0.3,2-0.4,2.2-1.3c3.9,0,7.9,0,11.8,0
		c0-0.9,0-2.2,0-3.1C31.4,20.5,30.6,20.6,30.3,20.1z"/>
	<path class="st2" d="M45.9,22.3c-0.3,0.2-0.4,0.5-1,0.4c0-1.6,0-3.2,0-4.7c0.1-0.2,0.2-0.3,0.3-0.5c-0.5-0.1-0.9-0.5-1.3-0.7
		c0,2.6,0,5.1,0,7.7c0.9,0,1.7,0,2.6,0C46.5,23.8,46,23,45.9,22.3z"/>
	<path class="st2" d="M42,17.9c0,1.5,0,3.1,0,4.6h-0.7c0-1.3,0-2.8,0-4.1l-0.9,0.8c0,0.1,0,3.3,0,3.3c-0.1,0-0.5,0-0.7,0
		c0,0,0-1.9,0-2.7c-0.8,0.7-0.9,0.7-1.2,1c0,0.1,0.1,0,0.2,0.1c0,0.2,0,0.4,0,0.6c-1.8-0.3-1.8,1.3-1.7,2.8c0.5,0,4,0,5.9,0
		c0-2.2,0-4.6,0-7.4C42.8,17.2,42.3,17.6,42,17.9z M38.2,22.5c-0.1-0.3,0.5-0.4,0.5-0.1C38.8,22.7,38.4,22.7,38.2,22.5z"/>
	<circle class="st2" cx="21.2" cy="25.3" r="0.4"/>
	<path class="st2" d="M33.3,22.7c0-1.6,0-3.2,0-4.7c0.1-0.2,0.2-0.3,0.3-0.5c-0.5-0.1-0.9-0.5-1.3-0.7c0,2.6,0,5.1,0,7.7
		c0.9,0,1.7,0,2.6,0c0-0.6-0.5-1.3-0.5-2.1C34,22.5,33.9,22.8,33.3,22.7z"/>
</g>
</svg>
