<?xml version="1.0" encoding="utf-8"?>
<!-- Generator: Adobe Illustrator 20.0.0, SVG Export Plug-In . SVG Version: 6.00 Build 0)  -->
<svg version="1.1" id="Layer_1" xmlns="http://www.w3.org/2000/svg" xmlns:xlink="http://www.w3.org/1999/xlink" x="0px" y="0px"
	 viewBox="0 0 64 42" style="enable-background:new 0 0 64 42;" xml:space="preserve">
<style type="text/css">
	.st0{fill:#003FBD;}
	.st1{fill:#F5F7FA;}
	.st2{fill:#003FBD;fill-opacity:0;stroke:#003FBD;stroke-width:0.75;}
</style>
<path id="Rounded_Rectangle_7_copy_1_" class="st0" d="M5.8,0h52.3C61.4,0,64,2.6,64,5.7v30.6c0,3.2-2.6,5.7-5.8,5.7H5.8
	C2.6,42,0,39.4,0,36.3V5.7C0,2.6,2.6,0,5.8,0z"/>
<path class="st0" d="M0,36.3C0,39.4,2.6,42,5.8,42h52.4c3.2,0,5.8-2.5,5.8-5.7V14H0V36.3z"/>
<rect y="8" class="st1" width="64" height="26"/>
<g>
	<polygon class="st2" points="32,10.3 28.9,15.6 35.1,15.6 	"/>
	<polygon class="st2" points="35.1,26.4 41.3,26.4 38.2,21 	"/>
	<polygon class="st2" points="22.7,26.4 28.9,26.4 25.8,21 	"/>
	<polygon class="st2" points="32,31.7 35.1,26.4 28.9,26.4 	"/>
	<polygon class="st2" points="41.3,15.6 35.1,15.6 38.2,21 	"/>
	<polygon class="st2" points="22.7,15.6 25.8,21 28.9,15.6 	"/>
	<polygon class="st2" points="35.1,15.6 28.9,15.6 25.8,21 28.9,26.4 35.1,26.4 38.2,21 	"/>
</g>
</svg>
