<?xml version="1.0" encoding="utf-8"?>
<!-- Generator: Adobe Illustrator 20.0.0, SVG Export Plug-In . SVG Version: 6.00 Build 0)  -->
<svg version="1.1" id="Layer_1" xmlns="http://www.w3.org/2000/svg" xmlns:xlink="http://www.w3.org/1999/xlink" x="0px" y="0px"
	 viewBox="0 0 64 42" style="enable-background:new 0 0 64 42;" xml:space="preserve">
<style type="text/css">
	.st0{fill:#007339;}
	.st1{fill:#FFFFFF;}
	.st2{fill:#CE1126;}
</style>
<path id="Rounded_Rectangle_7_copy_1_" d="M5.8,0h52.3C61.4,0,64,2.6,64,5.7v30.6c0,3.2-2.6,5.7-5.8,5.7H5.8C2.6,42,0,39.4,0,36.3
	V5.7C0,2.6,2.6,0,5.8,0z"/>
<path class="st0" d="M0,36.3C0,39.4,2.6,42,5.8,42h52.4c3.2,0,5.8-2.5,5.8-5.7V14H0V36.3z"/>
<rect y="14" class="st1" width="64" height="14"/>
<path class="st2" d="M2.2,40.7c11.2-6.6,22.5-13.2,33.7-19.8C24.6,14.3,13.4,7.8,2.2,1.3C0.9,2.3,0,3.9,0,5.7v30.6
	C0,38.1,0.8,39.7,2.2,40.7z"/>
<polygon id="path14" class="st1" points="15.2,21.9 13,22.1 13.3,24.3 11.8,22.7 10.3,24.3 10.6,22.1 8.5,21.9 10.3,20.8 9.1,19 
	11.2,19.8 11.8,17.7 12.5,19.8 14.5,19 13.3,20.8 "/>
</svg>
