<?xml version="1.0" encoding="utf-8"?>
<!-- Generator: Adobe Illustrator 20.0.0, SVG Export Plug-In . SVG Version: 6.00 Build 0)  -->
<svg version="1.1" id="Layer_1" xmlns="http://www.w3.org/2000/svg" xmlns:xlink="http://www.w3.org/1999/xlink" x="0px" y="0px"
	 viewBox="0 0 64 42" style="enable-background:new 0 0 64 42;" xml:space="preserve">
<style type="text/css">
	.st0{fill:#00B0C7;}
	.st1{fill:#FFC91C;}
</style>
<path id="Rounded_Rectangle_7_copy" class="st0" d="M5.8,0h52.3C61.4,0,64,2.6,64,5.7v30.6c0,3.2-2.6,5.7-5.8,5.7H5.8
	C2.6,42,0,39.4,0,36.3V5.7C0,2.6,2.6,0,5.8,0z"/>
<g>
	<path class="st1" d="M46.4,11.8c0.3,0.1,0.5-0.1,0.5-0.4c0.1-0.3-0.1-1.9-0.1-1.9s-0.7,1.4-0.8,1.7C46,11.5,46.1,11.7,46.4,11.8z"
		/>
	<path class="st1" d="M47.6,12.1c0.3,0.1,0.5,0,0.6-0.2c0.1-0.3,0.3-1.9,0.3-1.9s-1,1.2-1.1,1.5C47.3,11.8,47.3,12,47.6,12.1z"/>
	<path class="st1" d="M48.6,12.7c0.3,0.2,0.5,0.1,0.6-0.1c0.2-0.3,0.7-1.8,0.7-1.8s-1.2,1-1.4,1.3C48.4,12.3,48.4,12.5,48.6,12.7z"
		/>
	<path class="st1" d="M49.6,13.4c0.2,0.2,0.5,0.2,0.6,0c0.2-0.2,1-1.6,1-1.6s-1.4,0.8-1.6,1C49.4,13,49.3,13.2,49.6,13.4z"/>
	<path class="st1" d="M50.3,14.4c0.2,0.3,0.4,0.3,0.6,0.1c0.3-0.2,1.3-1.4,1.3-1.4s-1.5,0.5-1.8,0.7C50.3,13.9,50.2,14.1,50.3,14.4z
		"/>
	<path class="st1" d="M50.9,15.4c0.1,0.3,0.4,0.3,0.6,0.2c0.3-0.1,1.5-1.1,1.5-1.1s-1.6,0.2-1.9,0.3C50.9,15,50.8,15.1,50.9,15.4z"
		/>
	<path class="st1" d="M51.6,16.1c-0.2,0-0.4,0.2-0.4,0.5c0.1,0.3,0.3,0.4,0.5,0.3c0.3-0.1,1.7-0.8,1.7-0.8S51.9,16,51.6,16.1z"/>
	<path class="st1" d="M51.4,17.8c0,0.3,0.2,0.4,0.4,0.4c0.3,0,1.9-0.4,1.9-0.4s-1.5-0.4-1.9-0.4C51.6,17.3,51.4,17.5,51.4,17.8z"/>
	<path class="st1" d="M51.3,19c-0.1,0.3,0.1,0.5,0.4,0.5c0.3,0.1,1.9-0.1,1.9-0.1s-1.4-0.7-1.7-0.8C51.5,18.6,51.3,18.7,51.3,19z"/>
	<path class="st1" d="M50.9,20.1c-0.1,0.3,0,0.5,0.2,0.6C51.4,20.8,53,21,53,21s-1.2-1-1.5-1.1C51.3,19.8,51,19.8,50.9,20.1z"/>
	<path class="st1" d="M51,21.1c-0.2-0.1-0.4-0.1-0.6,0.1c-0.2,0.3-0.1,0.5,0.1,0.6c0.3,0.2,1.8,0.7,1.8,0.7S51.2,21.3,51,21.1z"/>
	<path class="st1" d="M49.6,22.1c-0.2,0.2-0.2,0.5,0,0.6c0.2,0.2,1.6,1,1.6,1s-0.8-1.4-1-1.6C50,22,49.8,21.9,49.6,22.1z"/>
	<path class="st1" d="M48.6,22.9c-0.3,0.2-0.3,0.4-0.1,0.6c0.2,0.3,1.4,1.3,1.4,1.3s-0.5-1.5-0.7-1.8C49.1,22.8,48.9,22.7,48.6,22.9
		z"/>
	<path class="st1" d="M47.6,23.5c-0.3,0.1-0.3,0.4-0.2,0.6c0.1,0.3,1.1,1.5,1.1,1.5s-0.2-1.6-0.3-1.9C48.1,23.5,47.9,23.3,47.6,23.5
		z"/>
	<path class="st1" d="M41.8,22.9c-0.3-0.2-0.5-0.1-0.6,0.1c-0.2,0.3-0.7,1.8-0.7,1.8s1.2-1,1.4-1.3C42.1,23.3,42.1,23.1,41.8,22.9z"
		/>
	<path class="st1" d="M40.9,22.1c-0.2-0.2-0.5-0.2-0.6,0c-0.2,0.2-1,1.6-1,1.6s1.4-0.8,1.6-1C41.1,22.6,41.1,22.4,40.9,22.1z"/>
	<path class="st1" d="M40.1,21.2c-0.2-0.3-0.4-0.3-0.6-0.1c-0.3,0.2-1.3,1.4-1.3,1.4s1.5-0.5,1.8-0.7C40.2,21.7,40.3,21.5,40.1,21.2
		z"/>
	<path class="st1" d="M39.6,20.1c-0.1-0.3-0.4-0.3-0.6-0.2C38.7,20,37.4,21,37.4,21s1.6-0.2,1.9-0.3C39.5,20.6,39.7,20.4,39.6,20.1z
		"/>
	<path class="st1" d="M38.9,19.5c0.2,0,0.4-0.2,0.4-0.5c-0.1-0.3-0.3-0.4-0.5-0.3c-0.3,0.1-1.7,0.8-1.7,0.8S38.5,19.6,38.9,19.5z"/>
	<path class="st1" d="M39.1,17.8c0-0.3-0.2-0.4-0.4-0.4c-0.3,0-1.9,0.4-1.9,0.4s1.5,0.4,1.9,0.4C38.9,18.2,39.1,18.1,39.1,17.8z"/>
	<path class="st1" d="M39.2,16.6c0.1-0.3-0.1-0.5-0.4-0.5c-0.3-0.1-1.8,0-1.8,0s1.4,0.7,1.7,0.8C38.9,17,39.1,16.9,39.2,16.6z"/>
	<path class="st1" d="M39.6,15.4c0.1-0.3,0-0.5-0.2-0.6c-0.3-0.1-1.9-0.3-1.9-0.3s1.2,1,1.5,1.1C39.2,15.8,39.4,15.7,39.6,15.4z"/>
	<path class="st1" d="M39.5,14.5c0.2,0.1,0.4,0.1,0.6-0.1c0.2-0.3,0.1-0.5-0.1-0.6c-0.3-0.2-1.8-0.7-1.8-0.7S39.2,14.3,39.5,14.5z"
		/>
	<path class="st1" d="M40.9,13.4c0.2-0.2,0.2-0.5,0-0.6c-0.2-0.2-1.6-1-1.6-1s0.8,1.4,1,1.6C40.4,13.6,40.7,13.7,40.9,13.4z"/>
	<circle class="st1" cx="45.2" cy="17.8" r="5.4"/>
	<path class="st1" d="M45.2,11.6c0.3,0,0.4-0.2,0.4-0.4c0-0.3-0.4-1.9-0.4-1.9s-0.4,1.5-0.4,1.9C44.8,11.4,44.9,11.6,45.2,11.6z"/>
	<path class="st1" d="M46.4,23.8c-0.3,0.1-0.4,0.3-0.3,0.5c0.1,0.3,0.8,1.7,0.8,1.7s0.1-1.6,0.1-1.9C46.9,23.9,46.7,23.7,46.4,23.8z
		"/>
	<path class="st1" d="M45.2,23.9c-0.3,0-0.4,0.2-0.4,0.4c0,0.3,0.4,1.9,0.4,1.9s0.4-1.5,0.4-1.9C45.7,24.1,45.6,23.9,45.2,23.9z"/>
	<path class="st1" d="M44,23.8c-0.3-0.1-0.5,0.1-0.5,0.4c-0.1,0.3,0.1,1.9,0.1,1.9s0.7-1.4,0.8-1.7C44.4,24.1,44.3,23.9,44,23.8z"/>
	<path class="st1" d="M42.9,23.5c-0.3-0.1-0.5,0-0.6,0.2C42.2,24,42,25.6,42,25.6s1-1.2,1.1-1.5C43.2,23.8,43.2,23.6,42.9,23.5z"/>
	<path class="st1" d="M41.8,12.7c0.3-0.2,0.3-0.4,0.1-0.6c-0.2-0.3-1.4-1.3-1.4-1.3s0.5,1.5,0.7,1.8C41.3,12.8,41.6,12.9,41.8,12.7z
		"/>
	<path class="st1" d="M42.9,12.1c0.3-0.1,0.3-0.4,0.2-0.6C43,11.2,42,10,42,10s0.2,1.6,0.3,1.9C42.4,12.1,42.6,12.2,42.9,12.1z"/>
	<path class="st1" d="M44,11.8c0.3-0.1,0.4-0.3,0.3-0.5c-0.1-0.3-0.8-1.7-0.8-1.7s-0.1,1.6-0.1,1.9C43.6,11.7,43.7,11.8,44,11.8z"/>
</g>
<path class="st1" d="M8.8,15.8C9,15.5,9,15.3,9,14.9c0-0.6-0.4-1-1.1-1.1c0.7,0,1.1-0.5,1.1-1.1c0-0.3-0.1-0.6-0.2-0.9
	c0,0-1.3-2.7-1.8-3.7c0,0,0-0.1,0-0.3c0-0.3,0.3-0.6,0.7-0.6c0.3,0,0.6,0.3,0.6,0.6c0,0.4-0.2,0.6-0.4,0.6c-0.3,0-0.4-0.1-0.4-0.3
	c0-0.1,0.1-0.2,0.2-0.2c0.2,0,0.2,0.3,0.2,0.3C7.9,8.2,8,8,8,7.9c0.1,0,0.2-0.1,0.2-0.1C8.1,7.7,8,7.7,8,7.6c0.1-0.2,0-0.3-0.2-0.3
	c0,0.1,0,0.1,0,0.2C7.6,7.5,7.2,7.6,7.2,8S7.5,8.8,8,8.7C7.9,8.7,7.8,8.9,7.8,9C7.9,9,8,9,8,9c0,0.1-0.1,0.2-0.1,0.4
	c0.1,0,0.2-0.1,0.3-0.1c-0.2,0.4,0,0.9,0.7,1.1c-0.2-0.3-0.3-0.6-0.3-0.9c0-0.9,0.3-1.1,0.3-1.8c0-0.3-0.1-0.6-0.4-0.8
	c0.2,0,0.3-0.1,0.4-0.3c-0.3,0-0.4-0.1-0.6-0.1c0.2-0.1,0.5-0.4,0.5-0.8C8.8,5,8.5,4.8,8.5,4c0-0.4,0.3-0.9,0.3-0.9
	C8.3,3.2,8,3.7,8.2,4.2c-0.1,0-0.2,0-0.3-0.1c0,0.1,0,0.3,0.1,0.4c-0.1,0-0.1,0-0.2,0c0,0.1,0.1,0.3,0.3,0.4
	C7.5,4.7,7.2,5.1,7.2,5.5C7.2,5.7,7.4,6,7.6,6c0.1,0,0.2,0,0.2-0.1c0,0.1,0,0.2,0,0.3C7.9,6.1,8,6,8,5.9c0.1,0,0.2,0,0.3-0.1
	C8.2,5.7,8.1,5.6,8,5.6c0.1-0.2,0-0.3-0.1-0.3c0,0,0.1,0.3-0.1,0.3c-0.1,0-0.2,0-0.2-0.2c0-0.1,0.1-0.3,0.4-0.3
	c0.3,0,0.5,0.2,0.5,0.6S8.2,6.3,7.8,6.3C7.3,6.3,7,6.1,7,5.7c0-0.5,0.7-1.6,0.7-2c0-0.3-0.3-0.5-0.6-0.5c-0.2,0-0.3,0.1-0.5,0.2
	C6.5,3.3,6.4,3.2,6.2,3.2c-0.3,0-0.6,0.2-0.6,0.5c0,0.4,0.7,1.5,0.7,2c0,0.4-0.3,0.6-0.6,0.5C5.3,6.3,5,6.1,5,5.7s0.2-0.6,0.5-0.6
	s0.4,0.2,0.4,0.3c0,0.1-0.1,0.2-0.2,0.2c-0.2,0-0.1-0.3-0.1-0.3c-0.2,0-0.3,0.1-0.2,0.3c-0.1,0-0.2,0-0.3,0.1
	c0.1,0.1,0.2,0.1,0.3,0.1C5.3,6,5.4,6.1,5.5,6.2c0-0.1-0.1-0.2,0-0.3C5.6,5.9,5.7,6,5.7,6c0.2,0,0.4-0.2,0.4-0.5
	c0-0.4-0.3-0.8-0.9-0.6c0.2-0.1,0.3-0.3,0.3-0.4c-0.1,0-0.2,0-0.2,0c0.1-0.1,0.2-0.3,0.1-0.4C5.3,4.2,5.3,4.2,5.2,4.2
	c0.2-0.4-0.1-1-0.7-1c0,0,0.3,0.5,0.3,0.9c0,0.7-0.3,1-0.3,1.6c0,0.4,0.2,0.7,0.5,0.8c-0.2,0-0.3,0.1-0.4,0.2C4.6,6.9,4.8,7,4.9,7
	C4.7,7.2,4.5,7.5,4.5,7.8c0,0.7,0.3,0.8,0.3,1.8c0,0.3-0.1,0.6-0.3,0.9c0.6-0.1,0.9-0.7,0.7-1.1c0.1-0.1,0.2,0,0.3,0.1
	c0-0.2-0.1-0.3-0.1-0.4c0,0,0.1,0,0.2,0c0-0.1-0.1-0.3-0.2-0.3c0.4,0,0.7-0.4,0.7-0.8c0-0.4-0.4-0.5-0.6-0.5c0-0.1,0-0.1,0-0.2
	c-0.2,0-0.2,0.1-0.2,0.3c-0.1,0-0.2,0.1-0.2,0.1c0.1,0.1,0.1,0.1,0.2,0.1c0,0.2,0.1,0.4,0.2,0.4c0,0-0.1-0.3,0.2-0.3
	c0.1,0,0.2,0.1,0.2,0.2c0,0.2-0.1,0.3-0.4,0.3C5.2,8.4,5,8.2,5,7.8c0-0.3,0.3-0.6,0.6-0.6c0.3,0,0.7,0.3,0.7,0.6
	c0,0.2,0,0.4-0.1,0.5C5.7,9.3,4.4,12,4.4,12c-0.2,0.3-0.2,0.5-0.2,0.9c0,0.6,0.4,1,1.1,1.1c-0.7,0-1.1,0.5-1.1,1.1
	c0,0.3,0.1,0.6,0.2,0.9c0,0,1.3,2.7,1.8,3.7c0.1,0.1,0.1,0.3,0.1,0.5c0,0.3-0.3,0.6-0.7,0.6C5.4,20.6,5,20.3,5,20
	c0-0.4,0.2-0.6,0.4-0.6c0.3,0,0.4,0.1,0.4,0.3c0,0.1-0.1,0.2-0.2,0.2c-0.2,0-0.2-0.3-0.2-0.3c-0.1,0-0.2,0.1-0.2,0.3
	C5.1,19.9,5,20,5,20c0.1,0.1,0.1,0.1,0.2,0.1c-0.1,0.2,0,0.3,0.2,0.3c0-0.1,0-0.1,0-0.2c0.2,0.1,0.6,0,0.6-0.5
	c0-0.4-0.3-0.8-0.8-0.7c0.1-0.1,0.2-0.2,0.2-0.3c-0.1,0-0.2,0-0.2,0c0.1-0.1,0.2-0.2,0.1-0.4c-0.1,0-0.2,0.1-0.3,0.1
	c0.2-0.4,0-0.9-0.7-1.1c0.2,0.3,0.3,0.6,0.3,0.9c0,0.9-0.3,1.1-0.3,1.8c0,0.3,0.1,0.6,0.4,0.8c-0.2,0-0.3,0.1-0.4,0.3l0,0l0,0l0,0
	l0,0c0.1,0.1,0.2,0.2,0.4,0.3c-0.3,0.2-0.4,0.5-0.4,0.8c0,0.7,0.3,0.8,0.3,1.8c0,0.3-0.1,0.6-0.3,0.9c0.6-0.1,0.9-0.7,0.7-1.1
	c0.1-0.1,0.2,0,0.3,0.1c0-0.2-0.1-0.3-0.1-0.4c0,0,0.1,0,0.2,0c0-0.1-0.1-0.3-0.2-0.3C5.7,23.3,6,22.9,6,22.5S5.6,22,5.4,22
	c0-0.1,0-0.1,0-0.2c-0.2,0-0.2,0.1-0.2,0.3c-0.1,0-0.2,0.1-0.2,0.1c0.1,0.1,0.1,0.1,0.2,0.1c-0.1,0.1,0,0.3,0.2,0.3
	c0,0-0.1-0.3,0.2-0.3c0.1,0,0.2,0.1,0.2,0.2c0,0.2-0.1,0.3-0.4,0.3C5.2,22.6,5,22.4,5,22c0-0.3,0.3-0.6,0.6-0.6
	c0.3,0,0.7,0.3,0.7,0.6c0,0.2,0,0.4-0.1,0.5c-0.5,1-1.8,3.7-1.8,3.7c-0.2,0.3-0.2,0.5-0.2,0.9c0,0.6,0.4,1,1.1,1.1
	c-0.7,0-1.1,0.5-1.1,1.1c0,0.3,0.1,0.6,0.2,0.9c0,0,1.3,2.7,1.8,3.7c0.1,0.1,0.1,0.3,0.1,0.5C6.3,34.7,6,35,5.6,35
	C5.3,35,5,34.7,5,34.4c0-0.4,0.2-0.6,0.4-0.6c0.3,0,0.4,0.1,0.4,0.3c0,0.1-0.1,0.2-0.2,0.2c-0.2,0-0.2-0.3-0.2-0.3
	c-0.1,0-0.2,0.1-0.2,0.3c-0.1,0-0.2,0.1-0.2,0.1c0.1,0.1,0.1,0.1,0.2,0.1c-0.1,0.2,0,0.3,0.2,0.3c0-0.1,0-0.1,0-0.2
	c0.2,0.1,0.6,0,0.6-0.5c0-0.4-0.3-0.8-0.8-0.7c0.1-0.1,0.2-0.2,0.2-0.3c-0.1,0-0.2,0-0.2,0c0.1-0.1,0.2-0.2,0.1-0.4
	c-0.1,0-0.2,0.1-0.3,0.1c0.2-0.4,0-0.9-0.7-1.1c0.2,0.3,0.3,0.6,0.3,0.9c0,0.9-0.3,1.1-0.3,1.8c0,0.3,0.1,0.6,0.4,0.8
	c-0.2,0-0.3,0.1-0.4,0.3c0.1,0.2,0.2,0.2,0.4,0.2c-0.2,0.1-0.5,0.4-0.5,0.8c0,0.6,0.3,0.9,0.3,1.6c0,0.4-0.3,0.9-0.3,0.9
	c0.6-0.1,0.9-0.6,0.7-1c0.1,0,0.2,0,0.3,0.1c0-0.1,0-0.3-0.1-0.4c0.1,0,0.1,0,0.2,0c0-0.1-0.1-0.3-0.3-0.4c0.5,0.1,0.9-0.2,0.9-0.6
	c0-0.3-0.2-0.5-0.4-0.5c-0.1,0-0.2,0-0.2,0.1c0-0.1,0-0.2,0-0.3c-0.1,0-0.2,0.1-0.2,0.3c-0.1,0-0.2,0-0.3,0.1
	c0.1,0.1,0.2,0.1,0.3,0.1c-0.1,0.2,0,0.3,0.1,0.3c0,0-0.1-0.3,0.1-0.3c0.1,0,0.2,0,0.2,0.2c0,0.1-0.1,0.3-0.4,0.3s-0.5-0.2-0.5-0.6
	c0-0.4,0.3-0.6,0.7-0.6c0.4,0,0.6,0.2,0.6,0.5c0,0.5-0.7,1.6-0.7,2c0,0.3,0.3,0.5,0.6,0.5c0.2,0,0.3-0.1,0.5-0.2
	c0.1,0.1,0.3,0.2,0.5,0.2c0.3,0,0.6-0.2,0.6-0.5c0-0.4-0.7-1.5-0.7-2c0-0.4,0.3-0.6,0.6-0.5C7.7,35.8,8,36,8,36.4
	C8,36.8,7.8,37,7.5,37s-0.4-0.2-0.4-0.3s0.1-0.2,0.2-0.2c0.2,0,0.1,0.3,0.1,0.3C7.9,36.7,8,36.6,8,36.4c0.1,0,0.2,0,0.3-0.1
	c-0.1-0.1-0.2-0.1-0.3-0.1c0.1-0.2,0-0.3-0.2-0.3c0,0.1,0.1,0.2,0,0.3c-0.1,0-0.1-0.1-0.2-0.1c-0.2,0-0.4,0.2-0.4,0.5
	c0,0.4,0.3,0.8,0.9,0.6c-0.2,0.1-0.3,0.3-0.3,0.4c0.1,0,0.2,0,0.2,0c-0.1,0.1-0.2,0.3-0.1,0.4c0.1-0.1,0.2-0.1,0.3-0.1
	c-0.2,0.4,0.1,1,0.7,1c0,0-0.3-0.5-0.3-0.9c0-0.7,0.3-1,0.3-1.6c0-0.4-0.2-0.7-0.5-0.8c0.2,0,0.3-0.1,0.4-0.2
	C8.7,35.1,8.6,35,8.4,35c0.3-0.2,0.4-0.5,0.4-0.8c0-0.7-0.3-0.8-0.3-1.8c0-0.3,0.1-0.6,0.3-0.9c-0.6,0.1-0.9,0.7-0.7,1.1
	c-0.1,0.1-0.2,0-0.3-0.1C7.9,32.8,8,32.9,8,33c0,0-0.1,0-0.2,0c0,0.1,0.1,0.3,0.2,0.3c-0.5-0.1-0.8,0.3-0.8,0.7s0.4,0.5,0.6,0.5
	c0,0.1,0,0.1,0,0.2C8,34.7,8,34.6,8,34.4c0.1,0,0.2-0.1,0.2-0.1C8.1,34.2,8,34.1,8,34.1c0.1-0.1,0-0.3-0.2-0.3c0,0,0.1,0.3-0.2,0.3
	c-0.1,0-0.2-0.1-0.2-0.2c0-0.2,0.1-0.3,0.4-0.3c0.2,0,0.4,0.2,0.4,0.6c0,0.3-0.3,0.6-0.6,0.6c-0.3,0-0.7-0.3-0.7-0.6
	c0-0.2,0-0.4,0.1-0.5c0.5-1,1.8-3.7,1.8-3.7C9,29.7,9,29.5,9,29.1c0-0.6-0.4-1-1.1-1.1C8.6,28,9,27.5,9,26.9c0-0.3-0.1-0.6-0.2-0.9
	c0,0-1.3-2.7-1.8-3.7c0,0.1,0-0.1,0-0.3c0-0.3,0.3-0.6,0.7-0.6c0.3,0,0.6,0.3,0.6,0.6c0,0.4-0.2,0.6-0.4,0.6c-0.3,0-0.4-0.1-0.4-0.3
	c0-0.1,0.1-0.2,0.2-0.2c0.2,0,0.2,0.3,0.2,0.3c0.1,0,0.2-0.1,0.2-0.3c0.1,0,0.2-0.1,0.2-0.1C8.1,22,8,21.9,8,21.9
	c0.1-0.2,0-0.3-0.2-0.3c0,0.1,0,0.1,0,0.2c-0.2-0.1-0.6,0-0.6,0.5c0,0.4,0.3,0.8,0.8,0.7c-0.1,0.1-0.2,0.2-0.2,0.3
	c0.1,0,0.2,0,0.2,0c-0.1,0.1-0.2,0.2-0.1,0.4c0.1,0,0.2-0.1,0.3-0.1c-0.2,0.4,0,0.9,0.7,1.1c-0.2-0.3-0.3-0.6-0.3-0.9
	c0-0.9,0.3-1.1,0.3-1.8c0-0.3-0.1-0.6-0.4-0.8c0.2,0,0.3-0.1,0.4-0.3l0,0l0,0l0,0l0,0c-0.1-0.1-0.2-0.2-0.4-0.3
	c0.3-0.2,0.4-0.5,0.4-0.8c0-0.7-0.3-0.8-0.3-1.8c0-0.3,0.1-0.6,0.3-0.9C8.2,17.5,8,18,8.2,18.4c-0.1,0.1-0.2,0-0.3-0.1
	c0,0.2,0.1,0.3,0.1,0.4c0,0-0.1,0-0.2,0C7.8,18.8,7.9,19,8,19c-0.5-0.1-0.8,0.3-0.8,0.7c0,0.4,0.4,0.5,0.6,0.5c0,0.1,0,0.1,0,0.2
	C8,20.4,8,20.3,8,20.1c0,0,0.1-0.1,0.2-0.1C8.1,19.9,8,19.9,8,19.8c0.1-0.1,0-0.3-0.2-0.3c0,0,0.1,0.3-0.2,0.3
	c-0.1,0-0.2-0.1-0.2-0.2c0-0.2,0.1-0.3,0.4-0.3c0.2,0,0.4,0.2,0.4,0.6c0,0.3-0.3,0.6-0.6,0.6C7.3,20.6,7,20.3,7,20
	c0-0.2,0-0.4,0.1-0.5C7.6,18.5,8.8,15.8,8.8,15.8z M6.7,14.7c-0.2-0.5-0.7-0.8-1.1-0.8c0.4,0,0.9-0.3,1.1-0.8
	c0.2,0.5,0.7,0.8,1.1,0.8C7.3,13.9,6.8,14.2,6.7,14.7z M6.1,3.7c0.1-0.2,0.5,0.2,0.5,0.2l0,0l0,0l0,0l0,0c0,0,0.4-0.3,0.5-0.2
	c0.2,0.2-0.3,1-0.5,1.6C6.4,4.7,6,3.9,6.1,3.7z M5.9,6.8C5.9,6.7,5.9,6.7,5.9,6.8c0.3-0.1,0.6-0.2,0.7-0.5c0.2,0.3,0.5,0.4,0.8,0.5
	H7.3C7,6.8,6.7,7.1,6.7,7.2l0,0l0,0C6.6,7.1,6.3,6.8,5.9,6.8z M4.7,12.8c0-0.2,0-0.4,0.1-0.5C5.2,11.5,6.4,9,6.6,8.5l0,0l0,0
	c0.3,0.5,1.4,3,1.8,3.8c0.1,0.2,0.1,0.3,0.1,0.5c0,0.5-0.4,0.7-0.7,0.7S7.2,13.3,7.2,13c0-0.2,0.1-0.3,0.2-0.3
	c0.3,0,0.3,0.3,0.3,0.5C8,13,8.1,12.8,8.1,12.6c0.1,0,0.2-0.1,0.3-0.2c-0.1-0.1-0.2-0.2-0.3-0.2c0-0.2-0.1-0.3-0.3-0.4
	c0.1,0.2,0.1,0.4-0.3,0.4c-0.3,0-0.5,0-0.6,0.2c0-0.2,0-1.1,0-1.1c0-0.3,0.4-0.3,0.7-0.2c-0.1-0.4-0.3-0.6-0.8-0.5
	c0.1-0.1,0.3-0.2,0.3-0.4c0-0.3-0.2-0.6-0.4-0.7l0,0l0,0l0,0l0,0c-0.2,0.1-0.4,0.4-0.4,0.7c0,0.2,0.1,0.3,0.3,0.4
	c-0.5-0.1-0.7,0.2-0.8,0.5C5.9,11,6.4,11,6.4,11.4c0,0,0,0.9,0,1.1c-0.1-0.2-0.3-0.2-0.6-0.2c-0.3,0-0.3-0.2-0.3-0.4
	c-0.2,0.1-0.4,0.2-0.3,0.5c-0.2,0-0.3,0.1-0.3,0.2c0.1,0.1,0.2,0.2,0.3,0.2c0,0.2,0.1,0.3,0.3,0.4c-0.1-0.2-0.1-0.5,0.3-0.5
	C5.9,12.7,6,12.8,6,13c0,0.3-0.3,0.5-0.6,0.5C5.2,13.4,4.7,13.2,4.7,12.8z M6.7,27.3c0.2,0.5,0.7,0.8,1.1,0.8
	c-0.4,0-0.9,0.3-1.1,0.8c-0.2-0.5-0.7-0.8-1.1-0.8C6,28.1,6.5,27.8,6.7,27.3z M7.2,38.3c-0.1,0.2-0.5-0.2-0.5-0.2l0,0l0,0l0,0l0,0
	c0,0-0.4,0.3-0.5,0.2c-0.2-0.2,0.3-1,0.5-1.6C6.9,37.3,7.3,38.1,7.2,38.3z M7.4,35.2C7.4,35.3,7.4,35.3,7.4,35.2
	c-0.3,0.1-0.6,0.2-0.7,0.5c-0.2-0.3-0.5-0.4-0.8-0.5H6c0.4,0,0.6-0.3,0.7-0.5l0,0l0,0C6.7,34.9,7,35.2,7.4,35.2z M8.6,29.2
	c0,0.2,0,0.4-0.1,0.5c-0.4,0.8-1.6,3.3-1.8,3.8l0,0l0,0c-0.3-0.5-1.4-3-1.8-3.8c-0.1-0.2-0.1-0.3-0.1-0.5c0-0.5,0.4-0.7,0.7-0.7
	c0.3,0,0.6,0.2,0.6,0.5c0,0.2-0.1,0.3-0.2,0.3c-0.3,0-0.3-0.3-0.3-0.5c-0.2,0.1-0.3,0.3-0.3,0.4c-0.1,0-0.2,0.1-0.3,0.2
	c0.1,0.1,0.2,0.2,0.3,0.2c-0.1,0.3,0.1,0.4,0.3,0.5c-0.1-0.2-0.1-0.4,0.3-0.4c0.3,0,0.5,0,0.6-0.2c0,0.2,0,1.1,0,1.1
	c0,0.3-0.4,0.3-0.7,0.2c0.1,0.4,0.3,0.6,0.8,0.5c-0.1,0.1-0.3,0.2-0.3,0.4c0,0.3,0.2,0.6,0.4,0.7l0,0l0,0l0,0l0,0
	c0.2-0.1,0.4-0.4,0.4-0.7c0-0.2-0.1-0.3-0.3-0.4c0.5,0.1,0.7-0.2,0.8-0.5C7.4,31,6.9,31,6.9,30.6c0,0,0-0.9,0-1.1
	c0.1,0.2,0.3,0.2,0.6,0.2c0.3,0,0.3,0.2,0.3,0.4c0.2,0,0.3-0.1,0.3-0.4c0.2,0,0.3-0.1,0.3-0.2c-0.1-0.1-0.2-0.2-0.3-0.2
	c0-0.2-0.1-0.3-0.3-0.4c0.1,0.2,0.1,0.5-0.3,0.5c-0.1,0-0.2-0.1-0.2-0.3c0-0.3,0.3-0.5,0.6-0.5C8.1,28.6,8.6,28.8,8.6,29.2z
	 M8.5,26.5c0.1,0.2,0.1,0.3,0.1,0.5c0,0.5-0.4,0.7-0.7,0.7s-0.6-0.2-0.6-0.5c0-0.2,0.1-0.3,0.2-0.3c0.3,0,0.3,0.3,0.3,0.5
	C8,27.3,8.1,27.1,8.1,27c0.1,0,0.2-0.1,0.3-0.2c-0.1-0.1-0.2-0.2-0.3-0.2c0.1-0.3-0.1-0.4-0.3-0.5c0.1,0.2,0.1,0.4-0.3,0.4
	c-0.3,0-0.5,0-0.6,0.2c0-0.2,0-1.1,0-1.1c0-0.3,0.4-0.3,0.7-0.2c-0.1-0.4-0.3-0.6-0.8-0.5c0.1-0.1,0.3-0.2,0.3-0.4
	c0-0.3-0.2-0.6-0.4-0.7l0,0l0,0l0,0l0,0c-0.2,0.1-0.4,0.4-0.4,0.7c0,0.2,0.1,0.3,0.3,0.4C6,24.8,5.8,25,5.7,25.4
	c0.3-0.1,0.7-0.1,0.7,0.2c0,0,0,0.9,0,1.1c-0.1-0.2-0.3-0.2-0.6-0.2c-0.3,0-0.3-0.2-0.3-0.4c-0.2,0.1-0.4,0.2-0.3,0.5
	c-0.2,0-0.3,0.1-0.3,0.2C5,26.9,5.1,27,5.2,27c0,0.2,0.1,0.3,0.3,0.4c-0.1-0.2-0.1-0.5,0.3-0.5C5.9,26.9,6,27,6,27.2
	c0,0.3-0.3,0.5-0.6,0.5c-0.3,0-0.7-0.2-0.7-0.7c0-0.2,0-0.4,0.1-0.5c0.4-0.8,1.6-3.3,1.8-3.8l0,0l0,0C6.9,23.2,8.1,25.7,8.5,26.5z
	 M7.4,21L7.4,21L7.4,21c-0.4,0.1-0.6,0.4-0.7,0.5l0,0l0,0C6.6,21.4,6.4,21.1,6,21l0,0l0,0c0.4,0,0.6-0.3,0.7-0.5l0,0l0,0
	C6.7,20.7,7,20.9,7.4,21z M6.7,19.3L6.7,19.3L6.7,19.3c-0.3-0.5-1.4-3-1.8-3.8c-0.1-0.2-0.1-0.3-0.1-0.5c0-0.5,0.4-0.7,0.7-0.7
	c0.3,0,0.6,0.2,0.6,0.5c0,0.2-0.1,0.3-0.2,0.3c-0.3,0-0.3-0.3-0.3-0.5c-0.2,0.1-0.3,0.3-0.3,0.4c-0.1,0-0.2,0.1-0.3,0.2
	c0.1,0.1,0.2,0.2,0.3,0.2c-0.1,0.3,0.1,0.4,0.3,0.5c-0.1-0.2-0.1-0.4,0.3-0.4c0.3,0,0.5,0,0.6-0.2c0,0.2,0,1.1,0,1.1
	c0,0.3-0.4,0.3-0.7,0.2c0,0.4,0.2,0.6,0.7,0.5c-0.1,0.1-0.3,0.2-0.3,0.4c0,0.3,0.2,0.6,0.4,0.7l0,0l0,0l0,0l0,0
	C6.8,18.1,7,17.8,7,17.5c0-0.2-0.1-0.3-0.3-0.4c0.5,0.1,0.7-0.2,0.8-0.5c-0.3,0.1-0.7,0.1-0.7-0.2c0,0,0-0.9,0-1.1
	c0.1,0.2,0.3,0.2,0.6,0.2c0.3,0,0.3,0.2,0.3,0.4c0.2-0.1,0.4-0.2,0.3-0.5c0.2,0,0.3-0.1,0.3-0.2C8.2,15.1,8.1,15,8,15
	c0-0.2-0.1-0.3-0.3-0.4c0.1,0.2,0.1,0.5-0.3,0.5c-0.1,0-0.2-0.1-0.2-0.3c0-0.3,0.3-0.5,0.6-0.5s0.7,0.2,0.7,0.7c0,0.2,0,0.4-0.1,0.5
	C8.1,16.3,6.9,18.8,6.7,19.3z"/>
<g id="Layer_2">
	<g id="bird">
		<path class="st1" d="M44.2,29.9c-0.2,0-0.3,0-0.5,0.1c-0.2,0-0.4,0.1-0.6,0.1H43h-0.1v0.1v0.1c0,0,0,0.1-0.1,0.1l-0.1,0.1h-0.1
			h-0.1c0,0-0.1,0-0.1-0.1h-0.1h-0.1h-0.1c0,0-0.1,0-0.1-0.1c-0.1,0.1-0.3,0.2-0.4,0.3c-0.1,0.1-0.1,0.1-0.1,0.2s0,0.2,0.1,0.3
			c0,0,0-0.1,0.1-0.1c0.1-0.1,0.2-0.1,0.3-0.1s0.1,0,0,0.1c0,0-0.1,0.2,0,0.1c0.3-0.1,0.6-0.2,0.9-0.2c0.5,0,0.9-0.1,1.4-0.1
			c0.4,0,0.9,0,1.3,0c0.2,0,0.4,0.1,0.6,0c0,0,0.1,0,0.2,0c-0.1-0.1-0.2-0.1-0.3-0.1h-0.8c-0.2,0-0.5,0-0.7-0.1
			c-0.1,0-0.1-0.1-0.2,0c-0.1,0-0.2,0-0.3,0.1c-0.2,0-0.3,0-0.4-0.1c0.1-0.1,0.2-0.3,0.3-0.4c-0.1,0-0.2,0-0.3-0.1
			C43.9,30.2,44.1,30.1,44.2,29.9L44.2,29.9z"/>
		<path class="st1" d="M51,31.4c-0.3,0.2-0.6-0.1-0.8-0.2c-0.2,0.1-0.2,0.4-0.4,0.6s-0.5-0.1-0.4-0.3c-0.3,0.2-0.4,0.7-0.8,0.6
			c-0.2-0.2-0.3-0.5-0.5-0.1c-0.1,0.2-0.4,0.4-0.6,0.2c-0.1-0.2-0.2-0.5-0.3-0.1c-0.1,0.3-0.4,0.5-0.7,0.4c-0.2-0.1,0.1-0.6-0.1-0.6
			c-0.3,0.2-0.5,0.7-0.9,0.6c-0.2-0.2,0.1-0.5-0.1-0.7c-0.2,0.3-0.4,0.7-0.8,0.7c-0.2-0.1,0-0.5-0.1-0.6c-0.4,0.2-0.8,0.6-1.2,0.5
			c0.2-0.7,0.9-0.9,1.6-1c1.1-0.1,2.2,0.1,3.3-0.3c0.2-0.1,0.6-0.2,0.4-0.5c-0.1-0.2,0.3-0.1,0.4-0.3c0-0.3,0.2-0.2,0.5-0.3
			c1.1,0,2.1,0.2,3.2,0.2c0.1,0.5-0.5,0.9-1,0.7c-0.2,0-0.5-0.5-0.5-0.1C51.2,31,51.2,31.3,51,31.4 M42,30.4c0.2,0.2,0.4,0,0.6-0.1
			c0.8-0.3,1.4-0.7,2.1-1.2c0.4-0.3,0.7-0.8,1.3-0.9c1.1-0.3,2.2-0.3,3.2-0.6c0.8-1.1,2.2-1.5,3.3-2.1c0.3-0.1,0.4-0.3,0.4-0.5
			c0.4-0.7,1-1.3,1.7-1.7c0.3-0.2,0.7-0.3,1.1-0.2c0,0.4-0.3,0.8-0.6,1.2c0.3,0,0.5-0.2,0.7-0.2c0.1,0.5-0.4,0.7-0.7,1
			c0.1,0,0.7,0.1,0.4,0.2c-0.4,0.3-0.8,0.5-1.2,0.8c0.3,0.1,0.4,0.1,0,0.3c-0.2,0.1-0.5,0.2-0.6,0.4c0.3,0.2-0.1,0.3-0.3,0.4
			c-0.3,0.1-0.6,0.2-0.2,0.4c-0.1,0.2-0.4,0.3-0.7,0.2c0.1,0.2,0.2,0.5-0.1,0.6c-0.7,0.5-1.5,0.9-2.3,1c1.1,0.1,2.2-0.1,3.1-0.7
			c0.1-0.1,0.8-0.3,0.4-0.4c-0.2-0.1-0.5-0.1-0.5-0.3c0.5-0.3,1.1-0.2,1.6-0.4c0-0.2-0.4-0.1-0.6-0.2c-0.4,0-0.4-0.1,0-0.2
			c0.5-0.1,1-0.1,1.3-0.4c-0.3-0.1-0.7,0-1-0.1c0.6-0.2,1.2-0.3,1.7-0.6c0.2-0.3-0.3-0.2-0.4-0.2c-0.3,0.1-0.5-0.1-0.1-0.2
			c0.6-0.4,1.4-0.7,1.8-1.4c0.1-0.1,0.2-0.6-0.1-0.4c-0.4,0.1-0.8,0.6-1.3,0.5c0.9-0.7,1.8-1.6,2.5-2.6c0-0.3-0.4-0.3-0.5-0.1
			c-0.6,0.6-1.2,1.3-1.9,1.6c0.7-0.7,1.4-1.6,1.9-2.5c0.1-0.3,0.4-0.6,0.3-0.9c-0.3-0.2-0.6,0-0.8,0.2c-0.5,0.6-0.8,1.3-1.4,1.8
			c0.5-1,1.1-2.1,1.1-3.3c0-0.2-0.1-0.6-0.4-0.6c-0.3,0-0.2,0.4-0.3,0.6c-0.2,0.8-0.3,1.7-0.8,2.4c0.1-0.7,0.3-1.3,0.2-2
			c-0.1-0.3-0.5-0.2-0.5,0.1c-0.6,2.9-2.5,5.4-5,6.8c-1.2,0.7-2.4,1.1-3.7,1.3c-0.4,0.1-0.7,0-1.1,0.2c-0.8,0.6-1.3,1.7-2.3,2
			c-0.5,0.2-1.1,0.3-1.4,0.7C42,30.3,42,30.3,42,30.4"/>
		<path class="st1" d="M45.1,27.5c-0.2,0.3-0.2,0.6-0.4,0.8c-0.6-0.5-1.4-0.5-2.2-0.6c-0.6,0-1.3-0.1-1.8-0.5s-0.9-0.9-1.5-1.3
			c-0.5-0.1-1-0.3-1.4-0.7c-0.9-0.7-1.4-1.8-2.2-2.5c-0.2-0.2-0.4-0.3-0.5-0.4c-0.2,0-0.1,0.4-0.3,0.2c-0.1-0.1-0.4-0.1-0.4,0
			c0.3,0.3,0.5,0.7,0.6,1.2c-0.2,0-0.5,0-0.6,0c0.2,0.4,0.5,0.7,0.9,0.9c-0.2,0-0.5,0-0.6,0.1c0.3,0.3,0.7,0.6,1.2,0.6
			c0.1,0.1-0.1,0.4,0.1,0.5c0.1,0,0.5,0.1,0.2,0.2c-0.2,0.1-0.1,0.4,0.1,0.4c0.1,0.1,0.5,0.1,0.5,0.2c-0.1,0.1-0.5,0.3-0.2,0.4
			c0.3,0.2,0.7,0.3,1,0.3c-0.2,0.1-0.4,0.2-0.6,0.4c0.8,0.5,1.7,0.8,2.6,1.1c0.4,0.1,0.7,0.2,1.1,0.3c-1.1-0.1-2.1-0.4-3.1-0.8
			c-0.5-0.2-1-0.4-1.5-0.6c0.2-0.1,0.5-0.1,0.7-0.2c-0.5-0.1-1-0.1-1.4-0.4c0.1-0.1,0.3-0.1,0.4-0.2c0.3-0.1,0.4-0.1,0.1-0.2
			c-0.4-0.1-0.8-0.1-1.1-0.3c0-0.1,0.4-0.1,0.5-0.1c0.2,0,0.4-0.1,0.5-0.2c-0.6-0.2-1.3-0.1-1.7-0.6c-0.1-0.2,0.3,0,0.4-0.1
			c0.3,0,0.6,0.1,0.9,0c-0.8-0.4-1.7-0.7-2.3-1.4c-0.1-0.1-0.3-0.4-0.1-0.4c0.5,0.1,0.8,0.6,1.4,0.5c0.1-0.1-0.3-0.2-0.4-0.4
			c-0.8-0.7-1.5-1.4-2-2.2c0-0.3,0.4-0.3,0.5-0.1c0.6,0.6,1.1,1.2,1.8,1.6c0.3,0.1-0.1-0.1-0.2-0.2c-0.7-0.8-1.3-1.6-1.8-2.5
			c-0.1-0.2-0.2-0.5,0-0.6c0.3-0.1,0.5,0,0.6,0.3c0.5,0.6,0.9,1.4,1.5,1.9c-0.5-1-1.1-2.1-1.1-3.3c0-0.2,0-0.6,0.3-0.6
			s0.2,0.3,0.3,0.4c0.3,0.9,0.4,1.8,0.9,2.5c-0.1-0.6-0.3-1.3-0.2-1.9c0-0.2,0.3-0.3,0.4-0.1c0.1,0.3,0.2,0.7,0.3,1
			c0.7,2.2,2.1,4.2,4,5.5c1.6,1.1,3.5,1.7,5.4,1.8C44.7,27.5,44.9,27.5,45.1,27.5"/>
		<circle class="st1" cx="42.6" cy="30.3" r="0.1"/>
		<circle class="st1" cx="42.6" cy="30.3" r="0"/>
	</g>
</g>
</svg>
