<?xml version="1.0" encoding="utf-8"?>
<!-- Generator: Adobe Illustrator 20.0.0, SVG Export Plug-In . SVG Version: 6.00 Build 0)  -->
<svg version="1.1" id="Layer_1" xmlns="http://www.w3.org/2000/svg" xmlns:xlink="http://www.w3.org/1999/xlink" x="0px" y="0px"
	 viewBox="0 0 64 42" style="enable-background:new 0 0 64 42;" xml:space="preserve">
<style type="text/css">
	.st0{fill:#E8112D;}
	.st1{fill:#F9D616;}
	.st2{fill:#F9D616;stroke:#E8112D;stroke-width:1.2;stroke-miterlimit:10;}
</style>
<path id="Rounded_Rectangle_7_copy" class="st0" d="M5.8,0h52.3C61.4,0,64,2.6,64,5.7v30.6c0,3.2-2.6,5.7-5.8,5.7H5.8
	C2.6,42,0,39.4,0,36.3V5.7C0,2.6,2.6,0,5.8,0z"/>
<g>
	<path class="st1" d="M41.3,23.2c2-0.4,4.7,1.6,6.4,0.3c-2.2,0.2-4.2-1.9-6.2-1.7l0,0l0,0l0,0c1.9-0.7,4.9,0.8,6.4-0.7
		c-2.1,0.5-4.4-1.2-6.4-0.7l0,0l0,0l0,0c1.8-1,5,0.1,6.2-1.7c-2,0.9-4.6-0.5-6.4,0.3l0,0l0,0l0,0c1.6-1.3,5-0.7,5.8-2.7
		c-1.9,1.2-4.6,0.2-6.3,1.3l0,0l0,0l0,0c1.4-1.5,4.8-1.5,5.3-3.5c-1.6,1.4-4.5,0.9-6,2.2l0,0l0,0l0,0c1.1-1.7,4.5-2.2,4.7-4.3
		c-1.4,1.7-4.3,1.6-5.6,3.1l0,0l0,0l0,0c0.8-1.9,4.1-2.9,4-5c-1.1,1.9-4,2.2-5,4l0,0l0,0l0,0c0.5-2,3.6-3.5,3.1-5.6
		c-0.8,2-3.6,2.8-4.3,4.7l0,0l0,0l0,0c0.2-2.1,3-4,2.2-6c-0.5,2.1-3.1,3.4-3.5,5.3l0,0l0,0l0,0C35.6,10.4,38,8.1,37,6.2
		c-0.2,2.2-2.5,3.8-2.7,5.8l0,0l0,0l0,0c-0.4-2,1.6-4.7,0.3-6.4c0.2,2.2-1.9,4.2-1.7,6.2l0,0l0,0l0,0C32,9.5,33.6,6.5,32,5.1
		c0.5,2.1-1.2,4.4-0.7,6.4l0,0l0,0l0,0c-1-1.8,0.1-5-1.7-6.2c0.9,2-0.5,4.6,0.3,6.4l0,0l0,0l0,0c-1.3-1.6-0.7-5-2.7-5.8
		c1.2,1.9,0.2,4.6,1.3,6.3l0,0l0,0l0,0C27,10.8,27,7.4,25,6.9c1.4,1.6,0.9,4.5,2.2,6l0,0l0,0l0,0c-1.7-1.1-2.2-4.5-4.3-4.7
		c1.7,1.4,1.6,4.3,3.1,5.6l0,0l0,0l0,0c-1.9-0.8-2.9-4.1-5-4c1.9,1.1,2.2,4,4,5l0,0l0,0l0,0c-2-0.5-3.5-3.6-5.6-3.1
		c2,0.8,2.8,3.6,4.7,4.3l0,0l0,0l0,0c-2.1-0.2-4-3-6-2.2c2.1,0.5,3.4,3.1,5.3,3.5l0,0l0,0l0,0C21.3,17.4,19,15,17.1,16
		c2.2,0.2,3.8,2.5,5.8,2.7l0,0l0,0l0,0c-2,0.4-4.7-1.6-6.4-0.3c2.2-0.2,4.2,1.9,6.2,1.7l0,0l0,0l0,0c-1.9,0.7-4.9-0.8-6.4,0.7
		c2.1-0.5,4.4,1.2,6.4,0.7l0,0l0,0l0,0c-1.8,1-5-0.1-6.2,1.7c2-0.9,4.6,0.5,6.4-0.3l0,0l0,0l0,0c-1.6,1.3-5,0.7-5.8,2.7
		c1.9-1.2,4.6-0.2,6.3-1.3l0,0l0,0l0,0c-1.4,1.5-4.8,1.5-5.3,3.5c1.6-1.4,4.5-0.9,6-2.2l0,0l0,0l0,0c-1.1,1.7-4.5,2.2-4.7,4.3
		c1.4-1.7,4.3-1.6,5.6-3.1l0,0l0,0l0,0c-0.8,1.9-4.1,2.9-4,5c1.1-1.9,4-2.2,5-4l0,0l0,0l0,0c-0.5,2-3.6,3.5-3.1,5.6
		c0.8-2,3.6-2.8,4.3-4.7l0,0l0,0l0,0c-0.2,2.1-3,4-2.2,6c0.5-2.1,3.1-3.4,3.5-5.3l0,0l0,0l0,0c0.1,2.1-2.3,4.4-1.3,6.3
		c0.2-2.2,2.5-3.8,2.7-5.8l0,0l0,0l0,0c0.4,2-1.6,4.7-0.3,6.4c-0.2-2.2,1.9-4.2,1.7-6.2l0,0l0,0l0,0C32,32,30.5,35,32,36.5
		c-0.5-2.1,1.2-4.4,0.7-6.4l0,0l0,0l0,0c1,1.8-0.1,5,1.7,6.2c-0.9-2,0.5-4.6-0.3-6.4l0,0l0,0l0,0c1.3,1.6,0.7,5,2.7,5.8
		c-1.2-1.9-0.2-4.6-1.3-6.3l0,0l0,0l0,0c1.5,1.4,1.5,4.8,3.5,5.3c-1.4-1.6-0.9-4.5-2.2-6l0,0l0,0l0,0c1.7,1.1,2.2,4.5,4.3,4.7
		c-1.7-1.4-1.6-4.3-3.1-5.6l0,0l0,0l0,0c1.9,0.8,2.9,4.1,5,4c-1.9-1.1-2.2-4-4-5l0,0l0,0l0,0c2,0.5,3.5,3.6,5.6,3.1
		c-2-0.8-2.8-3.6-4.7-4.3l0,0l0,0l0,0c2.1,0.2,4,3,6,2.2c-2.1-0.5-3.4-3.1-5.3-3.5l0,0l0,0l0,0c2.1-0.1,4.4,2.3,6.3,1.3
		C44.9,25.8,43.3,23.4,41.3,23.2L41.3,23.2L41.3,23.2L41.3,23.2z"/>
	<g>
		<circle class="st2" cx="32" cy="21" r="7.9"/>
		<path class="st0" d="M38.9,25.4c0.3-0.5,0.6-1,0.8-1.6c-0.8-2.5-2.3-4.7-4.2-6.3c1.1-0.5,2.2-0.8,3.4-1c-0.1-0.2-0.2-0.3-0.3-0.5
			c-1.3,0.1-2.6,0.4-3.8,0.9c-0.2-0.1-0.3-0.2-0.5-0.3c1.2-0.5,2.6-0.8,4-0.9c-0.1-0.2-0.3-0.4-0.5-0.5c-1.5,0.1-2.9,0.4-4.3,1
			c-0.2-0.1-0.4-0.2-0.6-0.3c1.4-0.6,2.9-0.9,4.5-1c-0.2-0.2-0.4-0.4-0.7-0.5c-1.7,0.1-3.3,0.4-4.8,1.1c-1.5-0.6-3.1-1-4.8-1.1
			c-0.2,0.2-0.5,0.4-0.7,0.5c1.6,0.1,3.1,0.4,4.5,1c-0.2,0.1-0.4,0.2-0.6,0.3c-1.3-0.6-2.8-0.9-4.3-1c-0.2,0.2-0.3,0.3-0.5,0.5
			c1.4,0.1,2.7,0.4,4,0.9c-0.2,0.1-0.3,0.2-0.5,0.3c-1.2-0.5-2.4-0.8-3.8-0.9c-0.1,0.2-0.2,0.3-0.3,0.5c1.2,0.1,2.4,0.5,3.4,1
			c-1.9,1.6-3.4,3.8-4.2,6.3c0.2,0.6,0.5,1.1,0.8,1.6c0.6-3,2.2-5.6,4.4-7.4c0.2,0.1,0.4,0.2,0.6,0.3c-2.3,2-3.9,4.8-4.3,8
			c0.3,0.4,0.7,0.7,1,1.1c0.2-3.4,1.7-6.4,4.1-8.5c0.2,0.1,0.3,0.3,0.5,0.4c-2.3,2.2-3.7,5.2-3.8,8.6c0.3,0.2,0.7,0.4,1.1,0.6
			c0-0.1,0-0.2,0-0.4c0-3.2,1.3-6.1,3.4-8.2c2.1,2.1,3.4,5,3.4,8.2c0,0.1,0,0.2,0,0.4c0.4-0.2,0.8-0.4,1.1-0.6
			c-0.1-3.4-1.5-6.5-3.8-8.6c0.2-0.1,0.3-0.3,0.5-0.4c2.3,2.1,3.9,5.1,4.1,8.5c0.4-0.3,0.7-0.7,1-1.1c-0.4-3.2-2-6-4.3-8
			c0.2-0.1,0.4-0.2,0.6-0.3C36.7,19.8,38.3,22.4,38.9,25.4z M32,16.2c0.2,0.1,0.4,0.2,0.6,0.3c-0.2,0.1-0.4,0.2-0.6,0.3
			c-0.2-0.1-0.4-0.2-0.6-0.3C31.7,16.5,31.8,16.4,32,16.2z M30.2,17.4c0.2-0.1,0.3-0.2,0.5-0.3c0.2,0.1,0.4,0.2,0.6,0.3
			c-0.2,0.1-0.3,0.2-0.5,0.3C30.6,17.6,30.4,17.5,30.2,17.4z M32,18.6c-0.2-0.1-0.3-0.3-0.5-0.4c0.2-0.1,0.3-0.2,0.5-0.4
			c0.2,0.1,0.3,0.2,0.5,0.4C32.4,18.4,32.2,18.5,32,18.6z M33.3,17.7c-0.2-0.1-0.3-0.2-0.5-0.3c0.2-0.1,0.4-0.2,0.6-0.3
			c0.2,0.1,0.3,0.2,0.5,0.3C33.7,17.5,33.5,17.6,33.3,17.7z"/>
	</g>
</g>
</svg>
