<?xml version="1.0" encoding="utf-8"?>
<!-- Generator: Adobe Illustrator 20.0.0, SVG Export Plug-In . SVG Version: 6.00 Build 0)  -->
<svg version="1.1" id="Layer_1" xmlns="http://www.w3.org/2000/svg" xmlns:xlink="http://www.w3.org/1999/xlink" x="0px" y="0px"
	 viewBox="0 0 64 42" style="enable-background:new 0 0 64 42;" xml:space="preserve">
<style type="text/css">
	.st0{fill:#EC3C24;}
	.st1{fill:#FFFFFF;}
	.st2{fill:#009E3F;}
</style>
<path id="Rounded_Rectangle_7_copy_1_" class="st0" d="M5.8,0h52.3C61.4,0,64,2.6,64,5.7v30.6c0,3.2-2.6,5.7-5.8,5.7H5.8
	C2.6,42,0,39.4,0,36.3V5.7C0,2.6,2.6,0,5.8,0z"/>
<path class="st0" d="M0,36.3C0,39.4,2.6,42,5.8,42h52.4c3.2,0,5.8-2.5,5.8-5.7v-6.8H0V36.3z"/>
<rect y="9.6" class="st1" width="64" height="22.8"/>
<path class="st2" d="M31.8,12.9l-0.3,0.4c-0.1,0.2-0.5,0.6-0.8,0.8s-0.6,0.5-0.8,0.7l-0.2,0.3L30,15c0.1,0,0.3-0.1,0.4-0.1
	s0.2,0,0.2,0l0,0l0,0c0,0.2-0.5,0.5-0.9,0.7c-0.3,0.1-0.9,0.5-0.9,0.7l0,0l0,0l0,0l0,0l0,0l0,0l0,0l0,0l0,0l0,0l0,0l0,0l0,0
	c0,0,0.2,0,0.3,0c0.2,0,0.3,0,0.4,0.1c0.1,0.2,0,0.3-0.2,0.3c-0.3,0-0.8,0.3-0.8,0.6c0,0.2-0.2,0.3-0.6,0.5c-0.6,0.3-1.4,0.8-1.4,1
	l0,0c0,0.2,0.5,0.2,1.2,0c0.2-0.1,0.2,0,0.4,0.3c0.2,0.4,0.2,0.4-0.2,0.8c-0.3,0.3-0.5,0.5-0.7,0.5c-0.5,0.1-0.6,0.2-1.2,0.8
	c-0.3,0.3-0.6,0.5-0.7,0.5c0,0,0,0-0.1,0l0,0l0,0l0,0l0,0l0,0l0,0l0,0l0,0l0,0l0,0l0,0l0,0l0,0c0,0.1,0.4,0.3,0.6,0.3
	c0.1,0,0.5-0.2,0.7-0.3c0.5-0.3,0.5-0.3,0.7-0.1c0.1,0.1,0.2,0.3,0.2,0.5s-0.1,0.3-0.7,0.6c-0.5,0.2-1,0.6-1.4,1
	c-0.6,0.6-0.7,0.7-1,0.6c-0.2,0-0.2,0-0.3,0l0,0l0,0l0,0l0,0c0,0,0.1,0.1,0.1,0.2c0.1,0.1,0.3,0.2,0.4,0.2c0.4,0,1.8-0.5,2.2-0.8
	c0.4-0.3,0.8-0.3,1.1-0.2c0.5,0.3-0.3,0.9-1.8,1.3c-0.6,0.2-1,0.3-1.1,0.4l0,0l0,0l0,0l0,0c0,0,0,0.1,0.1,0.2c0.2,0.2,1,0.2,1.6,0
	c0.3-0.1,1-0.4,1.5-0.6c1-0.5,1-0.5,1.4-0.3c0.8,0.4,0.7,1.2-0.2,2.4c-0.4,0.5-0.8,0.8-1.5,0.9c-0.3,0.1-0.8,0.6-0.8,0.7l0,0h0.2
	l0.1-0.1c0.2-0.3,0.7-0.5,1.1-0.5c0.5,0,1.1-0.3,1.5-0.7c0.4-0.4,0.8-0.5,1.1-0.3c0.2,0.1,0.3,0.1,0.5,0C31.9,27,32,27,32,27.3
	c0,0.1,0.1,0.3,0.3,0.4s0.5,0.3,0.6,0.5c0.1,0.1,0.3,0.2,0.3,0.2l0,0l0,0l0,0l0,0l0,0l0,0l0,0l0,0l0,0l0,0l0,0l0,0l0,0l0,0
	c0-0.1,0-0.2-0.2-0.4c0,0.3,0,0.2,0,0.1l0,0l0,0l0,0l0,0l0,0l0,0l0,0l0,0l0,0c0.1,0,0.4,0,0.7,0c0.6,0.1,0.7,0.1,1.1,0.5
	c0.2,0.2,0.3,0.3,0.5,0.4h0.3c0.1,0,0.1-0.1,0.1-0.1l0,0l0,0l0,0l0,0l0,0l0,0c0-0.1-0.4-0.4-0.8-0.8c-1-0.8-1.2-1.2-1.2-2.3
	c0-0.7,0-0.9,0.2-1.1c0.3-0.3,0.4-0.3,1,0.1c0.5,0.2,0.6,0.3,1.7,0.2c1.2,0,1.2,0,1.8,0.3c0.3,0.2,0.7,0.4,0.9,0.6
	c0.4,0.3,0.7,0.3,0.8,0s-0.6-0.9-1.9-1.6c-1.3-0.7-1.4-0.9-0.8-1.2c0.3-0.2,0.4-0.2,0.9,0.1c0.4,0.2,0.6,0.3,0.9,0.2l0.4-0.1
	l-0.8-0.6c-0.4-0.3-0.8-0.7-0.9-0.8c-0.2-0.3-0.7-0.5-1.1-0.5c-0.2,0-0.4,0-0.4-0.1l0,0l0,0l0,0c-0.1-0.2,0.2-0.3,1.3-0.4
	c1.4-0.1,1.6-0.2,0.6-0.5c-0.4-0.1-0.9-0.3-1.3-0.3c-0.4-0.1-0.6-0.2-0.6-0.3l0,0l0,0c0,0,0-0.1,0.1-0.1c0.1-0.1,0.4-0.1,0.9,0
	c0.6,0.1,0.9,0.1,1,0.1c0.1-0.1-0.2-0.3-0.8-0.6c-0.5-0.3-1.2-0.8-1.5-1.1c-0.3-0.3-0.8-0.6-1-0.8c-0.3-0.2-0.4-0.3-0.4-0.4
	c0.1-0.2,0.6-0.2,0.9,0c0.1,0.1,0.5,0.2,0.8,0.2h0.5L36.3,17c-0.4-0.1-1.3-0.8-1.4-1l0,0l0,0l0,0l0,0l0,0l0,0l0,0c0,0,0.3,0,0.5,0
	h0.5l-0.8-0.6c-0.6-0.4-0.9-0.6-1.3-0.7c-0.3-0.1-0.7-0.1-0.8-0.2c-0.3-0.1-0.9-0.6-1.1-1.1L31.8,12.9z M30,16L30,16
	c0.1,0,0.2,0,0.2,0.1l0,0l0,0l0,0l0,0l0,0l0,0l0,0l0,0c0,0.1-0.1,0.2-0.3,0.3c-0.1,0.1-0.1,0.1-0.2,0.1l0,0l0,0l0,0c0,0,0-0.1,0-0.2
	C29.8,16.1,29.8,16,30,16z M32.6,16.3L32.6,16.3c0.2,0,0.3,0.1,0.3,0.2s0,0.2-0.3,0.2c-0.1,0-0.2,0-0.3-0.1v-0.1
	C32.4,16.3,32.5,16.3,32.6,16.3z M31.9,16.3c0.1,0,0.2,0.1,0.2,0.2c0,0.2-0.1,0.3-0.4,0.4S31.2,17,31.1,17l0,0l0,0
	c-0.1-0.1,0-0.3,0.3-0.5C31.6,16.4,31.8,16.3,31.9,16.3z M33.7,16.3c0.2,0,0.2,0.1,0.1,0.4c0,0.1-0.2,0.2-0.3,0.2
	c-0.2,0-0.2,0-0.2-0.2C33.3,16.4,33.4,16.4,33.7,16.3C33.6,16.3,33.6,16.3,33.7,16.3z M30.6,16.9C30.6,16.9,30.7,16.9,30.6,16.9
	c0.3,0,0.1,0.5-0.2,0.7c-0.3,0.2-0.6,0.3-0.6,0.2l0,0l0,0l0,0l0,0l0,0l0,0l0,0l0,0C29.8,17.4,30.4,16.9,30.6,16.9z M32.9,17.9
	c0.1,0,0.2,0.1,0.1,0.3c0,0.1-0.1,0.2-0.3,0.2c-0.1,0-0.2,0-0.2,0l0,0l0,0l0,0l0,0l0,0c0-0.1,0-0.2,0.2-0.4
	C32.7,18,32.8,17.9,32.9,17.9z M32,18L32,18c0.2,0,0.3,0.2,0.1,0.3c-0.1,0.1-0.2,0.1-0.2,0.1l0,0l0,0c0,0-0.1,0-0.3-0.1l-0.2-0.1
	l0.3-0.1C31.7,18,31.9,18,32,18z M33.9,18.2c0.1,0,0.2,0,0.3,0.1c0.2,0.1,0.2,0.2,0.2,0.4c-0.1,0.3-0.2,0.3-0.8,0.2
	c-0.3-0.1-0.3-0.1-0.2-0.3C33.5,18.3,33.7,18.2,33.9,18.2z M29.7,18.3L29.7,18.3c0.4,0,0.5,0.1,0.3,0.3c-0.1,0.1-0.2,0.2-0.3,0.3
	c-0.1,0.1-0.2,0.1-0.3-0.1c-0.1-0.2-0.1-0.4-0.1-0.4C29.3,18.3,29.5,18.3,29.7,18.3z M28.6,18.5c0.2,0,0.3,0.1,0.4,0.3l0.2,0.3
	l-0.3,0.1c-0.3,0.1-0.3,0.1-0.5-0.2c-0.1-0.2-0.2-0.3-0.2-0.4l0,0l0,0l0,0C28.3,18.5,28.4,18.5,28.6,18.5
	C28.5,18.5,28.5,18.5,28.6,18.5z M35.1,19.5c0.2,0,0.4,0.1,0.4,0.3c0,0.3-0.3,0.4-0.6,0.2c-0.2-0.1-0.2-0.2,0-0.3
	C34.9,19.6,35,19.5,35.1,19.5z M31.4,20L31.4,20C31.4,20,31.5,20,31.4,20C31.5,20.1,31.5,20.1,31.4,20c0.1,0,0.1,0,0.1,0l0,0l0,0
	l0,0c0,0,0,0.1,0,0.2c0,0.3-0.2,0.4-0.3,0.1C31.1,20.2,31.2,20.1,31.4,20z M30.1,20.3c0.1,0,0.2,0,0.4,0.2c0.1,0.1,0.1,0.2,0.1,0.2
	l0,0l0,0l0,0l0,0l0,0l0,0l0,0l0,0c-0.1,0-0.2,0-0.3-0.1C30.2,20.5,30.1,20.4,30.1,20.3C30.1,20.4,30.1,20.4,30.1,20.3
	C30.1,20.4,30.1,20.4,30.1,20.3L30.1,20.3z M32.1,20.3c0,0,0.1,0,0.1,0.1c0.1,0.1,0.2,0.3,0.2,0.4c0.1,0.3-0.1,0.4-0.3,0.3
	c-0.3-0.1-0.4-0.4-0.2-0.6C32.1,20.4,32.1,20.3,32.1,20.3z M32.8,20.7c0.1,0,0.2,0.1,0.2,0.3c0,0.1,0,0.2,0,0.2l0,0l0,0l0,0l0,0l0,0
	l0,0l0,0l0,0c-0.1,0-0.2-0.1-0.2-0.4C32.7,20.8,32.8,20.7,32.8,20.7z M28.5,21.2c0.1,0,0.3,0,0.4,0s0.2,0.1,0.3,0.1l0,0l0,0l0,0
	c0,0.1-0.1,0.2-0.4,0.3c-0.2,0.1-0.5,0.2-0.7,0.3c-0.3,0.1-0.4,0-0.5-0.3c-0.1-0.2-0.2-0.3-0.2-0.4l0,0l0,0l0,0l0,0l0,0
	C27.5,21.2,28,21.2,28.5,21.2z M35.2,22.1c0.4,0,0.6,0.2,0.2,0.6c-0.3,0.2-0.7,0.2-0.9,0c-0.2-0.1-0.2-0.2,0.2-0.4
	C34.8,22.2,35,22.1,35.2,22.1z M36.6,22.4C36.7,22.4,36.7,22.4,36.6,22.4c0.1,0,0.2,0.1,0.3,0.2c0.2,0.2,0.2,0.2,0,0.4
	c-0.1,0.1-0.2,0.3-0.3,0.3l0,0l0,0l0,0l0,0c0,0-0.2,0-0.4-0.1c-0.2,0-0.3-0.1-0.3-0.2l0,0C36,22.9,36.4,22.5,36.6,22.4z M29.5,22.9
	L29.5,22.9c0.3,0,0.5,0.2,0.5,0.6c0,0.5-0.3,0.5-0.5-0.1C29.4,23,29.3,22.9,29.5,22.9z M31.5,23c0.2,0,0.6,0.1,0.6,0.1l0,0l0,0l0,0
	l0,0l0,0l0,0l0,0c0,0-0.1,0.2-0.2,0.4l-0.2,0.3l-0.1-0.4C31.5,23.3,31.5,23.1,31.5,23C31.5,23.1,31.5,23.1,31.5,23
	C31.5,23.1,31.5,23.1,31.5,23C31.5,23.1,31.5,23.1,31.5,23C31.5,23.1,31.5,23.1,31.5,23C31.5,23.1,31.5,23.1,31.5,23
	C31.5,23.1,31.5,23,31.5,23L31.5,23L31.5,23L31.5,23L31.5,23z M30.5,23.2h0.1c0.1,0,0.2,0.1,0.3,0.2c0,0.1,0,0.2,0,0.3l0,0l0,0l0,0
	l0,0l0,0l0,0c-0.1,0-0.2-0.1-0.2-0.2C30.5,23.4,30.5,23.3,30.5,23.2L30.5,23.2L30.5,23.2z"/>
</svg>
