<?xml version="1.0" encoding="utf-8"?>
<!-- Generator: Adobe Illustrator 20.0.0, SVG Export Plug-In . SVG Version: 6.00 Build 0)  -->
<svg version="1.1" id="Layer_1" xmlns="http://www.w3.org/2000/svg" xmlns:xlink="http://www.w3.org/1999/xlink" x="0px" y="0px"
	 viewBox="0 0 64 42" style="enable-background:new 0 0 64 42;" xml:space="preserve">
<style type="text/css">
	.st0{fill:#00785E;}
	.st1{fill:#FBD116;}
	.st2{fill:#FFFFFF;}
</style>
<path id="Rounded_Rectangle_7_copy_1_" class="st0" d="M5.8,0h52.3C61.4,0,64,2.6,64,5.7v30.6c0,3.2-2.6,5.7-5.8,5.7H5.8
	C2.6,42,0,39.4,0,36.3V5.7C0,2.6,2.6,0,5.8,0z"/>
<g>
	<polygon class="st1" points="32.9,10.3 34.4,9.2 32.6,9.2 32,7.5 31.4,9.2 29.6,9.2 31.1,10.3 30.5,12 32,11 33.5,12 	"/>
	<polygon class="st1" points="22.8,16.5 23.9,15.9 22.7,15.8 22.4,14.5 21.9,15.7 20.6,15.5 21.6,16.4 21,17.5 22.1,16.9 23.1,17.8 
			"/>
	<polygon class="st1" points="26.2,12.5 27.4,12.5 26.4,11.8 26.8,10.6 25.8,11.3 24.8,10.5 25.2,11.7 24.1,12.5 25.4,12.5 
		25.8,13.7 	"/>
	<g>
		<path class="st2" d="M24.7,32.4c0.4,0.3,0.9,0.5,1.4,0.8H32h5.9c0.5-0.2,0.9-0.5,1.4-0.8H32H24.7z"/>
		<path class="st2" d="M21.9,30c0.1,0.1,0.2,0.3,0.4,0.4H32h9.7c0.1-0.1,0.2-0.3,0.4-0.4H32H21.9z"/>
		<path class="st2" d="M23.1,31.2c0.2,0.2,0.5,0.4,0.7,0.6H32h8.2c0.3-0.2,0.5-0.4,0.7-0.6H32H23.1z"/>
		<path class="st2" d="M27,33.5c1.6,0.6,3.3,1,5,1s3.5-0.3,5-1h-5H27z"/>
		<path class="st2" d="M37.1,27.3c-0.5,0-0.9,0-1.4-0.1c0.2,0,0.4,0,0.6,0c3.3,0,6.1-2.1,7.2-5c-1.1-0.4-2.2-0.7-3.5-0.7
			c-2.2,0-4.2,0.8-5.8,2.1c1.6-1.7,4-2.8,6.5-2.8c0.2-0.3,0.4-0.6,0.6-0.8c-0.1,0-0.3,0-0.4,0c-2.6,0-4.9,1.1-6.6,2.8
			c0.9-1.3,1.5-2.9,1.5-4.6c0-1.4-0.4-2.7-1-3.8c-0.1,0.5-0.4,0.9-0.7,1.2c0.5,1,0.7,2.1,0.7,3.3c0,1.8-0.6,3.4-1.6,4.7
			c0.8-1.2,1.3-2.7,1.3-4.3c0-0.8-0.1-1.5-0.3-2.2c-0.6-1.9-1.7-3.1-2.4-3.6c-0.6,0.6-1.8,1.8-2.4,3.6c-0.2,0.7-0.3,1.4-0.3,2.2
			c0,1.6,0.5,3.1,1.3,4.3c-1-1.3-1.6-2.9-1.6-4.7c0-1.2,0.3-2.3,0.7-3.3c-0.3-0.3-0.6-0.8-0.7-1.2c-0.6,1.1-1,2.4-1,3.8
			c0,1.7,0.6,3.3,1.5,4.6c-1.7-1.7-4-2.8-6.6-2.8c-0.1,0-0.3,0-0.4,0c0.3,0.2,0.5,0.5,0.6,0.8c2.6,0,4.9,1.1,6.5,2.8
			c-1.6-1.3-3.6-2.1-5.8-2.1c-1.2,0-2.4,0.2-3.5,0.7c1.1,2.9,3.9,5,7.2,5c0.2,0,0.4,0,0.6,0c-0.4,0.1-0.9,0.1-1.4,0.1
			c-2.1,0-4-0.8-5.4-2.2c-0.3,0.1-0.6,0.2-0.9,0.2c1.4,1.6,3.5,2.6,5.8,2.6c2.2,0,4.2-0.9,5.6-2.4c1.4,1.5,3.4,2.4,5.6,2.4
			c2.3,0,4.4-1,5.8-2.6c-0.3,0-0.6-0.1-0.9-0.2C41,26.4,39.1,27.3,37.1,27.3z"/>
		<path class="st2" d="M35.1,28.2c-1.5-0.5-2.5-1.3-3.1-1.8c-0.5,0.5-1.6,1.3-3.1,1.8c-0.7,0.2-1.5,0.3-2.2,0.3h-6
			c0.2,0.3,0.4,0.5,0.6,0.8H27c1.9,0,3.6-0.7,5-1.8c1.3,1.1,3.1,1.8,5,1.8h5.8c0.2-0.2,0.4-0.5,0.6-0.8h-6
			C36.5,28.5,35.8,28.4,35.1,28.2z"/>
		<polygon class="st1" points="40.9,17.8 41.9,16.9 43,17.5 42.4,16.4 43.4,15.5 42.1,15.7 41.6,14.5 41.3,15.8 40.1,15.9 
			41.2,16.5 		"/>
		<polygon class="st1" points="37.8,12.5 38.2,13.7 38.6,12.5 39.9,12.5 38.8,11.7 39.2,10.5 38.2,11.3 37.2,10.6 37.6,11.8 
			36.6,12.5 		"/>
	</g>
</g>
</svg>
