<?xml version="1.0" encoding="utf-8"?>
<!-- Generator: Adobe Illustrator 20.0.0, SVG Export Plug-In . SVG Version: 6.00 Build 0)  -->
<svg version="1.1" id="Layer_1" xmlns="http://www.w3.org/2000/svg" xmlns:xlink="http://www.w3.org/1999/xlink" x="0px" y="0px"
	 viewBox="0 0 64 42" style="enable-background:new 0 0 64 42;" xml:space="preserve">
<style type="text/css">
	.st0{fill:#C9211C;}
	.st1{fill:#FFFFFF;}
	.st2{fill:#0035AD;}
	.st3{fill:#FED000;}
</style>
<rect y="24" class="st0" width="64" height="3"/>
<rect y="18" class="st0" width="64" height="3"/>
<rect y="12" class="st0" width="64" height="3"/>
<rect y="30" class="st0" width="64" height="3"/>
<path class="st0" d="M0,36.3c0,1,0.3,1.9,0.7,2.7h62.6c0.4-0.8,0.7-1.7,0.7-2.7V36H0V36.3z"/>
<rect y="6" class="st0" width="64" height="3"/>
<path class="st0" d="M58.1,0H5.8C3.6,0,1.7,1.2,0.7,3h62.6C62.3,1.2,60.4,0,58.1,0z"/>
<path class="st1" d="M0.7,3C0.3,3.8,0,4.7,0,5.7V6h64V5.7c0-1-0.3-1.9-0.7-2.7C63.3,3,0.7,3,0.7,3z"/>
<rect y="9" class="st1" width="64" height="3"/>
<rect y="15" class="st1" width="64" height="3"/>
<rect y="21" class="st1" width="64" height="3"/>
<rect y="27" class="st1" width="64" height="3"/>
<rect y="33" class="st1" width="64" height="3"/>
<path class="st1" d="M5.8,42h52.4c2.2,0,4.1-1.2,5.1-3H0.7C1.7,40.8,3.6,42,5.8,42z"/>
<path class="st2" d="M33,0H5.8C3.6,0,1.7,1.2,0.7,3C0.3,3.8,0,4.7,0,5.7V6v3v3v3v3v3v3h33V0z"/>
<path class="st3" d="M7.6,12c0-4.1,3.3-7.4,7.4-7.4c1.1,0,2.1,0.2,3,0.6c-1.4-1-3-1.6-4.8-1.6c-4.6,0-8.3,3.7-8.3,8.3
	s3.7,8.3,8.3,8.3c1.8,0,3.5-0.6,4.8-1.6c-0.9,0.4-1.9,0.6-3,0.6C10.9,19.4,7.6,16.1,7.6,12z"/>
<polygon class="st3" points="23.7,10.8 26.6,7.7 22.9,9.9 24.2,5.8 21.8,9.3 21.2,5.1 20.6,9.3 18.2,5.8 19.5,9.9 15.8,7.7 
	18.7,10.8 14.4,10.5 18.4,12 14.4,13.6 18.7,13.2 15.8,16.4 19.5,14.2 18.2,18.3 20.6,14.7 21.2,19 21.8,14.7 24.2,18.3 22.9,14.2 
	26.6,16.4 23.7,13.2 27.9,13.6 24,12 27.9,10.5 "/>
</svg>
