<?xml version="1.0" encoding="utf-8"?>
<!-- Generator: Adobe Illustrator 20.0.0, SVG Export Plug-In . SVG Version: 6.00 Build 0)  -->
<svg version="1.1" id="Layer_1" xmlns="http://www.w3.org/2000/svg" xmlns:xlink="http://www.w3.org/1999/xlink" x="0px" y="0px"
	 viewBox="0 0 64 42" style="enable-background:new 0 0 64 42;" xml:space="preserve">
<style type="text/css">
	.st0{fill:#CF1033;}
	.st1{fill:#007E3A;}
	.st2{fill:#FFFFFF;}
</style>
<path id="Rounded_Rectangle_7_copy_1_" class="st0" d="M5.8,0h52.3C61.4,0,64,2.6,64,5.7v30.6c0,3.2-2.6,5.7-5.8,5.7H5.8
	C2.6,42,0,39.4,0,36.3V5.7C0,2.6,2.6,0,5.8,0z"/>
<path class="st0" d="M0,36.3C0,39.4,2.6,42,5.8,42h52.4c3.2,0,5.8-2.5,5.8-5.7v-6.8H0V36.3z"/>
<rect x="7.9" y="9.6" class="st1" width="47.8" height="22.8"/>
<path class="st2" d="M30.2,21c0-4.1,2.9-7.4,6.8-8.2c-0.5-0.1-1-0.1-1.6-0.1c-4.6,0-8.3,3.7-8.3,8.3s3.7,8.3,8.3,8.3
	c0.5,0,1.1-0.1,1.6-0.1C33.1,28.4,30.2,25.1,30.2,21z"/>
</svg>
