<?xml version="1.0" encoding="utf-8"?>
<!-- Generator: Adobe Illustrator 20.0.0, SVG Export Plug-In . SVG Version: 6.00 Build 0)  -->
<svg version="1.1" id="Layer_1" xmlns="http://www.w3.org/2000/svg" xmlns:xlink="http://www.w3.org/1999/xlink" x="0px" y="0px"
	 viewBox="0 0 64 42" style="enable-background:new 0 0 64 42;" xml:space="preserve">
<style type="text/css">
	.st0{fill:#47AECF;}
	.st1{fill:#57A863;}
	.st2{fill:#DC171C;}
	.st3{fill:none;}
	.st4{fill:#F2E20E;}
</style>
<path id="Rounded_Rectangle_7_copy" class="st0" d="M5.8,0h52.3C61.4,0,64,2.6,64,5.7v30.6c0,3.2-2.6,5.7-5.8,5.7H5.8
	C2.6,42,0,39.4,0,36.3V5.7C0,2.6,2.6,0,5.8,0z"/>
<path class="st1" d="M64,5.3v31.4c0-0.1,0-0.3,0-0.4V5.7C64,5.6,64,5.5,64,5.3z"/>
<path class="st2" d="M5.8,42h15.5V0H5.8C2.6,0,0,2.6,0,5.7v30.7C0,39.5,2.6,42.1,5.8,42z"/>
<path class="st2" d="M58.2,42H42.7V0h15.5C61.4,0,64,2.6,64,5.7v30.7C64,39.5,61.4,42.1,58.2,42z"/>
<rect x="31" y="22.1" class="st3" width="0.3" height="0.7"/>
<path class="st3" d="M30.5,22.9h0.3v-0.5c0-0.2,0.2-0.5,0.3-0.5c0.1,0,0.3,0.2,0.3,0.5V23h0.3v-1.4h-1.3L30.5,22.9L30.5,22.9z"/>
<rect x="33" y="23.3" class="st3" width="0.4" height="0.3"/>
<rect x="32.8" y="22.7" class="st3" width="0.4" height="0.3"/>
<rect x="32.4" y="22.2" class="st3" width="0.4" height="0.3"/>
<rect x="32.1" y="21.8" class="st3" width="0.4" height="0.3"/>
<g>
	<circle class="st4" cx="10.8" cy="15.6" r="3.7"/>
	<circle class="st2" cx="10.8" cy="14" r="4"/>
	<circle class="st4" cx="10.8" cy="14.6" r="2.7"/>
	<path class="st4" d="M9.1,9.6c0,0.9,0.8,1.7,1.7,1.7s1.7-0.8,1.7-1.7c0-0.7-0.4-0.8-0.4-1c0-0.3,0.3-0.6-0.3-1
		C12,8,11.6,8.1,11.6,8.5s0.2,0.4,0.2,0.8c0,0.2-0.2,0.3-0.3,0.3c-0.2,0-0.3-0.2-0.3-0.3c0-0.3,0.3-0.7,0.3-1.2S11.4,7.4,11.1,7
		c-0.3-0.4-0.7-0.8-0.3-1.1c-0.5,0.2-0.3,0.8-0.3,1.3s-0.3,0.7-0.3,1.2s0.3,0.6,0.3,0.9c0,0.2-0.2,0.3-0.3,0.3
		c-0.2,0-0.3-0.2-0.3-0.3c0-0.3,0.2-0.3,0.2-0.8S9.5,8,9.8,7.6C9.3,8,9.5,8.3,9.5,8.6C9.5,8.8,9.1,8.9,9.1,9.6z"/>
	<rect x="3.4" y="20" class="st4" width="3.4" height="16.1"/>
	<rect x="14.8" y="20" class="st4" width="3.4" height="16.1"/>
	<rect x="7.4" y="22.7" class="st4" width="6.7" height="1.3"/>
	<rect x="7.4" y="32.1" class="st4" width="6.7" height="1.3"/>
	<polygon class="st4" points="7.4,20 10.8,22 14.1,20 	"/>
	<polygon class="st4" points="7.4,34.1 10.8,36.1 14.1,34.1 	"/>
	<g>
		<circle class="st4" cx="10.8" cy="28" r="3.6"/>
		<path class="st3" d="M10.8,24.5c1,0,1.8,0.8,1.8,1.8s-0.8,1.8-1.8,1.8S9,28.8,9,29.8s0.8,1.8,1.8,1.8"/>
	</g>
	<circle class="st2" cx="10.8" cy="26.3" r="0.7"/>
	<circle class="st2" cx="10.8" cy="29.8" r="0.7"/>
</g>
</svg>
