<?xml version="1.0" encoding="utf-8"?>
<!-- Generator: Adobe Illustrator 20.1.0, SVG Export Plug-In . SVG Version: 6.00 Build 0)  -->
<svg version="1.1" id="Layer_1" xmlns="http://www.w3.org/2000/svg" xmlns:xlink="http://www.w3.org/1999/xlink" x="0px" y="0px"
	 viewBox="0 0 32 42" style="enable-background:new 0 0 32 42;" xml:space="preserve">
<style type="text/css">
	.st0{fill:#CD1126;}
	.st1{fill:#003386;}
	.st2{fill:#FFFFFF;}
</style>
<path class="st0" d="M5.8,41.5c-2.8,0-5.3-2.4-5.3-5.3V3.6c0-1.9,0.9-3,2.2-3c0.7,0,1.4,0.3,2.1,0.8L25,15.5
	c1.2,0.8,1.7,1.6,1.5,2.2s-1.1,0.9-2.5,0.9h-9.8c-1.4,0-2.3,0.4-2.7,1.1c-0.3,0.7,0,1.7,0.9,2.7l13.4,15.2c0.9,1,1.3,2,0.9,2.8
	c-0.3,0.8-1.3,1.2-2.7,1.2H5.8V41.5z"/>
<path class="st1" d="M2.7,1c0.5,0,1.2,0.3,1.8,0.7l20.2,14.1c1.2,0.8,1.4,1.4,1.3,1.6c-0.1,0.2-0.6,0.6-2,0.6h-9.8
	c-2.2,0-2.9,0.9-3.1,1.4c-0.4,0.9-0.1,2.1,1,3.2l13.4,15.2c0.8,0.9,1.1,1.7,0.8,2.2c-0.2,0.6-1.1,0.9-2.3,0.9H5.8
	C3.2,41,1,38.8,1,36.2V3.6C1,3,1.1,1,2.7,1 M2.7,0C1.1,0,0,1.4,0,3.6v32.7C0,39.4,2.6,42,5.8,42h18.3c1.6,0,2.8-0.5,3.2-1.5
	c0.4-0.9,0.1-2.1-1-3.3L12.8,22.1c-0.8-0.9-1.1-1.6-0.8-2.2c0.2-0.5,1-0.8,2.2-0.8H24c2.1,0,2.8-0.7,3-1.3c0.2-0.6,0-1.5-1.7-2.8
	L5.1,1C4.3,0.4,3.5,0,2.7,0L2.7,0z"/>
<path class="st2" d="M7.9,18.6c2.6,0,4.7-2.3,4.7-5.3c-0.4,1.2-1.1,2.2-2.2,2.8L10,15.8l0.8-0.7l-0.9-0.3l0,0l0.5-0.9L9.5,14
	l0.2-1.1l-0.9,0.6l0,0l-0.3-1.1l-0.6,0.9l-0.6-0.9L7,13.5l0,0l-0.9-0.6L6.4,14l-1-0.2l0.5,0.9l0,0l-1,0.3l0.8,0.7l0,0L5.3,16
	c-0.9-0.6-1.7-1.6-2.2-2.8C3.2,16.1,5.3,18.6,7.9,18.6z"/>
<polygon class="st2" points="11.4,30.2 11.4,30.2 13.2,29.3 11.4,28.6 11.4,28.6 12.6,26.8 10.5,27.1 10.8,25 9.1,26.3 9.1,26.3 
	8.4,24.4 7.6,26.3 7.6,26.3 5.9,25 6.2,27.1 4.2,26.8 5.4,28.6 5.4,28.6 3.5,29.3 5.4,30.2 5.4,30.2 4.2,31.8 6.2,31.6 5.9,33.6 
	7.6,32.4 7.6,32.4 8.4,34.3 9.1,32.4 9.1,32.4 10.8,33.6 10.5,31.6 12.6,31.8 "/>
</svg>
