<?xml version="1.0" encoding="utf-8"?>
<!-- Generator: Adobe Illustrator 20.0.0, SVG Export Plug-In . SVG Version: 6.00 Build 0)  -->
<svg version="1.1" id="Layer_1" xmlns="http://www.w3.org/2000/svg" xmlns:xlink="http://www.w3.org/1999/xlink" x="0px" y="0px"
	 viewBox="0 0 64 42" style="enable-background:new 0 0 64 42;" xml:space="preserve">
<style type="text/css">
	.st0{fill:#FFFFFF;}
	.st1{fill:#009141;}
	.st2{fill:#FC3D32;}
	.st3{fill:#FFFFFF;stroke:#FC3D32;stroke-width:0.25;}
</style>
<path id="Rounded_Rectangle_7_copy_2_" class="st0" d="M5.8,0h52.3C61.4,0,64,2.6,64,5.7v30.6c0,3.2-2.6,5.7-5.8,5.7H5.8
	C2.6,42,0,39.4,0,36.3V5.7C0,2.6,2.6,0,5.8,0z"/>
<path class="st1" d="M0,36.3C0,39.4,2.6,42,5.8,42h52.4c3.2,0,5.8-2.5,5.8-5.7V14H0V36.3z"/>
<rect y="14" class="st2" width="64" height="14"/>
<path class="st2" d="M5.8,0C2.6,0,0,2.6,0,5.7v30.6C0,39.4,2.6,42,5.8,42H20V0H5.8z"/>
<path class="st3" d="M14.9,12.4h-0.1c-0.7-0.6-1.6-1.4-2.8-2.5c-0.2-0.2-0.5-0.5-0.7-0.7c0-0.2,0.1-0.4,0.1-0.6V8.3
	c0.2-0.2,0.4-0.5,0.5-0.7H12v0.1c0,0.2,0.3,0.4,0.6,0.4s0.5-0.1,0.6-0.3h0.3V8c0,0.1,0.1,0.2,0.2,0.2H16c0.1,0,0.2-0.1,0.2-0.2V7
	c0-0.1-0.1-0.2-0.2-0.2h-2.3c-0.1,0-0.2,0.1-0.2,0.2v0.2h-0.3c0-0.2-0.3-0.3-0.6-0.3c0,0,0,0-0.1,0C14,4.3,15,2,14.8,1.9
	c-0.3-0.1-1.7,1.9-3.3,4.5h0.1c-0.1,0.1-0.2,0.2-0.3,0.4v0V6.4V6.1V5.8V5.5l0,0V5.3c-0.3,0-0.5-0.2-0.5-0.4h-0.1V4.5h-0.1V4.2l0,0
	V3.8h-0.1V3.3l0,0V3c0,0,0.1,0,0.1-0.1c0.1,0,0.2-0.1,0.2-0.1l0,0c0.1-0.1,0.1-0.1,0.2-0.2c0,0,0,0,0.1,0s0.2-0.1,0.2-0.2
	c0-0.1-0.1-0.2-0.2-0.2l0,0C11.1,2.1,11,2,10.9,2l0,0c-0.1,0-0.1-0.1-0.2-0.1c-0.1,0-0.1-0.1-0.2-0.1l0,0c0-0.1-0.1-0.2-0.2-0.2
	c-0.1,0-0.2,0.1-0.2,0.2l0,0c-0.1,0-0.1,0-0.2,0.1c0,0-0.1,0.1-0.2,0.1l0,0C9.6,2.1,9.6,2.2,9.5,2.3l0,0c-0.1,0-0.2,0.1-0.2,0.2
	c0,0.1,0.1,0.2,0.2,0.2c0,0,0,0,0.1,0c0,0.1,0.1,0.1,0.2,0.2l0,0c0,0,0.1,0,0.2,0.1c0,0,0,0,0.1,0v0.3l0,0v0.5H10v0.4l0,0v0.4H9.9V5
	H9.8c0,0.2-0.2,0.4-0.5,0.4v0.2v0.1v0.2v0.3v0.3v0.2c0,0.1,0,0.2,0,0.2C9.2,6.7,9.1,6.6,9,6.5h0.1C7.6,3.9,6.1,1.8,5.8,2
	C5.6,2,6.6,4.2,8.1,6.8l0,0C7.7,6.8,7.5,7,7.4,7.1H7.1V7c0-0.1-0.1-0.2-0.2-0.2H4.6c-0.2,0-0.3,0-0.3,0.2v1.1c0,0.1,0.1,0.2,0.2,0.2
	h2.3C6.9,8.3,7,8.2,7,8.1V7.8h0.4C7.5,7.9,7.8,8,8.1,8s0.5-0.1,0.6-0.3c0.1,0.1,0.2,0.1,0.2,0.1l0,0C9,8,9.1,8.1,9.3,8.3
	c0,0.2-0.1,0.3-0.1,0.4H8.8l0,0c-0.5,0-1.6,0-2.6,0.1l0,0H5.8l0,0C5.2,8.9,4.7,9.1,4.7,9.3S5.2,9.8,5.8,10l0,0l0.4,0.1l0,0
	c0.6,0.2,1.3,0.3,1.9,0.4c-0.9,0.9-1.6,1.5-2.2,2H5.8c-0.9,1-1.9,1.5-1.6,1.6c0.4,0.2,1.6-0.3,2.8-1.3l0,0c0.7-0.6,1.5-1.3,2.4-2.1
	c0.7,0,1.2-0.2,1.6-0.5c0,0,0.1,0.1,0.1,0.2c1,1,1.9,1.8,2.7,2.5l0,0c1.1,1.1,2.4,1.5,2.8,1.3C16.8,13.8,15.8,13.4,14.9,12.4z
	 M12.5,6.5L12.5,6.5L12.5,6.5L12.5,6.5z"/>
</svg>
