<?xml version="1.0" encoding="utf-8"?>
<!-- Generator: Adobe Illustrator 20.0.0, SVG Export Plug-In . SVG Version: 6.00 Build 0)  -->
<svg version="1.1" id="Layer_1" xmlns="http://www.w3.org/2000/svg" xmlns:xlink="http://www.w3.org/1999/xlink" x="0px" y="0px"
	 viewBox="0 0 64 42" style="enable-background:new 0 0 64 42;" xml:space="preserve">
<style type="text/css">
	.st0{fill:#006600;}
	.st1{fill:#57A863;}
	.st2{fill:#FFFFFF;}
	.st3{fill:none;}
</style>
<path id="Rounded_Rectangle_7_copy" class="st0" d="M5.8,0h52.3C61.4,0,64,2.6,64,5.7v30.6c0,3.2-2.6,5.7-5.8,5.7H5.8
	C2.6,42,0,39.4,0,36.3V5.7C0,2.6,2.6,0,5.8,0z"/>
<path class="st1" d="M64,5.3v31.4c0-0.1,0-0.3,0-0.4V5.7C64,5.6,64,5.5,64,5.3z"/>
<path class="st2" d="M5.8,42h15.5V0H5.8C2.6,0,0,2.6,0,5.7v30.7C0,39.5,2.6,42.1,5.8,42z"/>
<path class="st0" d="M58.2,42H42.7V0h15.5C61.4,0,64,2.6,64,5.7v30.7C64,39.5,61.4,42.1,58.2,42z"/>
<rect x="31" y="22.1" class="st3" width="0.3" height="0.7"/>
<path class="st3" d="M30.5,22.9h0.3v-0.5c0-0.2,0.2-0.5,0.3-0.5c0.1,0,0.3,0.2,0.3,0.5V23h0.3v-1.4h-1.3L30.5,22.9L30.5,22.9z"/>
<rect x="33" y="23.3" class="st3" width="0.4" height="0.3"/>
<rect x="32.4" y="22.2" class="st3" width="0.4" height="0.3"/>
<rect x="32.1" y="21.8" class="st3" width="0.4" height="0.3"/>
<path class="st2" d="M51.2,11l-7.9,4.8l9.3,0.7l-7.1-6.1l2.1,9.1L51.2,11z"/>
<path class="st2" d="M38.9,28.3c-5.4-3.5-7.1-10.8-4.5-17.6c-2.4,2.4-3.9,5.7-3.9,9.4c0,7.3,5.9,13.1,13.1,13.1
	c4.8,0,9.1-2.6,11.3-6.5C50.1,30.5,43.7,31.4,38.9,28.3z"/>
</svg>
