<?xml version="1.0" encoding="utf-8"?>
<!-- Generator: Adobe Illustrator 20.0.0, SVG Export Plug-In . SVG Version: 6.00 Build 0)  -->
<svg version="1.1" id="Layer_1" xmlns="http://www.w3.org/2000/svg" xmlns:xlink="http://www.w3.org/1999/xlink" x="0px" y="0px"
	 viewBox="0 0 64 42" style="enable-background:new 0 0 64 42;" xml:space="preserve">
<style type="text/css">
	.st0{fill:#CE1126;}
	.st1{fill:#FFFFFF;}
	.st2{fill:#007A3D;}
</style>
<path id="Rounded_Rectangle_7_copy_2_" class="st0" d="M5.8,0h52.3C61.4,0,64,2.6,64,5.7v30.6c0,3.2-2.6,5.7-5.8,5.7H5.8
	C2.6,42,0,39.4,0,36.3V5.7C0,2.6,2.6,0,5.8,0z"/>
<path d="M58.1,0H5.8C4.4,0,3.1,0.5,2.1,1.4c6.1,6.4,12.2,12.9,18.3,19.3C14.3,27.4,8.2,34,2.1,40.6c1,0.8,2.3,1.4,3.7,1.4h52.4
	c3.2,0,5.8-2.5,5.8-5.7V5.7C64,2.6,61.4,0,58.1,0z"/>
<path class="st1" d="M20.4,20.7C14.3,27.4,8.2,34,2.1,40.6c1,0.8,2.3,1.4,3.7,1.4h52.4c3.2,0,5.8-2.5,5.8-5.7V14H14
	C16.1,16.2,18.3,18.5,20.4,20.7z"/>
<path class="st2" d="M2.1,40.6c1,0.8,2.3,1.4,3.7,1.4h52.4c3.2,0,5.8-2.5,5.8-5.7V28H13.7C9.8,32.2,5.9,36.4,2.1,40.6z"/>
</svg>
