<?xml version="1.0" encoding="utf-8"?>
<!-- Generator: Adobe Illustrator 20.0.0, SVG Export Plug-In . SVG Version: 6.00 Build 0)  -->
<svg version="1.1" id="Layer_1" xmlns="http://www.w3.org/2000/svg" xmlns:xlink="http://www.w3.org/1999/xlink" x="0px" y="0px"
	 viewBox="0 0 64 42" style="enable-background:new 0 0 64 42;" xml:space="preserve">
<style type="text/css">
	.st0{fill:#CC1126;}
	.st1{fill:#0038A7;}
	.st2{fill:#FFFFFF;}
	.st3{fill:#57A863;}
	.st4{fill:#FACF16;}
</style>
<path class="st0" d="M58.1,0H5.8C2.6,0,0,2.6,0,5.7v30.6C0,39.4,2.6,42,5.8,42h52.4c3.2,0,5.8-2.5,5.8-5.7V5.7C64,2.6,61.4,0,58.1,0
	z"/>
<path class="st1" d="M58.1,0H5.8C2.6,0,0,2.6,0,5.7V21h64V5.7C64,2.6,61.4,0,58.1,0z"/>
<path class="st2" d="M1.9,40.5L28,21L1.9,1.5C0.7,2.5,0,4,0,5.7v30.6C0,38,0.7,39.5,1.9,40.5z"/>
<path class="st3" d="M64,5.3v31.4c0-0.1,0-0.3,0-0.4V5.7C64,5.6,64,5.5,64,5.3z"/>
<g>
	<path class="st4" d="M15.8,21.3l0.3-0.3l-0.3-0.3l-2.6,0.2c0-0.1,0-0.1,0-0.2l2.4-0.3l-0.3-0.3l-2.1,0.4c-0.1-0.3-0.2-0.7-0.4-1
		l1.8-1.2v-0.4l-1.9,1.5l-0.1-0.1l2-1.7V17H14l-1.7,2l-0.1-0.1l1.5-1.9h-0.4L12,18.8c-0.3-0.2-0.6-0.3-1-0.4l0.4-2.1L11.2,16
		l-0.3,2.4c-0.1,0-0.1,0-0.2,0l0.2-2.6l-0.3-0.3l-0.3,0.3l0.2,2.6c-0.1,0-0.1,0-0.2,0L9.9,16l-0.3,0.3l0.4,2.1
		c-0.3,0.1-0.7,0.2-1,0.4L7.8,17H7.4l1.5,1.9L8.8,19L7,17H6.6v0.5l2,1.7l-0.1,0.1l-1.9-1.5v0.4l1.8,1.2c-0.2,0.3-0.3,0.6-0.4,1
		L5.9,20l-0.3,0.3L8,20.6c0,0.1,0,0.1,0,0.2l-2.6-0.2L4.9,21l0.3,0.3l2.6-0.2c0,0.1,0,0.1,0,0.2l-2.4,0.3l0.3,0.3l2.1-0.4
		c0.1,0.3,0.2,0.7,0.4,1l-1.8,1.2v0.4l1.9-1.5l0.1,0.1l-2,1.7V25H7l1.7-2l0.1,0.1L7.4,25h0.4L9,23.2c0.3,0.2,0.6,0.3,1,0.4l-0.4,2.1
		L9.9,26l0.3-2.4c0.1,0,0.1,0,0.2,0l-0.2,2.6l0.3,0.3l0.3-0.3l-0.2-2.6c0.1,0,0.1,0,0.2,0l0.3,2.4l0.3-0.3L11,23.6
		c0.3-0.1,0.7-0.2,1-0.4l1.2,1.8h0.4l-1.5-1.9l0.1-0.1l1.7,2h0.5v-0.5l-2-1.7l0.1-0.1l1.9,1.5v-0.4l-1.8-1.2c0.2-0.3,0.3-0.6,0.4-1
		l2.1,0.4l0.3-0.3L13,21.4c0-0.1,0-0.1,0-0.2L15.8,21.3z"/>
	<polygon class="st4" points="21.6,20.7 21.6,19.6 20.9,20.4 19.9,20.1 20.5,21 19.9,21.9 20.9,21.6 21.6,22.4 21.6,21.3 22.6,21 	
		"/>
	<polygon class="st4" points="5.7,30.1 4.6,30.2 4.2,29.2 3.9,30.3 2.9,30.4 3.8,30.9 3.6,32 4.4,31.3 5.3,31.8 4.9,30.8 	"/>
	<polygon class="st4" points="4.9,11.2 5.3,10.2 4.4,10.7 3.6,10 3.8,11.1 2.9,11.6 3.9,11.7 4.2,12.8 4.6,11.8 5.7,11.9 	"/>
</g>
</svg>
