<?xml version="1.0" encoding="utf-8"?>
<!-- Generator: Adobe Illustrator 20.0.0, SVG Export Plug-In . SVG Version: 6.00 Build 0)  -->
<svg version="1.1" id="Layer_1" xmlns="http://www.w3.org/2000/svg" xmlns:xlink="http://www.w3.org/1999/xlink" x="0px" y="0px"
	 viewBox="0 0 64 42" style="enable-background:new 0 0 64 42;" xml:space="preserve">
<style type="text/css">
	.st0{fill:#009530;}
	.st1{fill:#FFFFFF;}
</style>
<path id="Rounded_Rectangle_7_copy_1_" class="st0" d="M5.8,0h52.3C61.4,0,64,2.6,64,5.7v30.6c0,3.2-2.6,5.7-5.8,5.7H5.8
	C2.6,42,0,39.4,0,36.3V5.7C0,2.6,2.6,0,5.8,0z"/>
<path class="st1" d="M27.4,9c0,0-0.1,0-0.2,0.1C27,9.2,26.7,9.6,26.7,10c0,0.2-0.1,0.2,0.1,0.4c0.1,0.2,0.2,0.1,0.4,0
	c0.1-0.1,0.2-0.1,0.2-0.3c0.1-0.3-0.3,0.1-0.3-0.2c-0.1-0.3,0.1-0.4,0.3-0.6C27.5,9.1,27.5,9,27.4,9L27.4,9z M30.6,9
	c-0.1,0-0.1,0.1-0.2,0.3s-0.4,0.5-0.2,1.1c0.2,0.4,0.3,1,0.2,1.7c-0.1,0.2-0.2,0.3-0.3,0.5c-0.2,0.3-0.5,0.2-0.7,0.1
	c-0.2-0.1-0.3-0.2-0.4-0.6c0-0.6,0.1-1.7-0.1-1.9c-0.2-0.3-0.4-0.2-0.6-0.1c-0.6,0.5-0.9,1.4-1,2.1c-0.2,0.5-0.3,0.4-0.4,0.2
	c-0.3-0.3-0.3-2.4-0.7-2c-0.6,1.6,0.3,3.4,0.9,3.2c0.4,0.2,0.7-0.7,0.9-1.6c0.1-0.3,0.2-0.3,0.3-0.2c0,1.2,0.1,1.5,0.4,1.9
	c0.7,0.5,1.3,0.1,1.3,0l0.5-0.5c0.1-0.1,0.3-0.1,0.5,0c0.2,0.2,0.1,0.4,0.5,0.6c0.3,0.1,0.9,0,1.1-0.2c0.2-0.3,0.2-0.5,0.3-0.6
	c0.1-0.2,0.4-0.1,0.4,0s-0.2,0.2-0.1,0.4c0.2,0.1,0.2,0,0.3,0c0.4-0.2,0.6-0.9,0.6-0.9c0-0.3-0.1-0.3-0.3-0.2
	c-0.1,0.1-0.1,0.1-0.3,0.2c-0.2,0-0.5,0.1-0.7-0.1c-0.2-0.3-0.2-0.7-0.3-1.1c0,0-0.2-0.5,0-0.5c0.1,0,0.3,0.1,0.4-0.1
	c0.1-0.2-0.2-0.7-0.5-1c-0.2-0.2-0.5-0.3-0.8,0c-0.2,0.2-0.2,0.4-0.2,0.6c0,0.2,0,0.5,0.2,0.8c0.2,0.4,0.5,0.9,0.4,1.6
	c0,0-0.2,0.3-0.6,0.3c-0.2,0-0.4-0.1-0.5-1.1c-0.1-0.7,0-1.7-0.3-2.2C30.7,9.1,30.7,9,30.6,9L30.6,9z M29.6,9.1
	c-0.1,0-0.2,0.1-0.3,0.3c-0.1,0.2-0.2,1-0.1,1c-0.1,0.2,0.3,0.4,0.4,0c0.2-0.6,0.2-0.8,0.2-1.1C29.7,9.1,29.7,9.1,29.6,9.1L29.6,9.1
	z M33.2,9.1c-0.1,0-0.2,0.1-0.2,0.2c0,0.3,0,0.5,0,0.8c0,0.2,0.3,0.5,0.4,0.7c0.6,0.9,1.2,1.7,1.8,2.6c0.1,0.7,0.2,1.3,0.2,1.9
	c0.1,1.4,0.1,3.2,0,4.6c0.3,0,0.7-0.4,0.8-1.1c0.1-0.9,0-2.7,0-3.2c0-0.2,0-0.5,0-0.7c0.7,1.1,1.3,2.3,2,3.6c0.2-0.1,0.2-1.5,0-1.6
	c-0.5-1.1-1.2-2.2-1.5-2.7c-0.1-0.2-0.4-0.6-0.7-1.1c-0.1-0.7-0.1-1.3-0.2-1.5c-0.1-0.7,0.3,0.1,0.2-0.4c-0.1-0.7-0.5-1.3-1-1.9
	c-0.2-0.2-0.2-0.3-0.4,0.1c-0.1,0.3-0.1,0.6-0.1,0.9c-0.1-0.1-0.1-0.2-0.3-0.3c-0.4-0.4-0.4-0.4-0.8-0.7C33.6,9.2,33.4,9.1,33.2,9.1
	L33.2,9.1z M44.1,9.2c0,0-0.1,0-0.2,0.1c-0.1,0.1-0.2,0.3-0.2,0.5c0,0.4,0.1,0.8,0.1,1.2c0,0.1,0,0.1,0,0.2c0-0.1-0.1-0.1-0.1-0.1
	c-0.8-0.8,0.4-0.1-0.1-0.8c-0.4-0.5-0.5-0.6-0.9-0.9c-0.2-0.1-0.3-0.3-0.4,0c0,0.3,0,0.7,0,1c0,0.2,0.2,0.5,0.3,0.6
	c0.5,0.6,1,1.3,1.6,2c0.1,1.4,0.1,2.7,0.3,4.2c0,0.6-0.2,1.4-0.4,1.5c0,0-0.3,0.2-0.5,0c-0.1-0.1-0.7-0.9-0.7-0.9
	c-0.3-0.2-0.5-0.2-0.6,0c-0.5,0.5-0.8,1.5-1.1,2.1c-0.1,0.1-0.4,0.3-0.6,0c-0.7-1-0.3-2.4-0.4-2.1c-0.7,0.7-0.4,2-0.2,2.2
	c0.2,0.4,0.4,0.7,0.8,0.9c0.4,0.3,0.7,0.1,0.9-0.1c0.4-0.4,0.4-1.4,0.6-1.6c0.1-0.4,0.4-0.3,0.6-0.1c0.2,0.2,0.3,0.4,0.6,0.5
	c0.4,0.3,0.8,0.4,1.2,0.1c0.3-0.2,0.5-0.4,0.6-0.8c0.2-0.5,0.1-3,0.1-4.5c0.3,0.4,0.5,0.8,0.8,1.2c0.1,1.2,0.2,2.5,0.1,3.7
	c0,0.2,0.8-0.7,0.8-1.1s0-0.7,0-1.1c0.4,0.7,0.8,1.3,1.2,2c0.2-0.1,0.2-1.4,0-1.6c-0.4-0.7-0.9-1.4-1.3-1.9
	c-0.1-0.7-0.2-1.5-0.2-1.8c-0.1-0.4-0.1-1-0.3-1.4c0-0.2-0.1-0.8-0.1-0.8c0-0.1,0.2,0,0.3-0.1s-0.4-1.6-0.7-2
	c-0.1-0.2-0.3-0.1-0.5,0.2c-0.2,0.2-0.1,0.7-0.1,1.1c0.2,1.1,0.4,2.3,0.6,3.4c-0.3-0.4-0.6-0.9-1-1.4v-0.2c0,0,0-0.9-0.1-1.1
	c0-0.1,0-0.1,0.1-0.1c0.1,0.1,0.1,0.1,0.2,0.1c0.1,0,0.2-0.1,0.1-0.3c-0.3-0.6-0.6-1.1-0.9-1.7C44.2,9.3,44.1,9.2,44.1,9.2L44.1,9.2
	z M16.1,9.3c-0.2,0-0.4,0.1-0.3,0.3c0,0.1,0.3,0.5,0.4,0.7c0.1,0.1-0.1,0.6,0.1,0.7c0.1,0,0.3-0.3,0.3-0.7
	C16.6,10,16.6,9.4,16.1,9.3L16.1,9.3L16.1,9.3z M48,9.3c0,0-0.1,0.1-0.2,0.2c-0.2,0.3-0.2,0.8-0.2,1.2c0.4,2.8,0.7,5.5,0.8,7.9
	c0,0.2,0,0.4-0.2,0.7c-0.2,0.3-0.5,0.7-0.8,0.9c-0.3,0.2-0.8,0.4-1,0.5c-0.4,0.3-0.4,0.7,0,0.7c0.8-0.1,1.7-0.2,2.3-1.1
	c0.2-0.3,0.4-1,0.4-1.4c0.1-2.6,0-5.1-0.4-7c0-0.2-0.1-0.6-0.1-0.7c0.1-0.1,0.3,0,0.4-0.1c0.1-0.1-0.7-1.1-0.9-1.6
	C48.1,9.4,48,9.3,48,9.3L48,9.3z M39.9,9.3c0,0-0.1,0.1-0.2,0.2c-0.2,0.7-0.3,1.3-0.2,1.7c0.6,2.9,1.1,5.5,1,8.3
	c0.3,0,0.6-0.6,0.7-1.2c0.1-0.8,0-1.3-0.1-1.8c0-0.5-0.5-4.4-0.7-4.8c-0.1-0.7,0.5-0.1,0.4-0.5c-0.2-0.5-0.8-1.2-0.9-1.7
	C39.9,9.4,39.9,9.3,39.9,9.3L39.9,9.3z M20.1,9.4c-0.1,0-0.1,0.1-0.2,0.2c0,0.1,0,0.2,0,0.2s-0.2,0-0.1-0.2c0-0.1,0-0.1-0.1-0.1
	c0,0,0,0-0.1,0s-0.1,0-0.1,0.1v0.1c0,0.1,0,0.1-0.1,0.1c0,0,0,0-0.1,0c0,0-0.1,0-0.1-0.1V9.6c0,0-0.1,0-0.1-0.1
	C19,9.4,19,9.6,19,9.7c0,0,0,0.4,0.3,0.6c0.4,0.2,1.1,0.1,1.1-0.5c0-0.1,0-0.2,0-0.3C20.2,9.4,20.2,9.4,20.1,9.4L20.1,9.4z
	 M25.2,9.4c-0.1,0-0.2,0-0.3,0.1c-0.3,0.2-0.3,0.6-0.1,0.9c0.2,0.1,0.4,0.3,0.3,0.4c-0.5,0.6-2,1.5-2,1.7l0,0l0,0l0,0l0,0l0,0l0,0
	l0,0l0,0l0,0c0.1,0,1,0,1.1,0l0,0l0,0l0,0c0.3-0.1,1.7-1.8,1.7-1.8c-0.1-0.1-0.1-0.1-0.2-0.2c-0.1-0.1-0.1-0.1,0-0.2
	c0.4-0.2,0.2-0.7,0.1-0.9C25.4,9.4,25.3,9.4,25.2,9.4L25.2,9.4z M38.4,9.4c0,0-0.1,0.1-0.2,0.2c-0.2,0.3-0.3,0.8-0.3,1.2
	c0.4,2.6,0.5,4.8,0.7,7.4c0,0.2,0,0.6-0.2,0.7c-0.6,0.6-1.5,1.4-2.4,1.8c-0.1,0.1,0.3,0.6,0.7,0.6c0.8-0.1,1.5-0.5,2.1-1.7
	c0.2-0.3,0.5-0.8,0.5-1.3c0.1-2.6-0.1-4.6-0.5-6.5c0-0.2,0-0.4,0-0.5c0.1-0.1,0.2,0,0.3-0.1S38.7,9.9,38.4,9.4
	C38.5,9.5,38.5,9.4,38.4,9.4L38.4,9.4z M17.9,9.5c-0.1,0-0.2,0.1-0.3,0.2c0,0.4,0,0.8,0,1.2c0.2,0.7,0.2,1.2,0.3,1.9
	c0,0.9-0.5,0.4-0.5-0.1c0.1-0.6,0.1-1.5,0-1.7s-0.2-0.3-0.4-0.3c-0.2,0-0.6,0.5-0.7,1.3c0,0-0.1,0.4-0.1,0.8
	c-0.1,0.4-0.3,0.7-0.5-0.1c-0.2-0.6-0.3-1.9-0.5-1.6c-0.1,1.1-0.2,3,0.7,3.2c1.1,0.1,0.5-1.9,0.9-2.2c0.1-0.2,0.2-0.2,0.2,0v1.7
	c0,0.5,0.3,0.7,0.6,0.8c0.3,0,0.5,0,0.6,0.3c0,1,0.1,1.9,0.1,2.9c0,0,0.7,0.2,0.7-1.6c0-1.1-0.2-2-0.1-2.2c0-0.2,0.3-0.2,0.4-0.1
	c0.3,0.2,0.4,0.5,0.9,0.4c0.7-0.2,1.1-0.5,1.1-1s-0.1-1-0.3-1.5c0-0.1-0.1-0.3-0.1-0.4c0.1,0.2,0.3,0.2,0.4,0
	c-0.1-0.4-0.3-0.7-0.6-0.9c-0.2-0.2-0.6-0.2-0.7,0.3s0.2,1.1,0.6,1.6c0.1,0.2,0.2,0.5,0.1,0.8c-0.2,0.1-0.4,0.1-0.6-0.1
	c0,0-0.5-0.4-0.5-0.5c0.1-0.9,0-1,0-1.3c-0.1-0.4-0.2-0.5-0.4-0.7c-0.1-0.1-0.3-0.1-0.4,0c-0.2,0.4-0.1,1.3,0,1.7s0.3,0.6,0.2,0.6
	c-0.1,0.2-0.2,0.2-0.3-0.1c-0.2-0.5-0.2-1.2-0.2-1.6c0-0.4-0.1-1.3-0.4-1.5C18,9.5,18,9.4,17.9,9.5L17.9,9.5z M21.8,9.5
	c-0.1,0-0.1,0-0.2,0.1c-0.2,0.1-0.5,0.3-0.4,0.7c0.3,1.7,0.5,3,0.7,4.7c0,0.2-0.1,0.5-0.3,0.4c-0.4-0.2-0.5-0.7-1.1-0.7
	c-0.4,0-1,0.5-1,1c-0.1,0.4-0.1,0.8,0,1.1c0.3,0.4,0.7,0.3,1,0.3c0.3-0.1,0.5-0.4,0.6-0.3l0,0l0,0c0.1,0.1,0,1-1.3,1.7
	c-0.8,0.4-1.4,0.4-1.7-0.2c-0.2-0.4,0-1.9-0.5-1.6c-1.5,3.9,3.5,4.4,4.1,0.2c0-0.1,0.1-0.2,0.2-0.2l0.1,0.1
	c-0.1,3.9-3.9,4.1-4.6,2.9c-0.2-0.3-0.2-0.9-0.2-1.3c0-0.2-0.1-0.4-0.2-0.4c-0.2-0.1-0.4,0.2-0.4,0.7c-0.1,0.4,0,0.5,0,0.9
	c0.2,3.1,5.1,1.7,5.9-0.8c0.4-1.3,0-2.3,0.1-2.4l0,0l0,0l0,0l0,0c0.5,0.5,1.2,0.1,1.3-0.1c0.1-0.1,0.2-0.1,0.3,0
	c0.4,0.3,1,0.1,1.2-0.3c0.1-0.5,0.1-1,0.2-1.5c-0.2,0.1-0.4,0.1-0.5,0.2c0,0,0,0,0,0.1s0,0.3-0.1,0.4l0,0l0,0c-0.1,0-0.2,0-0.2-0.1
	c-0.1-0.5-0.6-0.6-0.9,0.2c-0.2,0.2-0.6,0.2-0.6,0c0-0.6-0.2-0.6-0.6-0.4c-0.1-1.1-0.3-2.1-0.4-3.2c0.2,0,0.4,0.1,0.5-0.1
	C22.6,11,22.2,9.9,22,9.7l0,0l0,0l0,0C21.9,9.5,21.8,9.5,21.8,9.5L21.8,9.5L21.8,9.5L21.8,9.5z M36.9,9.5c-0.2,0-0.4,0.1-0.3,0.4
	c0,0.1,0.4,0.6,0.5,0.8c0.1,0.4-0.1,0.7,0,0.8s0.3-0.4,0.4-0.8C37.5,10.3,37.3,9.6,36.9,9.5L36.9,9.5L36.9,9.5z M25.1,9.9
	c0.1,0,0.2,0.1,0.2,0.2c0.1,0.1,0,0.2-0.1,0.3c-0.1,0-0.2-0.1-0.3-0.2C25,10,25,9.9,25.1,9.9L25.1,9.9z M46.9,10.5
	c-0.2,0-0.4,0.1-0.3,0.4c0,0.1,0.4,0.6,0.4,0.9c0.1,0.2-0.1,0.8,0,0.9c0.1,0.1,0.3-0.4,0.3-0.9C47.5,11.5,47.3,10.6,46.9,10.5
	C47,10.5,47,10.5,46.9,10.5L46.9,10.5z M34.9,10.7c0,0.1,0,0.1,0,0.2c0,0.2,0.1,0.3,0.1,0.5c-0.1-0.2-0.3-0.3-0.3-0.4
	C34.4,10.7,34.7,10.8,34.9,10.7L34.9,10.7z M37.6,12.1c-0.1,0-0.1,0.1-0.2,0.2c0,0.1,0,0.2,0,0.2s-0.2,0-0.1-0.2
	c0-0.1,0-0.1-0.1-0.1c0,0,0,0-0.1,0s-0.1,0-0.1,0.1v0.1c0,0.1,0,0.1-0.1,0.1c0,0,0,0-0.1,0c0,0-0.1,0-0.1-0.1v-0.1h-0.1
	c-0.2,0-0.2,0.2-0.2,0.3c0,0,0,0.4,0.3,0.6c0.4,0.2,1.1,0.1,1.1-0.5c0-0.1,0-0.2,0-0.3C37.8,12.1,37.7,12.1,37.6,12.1L37.6,12.1z
	 M24.9,12.2c0,0-0.1,0-0.2,0.1c-0.3,0.2-0.5,0.7-0.3,1s0.5,0.2,0.5,0.2c0.3,0,0.5-0.6,0.5-0.6s0-0.2-0.4,0.2c-0.2,0-0.2,0-0.2-0.1
	c0-0.2,0-0.3,0.1-0.5C25.1,12.3,25,12.3,24.9,12.2L24.9,12.2z M42.9,12.3c-0.2,0-0.4,0.1-0.4,0.4c0,0.1,0.1,0.2,0.1,0.4
	c0,0.1-0.1,0.1-0.3,0l-0.1-0.2c-0.1-0.1-0.3,0-0.5,0.1c-0.1,0.1-0.1,0.4,0,0.6c0.2,0.4,0.9,1.1,1.3,1.1c0-0.4,0-0.8,0.1-1.1
	c0-0.1,0-0.2,0.1-0.3c0.1,0,0.3,0.1,0.3,0c0-0.2-0.1-0.6-0.2-0.7C43.1,12.4,43,12.3,42.9,12.3L42.9,12.3z M28,13.6L28,13.6L28,13.6
	c-0.1,0-0.1,0.1-0.2,0.2c-0.2,0.2-0.2,0.3-0.2,0.7c0,0,0.3,0.9,0.6,1.5c0.2,0.6,0.3,1.3,0.2,2c-0.4,0.9-1.2,1.7-2,2.1
	c-0.4,0.1-0.7,0.1-0.8,0l0,0c-0.2-0.2-0.2-0.4-0.2-0.5l0,0l0,0c0.7-0.5,1.4-0.8,2-2.1c0.2-0.5,0.2-0.8,0.1-1.5
	c-0.1-0.3-0.2-0.5-0.3-0.7l0,0c0.1-0.1,0.4,0.2,0.5,0c-0.1-0.4-0.3-0.8-0.6-1.1c-0.2-0.2-0.5-0.2-0.7,0c-0.2,0.1-0.3,0.6-0.2,1
	c0.1,0.3,0.5,0.4,0.7,1l0,0c0,0,0.1,0.5,0,0.7c-0.1,0.3-1.4,1.4-1.5,1.4l0,0l0,0l0,0l0,0l0,0l0,0l0,0l0,0l0,0c0,0,0-0.1,0-0.2
	c0-0.2,0.1-0.6,0.1-0.7l0,0l0,0l0,0l0,0c-0.4,0.3-0.6,1.1-0.7,1.4c-1.1,0.8-2.4,1.3-3.1,2.1c-0.4,0.6,2.6-0.7,2.9-0.8l0,0
	c0.1,0.1,0.1,0.3,0.3,0.5c0.3,0.4,1,0.7,1.6,0.5c1.1-0.4,1.7-1.1,2.3-1.9c0.1-0.1,0.2-0.2,0.4-0.1c0.4,1,1.7,1.6,3.3,1.7
	c0.4-0.5,0.2-0.7,0-0.8c0,0-0.8-0.3-0.9-0.6c-0.1-0.3,0.1-0.5,0.5-0.7c1-0.1,2-0.3,3-0.6c0-0.3,0.2-0.8,0.3-1
	c0.1-0.1,0.1-0.2,0.2-0.2l0,0l0,0l0,0l0,0l0,0l-0.2-0.1h-3.3H32l0,0l0,0l0,0l0,0l0,0l0,0l0,0l0,0l0,0l0,0l0,0l0,0l0,0l0,0l0,0l0,0
	l0,0c0,0,0.1,0,0.1-0.1c0.8-0.1,2.2-0.3,2.3-1.7c0-0.7-0.3-1.2-1.2-1.3c-0.6,0-1.1,0.7-1,1.3c0,0.2,0.1,0.5-0.1,0.6
	c-1.2,0.1-2.5,0.9-2.6,1.4l0,0l0,0l0,0l0,0l0,0l0,0l0,0l0,0l0,0l0,0c-0.1,0-0.2-0.2-0.2-0.3c0-0.9-0.4-2-0.8-2.8
	C28.2,13.6,28.1,13.6,28,13.6C28.1,13.6,28,13.6,28,13.6L28,13.6L28,13.6L28,13.6L28,13.6L28,13.6z M31.2,14.1
	c-0.1,0-0.1,0.1-0.2,0.2c0,0.1,0,0.2,0,0.2s-0.2,0-0.1-0.2c0-0.1,0-0.1-0.1-0.1c0,0,0,0-0.1,0s-0.1,0-0.1,0.1v0.1
	c0,0.1,0,0.1-0.1,0.1c0,0,0,0-0.1,0c0,0-0.1,0-0.1-0.1v-0.1h-0.1c-0.2,0-0.2,0.2-0.2,0.3c0,0,0,0.4,0.3,0.6c0.4,0.2,1.3,0.1,1.1-0.5
	c0-0.1,0-0.2,0-0.3C31.3,14.1,31.2,14,31.2,14.1L31.2,14.1z M43.9,14.6C43.8,14.6,43.8,14.6,43.9,14.6c0,0-1.8,1.2-1.8,1.3
	c-0.2,0.2-0.1,0.7,0,0.6c0.1,0,1.9-1.1,1.9-1.3C44,15.2,44,14.6,43.9,14.6L43.9,14.6z M32.8,14.8c0.1,0,0.2,0,0.3,0.1
	s0.2,0.2,0.2,0.3l0,0l0,0l0,0l0,0l0,0l0,0c-0.1,0.1-0.2,0.1-0.3,0s-0.2-0.2-0.2-0.3l0,0l0,0l0,0C32.7,14.8,32.7,14.8,32.8,14.8
	C32.7,14.8,32.7,14.8,32.8,14.8L32.8,14.8L32.8,14.8z M17.5,15.1c-0.9,0-2.2,1.2-2.3,1.8c1-0.5,1.9-0.9,2.9-1.4
	C17.9,15.3,18.1,15.1,17.5,15.1L17.5,15.1z M20.4,15.5c0.1,0,0.2,0,0.2,0.2c0,0.1,0,0.2-0.1,0.3l0,0l0,0c0,0-0.2,0-0.3,0
	c-0.1,0-0.2,0-0.2-0.1s0.1-0.2,0.1-0.3l0,0l0,0C20.3,15.5,20.3,15.5,20.4,15.5L20.4,15.5L20.4,15.5z M43.5,15.8
	c-0.2,0-0.3,0.2-0.2,0.4c0,0.1,0.2,0.6,0.3,0.9c0.1,0.2-0.1,0.7,0,0.8c0.1,0.1,0.4-0.3,0.4-0.8C44,16.9,43.9,15.9,43.5,15.8
	C43.6,15.8,43.6,15.8,43.5,15.8L43.5,15.8z M23.9,16.7c-0.1,0-0.3,0.1-0.2,0.3c0,0.1,0.4,0.3,0.4,0.7c0.1,0.1-0.1,0.6,0,0.6
	s0.3-0.3,0.3-0.6c0-0.2-0.1-0.8-0.4-0.9C24,16.7,24,16.7,23.9,16.7L23.9,16.7z M29.8,17.5L29.8,17.5L29.8,17.5
	c0.4,0.1,0.9,0.1,1.4,0.2c0.4,0,0.6,0.3,0.2,0.4s-0.7,0.2-0.7,0.7c0,0.3,0,0.4,0,0.4l0,0l0,0l0,0l0,0l0,0l0,0l0,0l0,0
	c-0.1,0-0.2-0.1-0.3-0.1c-0.2-0.2-0.8-0.5-0.9-1.3C29.4,17.7,29.6,17.6,29.8,17.5L29.8,17.5z M15.4,18.2l-0.1,0.1
	c-0.5,0.9-0.6,2.1-0.3,2.5c0.2,0.2,0.4,0.3,0.6,0.2c0.3-0.1,0.5-0.8,0.4-1.1c-0.1-0.2-0.2-0.2-0.3-0.1c-0.2,0.5-0.3,0.2-0.4-0.1
	c0-0.5,0-1,0.1-1.4C15.5,18.2,15.5,18.2,15.4,18.2L15.4,18.2z M33.8,19.3L33.8,19.3c-0.1,0-0.5,0.3-0.6,0.4s-0.1,0.1,0,0.2
	s0.2,0.1,0.3,0c0.2,0,0.2,0.1,0.2,0.3c-0.1,0.2,0,0.3,0,0.3s0.1,0.1,0.3,0c0.4-0.1,0.6-0.3,1.1-0.4c0.1,0,0.1-0.4-0.1-0.4
	c-0.3,0-0.5,0-0.8,0.2C34,20.1,34,20,34,19.9c0-0.2,0.1-0.4,0.1-0.6C34.1,19.4,34,19.3,33.8,19.3L33.8,19.3z M45.6,19.7
	c-0.1,0-0.1,0-0.2,0c-0.1,0-0.2,0.1-0.2,0.2c0,0.2,0.1,0.2,0.3,0.3c0.1,0.1,0.1,0.2,0,0.3c-0.1,0.1-0.2,0.2-0.3,0.3
	c-0.1,0.1-0.1,0.3,0.1,0.3c0.3,0.1,1.1-0.4,1.1-0.4c0.1-0.1,0.1-0.3,0.1-0.3c-0.1-0.1-0.2,0-0.3,0s-0.2,0-0.1-0.2
	C46,20.2,46,20.1,46,20c0.1-0.1,0-0.2-0.2-0.2C45.8,19.7,45.7,19.7,45.6,19.7L45.6,19.7z M40.7,29.7L40.7,29.7
	c-0.5,0.1-0.5,0.7-0.2,1c-5.8,0-14.6-0.1-16.5-0.1c-1.1,0-4.4-0.1-4.5-0.1c0.7,1.1,1.8,1.3,3.1,1.3c2.6,0,14.4,0,17.8,0
	c-0.2,0.4,0,1.1,0.2,1.2l0,0l0,0l0,0c0.2,0.1,0.3-0.1,0.4-0.2c0.4,0,2.4,0.1,2.6,0l0,0c0.1,0.2,0.3,0.4,0.5,0.3
	c0.4-0.1,0.8-0.1,0.8-1c0,0,0-1.5-1-1.4c-0.2,0-0.9,0.1-0.9,0.1c-0.7-0.1-1.3-0.1-2.1-0.1c0.1-0.1,0.2-0.5,0-0.6c0,0-0.1-0.1-0.2,0
	l0,0l0,0l0,0l0,0l0,0l0,0C40.8,29.9,40.7,29.7,40.7,29.7L40.7,29.7L40.7,29.7L40.7,29.7L40.7,29.7L40.7,29.7L40.7,29.7z M41.1,31.8
	L41.1,31.8c0.8,0,1.6,0,2.5,0c0.1,0.1,0.1,0.4,0,0.4l0,0l0,0l0,0c-0.3,0-0.4,0-0.7,0l0,0c-0.1-0.2-0.5-0.2-0.6,0l0,0l0,0l0,0l0,0
	l0,0c-0.4,0-0.7,0-1.1,0C41,32.1,41,31.8,41.1,31.8L41.1,31.8z"/>
</svg>
