<?xml version="1.0" encoding="utf-8"?>
<!-- Generator: Adobe Illustrator 20.0.0, SVG Export Plug-In . SVG Version: 6.00 Build 0)  -->
<svg version="1.1" id="Layer_1" xmlns="http://www.w3.org/2000/svg" xmlns:xlink="http://www.w3.org/1999/xlink" x="0px" y="0px"
	 viewBox="0 0 64 42" style="enable-background:new 0 0 64 42;" xml:space="preserve">
<style type="text/css">
	.st0{fill:#F42A41;}
	.st1{fill:#FFFFFF;}
</style>
<path id="Rounded_Rectangle_7_copy" class="st0" d="M5.8,0h52.3C61.4,0,64,2.6,64,5.7v30.6c0,3.2-2.6,5.7-5.8,5.7H5.8
	C2.6,42,0,39.4,0,36.3V5.7C0,2.6,2.6,0,5.8,0z"/>
<path class="st1" d="M0,36.3C0,39.4,2.6,42,5.8,42h52.4c3.2,0,5.8-2.5,5.8-5.7V21H0V36.3z"/>
<g>
	<path class="st1" d="M9.2,10.8c0-4.3,3.4-7.9,7.7-8c-0.9-0.3-1.8-0.5-2.8-0.5c-4.7,0-8.5,3.8-8.5,8.5s3.8,8.5,8.5,8.5
		c1,0,1.9-0.2,2.8-0.5C12.6,18.6,9.2,15.1,9.2,10.8z"/>
	<g>
		<polygon class="st1" points="14,10.1 15.1,11 14.7,9.5 15.9,8.6 14.4,8.6 14,7.2 13.5,8.6 12.1,8.6 13.3,9.5 12.8,11 		"/>
		<polygon class="st1" points="25,8.6 23.5,8.6 23.1,7.2 22.6,8.6 21.2,8.6 22.4,9.5 21.9,11 23.1,10.1 24.2,11 23.8,9.5 		"/>
		<polygon class="st1" points="19.2,6.1 20.4,5.3 19,5.3 18.5,3.8 18.1,5.3 16.7,5.3 17.8,6.1 17.4,7.6 18.5,6.7 19.7,7.6 		"/>
		<polygon class="st1" points="16.1,14 15.7,12.6 15.2,14 13.8,14 15,14.9 14.5,16.4 15.7,15.5 16.8,16.4 16.4,14.9 17.6,14 		"/>
		<polygon class="st1" points="21.8,14 21.4,12.6 20.9,14 19.5,14 20.7,14.9 20.2,16.4 21.4,15.5 22.5,16.4 22.1,14.9 23.2,14 		"/>
	</g>
</g>
</svg>
