<?xml version="1.0" encoding="utf-8"?>
<!-- Generator: Adobe Illustrator 20.0.0, SVG Export Plug-In . SVG Version: 6.00 Build 0)  -->
<svg version="1.1" id="Layer_1" xmlns="http://www.w3.org/2000/svg" xmlns:xlink="http://www.w3.org/1999/xlink" x="0px" y="0px"
	 viewBox="0 0 64 42" style="enable-background:new 0 0 64 42;" xml:space="preserve">
<style type="text/css">
	.st0{fill:#FFCE00;}
	.st1{fill:#57A863;}
	.st2{fill:#007229;}
	.st3{fill:#FF7300;}
	.st4{fill:#9C1E3D;}
</style>
<path id="Rounded_Rectangle_7_copy" class="st0" d="M5.8,0h52.3C61.4,0,64,2.6,64,5.7v30.6c0,3.2-2.6,5.7-5.8,5.7H5.8
	C2.6,42,0,39.4,0,36.3V5.7C0,2.6,2.6,0,5.8,0z"/>
<path class="st1" d="M64,5.3v31.4c0-0.1,0-0.3,0-0.4V5.7C64,5.6,64,5.5,64,5.3z"/>
<rect x="4.2" y="3.5" class="st2" width="10.3" height="35.1"/>
<rect x="14.5" y="3.5" class="st3" width="10.3" height="35.1"/>
<rect x="26.8" y="3.5" class="st4" width="33.5" height="35.1"/>
<path id="path2389_3_" class="st0" d="M31.5,33.2c0,0-0.4,0.8-0.8,1.1c-0.6,0.5-1.8,0.4-2.4,0.9c-0.6,0.6,0,1.4,0,1.5v0.4
	c0,0,0.4,0,0.6,0c0.3,0,0.4,0.3,0.9,0.2c1.3-0.1,1.2-1.2,1.3-2.2c0.1-0.4,0.2-0.8,0.3-1.2C31.5,33.7,31.5,33.2,31.5,33.2z"/>
<path id="path2389_1_" class="st0" d="M55.7,9.1c0,0,0.4-0.8,0.8-1.1c0.6-0.5,1.8-0.4,2.4-0.9c0.6-0.6,0-1.4,0-1.5V5.2
	c0,0-0.4,0-0.6,0c-0.3,0-0.4-0.3-0.9-0.2c-1.3,0.1-1.2,1.2-1.3,2.2C56,7.6,55.9,8,55.8,8.4C55.7,8.6,55.7,9.1,55.7,9.1z"/>
<path id="path2389_2_" class="st0" d="M54.8,33.8c0,0,0.8,0.4,1.1,0.8c0.5,0.6,0.4,1.8,0.9,2.4c0.6,0.6,1.4,0,1.5,0h0.4
	c0,0,0-0.4,0-0.6c0-0.3,0.3-0.4,0.2-0.9c-0.1-1.3-1.2-1.2-2.2-1.3c-0.4-0.1-0.8-0.2-1.2-0.3C55.3,33.8,54.8,33.8,54.8,33.8z"/>
<path id="path2389_4_" class="st0" d="M33,8.5c0,0-0.8-0.4-1.1-0.8c-0.5-0.6-0.4-1.8-0.9-2.4c-0.6-0.6-1.4,0-1.5,0h-0.4
	c0,0,0,0.4,0,0.6c0,0.3-0.3,0.4-0.2,0.9C29,8.1,30.1,8,31.1,8.1c0.4,0.1,0.8,0.2,1.2,0.3C32.5,8.5,33,8.5,33,8.5z"/>
<path id="path3018" class="st0" d="M37.9,31.2l0.2-0.1l0.1,0.1c0.1,0.2,0.5,0.2,0.8,0l0.2-0.1l0.2,0.1c0.2,0.2,0.6,0.2,0.8,0
	c0.2-0.1,0.2-0.1,0.3,0s0.3,0.1,0.4,0.1c0.3,0,0.3,0,0.5-0.2s0.2-0.3,0.1-0.6c0-0.2-0.1-0.4-0.1-0.5c0-0.3,0-0.3,0.4-0.4
	c0.2-0.1,0.5-0.2,0.5-0.2c0.2-0.1,0.6-0.6,0.6-0.7c0,0-0.2-0.1-0.4-0.1c-0.8-0.1-0.9-0.5-0.4-1.3c0.9-1.3,1.4-2.6,1.4-3.4
	c0-0.4,0-0.5,0.1-0.4c0.2,0.3-0.2,1.7-0.7,2.6l-0.2,0.4h0.2c0.1,0,0.8-0.3,1.4-0.6c1.9-0.8,2.5-1,3.7-1c1,0,1.4,0.2,2.1,1
	c0.4,0.4,0.7,0.7,1.4,1.1c1.4,0.9,1.5,1,1.5,2c0.1,1.1,0,1.1-0.8,1.3c-0.7,0.2-1.1,0.5-1.2,0.9c-0.1,0.2,0.1,0.2,0.4,0l0.3-0.2
	l0.1,0.2c0.1,0.2,0.5,0.2,0.7,0l0.2-0.2l0.2,0.2c0.3,0.2,0.7,0.2,0.8-0.1c0-0.1,0.1,0,0.2,0.1c0.2,0.2,0.8,0.3,0.9,0.1
	c0-0.1,0-0.2-0.1-0.3c-0.3-0.5-0.4-0.7-0.4-1c0-0.4,0.1-0.6,0.5-0.9c0.5-0.4,0.7-0.9,0.3-0.9c-0.2,0-0.5-0.2-0.7-0.6
	c-0.3-0.7-0.3-1.5,0.2-2.9s0.6-1.6,0.6-2.6c0-0.7,0-0.9-0.2-1.3c-0.1-0.3-0.3-0.6-0.5-0.8l-0.3-0.4l0.4-0.3c1.1-0.9,0.9-2.4-0.4-3
	c-0.4-0.2-0.5-0.2-1.2-0.2c-0.4,0-1.1,0.1-1.4,0.1c-0.4,0.1-1,0.1-1.4,0.1c-0.7,0-0.8,0-1.1-0.2c-0.3-0.1-0.3-0.2-0.4-0.6
	c0-0.1-0.1-0.1-0.1-0.2c-0.1,0-0.5,0.3-0.6,0.5c0,0.1-0.1,0.1-0.2,0c-0.1-0.1-0.1-0.2-0.2-0.4c-0.1-0.3,0-0.6,0.4-0.8l0.3-0.1
	l-0.2-0.1c-0.4-0.2-1-0.1-1.2,0.3c-0.1,0.1-0.1,0.2-0.2,0.2c0,0-0.1-0.1-0.3-0.2c-0.5-0.5-0.3-1.2,0.3-1.4c0.3-0.1,0.6,0,0.7,0.2
	c0.1,0.3,0.4-0.1,0.3-0.5c0-0.3,0-0.3,0.2-0.3c0.3,0,0.8,0.3,1,0.6s0.2,0.8,0,1.2L49,15h0.2c0.3-0.1,0.7-0.3,0.8-0.5
	c0.2-0.3,0.2-0.8,0-1.1c-0.1-0.3-0.1-0.3,0.1-0.2c0.4,0.2,0.6,0.3,0.7,0.6c0.1,0.3,0.1,0.3,0.1,0.6c0,0.2-0.1,0.4-0.2,0.5
	c-0.1,0.2-0.1,0.2,0,0.2c0.2,0,0.6-0.2,0.7-0.3c0.1-0.1,0.2-0.2,0.2-0.4l0.1-0.3l0.1,0.2c0.2,0.3,0.5,0.5,0.8,0.7
	c0.4,0.2,0.6,0.2,0.4,0c-0.1-0.1-0.4-0.9-0.3-0.9c0,0,0.6,0.4,1.2,0.9c0.6,0.5,0.9,0.7,1.5,0.7c0.7,0,1.1-0.6,0.8-1.2
	c-0.2-0.3-0.6-0.4-0.8-0.1c-0.1,0.1-0.1,0.2-0.1,0.4s0,0.2-0.1,0.2c-0.2,0-0.6-0.3-1.3-0.8c-1.1-0.9-2.3-1.6-3.3-1.9
	c-0.7-0.3-2-0.3-2.6-0.2c-0.7,0.1-1.4,0.5-1.8,0.9c-0.7,0.7-0.8,1.7,0,2.5l0.2,0.2L46.2,16c-0.2,0.3-0.2,0.7,0,1.1
	c0.1,0.1,0.2,0.3,0.2,0.3s0-0.1,0.1-0.2c0-0.3,0.1-0.5,0.3-0.5c0.2-0.1,0.3,0,1.1,0.3c0.9,0.4,2.3,0.4,3.9,0.1c0.8-0.2,1.7-0.1,2,0
	c0.7,0.3,0.9,1.1,0.4,1.7c-0.2,0.3-0.5,0.4-1.2,0.6c-0.6,0.2-0.7,0.2-2,0.2c-1.1,0-1.5,0-1.9,0.1c-0.5,0.1-0.8,0.1-2.2,0.1h-1.7
	l0.2,0.2c0.1,0.1,0.2,0.2,0.3,0.2c0.1,0.1,0.1,0.1-0.1,0.1c-0.1,0-0.4,0.1-0.5,0.1h-0.3v0.3c0,0.2,0,0.3,0,0.4s0,0.1-0.1,0.1
	s-0.3-0.1-0.4-0.1c-0.2,0-0.4-0.1-0.5-0.2c-0.2-0.1-0.2-0.1-0.3,0s-0.6,0.5-0.7,0.5c0,0,0-0.1,0-0.2s-0.1-0.4-0.2-0.6
	c-0.1-0.2-0.2-0.5-0.2-0.5c0-0.1-0.1-0.1-0.1,0s-0.1,0.2-0.1,0.3s-0.1,0.3-0.2,0.5l-0.1,0.2l-0.1-0.2c-0.1-0.2-0.3-0.4-0.3-0.4
	l-0.1,0.1c0,0.2-0.4,0.6-0.5,0.6c0,0-0.1-0.1-0.1-0.3s0-0.3-0.1-0.3c0,0-0.1,0-0.1,0.1s-0.3,0.5-0.5,0.5c0,0-0.1,0-0.2,0.1
	c-0.1,0.1-0.2,0.1-0.2,0s0-0.2,0-0.4c0-0.1-0.1-0.3-0.1-0.3c0-0.1-0.1,0-0.4,0c-0.4,0.1-0.6,0.1-0.3-0.1c0.1-0.1,0.2-0.3,0.3-0.5
	s0.2-0.4,0.2-0.4c0.1,0,0.1,0,0,0.1s-0.1,0.2-0.1,0.3c0,0.1,0,0.2-0.1,0.3c-0.1,0.1-0.1,0.2-0.1,0.2s0.2,0,0.4-0.1l0.3-0.2v0.1
	c0,0.1,0,0.3,0.1,0.5l0.1,0.3l0.2-0.1c0.2-0.1,0.4-0.5,0.4-0.8c0-0.1,0.1-0.1,0.1,0c0,0,0.1,0.2,0.1,0.4l0.1,0.3l0.2-0.2
	c0.1-0.1,0.2-0.3,0.2-0.4c0.1-0.2,0.2-0.4,0.2-0.2c0,0.1,0.4,0.6,0.4,0.5c0,0,0.1-0.2,0.1-0.4c0.1-0.4,0.3-0.7,0.4-0.6
	c0,0,0.1,0.1,0,0.1c0,0,0.1,0.3,0.2,0.6c0.1,0.3,0.2,0.6,0.3,0.6c0,0.1,0.1,0.1,0.3-0.1c0.2-0.1,0.3-0.3,0.3-0.3
	c0-0.1,0.1-0.1,0.2,0c0.2,0.1,0.9,0.3,1,0.3c0,0,0-0.2,0-0.4V20h0.2c0.1,0,0.3,0,0.5,0h0.3l-0.3-0.2c-0.2-0.1-0.3-0.2-0.3-0.3
	c0-0.1-0.2-0.1-0.3-0.1c-0.4,0-1.2-0.5-1.2-0.7c0,0,0.1,0,0.2,0.1c0.3,0.3,0.7,0.4,1,0.4h0.3L45,19c-0.1-0.1-0.2-0.3-0.2-0.5
	c0-0.3-0.1-0.3-0.4-0.6c-0.2-0.1-0.4-0.3-0.5-0.4l-0.2-0.2l-0.1,0.2c0,0.1-0.1,0.2-0.1,0.2s-0.1-0.1-0.2-0.2
	c-0.1-0.1-0.2-0.2-0.2-0.2s-0.1,0.1-0.2,0.3L42.8,18l-0.1-0.2c-0.1-0.1-0.2-0.2-0.3-0.3c-0.1-0.1-0.2-0.2-0.1-0.2
	c0,0,0.2,0.1,0.3,0.2l0.2,0.2l0.1-0.2c0.1-0.1,0.1-0.3,0.1-0.4c0-0.2,0-0.2,0-0.1s0.2,0.2,0.3,0.3l0.2,0.2l0.2-0.3
	c0.2-0.3,0.2-0.3,0.2-0.1c0.1,0.2,0.8,0.8,1.3,1.1c0.1,0,0.1-0.1-0.1-0.5c0-0.1-0.1-0.3-0.1-0.4c0-0.2-0.1-0.3-0.3-0.4
	c-0.3-0.3-0.4-0.4-0.5-0.9c0-0.2-0.1-0.4-0.1-0.4c-0.1-0.1-0.1,0-0.1,0.3c0,0.2,0,0.5-0.1,0.6l-0.1,0.2l-0.1-0.2
	c0-0.1-0.2-0.3-0.3-0.4c-0.2-0.1-0.3-0.2-0.2-0.2c0,0,0.2,0.1,0.4,0.2c0.3,0.2,0.3,0.2,0.4,0.1c0-0.1,0-0.6-0.1-0.9
	c0-0.2,0-0.2,0.2,0c0.1,0.1,0.2,0.3,0.3,0.6c0.1,0.4,0.1,0.5,0.5,0.8c0.2,0.2,0.4,0.3,0.4,0.3s0-0.5,0.1-1.1c0-1.1,0-1.4-0.3-1.7
	L45,14l0.2-0.2c0.3-0.3,0.4-0.6,0.5-0.9v-0.3L45.4,13c-0.2,0.2-0.3,0.2-0.5,0.2s-0.3,0-0.5-0.2s-0.5-0.4-0.8-0.5
	c-0.1,0-0.2,0-0.2,0.1s-0.1,0.2-0.1,0.4l-0.1,0.3L42.9,13c-0.2-0.2-0.4-0.3-0.6-0.4c-0.4-0.1-0.4-0.1-0.4,0.2c0,0.5-0.2,0.6-0.6,0.2
	c-0.3-0.2-0.5-0.3-1-0.2h-0.4L40,13c0.1,0.2,0,0.2-0.1,0.4c-0.2,0.3-0.5,0.4-0.9,0.4c-0.2,0-0.4,0-0.5,0.1c-0.1,0-0.4,0.1-0.6,0.1
	c-0.2,0-0.4,0.1-0.5,0.1s-0.1,0-0.1-0.2c0-0.4-0.2-0.6-0.6-0.6c-0.5,0-0.7,0.4-0.5,1c0,0.1,0.1,0.3,0.1,0.4c0,0.1,0.2,0.4,0.5,0.7
	s0.5,0.5,0.6,0.6c0,0.1,0.2,0.2,0.3,0.3l0.2,0.1v-0.2c0-0.3,0-0.3,0.2-0.1c0.1,0.1,0.2,0.2,0.3,0.2c0.2,0.1,0.2,0.1,0.2,0
	s0-0.2,0.1-0.3l0.1-0.2l0.1,0.3c0.1,0.1,0.3,0.5,0.5,0.7c0.4,0.5,0.7,1,0.5,1.1c-0.1,0.1-0.2,0-0.5,0c-0.2,0-0.5-0.1-0.6-0.1
	c-0.2,0-0.3,0-0.1-0.2s0.1-0.2-0.2-0.2c-0.4,0-1.2-0.2-1.6-0.3c-0.3-0.1-0.4-0.1-0.5,0.2c0,0.1-0.1,0.4-0.2,0.6l-0.1,0.3h0.4
	c0.2,0,0.4-0.1,0.6-0.1c0.1,0,0.2-0.1,0.2,0c0,0,0,0.1-0.1,0.3l-0.1,0.2h0.2c0.1,0,0.3-0.1,0.4-0.1c0.2-0.1,0.2-0.1,0.3,0.1
	c0.2,0.3,0.3,0.3,0.3,0s0.1-0.3,0.3,0.1S39,19.2,39,19c0-0.1,0.1-0.2,0.2-0.3c0.2-0.2,0.4-0.1,0.5,0.1s-0.1,0.5-0.8,0.9
	c-1.3,0.8-2,1.8-2.2,3.2c-0.2,1.2,0.4,2.5,1.6,3.3c0.6,0.4,1.5,0.9,1.4,0.7c-0.2-0.7-0.2-2.1,0-2.4c0,0,0,0.1,0,0.3
	c-0.2,0.8-0.1,1.4,0.4,2.9c0.5,1.3,0.4,1.9-0.3,2.3c-0.2,0.1-0.3,0.1-0.9,0.1c-0.6,0-0.7,0-0.9,0.2s-0.4,0.6-0.4,0.9
	C37.4,31.3,37.6,31.3,37.9,31.2L37.9,31.2z M42.8,19.5c0-0.1-0.3-0.4-0.6-0.5c-0.2-0.1-0.3-0.1-0.3,0c0,0.2-0.1,0.6-0.2,0.6
	c0,0-0.1-0.1-0.1-0.2s-0.1-0.3-0.2-0.4l-0.2-0.3L41,18.9c-0.1,0.2-0.4,0.4-0.5,0.4c0,0,0-0.1,0-0.3c0-0.2,0-0.3,0-0.3h-0.1
	c0,0.1-0.3,0.5-0.4,0.5c0,0-0.1-0.1-0.1-0.2s-0.1-0.4-0.1-0.5s0,0,0.1,0.2l0.2,0.4l0.2-0.3c0.1-0.1,0.2-0.3,0.2-0.3s0-0.1,0.1,0
	c0,0,0.1,0.2,0.1,0.4v0.3l0.2-0.2c0.1-0.1,0.2-0.3,0.3-0.3c0.1-0.1,0.1-0.1,0.2,0c0.1,0.1,0.2,0.2,0.3,0.4c0.1,0.1,0.1,0.2,0.2,0.2
	c0,0,0-0.2,0.1-0.3c0-0.2,0-0.3,0-0.3s0.5,0.3,0.7,0.5c0.1,0.1,0.2,0.2,0.3,0.2c0,0,0-0.2,0-0.4c0-0.3,0-0.4-0.2-0.5
	c-0.2-0.2-0.2-0.2-0.3,0s-0.2,0.2-0.2,0c0-0.1-0.4-0.6-0.5-0.6c0,0-0.1,0.1-0.2,0.2c-0.1,0.1-0.2,0.2-0.2,0.2
	c-0.1,0-0.6-0.6-0.6-0.7s0-0.1,0.1,0.1c0.1,0.1,0.2,0.3,0.3,0.4c0.2,0.2,0.3,0.1,0.4-0.2c0-0.1,0.1-0.2,0.1-0.2
	c0.1,0,0.6,0.5,0.6,0.7l0.1,0.2l0.1-0.2c0.1-0.2,0.1-0.2,0.2,0c0,0.1,0.2,0.3,0.5,0.4l0.4,0.2l0.1-0.2c0-0.1,0.1-0.2,0.1-0.2
	c0,0.1-0.1,0.5-0.1,0.5s-0.1-0.1-0.3-0.2L43,18.7V19c0,0.2,0,0.4,0,0.5C42.9,19.6,42.8,19.7,42.8,19.5L42.8,19.5z M40.9,16.9
	c-0.4-0.4-0.5-0.5-0.5-0.6v-0.2v0.2c0,0.1,0.1,0.3,0.3,0.4L40.9,16.9l0.2-0.2c0.1-0.1,0.2-0.2,0.2-0.3c0-0.1,0-0.1,0.3,0.2
	c0.3,0.2,0.3,0.2,0.3,0.1s0-0.2,0-0.4c-0.1-0.3,0-0.3,0.1-0.2s0.2,0.2,0.2,0.3c0.1,0.1,0.1,0.1,0.2,0c0-0.1,0-0.2,0-0.3v-0.2
	l0.2,0.3c0.2,0.3,0.2,0.3,0.3,0.1c0-0.1,0.1-0.2,0.1-0.4c0-0.2,0-0.2,0.1-0.2c0.1,0.1,0,0.4-0.1,0.7l-0.1,0.2l-0.1-0.2
	c-0.2-0.3-0.2-0.3-0.3,0s-0.2,0.3-0.3,0.1c-0.1-0.1-0.1-0.1-0.1,0.2L42,17l-0.3-0.2l-0.3-0.2l-0.1,0.2c-0.1,0.1-0.1,0.2-0.1,0.2
	C41.1,17,41,17,40.9,16.9L40.9,16.9z M44.9,15.5c-0.2-0.1-0.3-0.3-0.2-0.3h0.1c0,0,0.1,0.2,0.3,0.3C45.3,15.9,45.3,15.9,44.9,15.5z
	 M39.6,15c-0.1-0.2-0.1-0.3,0-0.5s0.2-0.2,0.4-0.1c0.1,0,0.5,0.1,0.7,0.3c0.3,0.2,0.6,0.3,0.8,0.3s0.3,0,0.3,0s-0.1-0.1-0.2-0.3
	c-0.2-0.3-0.2-0.4,0-0.2c0.3,0.2,0.6,0.3,1.3,0.3h0.3L43,14.6c-0.3-0.3-0.2-0.3,0.1,0s0.3,0.3-0.3,0.3c-0.3,0-0.5,0-0.8-0.1
	s-0.4-0.1-0.3,0c0,0.1,0.1,0.1,0.1,0.1s0.1,0,0.1,0.1s-0.8,0-1.1-0.2c-0.8-0.4-0.9-0.5-1.1-0.4c-0.1,0-0.2,0.1-0.3,0.2
	c-0.1,0.3,0.4,0.6,0.5,0.3c0.1-0.1,0-0.1-0.1-0.2c-0.1-0.1-0.1-0.2,0.1-0.1c0.1,0,0.1,0.4,0,0.5C40,15.2,39.7,15.2,39.6,15z
	 M42.8,14.2c-0.1-0.1,0-0.1,0.4-0.1c0.6,0,0.9-0.1,1.3-0.4c0.3-0.2,0.4-0.2,0.1,0c-0.3,0.2-0.7,0.3-1.2,0.4
	C43.2,14.1,43,14.2,42.8,14.2C42.9,14.2,42.9,14.2,42.8,14.2z M47.7,31.1L48,31l0.2,0.2c0.2,0.2,0.5,0.2,0.7,0C49,31,49,31,49.1,31
	c0,0,0.1,0.1,0.1,0.2c0.1,0.1,0.2,0.1,0.4,0.2c0.2,0,0.3,0,0.4-0.1V31l0.3,0.2c0.7,0.4,1.1,0,0.7-0.9c-0.2-0.5-0.1-0.7,0.4-1.3
	c0.2-0.3,0.4-0.5,0.4-0.6s0-0.1-0.3-0.1s-0.3,0-0.5-0.2c-0.2-0.3-0.2-0.5,0-0.9l0.2-0.3l-0.4-0.2c-0.2-0.1-0.6-0.5-0.8-0.7
	c-0.4-0.7-1-1-1.7-1h-0.5v0.4c0,0.5,0.2,0.9,0.8,1.7c0.7,0.9,0.7,1,0.7,2.1v0.9l-0.2,0.2c-0.2,0.2-0.3,0.2-0.8,0.2s-0.7,0.1-0.8,0.2
	c-0.2,0.2-0.3,0.3-0.3,0.5s0,0.2,0.1,0.2C47.4,31.3,47.6,31.2,47.7,31.1L47.7,31.1z M33.3,28.7c0.1-0.1,0.1-0.2,0.1-0.3
	c0-0.1,0.1-0.2,0.3-0.2H34L33.8,28c-0.3-0.2-0.3-0.4-0.1-0.4s0.6-0.2,0.6-0.4c0-0.1,0-0.2,0-0.2c-0.1-0.1-0.4-0.1-0.4,0
	c0,0.2-0.1,0.2-0.3,0c-0.3-0.3-0.3-0.8,0-1.1c0.1-0.1,0.1-0.2,0-0.3c-0.2-0.2-0.3-0.5-0.2-0.5c0,0,0.2,0,0.3,0
	c0.2,0.1,0.3,0.1,0.3,0c0.2-0.2,0-0.4-0.4-0.4c-0.2,0-0.2,0-0.2-0.1s-0.2-0.1-0.3-0.2c-0.3-0.1-0.3-0.1-0.3,0.1s-0.1,0.2-0.3,0.1
	s-0.4,0-0.4,0.2s0.2,0.3,0.5,0.2c0.3,0,0.3,0.2,0,0.4l-0.2,0.2l0.1,0.2c0.2,0.3,0.2,0.8,0,1L32.3,27l-0.1-0.1
	c-0.2-0.2-0.4-0.2-0.4,0c0,0.1,0,0.2,0.2,0.4c0.1,0.1,0.3,0.2,0.4,0.2c0.2,0,0.2,0.2,0,0.4L32.2,28h0.3c0.2,0,0.3,0.1,0.3,0.1
	c0,0.1,0.2,0.5,0.3,0.5C33.1,28.9,33.2,28.8,33.3,28.7L33.3,28.7z M37.1,27c0.3-0.1,0.9-0.6,0.9-0.7c0,0-0.2-0.2-0.4-0.4
	c-0.4-0.4-0.9-1-1-1.4c-0.1-0.2-0.4-0.5-1.2-1.3l-1.1-1.1L34,22.2c-0.2,0-0.4,0.1-0.5,0.1s-0.1,0,0.1,0.2l0.2,0.2l0.3-0.2
	c0.3-0.2,0.3-0.2,0.3,0c0,0.1,0,0.2-0.1,0.3c-0.1,0.1-0.1,0.2-0.1,0.2s0,0.1-0.2,0.2s-0.4,0.4-0.2,0.4c0.1,0,0.5-0.4,0.4-0.5
	c0-0.1,0-0.1,0-0.2c0.1-0.1,0.1,0.2,0,0.4c-0.1,0.1-0.1,0.2-0.1,0.2s0,0.1-0.2,0.2s-0.4,0.4-0.2,0.4s0.5-0.4,0.4-0.5
	c0-0.1,0-0.2,0-0.2c0.1-0.1,0.1,0.2,0.1,0.3c0,0.1,0,0.2,0,0.2c0.1,0.1,0,0.4-0.1,0.5c-0.1,0,0,0.1,0.1,0.2c0.2,0.1,0.2,0.2,0.2,0.8
	c0,0.5,0,0.7,0.1,0.8c0.1,0.1,0.1,0.1,0.1,0S34.8,26,35,26c0,0,0.3,0.3,0.7,0.6c0.3,0.3,0.6,0.6,0.7,0.6c0.1,0,0.2,0,0.2,0
	C36.9,27.1,37,27.1,37.1,27L37.1,27z M33.8,24.4c0-0.2-0.4-0.4-0.8-0.4c-0.4,0-0.4,0-0.4,0.1s0.1,0.2,0.3,0.3
	C33.3,24.6,33.8,24.6,33.8,24.4z M34.2,24.3c0.2-0.2,0.3-0.4,0.2-0.4S34,24.2,34,24.3C33.9,24.6,33.9,24.6,34.2,24.3z M33.8,23.8
	c0-0.1,0-0.2-0.2-0.2c-0.4-0.2-0.9-0.3-1-0.2c-0.2,0.2-0.1,0.4,0.3,0.4c0.1,0,0.3,0.1,0.4,0.1C33.5,24,33.8,24,33.8,23.8z
	 M33.8,23.3c0-0.1-0.1-0.2-0.8-0.5c-0.6-0.2-0.8-0.1-0.6,0.2c0.1,0.1,0.2,0.2,0.4,0.2s0.4,0.1,0.5,0.1
	C33.6,23.5,33.8,23.5,33.8,23.3z M34.2,22.8c0.1-0.1,0.2-0.2,0.2-0.3c0-0.2-0.4,0.1-0.5,0.3C33.8,23.1,33.9,23,34.2,22.8L34.2,22.8z
	 M33.8,22.8c0-0.2-0.2-0.3-0.8-0.4c-0.4-0.1-0.6,0-0.5,0.1c0,0.1,0.1,0.2,0.5,0.3C33.6,23,33.8,22.9,33.8,22.8z M34.3,22
	c0.7-0.3,0.7-1.1,0.1-1.3c-0.3-0.1-0.4,0-0.5,0.1s0,0.4,0.1,0.4c0,0,0.1,0,0.1,0.1c0,0.3-1,0.4-1.5,0.2c-0.1-0.1-0.2-0.3-0.1-0.3
	c0.1,0,0.2-0.2,0.1-0.3c-0.1-0.2-0.3-0.3-0.5-0.2c-0.6,0.2-0.6,0.9,0,1.2C32.6,22.2,33.7,22.2,34.3,22z M33.9,21.4v-0.1
	c-0.1-0.1-0.1-0.3,0-0.5c0.1-0.1,0.1-0.4,0.2-2.6c0.1-3.8,0.4-6.6,0.7-7.3c0.1-0.3,0.1-0.3-0.3,0c-0.5,0.3-0.9,0.8-1.2,1.4
	c-0.6,1.2-0.8,2.8-0.8,6.1c0,1.9,0,2.2,0.1,2.3c0.1,0.2,0.1,0.2,0,0.4c0,0.1-0.1,0.2,0,0.3C32.7,21.6,33.7,21.6,33.9,21.4L33.9,21.4
	z M39.6,17.8c0,0,0-0.2-0.1-0.4c-0.1-0.3-0.2-0.3-0.3-0.3c-0.5,0-1.4-0.2-2.3-0.6c-0.5-0.2-0.7-0.3-0.8-0.2
	c-0.2,0.2,0.1,0.5,0.5,0.7s1.4,0.4,1.9,0.4c0.3,0,0.3,0,0.1,0.2l-0.1,0.2h0.3c0.2,0,0.4,0,0.5,0.1C39.5,17.9,39.5,17.9,39.6,17.8
	L39.6,17.8z"/>
</svg>
