<?xml version="1.0" encoding="utf-8"?>
<!-- Generator: Adobe Illustrator 20.0.0, SVG Export Plug-In . SVG Version: 6.00 Build 0)  -->
<svg version="1.1" id="Layer_1" xmlns="http://www.w3.org/2000/svg" xmlns:xlink="http://www.w3.org/1999/xlink" x="0px" y="0px"
	 viewBox="0 0 64 42" style="enable-background:new 0 0 64 42;" xml:space="preserve">
<style type="text/css">
	.st0{fill:#CD1126;}
	.st1{fill:#FFFFFF;}
	.st2{fill:#009E60;}
</style>
<path id="Rounded_Rectangle_7_copy_1_" class="st0" d="M5.8,0h52.3C61.4,0,64,2.6,64,5.7v30.6c0,3.2-2.6,5.7-5.8,5.7H5.8
	C2.6,42,0,39.4,0,36.3V5.7C0,2.6,2.6,0,5.8,0z"/>
<path d="M0,36.3C0,39.4,2.6,42,5.8,42h52.4c3.2,0,5.8-2.5,5.8-5.7V14H0V36.3z"/>
<rect y="14" class="st1" width="64" height="14"/>
<g>
	<polygon class="st2" points="18.2,16.4 19.4,19.9 23.1,19.9 20.1,22.1 21.2,25.6 18.2,23.4 15.3,25.6 16.4,22.1 13.4,19.9 
		17.1,19.9 	"/>
	<polygon class="st2" points="45.8,16.4 46.9,19.9 50.6,19.9 47.6,22.1 48.7,25.6 45.8,23.4 42.8,25.6 43.9,22.1 40.9,19.9 
		44.6,19.9 	"/>
</g>
</svg>
