<?xml version="1.0" encoding="utf-8"?>
<!-- Generator: Adobe Illustrator 20.0.0, SVG Export Plug-In . SVG Version: 6.00 Build 0)  -->
<svg version="1.1" id="Layer_1" xmlns="http://www.w3.org/2000/svg" xmlns:xlink="http://www.w3.org/1999/xlink" x="0px" y="0px"
	 viewBox="0 0 64 42" style="enable-background:new 0 0 64 42;" xml:space="preserve">
<style type="text/css">
	.st0{fill:#FF0000;}
	.st1{fill:#000099;}
	.st2{fill:#FFFFFF;}
	.st3{fill:#FFFFFF;stroke:#000099;stroke-miterlimit:10;}
</style>
<path id="SVGID_1_" class="st0" d="M5.8,0h52.3C61.4,0,64,2.6,64,5.7v30.6c0,3.2-2.6,5.7-5.8,5.7H5.8C2.6,42,0,39.4,0,36.3V5.7
	C0,2.6,2.6,0,5.8,0z"/>
<path class="st1" d="M31.9,0H5.8C2.6,0,0,2.6,0,5.7v14.8h31.9V0z"/>
<polygon class="st2" points="20.3,11.6 24.5,10.5 20.3,9.3 23.4,6.2 19.2,7.3 20.3,3.1 17.2,6.2 16,2 14.9,6.2 11.8,3.1 12.9,7.3 
	8.7,6.2 11.8,9.3 7.5,10.5 11.8,11.6 8.7,14.7 12.9,13.6 11.8,17.8 14.9,14.7 16,19 17.2,14.7 20.3,17.8 19.2,13.6 23.4,14.7 "/>
<circle class="st3" cx="16" cy="10.4" r="4.2"/>
</svg>
