<?xml version="1.0" encoding="utf-8"?>
<!-- Generator: Adobe Illustrator 20.0.0, SVG Export Plug-In . SVG Version: 6.00 Build 0)  -->
<svg version="1.1" id="Layer_1" xmlns="http://www.w3.org/2000/svg" xmlns:xlink="http://www.w3.org/1999/xlink" x="0px" y="0px"
	 viewBox="0 0 64 42" style="enable-background:new 0 0 64 42;" xml:space="preserve">
<style type="text/css">
	.st0{fill:#DC0538;}
	.st1{fill:#58B920;}
	.st2{fill:#F5F7FA;}
	.st3{fill:#DBBB29;}
	.st4{fill:none;stroke:#DBBB29;stroke-width:0.5;}
</style>
<path id="Rounded_Rectangle_7_copy_1_" class="st0" d="M5.8,0h52.3C61.4,0,64,2.6,64,5.7v30.6c0,3.2-2.6,5.7-5.8,5.7H5.8
	C2.6,42,0,39.4,0,36.3V5.7C0,2.6,2.6,0,5.8,0z"/>
<path class="st1" d="M0,36.3C0,39.4,2.6,42,5.8,42h52.4c3.2,0,5.8-2.5,5.8-5.7V14H0V36.3z"/>
<rect y="14" class="st2" width="64" height="14"/>
<g>
	<path class="st3" d="M36.8,24c-0.8,0.3-1.7-0.1-2-0.9c-0.2,0.2-0.6,0.4-0.9,0.4c-0.8,0.1-1.6-0.5-1.6-1.4V21c0-0.3,0.2-0.5,0.5-0.5
		c0.2,0,0.3,0.1,0.4,0.2c0.2-0.6-0.1-1.3-0.7-1.5c-0.6-0.2-1.3,0.1-1.5,0.7c-0.1,0.2-0.1,0.5,0,0.7c0.1-0.2,0.4-0.3,0.7-0.2
		c0.1,0.1,0.2,0.2,0.2,0.4V22c-0.1,0.8-0.8,1.4-1.6,1.4c-0.3,0-0.7-0.2-0.9-0.4c-0.3,0.8-1.2,1.2-2,0.9c-0.1,0-0.2-0.1-0.3-0.2
		c0.1,1.4,2.3,1.1,2.5-0.3c0.7,1.2,2.2,0.8,2.6-0.6l0,0c0.4,1.5,1.9,1.8,2.6,0.6c0.2,1.4,2.3,1.7,2.5,0.3C37,23.9,36.9,24,36.8,24z"
		/>
	<path id="r" class="st3" d="M30.4,24.7c-0.3,0.6-0.9,0.8-1.4,0.2c0,0,0.2-0.1,0.4-0.2c0-0.2,0-0.4,0.2-0.6c0.1,0.1,0.3,0.3,0.4,0.5
		C30.2,24.6,30.4,24.7,30.4,24.7L30.4,24.7z"/>
	<path id="r_1_" class="st3" d="M32.7,24.7c-0.4,0.6-1,0.6-1.5,0c0,0,0.2-0.1,0.5-0.1c0-0.2,0.1-0.4,0.3-0.5
		c0.1,0.1,0.3,0.3,0.3,0.5C32.6,24.5,32.7,24.7,32.7,24.7L32.7,24.7z"/>
	<path id="r_2_" class="st3" d="M35.1,25c-0.5,0.5-1.1,0.4-1.4-0.2c0,0,0.2-0.1,0.5,0c0-0.2,0.2-0.4,0.3-0.5
		c0.1,0.1,0.2,0.3,0.2,0.6C35,24.8,35.1,25,35.1,25L35.1,25z"/>
	<path class="st4" d="M28.2,26.2c2.5-0.7,5.2-0.7,7.7,0"/>
	<polygon class="st3" points="32.4,16.9 32.9,16.5 32.2,16.5 32,15.8 31.8,16.5 31.1,16.5 31.6,16.9 31.4,17.6 32,17.2 32.6,17.6 	
		"/>
	<polygon class="st3" points="29.6,17.7 30.2,17.2 29.4,17.2 29.2,16.6 29,17.2 28.3,17.2 28.9,17.7 28.6,18.3 29.2,17.9 29.8,18.3 
			"/>
	<polygon class="st3" points="27.6,19.7 28.1,19.3 27.4,19.3 27.2,18.6 27,19.3 26.2,19.3 26.8,19.7 26.6,20.4 27.2,19.9 27.8,20.4 
			"/>
	<polygon class="st3" points="26.8,22.4 27.4,22 26.7,22 26.4,21.3 26.2,22 25.5,22 26.1,22.4 25.9,23.1 26.4,22.7 27,23.1 	"/>
	<polygon class="st3" points="35.1,17.7 35.7,17.2 35,17.2 34.8,16.6 34.6,17.2 33.8,17.2 34.4,17.7 34.2,18.3 34.8,17.9 35.4,18.3 
			"/>
	<polygon class="st3" points="37.2,19.7 37.8,19.3 37,19.3 36.8,18.6 36.6,19.3 35.9,19.3 36.4,19.7 36.2,20.4 36.8,19.9 37.4,20.4 
			"/>
	<polygon class="st3" points="37.9,22.4 38.5,22 37.8,22 37.6,21.3 37.3,22 36.6,22 37.2,22.4 37,23.1 37.6,22.7 38.1,23.1 	"/>
</g>
</svg>
