<?xml version="1.0" encoding="utf-8"?>
<!-- Generator: Adobe Illustrator 20.0.0, SVG Export Plug-In . SVG Version: 6.00 Build 0)  -->
<svg version="1.1" id="Layer_1" xmlns="http://www.w3.org/2000/svg" xmlns:xlink="http://www.w3.org/1999/xlink" x="0px" y="0px"
	 viewBox="0 0 64 42" style="enable-background:new 0 0 64 42;" xml:space="preserve">
<style type="text/css">
	.st0{fill:#006A4E;}
	.st1{fill:#FFFFFF;}
	.st2{fill:#B31B34;}
</style>
<path id="SVGID_1_" class="st0" d="M5.8,0h52.3C61.4,0,64,2.6,64,5.7v30.6c0,3.2-2.6,5.7-5.8,5.7H5.8C2.6,42,0,39.4,0,36.3V5.7
	C0,2.6,2.6,0,5.8,0z"/>
<path class="st1" d="M31.2,3.1c1.2,1,1.9,2.5,1.9,4.2c-0.2,2.9-2.6,5.1-5.5,5c-0.6,0-1.2-0.2-1.8-0.4c0.9,0.7,2.1,1.2,3.4,1.2
	c2.9,0,5.2-2.3,5.2-5.2C34.4,5.8,33.1,3.9,31.2,3.1z"/>
<polygon class="st1" points="26,3.6 26.2,4.3 26.5,3.6 27.2,3.6 26.6,3.1 26.8,2.4 26.2,2.9 25.6,2.4 25.9,3.1 25.3,3.6 "/>
<polygon class="st1" points="26.2,7 26.5,6.3 27.2,6.3 26.6,5.8 26.8,5.1 26.2,5.6 25.6,5.1 25.9,5.8 25.3,6.3 26,6.3 "/>
<polygon class="st1" points="26.2,9.6 26.5,8.9 27.2,8.9 26.6,8.5 26.8,7.8 26.2,8.3 25.6,7.8 25.9,8.5 25.3,8.9 26,8.9 "/>
<polygon class="st1" points="24.2,6.4 23.6,6.9 23,6.4 23.2,7.1 22.6,7.6 23.4,7.6 23.6,8.3 23.8,7.6 24.5,7.6 23.9,7.1 "/>
<polygon class="st1" points="28.7,4.9 28.9,5.6 29.1,4.9 29.9,4.9 29.3,4.5 29.5,3.8 28.9,4.2 28.3,3.8 28.5,4.5 27.9,4.9 "/>
<rect x="7" y="0" class="st2" width="12.5" height="42"/>
</svg>
