<?xml version="1.0" encoding="utf-8"?>
<!-- Generator: Adobe Illustrator 20.0.0, SVG Export Plug-In . SVG Version: 6.00 Build 0)  -->
<svg version="1.1" id="Layer_1" xmlns="http://www.w3.org/2000/svg" xmlns:xlink="http://www.w3.org/1999/xlink" x="0px" y="0px"
	 viewBox="0 0 64 42" style="enable-background:new 0 0 64 42;" xml:space="preserve">
<style type="text/css">
	.st0{fill:#FFFFFF;}
	.st1{fill:#008638;}
	.st2{fill:#ED0000;}
</style>
<path id="Rounded_Rectangle_7_copy" class="st0" d="M5.8,0h52.3C61.4,0,64,2.6,64,5.7v30.6c0,3.2-2.6,5.7-5.8,5.7H5.8
	C2.6,42,0,39.4,0,36.3V5.7C0,2.6,2.6,0,5.8,0z"/>
<g>
	<path class="st1" d="M32,0H5.8C2.6,0,0,2.6,0,5.7v30.7c0,3.1,2.6,5.7,5.8,5.6H32V0z"/>
	<path class="st1" d="M64,5.3v31.4c0-0.1,0-0.3,0-0.4V5.7C64,5.6,64,5.5,64,5.3z"/>
</g>
<g>
	<path class="st2" d="M44.5,14.2c-3.8-6.5-12.1-8.8-18.7-5s-8.8,12.1-5,18.7s12.1,8.8,18.7,5c2.1-1.2,3.8-2.9,5-5
		c-3.8,4.7-10.7,5.5-15.4,1.7s-5.5-10.7-1.7-15.4s10.7-5.5,15.4-1.7C43.5,13,44,13.5,44.5,14.2 M45,21l-12.3-4l7.7,10.5v-13L32.7,25
		L45,21z"/>
</g>
</svg>
