<?xml version="1.0" encoding="utf-8"?>
<!-- Generator: Adobe Illustrator 20.0.0, SVG Export Plug-In . SVG Version: 6.00 Build 0)  -->
<svg version="1.1" id="Layer_1" xmlns="http://www.w3.org/2000/svg" xmlns:xlink="http://www.w3.org/1999/xlink" x="0px" y="0px"
	 viewBox="0 0 64 42" style="enable-background:new 0 0 64 42;" xml:space="preserve">
<style type="text/css">
	.st0{fill:#CA1124;}
	.st1{fill:#FFCE54;}
	.st2{fill:#F8D516;}
</style>
<path id="Rounded_Rectangle_7_copy" class="st0" d="M5.8,0h52.3C61.4,0,64,2.6,64,5.7v30.6c0,3.2-2.6,5.7-5.8,5.7H5.8
	C2.6,42,0,39.4,0,36.3V5.7C0,2.6,2.6,0,5.8,0z"/>
<path d="M0,36.3C0,39.4,2.6,42,5.8,42h52.4c3.2,0,5.8-2.5,5.8-5.7V21H0V36.3z"/>
<path id="path13009" class="st1" d="M39.9,31.5c0,0.1,0,0.1-0.1,0.1s-0.1,0-0.2,0c-0.1,0-0.1-0.1-0.1-0.1c0-0.1,0-0.1,0.1-0.1
	s0.1,0,0.2,0C39.8,31.3,39.9,31.4,39.9,31.5L39.9,31.5z"/>
<g>
	<polygon class="st2" points="25.7,18.4 28.4,16.4 31.1,18.4 30.1,15.2 32.8,13.2 29.5,13.2 28.5,10 27.5,13.2 24.2,13.2 26.7,15.2 
			"/>
	<path class="st2" d="M42.9,33.9c-0.4-0.7-0.9-1.1-1.5-1.7c-0.7-0.5-1.5-1.2-2.2-1.8L38,31.9c0,0.1,0,0.2,0,0.2
		c1.4,0.2,1.8,0.7,2.4,1.2c0.7,0.7,1,1.7,1.5,2C42.8,35.9,43.5,34.8,42.9,33.9z"/>
	<path class="st2" d="M37.9,31.7l1.1-1.3c-0.5-0.4-1.1-0.8-1.7-1.2c0.5-0.5,1-1,1.5-1.6L38,26.9c0.5-0.6,0.9-1.3,1.3-2l1,0.5
		c0.4-0.8,0.7-1.6,1-2.4l-1.1-0.3c0.2-0.7,0.4-1.5,0.5-2.3l1.2,0.1c0.1-0.9,0.1-1.7,0-2.6L40.7,18c-0.1-0.8-0.2-1.6-0.5-2.4l1.1-0.3
		c-0.3-0.8-0.6-1.6-1-2.4l-1,0.5c-0.4-0.7-0.9-1.4-1.4-2l0.9-0.7c-0.5-0.6-1.1-1.2-1.8-1.8l-0.8,0.8c-0.6-0.5-1.3-0.9-2-1.3l0.5-0.9
		c-0.8-0.4-1.6-0.7-2.4-1l-0.3,1c-0.7-0.2-1.5-0.4-2.3-0.4l-0.2,2.3c5,0.5,8.9,4.7,8.9,9.8c0,3.3-1.6,6.1-4,7.9
		c-4.7-3.4-10.2-7.7-10.3-9.6c-2.1,4,0.5,6.4,2.2,7.3c2.3,1.3,4.2,2.3,6.1,3.5c-1.2,0.5-2.5,0.8-3.9,0.8c-2.4,0-4.6-0.9-6.3-2.3
		l-1.5,1.8c0.6,0.5,1.3,0.9,2,1.3l-0.5,1c0.8,0.4,1.6,0.7,2.4,1l0.3-1c0.8,0.2,1.6,0.4,2.4,0.5l-0.1,1.1c0.9,0.1,1.7,0.1,2.6,0
		l-0.1-1.1c0.8-0.1,1.6-0.2,2.3-0.5l0.3,1c0.8-0.3,1.6-0.6,2.4-1l-0.5-1c0.2-0.1,0.3-0.2,0.5-0.3C35.7,30.3,36.8,30.9,37.9,31.7z"/>
</g>
</svg>
