<?xml version="1.0" encoding="utf-8"?>
<!-- Generator: Adobe Illustrator 20.0.0, SVG Export Plug-In . SVG Version: 6.00 Build 0)  -->
<svg version="1.1" id="Layer_1" xmlns="http://www.w3.org/2000/svg" xmlns:xlink="http://www.w3.org/1999/xlink" x="0px" y="0px"
	 viewBox="0 0 64 42" style="enable-background:new 0 0 64 42;" xml:space="preserve">
<style type="text/css">
	.st0{fill:#FFFFFF;}
	.st1{fill:none;}
	.st2{fill:#1EB53A;}
	.st3{fill:#CE1126;}
	.st4{fill:#CE1126;stroke:#1EB53A;stroke-width:0.5;}
</style>
<path id="Rounded_Rectangle_7_copy_1_" class="st0" d="M5.8,0h52.3C61.4,0,64,2.6,64,5.7v30.6c0,3.2-2.6,5.7-5.8,5.7H5.8
	C2.6,42,0,39.4,0,36.3V5.7C0,2.6,2.6,0,5.8,0z"/>
<path class="st1" d="M63,2.6c-0.3-0.5-0.7-0.9-1.2-1.3L32,19L2.1,1.3C1.7,1.7,1.3,2.1,1,2.6L32,21L63,2.6z"/>
<path class="st1" d="M61.9,40.7c0.5-0.4,0.8-0.8,1.2-1.3L32,21L1,39.4c0.3,0.5,0.7,0.9,1.2,1.3L32,23L61.9,40.7z"/>
<path class="st2" d="M1,2.6c-0.6,0.9-1,2-1,3.1v30.6c0,1.1,0.4,2.2,1,3.1L32,21L1,2.6z"/>
<path class="st2" d="M63.1,39.4c0.6-0.9,0.9-2,0.9-3.1V5.7c0-1.1-0.4-2.2-1-3.1L32,21L63.1,39.4z"/>
<path class="st3" d="M32,23L2.2,40.7c1,0.8,2.3,1.3,3.6,1.3h52.4c1.4,0,2.7-0.5,3.7-1.3L32,23z"/>
<path class="st3" d="M61.8,1.3c-1-0.8-2.3-1.3-3.7-1.3H5.8C4.4,0,3.1,0.5,2.1,1.3L32,19L61.8,1.3z"/>
<g>
	<circle class="st0" cx="32" cy="21" r="12.9"/>
	<polygon class="st4" points="32,11.7 33,13.5 35,13.5 34,15.2 35,16.9 33,16.9 32,18.6 31,16.9 29,16.9 30,15.2 29,13.5 31,13.5 	
		"/>
	<polygon class="st4" points="37.8,21 38.7,22.7 40.7,22.7 39.7,24.5 40.7,26.2 38.7,26.2 37.8,27.9 36.8,26.2 34.8,26.2 35.8,24.5 
		34.8,22.7 36.8,22.7 	"/>
	<polygon class="st4" points="26.2,21 27.2,22.7 29.2,22.7 28.2,24.5 29.2,26.2 27.2,26.2 26.2,27.9 25.3,26.2 23.3,26.2 24.3,24.5 
		23.3,22.7 25.3,22.7 	"/>
</g>
</svg>
