<?xml version="1.0" encoding="utf-8"?>
<!-- Generator: Adobe Illustrator 20.0.0, SVG Export Plug-In . SVG Version: 6.00 Build 0)  -->
<svg version="1.1" id="Layer_1" xmlns="http://www.w3.org/2000/svg" xmlns:xlink="http://www.w3.org/1999/xlink" x="0px" y="0px"
	 viewBox="0 0 64 42" style="enable-background:new 0 0 64 42;" xml:space="preserve">
<style type="text/css">
	.st0{fill:#003791;}
	.st1{fill:#FFFFFF;}
	.st2{fill:#CB1126;}
	.st3{fill:#FFCC00;}
</style>
<path id="Rounded_Rectangle_7_copy" class="st0" d="M5.8,0h52.3C61.4,0,64,2.6,64,5.7v30.6c0,3.2-2.6,5.7-5.8,5.7H5.8
	C2.6,42,0,39.4,0,36.3V5.7C0,2.6,2.6,0,5.8,0z"/>
<rect y="24" class="st1" width="64" height="10"/>
<rect y="27" class="st2" width="64" height="4"/>
<g>
	<polygon class="st3" points="24.2,16.4 24.6,17.6 25.9,17.6 24.8,18.3 25.2,19.5 24.2,18.8 23.2,19.5 23.6,18.3 22.6,17.6 
		23.8,17.6 	"/>
	<polygon class="st3" points="30.6,18.9 30.9,20.1 32.2,20.1 31.2,20.8 31.6,22 30.6,21.3 29.5,22 29.9,20.8 28.9,20.1 30.2,20.1 	
		"/>
	<polygon class="st3" points="33.4,23.6 33.8,24.8 35.1,24.8 34,25.6 34.4,26.8 33.4,26 32.4,26.8 32.8,25.6 31.7,24.8 33,24.8 	"/>
	<polygon class="st3" points="33.5,30.1 33.9,31.3 35.2,31.3 34.1,32 34.5,33.2 33.5,32.5 32.5,33.2 32.9,32 31.8,31.3 33.1,31.3 	
		"/>
	<polygon class="st3" points="31.4,34.9 31.8,36.1 33.1,36.1 32.1,36.8 32.5,38 31.4,37.3 30.4,38 30.8,36.8 29.8,36.1 31,36.1 	"/>
	<polygon class="st3" points="18,18.8 17.6,20 16.3,20 17.4,20.7 17,21.9 18,21.2 19,21.9 18.6,20.7 19.7,20 18.4,20 	"/>
	<polygon class="st3" points="15.2,23.5 14.8,24.7 13.5,24.7 14.5,25.5 14.1,26.7 15.2,25.9 16.2,26.7 15.8,25.5 16.8,24.7 
		15.6,24.7 	"/>
	<polygon class="st3" points="15.1,29.9 14.7,31.2 13.4,31.2 14.4,31.9 14,33.1 15.1,32.3 16.1,33.1 15.7,31.9 16.7,31.2 15.4,31.2 
			"/>
	<polygon class="st3" points="17.1,34.7 16.7,36 15.5,35.9 16.5,36.7 16.1,37.9 17.1,37.1 18.2,37.9 17.8,36.7 18.8,35.9 17.5,36 	
		"/>
	<polygon class="st3" points="24.5,36.8 24.9,38 26.2,38 25.2,38.7 25.6,39.9 24.5,39.2 23.5,39.9 23.9,38.7 22.9,38 24.2,38 	"/>
</g>
</svg>
