<?xml version="1.0" encoding="utf-8"?>
<!-- Generator: Adobe Illustrator 20.0.0, SVG Export Plug-In . SVG Version: 6.00 Build 0)  -->
<svg version="1.1" id="Layer_1" xmlns="http://www.w3.org/2000/svg" xmlns:xlink="http://www.w3.org/1999/xlink" x="0px" y="0px"
	 viewBox="0 0 64 42" style="enable-background:new 0 0 64 42;" xml:space="preserve">
<style type="text/css">
	.st0{fill:#002E7F;}
	.st1{fill:#FFCE00;}
	.st2{fill:#FFFFFF;}
	.st3{fill:#289728;}
	.st4{fill:#D21034;}
</style>
<path id="Rounded_Rectangle_7_copy_1_" class="st0" d="M5.8,0h52.3C61.4,0,64,2.6,64,5.7v30.6c0,3.2-2.6,5.7-5.8,5.7H5.8
	C2.6,42,0,39.4,0,36.3V5.7C0,2.6,2.6,0,5.8,0z"/>
<path class="st1" d="M0,36.3C0,39.4,2.6,42,5.8,42h52.4c3.2,0,5.8-2.5,5.8-5.7V10.5H0V36.3z"/>
<rect y="10.5" class="st2" width="64" height="10.5"/>
<rect y="21" class="st3" width="64" height="10.5"/>
<path class="st1" d="M5.4,4.4h3.3l1-3.2l1,3.2H14l-2.7,2l1,3.2l-2.7-2l-2.7,2l1-3.2L5.4,4.4z"/>
<rect x="26.7" y="0" class="st4" width="10.5" height="42"/>
</svg>
