<?xml version="1.0" encoding="utf-8"?>
<!-- Generator: Adobe Illustrator 20.0.0, SVG Export Plug-In . SVG Version: 6.00 Build 0)  -->
<svg version="1.1" id="Layer_1" xmlns="http://www.w3.org/2000/svg" xmlns:xlink="http://www.w3.org/1999/xlink" x="0px" y="0px"
	 viewBox="0 0 64 42" style="enable-background:new 0 0 64 42;" xml:space="preserve">
<style type="text/css">
	.st0{fill:#EDB81C;}
	.st1{fill:#356DB7;}
	.st2{fill:#FFFFFF;}
	.st3{fill:#CC1126;}
	.st4{fill:#3D8E33;}
</style>
<path id="Rounded_Rectangle_7_copy_1_" class="st0" d="M5.8,0h52.3C61.4,0,64,2.6,64,5.7v30.6c0,3.2-2.6,5.7-5.8,5.7H5.8
	C2.6,42,0,39.4,0,36.3V5.7C0,2.6,2.6,0,5.8,0z"/>
<path class="st1" d="M0,36.3C0,39.4,2.6,42,5.8,42h52.4c3.2,0,5.8-2.5,5.8-5.7V10.5H0V36.3z"/>
<rect y="10.5" class="st2" width="64" height="10.5"/>
<rect y="21" class="st3" width="64" height="10.5"/>
<path class="st4" d="M1,2.6c-0.6,0.9-1,2-1,3.1v30.6c0,1.1,0.4,2.2,1,3.1L32,21L1,2.6z"/>
<path class="st2" d="M5.9,21c0-3.7,1.8-6.9,4.4-8.4c-4.4,0.3-7.9,3.9-7.9,8.4s3.5,8.1,7.9,8.4C7.7,27.9,5.9,24.7,5.9,21z"/>
<path class="st2" d="M8.7,14.6h1.4l0.4-1.4l0.5,1.4h1.4l-1.1,0.9l0.5,1.4l-1.2-0.8L9.5,17l0.4-1.4L8.7,14.6z"/>
<path class="st2" d="M9.4,18.8h1.4l0.4-1.4l0.5,1.4h1.4L12,19.7l0.5,1.4l-1.2-0.8L10.1,21l0.4-1.4L9.4,18.8z"/>
<path class="st2" d="M9.7,22.7h1.4l0.4-1.4l0.5,1.4h1.4l-1.1,0.9l0.5,1.4l-1.2-1l-1.1,0.9l0.4-1.4L9.7,22.7z"/>
<path class="st2" d="M9.5,26.4l1.4,0.1l0.5-1.3l0.3,1.4l1.4,0.1L12,27.4l0.3,1.4l-1.1-0.9L10,28.7l0.5-1.3L9.5,26.4z"/>
</svg>
