<?xml version="1.0" encoding="utf-8"?>
<!-- Generator: Adobe Illustrator 20.0.0, SVG Export Plug-In . SVG Version: 6.00 Build 0)  -->
<svg version="1.1" id="Layer_1" xmlns="http://www.w3.org/2000/svg" xmlns:xlink="http://www.w3.org/1999/xlink" x="0px" y="0px"
	 viewBox="0 0 64 42" style="enable-background:new 0 0 64 42;" xml:space="preserve">
<style type="text/css">
	.st0{fill:#00A3DD;}
	.st1{fill:#F2D218;}
	.st2{fill:#CB1020;}
</style>
<path id="Rounded_Rectangle_7_copy_1_" class="st0" d="M5.8,0h52.3C61.4,0,64,2.6,64,5.7v30.6c0,3.2-2.6,5.7-5.8,5.7H5.8
	C2.6,42,0,39.4,0,36.3V5.7C0,2.6,2.6,0,5.8,0z"/>
<path class="st1" d="M58.1,0H52L0,30.9v5.4C0,39.4,2.6,42,5.8,42H12l52-30.9V5.7C64,2.6,61.4,0,58.1,0z"/>
<path class="st2" d="M58.5,0L0,34.7v1.6c0,3,2.5,5.5,5.5,5.7L64,7.3V5.7C64,2.7,61.6,0.2,58.5,0z"/>
<polygon class="st1" points="7.6,2.1 8.9,6.1 13.1,6.1 9.7,8.5 11,12.5 7.6,10 4.2,12.5 5.5,8.5 2.1,6.1 6.3,6.1 "/>
</svg>
