<?xml version="1.0" encoding="utf-8"?>
<!-- Generator: Adobe Illustrator 20.0.0, SVG Export Plug-In . SVG Version: 6.00 Build 0)  -->
<svg version="1.1" id="Layer_1" xmlns="http://www.w3.org/2000/svg" xmlns:xlink="http://www.w3.org/1999/xlink" x="0px" y="0px"
	 viewBox="0 0 64 42" style="enable-background:new 0 0 64 42;" xml:space="preserve">
<style type="text/css">
	.st0{fill:#CE1126;}
	.st1{fill:#FFFFFF;}
	.st2{fill:#FCD327;}
</style>
<path id="Rounded_Rectangle_7_copy_1_" class="st0" d="M5.8,0h52.3C61.4,0,64,2.6,64,5.7v30.6c0,3.2-2.6,5.7-5.8,5.7H5.8
	C2.6,42,0,39.4,0,36.3V5.7C0,2.6,2.6,0,5.8,0z"/>
<path d="M0,36.3C0,39.4,2.6,42,5.8,42h52.4c3.2,0,5.8-2.5,5.8-5.7V14H0V36.3z"/>
<rect y="14" class="st1" width="64" height="14"/>
<path class="st2" d="M36.6,25.4L36.6,25.4l-0.1-2.6l-0.2-5c0-1.2-1.1-0.9-1.8-0.5c-0.4,0.3-0.9,0.4-1.3,0.4c-0.2-0.3-0.4-1-0.3-1.5
	c0-0.5,0-0.8-0.1-0.9h0c0,0,0,0,0,0c0-0.1-0.1-0.1-0.1-0.1c0,0,0,0,0,0c0,0,0,0,0,0l0,0c-0.1-0.1-0.6-0.2-0.8-0.3
	c-0.2,0-0.1,0.1-0.1,0.1c-0.3-0.1-0.6-0.1-0.7,0c0,0-0.1,0.1-0.1,0.1c0,0,0,0,0,0l0,0c0,0,0,0,0,0c0,0.1,0,0.3,0,0.3c0,0,0,0,0,0
	l0,0c0.2-0.2,0.4,0,0.5,0.2c0,0,0.1,0.1,0.1,0.2c0,0.2,0,0.6-0.1,1c-0.1,0.4-0.3,0.7-0.5,1c-0.5,0-0.9-0.1-1.3-0.4
	c-0.7-0.4-1.7-0.7-1.8,0.5c0,0,0,0,0,0l-0.3,7.6l0,0v0l0,0l0.5-0.4l0,0l0.2-0.1l0,0l0.1-0.1l1.4-1.3l0.3-0.3L29.4,25
	c-0.1,0-0.2-0.1-0.3-0.1c-0.1,0-0.1,0-0.2,0.1c-0.3,0-0.4,0.3-0.3,0.5c0,0,0,0,0.1,0c0,0.1-0.1,0.1-0.1,0.2
	c-0.3-0.1-0.3,0.4-0.5,0.3c0.2,0,0.1,0.4,0.4,0.5c0,0.2,0,0.4,0.3,0.4c0.7,0.2,2,0.3,3.3,0.3c1.3,0,2.6-0.1,3.3-0.3
	c0.3-0.1,0.3-0.2,0.3-0.4c0.3-0.1,0.2-0.5,0.4-0.5c-0.2,0.1-0.3-0.4-0.5-0.3c0-0.1,0-0.1-0.1-0.2c0,0,0,0,0.1,0
	c0.1-0.2,0-0.5-0.3-0.5c-0.1,0-0.1-0.1-0.2-0.1c-0.1,0-0.2,0.1-0.3,0.1l-0.5-1.9l0.4,0.3l0,0l0.2,0.2l0,0l0.4,0.4l0,0l0.5,0.5
	l0.2,0.2l0,0l0.2,0.1l0,0L36.6,25.4L36.6,25.4L36.6,25.4z M31.7,25.5C31.7,25.5,31.7,25.5,31.7,25.5C31.7,25.5,31.7,25.5,31.7,25.5z
	 M31.7,25.4C31.7,25.4,31.7,25.4,31.7,25.4c0,0-0.1-0.1-0.2-0.1c-0.1,0-0.3,0-0.4,0l0.1-0.4l0.2,0.2l0.2-0.2l0.3-2.2c0,0,0,0,0,0
	L31.8,25l0.2,0.3l0.2-0.3l-0.1-2.2c0,0,0,0,0,0l0.3,2.2l0.2,0.2l0.2-0.2l0.1,0.4c-0.1,0-0.3,0-0.4,0c-0.1,0-0.2,0.1-0.2,0.2
	c0,0,0,0,0-0.1c-0.2,0-0.2,0.1-0.2,0.3c0,0-0.1,0-0.1,0c0,0-0.1,0-0.1,0C31.9,25.5,31.8,25.4,31.7,25.4z M32.3,25.5
	C32.3,25.5,32.3,25.5,32.3,25.5C32.3,25.5,32.3,25.5,32.3,25.5z M31.5,15.7C31.5,15.7,31.5,15.7,31.5,15.7
	C31.5,15.7,31.5,15.7,31.5,15.7z M29.9,23.1L29.9,23.1L29.9,23.1L29.9,23.1z M28.8,25.3C28.8,25.3,28.8,25.3,28.8,25.3
	C28.9,25.3,28.9,25.3,28.8,25.3C28.9,25.3,28.8,25.3,28.8,25.3C28.8,25.3,28.8,25.3,28.8,25.3z M35.1,25.3
	C35.1,25.3,35.1,25.3,35.1,25.3C35.2,25.3,35.2,25.3,35.1,25.3c0.1,0,0.1,0,0.1,0C35.2,25.3,35.1,25.3,35.1,25.3z M34.1,23.2l0-0.1
	L34.1,23.2L34.1,23.2z"/>
</svg>
