<?xml version="1.0" encoding="utf-8"?>
<!-- Generator: Adobe Illustrator 20.0.0, SVG Export Plug-In . SVG Version: 6.00 Build 0)  -->
<svg version="1.1" id="Layer_1" xmlns="http://www.w3.org/2000/svg" xmlns:xlink="http://www.w3.org/1999/xlink" x="0px" y="0px"
	 viewBox="0 0 64 42" style="enable-background:new 0 0 64 42;" xml:space="preserve">
<style type="text/css">
	.st0{fill:#0073CE;}
	.st1{fill:#3E9800;}
	.st2{fill:#F5F7FA;}
	.st3{fill:#E32118;}
	.st4{fill:#F5F7FA;stroke:#222222;stroke-width:0.1;}
	.st5{fill:#73452B;}
	.st6{fill:#A36629;}
	.st7{fill:none;}
	.st8{fill:#57A863;}
	.st9{fill:#FFFFFF;stroke:#000000;stroke-width:0.1;stroke-miterlimit:10;}
	.st10{fill:#F6D660;}
</style>
<path id="Rounded_Rectangle_7_copy_2_" class="st0" d="M5.8,0h52.3C61.4,0,64,2.6,64,5.7v30.6c0,3.2-2.6,5.7-5.8,5.7H5.8
	C2.6,42,0,39.4,0,36.3V5.7C0,2.6,2.6,0,5.8,0z"/>
<path class="st1" d="M58.1,0H5.8C4.4,0,3.1,0.5,2.1,1.4c6.1,6.4,12.2,12.9,18.3,19.3C14.3,27.4,8.2,34,2.1,40.6
	c1,0.8,2.3,1.4,3.7,1.4h52.4c3.2,0,5.8-2.5,5.8-5.7V5.7C64,2.6,61.4,0,58.1,0z"/>
<path class="st2" d="M20.4,20.7C14.3,27.4,8.2,34,2.1,40.6c1,0.8,2.3,1.4,3.7,1.4h52.4c3.2,0,5.8-2.5,5.8-5.7V14H14
	C16.1,16.2,18.3,18.5,20.4,20.7z"/>
<path class="st3" d="M2.1,40.6c1,0.8,2.3,1.4,3.7,1.4h52.4c3.2,0,5.8-2.5,5.8-5.7V28H13.7C9.8,32.2,5.9,36.4,2.1,40.6z"/>
<path class="st4" d="M31,18.2h5.5V24c0,2-2.5,0.4-2.8,1.5c-0.4-1.1-2.8,0.5-2.8-1.6C31,21.9,31,18.2,31,18.2L31,18.2z"/>
<path class="st5" d="M34.2,24.5c0,0-0.1,0.1-0.2,0c-0.1-0.1-0.1-3.7-0.1-3.7c0.3-0.3,0.5-0.4,0.5-0.4l0.2,0.1
	c-0.7,0.3-0.6,0.8-0.5,1.6c0,0.3,0,0.7,0.1,1.1c0.1,0.5,0.3,0.9,0.3,1.2C34.4,24.7,34.2,24.5,34.2,24.5L34.2,24.5z"/>
<path class="st5" d="M33.7,20.4H34c-0.2,2.1,0,3.3,0,4c0,0.2,0.1,0.3,0.1,0.3c-0.3,0.3-0.4,0-0.4,0L33.7,20.4L33.7,20.4z"/>
<path class="st6" d="M33.3,24.5c-0.2,0.1-0.3-0.1-0.3-0.1c0.5-1.1,0.8-3.5,0.3-3.7v-0.2c0.2,0.1,0.4,0.3,0.4,0.3
	c0.1,2.7,0,3.8,0,3.8C33.4,24.9,33.3,24.5,33.3,24.5"/>
<path class="st7" d="M33.3,24.5c0-0.2,0.4-0.8,0.3-1.4"/>
<path class="st7" d="M34,23.5c0.1,0.4,0.2,0.7,0.2,1"/>
<path class="st8" d="M34.6,19.4c0.1-0.1,0.1-0.1,0.2-0.1c0-0.2,0.4-0.2,0.4,0.1c0.3-0.1,0.3,0.1,0.2,0.3c0.3-0.1,0.5,0,0.4,0.3
	c0.5,0.1,0.3,0.5,0.1,0.6c0,0.2-0.2,0.3-0.5,0.2c-0.3,0.2-0.6,0.2-0.7-0.1c-0.4,0.1-0.4,0-0.6-0.2c-0.3,0.1-0.4,0.1-0.6,0
	c0,0.2-0.1,0.1-0.2,0.1c0,0.3-0.1,0.4-0.3,0.3c0.2,0.4-0.3,0.5-0.5,0.2c-0.2,0-0.2,0-0.3-0.1c-0.1,0.3-0.4,0.2-0.5,0.1
	c-0.3-0.2-0.3-0.4,0.1-0.4c0-0.2,0.2-0.2,0.4-0.2c0-0.1,0.1-0.1,0.2-0.1c0-0.1,0-0.2,0.1-0.2c-0.2-0.2-0.1-0.3,0.1-0.4
	c-0.1-0.2,0.1-0.2,0.2-0.2c0-0.2,0.1-0.3,0.3-0.3c0-0.1,0-0.2,0.2-0.2c-0.1-0.2,0-0.3,0.3-0.3c0-0.4,0.8-0.2,0.8,0.3
	C34.5,19.2,34.5,19.2,34.6,19.4L34.6,19.4z"/>
<g>
	<path class="st7" d="M33,19.2c0.1,0,0.1,0,0.1,0.2c0.1-0.2,0.3-0.1,0.3,0.1"/>
	<path class="st7" d="M34.2,19c-0.1,0.1-0.3,0.1-0.2,0.3c-0.1-0.1-0.2-0.1-0.3,0"/>
	<path class="st7" d="M34.6,19.4c0,0.1,0,0.2-0.1,0.3"/>
	<path class="st7" d="M35.5,19.5c0,0-0.2,0-0.3,0.1"/>
	<path class="st7" d="M36,20.5c-0.1,0-0.2-0.1-0.3,0c0-0.1,0-0.2-0.2-0.2"/>
	<path class="st7" d="M35.5,20.7c0-0.1,0-0.2-0.1-0.2"/>
	<path class="st7" d="M35,20.5c-0.1-0.1-0.2,0-0.2,0.1"/>
	<path class="st7" d="M34.2,20.4c0-0.1,0-0.2,0.1-0.2"/>
	<path class="st7" d="M32.5,21c0-0.1,0.1-0.1,0.1-0.2s-0.1-0.2-0.3-0.1"/>
	<path class="st7" d="M32.7,20.8c0.1,0,0.2,0,0.2,0"/>
	<path class="st7" d="M32.4,20.2c0.1-0.1,0.2,0,0.3,0"/>
	<path class="st7" d="M32.7,19.9c0.1,0,0.2,0,0.2,0.1c0.2-0.2,0.3-0.2,0.3-0.2"/>
	<path class="st7" d="M33.5,19.8c0.1,0,0.3,0.1,0.4,0.3C34,19.8,34,20,34.1,20"/>
	<path class="st7" d="M34.8,20c0.2-0.1,0.3,0.1,0.4,0.2c0.1-0.1,0.2-0.1,0.2-0.1"/>
	<path class="st7" d="M33,20.4c0-0.1,0.1-0.1,0.2,0c0-0.1,0.1-0.2,0.1-0.2"/>
</g>
<path class="st9" d="M38.9,19.4"/>
<g>
	<polygon class="st10" points="31,17.1 31.1,17.3 31.3,17.3 31.2,17.5 31.3,17.7 31.1,17.7 31,17.9 30.9,17.7 30.6,17.7 30.8,17.5 
		30.6,17.3 30.9,17.3 	"/>
	<polygon class="st10" points="31.9,16.8 32,17 32.2,17 32.1,17.2 32.2,17.4 32,17.4 31.9,17.6 31.8,17.4 31.6,17.4 31.7,17.2 
		31.6,17 31.8,17 	"/>
	<polygon class="st10" points="33.1,16.6 33.2,16.8 33.4,16.8 33.3,17 33.4,17.2 33.2,17.2 33.1,17.3 33,17.2 32.8,17.2 32.9,17 
		32.8,16.8 33,16.8 	"/>
	<polygon class="st10" points="34.5,16.6 34.6,16.8 34.8,16.8 34.7,17 34.8,17.2 34.6,17.2 34.5,17.4 34.4,17.2 34.2,17.2 34.3,17 
		34.2,16.8 34.4,16.8 	"/>
	<polygon class="st10" points="35.8,16.8 35.9,17 36.1,17 36,17.2 36.1,17.4 35.9,17.4 35.8,17.6 35.7,17.4 35.4,17.4 35.6,17.2 
		35.4,17 35.7,17 	"/>
	<polygon class="st10" points="36.7,17.1 36.8,17.3 37,17.3 36.9,17.5 37,17.7 36.8,17.7 36.7,17.9 36.6,17.7 36.3,17.7 36.5,17.5 
		36.3,17.3 36.6,17.3 	"/>
</g>
</svg>
