<?xml version="1.0" encoding="utf-8"?>
<!-- Generator: Adobe Illustrator 20.0.0, SVG Export Plug-In . SVG Version: 6.00 Build 0)  -->
<svg version="1.1" id="Layer_1" xmlns="http://www.w3.org/2000/svg" xmlns:xlink="http://www.w3.org/1999/xlink" x="0px" y="0px"
	 viewBox="0 0 64 42" style="enable-background:new 0 0 64 42;" xml:space="preserve">
<style type="text/css">
	.st0{fill:#3F88DB;}
	.st1{fill:#12AD2B;}
	.st2{fill:#EA0437;}
	.st3{fill:#FFC726;}
</style>
<path id="Rounded_Rectangle_7_copy_1_" class="st0" d="M5.8,0h52.3C61.4,0,64,2.6,64,5.7v30.6c0,3.2-2.6,5.7-5.8,5.7H5.8
	C2.6,42,0,39.4,0,36.3V5.7C0,2.6,2.6,0,5.8,0z"/>
<path class="st1" d="M58.1,0H5.8C2.6,0,0,2.6,0,5.7V21h64V5.7C64,2.6,61.4,0,58.1,0z"/>
<path class="st2" d="M0,5.7v30.6c0,2,1.1,3.8,2.7,4.8C23.1,34.4,43.6,27.7,64,21C43.6,14.3,23.1,7.6,2.7,0.9C1.1,1.9,0,3.7,0,5.7z"
	/>
<path class="st3" d="M16.8,29.7c-0.8,0.2-1.2,0.8-1.2,1.4h3.8c0-0.6-0.5-1.2-1.2-1.4c3.7-0.1,7-1.5,7.6-2.4
	c-0.6-0.3-1.3,0.2-1.7,0.1c1.1-0.5,4.6-2.8,4-5.1c-0.4,1.3-1.7,2.4-2.3,2.7c1.3-1.9,3-4,1.5-5.5c0.1,0.9-0.6,1.9-0.9,2
	c0.7-2.1,1.5-4.6-0.2-6.3c0.2,0.6,0.1,2.4-0.2,2.4c-0.1-1.4-0.3-4.3-1.8-4.3c0.5,0.4,0.7,1.6,0.7,2.7c-0.3-0.8-0.7-1.4-1.5-2
	c-0.7-1.3-1.8-2.3-3-3.1c0.1,0.9,0.2,1.6,1.5,2.6c-0.7,0-1.3-1.3-2.1-1.3c-0.6,0-1,0.5-2,0.2c0.1,0.3,0.5,0.4,0.6,0.7
	c-0.2,0.1-0.7,0-1.1-0.2c0.5,0.7,1.4,1.2,2.1,1c0.8-0.2,1.8-0.1,2.6,0.4c-0.2,0.1-1.1,0.1-1.6,0c0.5,0.5,0.8,0.8,1.7,0.8
	c0.8,0,1.2-0.4,1.4-0.2c0.5,0.6,0.8,1.2,1.2,1.8c-0.9,0.1-0.6-1-1.6-1.6c-0.6,1.2,0.7,2.6,1.5,3.1c0,0.9,0.1,1.6,0.5,2.3
	c0.3,0.5,0.6,1,0.5,2c-0.5-0.4-1-1.6-0.8-2.5c-0.6,0.2-0.9,1.3-0.6,1.8c0.2,0.4,0.4,1.2,0.1,1.6c-0.2,0.3-0.3,0.3-0.3,1
	c0,0.4-0.2,0.9-0.6,1.3c0.1-0.3,0.2-0.8,0.1-1.1c-0.3,0.5-1.1,1.1-1.3,1.6C22,26.8,22,27.8,20.8,28c-1.5,0.3-2,0.6-3,0.9
	c-0.1-0.7,0.2-2.2,0.8-2.2c0.6,0.1,2.4-0.6,1.8-2.1c-0.1,0.5-0.6,0.9-1,1c0.5-0.6,1.4-1.3,0.9-2.4c-0.2,0.5-0.6,1-1.2,1.3
	c0.6-1.2,0.1-1.5-0.7-0.6C18.1,24.3,18,25,17.8,26c-0.3-0.8-0.3-1.8-0.6-2.6c-0.4-0.9,0.5-1.1,0.9-1.1c0.9,0.3,2.5,0.3,2.4-1.3
	c-0.4,0.5-1.1,0.7-1.9,0.5c0.9-0.6,1.6-1.8,0.6-2.5c0,0.7-0.5,1.4-1.2,1.7c-0.2-0.6-0.2-1.2,0-1.8c-0.4,0.4-0.7,1.2-0.9,2.2
	c0-0.9,0.2-1.6,0.3-2.1c0.2-0.7,0.7-0.3,1.5-0.2c0.7,0,1.7-0.4,1.5-1.4c-0.3,0.4-0.8,0.5-1.3,0.5c0.6-0.4,1.7-1.1,1.1-2.1
	c-0.3,0.4-0.3,0.7-1.1,0.9c0.2-0.4,0.2-1.1,0.8-1.3c-1-0.2-1.6,0.5-1.9,1.5c-0.1-0.7-0.3-1-0.3-1.5c0.5-0.6,0.6-1.8-0.6-2.1
	c-0.1,0.6,0,0.8,0.1,1.3c-0.6-0.3-1.3-0.5-1.9,0c0.4,0.4,0.9,0.7,1.8,0.3c-0.2,0.7-0.7,0.5-1.4,0.3c0.4,0.8,1,1,1.6,0.9
	c0.3,0.8,0.3,1.5-0.6,2.7c0-0.8,0-1.3-0.6-1.9c-0.5-0.5-0.9,0-0.1,1.1c-0.5-0.4-1-1.1-1.2-1.8c-0.2,0.9,0,2,0.5,2.6
	c-0.2,0.3-0.5,0-0.9-0.6c0.2,2,1,2.4,2.1,1.9c0,1.1,0,2.1,0.1,3.4c-0.7-1-1.5-1.7-2-1.8c-0.1,0.5,0.4,1.2,0.7,1.6
	c-0.5-0.1-1.5-0.9-1.5-0.9c-0.1,0.9,1,1.7,1.8,2.1c-0.9,0-1.3-0.4-1.8-0.9c0,2.5,2.7,2,3.2,1.7c0.1,1.2,0.2,2.6,0.2,3.8
	c-0.7-0.1-0.7-0.4-1.3-0.4c-1.8-0.1-3.2-2.1-3.7-3.7c-0.1,0.2,0,0.5-0.2,0.8c-0.3-0.7-0.7-1.7-1.2-2.2c0.1,0.4,0.1,0.9,0.1,1.7
	c-0.2-0.5-0.3-0.7-0.3-1.3c0-0.5,0.5-0.8,0.4-1.5c0-0.5-0.5-1.5-0.5-2.4c-0.2,0.8-0.4,1.7-0.7,2.2c0.2-0.9,0.1-1.5,0.4-2.1
	c0.3-0.6,0.6-1.2,0.4-1.8c-0.2,0.2-0.1,0.5-0.6,1.1c-0.1-0.7,0.7-1.7,1.4-2.1c0.5-0.3,1.2-1.3,0.8-2c-0.5,0.4-0.7,0.8-1.4,1.7
	c0.5-2,1.8-2.5,3.4-2.5c0.3,0,1-0.1,1.2-0.6c-0.4,0.2-1,0.2-1.4,0.1c0.3-0.5,1-0.4,1.7-0.4c0.5,0,1.3-0.1,1.7-0.8
	c-0.6,0.3-1.6,0.3-2.2,0.1c1-0.5,2.5-0.6,3.3-1.2c-0.9-0.7-3.2,0.2-4.6,1.1c0.4-0.4,1-1,1.4-1.5c-0.8-0.4-2.8,1.8-3.4,3.1
	c-0.6,0.4-0.9,0.9-1.2,1.3c0.3-1.2,0.4-2,0.7-3C9,13.6,10,17.7,9.5,18.7c0.1-1.1,0-2.5-0.4-3.2C8.4,16,8.4,19.1,9,21.7
	c-0.2-0.7-0.7-1.3-0.8-2.2c-1,1.8,0.6,4,1.9,5.7c-1-0.5-2-1.7-2.7-2.6c0.2,3.3,3.6,4,4.2,4.8c-0.7-0.3-2.1-1-2.7-0.3
	c1,0.2,1.7,0.5,2.3,0.9C12.1,29.1,13.8,29.6,16.8,29.7L16.8,29.7z"/>
</svg>
