<?xml version="1.0" encoding="utf-8"?>
<!-- Generator: Adobe Illustrator 20.0.0, SVG Export Plug-In . SVG Version: 6.00 Build 0)  -->
<svg version="1.1" id="Layer_1" xmlns="http://www.w3.org/2000/svg" xmlns:xlink="http://www.w3.org/1999/xlink" x="0px" y="0px"
	 viewBox="0 0 64 42" style="enable-background:new 0 0 64 42;" xml:space="preserve">
<style type="text/css">
	.st0{fill:#00663D;}
	.st1{fill:#D53926;}
	.st2{fill:#F9DD16;}
	.st3{fill:#00A4DA;}
	.st4{stroke:#F9DD16;stroke-width:0.5;}
</style>
<path id="Rounded_Rectangle_7_copy_1_" class="st0" d="M5.8,0h52.3C61.4,0,64,2.6,64,5.7v30.6c0,3.2-2.6,5.7-5.8,5.7H5.8
	C2.6,42,0,39.4,0,36.3V5.7C0,2.6,2.6,0,5.8,0z"/>
<path class="st1" d="M0,36.3C0,39.4,2.6,42,5.8,42h52.4c3.2,0,5.8-2.5,5.8-5.7V14H0V36.3z"/>
<rect y="14" class="st2" width="64" height="14"/>
<circle class="st3" cx="32" cy="21" r="12.6"/>
<g>
	<path id="path12" class="st2" d="M22.4,17.9h7.4l1.7-5.1l0.4,1.4l-2.4,7.4L28.7,21l0.8-2.3h-5.9L22.4,17.9 M26.1,29.2l2.3-7L24,19
		h1.4l6.3,4.6L31,24.1l-2-1.4l-1.8,5.6L26.1,29.2 M37.9,29.2L32,24.8L27.6,28l0.4-1.4l6.3-4.6l0.3,0.8l-2,1.4l4.8,3.5L37.9,29.2
		 M41.6,17.9l-5.9,4.3l1.7,5.1l-1.2-0.8L33.8,19h0.9l0.8,2.3l4.8-3.5h1.3 M32,10.9l2.3,7h5.4l-1.2,0.8h-7.8l0.3-0.8h2.4l-1.8-5.6
		L32,10.9L32,10.9z"/>
	<path id="path14" class="st4" d="M32,25.7v5.5 M27.6,22.5l-5.2,1.7 M29.3,17.3l-3.2-4.4 M34.7,17.3l3.2-4.4 M36.4,22.5l5.2,1.7
		L36.4,22.5z"/>
</g>
</svg>
