<?xml version="1.0" encoding="utf-8"?>
<!-- Generator: Adobe Illustrator 20.0.0, SVG Export Plug-In . SVG Version: 6.00 Build 0)  -->
<svg version="1.1" id="Layer_1" xmlns="http://www.w3.org/2000/svg" xmlns:xlink="http://www.w3.org/1999/xlink" x="0px" y="0px"
	 viewBox="0 0 64 42" style="enable-background:new 0 0 64 42;" xml:space="preserve">
<style type="text/css">
	.st0{fill:#FFFFFF;}
	.st1{fill:#BB0000;}
	.st2{fill:#006600;}
	.st3{fill:#434A54;}
</style>
<path id="Rounded_Rectangle_7_copy_1_" d="M5.8,0h52.3C61.4,0,64,2.6,64,5.7v30.6c0,3.2-2.6,5.7-5.8,5.7H5.8C2.6,42,0,39.4,0,36.3
	V5.7C0,2.6,2.6,0,5.8,0z"/>
<rect y="12.5" class="st0" width="64" height="17"/>
<rect y="14.7" class="st1" width="64" height="12.5"/>
<path class="st2" d="M0,36.3C0,39.4,2.6,42,5.8,42h52.4c3.2,0,5.8-2.5,5.8-5.7v-6.8H0V36.3z"/>
<g>
	<path class="st0" d="M24.5,33.4l0.5,0.3l2.9-4.9c-0.1-0.2-0.2-0.4-0.3-0.6L24.5,33.4z"/>
	<path class="st0" d="M37.2,12.4c0.7-0.2,1.1-0.9,1.5-1.6c0.3-0.5,1.3-2.3,1.8-4.6c-1.8,1.6-2.9,3.4-3.1,3.9
		c-0.4,0.7-0.8,1.4-0.6,2.1L36.3,13c0.1,0.2,0.2,0.4,0.3,0.6L37.2,12.4z"/>
	<path class="st0" d="M39.1,33.7l0.5-0.3l-3-5.2c-0.1,0.2-0.2,0.4-0.3,0.6L39.1,33.7z"/>
	<path class="st0" d="M27.2,12.1c0.2-0.7-0.2-1.4-0.6-2.1c-0.3-0.5-1.3-2.3-3.1-3.9c0.5,2.4,1.5,4.2,1.8,4.6
		c0.4,0.7,0.8,1.4,1.5,1.6l0.6,1.1c0.1-0.2,0.2-0.4,0.3-0.6L27.2,12.1z"/>
	<path class="st1" d="M30.9,20.9c0-0.4,0.1-0.7,0.2-0.9l-3.7-6.5c-0.2,0.3-0.3,0.6-0.4,0.9L26.9,27c-0.7-2-1.2-4.1-1.2-6.1
		c0-2.1,0.5-4.2,1.3-6.3c0.8,2.1,1.3,4.2,1.3,6.3S27.8,25,27,27.1c0.1,0.3,0.3,0.7,0.5,1l3.6-6.3C31,21.6,30.9,21.3,30.9,20.9z"/>
	<path class="st1" d="M35.7,20.9c0-2.1,0.5-4.2,1.3-6.3c0.8,2.1,1.3,4.2,1.3,6.3c0,2-0.5,4.1-1.2,6.1L37,14.4
		c-0.1-0.3-0.2-0.6-0.4-0.9L32.8,20c0.1,0.3,0.2,0.6,0.2,0.9c0,0.4-0.1,0.7-0.2,0.9l3.6,6.3c0.2-0.4,0.3-0.7,0.5-1
		C36.2,25,35.7,23,35.7,20.9z"/>
	<path class="st1" d="M32,22.5c-0.2,0-0.3-0.1-0.5-0.2l-3.7,6.4c1,1.9,2.6,4.1,3.8,4.5c-0.3-0.6-0.9-2.5-0.9-5.3
		c0-3.4,1.1-5.5,1.1-5.5v10.8c0.1,0,0.2,0,0.3,0s0.2,0,0.3,0V22.4c0,0,1.1,2.1,1.1,5.5c0,2.7-0.7,4.6-0.9,5.3
		c1.2-0.4,2.8-2.6,3.8-4.5l-3.7-6.4C32.3,22.4,32.2,22.5,32,22.5z"/>
	<path class="st1" d="M32,19.3c0.2,0,0.3,0.1,0.5,0.2l3.8-6.6c-1.1-2.1-3.1-4.8-4.3-4.8s-3.2,2.7-4.3,4.8l3.8,6.6
		C31.7,19.4,31.8,19.3,32,19.3z M32.3,8.3c0,0,1.1,2.1,1.1,5.5s-1.1,5.5-1.1,5.5V8.3z M31.7,8.3v11c0,0-1.1-2.1-1.1-5.5
		S31.7,8.3,31.7,8.3z"/>
	<path class="st1" d="M32.8,20l3.7-6.5c-0.1-0.2-0.2-0.4-0.3-0.6l-3.8,6.6C32.6,19.6,32.8,19.8,32.8,20z"/>
	<path class="st1" d="M31.2,21.8l-3.6,6.3c0.1,0.2,0.2,0.4,0.3,0.6l3.7-6.4C31.4,22.2,31.2,22,31.2,21.8z"/>
	<path class="st1" d="M31.5,19.5l-3.8-6.6c-0.1,0.2-0.2,0.4-0.3,0.6l3.7,6.5C31.2,19.8,31.4,19.6,31.5,19.5z"/>
	<path class="st1" d="M32.5,22.3l3.7,6.4c0.1-0.2,0.2-0.4,0.3-0.6l-3.6-6.3C32.8,22,32.6,22.2,32.5,22.3z"/>
	<path class="st3" d="M37,27.1v0.1c0-0.1,0.1-0.1,0.1-0.2H37V27.1z"/>
	<path d="M37,14.6c-0.8,2.1-1.3,4.2-1.3,6.3s0.5,4.1,1.3,6.2V27h0.1c0.7-2,1.2-4.1,1.2-6.1C38.3,18.8,37.8,16.7,37,14.6z"/>
	<path d="M26.9,27c0,0.1,0.1,0.1,0.1,0.2v-0.1C27,27.1,27,27,26.9,27L26.9,27z"/>
	<path d="M27,14.6c-0.8,2.1-1.3,4.2-1.3,6.3c0,2,0.5,4.1,1.2,6.1H27v0.1c0.8-2.1,1.3-4.1,1.3-6.2S27.8,16.7,27,14.6z"/>
	<path class="st0" d="M32.5,19.5c-0.1-0.1-0.3-0.2-0.5-0.2s-0.3,0.1-0.5,0.2l0.5,0.9L32.5,19.5z"/>
	<path class="st0" d="M31.2,20c-0.1,0.3-0.2,0.6-0.2,0.9c0,0.4,0.1,0.7,0.2,0.9l0.5-0.9L31.2,20z"/>
	<path class="st0" d="M32.8,21.8c0.1-0.3,0.2-0.6,0.2-0.9c0-0.4-0.1-0.7-0.2-0.9l-0.5,0.9L32.8,21.8z"/>
	<path class="st0" d="M31.5,22.3c0.1,0.1,0.3,0.2,0.5,0.2s0.3-0.1,0.5-0.2L32,21.4L31.5,22.3z"/>
	<path class="st0" d="M32.5,19.5L32,20.4l0.3,0.5l0.5-0.9C32.8,19.8,32.6,19.6,32.5,19.5z"/>
	<path class="st0" d="M31.7,20.9l-0.5,0.9c0.1,0.2,0.2,0.3,0.3,0.5l0.5-0.9L31.7,20.9z"/>
	<path class="st0" d="M32,20.4l-0.5-0.9c-0.1,0.1-0.3,0.3-0.3,0.5l0.5,0.9L32,20.4z"/>
	<path class="st0" d="M32,21.4l0.5,0.9c0.1-0.1,0.3-0.3,0.3-0.5l-0.5-0.9L32,21.4z"/>
	<polygon class="st0" points="32,21.4 32.3,20.9 32,20.4 31.7,20.9 	"/>
	<path class="st0" d="M32.3,33.5c0,0,0-0.1,0.1-0.2h-0.1V33.5z"/>
	<path class="st0" d="M32.3,22.4v10.8h0.1c0.3-0.6,0.9-2.5,0.9-5.3C33.3,24.5,32.3,22.4,32.3,22.4z"/>
	<path class="st0" d="M31.7,8.3c0,0-1.1,2.1-1.1,5.5s1.1,5.5,1.1,5.5V8.3z"/>
	<path class="st0" d="M31.7,33.5v-0.2h-0.1C31.7,33.4,31.7,33.5,31.7,33.5z"/>
	<path class="st0" d="M30.7,28c0,2.7,0.7,4.6,0.9,5.3h0.1V22.4C31.7,22.4,30.7,24.5,30.7,28z"/>
	<path class="st0" d="M32.3,8.3v11c0,0,1.1-2.1,1.1-5.5S32.3,8.3,32.3,8.3z"/>
</g>
</svg>
