<?xml version="1.0" encoding="utf-8"?>
<!-- Generator: Adobe Illustrator 20.0.0, SVG Export Plug-In . SVG Version: 6.00 Build 0)  -->
<svg version="1.1" id="Layer_1" xmlns="http://www.w3.org/2000/svg" xmlns:xlink="http://www.w3.org/1999/xlink" x="0px" y="0px"
	 viewBox="0 0 64 42" style="enable-background:new 0 0 64 42;" xml:space="preserve">
<style type="text/css">
	.st0{fill:#00209D;}
	.st1{fill:#009242;}
	.st2{fill:#FFFFFF;}
</style>
<path id="Rounded_Rectangle_7_copy_1_" class="st0" d="M5.8,0h52.3C61.4,0,64,2.6,64,5.7v30.6c0,3.2-2.6,5.7-5.8,5.7H5.8
	C2.6,42,0,39.4,0,36.3V5.7C0,2.6,2.6,0,5.8,0z"/>
<path class="st1" d="M0,36.3C0,39.4,2.6,42,5.8,42h52.4c3.2,0,5.8-2.5,5.8-5.7V14H0V36.3z"/>
<rect y="14" class="st2" width="64" height="14"/>
<g transform="matrix(1.136951,0,0,1.136951,-30.56399,-28.2596)">
	<path id="path1873" d="M55,37.6c-0.2,0-0.4,0.2-0.4,0.2v2.1L54,40.6h0.5v1.2l-3.2,4.3L50.8,46L50,47.8c0,0,2.1,1.3,5,1.3
		c3.3,0,5.1-1.3,5.1-1.3L59.2,46l-0.4,0.2l-3.3-4.3v-1.3H56l-0.7-0.7v-2.1C55.3,37.8,55.2,37.6,55,37.6z"/>
	<path id="path2760" d="M56.1,42.7h-2.2c0,0-0.8-1.7-0.7-2.9S54,38,54.9,38c1.1,0,1.7,0.5,1.8,1.7C56.9,41,56.1,42.7,56.1,42.7z"/>
	<path id="path3649" d="M51.1,46.8l-0.3,0.6l0.5-0.1L51.1,46.8z"/>
	<path id="path3651" d="M51.4,47.4l-0.5,0.2l0.6,0.2L51.4,47.4z"/>
	<path id="path3653" d="M51.6,46.8l0.2,0.7l0.6-0.2L52.3,47L51.6,46.8z"/>
	<path id="path3655" d="M51.9,47.7L52,48l0.8,0.2l-0.3-0.7L51.9,47.7z"/>
	<path id="path3657" d="M52.8,47.1l0.3,0.7l0.6-0.2l-0.2-0.3L52.8,47.1z"/>
	<path id="path3659" d="M53.2,48l0.1,0.3l0.9,0.1l-0.4-0.6L53.2,48z"/>
	<path id="path3661" d="M54.1,47.3l0.3,0.6l0.9-0.3l-0.1-0.2L54.1,47.3z"/>
	<path id="path3663" d="M54.6,48.1l0.2,0.3h1.1l-0.4-0.6L54.6,48.1z"/>
	<path id="path3665" d="M55.7,47.3l0.3,0.5l0.7-0.3l-0.2-0.3L55.7,47.3z"/>
	<path id="path3667" d="M56.8,47.7L56.1,48l0.2,0.3l0.9-0.1L56.8,47.7z"/>
	<path id="path3669" d="M57.1,47.2l0.4,0.4l0.6-0.4L57.8,47L57.1,47.2z"/>
	<path id="path3671" d="M58.1,47.4l-0.5,0.4l0.1,0.3l0.8-0.2L58.1,47.4z"/>
	<path id="path3673" d="M58.8,46.6l0.1,0.2l-0.4,0.6l-0.4-0.5L58.8,46.6z"/>
	<path id="path3675" d="M59.1,47.1l0.2,0.5l-0.5,0.2v-0.2L59.1,47.1z"/>
</g>
</svg>
