<?xml version="1.0" encoding="utf-8"?>
<!-- Generator: Adobe Illustrator 20.0.0, SVG Export Plug-In . SVG Version: 6.00 Build 0)  -->
<svg version="1.1" id="Layer_1" xmlns="http://www.w3.org/2000/svg" xmlns:xlink="http://www.w3.org/1999/xlink" x="0px" y="0px"
	 viewBox="0 0 64 42" style="enable-background:new 0 0 64 42;" xml:space="preserve">
<style type="text/css">
	.st0{fill:#F5F7FA;}
	.st1{fill:#FFFFFF;}
	.st2{fill:#BF0A30;}
	.st3{fill:#002868;}
</style>
<path id="Rounded_Rectangle_7_copy_2_" class="st0" d="M5.8,0h52.3C61.4,0,64,2.6,64,5.7v30.6c0,3.2-2.6,5.7-5.8,5.7H5.8
	C2.6,42,0,39.4,0,36.3V5.7C0,2.6,2.6,0,5.8,0z"/>
<path id="Rounded_Rectangle_7_copy_1_" class="st0" d="M5.8,0h52.3C61.4,0,64,2.6,64,5.7v30.6c0,3.2-2.6,5.7-5.8,5.7H5.8
	C2.6,42,0,39.4,0,36.3V5.7C0,2.6,2.6,0,5.8,0z"/>
<rect y="26.6" class="st1" width="64" height="3.7"/>
<rect y="11.4" class="st1" width="64" height="3.8"/>
<path class="st1" d="M0,36.3c0,0.7,0.1,1.3,0.3,1.9h63.3c0.2-0.6,0.3-1.2,0.3-1.9v-2.2H0V36.3z"/>
<rect y="19" class="st1" width="64" height="3.8"/>
<path class="st1" d="M0,5.7v1.9h64V5.7c0-0.7-0.1-1.3-0.3-1.9H0.3C0.1,4.4,0,5,0,5.7z"/>
<path class="st2" d="M58.1,0H5.8C3.3,0,1.1,1.6,0.3,3.8h63.3C62.8,1.6,60.7,0,58.1,0z"/>
<path class="st2" d="M5.8,42h52.4c2.5,0,4.7-1.6,5.5-3.8H0.3C1.1,40.4,3.3,42,5.8,42z"/>
<rect y="30.3" class="st2" width="64" height="3.8"/>
<rect y="22.8" class="st2" width="64" height="3.8"/>
<rect y="15.2" class="st2" width="64" height="3.8"/>
<rect y="7.6" class="st2" width="64" height="3.8"/>
<path class="st3" d="M19.1,0H5.8C2.7,0,0.2,2.4,0,5.4V19h19.1V0z"/>
<polygon class="st1" points="9.4,2 11.1,7.3 16.7,7.3 12.2,10.6 14,15.9 9.4,12.6 4.9,15.9 6.7,10.6 2.1,7.3 7.7,7.3 "/>
</svg>
