<?xml version="1.0" encoding="utf-8"?>
<!-- Generator: Adobe Illustrator 20.0.0, SVG Export Plug-In . SVG Version: 6.00 Build 0)  -->
<svg version="1.1" id="Layer_1" xmlns="http://www.w3.org/2000/svg" xmlns:xlink="http://www.w3.org/1999/xlink" x="0px" y="0px"
	 viewBox="0 0 64 42" style="enable-background:new 0 0 64 42;" xml:space="preserve">
<style type="text/css">
	.st0{fill:#D50011;}
	.st1{fill:#1E8D3E;}
	.st2{fill:#FFFFFF;}
</style>
<path id="Rounded_Rectangle_7_copy_1_" class="st0" d="M5.8,0h52.3C61.4,0,64,2.6,64,5.7v30.6c0,3.2-2.6,5.7-5.8,5.7H5.8
	C2.6,42,0,39.4,0,36.3V5.7C0,2.6,2.6,0,5.8,0z"/>
<path class="st1" d="M0,36.3C0,39.4,2.6,42,5.8,42h52.4c3.2,0,5.8-2.5,5.8-5.7V14H0V36.3z"/>
<rect y="11.7" width="64" height="18.7"/>
<g>
	<path class="st2" d="M38.8,17.3c-2.1-3.5-6.6-4.8-10.2-2.7s-4.8,6.6-2.7,10.2s6.6,4.8,10.2,2.7c1.1-0.7,2.1-1.6,2.7-2.7
		c-2.1,2.6-5.8,3-8.4,0.9s-3-5.8-0.9-8.4s5.8-3,8.4-0.9C38.3,16.6,38.5,16.9,38.8,17.3 M39.1,21l-6.7-2.2l4.2,5.7v-7.1l-4.2,5.7
		L39.1,21z"/>
</g>
</svg>
