<?xml version="1.0" encoding="utf-8"?>
<!-- Generator: Adobe Illustrator 20.0.0, SVG Export Plug-In . SVG Version: 6.00 Build 0)  -->
<svg version="1.1" id="Layer_1" xmlns="http://www.w3.org/2000/svg" xmlns:xlink="http://www.w3.org/1999/xlink" x="0px" y="0px"
	 viewBox="0 0 64 42" style="enable-background:new 0 0 64 42;" xml:space="preserve">
<style type="text/css">
	.st0{fill:#319933;}
	.st1{fill:#CE1126;}
</style>
<path id="Rounded_Rectangle_7_copy_1_" d="M5.8,0h52.3C61.4,0,64,2.6,64,5.7v30.6c0,3.2-2.6,5.7-5.8,5.7H5.8C2.6,42,0,39.4,0,36.3
	V5.7C0,2.6,2.6,0,5.8,0z"/>
<path class="st0" d="M0,36.3C0,39.4,2.6,42,5.8,42h52.4c3.2,0,5.8-2.5,5.8-5.7V14H0V36.3z"/>
<rect y="14" class="st1" width="64" height="14"/>
<g>
	<path class="st1" d="M32.5,3.8c0-0.4-0.1-0.8-0.3-0.8c-0.3,0-0.3,0.4-0.3,0.8c0,0.9,0.1,1.4,0.3,2.7C32.4,5.2,32.5,4.7,32.5,3.8z"
		/>
	<path class="st1" d="M33.5,3.8c0-0.4,0-0.8-0.3-0.8s-0.4,0.4-0.4,0.7c-0.1,0.9,0,1.4,0.1,2.7C33.3,5.2,33.4,4.7,33.5,3.8z"/>
	<path class="st1" d="M34.5,4c0.1-0.4,0-0.8-0.2-0.8c-0.3,0-0.4,0.3-0.5,0.7c-0.2,0.9-0.1,1.4-0.1,2.7C34.1,5.3,34.3,4.9,34.5,4z"/>
	<path class="st1" d="M35.4,4.2c0.1-0.4,0.1-0.8-0.1-0.8c-0.2-0.1-0.4,0.3-0.5,0.6c-0.2,0.9-0.2,1.4-0.4,2.7
		C34.9,5.5,35.2,5.1,35.4,4.2z"/>
	<path class="st1" d="M36.3,4.6c0.1-0.4,0.1-0.7-0.1-0.8C36,3.6,35.8,4,35.6,4.3C35.3,5.2,35.3,5.7,35,7C35.7,5.8,36,5.4,36.3,4.6z"
		/>
	<path class="st1" d="M37.2,4.9c0.2-0.3,0.2-0.7,0-0.8C37,4,36.7,4.3,36.5,4.7C36.1,5.5,36,6,35.7,7.3C36.5,6.2,36.8,5.8,37.2,4.9z"
		/>
	<path class="st1" d="M38,5.4c0.2-0.3,0.3-0.7,0.1-0.8c-0.2-0.1-0.5,0.2-0.7,0.5c-0.5,0.8-0.6,1.3-1.1,2.5C37.2,6.6,37.6,6.2,38,5.4
		z"/>
	<path class="st1" d="M38.8,6C39,5.7,39.2,5.3,39,5.1c-0.2-0.1-0.5,0.1-0.7,0.4C37.7,6.3,37.5,6.8,37,8C37.9,7,38.3,6.7,38.8,6z"/>
	<path class="st1" d="M37.5,8.4c1-0.9,1.4-1.2,2-1.9c0.2-0.3,0.4-0.7,0.2-0.8c-0.2-0.2-0.5,0.1-0.7,0.4C38.4,6.8,38.2,7.3,37.5,8.4z
		"/>
	<path class="st1" d="M38.1,8.9c1.1-0.8,1.5-1,2.2-1.7c0.3-0.3,0.5-0.6,0.3-0.8c-0.2-0.2-0.5,0-0.8,0.3C39.1,7.4,38.9,7.8,38.1,8.9z
		"/>
	<path class="st1" d="M38.6,9.5c1.2-0.7,1.6-0.9,2.3-1.5c0.3-0.2,0.5-0.6,0.4-0.7c-0.2-0.2-0.5,0-0.8,0.2C39.7,8,39.4,8.4,38.6,9.5z
		"/>
	<path class="st1" d="M39,10c1.2-0.6,1.7-0.8,2.4-1.3C41.8,8.5,42,8.2,41.9,8c-0.2-0.2-0.5,0-0.9,0.2C40.3,8.7,40,9.1,39,10z"/>
	<path class="st1" d="M39.4,10.7c1.3-0.5,1.7-0.6,2.5-1.1c0.3-0.2,0.6-0.5,0.5-0.7S41.9,8.8,41.6,9C40.8,9.5,40.4,9.8,39.4,10.7z"/>
	<path class="st1" d="M39.7,11.3c1.3-0.3,1.8-0.4,2.6-0.8c0.3-0.2,0.6-0.4,0.5-0.6c-0.1-0.2-0.5-0.2-0.8,0
		C41.2,10.2,40.9,10.5,39.7,11.3z"/>
	<path class="st1" d="M40,12c1.3-0.2,1.8-0.3,2.7-0.6c0.4-0.1,0.7-0.4,0.6-0.6c-0.1-0.2-0.5-0.2-0.8-0.1C41.6,11,41.2,11.3,40,12z"
		/>
	<path class="st1" d="M43,12.3c0.4-0.1,0.7-0.3,0.6-0.5c-0.1-0.2-0.5-0.2-0.8-0.1c-0.8,0.2-1.2,0.4-2.3,0.9h1.2
		C42.1,12.5,42.5,12.4,43,12.3z"/>
	<path class="st1" d="M21.1,12.5c-0.3,0-0.5,0-0.7,0.1h0.9C21.2,12.5,21.2,12.5,21.1,12.5z"/>
	<path class="st1" d="M21.3,11.5c-0.4-0.1-0.8-0.1-0.8,0.1c-0.1,0.2,0.3,0.4,0.6,0.5c0.7,0.2,1.2,0.2,2.1,0.3h0.5
		C22.6,12,22.1,11.8,21.3,11.5z"/>
	<path class="st1" d="M21.4,11.3c0.9,0.3,1.3,0.4,2.7,0.6c-1.2-0.7-1.6-0.9-2.4-1.3c-0.4-0.1-0.7-0.1-0.8,0.1
		C20.7,10.9,21,11.2,21.4,11.3z"/>
	<path class="st1" d="M21.7,10.4c0.8,0.4,1.3,0.5,2.6,0.8c-1.1-0.8-1.5-1.1-2.3-1.5c-0.3-0.2-0.7-0.2-0.8,0
		C21.1,10,21.4,10.2,21.7,10.4z"/>
	<path class="st1" d="M22.1,9.5c0.8,0.5,1.3,0.6,2.5,1.1c-1-0.9-1.4-1.2-2.2-1.7c-0.3-0.2-0.7-0.3-0.8-0.1
		C21.5,9.1,21.8,9.3,22.1,9.5z"/>
	<path class="st1" d="M22.6,8.7c0.8,0.5,1.2,0.7,2.4,1.3c-1-1-1.3-1.3-2-1.8c-0.3-0.2-0.7-0.3-0.8-0.1C22.1,8.2,22.3,8.5,22.6,8.7z"
		/>
	<path class="st1" d="M23.2,7.9c0.7,0.6,1.1,0.8,2.3,1.5c-0.9-1-1.2-1.4-1.9-2C23.3,7.1,23,7,22.8,7.2C22.7,7.3,22.9,7.7,23.2,7.9z"
		/>
	<path class="st1" d="M26,8.9c-0.8-1.1-1-1.5-1.7-2.2c-0.3-0.3-0.6-0.5-0.8-0.3c-0.2,0.2,0,0.5,0.3,0.8C24.5,7.8,24.9,8.1,26,8.9z"
		/>
	<path class="st1" d="M26.5,8.4c-0.7-1.2-0.9-1.6-1.5-2.3c-0.2-0.3-0.6-0.5-0.7-0.4c-0.2,0.2,0,0.5,0.2,0.8
		C25.1,7.2,25.5,7.5,26.5,8.4z"/>
	<path class="st1" d="M27.1,7.9c-0.6-1.2-0.8-1.7-1.3-2.4c-0.2-0.3-0.5-0.5-0.7-0.4S25,5.6,25.2,5.9C25.8,6.6,26.2,7,27.1,7.9z"/>
	<path class="st1" d="M27.7,7.5c-0.5-1.3-0.6-1.7-1.1-2.5c-0.2-0.3-0.5-0.6-0.7-0.5S25.8,5,26,5.3C26.5,6.1,26.9,6.5,27.7,7.5z"/>
	<path class="st1" d="M28.4,7.2c-0.3-1.3-0.4-1.8-0.8-2.6C27.4,4.3,27.2,4,27,4.1s-0.2,0.5,0,0.8C27.3,5.7,27.6,6.1,28.4,7.2z"/>
	<path class="st1" d="M29,6.9c-0.2-1.3-0.3-1.8-0.6-2.7c-0.1-0.4-0.4-0.7-0.6-0.6c-0.2,0.1-0.2,0.5-0.1,0.8
		C28.1,5.3,28.4,5.7,29,6.9z"/>
	<path class="st1" d="M29.7,6.7c-0.1-1.3-0.1-1.8-0.4-2.7c-0.1-0.4-0.3-0.7-0.5-0.6s-0.2,0.5-0.1,0.8C28.9,5.1,29.2,5.5,29.7,6.7z"
		/>
	<path class="st1" d="M30.4,6.5c0-1.4,0-1.8-0.1-2.7c-0.1-0.4-0.2-0.7-0.5-0.7s-0.3,0.4-0.2,0.8C29.8,4.8,30,5.3,30.4,6.5z"/>
	<path class="st1" d="M31.2,6.4c0.1-1.3,0.2-1.8,0.1-2.7c0-0.4-0.2-0.7-0.4-0.7c-0.3,0-0.3,0.4-0.3,0.8C30.7,4.7,30.8,5.1,31.2,6.4z
		"/>
	<path class="st1" d="M31.9,7.7c-2.8,0-5.1,2.1-5.5,4.8h10.9C37,9.8,34.7,7.7,31.9,7.7z"/>
</g>
</svg>
