<?xml version="1.0" encoding="utf-8"?>
<!-- Generator: Adobe Illustrator 20.0.0, SVG Export Plug-In . SVG Version: 6.00 Build 0)  -->
<svg version="1.1" id="Layer_1" xmlns="http://www.w3.org/2000/svg" xmlns:xlink="http://www.w3.org/1999/xlink" x="0px" y="0px"
	 viewBox="0 0 64 42" style="enable-background:new 0 0 64 42;" xml:space="preserve">
<style type="text/css">
	.st0{fill:#1EB53A;}
	.st1{fill:#FCD116;}
</style>
<path id="Rounded_Rectangle_7_copy" class="st0" d="M5.8,0h52.3C61.4,0,64,2.6,64,5.7v30.6c0,3.2-2.6,5.7-5.8,5.7H5.8
	C2.6,42,0,39.4,0,36.3V5.7C0,2.6,2.6,0,5.8,0z"/>
<g>
	<polygon class="st1" points="32,11.4 32.9,14.2 35.8,14.1 33.4,15.9 34.4,18.6 32,16.9 29.6,18.6 30.6,15.9 28.2,14.1 31.1,14.2 	
		"/>
	<path class="st1" d="M32,26.7c-7.3,0-13.4-4.5-14.7-10.5c0.2,8,6.7,14.5,14.7,14.5s14.6-6.4,14.7-14.5C45.4,22.2,39.3,26.7,32,26.7
		z"/>
</g>
</svg>
