<?xml version="1.0" encoding="utf-8"?>
<!-- Generator: Adobe Illustrator 20.0.0, SVG Export Plug-In . SVG Version: 6.00 Build 0)  -->
<svg version="1.1" id="Layer_1" xmlns="http://www.w3.org/2000/svg" xmlns:xlink="http://www.w3.org/1999/xlink" x="0px" y="0px"
	 viewBox="0 0 64 42" style="enable-background:new 0 0 64 42;" xml:space="preserve">
<style type="text/css">
	.st0{fill:#007168;}
	.st1{fill:#FFFFFF;}
	.st2{fill:#F9DE00;}
	.st3{fill:#C90F32;}
	.st4{fill:#FFFFFF;stroke:#000000;stroke-width:0.1;stroke-linecap:round;stroke-linejoin:round;}
	.st5{fill:none;stroke:#000000;stroke-width:0.1;stroke-linecap:round;stroke-linejoin:round;}
	.st6{fill:#434A54;stroke:#000000;stroke-width:0.1;stroke-linecap:round;stroke-linejoin:round;}
</style>
<path id="Rounded_Rectangle_7_copy_1_" class="st0" d="M5.8,0h52.3C61.4,0,64,2.6,64,5.7v30.6c0,3.2-2.6,5.7-5.8,5.7H5.8
	C2.6,42,0,39.4,0,36.3V5.7C0,2.6,2.6,0,5.8,0z"/>
<rect y="12.5" class="st1" width="64" height="17"/>
<rect y="14.7" width="64" height="12.5"/>
<path class="st2" d="M0,36.3C0,39.4,2.6,42,5.8,42h52.4c3.2,0,5.8-2.5,5.8-5.7v-6.8H0V36.3z"/>
<path class="st3" d="M1.9,40.5c8.5-6.4,17-12.9,25.5-19.3c-8.5-6.6-17-13.1-25.5-19.7C0.7,2.5,0,4,0,5.7v30.6
	C0,38,0.8,39.5,1.9,40.5z"/>
<g id="Layer_1_1_">
	<g>
		<path class="st2" d="M15.5,28.1l-5-3.7l-5,3.7l1.9-5.9l-5-3.6h6.2l1.9-5.9l1.9,5.9h6.2l-5,3.6L15.5,28.1z"/>
		<path class="st4" d="M6.1,24h3.6c0.3,0.3,0.9,0.5,1.6,0c1.1-0.6,3.3,0,3.3,0l0.4-0.5l-1-3.4l-0.4-0.4c0,0-0.8-0.5-2.3-0.3
			s-2.1-0.1-2.1-0.1s-1.3,0.2-1.7,0.3L7.1,20L6.1,24z"/>
		<path class="st5" d="M6.9,23.1c0,0,3.4-0.4,4.4,0.9c-0.6,0.4-1.1,0.4-1.6,0c0.1-0.1,1.2-1.3,4.2-0.9"/>
		<path class="st6" d="M10.5,19.6v3.8 M13.6,19.7l0.6,3 M7.5,19.7l-0.4,1.6"/>
		<path d="M3.8,24.4l0.8,1c0.1,0.1,0.2,0.1,0.3,0l1.3-1.5l0.5-0.7c0.1-0.1,0.1-0.2,0.1-0.3l1-0.9c0.1,0,0.1,0,0.2,0
			c-0.1,0-0.2-0.1-0.1-0.2l0.2-0.2l0.2,0.2L8,22.1H7.7l-0.5,0.5l0.2,0.2l0.3,1l0.4-0.3l-0.3-1l0.6-0.7l-0.2-0.4l0.2-0.2
			c0,0,2.1,1.3,2.9,1v-0.9c0,0-2.2-0.2-2.2-0.7c-0.1-0.4,0.5-0.5,0.5-0.5L9.5,20l0.1-0.2l0.4,0.5l0.9-0.7l5,5.7
			c0.3-0.1,0.3-0.2,0.4-0.5l-4.9-5.6l0.4-0.4c0.1-0.1,0.1-0.1,0.1-0.3l0.6-0.5c0.2,0.1,0.3,0.2,0.4,0.3l1.6-1.3c0,0,0.2,0.1,0.3,0
			l2.6-2.5l-2.9,2l-0.1-0.1c0-0.1,0.1-0.1,0-0.3c-0.1-0.1-0.3,0.1-0.3,0.1s-0.4-0.1-0.5-0.3v0.5l-0.7,0.7h-0.6l-0.8,0.8l-0.1,0.3
			l0.1,0.3l-0.4,0.4L11,18.8l0.4-0.3l0.1-0.2L11,17.9l-0.5,0.5l-1.4-1.5l0.1-0.3l-0.9-0.9c-0.3-0.1-0.8-0.1-0.9,0.6
			c-0.1,0.2-0.7,0-0.7,0l-0.4,0.1l-2,2.8l1.1,1.3l2.3-2.9l0.1-0.8l0.5,0.5c0.2,0,0.3,0,0.5-0.1l1.3,1.5L9.9,19
			c0.1,0.1,0.1,0.1,0.2,0.2c0.1-0.1,0.1-0.1,0.2-0.2l0.1,0.1c-0.1,0.1-0.2,0.1-0.3,0.2c-0.2-0.1-0.4-0.3-0.3-0.5L9,19.5v0.1
			l-2.2,1.9H6.6l-0.1,0.6L8,20.9v-0.2l0.2,0.1l1.1-0.9L9.4,20l-1,0.9V21l-0.2,0.2L8,21.1l-1.4,1.2H6.4L5.7,23c-0.2,0-0.4,0-0.5,0.2
			L3.8,24.4z"/>
	</g>
</g>
</svg>
