<?xml version="1.0" encoding="utf-8"?>
<!-- Generator: Adobe Illustrator 20.0.0, SVG Export Plug-In . SVG Version: 6.00 Build 0)  -->
<svg version="1.1" id="Layer_1" xmlns="http://www.w3.org/2000/svg" xmlns:xlink="http://www.w3.org/1999/xlink" x="0px" y="0px"
	 viewBox="0 0 64 42" style="enable-background:new 0 0 64 42;" xml:space="preserve">
<style type="text/css">
	.st0{fill:#009040;}
	.st1{fill:#D3231E;}
	.st2{fill:#FBDE4A;}
</style>
<path id="Rounded_Rectangle_7_copy_2_" class="st0" d="M5.8,0h52.3C61.4,0,64,2.6,64,5.7v30.6c0,3.2-2.6,5.7-5.8,5.7H5.8
	C2.6,42,0,39.4,0,36.3V5.7C0,2.6,2.6,0,5.8,0z"/>
<path class="st1" d="M58.2,42c3.2,0,5.8-2.5,5.8-5.7V5.7C64,2.6,61.4,0,58.1,0h-1.9L16.8,42H58.2z"/>
<path class="st2" d="M58.1,0H41.5L0.8,39.2c1,1.6,2.9,2.8,5,2.8h13.3L61.5,1.1C60.6,0.4,59.4,0,58.1,0z"/>
</svg>
