<?xml version="1.0" encoding="utf-8"?>
<!-- Generator: Adobe Illustrator 20.0.0, SVG Export Plug-In . SVG Version: 6.00 Build 0)  -->
<svg version="1.1" id="Layer_1" xmlns="http://www.w3.org/2000/svg" xmlns:xlink="http://www.w3.org/1999/xlink" x="0px" y="0px"
	 viewBox="0 0 64 42" style="enable-background:new 0 0 64 42;" xml:space="preserve">
<style type="text/css">
	.st0{fill:#0082C6;}
	.st1{fill:#007654;}
	.st2{fill:#F9D616;}
	.st3{fill:#F9D616;stroke:#0082C6;stroke-width:0.2;}
</style>
<path id="Rounded_Rectangle_7_copy_2_" class="st0" d="M5.8,0h52.3C61.4,0,64,2.6,64,5.7v30.6c0,3.2-2.6,5.7-5.8,5.7H5.8
	C2.6,42,0,39.4,0,36.3V5.7C0,2.6,2.6,0,5.8,0z"/>
<path class="st1" d="M0,36.3C0,39.4,2.6,42,5.8,42h52.4c3.2,0,5.8-2.5,5.8-5.7V30H0V36.3z"/>
<rect y="18" class="st2" width="64" height="12"/>
<polygon class="st2" points="54.9,9.8 59.4,9.5 60,9.5 59.8,9.5 59.8,9.5 59.7,9.5 55.1,9.2 59.8,7.6 55,8.6 59.1,5.9 54.7,8.1 
	58,4.4 54.3,7.7 56.5,3.3 53.8,7.4 54.8,2.6 53.2,7.3 52.9,2.4 52.9,2.5 52.9,2.4 52.6,7.3 51,2.6 52,7.4 49.3,3.3 51.5,7.7 
	47.8,4.4 51.1,8.1 46.6,5.9 50.8,8.6 45.9,7.6 50.7,9.2 45.7,9.5 45.6,9.5 50.5,9.8 45.8,11.4 50.6,10.4 46.5,13.1 50.9,10.9 
	47.6,14.6 51.3,11.3 49.1,15.7 51.8,11.6 50.8,16.4 52.4,11.7 52.7,16.6 52.7,16.4 52.7,16.6 53,11.7 54.6,16.4 53.6,11.6 
	56.3,15.7 54.1,11.3 57.8,14.6 54.5,10.9 58.9,13.1 54.8,10.4 59.6,11.4 "/>
<circle class="st3" cx="52.8" cy="9.4" r="2.1"/>
</svg>
