<?xml version="1.0" encoding="utf-8"?>
<!-- Generator: Adobe Illustrator 20.0.0, SVG Export Plug-In . SVG Version: 6.00 Build 0)  -->
<svg version="1.1" id="Layer_1" xmlns="http://www.w3.org/2000/svg" xmlns:xlink="http://www.w3.org/1999/xlink" x="0px" y="0px"
	 viewBox="0 0 64 42" style="enable-background:new 0 0 64 42;" xml:space="preserve">
<style type="text/css">
	.st0{fill:#FFFFFF;}
	.st1{fill:#DA121A;}
	.st2{fill:#07872F;}
	.st3{fill:#0F47AF;}
	.st4{fill:#FBDD08;}
</style>
<path id="Rounded_Rectangle_7_copy_1_" d="M5.8,0h52.3C61.4,0,64,2.6,64,5.7v30.6c0,3.2-2.6,5.7-5.8,5.7H5.8C2.6,42,0,39.4,0,36.3
	V5.7C0,2.6,2.6,0,5.8,0z"/>
<rect y="12.5" class="st0" width="64" height="17"/>
<rect y="14.7" class="st1" width="64" height="12.5"/>
<path class="st2" d="M0,36.3C0,39.4,2.6,42,5.8,42h52.4c3.2,0,5.8-2.5,5.8-5.7v-6.8H0V36.3z"/>
<path class="st3" d="M2,40.6c9.7-6.5,19.4-13.1,29.1-19.6C21.4,14.4,11.7,7.9,2,1.4C0.8,2.4,0,4,0,5.7v30.6C0,38,0.8,39.6,2,40.6z"
	/>
<polygon class="st4" points="16.8,16 13.8,21.3 17.8,25.8 11.9,24.5 8.8,29.8 8.2,23.7 2.2,22.4 7.8,20 7.2,13.9 11.3,18.5 "/>
</svg>
