<?xml version="1.0" encoding="utf-8"?>
<!-- Generator: Adobe Illustrator 20.0.0, SVG Export Plug-In . SVG Version: 6.00 Build 0)  -->
<svg version="1.1" id="Layer_1" xmlns="http://www.w3.org/2000/svg" xmlns:xlink="http://www.w3.org/1999/xlink" x="0px" y="0px"
	 viewBox="0 0 64 42" style="enable-background:new 0 0 64 42;" xml:space="preserve">
<style type="text/css">
	.st0{fill:#3A57AC;}
	.st1{fill:#FCD600;}
	.st2{fill:#B10C0C;}
	.st3{fill:#FFD900;stroke:#000000;stroke-width:0.35;}
	.st4{fill:#FFFFFF;stroke:#000000;stroke-width:0.25;}
	.st5{fill:#FFD900;stroke:#000000;stroke-width:0.25;}
	.st6{fill:none;stroke:#000000;stroke-width:0.25;}
	.st7{fill:#3D5DA7;stroke:#000000;stroke-width:0.25;}
	.st8{fill:#A70000;}
	.st9{fill:#FFFFFF;stroke:#000000;stroke-width:1.9764;}
	.st10{fill:#FFFFFF;}
</style>
<path id="Rounded_Rectangle_7_copy_1_" class="st0" d="M5.8,0h52.3C61.4,0,64,2.6,64,5.7v30.6c0,3.2-2.6,5.7-5.8,5.7H5.8
	C2.6,42,0,39.4,0,36.3V5.7C0,2.6,2.6,0,5.8,0z"/>
<path class="st0" d="M0,36.3C0,39.4,2.6,42,5.8,42h52.4c3.2,0,5.8-2.5,5.8-5.7v-6.8H0V36.3z"/>
<rect y="8.1" class="st1" width="64" height="25.9"/>
<rect y="10.9" class="st2" width="64" height="20.1"/>
<g>
	<title>Flag of Swaziland</title>
	<path class="st3" d="M9.9,20.4h42.5c0.2,0,0.4,0.2,0.4,0.4l0,0c0,0.2-0.2,0.4-0.4,0.4H9.9c-0.2,0-0.4-0.2-0.4-0.4l0,0
		C9.5,20.6,9.7,20.4,9.9,20.4z"/>
	<g transform="matrix(1.0079365,0,0,1.0079473,-614.28579,-25.000134)">
		<path class="st4" d="M657.1,41.4l-2.1,0.8l2.1,0.8l2.1-0.8C659.3,42.2,657.1,41.4,657.1,41.4z"/>
		<path class="st5" d="M624.7,41.9h31c0.2,0,0.3,0.1,0.3,0.3l0,0c0,0.1-0.1,0.3-0.3,0.3h-31c-0.2,0-0.3-0.1-0.3-0.3l0,0
			C624.4,42,624.6,41.9,624.7,41.9z"/>
		<path class="st6" d="M655.2,42.4c0.1,0,0.3-0.1,0.3-0.3s-0.1-0.3-0.3-0.3"/>
		<path class="st6" d="M655,42.4c0.1,0,0.3-0.1,0.3-0.3s-0.1-0.3-0.3-0.3"/>
		<path class="st6" d="M654.7,42.4c0.1,0,0.3-0.1,0.3-0.3s-0.1-0.3-0.3-0.3"/>
	</g>
	<g transform="matrix(1.0079365,0,0,1.0079473,-642.85716,-3.5714476)">
		<path class="st4" d="M683.5,21.7l-2.1,0.8l2.1,0.8l2.1-0.8C685.6,22.4,683.5,21.7,683.5,21.7z"/>
		<path class="st5" d="M651,22.2h31c0.2,0,0.3,0.1,0.3,0.3l0,0c0,0.1-0.1,0.3-0.3,0.3h-31c-0.2,0-0.3-0.1-0.3-0.3l0,0
			C650.8,22.3,650.9,22.2,651,22.2z"/>
		<path class="st6" d="M681.6,22.7c0.1,0,0.3-0.1,0.3-0.3s-0.1-0.3-0.3-0.3"/>
		<path class="st6" d="M681.3,22.7c0.1,0,0.3-0.1,0.3-0.3s-0.1-0.3-0.3-0.3"/>
		<path class="st6" d="M681.1,22.7c0.1,0,0.3-0.1,0.3-0.3s-0.1-0.3-0.3-0.3"/>
	</g>
	<g transform="matrix(0.47172739,0,0,0.47382898,348.424,253.51974)">
		<path class="st7" d="M-633.2-491.8c-0.8,1.4,0.6-0.5,4.1,1.9c0.7,0.4,1.2,1.6,1.2,2.4c-0.2-0.1-0.3-0.4-0.5-0.5
			c-0.3,0.3,0.2,1.4,0.3,2c-0.6-0.3-0.5-0.5-0.7-0.8c0,0.5-0.1,1.7,0.1,2.2c-0.4-0.1-0.4-0.5-0.6-0.5c0.2,0.5-0.1,1.1-0.1,1.8
			c-0.3-0.2-0.5-0.4-0.6-0.5c0,0.3-0.5,1.1-0.5,1.3c-0.2-0.1-0.3-0.3-0.3-0.5c-0.3,0.3-1.2,1.6-1.3,1.9c-0.7-0.6-2.6-2.2-2.9-3
			c-0.2,0.5-0.5,0.6-1.1,1c-0.2-1.3-1.2-2.8-0.7-3.9c-0.3,0.2-0.6,0.4-1,0.7C-637.3-488.4-635.7-490.7-633.2-491.8L-633.2-491.8z"/>
		<path class="st8" d="M-636.3-484.8c0.3-0.7,0.7-0.9,0.9-1.3c0.4-0.8,0.4-1.4,0.8-1.3s0.3,0.4-0.1,1.2
			C-635.2-485.5-635.4-485.3-636.3-484.8z"/>
		<path class="st8" d="M-634-483.2c0-0.5,0.1-0.7,0.1-1.1c0-0.6-0.3-1,0-1s0.5,0.2,0.5,0.8C-633.4-483.9-633.5-483.7-634-483.2z"/>
		<path class="st8" d="M-632.3-482.2c-0.1-0.7,0-1-0.1-1.5c-0.2-0.8-0.5-1.3-0.2-1.4s0.5,0.2,0.6,1
			C-631.9-483.3-631.9-483-632.3-482.2z"/>
		<path class="st8" d="M-630.5-487.2c-0.4-0.3-0.7-0.3-0.9-0.5c-0.5-0.4-0.7-0.7-0.9-0.6s0,0.4,0.5,0.7
			C-631.3-487.2-631.1-487.2-630.5-487.2z"/>
		<path class="st8" d="M-630.8-484.8c-0.2-0.5-0.5-0.6-0.6-0.9c-0.3-0.5-0.3-1-0.5-0.9c-0.3,0.1-0.3,0.4,0,0.9
			C-631.6-485.2-631.4-485.1-630.8-484.8z"/>
	</g>
	<g transform="matrix(0.46216812,0,0,0.47298633,-111.4688,249.82007)">
		<path class="st7" d="M265.8-483.5c0-0.4,0-0.5-0.2-0.8c0.4,0.2,0.4,0.6,0.8,0.3c0.2-0.1,0.2-0.1,0-0.5c0.5,0,2,0.5,2.3,0.6
			c0.7,0,1.9-0.7,2.7,0.2c0.8,0.8,0.5,1.6,0.5,2.7c-0.3-0.2-0.2-0.2-0.5-0.6c0.3,1,0,2.7,0,3.7c-0.1-0.2-0.1-0.1-0.2-0.4
			c-0.3,0.9-0.7,1.1-0.7,2.2c-0.1-0.4,0-0.3-0.1-0.6c-0.3,0.7-2.6,1.3-1.7,2c-0.8-0.4-1.1-0.4-1.5-0.8c-0.2,0.1-0.3,0.3-0.4,0.5
			c-1.4-0.6-0.9-1.9-1.9-2.8c-0.2,0.4-0.1,0.3-0.3,0.9c-0.2-0.8-0.3-1.4-0.5-2c-0.2,0.3-0.2,0.2-0.6,0.7c-0.2-1-0.4-1.3-0.3-1.9
			c-0.4,0.3-0.1,0.2-0.5,0.5C262.9-482.1,264.6-484.1,265.8-483.5L265.8-483.5z"/>
		<path class="st8" d="M264.1-479.2c0.4-0.8,0.7-1.1,0.9-1.6c0.4-0.9,0.5-1.7,0.8-1.6s0.3,0.5-0.1,1.4
			C265.2-480.1,265-479.9,264.1-479.2z"/>
		<path class="st8" d="M265.4-477.1c0.1-0.8,0.4-1,0.5-1.5c0.2-0.9,0.1-1.5,0.4-1.5s0.4,0.4,0.2,1.2S266.1-477.8,265.4-477.1z"/>
		<path class="st8" d="M267-475.6c0-0.7,0.2-1,0.2-1.5c0-0.8-0.1-1.4,0.2-1.4c0.3,0,0.4,0.3,0.3,1.1
			C267.7-476.6,267.5-476.4,267-475.6z"/>
		<path class="st8" d="M270.4-480.4c-0.7-0.6-1-0.8-1.5-1.2c-0.7-0.7-1.1-1.4-1.4-1.2s-0.1,0.6,0.7,1.3
			C269-480.8,269.3-480.7,270.4-480.4z"/>
		<path class="st8" d="M270-478c-0.4-0.6-0.7-0.8-1-1.2c-0.5-0.7-0.6-1.3-0.9-1.2c-0.3,0.2-0.2,0.5,0.3,1.2S269.1-478.4,270-478z"/>
	</g>
	<g transform="matrix(1.0079365,0,0,1.0079473,0,1.2399686e-4)">
		<path class="st9" d="M43.3,20.6c-2.5,2.5-5.9,7.6-12.6,7.6c-5.9,0-10.1-5-12.6-7.6c2.5-2.5,6.7-7.6,12.6-7.6
			C37.4,13.1,40.7,18.1,43.3,20.6z"/>
		<path d="M29.8,15.7c0.7,0.8,0.1,1.1,0.8,1.1c0.7,0.1,0.3,0.8,1,0.8c0.4,0,0,1.8,0.4,2.4c0.4,0.6,0.8,0.2,0.8,0.6
			c0,0.5-1.2,0.4-1.2,1.8c0,0.8-1,0.9-1,1.4c-0.1,0.5,1.9,0.8,1.9,1.2s-2.1,0.4-2.2,0.9c0,0.4,2.9,0.8,3.1,2.1
			c-0.4,0.1-1.7,0.3-2.6,0.3c-5.9,0-10.1-5-12.6-7.6c2.5-2.5,6.7-7.6,12.6-7.6C30.6,13.1,28.9,14.7,29.8,15.7L29.8,15.7z"/>
		<g transform="matrix(0.484849,0,0,0.533333,183.7152,210.2362)">
			<rect x="-332" y="-360.5" class="st10" width="1.3" height="3.8"/>
			<rect x="-332" y="-354.2" class="st10" width="1.3" height="3.8"/>
			<rect x="-329.5" y="-360.5" class="st10" width="1.3" height="3.8"/>
			<rect x="-329.5" y="-354.2" class="st10" width="1.3" height="3.8"/>
			<rect x="-327" y="-360.5" class="st10" width="1.3" height="3.8"/>
			<rect x="-327" y="-354.2" class="st10" width="1.3" height="3.8"/>
			<rect x="-324.5" y="-360.5" class="st10" width="1.3" height="3.8"/>
			<rect x="-324.5" y="-354.2" class="st10" width="1.3" height="3.8"/>
			<rect x="-321.9" y="-360.5" class="st10" width="1.3" height="3.8"/>
			<rect x="-321.9" y="-354.2" class="st10" width="1.3" height="3.8"/>
			<rect x="-319.4" y="-360.5" class="st10" width="1.3" height="3.8"/>
			<rect x="-319.4" y="-354.2" class="st10" width="1.3" height="3.8"/>
		</g>
		<g transform="matrix(0.484849,0,0,0.533333,313.6365,210.2362)">
			<rect x="-580.9" y="-360.5" width="1.3" height="3.8"/>
			<rect x="-580.9" y="-354.2" width="1.3" height="3.8"/>
			<rect x="-578.4" y="-360.5" width="1.3" height="3.8"/>
			<rect x="-578.4" y="-354.2" width="1.3" height="3.8"/>
			<rect x="-575.9" y="-360.5" width="1.3" height="3.8"/>
			<rect x="-575.9" y="-354.2" width="1.3" height="3.8"/>
			<rect x="-573.3" y="-360.5" width="1.3" height="3.8"/>
			<rect x="-573.3" y="-354.2" width="1.3" height="3.8"/>
			<rect x="-570.8" y="-360.5" width="1.3" height="3.8"/>
			<rect x="-570.8" y="-354.2" width="1.3" height="3.8"/>
			<rect x="-568.3" y="-360.5" width="1.3" height="3.8"/>
			<rect x="-568.3" y="-354.2" width="1.3" height="3.8"/>
		</g>
	</g>
	<g transform="matrix(0.53134179,0,0,0.52021975,143.80523,162.0966)">
		<path class="st7" d="M-220.3-283.7c-0.7,1.3,1.2-0.4,4,1.8c0.5,0.4,1.3,2,1.3,2.8c-0.6-0.1-1.7-0.7-1.7-0.7s1.3,1.3,1.3,2.8
			c-0.4-0.3-0.7-0.2-0.8-0.6c0,0.5,0.4,0.8,0.4,1.5c-0.3-0.3-0.6-0.4-0.9-0.6c0.4,0.7-0.8,2.2-0.2,2.7c-1-0.2-2.1-0.8-2.5-1.6
			c-0.2,0.2-0.2,0.4-0.3,0.7c0,0-1.6-1.2-1.4-1.7c-0.2,0.3-0.2,0.5-0.3,0.8c-0.6-0.6-1.1-1.2-1.3-2c-0.3,0.4-0.3,0.4-0.5,0.7
			c-0.2-1.2-0.2-1.2,0.2-2.2c-0.3,0.2-0.5,0.4-0.8,0.6C-223.6-280.5-222.2-282.6-220.3-283.7L-220.3-283.7z"/>
		<path class="st8" d="M-221.9-277.3c0.1-0.9,0.3-1.2,0.4-1.8c0.1-1,0-1.8,0.3-1.8c0.4,0,0.5,0.4,0.3,1.4
			C-221.1-278.4-221.2-278.1-221.9-277.3z"/>
		<path class="st8" d="M-220-275.6c-0.1-0.8,0.1-1.1,0-1.6c-0.1-0.9-0.3-1.4,0-1.5s0.5,0.2,0.5,1.1S-219.6-276.5-220-275.6z"/>
		<path class="st8" d="M-217.2-274.2c-0.3-0.7-0.6-0.9-0.8-1.3c-0.4-0.7-0.4-1.4-0.7-1.2c-0.3,0.1-0.3,0.4,0.1,1.2
			C-218.1-274.9-217.9-274.7-217.2-274.2z"/>
		<path class="st8" d="M-216.2-280.2c-0.8-0.4-1.2-0.4-1.7-0.7c-0.9-0.5-1.4-1-1.6-0.7c-0.2,0.3,0.1,0.6,1,1
			C-217.6-280.1-217.3-280.1-216.2-280.2z"/>
		<path class="st8" d="M-215.9-277.7c-0.6-0.5-0.9-0.6-1.3-0.9c-0.7-0.6-1-1.1-1.2-0.9s-0.1,0.5,0.6,1
			C-217.1-277.9-216.8-277.8-215.9-277.7z"/>
	</g>
</g>
</svg>
