<?xml version="1.0" encoding="utf-8"?>
<!-- Generator: Adobe Illustrator 20.0.0, SVG Export Plug-In . SVG Version: 6.00 Build 0)  -->
<svg version="1.1" id="Layer_1" xmlns="http://www.w3.org/2000/svg" xmlns:xlink="http://www.w3.org/1999/xlink" x="0px" y="0px"
	 viewBox="0 0 64 42" style="enable-background:new 0 0 64 42;" xml:space="preserve">
<style type="text/css">
	.st0{fill:#57A863;}
	.st1{fill:#D52828;}
	.st2{fill:#F8D455;}
	.st3{fill:#FFFFFF;}
	.st4{fill:#003D83;}
	.st5{fill:#00743A;}
</style>
<path class="st0" d="M64,5.3v31.4c0-0.1,0-0.3,0-0.4V5.7C64,5.6,64,5.5,64,5.3z"/>
<path class="st1" d="M58.1,0H42.7l-41,40.3c0.2,0.2,0.5,0.4,0.7,0.6L64,14V5.7C64,2.6,61.4,0,58.1,0z"/>
<path class="st2" d="M1.7,40.3L42.7,0H21.3L1.2,39.7C1.3,39.9,1.5,40.1,1.7,40.3z"/>
<path class="st3" d="M3.1,41.3L64,28V14L2.4,40.9C2.6,41.1,2.9,41.2,3.1,41.3z"/>
<path class="st4" d="M21.3,0H5.8C2.6,0,0,2.6,0,5.7v30.6c0,1.3,0.4,2.4,1.2,3.4L21.3,0z"/>
<path class="st5" d="M5.8,42h52.4c3.2,0,5.8-2.5,5.8-5.7V28L3.1,41.3C3.9,41.8,4.8,42,5.8,42z"/>
</svg>
