<?xml version="1.0" encoding="utf-8"?>
<!-- Generator: Adobe Illustrator 20.0.0, SVG Export Plug-In . SVG Version: 6.00 Build 0)  -->
<svg version="1.1" id="Layer_1" xmlns="http://www.w3.org/2000/svg" xmlns:xlink="http://www.w3.org/1999/xlink" x="0px" y="0px"
	 viewBox="0 0 64 42" style="enable-background:new 0 0 64 42;" xml:space="preserve">
<style type="text/css">
	.st0{fill:#006348;}
	.st1{fill:#FFCE00;}
	.st2{fill:#C00F30;}
	.st3{fill:#FFFFFF;}
</style>
<path id="Rounded_Rectangle_7_copy_1_" class="st0" d="M5.8,0h52.3C61.4,0,64,2.6,64,5.7v30.6c0,3.2-2.6,5.7-5.8,5.7H5.8
	C2.6,42,0,39.4,0,36.3V5.7C0,2.6,2.6,0,5.8,0z"/>
<rect y="24.9" class="st1" width="64" height="8.4"/>
<rect y="8.4" class="st1" width="64" height="8.4"/>
<path class="st2" d="M24.9,0H5.8C2.6,0,0,2.6,0,5.7v19.2h24.9V0z"/>
<polygon class="st3" points="12.4,4.9 14.4,10.9 20.8,10.9 15.6,14.6 17.6,20.7 12.4,16.9 7.3,20.7 9.3,14.6 4.1,10.9 10.5,10.9 "/>
</svg>
