<?xml version="1.0" encoding="utf-8"?>
<!-- Generator: Adobe Illustrator 20.0.0, SVG Export Plug-In . SVG Version: 6.00 Build 0)  -->
<svg version="1.1" id="Layer_1" xmlns="http://www.w3.org/2000/svg" xmlns:xlink="http://www.w3.org/1999/xlink" x="0px" y="0px"
	 viewBox="0 0 64 42" style="enable-background:new 0 0 64 42;" xml:space="preserve">
<style type="text/css">
	.st0{fill:#DE3908;}
	.st1{fill:#FFE700;}
	.st2{fill:#FFFFFF;}
	.st3{fill:#DE3908;stroke:#000000;stroke-width:0.1;}
	.st4{fill:#FFE700;stroke:#000000;stroke-width:0.1;}
	.st5{stroke:#000000;stroke-width:0.25;}
	.st6{fill:#9CA69C;}
	.st7{fill:#DE3908;stroke:#000000;stroke-width:0.25;}
	.st8{fill:#FFFFFF;stroke:#FFFFFF;stroke-width:0.25;}
	.st9{fill:#FFFFFF;stroke:#000000;stroke-width:0.1;}
	.st10{stroke:#FFFFFF;stroke-width:0.1;}
</style>
<path id="Rounded_Rectangle_7_copy_1_" class="st0" d="M5.8,0h52.3C61.4,0,64,2.6,64,5.7v30.6c0,3.2-2.6,5.7-5.8,5.7H5.8
	C2.6,42,0,39.4,0,36.3V5.7C0,2.6,2.6,0,5.8,0z"/>
<path class="st0" d="M0,36.3C0,39.4,2.6,42,5.8,42h52.4c3.2,0,5.8-2.5,5.8-5.7V7H0V36.3z"/>
<path d="M58.1,0H5.8C2.6,0,0,2.6,0,5.7V7h64V5.7C64,2.6,61.4,0,58.1,0z"/>
<rect y="7" class="st1" width="64" height="7"/>
<rect y="21" width="64" height="7"/>
<rect y="28" class="st1" width="64" height="7"/>
<g>
	<circle class="st2" cx="32" cy="19" r="8.7"/>
	<g>
		<path class="st3" d="M30.5,12.4l-0.6-1c0.2-0.2,0.6-0.4,1.2-0.4L31,12.1L30.5,12.4z"/>
		<path class="st4" d="M31,12.1l0.1-1.1c0,0,1.2-0.1,1.8,0.7l-0.6,0.9L31,12.1z"/>
		<path class="st3" d="M32.3,12.5l0.6-0.9c0.4,0.4,0.5,0.7,0.6,1.1l-0.9,0.2C32.6,13,32.3,12.5,32.3,12.5z"/>
		<path class="st5" d="M30.8,27.2c0,0,1.1-1.2,3.2-1c-0.3-0.5-1.3-0.5-1.3-0.5s-0.3-2.4-0.1-2.5s1.3,0,1.3,0c0.1,0,0.4-0.4,0.2-0.6
			s-0.7-1.1-0.5-1.3c0.2-0.2,1.5,0.1,1.5,0.1l-3.5-4.5c0,0-0.4-1.7,0.4-2.5c0.9-0.7,0.8-1.5,0.7-1.5c-0.1-0.8-1.3-1.3-2.1-0.6
			c-0.5,0.6-0.2,1-0.2,1s-1.2,0.3-1.3,0.6c0,0.2,1.4,0,1.4,0l-0.1,1c0,0-2.8,2.6-0.7,4.8l0.1-0.1c0,0,0.8,0.9,1.6,1.1
			c0.7,0.8,0.7,0.7,0.7,0.7s0.1,1.2,0,1.4c-0.2-0.1-2.1-0.1-2.4,0s-1.2,0-1,1.6c0.2-0.4,0.4-0.8,0.4-0.8s0,0.6,0.2,0.8
			c0-0.6,0.2-1,0.2-1s0,0.7,0.2,0.8c0.1,0.1,0.1-1.1,1-1c0.8,0.1,1.4,0.1,1.4,0.1s0.3,2.3,0.2,2.5c-0.6-0.1-2,0.1-2.1,0.4
			c0.8,0,1.2,0,1.2,0S30.6,26.8,30.8,27.2z"/>
		<path class="st6" d="M31.1,14.5c0,0-2.1,2.3-1.2,4c0-0.2,0-0.4,0.1-0.4c0.1,0.1,0.1,0.1,0.2,0.2l0,0c0-0.1-0.1-0.2-0.1-0.2
			c0-0.1,0-0.1-0.1-0.2c0.1,0,0.2,0,0.3,0.1c-0.1-0.1-0.1-0.2-0.2-0.3c0.1,0,0.3,0,0.4,0l-0.1-0.4h0.3
			C30.3,16.3,30.8,15.4,31.1,14.5z"/>
		<path class="st6" d="M31.8,12.6c0,0,0.1,0.8-0.3,1c-0.1,0-0.3,0.1-0.3,0.3s0.2,0.2,0.3,0.1C32,13.9,32.5,13,31.8,12.6z"/>
		<circle class="st2" cx="30.9" cy="13.3" r="0.2"/>
		<path class="st7" d="M30.4,13.9c-0.1,0.1-0.7,0.7-0.1,0.9c0.6-0.2,0.4-0.3,0.6-0.4C30.8,14.1,30.5,14.1,30.4,13.9z"/>
		<path class="st6" d="M31.6,19.5c0,0.1-0.2,0.6,0,1c0.5-0.2,0.7-0.1,0.9,0C32.1,20.1,32,20,31.6,19.5z"/>
		<path class="st8" d="M32.5,21.7v1.1c0,0,0.4,0.1,0.6,0C33.2,22.8,33.1,22.1,32.5,21.7z"/>
		<path class="st6" d="M35.3,21.9c0,0-0.7-1.7-2.5-2.1s-1.6-2.4-1.4-2.5c0.1-0.2,0.1-0.4,0.7-0.2c0.5,0.2,2.9,1.5,3.3,1.5
			C35.6,18.6,35.3,21.9,35.3,21.9z"/>
		<path class="st3" d="M33.5,19.7c0,0,2.4,1.4,1.7,2.7c0.7-0.5,0.5-1.3,0.5-1.3s0.6,1.5-0.8,2.2c0.1,0.1,0.2,0.1,0.2,0.1l-0.2,0.2
			c0,0-0.1,0.2,0.8-0.3c-0.3,0.2-0.3,0.4-0.3,0.4s0.1,0.2,0.7-0.3c-0.5,0.5-0.6,0.8-0.6,0.8c1.3-0.1,4.2-4.4-0.9-5.7
			c0.3,0.3,0.2,0.2,0.2,0.2L33.5,19.7z"/>
		<path class="st9" d="M33.6,19.3c0.3,0.2,0.5,0.3,0.5,0.4c-0.3-0.1-0.6,0-0.6,0S32.9,19,32.8,19c-0.1,0-0.6-0.3-0.6-0.3
			c-0.3-0.1-0.5-1,0.5-0.8c1,0.5,1.1,0.5,1.1,0.5c0.4,0.1,0.8,0.2,1.2,0.4c0.2,0.2,0.4,0.5,0.7,0.7c0,0-1.2-0.6-1.3-0.6
			c0.3,0.3,0.5,0.6,0.5,0.6C34.4,19.4,34,19.3,33.6,19.3z"/>
		<path class="st10" d="M29.1,13.9c0,0,1.1-0.3,1.3-0.2"/>
	</g>
</g>
</svg>
