<?xml version="1.0" encoding="utf-8"?>
<!-- Generator: Adobe Illustrator 20.0.0, SVG Export Plug-In . SVG Version: 6.00 Build 0)  -->
<svg version="1.1" id="Layer_1" xmlns="http://www.w3.org/2000/svg" xmlns:xlink="http://www.w3.org/1999/xlink" x="0px" y="0px"
	 viewBox="0 0 64 42" style="enable-background:new 0 0 64 42;" xml:space="preserve">
<style type="text/css">
	.st0{fill:#198A00;}
	.st1{fill:none;}
	.st2{fill:#E07500;}
	.st3{fill:#DE2010;}
	.st4{fill:#E07500;stroke:#000000;stroke-width:0.1;stroke-linecap:round;stroke-linejoin:round;}
</style>
<path id="Rounded_Rectangle_7_copy" class="st0" d="M5.8,0h52.3C61.4,0,64,2.6,64,5.7v30.6c0,3.2-2.6,5.7-5.8,5.7H5.8
	C2.6,42,0,39.4,0,36.3V5.7C0,2.6,2.6,0,5.8,0z"/>
<path class="st1" d="M58.1,0H5.8C2.6,0,0,2.6,0,5.7v30.6C0,39.4,2.6,42,5.8,42H37V15.1h9h9h9V5.7C64,2.6,61.4,0,58.1,0z"/>
<rect x="46" y="15.1" width="9" height="26.9"/>
<path class="st2" d="M55,42h3.2c3.2,0,5.8-2.5,5.8-5.7V15.1h-9V42z"/>
<rect x="37" y="15.1" class="st3" width="9" height="26.9"/>
<g>
	<path class="st4" d="M57.3,6c0,0,3.1-1.2,3.4-1.5c0.1,0.2-1.2,1.7-3.9,2.2c2.4-0.5,4.5-2.2,4.9-2.1c0.1,0,0.1,1.6-5.5,3
		c3.9-0.9,6.1-2.6,6.1-2.4c0,0-0.4,1.3-3.8,2.4c1-0.3,3.5-1.7,3.5-1.4c0.1,0.1-2.5,3.1-7.1,2.1c3.7,0.9,6.1-1.2,6.4-1.2
		c0.1,0-0.7,1.9-5.3,2c2.2-0.2,1.6,0,1.6,0s-1.3,0.9-2.9,0.3c1.2,0.3,1.4,0.3,1.4,0.4C56,9.9,55,10.1,54,9.6
		c0.8,0.3,1.5,0.4,1.5,0.5c0,0-0.5,0.3-1,0.1s-4.6-2.5-4.6-2.5L57,5.9L57.3,6z"/>
	<path class="st4" d="M49,12.3c-0.6,0-0.6,0.5-0.6,0.5s-0.1,0,0,0.3c0.1-0.2,0.2-0.2,0.2-0.2c0.1,0,0.4,0.1,0.8-0.2
		c-0.4,0.4-0.2,0.5-0.2,0.5s-0.1,0.3,0.2,0.4c-0.1-0.1,0-0.2,0-0.2s0.4,0,0.4-0.5c0,0.4,0.3,0.6,0.3,0.6s0,0.2,0.3,0.3
		c-0.2-0.1-0.1-0.3-0.1-0.3s0.4-0.2,0.1-0.7c0.2-0.1,0.3-0.4,0.3-0.4s-0.3-0.1-0.4-0.2c-0.1-0.1,0-0.7,0-0.7L50,10.6l-0.4,1.2
		C49.6,11.6,49.6,12.3,49,12.3z"/>
	<path class="st4" d="M52,10.6c0,0,0.5,0.5,0.9,0.5c0.2-0.1-0.3-0.4-0.3-0.5c0.2,0.2,0.9,0.7,1.4,0.5c0.2-0.3-0.3-0.2-0.9-0.9
		c0.4,0.3,1.4,0.8,1.9,0.6c0.2-0.2-1.1-0.8-1.5-1.3L52.4,9l-1.5,1.1L52,10.6z"/>
	<path class="st4" d="M50.3,6.7c0,0,0.5-0.3,2.5-0.1c0.2,0,1.4-0.4,1.8-0.5c0.6-0.1,2.5-0.5,3-0.8c0.4,0-0.1,0.6-0.5,0.8
		c-0.5,0.2-2.2,0.8-2.8,0.7c0.7,0,0.3,0.6-0.9,0.3c0.6,0.3,0.4,0.4,0.4,0.4s-1,0.1-1.3-0.2c0.7,0.2,0.4,0.3,0.4,0.3s-0.7,0.1-1-0.1
		C52.2,7.6,52,7.7,52,7.7s-0.4,0.1-0.8-0.1C50.9,7.5,50.4,6.7,50.3,6.7z"/>
	<path class="st4" d="M51.2,10.8l0.1,1.2c0,0,0,0.1-0.1,0.1c0,0-0.9-0.1-0.8,0.5c0,0.3,0,0.3,0.2,0.5c-0.1-0.2,0-0.3,0-0.3
		s0.3,0.1,0.5-0.2c-0.2,0.4-0.1,0.5,0,0.5c0,0.1-0.1,0.4,0.3,0.4c-0.1-0.1-0.1-0.3-0.1-0.3s0.4-0.1,0.2-0.7c0.1-0.1,0.2,0,0.2,0
		s0,0.4,0.4,0.3c0.1,0.1,0,0.3,0,0.3s0.2,0,0.3-0.2s0.1-0.5-0.2-0.6c0-0.1,0.1-0.1,0.1-0.1s0.2,0.1,0.3,0.2c0.1,0.1,0-0.3-0.3-0.3
		c-0.4,0-0.4-0.1-0.4-0.1s-0.1-0.9-0.1-1.1L51.2,10.8z"/>
	<path class="st4" d="M52.4,11.9c0-0.1-0.6-0.8-0.5-0.9c0.2,0,0.4,0.4,0.6,0.3c-0.1-0.1-0.3-0.1-0.5-0.4c-0.2-0.4-0.2-1-1-1.6
		c0.5,0.7,1.6,1.1,1.6,0.9c0-0.2-1-1-0.9-1.1c0.2,0.4,1.2,1.2,2,1.1c0.1-0.2-0.6-0.5-0.8-0.8c-0.5-0.3-1.8-1.3-1.8-1.6
		c-0.5-0.6-0.8-0.8-0.9-0.9c-0.1-0.1-0.1-0.1-0.1-0.1c-0.1-0.8,0.3-1,0.5-1s0.2,0,0.4-0.1c-0.2-0.1-0.3-0.1-0.5-0.2
		c0.2,0.1,0.7,0,0.6,0.4c0.2-0.1,0.7-0.6-0.6-0.7c-0.4-0.4-2.1-0.7-2.6,1.2c0,0,0.1,0,0.2,0.1c-0.5-0.2-2-0.4-2.5-0.5
		c-1.4-0.4-2.9-1.3-3-1.2c-0.2,0.1,0.9,1,0.8,1c-0.9-0.5-1.7-0.8-2.5-1.1c-0.5-0.2-1.1-0.6-1.1-0.5c-0.2,0.4,0.9,1.3,1.1,1.4
		c0.2,0.1,1.8,0.8,1.7,0.8c-2.4-1-2.8-1.2-2.9-1.3c-0.2,0-0.7-0.7-0.9-0.6C38.7,4.6,38.9,5.6,40,6c0.2,0.1,2.4,0.9,2.4,0.9
		s-2.6-1-2.7-1c-0.5-0.2-1.1-0.8-1.2-0.7c-0.1,0.1,0.3,0.7,0.8,0.9c0.3,0.1,1.3,0.6,2.2,0.8c0.1,0-1.6-0.6-2.4-0.9
		c-0.4-0.2-0.5-0.4-0.6-0.4s0.1,1,2.7,1.6c0.1,0,0.9-0.2,0.9-0.2s-0.8,0.2-0.9,0.2c-0.1,0-0.5,0-0.5,0.1s0.2,0.4,1.5,0.3
		c0.2,0,1.1-0.3,1-0.2c0,0-1.3,0.4-1.4,0.4c-0.1,0-0.5,0.1-0.5,0.1c0,0.1,0.3,0.3,1,0.4c0.6,0,1.8-0.4,1.8-0.3l-1.2,0.4
		c0,0-0.5,0-0.5,0.1s0.6,0.6,2.5,0C44.7,8.8,43.8,9,43.8,9s0.2,0.2,0.5,0.3c0.2,0,0.4,0,0.6,0c0.4-0.1,0.7-0.2,1.2-0.6
		c0.1,0.1-1.2,0.7-1.1,0.8c0.3,0.2,1.2,0,1.2-0.1c0.1,0,1.7-0.9,1.7-1c0,0.1-2.2,1.2-2.1,1.3c0.1,0.2,0.9,0,0.9,0l1-0.5
		c0,0-1.1,0.6-1,0.7c0,0.4,1.7-0.3,1.9-0.4c0.1,0-0.9,0.4-0.9,0.6c0.3,0.5,1.3,0.3,1.4,0.2c0.1-0.1-0.1,0.3,0,0.3
		c0,0,0.2-0.2,0.3-0.4c0,0.1-0.1,0.3-0.2,0.6c-0.1,0.2-0.1,0.5-0.2,0.8c0,0.1,0.6-0.2,0.5-1.1c0.1,0.5-0.2,1.3-0.1,1.3
		c0.1,0.1,0.5-0.4,0.5-0.8c0.1,0.2,0.3,0.5,0.5,0.6c0-0.3,0-0.3-0.1-0.5c0-0.3,0.1-0.8,0.1-1.4c0.5,0.9,0.7,1.3,0.6,2
		c0.2,0.1,0.4-0.5,0.4-0.8C51.6,11.8,52.4,11.9,52.4,11.9z"/>
	<path class="st4" d="M43.9,6.1c0,0-0.3,0.2-0.8,0.2c0.1,0.4,1,0.1,1,0.1S43.7,6.9,43.4,7c0.2,0.1,1,0.1,1.1,0s0.4-0.3,0.4-0.3
		s-0.9,0.8-1,0.8c0,0.1,0.8,0.1,1-0.1C45.1,7.3,45.6,7,45.6,7l-1.2,0.8c0.4,0.1,1.3-0.1,1.9-0.4C45.5,7.9,45.4,8,45,8.2
		c0.4,0.1,0.6,0.3,1.9-0.2c0.6-0.4,1-1,1-1c-0.5,0.6-1.2,1-2,1.5c0,0.1,0.9,0.4,2-0.7"/>
	<path class="st4" d="M50.1,8.5c0,0,0.1,0.3,0.4,0.6c0.3,0.3,0.3,0.5,0.3,0.5"/>
	<path class="st4" d="M50,6.3c0,0,0.1,0.3,0.4,0.5c0.3,0.2,0.8,0.8,0.9,0.9c0,0.1,0.2,1.1,0.2,1.2"/>
	<path class="st4" d="M48,6.8c0,0.1-0.5,0.7,0.2,1.4C47.6,8.9,47.6,9,47.6,9s0.3,0.2,0.9-0.3c1,1.1,0.7,1.6,0.7,1.6"/>
	<path class="st4" d="M49.1,9.5c0,0-0.1-0.1,0.1-0.6c0.1,0.2,0.3,0.2,0.4,0.3c0.1,0.1,0.8,0.2,0.9,0.6"/>
	<path class="st4" d="M50,5.3c0,0-0.1-0.3-0.7,0C49.6,5.3,49.9,5.5,50,5.3z"/>
	<path class="st4" d="M55.3,6.6c0,0,1.7,0.3,2.2,0.2c-0.7,0.9-2.1,0.3-2.1,0.3c0.7,0.2,0.7,0.2,0.9,0.4c0.1,0.2-1.3,0.1-1.7-0.1
		c1.2,0.4,1.2,0.3,1.3,0.5s-2-0.1-2.2-0.3c0.5,0.4,0.8,0.5,1.1,0.6c-0.4,0.2-1.1,0.3-2.3-0.5C54.3,9,55.8,8.9,56,9.1
		c-0.6,0.8-2.8-0.5-3.8-1.1s2.2,1.5,2.5,1.5c-0.2,0.2-1.2,0-1.3-0.1"/>
	<path class="st4" d="M55.7,8.1c-0.2,0-0.8,0-0.8,0"/>
	<path class="st4" d="M43.4,5.9c0,0,1.2,0.6,1.8,0.6c-0.1,0.1-0.3,0.2-0.3,0.2c0.1,0,0.5,0.2,1,0.1C45.8,6.9,45.6,7,45.6,7
		s0.5,0.2,1-0.1c-0.2,0.2-0.3,0.3-0.3,0.3h0.4"/>
</g>
</svg>
