<?xml version="1.0" encoding="utf-8"?>
<!-- Generator: Adobe Illustrator 20.0.0, SVG Export Plug-In . SVG Version: 6.00 Build 0)  -->
<svg version="1.1" id="Layer_1" xmlns="http://www.w3.org/2000/svg" xmlns:xlink="http://www.w3.org/1999/xlink" x="0px" y="0px"
	 viewBox="0 0 64 42" style="enable-background:new 0 0 64 42;" xml:space="preserve">
<style type="text/css">
	.st0{fill:#319208;}
	.st1{fill:#FFD200;}
	.st2{fill:#DE2010;}
	.st3{fill:#FFFFFF;}
</style>
<path id="Rounded_Rectangle_7_copy_1_" class="st0" d="M5.8,0h52.3C61.4,0,64,2.6,64,5.7v30.6c0,3.2-2.6,5.7-5.8,5.7H5.8
	C2.6,42,0,39.4,0,36.3V5.7C0,2.6,2.6,0,5.8,0z"/>
<rect y="6" class="st1" width="64" height="6"/>
<rect y="12" class="st2" width="64" height="6"/>
<rect y="18" width="64" height="6"/>
<rect y="24" class="st2" width="64" height="6"/>
<rect y="30" class="st1" width="64" height="6"/>
<path d="M3.2,0.6C2.8,0.8,2.4,1.1,2,1.4L28.6,21L2,40.6c0.4,0.3,0.8,0.6,1.3,0.8L31,21L3.2,0.6z"/>
<path class="st3" d="M2,40.6L28.6,21L2,1.4C0.8,2.5,0,4,0,5.7v30.6C0,38,0.8,39.5,2,40.6z"/>
<polygon class="st2" points="9.4,12.4 11.8,17.4 17.3,18.2 13.3,22 14.3,27.4 9.4,24.9 4.5,27.4 5.5,22 1.5,18.2 7,17.4 "/>
<path class="st1" d="M14.2,21.5c0.3,0,0.4,0.1,0.5,0.1c-0.2-0.2-4-3-4.8-3.6s-1-0.8-1-0.8S8.3,15.9,8,15.5c-0.2-0.4-0.7-0.9-1.3-0.9
	s-0.9,0.3-1.1,1c-0.1,0-0.6,0.3-0.6,0.6c0.1,0,1-0.3,1.4,0.8c0.3,1,0.3,2.7,0,3.5S5.6,22,5.6,22.7c0,0.1,0.1,0.3,0.2,0.3
	c0.1,0.3,0.5,2.6,0.5,2.6H13l0.3-1.1l0,0l0,0l0.1-0.5l0,0l0,0l0.2-0.6l0,0l0,0l0.2-0.9l0,0l0,0L14.2,21.5L14.2,21.5z"/>
</svg>
